<?xml version="1.0" standalone="no"?>
<!DOCTYPE svg PUBLIC "-//W3C//DTD SVG 1.1//EN" "http://www.w3.org/Graphics/SVG/1.1/DTD/svg11.dtd" >
<svg xmlns="http://www.w3.org/2000/svg" width="100%" height="100%">
<metadata>
Created by FontXChange 20110222 at Tue Nov  8 16:28:15 2011
 By Dan Rempel
 The digitally encoded machine readable software for producing the
 Typefaces licensed to you is copyrighted (c) 1989, 1990 Adobe Systems.
 All rights reserved. This software is the property of Adobe Systems
 Incorporated and its licensors, and may not be reproduced, used,
 displayed, modified, disclosed, or transferred  without the express
 written approval of Adobe.

 The digitally encoded machine readable outline data for producing
 the Typefaces licensed to you is copyrighted (c) 1981 Linotype AG
 and/or its subsidiaries. All Rights Reserved.
 This data is the property of Linotype AG and/or its subsidiaries
 and may not be reproduced, used, displayed, modified, disclosed or
 transferred without the express written approval of Linotype AG
 and/or its subsidiaries. 
</metadata>
<defs>
<font id="TradeGothic-LightOblique" horiz-adv-x="556" >
  <font-face 
    font-family="TradeGothic"
    font-weight="200"
    font-style="oblique"
    font-stretch="normal"
    units-per-em="1000"
    panose-1="2 0 3 3 0 0 0 0 0 0"
    ascent="800"
    descent="-200"
    x-height="520"
    cap-height="722"
    bbox="-169.217 -212 1101.06 949"
    underline-thickness="50"
    underline-position="-100"
    stemv=" 60 "
    unicode-range="U+0020-FB02"
  />
    <missing-glyph />
    <glyph glyph-name="space" unicode=" " horiz-adv-x="278" 
 />
    <glyph glyph-name="exclam" unicode="!" horiz-adv-x="222" 
d="M228.063 722h86l-128.848 -500h-50zM154 0h-86l19.9521 90h86z" />
    <glyph glyph-name="quotedbl" unicode="&#x22;" horiz-adv-x="333" 
d="M195.961 496l50.1025 226h50l-50.1025 -226h-50zM306.961 496l50.1025 226h50l-50.1025 -226h-50z" />
    <glyph glyph-name="numbersign" unicode="#" 
d="M564.739 283l-10.6406 -48h-113l-85.0986 -235h-49l85.0986 235h-148l-85.0986 -235h-49l85.0986 235h-118l10.6406 48h124l57.8066 157h-118l10.6416 48h124l84.876 234h50l-84.876 -234h147l84.876 234h50l-84.876 -234h106l-10.6416 -48h-113l-56.8066 -157h106z
M466.546 440h-148l-56.8066 -157h147z" />
    <glyph glyph-name="dollar" unicode="$" 
d="M415.063 722l15.5186 70h48l-15.5186 -70c90.1133 -4 150.812 -64 162.841 -118c-2.22266 -1 -44.873 -31 -50.5381 -34c-18.3633 57 -58.9395 95 -123.165 103l-62.5186 -282c94.5713 -29 199.151 -76 171.218 -202c-27.2686 -123 -145.679 -188 -257.9 -189
l-26.3818 -119h-48l26.3818 119c-96.1133 4 -171.585 56 -193.633 146l54.3164 33c16.0381 -72 67.958 -131 149.958 -131l65.8428 297c-90.0137 27 -183.15 76 -157.213 193c26.8252 121 127.349 182 240.792 184zM344.786 405l59.6367 269
c-77 0 -157.085 -50 -175.042 -131c-19.5098 -88 46.6182 -119 115.405 -138zM376.603 332l-62.9609 -284c82.2217 1 175.523 61 193.702 143c19.2871 87 -64.2832 116 -130.741 141z" />
    <glyph glyph-name="percent" unicode="%" horiz-adv-x="889" 
d="M406.063 722c90 0 147.595 -74 127.643 -164c-19.9531 -90 -110.358 -164 -200.358 -164s-147.595 74 -127.642 164c19.9521 90 110.357 164 200.357 164zM395.423 674c-64 0 -128.528 -52 -141.717 -116c-15.1885 -64 26.2832 -116 90.2832 -116s128.528 52 141.717 116
c15.1885 64 -26.2832 116 -90.2832 116zM715.716 328c90 0 147.595 -74 127.643 -164c-19.9531 -90 -110.358 -164 -200.358 -164s-147.595 74 -127.642 164c19.9521 90 110.357 164 200.357 164zM705.074 280c-64 0 -128.527 -52 -141.716 -116
c-15.1885 -64 26.2832 -116 90.2832 -116s128.528 52 141.717 116c15.1885 64 -26.2842 116 -90.2842 116zM846.281 732l-589.498 -742h-52l588.498 742h53z" />
    <glyph glyph-name="ampersand" unicode="&#x26;" horiz-adv-x="667" 
d="M147.132 172c-18.8447 -85 49.623 -128 125.623 -128c85 0 146.976 45 176.519 70c-39.0234 45 -104.095 180 -129.463 246c-89.7549 -44 -150.953 -90 -172.679 -188zM345.253 574c-10.4199 -47 -3.83887 -94 14.7363 -132c73.9814 36 137.504 97 150.584 156
c9.97656 45 -7.26367 80 -63.2637 80c-47 0 -85.6514 -30 -102.057 -104zM614.376 340l59.3398 -12c-34.0703 -77 -81.2539 -150 -138.221 -213c25.4619 -34 60.2549 -62 109.59 -65l-13.3018 -60c-63.335 3 -114.463 34 -150.486 79c-66.085 -50 -147.514 -79 -223.514 -79
c-113 0 -203.477 61 -175.765 186c23.499 106 81.584 156 218.541 237c-22.1367 49 -32.6133 110 -19.7549 168c21.2832 96 90.4756 151 181.476 151c82.001 0 132.694 -51 113.406 -138c-21.7256 -98 -108.919 -153 -193.891 -207c38.4863 -79 69.6416 -164 117.01 -230
c48.1934 55 88.1602 118 115.57 183z" />
    <glyph glyph-name="quoteright" unicode="&#x2019;" horiz-adv-x="222" 
d="M236.063 722h86l-19.9521 -90l-96.2539 -150h-39l91.2539 150h-42z" />
    <glyph glyph-name="parenleft" unicode="(" horiz-adv-x="333" 
d="M368.28 732h72c-131.268 -123 -211.188 -276 -240.229 -407s-16.9609 -284 59.7705 -407h-72c-64.7314 123 -76.8125 276 -47.7705 407s108.962 284 228.229 407z" />
    <glyph glyph-name="parenright" unicode=")" horiz-adv-x="333" 
d="M108.821 -82h-72c131.269 123 211.188 276 240.229 407s16.9619 284 -59.7705 407h72c64.7324 -123 76.8125 -276 47.7705 -407s-108.961 -284 -228.229 -407z" />
    <glyph glyph-name="asterisk" unicode="*" horiz-adv-x="500" 
d="M438.063 722l-42.2588 -141l141.75 53l4.91504 -50l-147.537 -34l68.165 -103l-51.7598 -35l-40.5098 124l-97.4902 -124l-38.3486 30l116.943 108l-136.35 30l29.5283 52l120.693 -51l18.2588 141h54z" />
    <glyph glyph-name="plus" unicode="+" horiz-adv-x="600" 
d="M336.627 287l51.6543 233h54l-51.6543 -233h233l-11.9717 -54h-233l-51.6553 -233h-54l51.6553 233h-233l11.9717 54h233z" />
    <glyph glyph-name="comma" unicode="," horiz-adv-x="278" 
d="M115.952 90h86l-19.9521 -90l-96.2539 -150h-39l91.2539 150h-42z" />
    <glyph glyph-name="hyphen" unicode="-" horiz-adv-x="333" 
d="M342.655 233h-249l11.9717 54h249z" />
    <glyph glyph-name="period" unicode="." horiz-adv-x="278" 
d="M182 0h-86l19.9521 90h86z" />
    <glyph glyph-name="slash" unicode="/" horiz-adv-x="278" 
d="M452.28 732l-407.497 -742h-59l411.497 742h55z" />
    <glyph glyph-name="zero" unicode="0" 
d="M440.28 732c176.001 0 212.978 -167 167.752 -371c-45.2266 -204 -156.249 -371 -332.249 -371s-212.978 167 -167.751 371c45.2256 204 156.248 371 332.248 371zM428.31 678c-130 0 -212.599 -129 -254.277 -317s-16.2773 -317 113.723 -317s212.599 129 254.277 317
s16.2773 317 -113.723 317z" />
    <glyph glyph-name="one" unicode="1" 
d="M444 0h-310l11.9717 54h124l134.347 606l-142.434 -20l8.64648 39l173.749 53h42l-150.309 -678h120z" />
    <glyph glyph-name="two" unicode="2" 
d="M224.173 515l-55.5615 11c52.8203 130 157.669 206 280.669 206c131.001 0 194.708 -78 167.218 -202c-20.3955 -92 -70.4756 -151 -232.424 -250c-94.8584 -58 -249.027 -158 -268.103 -226h396l-11.9717 -54h-456l9.31152 42c11.084 50 69.5986 129 309.518 282
c162.278 105 176.82 130 193.226 204c19.2881 87 -15.7451 150 -125.745 150c-86 0 -158.193 -55 -206.137 -163z" />
    <glyph glyph-name="three" unicode="3" 
d="M43.707 134l59.6514 30c23.6035 -92 72.3965 -120 166.396 -120c121 0 190.415 56 213.027 158c23.0566 104 -37.8584 154 -173.858 154h-66l11.9707 54h54c130 0 207.755 44 229.038 140c19.9521 90 -31.623 128 -128.623 128c-67 0 -122.873 -31 -186.84 -94
l-39.4619 34c86.1787 82 164.272 114 243.272 114c93.001 0 208.911 -41 178.982 -176c-18.4014 -83 -61.2637 -132 -153.688 -170c73.3496 -30 119.6 -83 97.6514 -182c-33.6973 -152 -151.442 -214 -294.442 -214c-117 0 -191.802 46 -211.076 144z" />
    <glyph glyph-name="four" unicode="4" 
d="M492.318 660l-359.998 -424h273l93.998 424h-7zM54.3486 182l11.3066 51l425.408 489h88l-107.965 -487h109l-11.75 -53h-109l-40.3486 -182h-66l40.3486 182h-339z" />
    <glyph glyph-name="five" unicode="5" 
d="M196.494 327l-50.0049 9l117.574 386h359l-11.9717 -54h-310l-75.6445 -251c53.3105 42 112.188 64 176.188 64c139 0 196.392 -111 167.35 -242c-32.1455 -145 -142.202 -249 -307.202 -249c-90 0 -165.802 46 -188.071 135l61.7588 35
c21.8213 -82 69.2842 -116 146.284 -116c129 0 204.839 94 226.122 190c25.2725 114 -19.2129 193 -127.213 193c-62 0 -142.203 -37 -184.17 -100z" />
    <glyph glyph-name="six" unicode="6" 
d="M643.979 672l-40.8623 -49c-27.4678 43 -74.8066 55 -129.807 55c-165 0 -262.014 -185 -292.386 -322c59.9707 54 140.282 96 215.282 96c147 0 208.943 -104 179.236 -238c-30.5938 -138 -162.659 -224 -293.659 -224c-201 0 -208.316 179 -171.516 345
c40.3486 182 172.013 397 376.013 397c63.001 0 116.123 -22 157.698 -60zM511.882 225c21.9473 99 -24.6475 173 -138.647 173c-106 0 -206.495 -115 -212.259 -141c-28.8203 -130 24.7793 -213 134.779 -213c112 0 191.297 69 216.127 181z" />
    <glyph glyph-name="seven" unicode="7" 
d="M203.092 668l11.9717 54h446l-8.64551 -39l-458.418 -683h-71l456.092 668h-376z" />
    <glyph glyph-name="eight" unicode="8" 
d="M440.28 732c137.001 0 212.255 -62 185.431 -183c-17.5146 -79 -78.373 -137 -175.467 -169c111.585 -56 138.953 -122 122.991 -194c-31.9238 -144 -147.452 -196 -297.452 -196s-242.472 52 -210.548 196c15.9619 72 72.5938 138 209.009 194
c-82.9062 32 -118.048 90 -100.533 169c26.8242 121 129.569 183 266.569 183zM131.235 186c-21.7266 -98 50.5195 -142 156.52 -142s197.754 44 219.48 142c17.292 78 -43.8398 118 -151.198 166c-128.642 -48 -207.51 -88 -224.802 -166zM240.376 552
c-17.293 -78 42.9531 -122 127.632 -146c95.3213 24 175.075 68 192.368 146c18.8438 85 -38.0664 126 -132.066 126s-169.09 -41 -187.934 -126z" />
    <glyph glyph-name="nine" unicode="9" 
d="M62.085 50l41.3066 51c29.2402 -35 62.3633 -57 126.363 -57c168 0 259.692 161 294.056 316c-60.415 -56 -140.727 -98 -215.727 -98c-147 0 -207.17 112 -181.01 230c33.6973 152 166.206 240 297.206 240c201.001 0 208.317 -179 171.516 -345
c-40.3486 -182 -152.013 -397 -360.013 -397c-79 0 -132.123 22 -173.698 60zM194.183 497c-22.835 -103 22.873 -181 136.873 -181c106 0 206.938 117 212.702 143c30.1504 136 -23.4482 219 -133.448 219c-112 0 -191.297 -69 -216.127 -181z" />
    <glyph glyph-name="colon" unicode=":" horiz-adv-x="278" 
d="M182 0h-86l19.9521 90h86zM249.396 304h-86l19.9521 90h86z" />
    <glyph glyph-name="semicolon" unicode=";" horiz-adv-x="278" 
d="M115.952 90h86l-19.9521 -90l-96.2539 -150h-39l91.2539 150h-42zM249.396 304h-86l19.9521 90h86z" />
    <glyph glyph-name="less" unicode="&#x3c;" horiz-adv-x="600" 
d="M571.528 52l-12.8584 -58l-467.236 238l12.415 56l572.763 238l-12.8584 -58l-498.112 -208z" />
    <glyph glyph-name="equal" unicode="=" horiz-adv-x="600" 
d="M645.796 387l-11.9717 -54h-520l11.9717 54h520zM601.457 187l-11.9717 -54h-520l11.9717 54h520z" />
    <glyph glyph-name="greater" unicode="&#x3e;" horiz-adv-x="600" 
d="M38.6699 -6l12.8584 58l498.112 208l-405.888 208l12.8584 58l467.236 -238l-12.4141 -56z" />
    <glyph glyph-name="question" unicode="?" horiz-adv-x="389" 
d="M208.47 584l-44.457 25c43.4053 74 107.268 123 192.268 123c86 0 152.586 -56 128.864 -163c-29.4854 -133 -209.24 -177 -236.73 -301l-10.6416 -48h-54l15.9629 72c22.834 103 194.801 166 222.291 290c13.7451 62 -22.7168 96 -78.7168 96
c-66 0 -109.75 -53 -134.84 -94zM202 0h-86l19.9521 90h86z" />
    <glyph glyph-name="at" unicode="@" horiz-adv-x="800" 
d="M379.9 189c95 0 203.919 153 224.094 244c10.6416 48 -19.4961 97 -59.4961 97c-104 0 -208.48 -142 -229.984 -239c-13.5234 -61 16.3867 -102 65.3867 -102zM650.183 497l40.6318 66h54l-163.4 -295c-11.6553 -21 -22.0889 -41 -25.415 -56
c-3.99023 -18 1.57129 -29 19.5713 -29c81 0 193.599 129 218.872 243c35.249 159 -76.916 262 -224.916 262c-181 0 -350.92 -153 -390.381 -331c-39.2402 -177 71.3926 -323 247.393 -323c101 0 216.749 53 295.594 138h52c-87.0518 -113 -229.349 -182 -357.349 -182
c-210 0 -333.756 168 -288.086 374c45.0039 203 249.583 368 448.584 368c188 0 308.179 -130 268.496 -309c-34.1416 -154 -186.405 -286 -290.405 -286c-35 0 -59.9014 23 -52.4814 70l-2.44336 -2c-39.3154 -33 -94.0752 -68 -146.075 -68
c-84 0 -120.925 68 -102.968 149c31.4814 142 163.622 296 308.622 296c46 0 81.6797 -24 90.1562 -85z" />
    <glyph glyph-name="A" unicode="A" horiz-adv-x="611" 
d="M250.292 290h241l-36.2002 378h-2zM25 0l391.063 722h101l67.9365 -722h-70l-20.6797 236h-273l-126.32 -236h-70z" />
    <glyph glyph-name="B" unicode="B" horiz-adv-x="667" 
d="M243.149 348l-65.1777 -294h171c127 0 194.198 46 216.811 148c18.4004 83 -27.6328 146 -172.633 146h-150zM314.092 668l-58.9707 -266h157c85 0 175.208 28 198.707 134c23.5 106 -36.7363 132 -166.736 132h-130zM100 0l160.063 722h202
c178 0 243.585 -56 215.874 -181c-17.293 -78 -57.2686 -123 -136.585 -156c71.2412 -35 109.718 -96 89.543 -187c-33.2539 -150 -144.896 -198 -300.896 -198h-230z" />
    <glyph glyph-name="C" unicode="C" horiz-adv-x="611" 
d="M672.946 523l-63.8818 -13c-7.5 106 -51.7549 168 -138.755 168c-143 0 -237.038 -140 -276.277 -317c-39.2402 -177 -7.27734 -317 142.723 -317c116 0 176.179 82 221.018 176l59.5615 -11c-55.5986 -129 -142.551 -219 -293.551 -219
c-175 0 -245.189 148 -195.751 371c49.4375 223 185.248 371 360.248 371c129.001 0 179.826 -91 184.666 -209z" />
    <glyph glyph-name="D" unicode="D" horiz-adv-x="667" 
d="M314.092 668l-136.12 -614h140c160 0 270.83 112 314.061 307s-17.9404 307 -177.94 307h-140zM100 0l160.063 722h204c224 0 276.756 -168 233.969 -361s-170.032 -361 -394.032 -361h-204z" />
    <glyph glyph-name="E" unicode="E" 
d="M531 0h-431l160.063 722h412l-11.9717 -54h-346l-58.9707 -266h249l-11.9717 -54h-249l-65.1777 -294h365z" />
    <glyph glyph-name="F" unicode="F" 
d="M166 0h-66l160.063 722h424l-11.9717 -54h-358l-58.9707 -266h261l-11.9717 -54h-261z" />
    <glyph glyph-name="G" unicode="G" horiz-adv-x="667" 
d="M687.946 523l-64.4385 -11c-1.60352 92 -42.1982 166 -149.198 166c-127 0 -237.047 -122 -280.277 -317c-34.3633 -155 -25.2773 -317 160.723 -317c102 0 186.292 78 207.574 174l14.6318 66h-182l11.9717 54h248l-74.9326 -338h-57l15.7402 71h-2
c-55.415 -56 -113.957 -81 -213.957 -81c-161 0 -247.736 132 -194.751 371c52.9844 239 207.248 371 362.248 371c134.001 0 199.935 -86 197.666 -209z" />
    <glyph glyph-name="H" unicode="H" horiz-adv-x="722" 
d="M100 0l160.063 722h66l-70.9424 -320h390l70.9424 320h66l-160.063 -722h-66l77.1494 348h-390l-77.1494 -348h-66z" />
    <glyph glyph-name="I" unicode="I" horiz-adv-x="278" 
d="M106 0l160.063 722h66l-160.063 -722h-66z" />
    <glyph glyph-name="J" unicode="J" horiz-adv-x="444" 
d="M19.0654 86l59.873 31c17.915 -50 34.8164 -73 97.8164 -73c64 0 105.646 39 125.377 128l121.932 550h66l-126.366 -570c-23.9424 -108 -101.914 -162 -202.914 -162c-87 0 -119.128 31 -141.718 96z" />
    <glyph glyph-name="K" unicode="K" horiz-adv-x="611" 
d="M100 0l160.063 722h66l-86.9043 -392l416.904 392h81l-294.188 -276l162.124 -446h-74l-140.766 398l-170.806 -157l-53.4287 -241h-66z" />
    <glyph glyph-name="L" unicode="L" horiz-adv-x="500" 
d="M100 0l160.063 722h66l-148.092 -668h322l-11.9717 -54h-388z" />
    <glyph glyph-name="M" unicode="M" horiz-adv-x="833" 
d="M166 0h-66l160.063 722h116l63.3232 -612h2l335.677 612h116l-160.063 -722h-66l148.092 668h-2l-365.092 -668h-63l-68.9082 668h-2z" />
    <glyph glyph-name="N" unicode="N" horiz-adv-x="722" 
d="M100 0l160.063 722h111l209.54 -602h2l133.46 602h66l-160.063 -722h-68l-237.908 668h-2l-148.092 -668h-66z" />
    <glyph glyph-name="O" unicode="O" horiz-adv-x="667" 
d="M495.28 732c181.001 0 249.973 -158 202.752 -371c-47.2217 -213 -186.249 -371 -367.249 -371s-249.973 158 -202.751 371c47.2207 213 186.248 371 367.248 371zM342.755 44c133 0 244.272 114 289.277 317c45.0039 203 -15.7227 317 -148.723 317
s-244.273 -114 -289.277 -317c-45.0049 -203 15.7227 -317 148.723 -317z" />
    <glyph glyph-name="P" unicode="P" horiz-adv-x="611" 
d="M166 0h-66l160.063 722h218c172 0 226.265 -80 199.439 -201s-116.561 -201 -288.561 -201h-152zM314.092 668l-65.1777 -294h152c125 0 189.528 52 210.589 147c21.0615 95 -20.4111 147 -145.411 147h-152z" />
    <glyph glyph-name="Q" unicode="Q" horiz-adv-x="667" 
d="M644 0l-13.3018 -60c-63 0 -125.901 23 -148.825 91c-45.9863 -27 -97.0898 -41 -151.09 -41c-181 0 -249.973 158 -202.751 371c47.2207 213 186.248 371 367.248 371c181.001 0 249.973 -158 202.752 -371c-27.0469 -122 -84.1035 -226 -162.735 -292
c19.0283 -54 45.7031 -69 108.703 -69zM386.806 157l14.4102 65c54.7832 -10 94.6895 -42 118.718 -96c50.9717 54 89.4854 133 112.099 235c45.0039 203 -15.7227 317 -148.723 317s-244.273 -114 -289.277 -317c-45.0049 -203 15.7227 -317 148.723 -317
c43 0 84.6602 12 121.98 36c-19.25 53 -38.2598 71 -77.9297 77z" />
    <glyph glyph-name="R" unicode="R" horiz-adv-x="667" 
d="M314.092 668l-62.9609 -284h178c96 0 167.75 53 187.48 142c19.7314 89 -20.5195 142 -124.52 142h-178zM491.819 342l101.181 -342h-72l-94.8408 330h-187l-73.1592 -330h-66l160.063 722h244c142 0 204.708 -78 178.548 -196c-21.0605 -95 -82.0273 -158 -190.792 -184
z" />
    <glyph glyph-name="S" unicode="S" 
d="M72.5703 183l65.2119 19c3.61328 -110 56.9727 -158 170.973 -158c90 0 156.637 57 175.924 144c43.0088 194 -364.84 118 -311.854 357c23.7207 107 115.456 187 249.456 187c114.001 0 184.255 -62 192.647 -173l-60.7695 -17c-8.26367 80 -51.8486 136 -143.849 136
c-84 0 -152.642 -48 -171.485 -133c-10.8633 -49 -4.62305 -84 117.292 -134c186.151 -76 216.066 -126 193.011 -230c-27.2686 -123 -145.344 -191 -262.344 -191c-138 0 -203.477 61 -214.213 193z" />
    <glyph glyph-name="T" unicode="T" 
d="M179.092 668l11.9717 54h494l-11.9717 -54h-214l-148.092 -668h-66l148.092 668h-214z" />
    <glyph glyph-name="U" unicode="U" horiz-adv-x="722" 
d="M260.063 722h66l-109.073 -492c-30.5947 -138 25.7646 -186 153.765 -186s205.641 48 236.235 186l109.073 492h66l-107.743 -486c-36.3584 -164 -140.537 -246 -315.537 -246s-242.821 82 -206.463 246z" />
    <glyph glyph-name="V" unicode="V" 
d="M242 0l-73.9365 722h70l56.7754 -628h2l341.225 628h70l-400.063 -722h-66z" />
    <glyph glyph-name="W" unicode="W" horiz-adv-x="833" 
d="M207 0l-30.9365 722h67l20.54 -602h2l277.46 602h66l7.54004 -602h2l290.46 602h67l-353.063 -722h-66l-9.31348 594h-2l-272.687 -594h-66z" />
    <glyph glyph-name="X" unicode="X" 
d="M320.801 378l-135.737 344h78l109.152 -288l232.848 288h78l-284.263 -344l145.199 -378h-78l-119.944 316l-256.056 -316h-78z" />
    <glyph glyph-name="Y" unicode="Y" 
d="M241 0l67.8389 306l-128.775 416h74l98.8555 -357l269.145 357h74l-321.225 -416l-67.8389 -306h-66z" />
    <glyph glyph-name="Z" unicode="Z" 
d="M225.092 668l11.9717 54h428l-12.415 -56l-512.677 -612h382l-11.9717 -54h-464l11.9717 54l513.12 614h-346z" />
    <glyph glyph-name="bracketleft" unicode="[" horiz-adv-x="333" 
d="M248.063 722h186l-7.98047 -36h-126l-160.064 -722h126l-7.98047 -36h-186z" />
    <glyph glyph-name="backslash" unicode="\" horiz-adv-x="278" 
d="M228.783 -10l-78.5029 742h55l82.5029 -742h-59z" />
    <glyph glyph-name="bracketright" unicode="]" horiz-adv-x="333" 
d="M229.038 -72h-186l7.98047 36h126l160.064 722h-126l7.98047 36h186z" />
    <glyph glyph-name="asciicircum" unicode="^" horiz-adv-x="600" 
d="M433.063 722h53l123.559 -426h-66l-101.521 354l-254.479 -354h-66z" />
    <glyph glyph-name="underscore" unicode="_" horiz-adv-x="500" 
d="M472.288 -125h-500l11.085 50h500z" />
    <glyph glyph-name="quoteleft" unicode="&#x2018;" horiz-adv-x="222" 
d="M255.074 492h-86l19.9521 90l96.2539 150h39l-91.2539 -150h42z" />
    <glyph glyph-name="a" unicode="a" horiz-adv-x="500" 
d="M424 0h-58l5.9668 63c-72.8633 -49 -125.184 -73 -205.184 -73c-81 0 -131.915 50 -112.85 136c31.4805 142 153.245 168 380.886 216l7.98145 36c15.2969 69 -6.94336 104 -95.9434 104c-62 0 -120.538 -34 -171.84 -94l-34.6797 24c63.623 84 135.16 118 219.16 118
c118 0 163.359 -48 137.864 -163l-60.3018 -272c-5.76367 -26 -11.3008 -60 -13.0605 -95zM383.49 124l37.6885 170c-249.528 -52 -292.392 -101 -307.023 -167c-12.6367 -57 19.2695 -89 73.2695 -89c56 0 132.315 33 196.065 86z" />
    <glyph glyph-name="b" unicode="b" 
d="M92 0l160.063 722h60l-59.8574 -270c62.9717 54 110.292 78 180.292 78c121 0 179.727 -114 145.808 -267c-39.2402 -177 -134.522 -273 -269.522 -273c-71 0 -123.68 24 -149.708 78l-25.0752 -68h-42zM238.239 389l-56.7539 -256c27.0283 -54 60.9395 -95 134.939 -95
c104 0 172.839 94 199.442 214c29.9287 135 -2.00977 230 -110.01 230c-59 0 -139.858 -58 -167.618 -93z" />
    <glyph glyph-name="c" unicode="c" horiz-adv-x="500" 
d="M536.239 389l-58.3252 -15c-13.6982 60 -42.0566 108 -111.057 108c-98 0 -177.523 -61 -213.217 -222c-29.4854 -133 10.7842 -222 114.784 -222c74 0 123.089 41 179.942 108l42.9014 -23c-60.4053 -74 -134.485 -133 -233.485 -133c-146 0 -198.948 113 -164.143 270
c39.6836 179 149.857 270 283.857 270c98 0 146.807 -55 158.741 -141z" />
    <glyph glyph-name="d" unicode="d" 
d="M624.063 722l-160.063 -722h-42l5.0752 68c-49.9717 -54 -113.292 -78 -184.292 -78c-135 0 -187.718 96 -148.478 273c33.9199 153 143.192 267 264.192 267c70 0 106.68 -24 145.708 -78l59.8574 270h60zM433.485 133l56.7539 256c-12.2402 35 -67.3818 93 -126.382 93
c-108 0 -182.062 -95 -211.99 -230c-26.6035 -120 0.557617 -214 104.558 -214c74 0 126.089 41 177.061 95z" />
    <glyph glyph-name="e" unicode="e" horiz-adv-x="500" 
d="M515.197 258h-362c-26.1602 -118 0.227539 -220 118.228 -220c67 0 105.099 23 175.277 105l43.2363 -26c-76.3965 -92 -135.155 -127 -234.155 -127c-136 0 -202.713 87 -162.143 270c35.6934 161 141.857 270 273.857 270c141 0 183.393 -111 147.699 -272z
M163.839 306h302c11.7207 107 -20.2031 175 -110.981 176c-105.778 1 -174.722 -107 -191.019 -176z" />
    <glyph glyph-name="f" unicode="f" horiz-adv-x="278" 
d="M366.64 472h-106l-104.64 -472h-60l104.64 472h-86l10.6416 48h86l16.4053 74c19.9531 90 66.5938 138 155.594 138c22 0 42.1133 -4 63.2266 -8l-11.084 -50c-17.6699 6 -34.7832 10 -56.7832 10c-47 0 -76.0996 -23 -89.4014 -83l-17.957 -81h106z" />
    <glyph glyph-name="g" unicode="g" horiz-adv-x="500" 
d="M600.715 540l-11.9707 -54c-27 0 -62.665 -3 -88.3213 -24c16.793 -28 23.9199 -59 12.835 -109c-28.376 -128 -131.348 -182 -241.348 -182c-33 0 -56.4482 7 -80.4531 16c-35.6602 -12 -54.873 -31 -59.085 -50c-6.65039 -30 10.0234 -45 151.023 -45
c156 0 209.916 -50 191.071 -135c-16.8486 -76 -89.2588 -141 -268.259 -141s-213.477 61 -199.731 123c9.97656 45 36.4004 83 115.387 110l0.443359 2c-36.2266 8 -63.6797 24 -53.9248 68s57.7354 80 97.5088 88c-39.9053 32 -56.8203 82 -44.8496 136
c25.2734 114 121.457 187 247.457 187c50 0 84.8965 -14 113.02 -36c36.6504 30 78.1973 46 119.197 46zM242.425 38c-118 0 -163.533 -43 -173.51 -88c-11.3066 -51 30.9346 -86 138.935 -86c130 0 193.759 35 205.73 89c9.5332 43 -15.1553 85 -171.155 85zM182.371 349
c-19.9521 -90 33.1797 -130 106.18 -130c84 0 143.868 40 163.82 130c20.1748 91 -21.5137 133 -105.514 133s-146.528 -52 -164.486 -133z" />
    <glyph glyph-name="h" unicode="h" 
d="M142 0h-60l160.063 722h60l-62.9609 -284c68.8584 58 122.396 92 198.396 92c108 0 140.255 -62 115.204 -175l-78.7021 -355h-60l77.3711 349c19.0664 86 3.48633 133 -76.5137 133c-64 0 -108.646 -39 -187.948 -99z" />
    <glyph glyph-name="i" unicode="i" horiz-adv-x="222" 
d="M256.281 520l-115.281 -520h-60l115.281 520h60zM281.555 634h-60l19.5088 88h60z" />
    <glyph glyph-name="j" unicode="j" horiz-adv-x="222" 
d="M-59.4619 -178l10.8633 49c13.1133 -4 27.4482 -7 40.4482 -7c40 0 62.5469 16 70.9717 54l133.46 602h60l-133.682 -603c-16.627 -75 -61.3916 -101 -129.392 -101c-18 0 -39.5566 2 -52.6699 6zM281.555 634h-60l19.5088 88h60z" />
    <glyph glyph-name="k" unicode="k" horiz-adv-x="500" 
d="M142 0h-60l160.063 722h60l-105.97 -478l302.188 276h69l-212.009 -194l122.728 -326h-67l-103.039 284l-128.716 -116z" />
    <glyph glyph-name="l" unicode="l" horiz-adv-x="222" 
d="M81 0l160.063 722h60l-160.063 -722h-60z" />
    <glyph glyph-name="m" unicode="m" horiz-adv-x="833" 
d="M142 0h-60l115.281 520h60l-17.5137 -79c65.415 56 111.73 89 192.73 89c58 0 102.798 -37 104.939 -95c59.1934 55 118.061 95 193.061 95c91 0 125.916 -50 105.741 -141l-86.2393 -389h-60l87.5693 395c12.8584 58 -12.7119 87 -70.7119 87
c-46 0 -132.863 -49 -175.948 -99l-84.9092 -383h-60l87.5693 395c12.8584 58 -12.7119 87 -70.7119 87c-46 0 -132.863 -49 -175.948 -99z" />
    <glyph glyph-name="n" unicode="n" 
d="M142 0h-60l115.281 520h60l-18.1787 -82c68.8584 58 122.396 92 198.396 92c108 0 140.255 -62 115.204 -175l-78.7021 -355h-60l77.3711 349c19.0664 86 3.48633 133 -76.5137 133c-64 0 -108.646 -39 -187.948 -99z" />
    <glyph glyph-name="o" unicode="o" horiz-adv-x="500" 
d="M356.857 482c-107 0 -171.958 -81 -203.217 -222s-2.21582 -222 104.784 -222s171.957 81 203.216 222s2.2168 222 -104.783 222zM367.498 530c162 0 185.401 -129 154.143 -270s-111.857 -270 -273.857 -270s-185.401 129 -154.143 270s111.857 270 273.857 270z" />
    <glyph glyph-name="p" unicode="p" 
d="M51.208 -184l156.073 704h60l-17.7354 -80h2c54.3018 60 109.952 90 176.952 90c135 0 180.18 -130 148.478 -273c-40.127 -181 -143.192 -267 -264.192 -267c-70 0 -106.68 24 -145.708 78l-55.8672 -252h-60zM237.796 387l-56.7539 -256
c12.2412 -35 67.3828 -93 126.383 -93c108 0 180.065 86 211.989 230c23.9434 108 -0.556641 214 -104.557 214c-66 0 -114.09 -41 -177.062 -95z" />
    <glyph glyph-name="q" unicode="q" 
d="M578.395 516l-155.187 -700h-60l55.6455 251c-62.75 -53 -110.07 -77 -180.07 -77c-121 0 -179.948 113 -146.251 265c39.0186 176 134.079 271 269.079 271c71 0 117.35 -30 149.93 -77l24.8535 67h42zM432.82 130l56.3105 254c-27.0283 54 -61.1602 94 -135.16 94
c-104 0 -172.618 -93 -199 -212c-29.707 -134 2.4541 -228 110.454 -228c59 0 139.636 57 167.396 92z" />
    <glyph glyph-name="r" unicode="r" horiz-adv-x="333" 
d="M138 0h-60l115.281 520h60l-21.9473 -99h2c42.1885 64 108.164 109 174.164 109h27l-12.8584 -58h-27c-66 0 -169.292 -78 -191.461 -178z" />
    <glyph glyph-name="s" unicode="s" horiz-adv-x="444" 
d="M46.0605 95l50.873 31c33.4814 -70 73.4912 -88 141.491 -88c66 0 125.532 43 137.947 99c33.4756 151 -291.368 66 -250.354 251c21.7266 98 108.48 142 196.48 142c87 0 134.463 -34 158.161 -94l-53.0947 -32c-24.3584 48 -55.707 78 -117.707 78
c-58 0 -109.208 -28 -123.175 -91c-28.1553 -127 294.472 -52 249.689 -254c-20.6172 -93 -118.589 -147 -212.589 -147c-80 0 -144.906 32 -177.723 105z" />
    <glyph glyph-name="t" unicode="t" horiz-adv-x="278" 
d="M125.281 520h78l37.6885 170h60l-37.6885 -170h114l-10.6416 -48h-114l-84.4658 -381c-7.75879 -35 4.25098 -53 41.251 -53c20 0 43.1084 5 63.4385 11l-11.085 -50c-20.665 -3 -42.9951 -9 -62.9951 -9c-85 0 -106.793 28 -92.8262 91l86.6826 391h-78z" />
    <glyph glyph-name="u" unicode="u" 
d="M529.281 520h60l-115.281 -520h-60l18.1787 82c-68.8584 -58 -122.396 -92 -198.396 -92c-108 0 -140.255 62 -115.203 175l78.7012 355h60l-77.3711 -349c-19.0664 -86 -3.48535 -133 76.5146 -133c64 0 108.646 39 187.947 99z" />
    <glyph glyph-name="v" unicode="v" horiz-adv-x="444" 
d="M192 0l-62.7188 520h64l47.1143 -428h2l238.886 428h64l-294.281 -520h-59z" />
    <glyph glyph-name="w" unicode="w" horiz-adv-x="667" 
d="M152 0l-29.7188 520h61l21.332 -418h2l211.668 418h59l23.332 -418h2l209.668 418h62l-266.281 -520h-59l-24.3311 418h-2l-208.669 -418h-62z" />
    <glyph glyph-name="x" unicode="x" horiz-adv-x="444" 
d="M270.551 219l-188.551 -219h-72l237.188 276l-101.906 244h72l78.3213 -188l161.679 188h72l-210.094 -244l114.812 -276h-72z" />
    <glyph glyph-name="y" unicode="y" horiz-adv-x="444" 
d="M193.281 520l49.2236 -423h2l238.776 423h64l-317.484 -557c-57.6123 -102 -104.589 -147 -198.589 -147c-26 0 -41.5566 2 -54.6699 6l10.8633 49c17.5566 -2 35.4482 -7 58.4482 -7c42 0 96.2021 37 148.924 144l-67.4922 512h66z" />
    <glyph glyph-name="z" unicode="z" horiz-adv-x="444" 
d="M153.64 472l10.6416 48h356l-8.42383 -38l-396.216 -434h308l-10.6416 -48h-388l8.4248 38l396.215 434h-276z" />
    <glyph glyph-name="braceleft" unicode="{" horiz-adv-x="333" 
d="M112.061 307l7.98047 36c46 0 66.4297 29 77.958 81l43.2305 195c15.9619 72 57.0508 113 113.051 113h62l-7.98047 -36h-50c-26 0 -42.2168 -10 -54.6318 -66l-43.6738 -197c-14.6318 -66 -47.2832 -96 -95.7217 -107l-0.443359 -2
c43.5615 -11 62.9102 -41 48.2783 -107l-43.6738 -197c-12.415 -56 -0.631836 -66 25.3682 -66h50l-7.98047 -36h-62c-56 0 -78.9111 41 -62.9492 113l43.2314 195c11.5273 52 3.95703 81 -42.043 81z" />
    <glyph glyph-name="bar" unicode="|" horiz-adv-x="222" 
d="M81.7832 -10l164.497 742h54l-164.497 -742h-54z" />
    <glyph glyph-name="braceright" unicode="}" horiz-adv-x="333" 
d="M365.041 343l-7.98047 -36c-46 0 -66.4297 -29 -77.957 -81l-43.2314 -195c-15.9619 -72 -57.0508 -113 -113.051 -113h-62l7.98047 36h50c26 0 42.2168 10 54.6318 66l43.6738 197c14.6318 66 47.2832 96 95.7217 107l0.443359 2c-43.5615 11 -62.9102 41 -48.2783 107
l43.6738 197c12.415 56 0.631836 66 -25.3682 66h-50l7.98047 36h62c56 0 78.9111 -41 62.9492 -113l-43.2305 -195c-11.5283 -52 -3.95801 -81 42.042 -81z" />
    <glyph glyph-name="asciitilde" unicode="~" horiz-adv-x="600" 
d="M583.051 325l28.6885 -42c-32.3105 -42 -80.6221 -84 -153.622 -84c-36 0 -74.6748 15 -111.905 32c-36.4531 16 -73.4629 34 -103.463 34c-43 0 -77.7588 -35 -110.519 -70l-28.6885 42c31.8672 40 80.6221 84 153.622 84c36 0 74.6748 -15 111.906 -32
c36.4521 -16 73.4619 -34 103.462 -34c43 0 77.7598 35 110.519 70z" />
    <glyph glyph-name="exclamdown" unicode="&#xa1;" horiz-adv-x="222" 
d="M109.218 -202h-86l128.848 500h50zM183.281 520h86l-19.9521 -90h-86z" />
    <glyph glyph-name="cent" unicode="&#xa2;" 
d="M213.854 67l223.229 407c-11.8916 5 -25.2256 8 -42.2256 8c-98 0 -177.523 -61 -213.217 -222c-19.5088 -88 -8.80566 -157 32.2129 -193zM474.876 446l-220.121 -402c12.1133 -4 26.6699 -6 41.6699 -6c74 0 123.089 41 179.942 108l42.9014 -23
c-60.4053 -74 -134.485 -133 -233.485 -133c-20 0 -39.5566 2 -56.4482 7l-63.9385 -117h-54l73.9287 135c-68.6885 42 -88.7363 132 -63.6846 245c39.6836 179 149.857 270 283.857 270c21 0 40.335 -3 57.2266 -8l58.7217 107h54l-70.377 -128
c33.457 -25 53.0332 -63 59.1699 -112l-58.3252 -15c-6.01465 27 -15.4717 52 -31.0381 72z" />
    <glyph glyph-name="sterling" unicode="&#xa3;" 
d="M13.7832 -10l13.7451 62c94.4238 38 143.599 129 163.107 217c5.09961 23 6.97656 45 9.63184 66h-111l10.6416 48h105c6.86328 49 7.72656 98 18.5889 147c27.0469 122 123.782 202 246.782 202c115.001 0 177.038 -72 172.431 -183l-61.1045 -14
c1.28809 87 -28.2969 143 -124.297 143c-97 0 -154.523 -61 -174.477 -151c-10.6416 -48 -13.5039 -97 -15.9238 -144h146l-10.6416 -48h-140c-3.76855 -17 -4.75879 -35 -8.75 -53c-14.4102 -65 -33.1641 -109 -73.2441 -168c41.127 -31 98.4814 -70 157.481 -70
c80 0 130.65 30 180.929 135l53.3398 -12c-46.8301 -112 -126.24 -177 -236.24 -177c-96 0 -139.798 37 -192.708 78c-36.4248 -38 -80.2969 -69 -129.292 -78z" />
    <glyph glyph-name="fraction" unicode="&#x2044;" horiz-adv-x="167" 
d="M-169.217 -10l608.497 742h57l-606.497 -742h-59z" />
    <glyph glyph-name="yen" unicode="&#xa5;" 
d="M580.546 440l-10.6416 -48h-130l-65.0654 -86l-2.66016 -12h176l-10.6416 -48h-176l-54.5371 -246h-66l54.5371 246h-176l10.6416 48h176l2.66016 12l-24.9346 86h-132l10.6416 48h108l-82.4824 282h66l98.8555 -357l269.145 357h66l-212.518 -282h105z" />
    <glyph glyph-name="florin" unicode="&#x192;" 
d="M659.95 726l-18.9756 -45c-10.5566 2 -21.335 3 -31.335 3c-122 0 -150.368 -146 -191.202 -249h127l-10.6416 -48h-132l-147.234 -398c-34.8398 -94 -104.354 -173 -208.354 -173c-13 0 -25.7783 1 -38.335 3l18.9717 54c10.1133 -4 22.0049 -9 33.0049 -9
c77 0 115.075 68 154.797 175l128.149 348h-134l10.6416 48h139c35.7207 107 98.8428 297 242.844 297c20 0 39.7773 -1 57.6689 -6z" />
    <glyph glyph-name="section" unicode="&#xa7;" horiz-adv-x="500" 
d="M539.555 634l-45.542 -25c-13.3594 48 -40.4863 79 -96.4863 79c-45 0 -82.3213 -24 -94.7354 -80c-18.623 -84 211 -212 183.066 -338c-18.1787 -82 -70.9424 -108 -133.83 -112c23.0195 -36 37.4863 -79 26.8457 -127c-17.293 -78 -94.6084 -111 -164.608 -111
c-61 0 -113.798 37 -125.383 93l47.9863 27c7.4668 -43 40.1504 -76 88.1504 -76c55 0 94.3213 24 105.406 74c19.9521 90 -206.351 242 -180.634 358c14.1885 64 75.6133 102 139.613 102l2.44336 2c-27.6797 24 -49.0332 63 -37.2832 116
c15.0752 68 79.7158 116 157.716 116c69 0 111.798 -37 127.274 -98zM281.31 466c-30 0 -71.3203 -24 -79.3018 -60c-11.9707 -54 104.114 -216 148.114 -216c42 0 74.6504 30 83.5186 70c10.1982 46 -94.3311 206 -152.331 206z" />
    <glyph glyph-name="currency" unicode="&#xa4;" 
d="M623.013 609l29.5752 -38l-65.9717 -54c28.2451 -44 31.8311 -100 19.416 -156s-40.8301 -112 -88.585 -156l42.0283 -54l-46.4238 -38l-43.8066 55c-52.2031 -37 -110.193 -55 -166.193 -55s-106.01 18 -141.807 55l-68.1934 -55l-29.5762 38l65.9717 54
c-28.2451 44 -31.8301 100 -19.415 156s40.8291 112 88.584 156l-42.0283 54l46.4248 38l43.8066 -55c52.2021 37 110.193 55 166.193 55s106.009 -18 141.807 -55zM313.693 161c107 0 214.396 92 238.339 200c23.9424 108 -42.6611 200 -149.661 200
s-214.396 -92 -238.339 -200c-23.9434 -108 42.6611 -200 149.661 -200z" />
    <glyph glyph-name="quotesingle" unicode="'" horiz-adv-x="222" 
d="M195.961 496l50.1025 226h50l-50.1025 -226h-50z" />
    <glyph glyph-name="quotedblleft" unicode="&#x201c;" horiz-adv-x="444" 
d="M292.074 492h-86l19.9521 90l96.2539 150h39l-91.2539 -150h42zM459.074 492h-86l19.9521 90l96.2539 150h39.001l-91.2549 -150h42z" />
    <glyph glyph-name="guillemotleft" unicode="&#xab;" horiz-adv-x="500" 
d="M509.781 414l-158.697 -152l90.416 -156h-66l-87.416 156l155.697 152h66zM360.781 414l-157.697 -152l89.416 -156h-66l-86.416 156l154.697 152h66z" />
    <glyph glyph-name="guilsinglleft" unicode="&#x2039;" horiz-adv-x="333" 
d="M342.781 414l-157.697 -152l89.416 -156h-66l-86.416 156l154.697 152h66z" />
    <glyph glyph-name="guilsinglright" unicode="&#x203a;" horiz-adv-x="333" 
d="M105.5 106l157.697 152l-89.416 156h66l86.416 -156l-154.697 -152h-66z" />
    <glyph glyph-name="fi" unicode="&#xfb01;" horiz-adv-x="500" 
d="M366.64 472h-106l-104.64 -472h-60l104.64 472h-86l10.6416 48h86l16.4053 74c19.9531 90 66.5938 138 155.594 138c22 0 42.1133 -4 63.2266 -8l-11.084 -50c-17.6699 6 -34.7832 10 -56.7832 10c-47 0 -76.0996 -23 -89.4014 -83l-17.957 -81h106zM534.281 520
l-115.281 -520h-60l115.281 520h60zM559.555 634h-60l19.5088 88h60z" />
    <glyph glyph-name="fl" unicode="&#xfb02;" horiz-adv-x="500" 
d="M366.64 472h-106l-104.64 -472h-60l104.64 472h-86l10.6416 48h86l16.4053 74c19.9531 90 66.5938 138 155.594 138c22 0 42.1133 -4 63.2266 -8l-11.084 -50c-17.6699 6 -34.7832 10 -56.7832 10c-47 0 -76.0996 -23 -89.4014 -83l-17.957 -81h106zM359 0l160.063 722
h60l-160.063 -722h-60z" />
    <glyph glyph-name="endash" unicode="&#x2013;" horiz-adv-x="500" 
d="M552.764 238h-500l9.75391 44h500z" />
    <glyph glyph-name="dagger" unicode="&#x2020;" horiz-adv-x="500" 
d="M246.265 -80h-28l69.5645 404l57.2402 177l-155.99 -18l13.7451 62l148.23 -17l31.2256 204h60l-59.2256 -204l155.77 17l-13.7451 -62l-148.01 18l-21.2402 -177z" />
    <glyph glyph-name="daggerdbl" unicode="&#x2021;" horiz-adv-x="500" 
d="M538.824 545l-13.7451 -62l-148.01 18l-20.7969 -175l-56.7969 -175l155.991 18l-13.7451 -62l-148.231 17l-31.2256 -204h-60l59.2256 204l-155.769 -17l13.7451 62l148.009 -18l20.7969 175l56.7969 175l-155.99 -18l13.7451 62l148.23 -17l31.2256 204h60
l-59.2256 -204z" />
    <glyph glyph-name="periodcentered" unicode="&#xb7;" horiz-adv-x="278" 
d="M207.726 310c26 0 45.123 -22 38.915 -50c-6.20703 -28 -35.085 -50 -61.085 -50s-45.1221 22 -38.915 50c6.20801 28 35.085 50 61.085 50z" />
    <glyph glyph-name="paragraph" unicode="&#xb6;" horiz-adv-x="500" 
d="M205.265 -80l92.2246 416c-117 0 -187.712 87 -164.878 190c27.9336 126 126.452 196 266.452 196h263l-9.75391 -44h-74l-168.045 -758h-50l168.045 758h-105l-168.045 -758h-50z" />
    <glyph glyph-name="bullet" unicode="&#x2022;" horiz-adv-x="500" 
d="M149.032 361c22.1689 100 119.904 180 219.904 180s163.265 -80 141.096 -180c-22.1699 -100 -121.127 -181 -221.127 -181s-162.043 81 -139.873 181z" />
    <glyph glyph-name="quotesinglbase" unicode="&#x201a;" horiz-adv-x="222" 
d="M95.9521 90h86l-19.9521 -90l-96.2539 -150h-39l91.2539 150h-42z" />
    <glyph glyph-name="quotedblbase" unicode="&#x201e;" horiz-adv-x="444" 
d="M280.952 90h86l-19.9521 -90l-96.2539 -150h-39l91.2539 150h-42zM113.952 90h86l-19.9521 -90l-96.2539 -150h-39l91.2539 150h-42z" />
    <glyph glyph-name="quotedblright" unicode="&#x201d;" horiz-adv-x="444" 
d="M421.063 722h86l-19.9521 -90l-96.2539 -150h-39l91.2539 150h-42zM254.063 722h86l-19.9521 -90l-96.2539 -150h-39l91.2539 150h-42z" />
    <glyph glyph-name="guillemotright" unicode="&#xbb;" horiz-adv-x="500" 
d="M105.5 106l158.697 152l-90.416 156h66l87.416 -156l-155.697 -152h-66zM254.5 106l157.697 152l-89.416 156h66l86.416 -156l-154.697 -152h-66z" />
    <glyph glyph-name="ellipsis" unicode="&#x2026;" horiz-adv-x="1000" 
d="M210 0h-86l19.9521 90h86zM543 0h-86l19.9521 90h86zM876 0h-86l19.9521 90h86z" />
    <glyph glyph-name="perthousand" unicode="&#x2030;" horiz-adv-x="1000" 
d="M901.844 297c83 0 134.925 -68 116.967 -149c-17.957 -81 -100.032 -149 -183.032 -149s-134.925 68 -116.968 149c17.958 81 100.033 149 183.033 149zM892.089 253c-58 0 -116.863 -49 -129.278 -105s24.7227 -105 82.7227 -105s116.862 49 129.277 105
s-24.7217 105 -82.7217 105zM532.844 297c83 0 134.925 -68 116.967 -149c-17.957 -81 -100.032 -149 -183.032 -149s-134.925 68 -116.968 149c17.958 81 100.033 149 183.033 149zM523.089 253c-58 0 -116.863 -49 -129.278 -105s24.7227 -105 82.7227 -105
s116.862 49 129.277 105s-24.7217 105 -82.7217 105zM324.063 722c83 0 134.925 -68 116.968 -149s-100.032 -149 -183.032 -149s-134.925 68 -116.968 149s100.032 149 183.032 149zM314.31 678c-58 0 -116.863 -49 -129.278 -105s24.7217 -105 82.7217 -105
s116.863 49 129.278 105s-24.7217 105 -82.7217 105zM706.281 732l-572.498 -742h-52l572.498 742h52z" />
    <glyph glyph-name="questiondown" unicode="&#xbf;" horiz-adv-x="389" 
d="M295.812 -64l44.458 -25c-43.4062 -74 -107.269 -123 -192.269 -123c-86 0 -152.585 56 -128.864 163c29.4854 133 209.24 177 236.73 301l10.6416 48h54l-15.9619 -72c-22.835 -103 -194.802 -166 -222.292 -290c-13.7451 -62 22.7178 -96 78.7178 -96
c66 0 109.749 53 134.839 94zM302.281 520h86l-19.9521 -90h-86z" />
    <glyph glyph-name="grave" unicode="`" horiz-adv-x="222" 
d="M144.733 716h77l80.4062 -138h-51z" />
    <glyph glyph-name="acute" unicode="&#xb4;" horiz-adv-x="222" 
d="M317.733 716h77l-167.594 -138h-51z" />
    <glyph glyph-name="circumflex" unicode="&#x2c6;" horiz-adv-x="222" 
d="M303.733 716l83.4062 -138h-66l-59.6084 101l-104.392 -101h-66l144.594 138h68z" />
    <glyph glyph-name="tilde" unicode="&#x2dc;" horiz-adv-x="222" 
d="M122.578 589h-38c14.1982 46 58.5049 97 109.505 97c25 0 47.5615 -11 69.1221 -22c22.5615 -11 43.123 -22 64.123 -22c27 0 46.542 25 55.8633 49h38c-20.3066 -51 -50.5049 -97 -110.505 -97c-21 0 -44.3389 12 -66.9004 23s-44.123 22 -63.123 22
c-29 0 -48.542 -25 -58.085 -50z" />
    <glyph glyph-name="macron" unicode="&#xaf;" horiz-adv-x="222" 
d="M99.7861 617l9.75391 44h296l-9.75391 -44h-296z" />
    <glyph glyph-name="breve" unicode="&#x2d8;" horiz-adv-x="222" 
d="M250.225 628c53 0 98.877 22 123.957 81h38c-22.292 -78 -88.1553 -127 -172.155 -127s-128.137 49 -115.845 127h38c-1.08008 -59 35.043 -81 88.043 -81z" />
    <glyph glyph-name="dotaccent" unicode="&#x2d9;" horiz-adv-x="222" 
d="M229.196 682h66l-20.8398 -94h-66z" />
    <glyph glyph-name="dieresis" unicode="&#xa8;" horiz-adv-x="222" 
d="M151.196 682h66l-20.8398 -94h-66zM307.196 682h66l-20.8398 -94h-66z" />
    <glyph glyph-name="ring" unicode="&#x2da;" horiz-adv-x="222" 
d="M282.592 774c54 0 90.2451 -44 77.8311 -100c-12.415 -56 -68.1699 -100 -122.17 -100s-90.2451 44 -77.8301 100c12.4141 56 68.1689 100 122.169 100zM275.055 740c-36 0 -72.4297 -29 -80.6318 -66c-8.20312 -37 15.3682 -66 51.3682 -66s72.4287 29 80.6318 66
c8.20215 37 -15.3682 66 -51.3682 66z" />
    <glyph glyph-name="cedilla" unicode="&#xb8;" horiz-adv-x="222" 
d="M-41.6787 -188l21.9814 36c14.6699 -6 38.4521 -16 55.4521 -16c45 0 68.6611 12 75.0898 41c6.20703 28 -13.9102 41 -35.9102 41c-16 0 -33.8867 -4 -45.9951 -9l-12.1182 13l78.1787 82h38l-54.085 -50l1.55664 -2c6.66504 3 19.3301 6 32.3301 6
c48 0 70.9062 -32 59.3779 -84c-11.75 -53 -78.292 -78 -122.292 -78c-33 0 -65.8916 5 -91.5664 20z" />
    <glyph glyph-name="hungarumlaut" unicode="&#x2dd;" horiz-adv-x="222" 
d="M243.733 716h77l-151.594 -138h-49zM382.733 716h77l-167.594 -138h-51z" />
    <glyph glyph-name="ogonek" unicode="&#x2db;" horiz-adv-x="222" 
d="M219.212 19l-1.99512 -9c-61.877 -22 -163.415 -56 -179.599 -129c-5.09863 -23 17.5801 -47 46.5801 -47c31 0 81.9863 27 112.312 42l7.34961 -30c-43.3213 -24 -106.528 -52 -153.528 -52c-50 0 -89.3447 21 -76.2646 80c21.9482 99 168.377 128 245.146 145z" />
    <glyph glyph-name="caron" unicode="&#x2c7;" horiz-adv-x="222" 
d="M205.14 578l-83.4062 138h66l59.6094 -101l104.391 101h66l-144.594 -138h-68z" />
    <glyph glyph-name="emdash" unicode="&#x2014;" horiz-adv-x="1000" 
d="M1062.52 282l-9.75391 -44h-1000l9.75391 44h1000z" />
    <glyph glyph-name="AE" unicode="&#xc6;" horiz-adv-x="944" 
d="M314.292 290h229l83.3564 376h-17zM18 0l562.063 722h465l-11.9717 -54h-340l-58.9707 -266h243l-11.9717 -54h-243l-65.1777 -294h359l-11.9717 -54h-425l52.3203 236h-261l-178.32 -236h-74z" />
    <glyph glyph-name="ordfeminine" unicode="&#xaa;" horiz-adv-x="300" 
d="M201.55 643l-27.5664 20c40.8633 49 83.2969 69 145.297 69c76 0 102.793 -28 87.7178 -96l-34.584 -156c-6.65137 -30 -7.5332 -43 -8.18945 -64h-44l3.4248 38c-41.6504 -30 -74.7549 -44 -126.755 -44c-53 0 -87.3486 30 -76.042 81
c23.2773 105 164.051 113 233.264 132l5.54199 25c5.76465 26 -5.24512 44 -54.2451 44c-43 0 -72.5469 -16 -103.863 -49zM325.961 496l18.6221 84c-47.1035 -14 -159.985 -27 -173.509 -88c-5.32129 -24 9.68848 -42 40.6885 -42c37 0 86.2119 19 114.198 46z" />
    <glyph glyph-name="Lslash" unicode="&#x141;" horiz-adv-x="500" 
d="M428.891 419l-185.076 -68l-65.8428 -297h322l-11.9717 -54h-388l71.8291 324l-91.5371 -34l13.7451 62l91.5371 34l74.4893 336h66l-68.5039 -309l185.076 68z" />
    <glyph glyph-name="Oslash" unicode="&#xd8;" horiz-adv-x="667" 
d="M630.918 577l-410.97 -478c26.7969 -37 68.8066 -55 122.807 -55c133 0 244.272 114 289.277 317c20.3955 92 19.5791 165 -1.11426 216zM194.924 144l411.971 478c-27.5762 38 -69.585 56 -123.585 56c-133 0 -244.273 -114 -289.277 -317
c-20.1748 -91 -19.3584 -164 0.891602 -217zM796.705 770l-118.372 -137c37.5898 -65 44.3066 -161 19.6992 -272c-47.2217 -213 -186.249 -371 -367.249 -371c-67 0 -118.123 22 -153.92 59l-83.5049 -97h-63l117.372 137c-38.1465 67 -43.8633 163 -19.6982 272
c47.2207 213 186.248 371 367.248 371c67.001 0 119.123 -22 154.698 -60l83.7266 98h63z" />
    <glyph glyph-name="OE" unicode="&#x152;" horiz-adv-x="1000" 
d="M960 0h-404c-66 0 -138.217 -10 -188.217 -10c-231 0 -288.303 152 -239.751 371c45.0039 203 191.248 371 404.249 371c56 0 135.782 -10 179.782 -10h389l-11.9717 -54h-341l-58.9707 -266h244l-11.9717 -54h-244l-65.1777 -294h360zM565.924 144l96.2158 434
c14.1885 64 -23.8301 100 -119.83 100c-188 0 -306.377 -128 -348.277 -317c-45.0049 -203 11.7227 -317 207.723 -317c96 0 149.98 36 164.169 100z" />
    <glyph glyph-name="ordmasculine" unicode="&#xba;" horiz-adv-x="300" 
d="M192.588 571c-16.8486 -76 -5.49512 -115 58.5049 -115c63 0 91.6465 39 108.495 115c16.4053 74 5.49512 115 -57.5049 115c-64 0 -93.0898 -41 -109.495 -115zM312.28 732c105 0 121.93 -77 103.308 -161s-69.6934 -161 -174.693 -161c-106 0 -122.929 77 -104.307 161
s69.6924 161 175.692 161z" />
    <glyph glyph-name="ae" unicode="&#xe6;" horiz-adv-x="778" 
d="M365.49 124l37.6885 170c-231.528 -52 -274.392 -101 -289.023 -167c-12.6367 -57 19.2695 -89 73.2695 -89c56 0 132.315 33 178.065 86zM793.197 258h-338c-26.1602 -118 -11.7725 -220 94.2275 -220c67 0 105.099 23 175.277 105l43.2363 -26
c-76.3965 -92 -135.155 -127 -234.155 -127c-70 0 -118.463 34 -146.491 88c-71.2969 -69 -144.509 -88 -220.509 -88c-81 0 -131.915 50 -112.85 136c31.4805 142 153.245 168 359.886 216l7.98145 36c11.75 53 -6.94336 104 -86.9434 104c-73 0 -120.538 -34 -158.283 -96
l-38.2363 26c53.623 84 119.16 118 203.16 118c63 0 122.788 -19 139.156 -85c51.415 56 112.844 85 176.844 85c140 0 171.393 -111 135.699 -272zM465.839 306h278c11.7217 107 -10.9814 176 -98.9814 176c-90 0 -151.515 -79 -179.019 -176z" />
    <glyph glyph-name="dotlessi" unicode="&#x131;" horiz-adv-x="222" 
d="M256.281 520l-115.281 -520h-60l115.281 520h60z" />
    <glyph glyph-name="lslash" unicode="&#x142;" horiz-adv-x="222" 
d="M221.919 365l-80.9189 -365h-60l74.0459 334l-89.3105 -42l14.1885 64l89.3105 42l71.8291 324h60l-64.9561 -293l89.0889 41l-14.1885 -64z" />
    <glyph glyph-name="oslash" unicode="&#xf8;" horiz-adv-x="500" 
d="M151.5 106l289.706 346c-19.5664 20 -47.3486 30 -84.3486 30c-107 0 -171.958 -81 -203.217 -222c-14.4102 -65 -15.9385 -117 -2.14062 -154zM464.56 413l-289.706 -346c18.7881 -19 46.5713 -29 83.5713 -29c107 0 171.957 81 203.216 222
c14.6318 66 16.1602 118 2.91895 153zM621.017 600l-112.929 -135c31.916 -50 31.0664 -126 13.5527 -205c-31.2588 -141 -111.857 -270 -273.857 -270c-49 0 -85.3398 12 -109.685 33l-85.834 -103h-56l111.707 134c-32.6934 51 -31.8447 127 -14.3311 206
c31.2588 141 111.857 270 273.857 270c49 0 85.3398 -12 110.685 -33l85.834 103h57z" />
    <glyph glyph-name="oe" unicode="&#x153;" horiz-adv-x="833" 
d="M153.641 260c-31.2588 -141 -2.21582 -222 100.784 -222c97 0 161.957 81 193.216 222s2.2168 222 -94.7832 222c-103 0 -167.958 -81 -199.217 -222zM848.197 258h-341c-26.1602 -118 -12.7725 -220 97.2275 -220c67 0 105.099 23 175.277 105l43.2363 -26
c-76.3965 -92 -135.155 -127 -234.155 -127c-84 0 -130.354 39 -149.727 114c-42.1885 -64 -104.273 -114 -195.273 -114c-158 0 -181.401 129 -150.143 270s111.857 270 269.857 270c90 0 134.138 -49 146.949 -113c33.9707 54 99.0508 113 197.051 113
c138 0 176.393 -111 140.699 -272zM517.839 306h281c11.7217 107 -13.9814 176 -102.981 176c-96 0 -150.515 -79 -178.019 -176z" />
    <glyph glyph-name="germandbls" unicode="&#xdf;" horiz-adv-x="500" 
d="M136 0h-60l118.163 533c25.0518 113 99.9004 189 217.9 189c102 0 154.93 -77 132.538 -178c-14.6309 -66 -58.8242 -121 -125.254 -150c83.793 -28 115.053 -99 94.2129 -193c-28.5986 -129 -107.777 -211 -217.777 -211c-28 0 -66.0049 9 -86.9014 23l30.9766 45
c18.5615 -11 45.5664 -20 69.5664 -20c69 0 121.302 60 142.584 156c26.8252 121 -26.1982 166 -145.198 166l10.6406 48c87.4434 2 145.868 40 167.595 138c17.7354 80 -11.623 128 -92.623 128c-84 0 -122.741 -71 -137.595 -138z" />
    <glyph glyph-name="onesuperior" unicode="&#xb9;" horiz-adv-x="333" 
d="M339.735 292h-202l9.75391 44h73l76.707 346l-86.4346 -20l8.20312 37l100.315 33h41l-87.791 -396h77z" />
    <glyph glyph-name="logicalnot" unicode="&#xac;" horiz-adv-x="600" 
d="M535.485 133l44.3389 200h-466l11.9717 54h520l-56.3105 -254h-54z" />
    <glyph glyph-name="mu" unicode="&#x3bc;" 
d="M529.281 520h60l-115.281 -520h-60l18.1787 82c-68.8584 -58 -122.396 -92 -198.396 -92c-39 0 -69.2266 8 -88.6797 24l-43.8955 -198h-60l156.073 704h60l-77.3711 -349c-19.0664 -86 -3.48535 -133 76.5146 -133c64 0 108.646 39 187.947 99z" />
    <glyph glyph-name="trademark" unicode="&#x2122;" horiz-adv-x="990" 
d="M534.063 722l-9.75391 -44h-133l-81.584 -368h-50l81.584 368h-137l9.75391 44h320zM693.063 722l60.2842 -328l201.716 328h85l-91.3379 -412h-50l81.584 368h-2l-230.584 -368h-30l-67.416 368h-2l-81.584 -368h-50l91.3379 412h85z" />
    <glyph glyph-name="Eth" unicode="&#xd0;" horiz-adv-x="667" 
d="M255.121 402h196l-11.9717 -54h-196l-65.1777 -294h140c160 0 270.83 112 314.061 307s-17.9404 307 -177.94 307h-140zM99.1211 402h90l70.9424 320h204c224 0 276.756 -168 233.969 -361s-170.032 -361 -394.032 -361h-204l77.1494 348h-90z" />
    <glyph glyph-name="onehalf" unicode="&#xbd;" horiz-adv-x="834" 
d="M363.735 292h-202l9.75391 44h73l76.707 346l-86.4346 -20l8.20312 37l100.315 33h41l-87.791 -396h77zM613.504 309l-44.4482 7c32.292 78 100.49 124 183.49 124c82 0 125.358 -48 107.18 -130s-99.4951 -115 -175.358 -164c-83.9717 -54 -123.292 -78 -130.612 -102
h246l-9.75488 -44h-298l7.31641 33c7.75879 35 26.6318 66 154.702 143c120.297 69 145.726 98 154.594 138c10.8633 49 -13.8213 82 -63.8213 82c-59 0 -103.985 -27 -131.287 -87zM166.783 -10l608.498 742h57l-606.498 -742h-59z" />
    <glyph glyph-name="plusminus" unicode="&#xb1;" horiz-adv-x="600" 
d="M347.268 335l41.0137 185h54l-41.0137 -185h233l-11.9717 -54h-233l-41.0127 -185h-54l41.0127 185h-233l11.9717 54h233zM40 0l11.9717 54h520l-11.9717 -54h-520z" />
    <glyph glyph-name="Thorn" unicode="&#xde;" horiz-adv-x="611" 
d="M203.688 170l-37.6885 -170h-66l160.063 722h66l-33.2539 -150h152c172 0 226.265 -80 199.439 -201s-116.561 -201 -288.561 -201h-152zM280.838 518l-65.1777 -294h152c125 0 189.527 52 210.589 147c21.0605 95 -20.4111 147 -145.411 147h-152z" />
    <glyph glyph-name="onequarter" unicode="&#xbc;" horiz-adv-x="834" 
d="M751.914 374l-201.104 -226h155l50.1035 226h-4zM485.057 104l10.6406 48l258.519 282h67l-63.4053 -286h71l-9.75391 -44h-71l-23.0566 -104h-52l23.0566 104h-211zM363.735 292h-202l9.75391 44h73l76.707 346l-86.4346 -20l8.20312 37l100.315 33h41l-87.791 -396h77z
M178.783 -10l608.498 742h57l-606.498 -742h-59z" />
    <glyph glyph-name="divide" unicode="&#xf7;" horiz-adv-x="600" 
d="M611.655 233h-520l11.9717 54h520zM418.385 534c31 0 51.2363 -26 44.3633 -57c-6.87207 -31 -38.6357 -57 -69.6357 -57s-51.2363 26 -44.3643 57c6.87305 31 38.6367 57 69.6367 57zM322.17 100c31 0 51.2354 -26 44.3633 -57c-6.87305 -31 -38.6367 -57 -69.6367 -57
s-51.2363 26 -44.3633 57c6.87207 31 38.6367 57 69.6367 57z" />
    <glyph glyph-name="brokenbar" unicode="&#xa6;" horiz-adv-x="222" 
d="M81.7832 -10l62.0742 280h54l-62.0742 -280h-54zM184.206 452l62.0742 280h54l-62.0742 -280h-54z" />
    <glyph glyph-name="degree" unicode="&#xb0;" horiz-adv-x="400" 
d="M352.97 690c-59 0 -109.977 -45 -123.057 -104s17.9443 -104 76.9443 -104s109.976 45 123.056 104s-17.9434 104 -76.9434 104zM362.28 732c82 0 131.59 -65 113.633 -146s-96.3672 -146 -178.367 -146s-131.59 65 -113.633 146s96.3672 146 178.367 146z" />
    <glyph glyph-name="thorn" unicode="&#xfe;" 
d="M51.208 -184l200.855 906h60l-62.5176 -282h2c54.3018 60 109.952 90 176.952 90c135 0 180.18 -130 148.478 -273c-40.127 -181 -143.192 -267 -264.192 -267c-70 0 -106.68 24 -145.708 78l-55.8672 -252h-60zM237.796 387l-56.7539 -256
c12.2412 -35 67.3828 -93 126.383 -93c108 0 180.065 86 211.989 230c23.9434 108 -0.556641 214 -104.557 214c-66 0 -114.09 -41 -177.062 -95z" />
    <glyph glyph-name="threequarters" unicode="&#xbe;" horiz-adv-x="834" 
d="M751.914 374l-201.104 -226h155l50.1035 226h-4zM485.057 104l10.6406 48l258.519 282h67l-63.4053 -286h71l-9.75391 -44h-71l-23.0566 -104h-52l23.0566 104h-211zM112.471 372l46.3203 24c16.6934 -51 43.3682 -66 104.368 -66c70 0 114.095 32 125.4 83
c13.5234 61 -27.7119 87 -106.712 87h-43l9.75488 44h35c75 0 123.877 22 136.292 78c9.31055 42 -24.3682 66 -70.3682 66c-52 0 -77.7734 -8 -119.085 -50l-30.9014 23c49.75 53 96.7402 71 155.74 71c69 0 133.685 -33 117.501 -106
c-11.085 -50 -28.7354 -80 -88.6133 -102c48.0098 -18 69.915 -50 56.6133 -110c-20.1738 -91 -96.377 -128 -189.377 -128c-76 0 -124.792 28 -138.934 86zM194.783 -10l608.498 742h57l-606.498 -742h-59z" />
    <glyph glyph-name="twosuperior" unicode="&#xb2;" horiz-adv-x="333" 
d="M202.238 601l-44.4473 7c32.292 78 100.489 124 183.489 124c82 0 125.359 -48 107.18 -130c-18.1787 -82 -99.4941 -115 -175.357 -164c-83.9717 -54 -123.292 -78 -130.613 -102h246l-9.75391 -44h-298l7.31543 33c7.75977 35 26.6318 66 154.702 143
c120.297 69 145.727 98 154.595 138c10.8623 49 -13.8213 82 -63.8213 82c-59 0 -103.986 -27 -131.288 -87z" />
    <glyph glyph-name="registered" unicode="&#xae;" horiz-adv-x="800" 
d="M396.489 336l-43.4521 -196h-60l97.7676 441h169c99 0 133.467 -43 115.953 -122c-17.292 -78 -75.8301 -112 -129.269 -123l79.5479 -196h-68l-76.5479 196h-85zM407.574 386h69c58 0 122.335 -3 139.405 74c13.7451 62 -34.2598 71 -80.2598 71h-96zM562.281 732
c205 0 333.977 -167 288.751 -371c-45.2266 -204 -248.249 -371 -453.249 -371s-333.978 167 -288.751 371c45.2256 204 248.248 371 453.249 371zM408.868 40c178 0 342.48 142 382.164 321c39.6826 179 -61.8359 321 -239.836 321s-342.481 -142 -382.164 -321
c-39.6836 -179 61.8359 -321 239.836 -321z" />
    <glyph glyph-name="minus" unicode="&#x2212;" horiz-adv-x="600" 
d="M611.655 233h-520l11.9717 54h520z" />
    <glyph glyph-name="eth" unicode="&#xf0;" horiz-adv-x="500" 
d="M356.857 482c-107 0 -171.958 -81 -203.217 -222s-2.21582 -222 104.784 -222s171.957 81 203.216 222s2.2168 222 -104.783 222zM328.3 696l58.7637 26c22.2314 -17 41.4629 -34 58.251 -53l113.749 53l19.1328 -40l-103.863 -49
c78.3916 -111 75.6846 -245 47.3076 -373c-31.2588 -141 -111.857 -270 -273.857 -270s-185.401 129 -154.143 270s111.857 270 273.857 270c40 0 71.2266 -8 94.123 -22l2.44336 2c-10.4619 34 -26.1465 67 -46.4961 97l-113.749 -53l-19.1328 40l103.863 49
c-16.7881 19 -36.7969 37 -60.25 53z" />
    <glyph glyph-name="multiply" unicode="&#xd7;" horiz-adv-x="600" 
d="M666.857 482l-271.217 -222l172.784 -222l-46.4248 -38l-172.784 222l-271.216 -222l-29.5752 38l271.216 222l-172.783 222l46.4238 38l172.784 -222l271.216 222z" />
    <glyph glyph-name="threesuperior" unicode="&#xb3;" horiz-adv-x="333" 
d="M84.4707 372l46.3203 24c16.6934 -51 43.3682 -66 104.368 -66c70 0 114.095 32 125.4 83c13.5234 61 -27.7119 87 -106.712 87h-43l9.75488 44h35c75 0 123.877 22 136.292 78c9.31055 42 -24.3682 66 -70.3682 66c-52 0 -77.7734 -8 -119.085 -50l-30.9014 23
c49.75 53 96.7402 71 155.74 71c69 0 133.685 -33 117.501 -106c-11.085 -50 -28.7354 -80 -88.6133 -102c48.0098 -18 69.915 -50 56.6133 -110c-20.1738 -91 -96.377 -128 -189.377 -128c-76 0 -124.792 28 -138.934 86z" />
    <glyph glyph-name="copyright" unicode="&#xa9;" horiz-adv-x="800" 
d="M562.281 732c205 0 333.977 -167 288.751 -371c-45.2266 -204 -248.249 -371 -453.249 -371s-333.978 167 -288.751 371c45.2256 204 248.248 371 453.249 371zM408.868 40c178 0 342.48 142 382.164 321c39.6826 179 -61.8359 321 -239.836 321
s-342.481 -142 -382.164 -321c-39.6836 -179 61.8359 -321 239.836 -321zM607.183 285h54c-42.8389 -94 -128.249 -159 -222.249 -159c-137 0 -202.165 103 -172.68 236c29.707 134 134.876 234 273.876 234c97 0 164.808 -55 155.638 -155h-54
c-0.141602 58 -38.7217 105 -111.722 105c-104 0 -181.18 -82 -203.57 -183c-21.5049 -97 22.543 -187 123.543 -187c72 0 131.862 49 157.164 109z" />
    <glyph glyph-name="Aacute" unicode="&#xc1;" horiz-adv-x="611" 
d="M250.292 290h241l-36.2002 378h-2zM25 0l391.063 722h101l67.9365 -722h-70l-20.6797 236h-273l-126.32 -236h-70zM548.53 891h77l-167.594 -138h-51z" />
    <glyph glyph-name="Acircumflex" unicode="&#xc2;" horiz-adv-x="611" 
d="M250.292 290h241l-36.2002 378h-2zM25 0l391.063 722h101l67.9365 -722h-70l-20.6797 236h-273l-126.32 -236h-70zM534.53 891l83.4062 -138h-66l-59.6084 101l-104.392 -101h-66l144.594 138h68z" />
    <glyph glyph-name="Adieresis" unicode="&#xc4;" horiz-adv-x="611" 
d="M250.292 290h241l-36.2002 378h-2zM25 0l391.063 722h101l67.9365 -722h-70l-20.6797 236h-273l-126.32 -236h-70zM381.993 857h66l-20.8398 -94h-66zM537.993 857h66l-20.8398 -94h-66z" />
    <glyph glyph-name="Agrave" unicode="&#xc0;" horiz-adv-x="611" 
d="M250.292 290h241l-36.2002 378h-2zM25 0l391.063 722h101l67.9365 -722h-70l-20.6797 236h-273l-126.32 -236h-70zM375.53 891h77l80.4062 -138h-51z" />
    <glyph glyph-name="Aring" unicode="&#xc5;" horiz-adv-x="611" 
d="M250.292 290h241l-36.2002 378h-2zM25 0l391.063 722h101l67.9365 -722h-70l-20.6797 236h-273l-126.32 -236h-70zM513.389 949c54 0 90.2451 -44 77.8311 -100c-12.415 -56 -68.1699 -100 -122.17 -100s-90.2451 44 -77.8301 100c12.4141 56 68.1689 100 122.169 100z
M505.852 915c-36 0 -72.4297 -29 -80.6318 -66c-8.20312 -37 15.3682 -66 51.3682 -66s72.4287 29 80.6318 66c8.20215 37 -15.3682 66 -51.3682 66z" />
    <glyph glyph-name="Atilde" unicode="&#xc3;" horiz-adv-x="611" 
d="M250.292 290h241l-36.2002 378h-2zM25 0l391.063 722h101l67.9365 -722h-70l-20.6797 236h-273l-126.32 -236h-70zM353.375 764h-38c14.1982 46 58.5049 97 109.505 97c25 0 47.5615 -11 69.1221 -22c22.5615 -11 43.123 -22 64.123 -22c27 0 46.542 25 55.8633 49h38
c-20.3066 -51 -50.5049 -97 -110.505 -97c-21 0 -44.3389 12 -66.9004 23s-44.123 22 -63.123 22c-29 0 -48.542 -25 -58.085 -50z" />
    <glyph glyph-name="Ccedilla" unicode="&#xc7;" horiz-adv-x="611" 
d="M672.946 523l-63.8818 -13c-7.5 106 -51.7549 168 -138.755 168c-143 0 -237.038 -140 -276.277 -317c-39.2402 -177 -7.27734 -317 142.723 -317c116 0 176.179 82 221.018 176l59.5615 -11c-55.5986 -129 -142.551 -219 -293.551 -219
c-175 0 -245.189 148 -195.751 371c49.4375 223 185.248 371 360.248 371c129.001 0 179.826 -91 184.666 -209zM160.321 -188l21.9814 36c14.6699 -6 38.4521 -16 55.4521 -16c45 0 68.6611 12 75.0898 41c6.20703 28 -13.9102 41 -35.9102 41
c-16 0 -33.8867 -4 -45.9951 -9l-12.1182 13l78.1787 82h38l-54.085 -50l1.55664 -2c6.66504 3 19.3301 6 32.3301 6c48 0 70.9062 -32 59.3779 -84c-11.75 -53 -78.292 -78 -122.292 -78c-33 0 -65.8916 5 -91.5664 20z" />
    <glyph glyph-name="Eacute" unicode="&#xc9;" 
d="M531 0h-431l160.063 722h412l-11.9717 -54h-346l-58.9707 -266h249l-11.9717 -54h-249l-65.1777 -294h365zM553.53 891h77l-167.594 -138h-51z" />
    <glyph glyph-name="Ecircumflex" unicode="&#xca;" 
d="M531 0h-431l160.063 722h412l-11.9717 -54h-346l-58.9707 -266h249l-11.9717 -54h-249l-65.1777 -294h365zM539.53 891l83.4062 -138h-66l-59.6084 101l-104.392 -101h-66l144.594 138h68z" />
    <glyph glyph-name="Edieresis" unicode="&#xcb;" 
d="M531 0h-431l160.063 722h412l-11.9717 -54h-346l-58.9707 -266h249l-11.9717 -54h-249l-65.1777 -294h365zM386.993 857h66l-20.8398 -94h-66zM542.993 857h66l-20.8398 -94h-66z" />
    <glyph glyph-name="Egrave" unicode="&#xc8;" 
d="M531 0h-431l160.063 722h412l-11.9717 -54h-346l-58.9707 -266h249l-11.9717 -54h-249l-65.1777 -294h365zM380.53 891h77l80.4062 -138h-51z" />
    <glyph glyph-name="Iacute" unicode="&#xcd;" horiz-adv-x="278" 
d="M106 0l160.063 722h66l-160.063 -722h-66zM377.53 891h77l-167.594 -138h-51z" />
    <glyph glyph-name="Icircumflex" unicode="&#xce;" horiz-adv-x="278" 
d="M106 0l160.063 722h66l-160.063 -722h-66zM363.53 891l83.4062 -138h-66l-59.6084 101l-104.392 -101h-66l144.594 138h68z" />
    <glyph glyph-name="Idieresis" unicode="&#xcf;" horiz-adv-x="278" 
d="M106 0l160.063 722h66l-160.063 -722h-66zM210.993 857h66l-20.8398 -94h-66zM366.993 857h66l-20.8398 -94h-66z" />
    <glyph glyph-name="Igrave" unicode="&#xcc;" horiz-adv-x="278" 
d="M106 0l160.063 722h66l-160.063 -722h-66zM204.53 891h77l80.4062 -138h-51z" />
    <glyph glyph-name="Ntilde" unicode="&#xd1;" horiz-adv-x="722" 
d="M100 0l160.063 722h111l209.54 -602h2l133.46 602h66l-160.063 -722h-68l-237.908 668h-2l-148.092 -668h-66zM411.375 764h-38c14.1982 46 58.5049 97 109.505 97c25 0 47.5615 -11 69.1221 -22c22.5615 -11 43.123 -22 64.123 -22c27 0 46.542 25 55.8633 49h38
c-20.3066 -51 -50.5049 -97 -110.505 -97c-21 0 -44.3389 12 -66.9004 23s-44.123 22 -63.123 22c-29 0 -48.542 -25 -58.085 -50z" />
    <glyph glyph-name="Oacute" unicode="&#xd3;" horiz-adv-x="667" 
d="M495.28 732c181.001 0 249.973 -158 202.752 -371c-47.2217 -213 -186.249 -371 -367.249 -371s-249.973 158 -202.751 371c47.2207 213 186.248 371 367.248 371zM342.755 44c133 0 244.272 114 289.277 317c45.0039 203 -15.7227 317 -148.723 317
s-244.273 -114 -289.277 -317c-45.0049 -203 15.7227 -317 148.723 -317zM579.53 891h77l-167.594 -138h-51z" />
    <glyph glyph-name="Ocircumflex" unicode="&#xd4;" horiz-adv-x="667" 
d="M495.28 732c181.001 0 249.973 -158 202.752 -371c-47.2217 -213 -186.249 -371 -367.249 -371s-249.973 158 -202.751 371c47.2207 213 186.248 371 367.248 371zM342.755 44c133 0 244.272 114 289.277 317c45.0039 203 -15.7227 317 -148.723 317
s-244.273 -114 -289.277 -317c-45.0049 -203 15.7227 -317 148.723 -317zM565.53 891l83.4062 -138h-66l-59.6084 101l-104.392 -101h-66l144.594 138h68z" />
    <glyph glyph-name="Odieresis" unicode="&#xd6;" horiz-adv-x="667" 
d="M495.28 732c181.001 0 249.973 -158 202.752 -371c-47.2217 -213 -186.249 -371 -367.249 -371s-249.973 158 -202.751 371c47.2207 213 186.248 371 367.248 371zM342.755 44c133 0 244.272 114 289.277 317c45.0039 203 -15.7227 317 -148.723 317
s-244.273 -114 -289.277 -317c-45.0049 -203 15.7227 -317 148.723 -317zM412.993 857h66l-20.8398 -94h-66zM568.993 857h66l-20.8398 -94h-66z" />
    <glyph glyph-name="Ograve" unicode="&#xd2;" horiz-adv-x="667" 
d="M495.28 732c181.001 0 249.973 -158 202.752 -371c-47.2217 -213 -186.249 -371 -367.249 -371s-249.973 158 -202.751 371c47.2207 213 186.248 371 367.248 371zM342.755 44c133 0 244.272 114 289.277 317c45.0039 203 -15.7227 317 -148.723 317
s-244.273 -114 -289.277 -317c-45.0049 -203 15.7227 -317 148.723 -317zM406.53 891h77l80.4062 -138h-51z" />
    <glyph glyph-name="Otilde" unicode="&#xd5;" horiz-adv-x="667" 
d="M495.28 732c181.001 0 249.973 -158 202.752 -371c-47.2217 -213 -186.249 -371 -367.249 -371s-249.973 158 -202.751 371c47.2207 213 186.248 371 367.248 371zM342.755 44c133 0 244.272 114 289.277 317c45.0039 203 -15.7227 317 -148.723 317
s-244.273 -114 -289.277 -317c-45.0049 -203 15.7227 -317 148.723 -317zM384.375 764h-38c14.1982 46 58.5049 97 109.505 97c25 0 47.5615 -11 69.1221 -22c22.5615 -11 43.123 -22 64.123 -22c27 0 46.542 25 55.8633 49h38c-20.3066 -51 -50.5049 -97 -110.505 -97
c-21 0 -44.3389 12 -66.9004 23s-44.123 22 -63.123 22c-29 0 -48.542 -25 -58.085 -50z" />
    <glyph glyph-name="Scaron" unicode="&#x160;" 
d="M72.5703 183l65.2119 19c3.61328 -110 56.9727 -158 170.973 -158c90 0 156.637 57 175.924 144c43.0088 194 -364.84 118 -311.854 357c23.7207 107 115.456 187 249.456 187c114.001 0 184.255 -62 192.647 -173l-60.7695 -17c-8.26367 80 -51.8486 136 -143.849 136
c-84 0 -152.642 -48 -171.485 -133c-10.8633 -49 -4.62305 -84 117.292 -134c186.151 -76 216.066 -126 193.011 -230c-27.2686 -123 -145.344 -191 -262.344 -191c-138 0 -203.477 61 -214.213 193zM410.937 753l-83.4062 138h66l59.6094 -101l104.391 101h66
l-144.594 -138h-68z" />
    <glyph glyph-name="Uacute" unicode="&#xda;" horiz-adv-x="722" 
d="M260.063 722h66l-109.073 -492c-30.5947 -138 25.7646 -186 153.765 -186s205.641 48 236.235 186l109.073 492h66l-107.743 -486c-36.3584 -164 -140.537 -246 -315.537 -246s-242.821 82 -206.463 246zM601.53 891h77l-167.594 -138h-51z" />
    <glyph glyph-name="Ucircumflex" unicode="&#xdb;" horiz-adv-x="722" 
d="M260.063 722h66l-109.073 -492c-30.5947 -138 25.7646 -186 153.765 -186s205.641 48 236.235 186l109.073 492h66l-107.743 -486c-36.3584 -164 -140.537 -246 -315.537 -246s-242.821 82 -206.463 246zM587.53 891l83.4062 -138h-66l-59.6084 101l-104.392 -101h-66
l144.594 138h68z" />
    <glyph glyph-name="Udieresis" unicode="&#xdc;" horiz-adv-x="722" 
d="M260.063 722h66l-109.073 -492c-30.5947 -138 25.7646 -186 153.765 -186s205.641 48 236.235 186l109.073 492h66l-107.743 -486c-36.3584 -164 -140.537 -246 -315.537 -246s-242.821 82 -206.463 246zM434.993 857h66l-20.8398 -94h-66zM590.993 857h66l-20.8398 -94
h-66z" />
    <glyph glyph-name="Ugrave" unicode="&#xd9;" horiz-adv-x="722" 
d="M260.063 722h66l-109.073 -492c-30.5947 -138 25.7646 -186 153.765 -186s205.641 48 236.235 186l109.073 492h66l-107.743 -486c-36.3584 -164 -140.537 -246 -315.537 -246s-242.821 82 -206.463 246zM428.53 891h77l80.4062 -138h-51z" />
    <glyph glyph-name="Yacute" unicode="&#xdd;" 
d="M241 0l67.8389 306l-128.775 416h74l98.8555 -357l269.145 357h74l-321.225 -416l-67.8389 -306h-66zM523.53 891h77l-167.594 -138h-51z" />
    <glyph glyph-name="Ydieresis" unicode="&#x178;" 
d="M241 0l67.8389 306l-128.775 416h74l98.8555 -357l269.145 357h74l-321.225 -416l-67.8389 -306h-66zM356.993 857h66l-20.8398 -94h-66zM512.993 857h66l-20.8398 -94h-66z" />
    <glyph glyph-name="Zcaron" unicode="&#x17d;" 
d="M225.092 668l11.9717 54h428l-12.415 -56l-512.677 -612h382l-11.9717 -54h-464l11.9717 54l513.12 614h-346zM410.937 753l-83.4062 138h66l59.6094 -101l104.391 101h66l-144.594 -138h-68z" />
    <glyph glyph-name="aacute" unicode="&#xe1;" horiz-adv-x="500" 
d="M424 0h-58l5.9668 63c-72.8633 -49 -125.184 -73 -205.184 -73c-81 0 -131.915 50 -112.85 136c31.4805 142 153.245 168 380.886 216l7.98145 36c15.2969 69 -6.94336 104 -95.9434 104c-62 0 -120.538 -34 -171.84 -94l-34.6797 24c63.623 84 135.16 118 219.16 118
c118 0 163.359 -48 137.864 -163l-60.3018 -272c-5.76367 -26 -11.3008 -60 -13.0605 -95zM383.49 124l37.6885 170c-249.528 -52 -292.392 -101 -307.023 -167c-12.6367 -57 19.2695 -89 73.2695 -89c56 0 132.315 33 196.065 86zM456.733 716h77l-167.594 -138h-51z" />
    <glyph glyph-name="acircumflex" unicode="&#xe2;" horiz-adv-x="500" 
d="M424 0h-58l5.9668 63c-72.8633 -49 -125.184 -73 -205.184 -73c-81 0 -131.915 50 -112.85 136c31.4805 142 153.245 168 380.886 216l7.98145 36c15.2969 69 -6.94336 104 -95.9434 104c-62 0 -120.538 -34 -171.84 -94l-34.6797 24c63.623 84 135.16 118 219.16 118
c118 0 163.359 -48 137.864 -163l-60.3018 -272c-5.76367 -26 -11.3008 -60 -13.0605 -95zM383.49 124l37.6885 170c-249.528 -52 -292.392 -101 -307.023 -167c-12.6367 -57 19.2695 -89 73.2695 -89c56 0 132.315 33 196.065 86zM442.733 716l83.4062 -138h-66
l-59.6084 101l-104.392 -101h-66l144.594 138h68z" />
    <glyph glyph-name="adieresis" unicode="&#xe4;" horiz-adv-x="500" 
d="M424 0h-58l5.9668 63c-72.8633 -49 -125.184 -73 -205.184 -73c-81 0 -131.915 50 -112.85 136c31.4805 142 153.245 168 380.886 216l7.98145 36c15.2969 69 -6.94336 104 -95.9434 104c-62 0 -120.538 -34 -171.84 -94l-34.6797 24c63.623 84 135.16 118 219.16 118
c118 0 163.359 -48 137.864 -163l-60.3018 -272c-5.76367 -26 -11.3008 -60 -13.0605 -95zM383.49 124l37.6885 170c-249.528 -52 -292.392 -101 -307.023 -167c-12.6367 -57 19.2695 -89 73.2695 -89c56 0 132.315 33 196.065 86zM290.196 682h66l-20.8398 -94h-66z
M446.196 682h66l-20.8398 -94h-66z" />
    <glyph glyph-name="agrave" unicode="&#xe0;" horiz-adv-x="500" 
d="M424 0h-58l5.9668 63c-72.8633 -49 -125.184 -73 -205.184 -73c-81 0 -131.915 50 -112.85 136c31.4805 142 153.245 168 380.886 216l7.98145 36c15.2969 69 -6.94336 104 -95.9434 104c-62 0 -120.538 -34 -171.84 -94l-34.6797 24c63.623 84 135.16 118 219.16 118
c118 0 163.359 -48 137.864 -163l-60.3018 -272c-5.76367 -26 -11.3008 -60 -13.0605 -95zM383.49 124l37.6885 170c-249.528 -52 -292.392 -101 -307.023 -167c-12.6367 -57 19.2695 -89 73.2695 -89c56 0 132.315 33 196.065 86zM283.733 716h77l80.4062 -138h-51z" />
    <glyph glyph-name="aring" unicode="&#xe5;" horiz-adv-x="500" 
d="M424 0h-58l5.9668 63c-72.8633 -49 -125.184 -73 -205.184 -73c-81 0 -131.915 50 -112.85 136c31.4805 142 153.245 168 380.886 216l7.98145 36c15.2969 69 -6.94336 104 -95.9434 104c-62 0 -120.538 -34 -171.84 -94l-34.6797 24c63.623 84 135.16 118 219.16 118
c118 0 163.359 -48 137.864 -163l-60.3018 -272c-5.76367 -26 -11.3008 -60 -13.0605 -95zM383.49 124l37.6885 170c-249.528 -52 -292.392 -101 -307.023 -167c-12.6367 -57 19.2695 -89 73.2695 -89c56 0 132.315 33 196.065 86zM421.592 774
c54 0 90.2451 -44 77.8311 -100c-12.415 -56 -68.1699 -100 -122.17 -100s-90.2451 44 -77.8301 100c12.4141 56 68.1689 100 122.169 100zM414.055 740c-36 0 -72.4297 -29 -80.6318 -66c-8.20312 -37 15.3682 -66 51.3682 -66s72.4287 29 80.6318 66
c8.20215 37 -15.3682 66 -51.3682 66z" />
    <glyph glyph-name="atilde" unicode="&#xe3;" horiz-adv-x="500" 
d="M424 0h-58l5.9668 63c-72.8633 -49 -125.184 -73 -205.184 -73c-81 0 -131.915 50 -112.85 136c31.4805 142 153.245 168 380.886 216l7.98145 36c15.2969 69 -6.94336 104 -95.9434 104c-62 0 -120.538 -34 -171.84 -94l-34.6797 24c63.623 84 135.16 118 219.16 118
c118 0 163.359 -48 137.864 -163l-60.3018 -272c-5.76367 -26 -11.3008 -60 -13.0605 -95zM383.49 124l37.6885 170c-249.528 -52 -292.392 -101 -307.023 -167c-12.6367 -57 19.2695 -89 73.2695 -89c56 0 132.315 33 196.065 86zM261.578 589h-38
c14.1982 46 58.5049 97 109.505 97c25 0 47.5615 -11 69.1221 -22c22.5615 -11 43.123 -22 64.123 -22c27 0 46.542 25 55.8633 49h38c-20.3066 -51 -50.5049 -97 -110.505 -97c-21 0 -44.3389 12 -66.9004 23s-44.123 22 -63.123 22c-29 0 -48.542 -25 -58.085 -50z" />
    <glyph glyph-name="ccedilla" unicode="&#xe7;" horiz-adv-x="500" 
d="M536.239 389l-58.3252 -15c-13.6982 60 -42.0566 108 -111.057 108c-98 0 -177.523 -61 -213.217 -222c-29.4854 -133 10.7842 -222 114.784 -222c74 0 123.089 41 179.942 108l42.9014 -23c-60.4053 -74 -134.485 -133 -233.485 -133c-146 0 -198.948 113 -164.143 270
c39.6836 179 149.857 270 283.857 270c98 0 146.807 -55 158.741 -141zM97.3213 -188l21.9814 36c14.6699 -6 38.4521 -16 55.4521 -16c45 0 68.6611 12 75.0898 41c6.20703 28 -13.9102 41 -35.9102 41c-16 0 -33.8867 -4 -45.9951 -9l-12.1182 13l78.1787 82h38
l-54.085 -50l1.55664 -2c6.66504 3 19.3301 6 32.3301 6c48 0 70.9062 -32 59.3779 -84c-11.75 -53 -78.292 -78 -122.292 -78c-33 0 -65.8916 5 -91.5664 20z" />
    <glyph glyph-name="eacute" unicode="&#xe9;" horiz-adv-x="500" 
d="M515.197 258h-362c-26.1602 -118 0.227539 -220 118.228 -220c67 0 105.099 23 175.277 105l43.2363 -26c-76.3965 -92 -135.155 -127 -234.155 -127c-136 0 -202.713 87 -162.143 270c35.6934 161 141.857 270 273.857 270c141 0 183.393 -111 147.699 -272z
M163.839 306h302c11.7207 107 -20.2031 175 -110.981 176c-105.778 1 -174.722 -107 -191.019 -176zM456.733 716h77l-167.594 -138h-51z" />
    <glyph glyph-name="ecircumflex" unicode="&#xea;" horiz-adv-x="500" 
d="M515.197 258h-362c-26.1602 -118 0.227539 -220 118.228 -220c67 0 105.099 23 175.277 105l43.2363 -26c-76.3965 -92 -135.155 -127 -234.155 -127c-136 0 -202.713 87 -162.143 270c35.6934 161 141.857 270 273.857 270c141 0 183.393 -111 147.699 -272z
M163.839 306h302c11.7207 107 -20.2031 175 -110.981 176c-105.778 1 -174.722 -107 -191.019 -176zM442.733 716l83.4062 -138h-66l-59.6084 101l-104.392 -101h-66l144.594 138h68z" />
    <glyph glyph-name="edieresis" unicode="&#xeb;" horiz-adv-x="500" 
d="M515.197 258h-362c-26.1602 -118 0.227539 -220 118.228 -220c67 0 105.099 23 175.277 105l43.2363 -26c-76.3965 -92 -135.155 -127 -234.155 -127c-136 0 -202.713 87 -162.143 270c35.6934 161 141.857 270 273.857 270c141 0 183.393 -111 147.699 -272z
M163.839 306h302c11.7207 107 -20.2031 175 -110.981 176c-105.778 1 -174.722 -107 -191.019 -176zM290.196 682h66l-20.8398 -94h-66zM446.196 682h66l-20.8398 -94h-66z" />
    <glyph glyph-name="egrave" unicode="&#xe8;" horiz-adv-x="500" 
d="M515.197 258h-362c-26.1602 -118 0.227539 -220 118.228 -220c67 0 105.099 23 175.277 105l43.2363 -26c-76.3965 -92 -135.155 -127 -234.155 -127c-136 0 -202.713 87 -162.143 270c35.6934 161 141.857 270 273.857 270c141 0 183.393 -111 147.699 -272z
M163.839 306h302c11.7207 107 -20.2031 175 -110.981 176c-105.778 1 -174.722 -107 -191.019 -176zM283.733 716h77l80.4062 -138h-51z" />
    <glyph glyph-name="iacute" unicode="&#xed;" horiz-adv-x="222" 
d="M256.281 520l-115.281 -520h-60l115.281 520h60zM317.733 716h77l-167.594 -138h-51z" />
    <glyph glyph-name="icircumflex" unicode="&#xee;" horiz-adv-x="222" 
d="M256.281 520l-115.281 -520h-60l115.281 520h60zM303.733 716l83.4062 -138h-66l-59.6084 101l-104.392 -101h-66l144.594 138h68z" />
    <glyph glyph-name="idieresis" unicode="&#xef;" horiz-adv-x="222" 
d="M256.281 520l-115.281 -520h-60l115.281 520h60zM151.196 682h66l-20.8398 -94h-66zM307.196 682h66l-20.8398 -94h-66z" />
    <glyph glyph-name="igrave" unicode="&#xec;" horiz-adv-x="222" 
d="M256.281 520l-115.281 -520h-60l115.281 520h60zM144.733 716h77l80.4062 -138h-51z" />
    <glyph glyph-name="ntilde" unicode="&#xf1;" 
d="M142 0h-60l115.281 520h60l-18.1787 -82c68.8584 58 122.396 92 198.396 92c108 0 140.255 -62 115.204 -175l-78.7021 -355h-60l77.3711 349c19.0664 86 3.48633 133 -76.5137 133c-64 0 -108.646 -39 -187.948 -99zM282.578 589h-38c14.1982 46 58.5049 97 109.505 97
c25 0 47.5615 -11 69.1221 -22c22.5615 -11 43.123 -22 64.123 -22c27 0 46.542 25 55.8633 49h38c-20.3066 -51 -50.5049 -97 -110.505 -97c-21 0 -44.3389 12 -66.9004 23s-44.123 22 -63.123 22c-29 0 -48.542 -25 -58.085 -50z" />
    <glyph glyph-name="oacute" unicode="&#xf3;" horiz-adv-x="500" 
d="M356.857 482c-107 0 -171.958 -81 -203.217 -222s-2.21582 -222 104.784 -222s171.957 81 203.216 222s2.2168 222 -104.783 222zM367.498 530c162 0 185.401 -129 154.143 -270s-111.857 -270 -273.857 -270s-185.401 129 -154.143 270s111.857 270 273.857 270z
M451.733 716h77l-167.594 -138h-51z" />
    <glyph glyph-name="ocircumflex" unicode="&#xf4;" horiz-adv-x="500" 
d="M356.857 482c-107 0 -171.958 -81 -203.217 -222s-2.21582 -222 104.784 -222s171.957 81 203.216 222s2.2168 222 -104.783 222zM367.498 530c162 0 185.401 -129 154.143 -270s-111.857 -270 -273.857 -270s-185.401 129 -154.143 270s111.857 270 273.857 270z
M437.733 716l83.4062 -138h-66l-59.6084 101l-104.392 -101h-66l144.594 138h68z" />
    <glyph glyph-name="odieresis" unicode="&#xf6;" horiz-adv-x="500" 
d="M356.857 482c-107 0 -171.958 -81 -203.217 -222s-2.21582 -222 104.784 -222s171.957 81 203.216 222s2.2168 222 -104.783 222zM367.498 530c162 0 185.401 -129 154.143 -270s-111.857 -270 -273.857 -270s-185.401 129 -154.143 270s111.857 270 273.857 270z
M285.196 682h66l-20.8398 -94h-66zM441.196 682h66l-20.8398 -94h-66z" />
    <glyph glyph-name="ograve" unicode="&#xf2;" horiz-adv-x="500" 
d="M356.857 482c-107 0 -171.958 -81 -203.217 -222s-2.21582 -222 104.784 -222s171.957 81 203.216 222s2.2168 222 -104.783 222zM367.498 530c162 0 185.401 -129 154.143 -270s-111.857 -270 -273.857 -270s-185.401 129 -154.143 270s111.857 270 273.857 270z
M278.733 716h77l80.4062 -138h-51z" />
    <glyph glyph-name="otilde" unicode="&#xf5;" horiz-adv-x="500" 
d="M356.857 482c-107 0 -171.958 -81 -203.217 -222s-2.21582 -222 104.784 -222s171.957 81 203.216 222s2.2168 222 -104.783 222zM367.498 530c162 0 185.401 -129 154.143 -270s-111.857 -270 -273.857 -270s-185.401 129 -154.143 270s111.857 270 273.857 270z
M256.578 589h-38c14.1982 46 58.5049 97 109.505 97c25 0 47.5615 -11 69.1221 -22c22.5615 -11 43.123 -22 64.123 -22c27 0 46.542 25 55.8633 49h38c-20.3066 -51 -50.5049 -97 -110.505 -97c-21 0 -44.3389 12 -66.9004 23s-44.123 22 -63.123 22
c-29 0 -48.542 -25 -58.085 -50z" />
    <glyph glyph-name="scaron" unicode="&#x161;" horiz-adv-x="444" 
d="M46.0605 95l50.873 31c33.4814 -70 73.4912 -88 141.491 -88c66 0 125.532 43 137.947 99c33.4756 151 -291.368 66 -250.354 251c21.7266 98 108.48 142 196.48 142c87 0 134.463 -34 158.161 -94l-53.0947 -32c-24.3584 48 -55.707 78 -117.707 78
c-58 0 -109.208 -28 -123.175 -91c-28.1553 -127 294.472 -52 249.689 -254c-20.6172 -93 -118.589 -147 -212.589 -147c-80 0 -144.906 32 -177.723 105zM316.14 578l-83.4062 138h66l59.6094 -101l104.391 101h66l-144.594 -138h-68z" />
    <glyph glyph-name="uacute" unicode="&#xfa;" 
d="M529.281 520h60l-115.281 -520h-60l18.1787 82c-68.8584 -58 -122.396 -92 -198.396 -92c-108 0 -140.255 62 -115.203 175l78.7012 355h60l-77.3711 -349c-19.0664 -86 -3.48535 -133 76.5146 -133c64 0 108.646 39 187.947 99zM484.733 716h77l-167.594 -138h-51z" />
    <glyph glyph-name="ucircumflex" unicode="&#xfb;" 
d="M529.281 520h60l-115.281 -520h-60l18.1787 82c-68.8584 -58 -122.396 -92 -198.396 -92c-108 0 -140.255 62 -115.203 175l78.7012 355h60l-77.3711 -349c-19.0664 -86 -3.48535 -133 76.5146 -133c64 0 108.646 39 187.947 99zM470.733 716l83.4062 -138h-66
l-59.6084 101l-104.392 -101h-66l144.594 138h68z" />
    <glyph glyph-name="udieresis" unicode="&#xfc;" 
d="M529.281 520h60l-115.281 -520h-60l18.1787 82c-68.8584 -58 -122.396 -92 -198.396 -92c-108 0 -140.255 62 -115.203 175l78.7012 355h60l-77.3711 -349c-19.0664 -86 -3.48535 -133 76.5146 -133c64 0 108.646 39 187.947 99zM318.196 682h66l-20.8398 -94h-66z
M474.196 682h66l-20.8398 -94h-66z" />
    <glyph glyph-name="ugrave" unicode="&#xf9;" 
d="M529.281 520h60l-115.281 -520h-60l18.1787 82c-68.8584 -58 -122.396 -92 -198.396 -92c-108 0 -140.255 62 -115.203 175l78.7012 355h60l-77.3711 -349c-19.0664 -86 -3.48535 -133 76.5146 -133c64 0 108.646 39 187.947 99zM311.733 716h77l80.4062 -138h-51z" />
    <glyph glyph-name="yacute" unicode="&#xfd;" horiz-adv-x="444" 
d="M193.281 520l49.2236 -423h2l238.776 423h64l-317.484 -557c-57.6123 -102 -104.589 -147 -198.589 -147c-26 0 -41.5566 2 -54.6699 6l10.8633 49c17.5566 -2 35.4482 -7 58.4482 -7c42 0 96.2021 37 148.924 144l-67.4922 512h66zM428.733 716h77l-167.594 -138h-51z
" />
    <glyph glyph-name="ydieresis" unicode="&#xff;" horiz-adv-x="444" 
d="M193.281 520l49.2236 -423h2l238.776 423h64l-317.484 -557c-57.6123 -102 -104.589 -147 -198.589 -147c-26 0 -41.5566 2 -54.6699 6l10.8633 49c17.5566 -2 35.4482 -7 58.4482 -7c42 0 96.2021 37 148.924 144l-67.4922 512h66zM262.196 682h66l-20.8398 -94h-66z
M418.196 682h66l-20.8398 -94h-66z" />
    <glyph glyph-name="zcaron" unicode="&#x17e;" horiz-adv-x="444" 
d="M153.64 472l10.6416 48h356l-8.42383 -38l-396.216 -434h308l-10.6416 -48h-388l8.4248 38l396.215 434h-276zM316.14 578l-83.4062 138h66l59.6094 -101l104.391 101h66l-144.594 -138h-68z" />
    </font>
</defs>
</svg>
