<?xml version="1.0" standalone="no"?>
<!DOCTYPE svg PUBLIC "-//W3C//DTD SVG 1.1//EN" "http://www.w3.org/Graphics/SVG/1.1/DTD/svg11.dtd" >
<svg xmlns="http://www.w3.org/2000/svg" width="100%" height="100%">
<metadata>
Created by FontXChange 20110222 at Tue Nov  8 16:28:16 2011
 By Dan Rempel
 The digitally encoded machine readable software for producing the
 Typefaces licensed to you is copyrighted (c) 1989, 1990 Adobe Systems.
 All rights reserved. This software is the property of Adobe Systems
 Incorporated and its licensors, and may not be reproduced, used,
 displayed, modified, disclosed, or transferred  without the express
 written approval of Adobe.

 The digitally encoded machine readable outline data for producing
 the Typefaces licensed to you is copyrighted (c) 1981 Linotype AG
 and/or its subsidiaries. All Rights Reserved.
 This data is the property of Linotype AG and/or its subsidiaries
 and may not be reproduced, used, displayed, modified, disclosed or
 transferred without the express written approval of Linotype AG
 and/or its subsidiaries. 
</metadata>
<defs>
<font id="TradeGothic-Oblique" horiz-adv-x="500" >
  <font-face 
    font-family="TradeGothic"
    font-weight="500"
    font-style="oblique"
    font-stretch="normal"
    units-per-em="1000"
    panose-1="2 0 6 3 0 0 0 0 0 0"
    ascent="800"
    descent="-200"
    x-height="520"
    cap-height="722"
    bbox="-169.217 -224 1103.06 960"
    underline-thickness="50"
    underline-position="-100"
    stemv=" 72 "
    unicode-range="U+0020-FB02"
  />
    <missing-glyph />
    <glyph glyph-name="space" unicode=" " horiz-adv-x="305" 
 />
    <glyph glyph-name="exclam" unicode="!" horiz-adv-x="333" 
d="M273.063 722h106l-130.517 -494h-64zM141.387 110h98l-24.3867 -110h-98z" />
    <glyph glyph-name="quotedbl" unicode="&#x22;" horiz-adv-x="333" 
d="M176.206 452l59.8574 270h62l-59.8574 -270h-62zM295.206 452l59.8574 270h62l-59.8574 -270h-62z" />
    <glyph glyph-name="numbersign" unicode="#" horiz-adv-x="611" 
d="M347.103 438l-53.6982 -152h135l54.6982 152h-136zM272.99 230l-81.9902 -230h-62l81.9902 230h-99l12.4141 56h107l53.6982 152h-99l12.415 56h107l81.5459 228h62l-81.5459 -228h136l80.5459 228h62l-80.5459 -228h94l-12.415 -56h-102l-54.6982 -152h95l-12.4141 -56
h-103l-81.9902 -230h-62l81.9902 230h-135z" />
    <glyph glyph-name="dollar" unicode="$" horiz-adv-x="611" 
d="M367.447 417l53.8711 243c-79.5566 2 -141.754 -44 -154.386 -110c-19.5098 -88 39.3965 -120 100.515 -133zM414.386 322l-57.6406 -260c72.8867 4 151.085 50 167.047 122c19.5088 88 -46.2832 116 -109.406 138zM435.063 722l17.0713 77h68l-17.0713 -77
c80.6699 -6 135.812 -64 158.841 -118l-61.3115 -42c-18.3584 48 -59.4912 88 -111.274 98l-57.8623 -261c130.024 -45 190.939 -95 165.666 -209c-24.8301 -112 -140.122 -190 -254.122 -190l-27.4902 -124h-68l27.4902 124c-95.5566 2 -154.038 72 -190.958 131
l67.7549 44c21.5801 -47 69.835 -109 136.948 -113l61.8525 279c-68.2305 17 -187.59 65 -158.326 197c27.4902 124 140.792 184 242.792 184z" />
    <glyph glyph-name="percent" unicode="%" horiz-adv-x="889" 
d="M675.745 62c59 0 114.312 42 128.057 104s-22.9443 104 -81.9443 104s-114.311 -42 -128.056 -104s22.9434 -104 81.9434 -104zM662 0c-93 0 -151.038 72 -130.198 166c20.8389 94 110.801 166 203.801 166s151.038 -72 130.199 -166
c-20.8398 -94 -110.802 -166 -203.802 -166zM313.461 390c-93 0 -151.038 72 -130.198 166c20.8389 94 110.801 166 203.801 166s151.038 -72 130.199 -166c-20.8398 -94 -110.802 -166 -203.802 -166zM327.206 452c59 0 114.312 42 128.057 104s-22.9443 104 -81.9443 104
s-114.311 -42 -128.056 -104s22.9434 -104 81.9434 -104zM204.783 -10l579.498 742h59l-579.498 -742h-59z" />
    <glyph glyph-name="ampersand" unicode="&#x26;" horiz-adv-x="667" 
d="M353.691 585c-10.4199 -47 4.05273 -99 13.4014 -129c57.0947 32 127.065 86 139.259 141c9.97656 45 -19.8164 73 -55.8164 73c-53 0 -87.7539 -44 -96.8438 -85zM610.697 364l62.4521 -16c-30.4053 -74 -82.3574 -164 -128.664 -215
c23.6846 -33 79.4766 -61 105.477 -61l-15.9619 -72h-26c-36 0 -92.9062 32 -126.038 72c-59.5283 -52 -130.179 -82 -224.179 -82c-112 0 -198.043 81 -170.109 207c21.7266 98 118.688 170 205.33 218c-19.4678 43 -31.5059 115 -18.6475 173
c18.1787 82 93.9238 144 193.924 144c82.001 0 137.359 -48 118.293 -134c-18.6221 -84 -119.254 -150 -195.896 -198c28.9346 -86 76.0859 -162 114.671 -218c29.6504 30 75.2783 105 105.349 182zM166.565 192c-20.1738 -91 46.293 -134 116.293 -134
c64 0 116.764 26 159.302 60c-49.1514 76 -94.9727 158 -128.35 242c-66.4248 -38 -127.736 -80 -147.245 -168z" />
    <glyph glyph-name="quoteright" unicode="&#x2019;" horiz-adv-x="278" 
d="M351.063 722l-24.3857 -110l-94.4814 -142h-42l78.4814 142h-40l24.3857 110h98z" />
    <glyph glyph-name="parenleft" unicode="(" horiz-adv-x="333" 
d="M365.28 732h78c-123.377 -128 -198.423 -250 -234.116 -411c-33.6973 -152 -7.51758 -282 52.2139 -405h-74c-64.3965 120 -82.5811 259 -49.1055 410c32.5889 147 111.849 288 227.008 406z" />
    <glyph glyph-name="parenright" unicode=")" horiz-adv-x="333" 
d="M111.378 -84h-78c123.377 128 198.424 250 234.116 411c33.6973 152 7.51855 282 -52.2139 405h74c64.3975 -120 82.5811 -259 49.1055 -410c-32.5889 -147 -111.848 -288 -227.008 -406z" />
    <glyph glyph-name="asterisk" unicode="*" 
d="M342.603 544l-142.901 23l32.4102 65l122.59 -65l6.88672 4l11.4756 151h67l-51.0322 -149l5.66992 -6l147.297 69l10.1465 -67l-155.873 -31l-4.77344 -8l82.501 -106l-63.3115 -42l-43.293 134h-8l-102.264 -132l-43.3535 39l129.272 114z" />
    <glyph glyph-name="plus" unicode="+" horiz-adv-x="600" 
d="M333.514 291l50.7676 229h62l-50.7676 -229h229l-13.7451 -62h-229l-50.7686 -229h-62l50.7686 229h-229l13.7451 62h229z" />
    <glyph glyph-name="comma" unicode="," horiz-adv-x="305" 
d="M225.387 110l-24.3867 -110l-95.8105 -148h-42l79.8105 148h-40l24.3867 110h98z" />
    <glyph glyph-name="hyphen" unicode="-" horiz-adv-x="333" 
d="M342.769 229h-252l13.7451 62h252z" />
    <glyph glyph-name="period" unicode="." horiz-adv-x="305" 
d="M127.387 110h98l-24.3867 -110h-98z" />
    <glyph glyph-name="slash" unicode="/" horiz-adv-x="278" 
d="M387.28 732h61l-398.497 -742h-60z" />
    <glyph glyph-name="zero" unicode="0" horiz-adv-x="611" 
d="M130.032 361c57.8623 261 180.248 371 337.248 371c157.001 0 230.614 -110 172.752 -371s-180.249 -371 -337.249 -371s-230.613 110 -172.751 371zM206.032 361c-48.5518 -219 -6.50391 -309 110.496 -309s198.952 90 247.504 309
c48.5508 219 6.50293 309 -110.497 309s-198.952 -90 -247.503 -309z" />
    <glyph glyph-name="one" unicode="1" horiz-adv-x="611" 
d="M475 0h-320l13.7451 62h125l130.135 587l-142.104 -14l10.4199 47c53.3252 15 113.65 30 150.084 50h72.001l-148.536 -670h123z" />
    <glyph glyph-name="two" unicode="2" horiz-adv-x="611" 
d="M548.745 62l-13.7451 -62h-469l16.8486 76c181.089 253 453.414 268 496.423 462c18.623 84 -24.7363 132 -116.736 132c-104 0 -176.622 -84 -204.806 -157l-67.4531 16c45.1699 100 127.004 203 288.004 203c118.001 0 204.925 -68 177.435 -192
c-48.7725 -220 -378.074 -280 -499.97 -478h393z" />
    <glyph glyph-name="three" unicode="3" horiz-adv-x="611" 
d="M63.2637 132l66.8682 40c38.5947 -74 96.3965 -120 171.396 -120c106 0 181.972 54 201.037 140c22.3916 101 -24.085 162 -168.085 162h-71l13.7441 62h43c144 0 216.198 46 235.93 135c16.1836 73 -36.6191 119 -105.619 119c-88 0 -134.424 -38 -196.169 -100
l-50.1318 40c64.0752 68 144.046 122 260.046 122c128.001 0 193.368 -66 168.096 -180c-19.2881 -87 -86.5947 -138 -147.472 -160c104.245 -44 110.066 -126 95.4346 -192c-27.2686 -123 -141.556 -210 -292.556 -210c-138 0 -202.935 86 -224.52 142z" />
    <glyph glyph-name="four" unicode="4" horiz-adv-x="611" 
d="M603.688 170h-124l-37.6885 -170h-72l37.6885 170h-332l13.7451 62l406.63 490h106l-108.63 -490h124zM510.215 646l-344.781 -414h256l91.7812 414h-3z" />
    <glyph glyph-name="five" unicode="5" horiz-adv-x="611" 
d="M661.063 722l-13.7451 -62h-310l-69.2109 -231c56.5322 43 110.08 59 161.08 59c120 0 212.82 -82 176.906 -244c-24.3867 -110 -122.311 -254 -306.311 -254c-123 0 -169.925 68 -199.406 138l72.5381 34c20.5898 -65 66.6133 -110 142.613 -110
c95 0 184.415 56 214.565 192c23.5 106 -21.6514 182 -121.651 182c-70 0 -132.312 -42 -176.165 -109l-59.8965 14l118.683 391h370z" />
    <glyph glyph-name="six" unicode="6" horiz-adv-x="611" 
d="M664.97 690l-44.5234 -61c-27.2363 26 -57.9111 41 -113.911 41c-114 0 -240.839 -94 -288.951 -302c54.1973 46 117.065 86 217.065 86c108 0 200.151 -76 165.567 -232c-34.1416 -154 -164.434 -232 -284.434 -232c-150 0 -238.491 88 -183.954 334
c50.5469 228 192.451 408 386.452 408c78 0 130.122 -22 146.688 -42zM523.772 220c24.8301 112 -36.8682 172 -112.868 172c-88 0 -195.962 -72 -220.141 -154c-18.6133 -102 28.7646 -186 132.765 -186c102 0 178.519 70 200.244 168z" />
    <glyph glyph-name="seven" unicode="7" horiz-adv-x="611" 
d="M586.318 660h-366l13.7451 62h458l-9.75391 -44l-455.31 -678h-84z" />
    <glyph glyph-name="eight" unicode="8" horiz-adv-x="611" 
d="M609.679 188c-24.3867 -110 -129.896 -198 -306.896 -198s-243.491 88 -219.104 198c20.3955 92 106.584 156 201.452 196l0.443359 2c-73.3486 30 -107.826 91 -91.1982 166c26.1592 118 139.904 180 272.904 180c133.001 0 219.255 -62 193.096 -180
c-16.6279 -75 -78.1514 -136 -164.802 -166l-0.443359 -2c79.127 -31 136.273 -98 114.548 -196zM159.679 188c-14.1885 -64 25.8496 -136 156.85 -136s202.962 72 217.15 136c18.6221 84 -58.0664 126 -163.642 164c-96.4248 -38 -191.736 -80 -210.358 -164zM585.263 556
c17.7354 80 -52.7275 114 -131.728 114s-164.537 -34 -182.272 -114c-17.292 -78 70.9531 -122 126.185 -139c84.4336 20 172.297 69 187.815 139z" />
    <glyph glyph-name="nine" unicode="9" horiz-adv-x="611" 
d="M106.094 32l44.5234 61c27.2363 -26 57.9111 -41 113.911 -41c114 0 235.612 102 288.952 302c-54.1982 -46 -117.066 -86 -217.066 -86c-108 0 -200.151 76 -165.566 232c34.1406 154 164.433 232 284.433 232c150.001 0 238.491 -88 183.954 -334
c-50.5459 -228 -192.451 -408 -386.451 -408c-78 0 -130.123 22 -146.689 42zM247.291 502c-24.8301 -112 36.8682 -172 112.868 -172c88 0 168.858 58 213.707 134c25.9336 126 -22.3311 206 -126.331 206c-102 0 -178.519 -70 -200.244 -168z" />
    <glyph glyph-name="colon" unicode=":" horiz-adv-x="305" 
d="M201 0h-98l24.3867 110h98zM265.292 290h-98l24.3857 110h98z" />
    <glyph glyph-name="semicolon" unicode=";" horiz-adv-x="305" 
d="M225.387 110l-24.3867 -110l-95.8105 -148h-42l79.8105 148h-40l24.3867 110h98zM265.292 290h-98l24.3857 110h98z" />
    <glyph glyph-name="less" unicode="&#x3c;" horiz-adv-x="600" 
d="M567.745 62l-13.7451 -62l-456.566 232l12.415 56l559.433 232l-13.7451 -62l-479.896 -198z" />
    <glyph glyph-name="equal" unicode="=" horiz-adv-x="600" 
d="M647.126 393l-13.7451 -62h-520l13.7451 62h520zM601.9 189l-13.7451 -62h-520l13.7451 62h520z" />
    <glyph glyph-name="greater" unicode="&#x3e;" horiz-adv-x="600" 
d="M59.7451 62l479.896 198l-392.104 198l13.7451 62l456.789 -231l-12.8584 -58l-559.212 -231z" />
    <glyph glyph-name="question" unicode="?" horiz-adv-x="444" 
d="M270.547 228h-68l12.1924 55c33.4766 151 190.57 183 216.73 301c8.86816 40 -4.93457 86 -64.9346 86c-46 0 -80.877 -22 -122.07 -77l-53.5703 29c48.9619 72 115.386 110 187.386 110c84 0 150.029 -54 128.303 -152c-28.8203 -130 -199.235 -186 -223.622 -296z
M159.387 110h98l-24.3867 -110h-98z" />
    <glyph glyph-name="at" unicode="@" horiz-adv-x="800" 
d="M338.282 308c-12.8584 -58 0.273438 -98 46.2734 -98c92 0 188.16 118 206.117 199c14.4102 65 -16.6035 92 -51.6035 92c-96 0 -183.052 -113 -200.787 -193zM641.518 494l33.3018 60h67l-140.967 -275c-9.21191 -19 -17.9805 -36 -20.8623 -49
c-3.32617 -15 0.457031 -25 16.457 -25c75 0 165.608 111 187.334 209c35.915 162 -70.6895 254 -220.689 254c-175 0 -329.372 -137 -367.725 -310c-39.0186 -176 65.6045 -304 231.604 -304c100 0 199.424 38 270.943 108h76c-89.2734 -114 -229.132 -172 -361.132 -172
c-206 0 -334.864 163 -289.416 368c46.7773 211 250.913 374 453.914 374c185 0 313.066 -126 272.939 -307c-43.2305 -195 -203.184 -285 -293.184 -285c-40 0 -61.792 28 -56.2549 62l-2.22168 -1c-34.8721 -31 -86.5234 -61 -132.523 -61c-85 0 -129.038 72 -109.972 158
c29.4854 133 151.522 273 282.522 273c54 0 90.123 -22 102.93 -77z" />
    <glyph glyph-name="A" unicode="A" horiz-adv-x="611" 
d="M447.648 666l-186.47 -372h219l-21.5303 372h-11zM108 0h-84l382.063 722h119l61.9365 -722h-84l-17.8965 226h-259z" />
    <glyph glyph-name="B" unicode="B" horiz-adv-x="667" 
d="M108 0l160.063 722h266c126 0 184.265 -80 162.538 -178c-17.5137 -79 -65.1504 -136 -158.801 -166l0.556641 -2c76.5664 -20 118.604 -92 98.6514 -182c-23.9434 -108 -109.009 -194 -305.009 -194h-224zM264.263 344l-61.1875 -276h150c118 0 184.868 40 204.82 130
c20.3965 92 -41.6328 146 -155.633 146h-138zM332.988 654l-53.6504 -242h140c121 0 181.745 62 195.269 123c17.958 81 -17.6182 119 -109.618 119h-172z" />
    <glyph glyph-name="C" unicode="C" horiz-adv-x="611" 
d="M550.99 230l68.8955 -14c-61.707 -134 -156.103 -226 -304.103 -226c-162 0 -249.84 118 -193.751 371c52.0977 235 184.248 371 358.248 371c134.001 0 194.708 -78 197.444 -210l-78.877 -22c-3.3877 102 -35.6426 164 -143.643 164c-104 0 -207.282 -96 -253.173 -303
c-46.335 -209 14.8262 -303 134.826 -303c111 0 172.622 84 214.132 172z" />
    <glyph glyph-name="D" unicode="D" horiz-adv-x="667" 
d="M324.988 654l-129.913 -586h108c166 0 273.948 99 316.957 293c46.7773 211 -35.0439 293 -183.044 293h-112zM100 0l160.063 722h194c196 0 298.51 -124 245.969 -361c-47 -212 -194.032 -361 -410.032 -361h-190z" />
    <glyph glyph-name="E" unicode="E" horiz-adv-x="611" 
d="M268.063 722h433l-15.0752 -68h-353l-53.6504 -242h251l-15.0752 -68h-251l-61.1875 -276h373l-15.0752 -68h-453z" />
    <glyph glyph-name="F" unicode="F" horiz-adv-x="556" 
d="M260.063 722h428l-15.0752 -68h-348l-53.6504 -242h258l-15.0752 -68h-258l-76.2627 -344h-80z" />
    <glyph glyph-name="G" unicode="G" horiz-adv-x="667" 
d="M420.928 347h243l-76.9277 -347h-66l14.6318 66h-2c-48.3066 -51 -125.849 -76 -205.849 -76c-164 0 -255.84 118 -199.751 371s200.248 371 364.248 371c122.001 0 203.143 -58 213.001 -212l-79.3252 -15c-10.5049 115 -60.751 159 -144.751 159
c-106 0 -221.962 -72 -273.173 -303c-51.2119 -231 32.8262 -303 138.826 -303c118 0 188.962 72 208.471 160l13.5234 61h-163z" />
    <glyph glyph-name="H" unicode="H" horiz-adv-x="722" 
d="M694.063 722h80l-160.063 -722h-80l76.2627 344h-346l-76.2627 -344h-80l160.063 722h80l-68.7256 -310h346z" />
    <glyph glyph-name="I" unicode="I" horiz-adv-x="333" 
d="M286.063 722h80l-160.063 -722h-80z" />
    <glyph glyph-name="J" unicode="J" horiz-adv-x="444" 
d="M424.063 722h80l-118.828 -536c-30.1504 -136 -101.452 -196 -209.452 -196c-84 0 -122.245 44 -149.383 93l68.6465 39c14.7969 -37 48.8115 -64 93.8115 -64c49 0 93.3203 24 111.722 107z" />
    <glyph glyph-name="K" unicode="K" horiz-adv-x="667" 
d="M249.65 242l-53.6504 -242h-80l160.063 722h80l-83.1357 -375h2l382.136 375h95l-284.301 -272l151.237 -450h-91l-129.869 384z" />
    <glyph glyph-name="L" unicode="L" horiz-adv-x="556" 
d="M530 0h-422l160.063 722h80l-144.988 -654h342z" />
    <glyph glyph-name="M" unicode="M" horiz-adv-x="833" 
d="M725 0h-72l146.318 660h-3l-348.318 -660h-62l-56.6816 660h-3l-146.318 -660h-72l160.063 722h124l54.5303 -584h2l310.47 584h126z" />
    <glyph glyph-name="N" unicode="N" horiz-adv-x="722" 
d="M180 0h-72l160.063 722h115l191.738 -556h4l123.262 556h72l-160.063 -722h-66l-223.229 644h-2z" />
    <glyph glyph-name="O" unicode="O" horiz-adv-x="667" 
d="M211.032 361c-45.4482 -205 7.82617 -303 134.826 -303s223.726 98 269.174 303c45.4473 205 -7.82715 303 -134.827 303s-223.726 -98 -269.173 -303zM131.032 361c53.4277 241 187.248 371 364.248 371c177.001 0 253.18 -130 199.752 -371
c-53.4287 -241 -187.249 -371 -364.249 -371s-253.18 130 -199.751 371z" />
    <glyph glyph-name="P" unicode="P" horiz-adv-x="611" 
d="M324.988 654l-58.5273 -264h136c133 0 187.198 46 206.264 132c19.0664 86 -21.7363 132 -129.736 132h-154zM180 0h-80l160.063 722h252c154 0 201.491 -88 176.218 -202c-26.6035 -120 -126.896 -198 -308.896 -198h-128z" />
    <glyph glyph-name="Q" unicode="Q" horiz-adv-x="667" 
d="M654.434 20l-17.292 -78c-90 0 -113.905 32 -138.938 95c-48.873 -31 -105.42 -47 -167.42 -47c-177 0 -253.18 130 -199.751 371c53.4277 241 187.248 371 364.248 371c177.001 0 253.18 -130 199.752 -371c-26.6035 -120 -73.2217 -213 -134.967 -275
c14.5811 -47 44.3682 -66 94.3682 -66zM396.806 157l17.0713 77c63.0049 -9 96.792 -28 118.594 -74c35.6416 48 63.4951 115 82.5615 201c45.4473 205 -7.82715 303 -134.827 303s-223.726 -98 -269.173 -303c-45.4482 -205 7.82617 -303 134.826 -303
c46 0 87.8818 13 125.868 40c-16.0195 36 -34.251 53 -74.9209 59z" />
    <glyph glyph-name="R" unicode="R" horiz-adv-x="667" 
d="M324.988 654l-57.1973 -258h145c110 0 177.09 41 197.264 132c21.5049 97 -38.0664 126 -141.066 126h-144zM180 0h-80l160.063 722h232c156 0 225.481 -70 198.878 -190c-22.6123 -102 -94.4707 -160 -185.679 -188l76.7373 -344h-87l-73.2842 328h-169z" />
    <glyph glyph-name="S" unicode="S" horiz-adv-x="611" 
d="M642.819 554l-75.5479 -16c-2.48047 70 -47.0664 126 -140.066 126c-84 0 -142.867 -40 -159.829 -112c-37.0283 -158 379.84 -118 328.406 -350c-23.2783 -105 -105.999 -212 -289.999 -212c-158 0 -197.388 102 -216.321 188l78.7637 26
c12.1514 -76 50.6328 -146 156.633 -146s171.415 56 187.82 130c40.792 184 -377.18 130 -326.633 358c23.0557 104 128.234 186 258.234 186c112.001 0 186.921 -59 198.539 -178z" />
    <glyph glyph-name="T" unicode="T" horiz-adv-x="556" 
d="M678.988 654h-216l-144.988 -654h-80l144.988 654h-216l15.0752 68h512z" />
    <glyph glyph-name="U" unicode="U" horiz-adv-x="722" 
d="M268.063 722h80l-113.064 -510c-18.6221 -84 25.8594 -154 138.859 -154s188.519 70 207.141 154l113.064 510h80l-111.734 -504c-31.9238 -144 -154.546 -228 -303.546 -228s-234.378 84 -202.454 228z" />
    <glyph glyph-name="V" unicode="V" horiz-adv-x="556" 
d="M241 0l-62.9365 722h80l46.7568 -592h2l310.243 592h81l-384.063 -722h-73z" />
    <glyph glyph-name="W" unicode="W" horiz-adv-x="833" 
d="M202 0l-13.9365 722h76l6.30371 -576h2l267.696 576h71l16.3037 -576h2l259.696 576h76l-331.063 -722h-71l-18.5303 584h-2l-269.47 -584h-71z" />
    <glyph glyph-name="X" unicode="X" horiz-adv-x="556" 
d="M342.065 298l-236.065 -298h-92l299.579 377l-125.516 345h92l96.251 -265l210.749 265h92l-273.484 -345l136.421 -377h-92z" />
    <glyph glyph-name="Y" unicode="Y" horiz-adv-x="556" 
d="M238 0l67.3955 304l-129.332 418h88l100.619 -331l247.381 331h88l-314.668 -418l-67.3955 -304h-80z" />
    <glyph glyph-name="Z" unicode="Z" horiz-adv-x="556" 
d="M526.075 68l-15.0752 -68h-466l12.8584 58l494.13 596h-329l15.0752 68h429l-11.5283 -52l-501.46 -602h372z" />
    <glyph glyph-name="bracketleft" unicode="[" horiz-adv-x="333" 
d="M59.5947 -74l176.469 796h204l-9.31055 -42h-132l-157.847 -712h132l-9.31152 -42h-204z" />
    <glyph glyph-name="backslash" unicode="\" horiz-adv-x="278" 
d="M154.28 732h61l68.5029 -742h-60z" />
    <glyph glyph-name="bracketright" unicode="]" horiz-adv-x="333" 
d="M417.063 722l-176.469 -796h-204l9.31152 42h132l157.847 712h-132l9.31055 42h204z" />
    <glyph glyph-name="asciicircum" unicode="^" horiz-adv-x="600" 
d="M172.853 279h-64l322.211 443h58l125.789 -443h-63l-107.864 375z" />
    <glyph glyph-name="underscore" unicode="_" 
d="M472.288 -125h-500l11.085 50h500z" />
    <glyph glyph-name="quoteleft" unicode="&#x2018;" horiz-adv-x="278" 
d="M193.414 480l24.3857 110l94.4805 142h42l-78.4805 -142h40l-24.3857 -110h-98z" />
    <glyph glyph-name="a" unicode="a" 
d="M205.796 387l-55.6836 33c46.3018 60 121.386 110 219.386 110c88 0 170.689 -42 145.416 -156l-58.084 -262c-12.6367 -57 -13.8447 -85 -12.8301 -112h-74l7.96191 72c-44.8682 -40 -112.179 -82 -190.179 -82c-80 0 -137.358 48 -116.298 143
c25.2734 114 124.91 171 364.999 212l6.20801 28c15.2969 69 -23.9395 95 -85.9395 95c-80 0 -129.197 -46 -150.957 -81zM390.594 138l31.7021 143c-171.429 -29 -263.07 -77 -279.032 -149c-10.6416 -48 28.2646 -80 68.2646 -80c52 0 126.424 38 179.065 86z" />
    <glyph glyph-name="b" unicode="b" horiz-adv-x="556" 
d="M248.063 722h72l-55.8672 -252l4.44336 2c47.3164 33 100.858 58 149.858 58c88 0 193.925 -68 149.143 -270c-46.1123 -208 -180.857 -270 -272.857 -270c-62 0 -102.236 26 -135.59 65l-25.1934 -55h-50c14.4248 38 20.8486 76 29.2734 114zM247.791 396l-60.7441 -274
c39.915 -50 69.4814 -70 115.481 -70c90 0 162.962 72 192.226 204c34.8066 157 -16.001 212 -100.001 212c-43 0 -98.4287 -29 -146.962 -72z" />
    <glyph glyph-name="c" unicode="c" 
d="M529.239 389l-72.3203 -24c-6.0332 63 -38.166 103 -100.166 103c-89 0 -157.849 -76 -187.112 -208s5.8877 -208 94.8877 -208c66 0 107.877 22 164.282 96l52.2363 -26c-71.5088 -88 -127.264 -132 -230.264 -132c-130 0 -190.388 102 -153.143 270
s142.857 270 272.857 270c107 0 143.698 -60 158.741 -141z" />
    <glyph glyph-name="d" unicode="d" horiz-adv-x="556" 
d="M556.063 722h72l-134.79 -608c-8.4248 -38 -18.8486 -76 -21.2734 -114h-66l1.30664 51c-31.3164 -33 -88.5234 -61 -150.523 -61c-92 0 -199.255 62 -153.143 270c44.7822 202 180.857 270 268.857 270c49 0 91.458 -25 124.142 -58l3.55664 -2zM423.047 122
l60.7441 274c-29.4668 43 -72.0381 72 -115.038 72c-84 0 -159.193 -55 -193.999 -212c-29.2637 -132 11.7744 -204 101.774 -204c46 0 84.4336 20 146.519 70z" />
    <glyph glyph-name="e" unicode="e" 
d="M441.037 140l49.5713 -29c-47.0801 -59 -108.825 -121 -226.825 -121c-116 0 -208.265 80 -166.143 270c37.2451 168 143.857 270 271.857 270c108 0 182.481 -70 145.681 -236l-10.6416 -48h-338c-25.2734 -114 24.9912 -194 110.991 -194c64 0 121.537 34 163.509 88z
M182.282 308h264c21.2822 96 -10.5293 160 -88.5293 160c-87 0 -148.188 -64 -175.471 -160z" />
    <glyph glyph-name="f" unicode="f" horiz-adv-x="333" 
d="M187 0h-72l101.536 458h-88l13.7451 62h88l13.0801 59c27.2686 123 75.9189 153 160.919 153c21 0 42.335 -3 62.8916 -5l-14.1885 -64c-16.5566 2 -34.4482 7 -50.4482 7c-49 0 -70.5469 -16 -83.4053 -74l-16.8486 -76h113l-13.7451 -62h-113z" />
    <glyph glyph-name="g" unicode="g" 
d="M599.715 540l-15.9619 -72c-30 0 -63.1084 -5 -83.1035 -14c11.0098 -18 23.1416 -58 12.5 -106c-22.834 -103 -125.348 -182 -230.348 -182c-42 0 -62.6699 6 -88.8965 14c-29.7734 -8 -46.543 -25 -51.6416 -48c-5.32031 -24 8.5752 -38 34.5752 -38
c246 0 315.246 -44 292.633 -146c-16.8486 -76 -106.037 -140 -268.037 -140c-146 0 -215.132 40 -196.066 126c11.5283 52 49.0703 77 111.5 106c-37.3398 12 -55.4678 43 -48.5947 74c9.97559 45 44.1885 64 89.7305 89c-40.7969 37 -51.4902 88 -38.8545 145
c24.3867 110 126.349 182 237.349 182c56 0 92.3398 -12 121.02 -36c35.877 22 82.3105 42 122.197 46zM400.807 -55c10.3066 51 -35.9297 77 -162.93 77c-113 0 -156.084 -50 -164.287 -87c-8.64648 -39 9.58984 -65 153.59 -65c86 0 161.32 24 173.627 75zM444.263 344
c16.8496 76 -16.5098 124 -104.51 124c-82 0 -137.527 -52 -152.604 -120c-15.2969 -69 27.3975 -120 107.397 -120c82 0 135.971 54 149.716 116z" />
    <glyph glyph-name="h" unicode="h" horiz-adv-x="556" 
d="M249.063 722h72l-60.3008 -272h2c51.1982 46 112.735 80 171.735 80c77 0 141.133 -40 116.303 -152l-83.8008 -378h-72l83.3574 376c15.2969 69 -12.6045 92 -64.6045 92c-54 0 -125.754 -44 -166.514 -79l-86.2393 -389h-72z" />
    <glyph glyph-name="i" unicode="i" horiz-adv-x="278" 
d="M103 0l115.281 520h72l-115.281 -520h-72zM265.28 732h72l-19.0654 -86h-72z" />
    <glyph glyph-name="j" unicode="j" horiz-adv-x="278" 
d="M232.281 520h72l-133.682 -603c-13.9668 -63 -65.165 -109 -131.165 -109c-24 0 -45.1133 4 -57.3398 12l13.0801 59c9.8916 -5 21.0049 -9 36.0049 -9c41 0 59.8818 13 68.5283 52zM351.28 732l-19.0654 -86h-72l19.0654 86h72z" />
    <glyph glyph-name="k" unicode="k" 
d="M84 0l160.063 722h72l-103.088 -465h2l268.306 263h87l-195.565 -192l100.284 -328h-85l-79.0293 266l-120.387 -110l-34.584 -156h-72z" />
    <glyph glyph-name="l" unicode="l" horiz-adv-x="278" 
d="M263.063 722h72l-160.063 -722h-72z" />
    <glyph glyph-name="m" unicode="m" horiz-adv-x="833" 
d="M154 0h-72l115.281 520h72l-15.2969 -69l4.88672 4c54.8633 49 117.627 75 167.627 75c67 0 106.463 -34 114.821 -82c56.8633 49 122.179 82 183.179 82c69 0 136.571 -29 107.973 -158l-82.4707 -372h-72l82.4707 372c15.5186 70 -13.7178 96 -59.7178 96
c-64 0 -115.311 -42 -162.735 -80l-86.0176 -388h-72l82.4707 372c15.5186 70 -13.7178 96 -59.7178 96c-64 0 -115.311 -42 -162.735 -80z" />
    <glyph glyph-name="n" unicode="n" horiz-adv-x="556" 
d="M204.281 520h72l-15.5186 -70h2c51.1982 46 112.735 80 171.735 80c77 0 141.133 -40 116.303 -152l-83.8008 -378h-72l83.3574 376c15.2969 69 -12.6045 92 -64.6045 92c-54 0 -125.754 -44 -166.514 -79l-86.2393 -389h-72z" />
    <glyph glyph-name="o" unicode="o" 
d="M448.641 260c29.707 134 -8.8877 208 -94.8877 208s-157.405 -74 -187.112 -208s8.8877 -208 94.8877 -208s157.405 74 187.112 208zM520.641 260c-33.2539 -150 -130.857 -270 -272.857 -270s-186.396 120 -153.143 270s130.857 270 272.857 270
s186.396 -120 153.143 -270z" />
    <glyph glyph-name="p" unicode="p" horiz-adv-x="556" 
d="M117.435 -192h-72l157.847 712h72l-13.5234 -61h2c35.6465 39 100.74 71 150.74 71c92 0 199.255 -62 153.143 -270c-44.7822 -202 -180.857 -270 -268.857 -270c-49 0 -91.458 25 -124.142 58l-3.55664 2zM248.234 398l-60.7441 -274
c29.4668 -43 72.0381 -72 115.038 -72c84 0 159.193 55 193.999 212c29.2637 132 -11.7744 204 -101.774 204c-46 0 -84.4336 -20 -146.519 -70z" />
    <glyph glyph-name="q" unicode="q" horiz-adv-x="556" 
d="M425.435 -192h-72l53.6504 242l-4.44336 -2c-47.3164 -33 -100.858 -58 -149.858 -58c-88 0 -193.925 68 -149.143 270c46.1123 208 180.857 270 272.857 270c62 0 102.236 -26 123.59 -65l25.1934 55h58zM423.49 124l60.7441 274c-39.915 50 -69.4814 70 -115.481 70
c-90 0 -162.962 -72 -192.226 -204c-34.8057 -157 16.001 -212 100.001 -212c43 0 98.4287 29 146.962 72z" />
    <glyph glyph-name="r" unicode="r" horiz-adv-x="333" 
d="M70 0l115.281 520h72l-22.834 -103h2c55.7402 71 107.607 111 193.607 111l-15.9619 -72c-90.4434 -2 -150.523 -61 -208.244 -168l-63.8486 -288h-72z" />
    <glyph glyph-name="s" unicode="s" horiz-adv-x="444" 
d="M43.7305 89l66.5332 43c23.1367 -49 66.2646 -80 131.265 -80c78 0 121.311 42 131.065 86c29.2637 132 -294.255 62 -246.133 252c22.9531 90 103.259 141 203.037 140c67.7783 -1 134.576 -38 157.826 -91l-59.7549 -44c-29.1367 49 -61.8164 73 -117.816 73
c-61 0 -100.872 -31 -111.07 -77c-25.0518 -113 289.807 -55 246.798 -249c-22.3906 -101 -121.697 -152 -215.697 -152c-81 0 -152.241 35 -186.053 99z" />
    <glyph glyph-name="t" unicode="t" horiz-adv-x="333" 
d="M133.281 520h85l37.9102 171h72l-37.9102 -171h120l-13.7451 -62h-120l-82.0273 -370c-5.32031 -24 9.01953 -36 51.0195 -36c24 0 45.4434 2 65.1084 5l-13.0801 -59c-13.8867 -4 -43.7734 -8 -85.7734 -8c-78 0 -106.566 20 -91.9346 86l84.6875 382h-85z" />
    <glyph glyph-name="u" unicode="u" horiz-adv-x="556" 
d="M467 0h-72l15.5186 70h-2c-51.1982 -46 -112.735 -80 -171.735 -80c-77 0 -141.133 40 -116.303 152l83.8008 378h72l-83.3574 -376c-15.2969 -69 12.6045 -92 64.6045 -92c54 0 125.755 44 166.514 79l86.2393 389h72z" />
    <glyph glyph-name="v" unicode="v" horiz-adv-x="444" 
d="M543.281 520l-271.281 -520h-96l-44.7188 520h73l36.6709 -430h2l227.329 430h73z" />
    <glyph glyph-name="w" unicode="w" horiz-adv-x="667" 
d="M157 0l-25.7188 520h73l16.3223 -400h2l190.678 400h73l14.8789 -402h2l190.121 402h73l-254.281 -520h-73l-14.8789 402h-2l-192.121 -402h-73z" />
    <glyph glyph-name="x" unicode="x" horiz-adv-x="444" 
d="M220.281 520l72.9863 -185l150.014 185h81l-200.759 -247l108.478 -273h-83l-82.7793 213l-173.221 -213h-81l224.522 273l-97.2412 247h81z" />
    <glyph glyph-name="y" unicode="y" horiz-adv-x="444" 
d="M467.281 520h76l-308.479 -566c-63.7168 -116 -139.367 -146 -207.367 -146c-24 0 -37.1133 4 -50.6699 6l13.0801 59c9.77832 -1 22.335 -3 38.335 -3c44 0 113.217 10 163.49 124l-64.3887 526h76l51.9873 -397h2z" />
    <glyph glyph-name="z" unicode="z" horiz-adv-x="444" 
d="M427.745 62l-13.7451 -62h-384l11.5283 52l374.008 406h-256l13.7451 62h354l-11.5283 -52l-374.008 -406h286z" />
    <glyph glyph-name="braceleft" unicode="{" horiz-adv-x="333" 
d="M115.174 303l9.31055 42c41 0 68.208 28 79.293 78l44.1172 199c15.0752 68 54.3857 110 117.386 110h62l-9.31055 -42h-38c-28 0 -48.5469 -16 -57.415 -56l-50.9902 -230c-11.084 -50 -44.9619 -72 -91.5137 -79l-0.443359 -2c43.4482 -7 67.5713 -29 56.4863 -79
l-50.9902 -230c-8.86719 -40 4.58496 -56 32.585 -56h38l-9.31055 -42h-62c-63 0 -83.6895 42 -68.6143 110l44.1182 199c11.084 50 -3.70801 78 -44.708 78z" />
    <glyph glyph-name="bar" unicode="|" horiz-adv-x="222" 
d="M77.7832 -10l164.497 742h62l-164.497 -742h-62z" />
    <glyph glyph-name="braceright" unicode="}" horiz-adv-x="333" 
d="M361.484 345l-9.31055 -42c-41 0 -68.208 -28 -79.292 -78l-44.1182 -199c-15.0752 -68 -54.3857 -110 -117.386 -110h-62l9.31055 42h38c28 0 48.5479 16 57.415 56l50.9902 230c11.085 50 44.9619 72 91.5137 79l0.443359 2c-43.4482 7 -67.5703 29 -56.4863 79
l50.9902 230c8.86816 40 -4.58496 56 -32.585 56h-38l9.31055 42h62c63 0 83.6895 -42 68.6143 -110l-44.1172 -199c-11.085 -50 3.70703 -78 44.707 -78z" />
    <glyph glyph-name="asciitilde" unicode="~" horiz-adv-x="600" 
d="M567.938 329l29.2451 -44c-42.9756 -45 -85.7305 -89 -147.73 -89c-40 0 -67.2314 17 -96.4619 34c-29.2314 17 -59.4629 34 -105.463 34c-44 0 -75.9805 -36 -100.184 -73l-29.0234 45c35.1973 46 80.9521 90 147.952 90c37 0 74.2314 -17 107.463 -34
c34.2305 -17 65.4619 -34 90.4619 -34c40 0 73.2031 37 103.74 71z" />
    <glyph glyph-name="exclamdown" unicode="&#xa1;" horiz-adv-x="333" 
d="M175.218 -202h-106l130.518 494h64zM306.895 410h-98l24.3867 110h98z" />
    <glyph glyph-name="cent" unicode="&#xa2;" horiz-adv-x="611" 
d="M232.396 92l215.584 368c-10.8916 5 -25.2266 8 -41.2266 8c-89 0 -157.849 -76 -187.112 -208c-16.8486 -76 -12.707 -134 12.7549 -168zM486.107 429l-214.806 -369c12.6699 -6 27.2266 -8 43.2266 -8c66 0 107.877 22 164.282 96l52.2363 -26
c-71.5088 -88 -127.264 -132 -230.264 -132c-24 0 -46.335 3 -64.5615 11l-65.8301 -112h-57l79.1504 136c-52.2451 44 -69.2881 125 -44.9014 235c37.2451 168 142.857 270 272.857 270c25 0 46.335 -3 63.0049 -9l51.7314 89h57l-66.0518 -113
c29.457 -25 45.0332 -63 53.0566 -108l-72.3203 -24c-2.23633 26 -9.35938 48 -20.8115 64z" />
    <glyph glyph-name="sterling" unicode="&#xa3;" horiz-adv-x="611" 
d="M436.461 390l-13.7451 -62h-144c0.344727 -21 -3.08887 -41 -9.0752 -68c-8.86816 -40 -24.7305 -89 -57.9287 -135c60.6836 -33 105.816 -73 157.816 -73c94 0 147.42 47 182.377 128l61.3398 -12c-46.6035 -120 -129.462 -178 -239.462 -178
c-100 0 -152.689 42 -211.708 78c-35.4248 -38 -78.5186 -70 -137.292 -78l17.292 78c58.2168 10 129.627 75 150.467 169c7.75879 35 12.1885 64 13.1738 91h-107l13.7451 62h98c2.4248 38 4.40527 74 14.1602 118c29.9287 135 128.659 224 269.659 224
c124.001 0 182.925 -68 184.766 -186l-70.6611 -12c-5.58496 56 -22.8496 136 -123.85 136c-116 0 -164.849 -76 -180.367 -146c-12.1934 -55 -15.9473 -99 -19.707 -134h152z" />
    <glyph glyph-name="fraction" unicode="&#x2044;" horiz-adv-x="167" 
d="M-110.217 -10h-59l603.497 742h62z" />
    <glyph glyph-name="yen" unicode="&#xa5;" horiz-adv-x="611" 
d="M390.877 234l-51.877 -234h-68l51.877 234h-177l13.7451 62h177l1.77344 8l-24.2646 80h-135l13.7451 62h102l-85.8125 276h72l107.072 -347l260.928 347h72l-208.188 -276h102l-13.7451 -62h-134l-60.7354 -80l-1.77344 -8h177l-13.7451 -62h-177z" />
    <glyph glyph-name="florin" unicode="&#x192;" horiz-adv-x="611" 
d="M11.7646 -186l25.6318 66c7.11328 -4 21.7832 -10 45.7832 -10c63 0 88.207 28 117.17 100l173.328 430h-114l13.3018 60h126l23.8584 58c65.585 156 125.443 214 233.443 214c21 0 42.334 -3 53.2256 -8l-31.4102 -65c-9.66992 6 -22.5615 11 -42.5615 11
c-52 0 -84.5371 -34 -136.141 -154l-22.9717 -54h116l-13.7451 -62h-127l-175.333 -421c-44.9434 -108 -101.91 -171 -216.91 -171c-21 0 -32.335 3 -47.6699 6z" />
    <glyph glyph-name="section" unicode="&#xa7;" 
d="M97.8867 4l58.0947 32c15.2402 -35 39.3682 -66 87.3682 -66c40 0 74.7637 26 83.1885 64c19.7305 89 -200.473 264 -180.304 364c13.7451 62 62.6133 102 143.5 106c-24.2451 44 -44.2549 62 -32.2832 116c13.0801 59 76.8291 112 152.829 112
c60 0 92.6797 -24 127.6 -83l-53.9854 -27c-10.4531 16 -29.585 56 -81.585 56c-40 0 -70.208 -28 -76.8584 -58c-6.65137 -30 0.688477 -42 86.3018 -152c84.8359 -109 102.52 -142 89.6611 -200c-14.8535 -67 -72.1689 -100 -132.943 -108
c24.5762 -38 38.2598 -71 26.5107 -124c-13.0801 -59 -71.6035 -120 -163.604 -120c-68 0 -116.02 36 -133.491 88zM287.093 456c-33 0 -65.542 -25 -72.1934 -55c-7.53711 -34 13.6982 -60 55.8398 -118c42.9209 -59 61.373 -75 91.373 -75c31 0 62.8779 22 70.415 56
c5.98633 27 -5.91992 59 -56.5098 124c-48.2549 62 -61.9248 68 -88.9248 68z" />
    <glyph glyph-name="currency" unicode="&#xa4;" horiz-adv-x="611" 
d="M342.91 171c104 0 201.962 72 228.122 190c25.7158 116 -39.8779 190 -143.878 190s-202.406 -74 -228.122 -190c-26.1602 -118 39.8779 -190 143.878 -190zM647.678 612l32.6885 -42l-67.1934 -55c24.6885 -42 32.7178 -96 19.8594 -154s-44.8301 -112 -88.1416 -154
l42.8066 -55l-51.3105 -42l-43.585 56c-47.3164 -33 -104.75 -53 -162.75 -53s-106.566 20 -139.25 53l-68.415 -56l-32.6895 42l67.1934 55c-24.6885 42 -32.7168 96 -19.8584 154s44.8291 112 88.1406 154l-42.8066 55l51.3115 42l43.585 -56
c47.3154 33 104.75 53 162.75 53s106.565 -20 139.25 -53z" />
    <glyph glyph-name="quotesingle" unicode="'" horiz-adv-x="222" 
d="M180.206 452l59.8574 270h62l-59.8574 -270h-62z" />
    <glyph glyph-name="quotedblleft" unicode="&#x201c;" 
d="M209.414 480l24.3857 110l94.4805 142h42l-78.4805 -142h40l-24.3857 -110h-98zM413.414 480l24.3857 110l94.4814 142h42l-78.4814 -142h40l-24.3857 -110h-98z" />
    <glyph glyph-name="guillemotleft" unicode="&#xab;" 
d="M302.669 418h70l-164.028 -158l93.9727 -158h-68l-96.9727 158zM442.669 418h70l-164.028 -158l93.9727 -158h-68l-96.9727 158z" />
    <glyph glyph-name="guilsinglleft" unicode="&#x2039;" horiz-adv-x="333" 
d="M276.669 418h70l-164.028 -158l93.9727 -158h-68l-96.9727 158z" />
    <glyph glyph-name="guilsinglright" unicode="&#x203a;" horiz-adv-x="333" 
d="M171.669 418h70l94.9717 -158l-167.027 -158h-68l164.027 158z" />
    <glyph glyph-name="fi" unicode="&#xfb01;" horiz-adv-x="556" 
d="M174 0h-72l101.536 458h-88l13.7451 62h88l13.0801 59c27.2686 123 75.9189 153 160.919 153c21 0 42.335 -3 62.8916 -5l-14.1885 -64c-16.5566 2 -34.4482 7 -50.4482 7c-49 0 -70.5469 -16 -83.4053 -74l-16.8486 -76h113l-13.7451 -62h-113zM397 0l115.281 520h72
l-115.281 -520h-72zM559.281 732h72l-19.0664 -86h-72z" />
    <glyph glyph-name="fl" unicode="&#xfb02;" horiz-adv-x="556" 
d="M174 0h-72l101.536 458h-88l13.7451 62h88l13.0801 59c27.2686 123 75.9189 153 160.919 153c21 0 42.335 -3 62.8916 -5l-14.1885 -64c-16.5566 2 -34.4482 7 -50.4482 7c-49 0 -70.5469 -16 -83.4053 -74l-16.8486 -76h113l-13.7451 -62h-113zM557.063 722h72
l-160.063 -722h-72z" />
    <glyph glyph-name="endash" unicode="&#x2013;" 
d="M52.0986 235l11.084 50h500l-11.084 -50h-500z" />
    <glyph glyph-name="dagger" unicode="&#x2020;" 
d="M372.28 732h80l-70.1123 -208l164.878 22l-17.293 -78l-154.235 26l-14.5752 -174l-113.564 -404h-32l65.5645 404l62.5752 174l-165.765 -26l17.293 78l155.122 -22z" />
    <glyph glyph-name="daggerdbl" unicode="&#x2021;" 
d="M375.518 494l-13.6885 -170l-61.6885 -170l165.765 26l-17.292 -78l-155.123 22l-22.1123 -208h-80l70.1123 208l-164.877 -22l17.292 78l154.235 -26l13.6885 170l61.6885 170l-165.765 -26l17.293 78l155.122 -22l22.1123 208h80l-70.1123 -208l164.878 22l-17.293 -78
z" />
    <glyph glyph-name="periodcentered" unicode="&#xb7;" horiz-adv-x="305" 
d="M147.419 259c7.75977 35 39.9668 63 75.9668 63c34 0 55.793 -28 48.0332 -63c-7.53711 -34 -41.5234 -61 -75.5234 -61c-36 0 -56.0137 27 -48.4766 61z" />
    <glyph glyph-name="paragraph" unicode="&#xb6;" 
d="M200.378 -84l92.0029 415c-121 0 -189.712 87 -166.435 192c29.042 131 129.117 199 269.117 199h277l-11.085 -50h-71l-167.601 -756h-60l167.601 756h-101.999l-167.602 -756h-60z" />
    <glyph glyph-name="bullet" unicode="&#x2022;" 
d="M149.032 361c22.1689 100 119.904 180 219.904 180s163.265 -80 141.096 -180c-22.1699 -100 -121.127 -181 -221.127 -181s-162.043 81 -139.873 181z" />
    <glyph glyph-name="quotesinglbase" unicode="&#x201a;" horiz-adv-x="278" 
d="M215.387 110l-24.3867 -110l-94.4805 -142h-42l78.4805 142h-40l24.3867 110h98z" />
    <glyph glyph-name="quotedblbase" unicode="&#x201e;" 
d="M421.387 110l-24.3867 -110l-94.4805 -142h-42l78.4805 142h-40l24.3867 110h98zM217.387 110l-24.3867 -110l-94.4805 -142h-42l78.4805 142h-40l24.3867 110h98z" />
    <glyph glyph-name="quotedblright" unicode="&#x201d;" 
d="M557.063 722l-24.3857 -110l-94.4814 -142h-42l78.4814 142h-40l24.3857 110h98zM353.063 722l-24.3857 -110l-94.4814 -142h-42l78.4814 142h-40l24.3857 110h98z" />
    <glyph glyph-name="guillemotright" unicode="&#xbb;" 
d="M312.669 418h70l94.9717 -158l-167.027 -158h-68l164.027 158zM172.669 418h70l94.9717 -158l-167.027 -158h-68l164.027 158z" />
    <glyph glyph-name="ellipsis" unicode="&#x2026;" horiz-adv-x="1000" 
d="M142.387 110h98l-24.3867 -110h-98zM475.387 110h98l-24.3867 -110h-98zM808.387 110h98l-24.3867 -110h-98z" />
    <glyph glyph-name="perthousand" unicode="&#x2030;" horiz-adv-x="1000" 
d="M721.811 148c18.1797 82 101.812 148 180.812 148s133.368 -66 115.188 -148c-18.1787 -82 -101.811 -148 -180.811 -148s-133.368 66 -115.189 148zM779.811 148c-10.6406 -48 20.0479 -90 70.0479 -90c41 0 97.9814 36 109.952 90c11.9717 54 -29.0469 90 -70.0469 90
s-97.9814 -36 -109.953 -90zM359.811 148c18.1797 82 101.812 148 180.812 148s133.368 -66 115.188 -148c-18.1787 -82 -101.811 -148 -180.811 -148s-133.368 66 -115.189 148zM417.811 148c-10.6406 -48 20.0479 -90 70.0479 -90c41 0 97.9814 36 109.952 90
c11.9717 54 -29.0469 90 -70.0469 90s-97.9814 -36 -109.953 -90zM142.253 574c18.1787 82 101.811 148 180.811 148s133.368 -66 115.189 -148s-101.811 -148 -180.811 -148s-133.368 66 -115.189 148zM200.253 574c-10.6416 -48 20.0479 -90 70.0479 -90
c41 0 97.9805 36 109.952 90s-29.0479 90 -70.0479 90s-97.9805 -36 -109.952 -90zM710.281 732l-565.498 -742h-59l563.498 742h61z" />
    <glyph glyph-name="questiondown" unicode="&#xbf;" horiz-adv-x="444" 
d="M288.735 292h68l-12.1934 -55c-33.4766 -151 -190.57 -183 -216.73 -301c-8.86816 -40 4.93457 -86 64.9346 -86c46 0 80.877 22 122.07 77l53.5703 -29c-48.9619 -72 -115.386 -110 -187.386 -110c-84 0 -150.028 54 -128.303 152c28.8203 130 199.235 186 223.622 296z
M399.895 410h-98l24.3867 110h98z" />
    <glyph glyph-name="grave" unicode="`" horiz-adv-x="278" 
d="M166.063 722h109l57.5195 -142h-67z" />
    <glyph glyph-name="acute" unicode="&#xb4;" horiz-adv-x="278" 
d="M323.063 722h109l-162.48 -142h-67z" />
    <glyph glyph-name="circumflex" unicode="&#x2c6;" horiz-adv-x="278" 
d="M121.583 580l129.48 142h94l68.5195 -142h-80l-46.1602 94l-85.8398 -94h-80z" />
    <glyph glyph-name="tilde" unicode="&#x2dc;" horiz-adv-x="278" 
d="M416.295 705h50c-15.8633 -49 -66.7217 -107 -120.722 -107c-26 0 -50.7822 10 -73.7871 19c-23.7832 10 -46.7881 19 -70.7881 19c-21 0 -46.542 -25 -52.4199 -47h-50c19.3018 60 65.165 109 131.165 109c27 0 49.0049 -9 69.0098 -18
c20.7822 -10 39.7871 -19 60.7871 -19c25 0 46.9912 18 56.7549 44z" />
    <glyph glyph-name="macron" unicode="&#xaf;" horiz-adv-x="278" 
d="M430.678 612h-312l13.3018 60h312z" />
    <glyph glyph-name="breve" unicode="&#x2d8;" horiz-adv-x="278" 
d="M403.62 720h49c-32.1738 -91 -98.1504 -136 -184.15 -136s-132.023 45 -123.85 136h49c-0.52832 -52 29.708 -78 87.708 -78s99.7637 26 122.292 78z" />
    <glyph glyph-name="dotaccent" unicode="&#x2d9;" horiz-adv-x="278" 
d="M313.8 590h-88l20.8398 94h88z" />
    <glyph glyph-name="dieresis" unicode="&#xa8;" horiz-adv-x="278" 
d="M392.8 590h-88l20.8398 94h88zM234.8 590h-88l20.8398 94h88z" />
    <glyph glyph-name="ring" unicode="&#x2da;" horiz-adv-x="278" 
d="M189.753 680c12.1934 55 67.1689 100 122.169 100s90.0234 -45 77.8311 -100c-12.1934 -55 -67.1699 -100 -122.17 -100s-90.0234 45 -77.8301 100zM233.753 680c-6.87305 -31 12.585 -56 43.585 -56s61.542 25 68.415 56c6.87207 31 -12.585 56 -43.585 56
s-61.543 -25 -68.415 -56z" />
    <glyph glyph-name="cedilla" unicode="&#xb8;" horiz-adv-x="278" 
d="M127 0h48l-59.8584 -58l1.55664 -2c9.66504 3 21.1084 5 31.1084 5c58 0 75.9102 -41 65.3779 -84c-13.1934 -55 -64.8447 -85 -139.845 -85c-41 0 -67.7822 10 -89.3438 21l26.7549 44c16.3389 -12 39.7871 -19 61.7871 -19c36 0 59.5469 16 65.5332 43
c4.65527 21 -7.57617 38 -32.5762 38c-14 0 -31.4434 -2 -47.7734 -8l-12.7871 19z" />
    <glyph glyph-name="hungarumlaut" unicode="&#x2dd;" horiz-adv-x="278" 
d="M249.063 722h107l-154.48 -142h-63zM399.063 722h109l-162.48 -142h-67z" />
    <glyph glyph-name="ogonek" unicode="&#x2db;" horiz-adv-x="278" 
d="M235.731 -123l9.34961 -30c-24.7695 -17 -93.6367 -57 -163.637 -57c-64 0 -89.4629 34 -77.4912 88c14.6318 66 98.7168 116 255.259 141l-2.2168 -10c-55.9902 -18 -160.193 -55 -175.047 -122c-6.87207 -31 7.69336 -51 46.6934 -51c29 0 78.543 25 107.09 41z" />
    <glyph glyph-name="caron" unicode="&#x2c7;" horiz-adv-x="278" 
d="M153.063 722h80l44.1611 -94l87.8389 94h80l-131.48 -142h-94z" />
    <glyph glyph-name="emdash" unicode="&#x2014;" horiz-adv-x="1000" 
d="M52.0986 235l11.084 50h1000l-11.085 -50h-1000z" />
    <glyph glyph-name="AE" unicode="&#xc6;" horiz-adv-x="1000" 
d="M16 0l567.063 722h507l-15.0752 -68h-353l-53.6504 -242h251l-15.0752 -68h-251l-61.1875 -276h373l-15.0752 -68h-453l50.1035 226h-266l-174.104 -226h-91zM335.179 294h227l82.4697 372h-22z" />
    <glyph glyph-name="ordfeminine" unicode="&#xaa;" horiz-adv-x="300" 
d="M208.328 642l-35.6797 24c29.9814 36 77.6318 66 141.632 66c57 0 112.458 -25 97.1611 -94l-34.8057 -157c-7.53809 -34 -8.30664 -51 -6.85449 -67h-53l1.75977 35c-26.5469 -16 -66.0898 -41 -116.09 -41c-53 0 -91.5703 29 -78.9336 86
c15.0752 68 81.499 106 231.042 131l2.88184 13c7.09375 32 -14.3584 48 -53.3584 48c-52 0 -82.0996 -23 -95.7549 -44zM326.183 497l18.1787 82c-98.9902 -18 -157.533 -43 -167.065 -86c-4.65625 -21 9.35352 -39 39.3535 -39c36 0 81.877 22 109.533 43z" />
    <glyph glyph-name="Lslash" unicode="&#x141;" horiz-adv-x="556" 
d="M262.711 337l-59.6357 -269h342l-15.0752 -68h-422l67.6172 305l-100.203 -37l15.0752 68l100.203 37l77.3711 349h80l-70.2773 -317l209.293 78l-15.0752 -68z" />
    <glyph glyph-name="Oslash" unicode="&#xd8;" horiz-adv-x="667" 
d="M206.027 158l388.759 459c-25.1279 31 -63.5811 47 -114.581 47c-127 0 -223.726 -98 -269.173 -303c-19.2881 -87 -20.3633 -155 -5.00488 -203zM620.479 566l-389.758 -459c23.6836 -33 63.1367 -49 115.137 -49c127 0 223.726 98 269.174 303
c19.5088 88 20.584 156 5.44727 205zM793.705 770l-112.264 -132c34.2549 -62 40.6377 -155 13.5908 -277c-53.4287 -241 -187.249 -371 -364.249 -371c-66 0 -117.788 19 -154.028 54l-91.9434 -108h-67l127.032 149c-35.0332 63 -40.415 156 -13.8115 276
c53.4277 241 187.248 371 364.248 371c65.001 0 116.231 -17 152.473 -52l75.9521 90h70z" />
    <glyph glyph-name="OE" unicode="&#x152;" horiz-adv-x="1000" 
d="M978.075 68l-15.0752 -68h-451c-50 0 -104.217 -10 -168.217 -10c-221 0 -274.086 162 -227.751 371c46.334 209 171.248 371 392.248 371c64.001 0 113.783 -10 163.783 -10h431l-15.0752 -68h-353l-53.6504 -242h251l-15.0752 -68h-251l-61.1875 -276h373zM551.679 188
l76.7061 346c21.7266 98 -29.1797 130 -137.18 130c-154 0 -251.499 -106 -295.173 -303s6.82617 -303 160.826 -303c108 0 173.094 32 194.82 130z" />
    <glyph glyph-name="ordmasculine" unicode="&#xba;" horiz-adv-x="300" 
d="M196.81 572c-16.627 -75 1.2832 -116 54.2832 -116s89.5332 43 105.273 114s-1.72656 114 -54.7266 114c-50 0 -89.5332 -43 -104.83 -112zM138.366 570c22.3916 101 89.9141 162 173.914 162c85 0 124.478 -61 102.086 -162s-88.915 -162 -173.915 -162
c-84 0 -124.477 61 -102.085 162z" />
    <glyph glyph-name="ae" unicode="&#xe6;" horiz-adv-x="778" 
d="M365.707 134l32.5889 147c-108.655 -21 -242.636 -57 -263.032 -149c-10.6416 -48 22.2646 -80 66.2646 -80c67 0 137.642 48 164.179 82zM782.537 246h-320c-26.6035 -120 4.99121 -194 104.991 -194c52 0 109.537 34 151.509 88l49.5713 -29
c-47.0801 -59 -108.825 -121 -220.825 -121c-64 0 -122.896 14 -154.491 88c-92.4053 -74 -151.509 -88 -219.509 -88s-131.358 48 -112.736 132c34.584 156 191.452 196 351.438 223l6.20801 28c13.9668 63 -12.9395 95 -76.9395 95c-76 0 -125.197 -46 -146.957 -81
l-53.6836 33c44.3018 60 119.386 110 210.386 110c65 0 113.566 -20 134.481 -70c36.9814 36 93.5186 70 165.519 70c104 0 178.481 -70 141.681 -236zM476.282 308h248c21.2822 96 -12.5293 160 -90.5293 160c-84 0 -134.188 -64 -157.471 -160z" />
    <glyph glyph-name="dotlessi" unicode="&#x131;" horiz-adv-x="278" 
d="M103 0l115.281 520h72l-115.281 -520h-72z" />
    <glyph glyph-name="lslash" unicode="&#x142;" horiz-adv-x="278" 
d="M261.904 392l-86.9043 -392h-72l78.7021 355l-99.1982 -46l15.0752 68l99.1982 46l66.2861 299h72l-58.084 -262l98.9766 45l-15.0752 -68z" />
    <glyph glyph-name="oslash" unicode="&#xf8;" 
d="M450.791 396l-259.721 -319c17.2314 -17 41.458 -25 70.458 -25c86 0 157.405 74 187.112 208c12.6367 57 12.835 103 2.15039 136zM552.46 602h65l-113.037 -140c29.1377 -49 34.1748 -121 16.2178 -202c-33.2539 -150 -130.857 -270 -272.857 -270
c-44 0 -78.5615 11 -102.128 31l-83.834 -103h-64l114.259 141c-30.915 50 -35.1748 121 -17.4395 201c33.2539 150 130.857 270 272.857 270c42 0 76.5615 -11 101.128 -31zM164.49 124l258.721 319c-17.2314 17 -40.458 25 -69.458 25c-86 0 -157.405 -74 -187.112 -208
c-12.6367 -57 -12.835 -103 -2.15039 -136z" />
    <glyph glyph-name="oe" unicode="&#x153;" horiz-adv-x="778" 
d="M152.641 260c-29.2637 -132 -0.112305 -208 82.8877 -208c88 0 148.849 76 178.112 208s6.1123 208 -85.8877 208c-83 0 -145.849 -76 -175.112 -208zM802.537 246h-320c-25.2734 -114 -7.00879 -194 92.9912 -194c62 0 119.537 34 153.509 88l49.5713 -29
c-39.0801 -59 -106.825 -121 -216.825 -121c-82 0 -133.015 27 -150.939 95c-55.0752 -68 -119.061 -95 -189.061 -95c-118 0 -178.388 102 -141.143 270s142.857 270 260.857 270c70 0 121.015 -27 147.383 -93c49.9619 72 118.617 93 186.617 93
c100 0 174.481 -70 137.681 -236zM498.282 308h246c21.2822 96 -10.5293 160 -88.5293 160c-87 0 -134.188 -64 -157.471 -160z" />
    <glyph glyph-name="germandbls" unicode="&#xdf;" horiz-adv-x="556" 
d="M234.769 17l40.0801 59c10.5615 -11 32.6797 -24 66.6797 -24c72 0 117.745 62 134.815 139c29.042 131 -30.7598 177 -141.76 177l13.7451 62h29c58 0 119.307 51 135.047 122c16.4053 74 -9.84082 118 -85.8408 118c-78 0 -118.197 -46 -141.707 -134l-118.828 -536
h-72l122.819 554c28.377 128 131.461 178 225.461 178c120.001 0 165.595 -74 143.426 -174c-15.0752 -68 -57.0469 -122 -122.477 -151l-0.443359 -2c87.0146 -27 109.723 -105 86.666 -209c-29.2637 -132 -127.669 -206 -215.669 -206c-48 0 -74.7832 10 -99.0146 27z" />
    <glyph glyph-name="onesuperior" unicode="&#xb9;" horiz-adv-x="366" 
d="M327.28 732h54l-86.4609 -390h79l-11.084 -50h-213l11.084 50h76l75.377 340l-87.8828 -13l7.31641 33c33.9951 9 72.9902 18 95.6504 30z" />
    <glyph glyph-name="logicalnot" unicode="&#xac;" horiz-adv-x="600" 
d="M526.155 127l45.2256 204h-458l13.7451 62h520l-58.9707 -266h-62z" />
    <glyph glyph-name="mu" unicode="&#x3bc;" horiz-adv-x="556" 
d="M467 0h-72l15.5186 70h-2c-51.1982 -46 -112.735 -80 -171.735 -80c-27 0 -52.8916 5 -74.4531 16l-43.8955 -198h-72l157.847 712h72l-83.3574 -376c-15.2969 -69 12.6045 -92 64.6045 -92c54 0 125.755 44 166.514 79l86.2393 389h72z" />
    <glyph glyph-name="trademark" unicode="&#x2122;" horiz-adv-x="990" 
d="M536.063 722l-11.9717 -54h-128l-79.3662 -358h-68l79.3662 358h-126l11.9717 54h322zM648.988 654l-76.2627 -344h-68l91.3379 412h105l54.8311 -312l189.169 312h105l-91.3379 -412h-68l76.2627 344h-2l-211.263 -344h-44l-58.7373 344h-2z" />
    <glyph glyph-name="Eth" unicode="&#xd0;" horiz-adv-x="667" 
d="M271.338 412h188l-15.0752 -68h-188l-61.1875 -276h108c166 0 273.948 99 316.957 293c46.7773 211 -35.0439 293 -183.044 293h-112zM123.338 412h68l68.7256 310h194c196 0 298.51 -124 245.969 -361c-47 -212 -194.032 -361 -410.032 -361h-190l76.2627 344h-68z" />
    <glyph glyph-name="onehalf" unicode="&#xbd;" horiz-adv-x="916" 
d="M339.28 732h54l-86.4609 -390h79l-11.084 -50h-213l11.084 50h76l75.377 340l-87.8828 -13l7.31641 33c33.9951 9 72.9902 18 95.6504 30zM860 0h-310l11.9717 54c112.811 148 289.471 160 312.527 264c9.31152 42 -15.0381 72 -73.0381 72
c-70 0 -114.977 -45 -137.509 -88l-42.4531 16c33.1885 64 98.0469 122 194.047 122c84 0 130.245 -44 114.283 -116c-31.0371 -140 -230.579 -165 -314.744 -274h256zM255.783 -10h-59l603.498 742h62z" />
    <glyph glyph-name="plusminus" unicode="&#xb1;" horiz-adv-x="600" 
d="M344.598 341l39.6836 179h62l-39.6836 -179h229l-13.7451 -62h-229l-39.6826 -179h-62l39.6826 179h-229l13.7451 62h229zM40 0l13.7451 62h520l-13.7451 -62h-520z" />
    <glyph glyph-name="Thorn" unicode="&#xde;" horiz-adv-x="611" 
d="M293.951 514l-58.5273 -264h136c133 0 187.198 46 206.264 132s-21.7363 132 -129.736 132h-154zM180 0h-80l160.063 722h80l-31.0371 -140h172c154 0 201.491 -88 176.218 -202c-26.6035 -120 -126.896 -198 -308.896 -198h-128z" />
    <glyph glyph-name="onequarter" unicode="&#xbc;" horiz-adv-x="916" 
d="M890.613 102h-81l-22.6133 -102h-54l22.6133 102h-208l9.97559 45l248.627 287h77l-62.5186 -282h81zM814.357 376l-194.66 -224h147l49.6602 224h-2zM339.28 732h54l-86.4609 -390h79l-11.084 -50h-213l11.084 50h76l75.377 340l-87.8828 -13l7.31641 33
c33.9951 9 72.9902 18 95.6504 30zM275.783 -10h-59l603.498 742h62z" />
    <glyph glyph-name="divide" unicode="&#xf7;" horiz-adv-x="600" 
d="M610.769 229h-520l13.7451 62h520zM341.753 468c7.53809 34 41.7451 62 75.7451 62s55.793 -28 48.2549 -62c-7.53711 -34 -41.7451 -62 -75.7451 -62s-55.792 28 -48.2549 62zM249.528 52c7.53711 34 41.7451 62 75.7451 62s55.792 -28 48.2549 -62
c-7.53809 -34 -41.7451 -62 -75.7451 -62s-55.793 28 -48.2549 62z" />
    <glyph glyph-name="brokenbar" unicode="&#xa6;" horiz-adv-x="222" 
d="M77.7832 -10l62.0742 280h62l-62.0742 -280h-62zM180.206 452l62.0742 280h62l-62.0742 -280h-62z" />
    <glyph glyph-name="degree" unicode="&#xb0;" horiz-adv-x="400" 
d="M186.356 588c17.7354 80 95.9238 144 175.924 144s129.812 -64 112.076 -144s-95.9238 -144 -175.924 -144s-129.812 64 -112.076 144zM234.356 588c-12.6367 -57 20.8311 -100 73.8311 -100s105.532 43 118.169 100s-20.8301 100 -73.8301 100
s-105.533 -43 -118.17 -100z" />
    <glyph glyph-name="thorn" unicode="&#xfe;" horiz-adv-x="556" 
d="M117.435 -192h-72l202.629 914h72l-58.3057 -263h2c35.6465 39 100.74 71 150.74 71c92 0 199.255 -62 153.143 -270c-44.7822 -202 -180.857 -270 -268.857 -270c-49 0 -91.458 25 -124.142 58l-3.55664 2zM248.234 398l-60.7441 -274
c29.4668 -43 72.0381 -72 115.038 -72c84 0 159.193 55 193.999 212c29.2637 132 -11.7744 204 -101.774 204c-46 0 -84.4336 -20 -146.519 -70z" />
    <glyph glyph-name="threequarters" unicode="&#xbe;" horiz-adv-x="916" 
d="M890.613 102h-81l-22.6133 -102h-54l22.6133 102h-208l9.97559 45l248.627 287h77l-62.5186 -282h81zM814.357 376l-194.66 -224h147l49.6602 224h-2zM257.626 499l11.085 50h41c76 0 120.655 21 132.627 75c6.65039 30 -20.1416 58 -69.1416 58
c-57 0 -83.5479 -16 -120.307 -51l-35.793 28c41.0898 41 92.1836 73 167.184 73c84 0 127.354 -39 112.058 -108c-11.5283 -52 -47.4014 -83 -86.0615 -95l-0.443359 -2c54.7881 -19 64.5947 -74 55.2832 -116c-16.4053 -74 -88.7119 -125 -186.712 -125
c-90 0 -133.693 51 -148.377 84l47.0938 32c25.3594 -48 63.3682 -66 112.368 -66c67 0 111.43 29 121.405 74c13.0801 59 -14.2686 89 -108.269 89h-45zM291.783 -10h-59l603.498 742h62z" />
    <glyph glyph-name="twosuperior" unicode="&#xb2;" horiz-adv-x="366" 
d="M402.735 292h-310l11.9707 54c112.812 148 289.472 160 312.528 264c9.31055 42 -15.0381 72 -73.0381 72c-70 0 -114.977 -45 -137.51 -88l-42.4521 16c33.1885 64 98.0459 122 194.046 122c84 0 130.246 -44 114.284 -116c-31.0381 -140 -230.58 -165 -314.745 -274
h256z" />
    <glyph glyph-name="registered" unicode="&#xae;" horiz-adv-x="800" 
d="M395.824 333l-41.2354 -186h-66l94.8857 428h164c102 0 143.575 -38 124.953 -122c-17.0703 -77 -72.3867 -110 -138.16 -118l80.3213 -188h-72l-72.7646 186h-74zM437.503 521l-29.707 -134h78c80 0 111.099 23 121.519 70c9.08984 41 -5.81152 64 -80.8115 64h-89z
M104.254 362c47.2207 213 255.026 370 459.027 370c202 0 340.193 -157 292.973 -370c-47.665 -215 -255.471 -372 -457.471 -372c-204 0 -342.194 157 -294.529 372zM784.254 362c39.2393 177 -64.2754 310 -234.275 310c-171.999 0 -334.485 -133 -373.725 -310
c-40.127 -181 63.8311 -312 235.831 -312c170 0 332.042 131 372.169 312z" />
    <glyph glyph-name="minus" unicode="&#x2212;" horiz-adv-x="600" 
d="M610.769 229h-520l13.7451 62h520z" />
    <glyph glyph-name="eth" unicode="&#xf0;" 
d="M261.528 52c95 0 157.849 76 184.009 194c25.2734 114 -3.87793 190 -98.8779 190s-157.849 -76 -183.122 -190c-26.1602 -118 2.99121 -194 97.9912 -194zM282.743 698l68.3203 24c25.0098 -18 48.9111 -41 69.9248 -68l123.302 60l18.915 -50l-109.192 -55
c61.1602 -94 94.7832 -222 66.1846 -351c-34.584 -156 -130.414 -268 -272.414 -268s-190.388 102 -156.246 256c33.2539 150 126.867 252 268.867 252c28 0 56.0049 -9 70.8965 -14c-7.34961 30 -23.2549 62 -43.6045 92l-118.858 -58l-23.3584 48l113.193 55
c-29.0195 36 -58.8115 64 -75.9297 77z" />
    <glyph glyph-name="multiply" unicode="&#xd7;" horiz-adv-x="600" 
d="M366.952 302l264.329 218l34.2451 -44l-263.886 -216l168.114 -216l-53.7549 -44l-168.114 216l-263.886 -216l-34.2451 44l263.886 216l-168.114 216l53.7549 44z" />
    <glyph glyph-name="threesuperior" unicode="&#xb3;" horiz-adv-x="366" 
d="M221.626 499l11.085 50h41c76 0 120.655 21 132.627 75c6.65039 30 -20.1416 58 -69.1416 58c-57 0 -83.5479 -16 -120.307 -51l-35.793 28c41.0898 41 92.1836 73 167.184 73c84 0 127.354 -39 112.058 -108c-11.5283 -52 -47.4014 -83 -86.0615 -95l-0.443359 -2
c54.7881 -19 64.5947 -74 55.2832 -116c-16.4053 -74 -88.7119 -125 -186.712 -125c-90 0 -133.693 51 -148.377 84l47.0938 32c25.3594 -48 63.3682 -66 112.368 -66c67 0 111.43 29 121.405 74c13.0801 59 -14.2686 89 -108.269 89h-45z" />
    <glyph glyph-name="copyright" unicode="&#xa9;" horiz-adv-x="800" 
d="M593.735 292h68c-41.5049 -97 -128.028 -158 -219.028 -158c-133 0 -195.83 100 -167.231 229c28.8203 130 131.103 226 265.103 226c94 0 159.028 -54 152.081 -153h-67c1.63672 57 -35.3828 93 -97.3828 93c-94 0 -159.519 -70 -180.579 -165
c-20.3965 -92 17.3115 -170 108.312 -170c63 0 116.646 39 137.727 98zM104.254 362c47.2207 213 255.026 370 459.027 370c202 0 340.193 -157 292.973 -370c-47.665 -215 -255.471 -372 -457.471 -372c-204 0 -342.194 157 -294.529 372zM784.254 362
c39.2393 177 -64.2754 310 -234.275 310c-171.999 0 -334.485 -133 -373.725 -310c-40.127 -181 63.8311 -312 235.831 -312c170 0 332.042 131 372.169 312z" />
    <glyph glyph-name="Aacute" unicode="&#xc1;" horiz-adv-x="611" 
d="M447.648 666l-186.47 -372h219l-21.5303 372h-11zM108 0h-84l382.063 722h119l61.9365 -722h-84l-17.8965 226h-259zM529.969 902h109l-162.48 -142h-67z" />
    <glyph glyph-name="Acircumflex" unicode="&#xc2;" horiz-adv-x="611" 
d="M447.648 666l-186.47 -372h219l-21.5303 372h-11zM108 0h-84l382.063 722h119l61.9365 -722h-84l-17.8965 226h-259zM328.488 760l129.48 142h94l68.5195 -142h-80l-46.1602 94l-85.8398 -94h-80z" />
    <glyph glyph-name="Adieresis" unicode="&#xc4;" horiz-adv-x="611" 
d="M447.648 666l-186.47 -372h219l-21.5303 372h-11zM108 0h-84l382.063 722h119l61.9365 -722h-84l-17.8965 226h-259zM599.705 770h-88l20.8398 94h88zM441.705 770h-88l20.8398 94h88z" />
    <glyph glyph-name="Agrave" unicode="&#xc0;" horiz-adv-x="611" 
d="M447.648 666l-186.47 -372h219l-21.5303 372h-11zM108 0h-84l382.063 722h119l61.9365 -722h-84l-17.8965 226h-259zM372.969 902h109l57.5195 -142h-67z" />
    <glyph glyph-name="Aring" unicode="&#xc5;" horiz-adv-x="611" 
d="M447.648 666l-186.47 -372h219l-21.5303 372h-11zM108 0h-84l382.063 722h119l61.9365 -722h-84l-17.8965 226h-259zM396.658 860c12.1934 55 67.1689 100 122.169 100s90.0234 -45 77.8311 -100c-12.1934 -55 -67.1699 -100 -122.17 -100s-90.0234 45 -77.8301 100z
M440.658 860c-6.87305 -31 12.585 -56 43.585 -56s61.542 25 68.415 56c6.87207 31 -12.585 56 -43.585 56s-61.543 -25 -68.415 -56z" />
    <glyph glyph-name="Atilde" unicode="&#xc3;" horiz-adv-x="611" 
d="M447.648 666l-186.47 -372h219l-21.5303 372h-11zM108 0h-84l382.063 722h119l61.9365 -722h-84l-17.8965 226h-259zM623.2 885h50c-15.8633 -49 -66.7217 -107 -120.722 -107c-26 0 -50.7822 10 -73.7871 19c-23.7832 10 -46.7881 19 -70.7881 19
c-21 0 -46.542 -25 -52.4199 -47h-50c19.3018 60 65.165 109 131.165 109c27 0 49.0049 -9 69.0098 -18c20.7822 -10 39.7871 -19 60.7871 -19c25 0 46.9912 18 56.7549 44z" />
    <glyph glyph-name="Ccedilla" unicode="&#xc7;" horiz-adv-x="611" 
d="M550.99 230l68.8955 -14c-61.707 -134 -156.103 -226 -304.103 -226c-162 0 -249.84 118 -193.751 371c52.0977 235 184.248 371 358.248 371c134.001 0 194.708 -78 197.444 -210l-78.877 -22c-3.3877 102 -35.6426 164 -143.643 164c-104 0 -207.282 -96 -253.173 -303
c-46.335 -209 14.8262 -303 134.826 -303c111 0 172.622 84 214.132 172zM303 0h48l-59.8584 -58l1.55664 -2c9.66504 3 21.1084 5 31.1084 5c58 0 75.9102 -41 65.3779 -84c-13.1934 -55 -64.8447 -85 -139.845 -85c-41 0 -67.7822 10 -89.3438 21l26.7549 44
c16.3389 -12 39.7871 -19 61.7871 -19c36 0 59.5469 16 65.5332 43c4.65527 21 -7.57617 38 -32.5762 38c-14 0 -31.4434 -2 -47.7734 -8l-12.7871 19z" />
    <glyph glyph-name="Eacute" unicode="&#xc9;" horiz-adv-x="611" 
d="M268.063 722h433l-15.0752 -68h-353l-53.6504 -242h251l-15.0752 -68h-251l-61.1875 -276h373l-15.0752 -68h-453zM557.969 902h109l-162.48 -142h-67z" />
    <glyph glyph-name="Ecircumflex" unicode="&#xca;" horiz-adv-x="611" 
d="M268.063 722h433l-15.0752 -68h-353l-53.6504 -242h251l-15.0752 -68h-251l-61.1875 -276h373l-15.0752 -68h-453zM356.488 760l129.48 142h94l68.5195 -142h-80l-46.1602 94l-85.8398 -94h-80z" />
    <glyph glyph-name="Edieresis" unicode="&#xcb;" horiz-adv-x="611" 
d="M268.063 722h433l-15.0752 -68h-353l-53.6504 -242h251l-15.0752 -68h-251l-61.1875 -276h373l-15.0752 -68h-453zM627.705 770h-88l20.8398 94h88zM469.705 770h-88l20.8398 94h88z" />
    <glyph glyph-name="Egrave" unicode="&#xc8;" horiz-adv-x="611" 
d="M268.063 722h433l-15.0752 -68h-353l-53.6504 -242h251l-15.0752 -68h-251l-61.1875 -276h373l-15.0752 -68h-453zM400.969 902h109l57.5195 -142h-67z" />
    <glyph glyph-name="Iacute" unicode="&#xcd;" horiz-adv-x="333" 
d="M286.063 722h80l-160.063 -722h-80zM390.969 902h109l-162.48 -142h-67z" />
    <glyph glyph-name="Icircumflex" unicode="&#xce;" horiz-adv-x="333" 
d="M286.063 722h80l-160.063 -722h-80zM189.488 760l129.48 142h94l68.5195 -142h-80l-46.1602 94l-85.8398 -94h-80z" />
    <glyph glyph-name="Idieresis" unicode="&#xcf;" horiz-adv-x="333" 
d="M286.063 722h80l-160.063 -722h-80zM460.705 770h-88l20.8398 94h88zM302.705 770h-88l20.8398 94h88z" />
    <glyph glyph-name="Igrave" unicode="&#xcc;" horiz-adv-x="333" 
d="M286.063 722h80l-160.063 -722h-80zM233.969 902h109l57.5195 -142h-67z" />
    <glyph glyph-name="Ntilde" unicode="&#xd1;" horiz-adv-x="722" 
d="M180 0h-72l160.063 722h115l191.738 -556h4l123.262 556h72l-160.063 -722h-66l-223.229 644h-2zM678.2 885h50c-15.8633 -49 -66.7217 -107 -120.722 -107c-26 0 -50.7822 10 -73.7871 19c-23.7832 10 -46.7881 19 -70.7881 19c-21 0 -46.542 -25 -52.4199 -47h-50
c19.3018 60 65.165 109 131.165 109c27 0 49.0049 -9 69.0098 -18c20.7822 -10 39.7871 -19 60.7871 -19c25 0 46.9912 18 56.7549 44z" />
    <glyph glyph-name="Oacute" unicode="&#xd3;" horiz-adv-x="667" 
d="M211.032 361c-45.4482 -205 7.82617 -303 134.826 -303s223.726 98 269.174 303c45.4473 205 -7.82715 303 -134.827 303s-223.726 -98 -269.173 -303zM131.032 361c53.4277 241 187.248 371 364.248 371c177.001 0 253.18 -130 199.752 -371
c-53.4287 -241 -187.249 -371 -364.249 -371s-253.18 130 -199.751 371zM557.969 902h109l-162.48 -142h-67z" />
    <glyph glyph-name="Ocircumflex" unicode="&#xd4;" horiz-adv-x="667" 
d="M211.032 361c-45.4482 -205 7.82617 -303 134.826 -303s223.726 98 269.174 303c45.4473 205 -7.82715 303 -134.827 303s-223.726 -98 -269.173 -303zM131.032 361c53.4277 241 187.248 371 364.248 371c177.001 0 253.18 -130 199.752 -371
c-53.4287 -241 -187.249 -371 -364.249 -371s-253.18 130 -199.751 371zM356.488 760l129.48 142h94l68.5195 -142h-80l-46.1602 94l-85.8398 -94h-80z" />
    <glyph glyph-name="Odieresis" unicode="&#xd6;" horiz-adv-x="667" 
d="M211.032 361c-45.4482 -205 7.82617 -303 134.826 -303s223.726 98 269.174 303c45.4473 205 -7.82715 303 -134.827 303s-223.726 -98 -269.173 -303zM131.032 361c53.4277 241 187.248 371 364.248 371c177.001 0 253.18 -130 199.752 -371
c-53.4287 -241 -187.249 -371 -364.249 -371s-253.18 130 -199.751 371zM627.705 770h-88l20.8398 94h88zM469.705 770h-88l20.8398 94h88z" />
    <glyph glyph-name="Ograve" unicode="&#xd2;" horiz-adv-x="667" 
d="M211.032 361c-45.4482 -205 7.82617 -303 134.826 -303s223.726 98 269.174 303c45.4473 205 -7.82715 303 -134.827 303s-223.726 -98 -269.173 -303zM131.032 361c53.4277 241 187.248 371 364.248 371c177.001 0 253.18 -130 199.752 -371
c-53.4287 -241 -187.249 -371 -364.249 -371s-253.18 130 -199.751 371zM400.969 902h109l57.5195 -142h-67z" />
    <glyph glyph-name="Otilde" unicode="&#xd5;" horiz-adv-x="667" 
d="M211.032 361c-45.4482 -205 7.82617 -303 134.826 -303s223.726 98 269.174 303c45.4473 205 -7.82715 303 -134.827 303s-223.726 -98 -269.173 -303zM131.032 361c53.4277 241 187.248 371 364.248 371c177.001 0 253.18 -130 199.752 -371
c-53.4287 -241 -187.249 -371 -364.249 -371s-253.18 130 -199.751 371zM651.2 885h50c-15.8633 -49 -66.7217 -107 -120.722 -107c-26 0 -50.7822 10 -73.7871 19c-23.7832 10 -46.7881 19 -70.7881 19c-21 0 -46.542 -25 -52.4199 -47h-50
c19.3018 60 65.165 109 131.165 109c27 0 49.0049 -9 69.0098 -18c20.7822 -10 39.7871 -19 60.7871 -19c25 0 46.9912 18 56.7549 44z" />
    <glyph glyph-name="Scaron" unicode="&#x160;" horiz-adv-x="611" 
d="M642.819 554l-75.5479 -16c-2.48047 70 -47.0664 126 -140.066 126c-84 0 -142.867 -40 -159.829 -112c-37.0283 -158 379.84 -118 328.406 -350c-23.2783 -105 -105.999 -212 -289.999 -212c-158 0 -197.388 102 -216.321 188l78.7637 26
c12.1514 -76 50.6328 -146 156.633 -146s171.415 56 187.82 130c40.792 184 -377.18 130 -326.633 358c23.0557 104 128.234 186 258.234 186c112.001 0 186.921 -59 198.539 -178zM359.969 902h80l44.1611 -94l87.8389 94h80l-131.48 -142h-94z" />
    <glyph glyph-name="Uacute" unicode="&#xda;" horiz-adv-x="722" 
d="M268.063 722h80l-113.064 -510c-18.6221 -84 25.8594 -154 138.859 -154s188.519 70 207.141 154l113.064 510h80l-111.734 -504c-31.9238 -144 -154.546 -228 -303.546 -228s-234.378 84 -202.454 228zM584.969 902h109l-162.48 -142h-67z" />
    <glyph glyph-name="Ucircumflex" unicode="&#xdb;" horiz-adv-x="722" 
d="M268.063 722h80l-113.064 -510c-18.6221 -84 25.8594 -154 138.859 -154s188.519 70 207.141 154l113.064 510h80l-111.734 -504c-31.9238 -144 -154.546 -228 -303.546 -228s-234.378 84 -202.454 228zM383.488 760l129.48 142h94l68.5195 -142h-80l-46.1602 94
l-85.8398 -94h-80z" />
    <glyph glyph-name="Udieresis" unicode="&#xdc;" horiz-adv-x="722" 
d="M268.063 722h80l-113.064 -510c-18.6221 -84 25.8594 -154 138.859 -154s188.519 70 207.141 154l113.064 510h80l-111.734 -504c-31.9238 -144 -154.546 -228 -303.546 -228s-234.378 84 -202.454 228zM654.705 770h-88l20.8398 94h88zM496.705 770h-88l20.8398 94h88z
" />
    <glyph glyph-name="Ugrave" unicode="&#xd9;" horiz-adv-x="722" 
d="M268.063 722h80l-113.064 -510c-18.6221 -84 25.8594 -154 138.859 -154s188.519 70 207.141 154l113.064 510h80l-111.734 -504c-31.9238 -144 -154.546 -228 -303.546 -228s-234.378 84 -202.454 228zM427.969 902h109l57.5195 -142h-67z" />
    <glyph glyph-name="Yacute" unicode="&#xdd;" horiz-adv-x="556" 
d="M238 0l67.3955 304l-129.332 418h88l100.619 -331l247.381 331h88l-314.668 -418l-67.3955 -304h-80zM501.969 902h109l-162.48 -142h-67z" />
    <glyph glyph-name="Ydieresis" unicode="&#x178;" horiz-adv-x="556" 
d="M238 0l67.3955 304l-129.332 418h88l100.619 -331l247.381 331h88l-314.668 -418l-67.3955 -304h-80zM571.705 770h-88l20.8398 94h88zM413.705 770h-88l20.8398 94h88z" />
    <glyph glyph-name="Zcaron" unicode="&#x17d;" horiz-adv-x="556" 
d="M526.075 68l-15.0752 -68h-466l12.8584 58l494.13 596h-329l15.0752 68h429l-11.5283 -52l-501.46 -602h372zM331.969 902h80l44.1611 -94l87.8389 94h80l-131.48 -142h-94z" />
    <glyph glyph-name="aacute" unicode="&#xe1;" 
d="M205.796 387l-55.6836 33c46.3018 60 121.386 110 219.386 110c88 0 170.689 -42 145.416 -156l-58.084 -262c-12.6367 -57 -13.8447 -85 -12.8301 -112h-74l7.96191 72c-44.8682 -40 -112.179 -82 -190.179 -82c-80 0 -137.358 48 -116.298 143
c25.2734 114 124.91 171 364.999 212l6.20801 28c15.2969 69 -23.9395 95 -85.9395 95c-80 0 -129.197 -46 -150.957 -81zM390.594 138l31.7021 143c-171.429 -29 -263.07 -77 -279.032 -149c-10.6416 -48 28.2646 -80 68.2646 -80c52 0 126.424 38 179.065 86zM429.063 722
h109l-162.48 -142h-67z" />
    <glyph glyph-name="acircumflex" unicode="&#xe2;" 
d="M205.796 387l-55.6836 33c46.3018 60 121.386 110 219.386 110c88 0 170.689 -42 145.416 -156l-58.084 -262c-12.6367 -57 -13.8447 -85 -12.8301 -112h-74l7.96191 72c-44.8682 -40 -112.179 -82 -190.179 -82c-80 0 -137.358 48 -116.298 143
c25.2734 114 124.91 171 364.999 212l6.20801 28c15.2969 69 -23.9395 95 -85.9395 95c-80 0 -129.197 -46 -150.957 -81zM390.594 138l31.7021 143c-171.429 -29 -263.07 -77 -279.032 -149c-10.6416 -48 28.2646 -80 68.2646 -80c52 0 126.424 38 179.065 86zM227.583 580
l129.48 142h94l68.5195 -142h-80l-46.1602 94l-85.8398 -94h-80z" />
    <glyph glyph-name="adieresis" unicode="&#xe4;" 
d="M205.796 387l-55.6836 33c46.3018 60 121.386 110 219.386 110c88 0 170.689 -42 145.416 -156l-58.084 -262c-12.6367 -57 -13.8447 -85 -12.8301 -112h-74l7.96191 72c-44.8682 -40 -112.179 -82 -190.179 -82c-80 0 -137.358 48 -116.298 143
c25.2734 114 124.91 171 364.999 212l6.20801 28c15.2969 69 -23.9395 95 -85.9395 95c-80 0 -129.197 -46 -150.957 -81zM390.594 138l31.7021 143c-171.429 -29 -263.07 -77 -279.032 -149c-10.6416 -48 28.2646 -80 68.2646 -80c52 0 126.424 38 179.065 86zM498.8 590
h-88l20.8398 94h88zM340.8 590h-88l20.8398 94h88z" />
    <glyph glyph-name="agrave" unicode="&#xe0;" 
d="M205.796 387l-55.6836 33c46.3018 60 121.386 110 219.386 110c88 0 170.689 -42 145.416 -156l-58.084 -262c-12.6367 -57 -13.8447 -85 -12.8301 -112h-74l7.96191 72c-44.8682 -40 -112.179 -82 -190.179 -82c-80 0 -137.358 48 -116.298 143
c25.2734 114 124.91 171 364.999 212l6.20801 28c15.2969 69 -23.9395 95 -85.9395 95c-80 0 -129.197 -46 -150.957 -81zM390.594 138l31.7021 143c-171.429 -29 -263.07 -77 -279.032 -149c-10.6416 -48 28.2646 -80 68.2646 -80c52 0 126.424 38 179.065 86zM272.063 722
h109l57.5195 -142h-67z" />
    <glyph glyph-name="aring" unicode="&#xe5;" 
d="M205.796 387l-55.6836 33c46.3018 60 121.386 110 219.386 110c88 0 170.689 -42 145.416 -156l-58.084 -262c-12.6367 -57 -13.8447 -85 -12.8301 -112h-74l7.96191 72c-44.8682 -40 -112.179 -82 -190.179 -82c-80 0 -137.358 48 -116.298 143
c25.2734 114 124.91 171 364.999 212l6.20801 28c15.2969 69 -23.9395 95 -85.9395 95c-80 0 -129.197 -46 -150.957 -81zM390.594 138l31.7021 143c-171.429 -29 -263.07 -77 -279.032 -149c-10.6416 -48 28.2646 -80 68.2646 -80c52 0 126.424 38 179.065 86zM295.753 680
c12.1934 55 67.1689 100 122.169 100s90.0234 -45 77.8311 -100c-12.1934 -55 -67.1699 -100 -122.17 -100s-90.0234 45 -77.8301 100zM339.753 680c-6.87305 -31 12.585 -56 43.585 -56s61.542 25 68.415 56c6.87207 31 -12.585 56 -43.585 56s-61.543 -25 -68.415 -56z
" />
    <glyph glyph-name="atilde" unicode="&#xe3;" 
d="M205.796 387l-55.6836 33c46.3018 60 121.386 110 219.386 110c88 0 170.689 -42 145.416 -156l-58.084 -262c-12.6367 -57 -13.8447 -85 -12.8301 -112h-74l7.96191 72c-44.8682 -40 -112.179 -82 -190.179 -82c-80 0 -137.358 48 -116.298 143
c25.2734 114 124.91 171 364.999 212l6.20801 28c15.2969 69 -23.9395 95 -85.9395 95c-80 0 -129.197 -46 -150.957 -81zM390.594 138l31.7021 143c-171.429 -29 -263.07 -77 -279.032 -149c-10.6416 -48 28.2646 -80 68.2646 -80c52 0 126.424 38 179.065 86zM522.295 705
h50c-15.8633 -49 -66.7217 -107 -120.722 -107c-26 0 -50.7822 10 -73.7871 19c-23.7832 10 -46.7881 19 -70.7881 19c-21 0 -46.542 -25 -52.4199 -47h-50c19.3018 60 65.165 109 131.165 109c27 0 49.0049 -9 69.0098 -18c20.7822 -10 39.7871 -19 60.7871 -19
c25 0 46.9912 18 56.7549 44z" />
    <glyph glyph-name="ccedilla" unicode="&#xe7;" 
d="M529.239 389l-72.3203 -24c-6.0332 63 -38.166 103 -100.166 103c-89 0 -157.849 -76 -187.112 -208s5.8877 -208 94.8877 -208c66 0 107.877 22 164.282 96l52.2363 -26c-71.5088 -88 -127.264 -132 -230.264 -132c-130 0 -190.388 102 -153.143 270
s142.857 270 272.857 270c107 0 143.698 -60 158.741 -141zM238 0h48l-59.8584 -58l1.55664 -2c9.66504 3 21.1084 5 31.1084 5c58 0 75.9102 -41 65.3779 -84c-13.1934 -55 -64.8447 -85 -139.845 -85c-41 0 -67.7822 10 -89.3438 21l26.7549 44
c16.3389 -12 39.7871 -19 61.7871 -19c36 0 59.5469 16 65.5332 43c4.65527 21 -7.57617 38 -32.5762 38c-14 0 -31.4434 -2 -47.7734 -8l-12.7871 19z" />
    <glyph glyph-name="eacute" unicode="&#xe9;" 
d="M441.037 140l49.5713 -29c-47.0801 -59 -108.825 -121 -226.825 -121c-116 0 -208.265 80 -166.143 270c37.2451 168 143.857 270 271.857 270c108 0 182.481 -70 145.681 -236l-10.6416 -48h-338c-25.2734 -114 24.9912 -194 110.991 -194c64 0 121.537 34 163.509 88z
M182.282 308h264c21.2822 96 -10.5293 160 -88.5293 160c-87 0 -148.188 -64 -175.471 -160zM434.063 722h109l-162.48 -142h-67z" />
    <glyph glyph-name="ecircumflex" unicode="&#xea;" 
d="M441.037 140l49.5713 -29c-47.0801 -59 -108.825 -121 -226.825 -121c-116 0 -208.265 80 -166.143 270c37.2451 168 143.857 270 271.857 270c108 0 182.481 -70 145.681 -236l-10.6416 -48h-338c-25.2734 -114 24.9912 -194 110.991 -194c64 0 121.537 34 163.509 88z
M182.282 308h264c21.2822 96 -10.5293 160 -88.5293 160c-87 0 -148.188 -64 -175.471 -160zM232.583 580l129.48 142h94l68.5195 -142h-80l-46.1602 94l-85.8398 -94h-80z" />
    <glyph glyph-name="edieresis" unicode="&#xeb;" 
d="M441.037 140l49.5713 -29c-47.0801 -59 -108.825 -121 -226.825 -121c-116 0 -208.265 80 -166.143 270c37.2451 168 143.857 270 271.857 270c108 0 182.481 -70 145.681 -236l-10.6416 -48h-338c-25.2734 -114 24.9912 -194 110.991 -194c64 0 121.537 34 163.509 88z
M182.282 308h264c21.2822 96 -10.5293 160 -88.5293 160c-87 0 -148.188 -64 -175.471 -160zM503.8 590h-88l20.8398 94h88zM345.8 590h-88l20.8398 94h88z" />
    <glyph glyph-name="egrave" unicode="&#xe8;" 
d="M441.037 140l49.5713 -29c-47.0801 -59 -108.825 -121 -226.825 -121c-116 0 -208.265 80 -166.143 270c37.2451 168 143.857 270 271.857 270c108 0 182.481 -70 145.681 -236l-10.6416 -48h-338c-25.2734 -114 24.9912 -194 110.991 -194c64 0 121.537 34 163.509 88z
M182.282 308h264c21.2822 96 -10.5293 160 -88.5293 160c-87 0 -148.188 -64 -175.471 -160zM277.063 722h109l57.5195 -142h-67z" />
    <glyph glyph-name="iacute" unicode="&#xed;" horiz-adv-x="278" 
d="M103 0l115.281 520h72l-115.281 -520h-72zM323.063 722h109l-162.48 -142h-67z" />
    <glyph glyph-name="icircumflex" unicode="&#xee;" horiz-adv-x="278" 
d="M103 0l115.281 520h72l-115.281 -520h-72zM121.583 580l129.48 142h94l68.5195 -142h-80l-46.1602 94l-85.8398 -94h-80z" />
    <glyph glyph-name="idieresis" unicode="&#xef;" horiz-adv-x="278" 
d="M103 0l115.281 520h72l-115.281 -520h-72zM392.8 590h-88l20.8398 94h88zM234.8 590h-88l20.8398 94h88z" />
    <glyph glyph-name="igrave" unicode="&#xec;" horiz-adv-x="278" 
d="M103 0l115.281 520h72l-115.281 -520h-72zM166.063 722h109l57.5195 -142h-67z" />
    <glyph glyph-name="ntilde" unicode="&#xf1;" horiz-adv-x="556" 
d="M204.281 520h72l-15.5186 -70h2c51.1982 46 112.735 80 171.735 80c77 0 141.133 -40 116.303 -152l-83.8008 -378h-72l83.3574 376c15.2969 69 -12.6045 92 -64.6045 92c-54 0 -125.754 -44 -166.514 -79l-86.2393 -389h-72zM555.295 705h50
c-15.8633 -49 -66.7217 -107 -120.722 -107c-26 0 -50.7822 10 -73.7871 19c-23.7832 10 -46.7881 19 -70.7881 19c-21 0 -46.542 -25 -52.4199 -47h-50c19.3018 60 65.165 109 131.165 109c27 0 49.0049 -9 69.0098 -18c20.7822 -10 39.7871 -19 60.7871 -19
c25 0 46.9912 18 56.7549 44z" />
    <glyph glyph-name="oacute" unicode="&#xf3;" 
d="M448.641 260c29.707 134 -8.8877 208 -94.8877 208s-157.405 -74 -187.112 -208s8.8877 -208 94.8877 -208s157.405 74 187.112 208zM520.641 260c-33.2539 -150 -130.857 -270 -272.857 -270s-186.396 120 -153.143 270s130.857 270 272.857 270
s186.396 -120 153.143 -270zM434.063 722h109l-162.48 -142h-67z" />
    <glyph glyph-name="ocircumflex" unicode="&#xf4;" 
d="M448.641 260c29.707 134 -8.8877 208 -94.8877 208s-157.405 -74 -187.112 -208s8.8877 -208 94.8877 -208s157.405 74 187.112 208zM520.641 260c-33.2539 -150 -130.857 -270 -272.857 -270s-186.396 120 -153.143 270s130.857 270 272.857 270
s186.396 -120 153.143 -270zM232.583 580l129.48 142h94l68.5195 -142h-80l-46.1602 94l-85.8398 -94h-80z" />
    <glyph glyph-name="odieresis" unicode="&#xf6;" 
d="M448.641 260c29.707 134 -8.8877 208 -94.8877 208s-157.405 -74 -187.112 -208s8.8877 -208 94.8877 -208s157.405 74 187.112 208zM520.641 260c-33.2539 -150 -130.857 -270 -272.857 -270s-186.396 120 -153.143 270s130.857 270 272.857 270
s186.396 -120 153.143 -270zM503.8 590h-88l20.8398 94h88zM345.8 590h-88l20.8398 94h88z" />
    <glyph glyph-name="ograve" unicode="&#xf2;" 
d="M448.641 260c29.707 134 -8.8877 208 -94.8877 208s-157.405 -74 -187.112 -208s8.8877 -208 94.8877 -208s157.405 74 187.112 208zM520.641 260c-33.2539 -150 -130.857 -270 -272.857 -270s-186.396 120 -153.143 270s130.857 270 272.857 270
s186.396 -120 153.143 -270zM277.063 722h109l57.5195 -142h-67z" />
    <glyph glyph-name="otilde" unicode="&#xf5;" 
d="M448.641 260c29.707 134 -8.8877 208 -94.8877 208s-157.405 -74 -187.112 -208s8.8877 -208 94.8877 -208s157.405 74 187.112 208zM520.641 260c-33.2539 -150 -130.857 -270 -272.857 -270s-186.396 120 -153.143 270s130.857 270 272.857 270
s186.396 -120 153.143 -270zM527.295 705h50c-15.8633 -49 -66.7217 -107 -120.722 -107c-26 0 -50.7822 10 -73.7871 19c-23.7832 10 -46.7881 19 -70.7881 19c-21 0 -46.542 -25 -52.4199 -47h-50c19.3018 60 65.165 109 131.165 109c27 0 49.0049 -9 69.0098 -18
c20.7822 -10 39.7871 -19 60.7871 -19c25 0 46.9912 18 56.7549 44z" />
    <glyph glyph-name="scaron" unicode="&#x161;" horiz-adv-x="444" 
d="M43.7305 89l66.5332 43c23.1367 -49 66.2646 -80 131.265 -80c78 0 121.311 42 131.065 86c29.2637 132 -294.255 62 -246.133 252c22.9531 90 103.259 141 203.037 140c67.7783 -1 134.576 -38 157.826 -91l-59.7549 -44c-29.1367 49 -61.8164 73 -117.816 73
c-61 0 -100.872 -31 -111.07 -77c-25.0518 -113 289.807 -55 246.798 -249c-22.3906 -101 -121.697 -152 -215.697 -152c-81 0 -152.241 35 -186.053 99zM236.063 722h80l44.1611 -94l87.8389 94h80l-131.48 -142h-94z" />
    <glyph glyph-name="uacute" unicode="&#xfa;" horiz-adv-x="556" 
d="M467 0h-72l15.5186 70h-2c-51.1982 -46 -112.735 -80 -171.735 -80c-77 0 -141.133 40 -116.303 152l83.8008 378h72l-83.3574 -376c-15.2969 -69 12.6045 -92 64.6045 -92c54 0 125.755 44 166.514 79l86.2393 389h72zM462.063 722h109l-162.48 -142h-67z" />
    <glyph glyph-name="ucircumflex" unicode="&#xfb;" horiz-adv-x="556" 
d="M467 0h-72l15.5186 70h-2c-51.1982 -46 -112.735 -80 -171.735 -80c-77 0 -141.133 40 -116.303 152l83.8008 378h72l-83.3574 -376c-15.2969 -69 12.6045 -92 64.6045 -92c54 0 125.755 44 166.514 79l86.2393 389h72zM260.583 580l129.48 142h94l68.5195 -142h-80
l-46.1602 94l-85.8398 -94h-80z" />
    <glyph glyph-name="udieresis" unicode="&#xfc;" horiz-adv-x="556" 
d="M467 0h-72l15.5186 70h-2c-51.1982 -46 -112.735 -80 -171.735 -80c-77 0 -141.133 40 -116.303 152l83.8008 378h72l-83.3574 -376c-15.2969 -69 12.6045 -92 64.6045 -92c54 0 125.755 44 166.514 79l86.2393 389h72zM531.8 590h-88l20.8398 94h88zM373.8 590h-88
l20.8398 94h88z" />
    <glyph glyph-name="ugrave" unicode="&#xf9;" horiz-adv-x="556" 
d="M467 0h-72l15.5186 70h-2c-51.1982 -46 -112.735 -80 -171.735 -80c-77 0 -141.133 40 -116.303 152l83.8008 378h72l-83.3574 -376c-15.2969 -69 12.6045 -92 64.6045 -92c54 0 125.755 44 166.514 79l86.2393 389h72zM305.063 722h109l57.5195 -142h-67z" />
    <glyph glyph-name="yacute" unicode="&#xfd;" horiz-adv-x="444" 
d="M467.281 520h76l-308.479 -566c-63.7168 -116 -139.367 -146 -207.367 -146c-24 0 -37.1133 4 -50.6699 6l13.0801 59c9.77832 -1 22.335 -3 38.335 -3c44 0 113.217 10 163.49 124l-64.3887 526h76l51.9873 -397h2zM406.063 722h109l-162.48 -142h-67z" />
    <glyph glyph-name="ydieresis" unicode="&#xff;" horiz-adv-x="444" 
d="M467.281 520h76l-308.479 -566c-63.7168 -116 -139.367 -146 -207.367 -146c-24 0 -37.1133 4 -50.6699 6l13.0801 59c9.77832 -1 22.335 -3 38.335 -3c44 0 113.217 10 163.49 124l-64.3887 526h76l51.9873 -397h2zM475.8 590h-88l20.8398 94h88zM317.8 590h-88
l20.8398 94h88z" />
    <glyph glyph-name="zcaron" unicode="&#x17e;" horiz-adv-x="444" 
d="M427.745 62l-13.7451 -62h-384l11.5283 52l374.008 406h-256l13.7451 62h354l-11.5283 -52l-374.008 -406h286zM236.063 722h80l44.1611 -94l87.8389 94h80l-131.48 -142h-94z" />
    </font>
</defs>
</svg>
