<?xml version="1.0" standalone="no"?>
<!DOCTYPE svg PUBLIC "-//W3C//DTD SVG 1.1//EN" "http://www.w3.org/Graphics/SVG/1.1/DTD/svg11.dtd" >
<svg xmlns="http://www.w3.org/2000/svg" width="100%" height="100%">
<metadata>
Created by FontXChange 20110222 at Tue Nov  8 16:28:14 2011
 By Dan Rempel
 The digitally encoded machine readable software for producing the
 Typefaces licensed to you is copyrighted (c) 1989, 1990 Adobe Systems.
 All rights reserved. This software is the property of Adobe Systems
 Incorporated and its licensors, and may not be reproduced, used,
 displayed, modified, disclosed, or transferred  without the express
 written approval of Adobe.

 The digitally encoded machine readable outline data for producing
 the Typefaces licensed to you is copyrighted (c) 1981 Linotype AG
 and/or its subsidiaries. All Rights Reserved.
 This data is the property of Linotype AG and/or its subsidiaries
 and may not be reproduced, used, displayed, modified, disclosed or
 transferred without the express written approval of Linotype AG
 and/or its subsidiaries. 
</metadata>
<defs>
<font id="TradeGothic-BoldOblique" horiz-adv-x="500" >
  <font-face 
    font-family="TradeGothic"
    font-weight="700"
    font-style="oblique"
    font-stretch="normal"
    units-per-em="1000"
    panose-1="2 0 8 3 0 0 0 0 0 0"
    ascent="800"
    descent="-200"
    x-height="544"
    cap-height="722"
    bbox="-169.217 -228 1092.06 971"
    underline-thickness="50"
    underline-position="-100"
    stemv=" 126 "
    unicode-range="U+0020-FB02"
  />
    <missing-glyph />
    <glyph glyph-name="space" unicode=" " horiz-adv-x="278" 
 />
    <glyph glyph-name="exclam" unicode="!" horiz-adv-x="278" 
d="M372.063 722l-133.97 -478h-90l77.9697 478h146zM210 0h-142l31.4805 142h142z" />
    <glyph glyph-name="quotedbl" unicode="&#x22;" horiz-adv-x="333" 
d="M299.206 452l59.8574 270h110l-59.8574 -270h-110zM124.206 452l59.8574 270h110l-59.8574 -270h-110z" />
    <glyph glyph-name="numbersign" unicode="#" horiz-adv-x="556" 
d="M572.509 300l-20.8398 -94h-99l-74.6689 -206h-96l73.6689 206h-99l-74.6689 -206h-96l73.6689 206h-94l20.8398 94h107l45.0469 122h-94l20.8389 94h106l74.6689 206h96l-73.6689 -206h99l74.6689 206h96l-73.6689 -206h86l-20.8389 -94h-98l-45.0469 -122h86z
M434.556 422h-99l-45.0469 -122h99z" />
    <glyph glyph-name="dollar" unicode="$" horiz-adv-x="556" 
d="M47.1553 127l103.292 78c21.4678 -43 57.5996 -83 106.383 -93l45.6689 206c-97.3496 30 -178.273 98 -153.223 211c26.1602 118 131.679 188 242.787 193l14.1885 64h78l-14.1885 -64c80.8965 -14 131.807 -55 166.501 -106l-94.627 -75
c-21.2412 35 -50.3691 66 -96.2598 71l-40.792 -184c103.132 -40 191.382 -93 161.453 -228c-26.8252 -121 -138.674 -197 -256.339 -200l-25.2734 -114h-78l25.4951 115c-69 0 -150.698 60 -185.066 126zM331.763 450l37.2451 168c-46.2217 -1 -92.4297 -29 -103.515 -79
c-9.75391 -44 25.1514 -76 66.2695 -89zM375.4 295l-41.0137 -185c52 0 97.7588 35 109.065 86c13.0801 59 -25.708 78 -68.0518 99z" />
    <glyph glyph-name="percent" unicode="%" horiz-adv-x="889" 
d="M374.063 722c101 0 161.821 -82 140.095 -180c-21.7256 -98 -118.904 -180 -219.904 -180s-161.821 82 -140.096 180c21.7266 98 118.905 180 219.905 180zM352.338 624c-45 0 -90.6465 -39 -100.18 -82c-9.53223 -43 18.8213 -82 63.8213 -82s90.6465 39 100.179 82
c9.5332 43 -18.8203 82 -63.8203 82zM754.811 360c101 0 161.82 -82 140.095 -180c-21.7266 -98 -118.905 -180 -219.905 -180s-161.821 82 -140.095 180c21.7256 98 118.905 180 219.905 180zM733.084 262c-45 0 -90.6465 -39 -100.179 -82
c-9.5332 -43 18.8213 -82 63.8213 -82s90.6455 39 100.179 82c9.53223 43 -18.8213 82 -63.8213 82zM194.783 -10l579.498 742h85l-579.498 -742h-85z" />
    <glyph glyph-name="ampersand" unicode="&#x26;" horiz-adv-x="667" 
d="M417.658 648c-40 0 -70.5371 -34 -80.292 -78c-9.31152 -42 0.594727 -74 15.7266 -114c45.5381 34 100.854 67 113.712 125c6.87305 31 -7.14648 67 -49.1465 67zM587.476 363l104.127 -31c-36.3018 -60 -75.8252 -121 -125.905 -180
c24.5664 -20 55.0195 -36 91.1328 -40l-27.0469 -122c-69 0 -110.453 16 -165.595 74c-57.1982 -46 -126.405 -74 -197.405 -74c-139 0 -219.925 68 -190.661 200c22.1699 100 83.9189 153 166.339 200c-25.3633 57 -36.3867 102 -23.085 162
c27.4902 124 126.904 180 224.904 180c98.001 0 154.038 -72 133.864 -163c-20.6182 -93 -104.589 -147 -183.339 -200c27.25 -53 59.3867 -102 96.4102 -147c36.4199 47 71.1748 91 96.2598 141zM218.112 208c-15.5186 -70 26.9443 -104 79.9443 -104
c37 0 76.7686 17 101.867 40c-44.3584 48 -79.8301 100 -109.858 154c-36.3213 -24 -62.6416 -48 -71.9531 -90z" />
    <glyph glyph-name="quoteright" unicode="&#x2019;" horiz-adv-x="222" 
d="M144.772 432l83.8105 148h-60l31.4805 142h142l-31.4805 -142l-95.8105 -148h-70z" />
    <glyph glyph-name="parenleft" unicode="(" horiz-adv-x="333" 
d="M285.378 -84h-118c-55.7275 114 -79.4678 255 -45.5488 408s120.179 294 226.451 408h118c-100.942 -108 -195.654 -233 -234.451 -408s0.491211 -300 53.5488 -408z" />
    <glyph glyph-name="parenright" unicode=")" horiz-adv-x="333" 
d="M128.378 -84h-118c100.942 108 195.654 233 234.451 408s-0.491211 300 -53.5488 408h118c55.7275 -114 79.4678 -255 45.5488 -408s-120.179 -294 -226.451 -408z" />
    <glyph glyph-name="asterisk" unicode="*" 
d="M360.063 722h100l-61.1455 -145l2.8916 -5l148.075 68l6.26953 -89l-149.991 -18l-3.33008 -6l82.9443 -104l-87.6367 -57l-34.293 134h-6l-93.707 -134l-62.3633 57l129.056 104l-0.669922 6l-142.009 18l45.7305 89l117.925 -68l5.1084 5z" />
    <glyph glyph-name="plus" unicode="+" horiz-adv-x="600" 
d="M312.824 333l46.7783 211h122l-46.7783 -211h211l-27.0469 -122h-211l-46.7773 -211h-122l46.7773 211h-211l27.0469 122h211z" />
    <glyph glyph-name="comma" unicode="," horiz-adv-x="278" 
d="M44.1895 -148l83.8105 148h-60l31.4805 142h142l-31.4805 -142l-95.8105 -148h-70z" />
    <glyph glyph-name="hyphen" unicode="-" horiz-adv-x="333" 
d="M337.107 217h-246l24.3867 110h246z" />
    <glyph glyph-name="period" unicode="." horiz-adv-x="278" 
d="M210 0h-142l31.4805 142h142z" />
    <glyph glyph-name="slash" unicode="/" horiz-adv-x="278" 
d="M498.28 732l-436.497 -742h-122l436.497 742h122z" />
    <glyph glyph-name="zero" unicode="0" horiz-adv-x="556" 
d="M89.207 240l53.6504 242c34.1406 154 141.423 250 297.423 250c156.001 0 220.718 -96 186.577 -250l-53.6504 -242c-34.1416 -154 -141.424 -250 -297.424 -250s-220.718 96 -186.576 250zM271.531 467l-46.999 -212c-25.9385 -117 2.52441 -151 76.5244 -151
s117.537 34 143.476 151l46.999 212c25.9385 117 -2.52344 151 -76.5234 151s-117.538 -34 -143.477 -151z" />
    <glyph glyph-name="one" unicode="1" horiz-adv-x="556" 
d="M235 0l122.376 552h-111l17.5137 79c110.655 21 136.637 57 180.391 101h79.001l-162.281 -732h-126z" />
    <glyph glyph-name="two" unicode="2" horiz-adv-x="556" 
d="M495 0h-455l25.9385 117c348.744 274 406.272 326 423.121 402c12.8584 58 -10.0518 99 -74.0518 99c-67 0 -112.09 -41 -124.062 -95l-5.76367 -26h-132l7.53711 34c23.5 106 129.561 201 269.561 201c141.001 0 222.038 -72 191.444 -210
c-37.0225 -167 -260.621 -296 -389.451 -408h288z" />
    <glyph glyph-name="three" unicode="3" horiz-adv-x="556" 
d="M80.999 212h132c-16.4053 -74 9.05762 -108 83.0576 -108c68 0 114.976 45 128.721 107c17.958 81 -21.1699 112 -120.948 113l25.2734 114c93 0 134.764 26 149.617 93c11.085 50 -13.7119 87 -73.7119 87c-49 0 -92.7598 -35 -105.623 -84h-132
c30.4854 133 142.896 198 263.896 198c130.001 0 208.925 -68 180.548 -196c-13.9668 -63 -58.377 -128 -121.806 -157c70.3486 -30 83.3818 -93 65.4248 -174c-31.7021 -143 -152.664 -215 -282.664 -215c-162 0 -221.935 86 -191.784 222z" />
    <glyph glyph-name="four" unicode="4" horiz-adv-x="556" 
d="M174.735 292h207l62.5176 282h-2zM67.8389 306l398.225 416h137l-95.3281 -430h101l-22.6133 -102h-101l-42.1221 -190h-126l42.1221 190h-317z" />
    <glyph glyph-name="five" unicode="5" horiz-adv-x="556" 
d="M80.8906 207h132c-17.8535 -67 15.166 -103 80.166 -103c86 0 124.414 56 146.806 157c19.7314 89 0.81543 139 -74.1846 139c-45 0 -85.877 -22 -118.415 -56h-109l83.8008 378h417l-25.2725 -114h-303l-33.2549 -150c43.9863 27 87.7549 44 140.755 44
c154 0 185.717 -96 152.906 -244c-37.0234 -167 -128.414 -268 -301.414 -268c-180 0 -213.057 108 -188.893 217z" />
    <glyph glyph-name="six" unicode="6" horiz-adv-x="556" 
d="M233.4 295l-8.86816 -40c-25.9385 -117 2.52441 -151 76.5244 -151c69 0 115.084 50 133.485 133c17.7354 80 -17.0615 117 -78.0615 117c-42 0 -82.208 -28 -123.08 -59zM619.163 533h-132c8.86328 49 -23.1553 85 -72.1553 85c-74 0 -117.538 -34 -143.477 -151
l-14.8535 -67c52.5381 34 110.415 56 167.415 56c126 0 169.274 -98 143.558 -214c-32.8105 -148 -127.867 -252 -291.867 -252c-156 0 -220.718 96 -186.576 250l53.6504 242c34.1406 154 141.423 250 297.423 250c125.001 0 197.703 -69 178.883 -199z" />
    <glyph glyph-name="seven" unicode="7" horiz-adv-x="556" 
d="M164.791 608l25.2725 114h456l-14.6318 -66l-340.432 -656h-144l334.791 608h-317z" />
    <glyph glyph-name="eight" unicode="8" horiz-adv-x="556" 
d="M434.334 209c14.8535 67 -18.3916 111 -85.3916 111s-119.755 -44 -134.608 -111c-13.7451 -62 5.72266 -105 86.7227 -105s119.532 43 133.277 105zM486.39 525c11.3066 51 -17.3818 93 -71.3818 93s-101.312 -42 -112.618 -93s20.8262 -91 71.8262 -91
s100.867 40 112.174 91zM565.447 205c-31.7021 -143 -152.664 -215 -289.664 -215s-226.038 72 -194.336 215c17.957 81 59.9238 144 143.575 174c-50.5713 29 -66.1611 94 -52.1943 157c29.707 134 142.452 196 267.452 196c125.001 0 210.255 -62 180.548 -196
c-13.9668 -63 -58.377 -128 -121.806 -157c70.3486 -30 84.3818 -93 66.4248 -174z" />
    <glyph glyph-name="nine" unicode="9" horiz-adv-x="556" 
d="M482.664 427l8.86719 40c25.9385 117 -2.52344 151 -76.5234 151c-69 0 -115.085 -50 -133.485 -133c-17.7363 -80 17.0615 -117 78.0615 -117c42 0 82.207 28 123.08 59zM96.9004 189h132c-8.86328 -49 23.1562 -85 72.1562 -85c74 0 117.537 34 143.476 151l14.8535 67
c-52.5381 -34 -110.415 -56 -167.415 -56c-126 0 -169.273 98 -143.557 214c32.8105 148 127.866 252 291.866 252c156.001 0 220.718 -96 186.577 -250l-53.6504 -242c-34.1416 -154 -141.424 -250 -297.424 -250c-125 0 -197.703 69 -178.883 199z" />
    <glyph glyph-name="colon" unicode=":" horiz-adv-x="278" 
d="M210 0h-142l31.4805 142h142zM276.509 300h-142l31.4805 142h142z" />
    <glyph glyph-name="semicolon" unicode=";" horiz-adv-x="278" 
d="M44.1895 -148l83.8105 148h-60l31.4805 142h142l-31.4805 -142l-95.8105 -148h-70zM276.509 300h-142l31.4805 142h142z" />
    <glyph glyph-name="less" unicode="&#x3c;" horiz-adv-x="600" 
d="M595.943 108l-25.9385 -117l-492.345 233l21.2822 96l595.655 233l-25.9385 -117l-425.358 -164z" />
    <glyph glyph-name="equal" unicode="=" horiz-adv-x="600" 
d="M672.871 455l-27.0469 -122h-544l27.0469 122h544zM618.777 211l-27.0469 -122h-544l27.0469 122h544z" />
    <glyph glyph-name="greater" unicode="&#x3e;" horiz-adv-x="600" 
d="M26.0049 -9l25.9385 117l425.357 164l-352.642 164l25.9385 117l492.345 -233l-21.2822 -96z" />
    <glyph glyph-name="question" unicode="?" horiz-adv-x="444" 
d="M245.158 542l-107.905 32c46.9482 99 134.027 158 236.027 158c95 0 173.921 -59 149.312 -170c-20.3965 -92 -186.565 -192 -204.301 -272l-11.085 -50h-110l21.7256 98c10.6416 48 167.019 176 179.877 234c7.53809 34 -18.1416 58 -50.1416 58
c-41 0 -90.7549 -44 -103.51 -88zM270 0h-142l31.4805 142h142z" />
    <glyph glyph-name="at" unicode="@" horiz-adv-x="800" 
d="M511.206 452c-62 0 -120.302 -60 -132.938 -117c-10.6406 -48 10.5996 -83 58.5996 -83c65 0 122.08 59 135.382 119c10.6416 48 -14.043 81 -61.043 81zM627.074 492l23.084 50h90l-104.093 -244c-4.43848 -11 -12.7646 -26 -15.6465 -39
c-2.43848 -11 -0.211914 -19 10.7881 -19c46 0 113.193 55 136.914 162c35.4717 160 -58.4629 246 -210.463 246c-167 0 -302.269 -123 -338.848 -288c-38.7969 -175 57.5947 -286 227.595 -286c77 0 153.208 28 212.519 70h92c-90.9473 -99 -208.141 -154 -331.141 -154
c-211 0 -350.416 156 -302.973 370c46.7773 211 253.47 372 462.471 372c176 0 319.84 -118 279.048 -302c-48.7734 -220 -254.849 -288 -316.849 -288c-28 0 -49.0098 18 -42.4717 52l-1.77832 1c-31.207 -28 -75.75 -53 -111.75 -53c-86 0 -141.82 82 -120.981 176
c26.6035 120 132.32 236 257.32 236c49 0 86.7871 -19 105.255 -62z" />
    <glyph glyph-name="A" unicode="A" horiz-adv-x="556" 
d="M403.479 566l-132.735 -292h137l-2.26465 292h-2zM146 0h-133l339.063 722h177l13.9365 -722h-132l-1.30273 152h-191z" />
    <glyph glyph-name="B" unicode="B" horiz-adv-x="556" 
d="M62 0l160.063 722h194c148 0 219.255 -62 191.765 -186c-13.9668 -63 -56.4941 -115 -122.254 -150c65.3584 -48 86.4912 -88 66.5381 -178c-31.7021 -143 -142.112 -208 -288.112 -208h-202zM271.386 322l-46.1123 -208h58c72 0 119.311 42 133.277 105
c15.2969 69 -25.165 103 -97.165 103h-48zM334.791 608l-38.1318 -172h48c62 0 110.98 36 121.844 85c11.75 53 -11.7119 87 -76.7119 87h-55z" />
    <glyph glyph-name="C" unicode="C" horiz-adv-x="556" 
d="M300.621 508l-65.1787 -294c-17.7354 -80 12.3877 -102 67.3877 -102s94.877 22 112.612 102l10.6416 48h138l-6.65039 -30c-39.4619 -178 -147.65 -242 -281.65 -242s-213.812 64 -174.35 242l57.1973 258c39.4609 178 147.649 242 281.649 242
c134.001 0 213.812 -64 174.351 -242l-0.443359 -2h-138l4.43359 20c17.7354 80 -12.3867 102 -67.3867 102s-94.8779 -22 -112.613 -102z" />
    <glyph glyph-name="D" unicode="D" horiz-adv-x="556" 
d="M62 0l160.063 722h192c158 0 230.925 -68 196.576 -250l-49.2158 -222c-46.3486 -182 -149.424 -250 -307.424 -250h-192zM333.017 600l-105.97 -478h48c76 0 127.98 36 151.924 144l42.1221 190c22.6133 102 -2.07617 144 -88.0762 144h-48z" />
    <glyph glyph-name="E" unicode="E" 
d="M450 0h-388l160.063 722h378l-27.0469 -122h-240l-36.8008 -166h183l-27.0469 -122h-183l-42.1221 -190h250z" />
    <glyph glyph-name="F" unicode="F" horiz-adv-x="444" 
d="M200 0h-138l160.063 722h360l-27.0469 -122h-222l-36.8008 -166h174l-27.0469 -122h-174z" />
    <glyph glyph-name="G" unicode="G" horiz-adv-x="556" 
d="M428 0l-7.69824 60c-46.3115 -42 -92.5186 -70 -144.519 -70c-134 0 -213.812 64 -174.35 242l57.1973 258c39.4609 178 147.649 242 281.649 242c141.001 0 199.043 -81 167.686 -245h-138c20.6172 93 -6.73145 123 -56.7314 123c-55 0 -94.8779 -22 -112.613 -102
l-65.1787 -294c-17.7354 -80 12.3877 -102 67.3877 -102c52 0 92.4238 38 106.169 100l9.75488 44h-97l25.2734 114h235l-82.0273 -370h-72z" />
    <glyph glyph-name="H" unicode="H" horiz-adv-x="611" 
d="M208 0h-138l160.063 722h138l-63.8477 -288h195l63.8477 288h138l-160.063 -722h-138l69.1689 312h-195z" />
    <glyph glyph-name="I" unicode="I" horiz-adv-x="278" 
d="M208 0h-138l160.063 722h138z" />
    <glyph glyph-name="J" unicode="J" horiz-adv-x="333" 
d="M285.063 722h138l-126.145 -569c-21.5039 -97 -101.136 -163 -221.136 -163c-30 0 -47.7783 1 -67.335 3l27.0469 122c13.7783 -1 24.335 -3 36.335 -3c63 0 81.7686 17 93.2969 69z" />
    <glyph glyph-name="K" unicode="K" horiz-adv-x="556" 
d="M200 0h-138l160.063 722h138l-66.0645 -298h2l245.064 298h151l-250.513 -291l111.449 -431h-155l-76.8262 303l-72.1797 -82z" />
    <glyph glyph-name="L" unicode="L" horiz-adv-x="444" 
d="M422 0h-360l160.063 722h138l-133.017 -600h222z" />
    <glyph glyph-name="M" unicode="M" horiz-adv-x="778" 
d="M188 0h-118l160.063 722h193l19.917 -474h2l230.083 474h193l-160.063 -722h-118l125.923 568h-2l-272.923 -568h-104l-21.0771 568h-2z" />
    <glyph glyph-name="N" unicode="N" horiz-adv-x="611" 
d="M196 0h-126l160.063 722h151l97.1152 -428h2l94.8848 428h126l-160.063 -722h-132l-107.69 466h-2z" />
    <glyph glyph-name="O" unicode="O" horiz-adv-x="556" 
d="M101.434 232l57.1973 258c39.4609 178 147.649 242 281.649 242c134.001 0 213.812 -64 174.351 -242l-57.1973 -258c-39.4619 -178 -147.65 -242 -281.65 -242s-213.812 64 -174.35 242zM300.621 508l-65.1787 -294c-17.7354 -80 12.3877 -102 67.3877 -102
s94.877 22 112.612 102l65.1787 294c17.7354 80 -12.3867 102 -67.3867 102s-94.8779 -22 -112.613 -102z" />
    <glyph glyph-name="P" unicode="P" horiz-adv-x="556" 
d="M208 0h-138l160.063 722h199c170 0 235.265 -80 205.114 -216s-130.886 -216 -300.886 -216h-61zM342.791 608l-45.2266 -204h74c68 0 109.538 34 124.613 102s-11.3867 102 -79.3867 102h-74z" />
    <glyph glyph-name="Q" unicode="Q" horiz-adv-x="556" 
d="M563.854 67l-26.6035 -120c-67 0 -104.127 31 -129.26 71c-40.4336 -20 -84.207 -28 -132.207 -28c-134 0 -213.812 64 -174.35 242l57.1973 258c39.4609 178 147.649 242 281.649 242c134.001 0 213.812 -64 174.351 -242l-57.1973 -258
c-13.0801 -59 -33.2783 -105 -60.2598 -141c15.8965 -14 36.9014 -23 66.6797 -24zM308.905 180l26.6035 120c43.6699 -6 66.9053 -32 82.3682 -66h2l60.7441 274c17.7354 80 -12.3867 102 -67.3867 102s-94.8779 -22 -112.613 -102l-65.1787 -294
c-17.7354 -80 12.3877 -102 67.3877 -102c21 0 38.665 3 54.4385 11c-13.0146 27 -27.1367 49 -48.3633 57z" />
    <glyph glyph-name="R" unicode="R" horiz-adv-x="556" 
d="M534 0h-148l-54.8213 294h-66l-65.1787 -294h-138l160.063 722h200c166 0 227.265 -80 197.114 -216c-19.9531 -90 -66.3633 -155 -149.792 -184zM334.791 608l-44.3398 -200h71c61 0 104.651 30 120.17 100s-14.8301 100 -75.8301 100h-71z" />
    <glyph glyph-name="S" unicode="S" horiz-adv-x="556" 
d="M614.484 557l-131.981 -36c-7.9248 68 -31.4951 97 -79.4951 97c-49 0 -82.6514 -30 -93.5146 -79c-24.1641 -109 282.062 -117 231.959 -343c-27.4902 -124 -130.669 -206 -275.669 -206c-112 0 -185.477 61 -190.996 203l142.429 29
c-3.28711 -87 39.8408 -118 80.8408 -118c48 0 92.0938 32 104.065 86c30.1504 136 -277.406 138 -232.624 340c27.4902 124 118.782 202 261.782 202c123.001 0 181.816 -73 183.204 -175z" />
    <glyph glyph-name="T" unicode="T" 
d="M180.063 722h460l-27.0469 -122h-161l-133.017 -600h-138l133.017 600h-161z" />
    <glyph glyph-name="U" unicode="U" horiz-adv-x="611" 
d="M230.063 722h138l-111.956 -505c-15.2969 -69 6.72266 -105 73.7227 -105s105.98 36 121.277 105l111.956 505h138l-112.178 -506c-35.249 -159 -144.103 -226 -286.103 -226s-220.146 67 -184.897 226z" />
    <glyph glyph-name="V" unicode="V" horiz-adv-x="556" 
d="M200 0l-24.9365 722h136l12.6055 -516h2l240.395 516h135l-344.063 -722h-157z" />
    <glyph glyph-name="W" unicode="W" horiz-adv-x="833" 
d="M174 0l9.06348 722h128l-7.63965 -472h2l203.64 472h133l-4.63965 -472h2l200.64 472h129l-318.063 -722h-133l8.51758 494h-2l-218.518 -494h-132z" />
    <glyph glyph-name="X" unicode="X" horiz-adv-x="556" 
d="M334.063 722l56.1143 -216l151.886 216h148l-250.819 -342l107.756 -380h-149l-63.4678 255l-176.532 -255h-149l278.244 380l-101.181 342h148z" />
    <glyph glyph-name="Y" unicode="Y" horiz-adv-x="556" 
d="M319.063 722l56.4873 -291l181.513 291h147l-292.328 -430l-64.7354 -292h-138l64.7354 292l-101.672 430h147z" />
    <glyph glyph-name="Z" unicode="Z" 
d="M194.017 600l27.0469 122h400l-25.7158 -116l-380.301 -484h279l-27.0469 -122h-434l25.9385 117l380.078 483h-245z" />
    <glyph glyph-name="bracketleft" unicode="[" horiz-adv-x="333" 
d="M267.595 -74h-234l176.469 796h234l-13.3018 -60h-124l-149.865 -676h124z" />
    <glyph glyph-name="backslash" unicode="\" horiz-adv-x="278" 
d="M211.783 -10l-107.503 742h122l107.503 -742h-122z" />
    <glyph glyph-name="bracketright" unicode="]" horiz-adv-x="333" 
d="M209.063 722h234l-176.469 -796h-234l13.3018 60h124l149.865 676h-124z" />
    <glyph glyph-name="asciicircum" unicode="^" horiz-adv-x="600" 
d="M239.942 320h-117l283.121 402h108l104.879 -402h-119l-66.4824 282z" />
    <glyph glyph-name="underscore" unicode="_" 
d="M472.288 -125h-500l11.085 50h500z" />
    <glyph glyph-name="quoteleft" unicode="&#x2018;" horiz-adv-x="222" 
d="M335.28 732l-83.8105 -148h60l-31.4805 -142h-142l31.4805 142l95.8105 148h70z" />
    <glyph glyph-name="a" unicode="a" 
d="M259.353 385h-126c35.8252 121 138.467 169 239.467 169c134 0 169.925 -68 148.42 -165l-76.4844 -345c-3.32617 -15 -3.65137 -30 -2.75488 -44h-126c0.103516 14 1.87305 31 2.75 53c-45.2031 -37 -100.967 -63 -163.967 -63c-76 0 -115.689 42 -96.1797 130
c27.9336 126 159.905 180 327.324 227l8.86816 40c10.4199 47 -14.5898 65 -50.5898 65c-38 0 -76.207 -28 -84.8535 -67zM338.707 134l29.2637 132c-80.7637 -26 -166.075 -68 -178.712 -125c-7.98047 -36 9.36328 -57 43.3633 -57c38 0 69.4346 20 106.085 50z" />
    <glyph glyph-name="b" unicode="b" 
d="M279.334 421l-66.0654 -298c19.0146 -27 39.3535 -39 67.3535 -39c34 0 66.8779 22 90.8203 130l25.7168 116c23.9434 108 0.820312 130 -33.1797 130c-28 0 -53.6602 -12 -84.6455 -39zM176 0h-116l160.063 722h126l-50.5459 -228c69.7539 44 105.302 60 139.302 60
c98 0 121.151 -76 90.1133 -216l-29.2637 -132c-31.0371 -140 -87.8857 -216 -185.886 -216c-56 0 -102.689 42 -117.151 76h-2z" />
    <glyph glyph-name="c" unicode="c" 
d="M527.924 356h-125l5.32031 24c9.31152 42 -15.8115 64 -59.8115 64s-78.877 -22 -88.1885 -64l-47.8857 -216c-9.31152 -42 15.8115 -64 59.8115 -64s78.877 22 88.1885 64l7.53711 34h126l-0.443359 -2c-31.9238 -144 -119.669 -206 -245.669 -206
s-186.255 62 -154.331 206l33.6973 152c31.9248 144 119.67 206 245.67 206c123 0 183.698 -60 155.104 -198z" />
    <glyph glyph-name="d" unicode="d" 
d="M341.269 123l66.0654 298c-19.0146 27 -39.3545 39 -67.3545 39c-34 0 -66.877 -22 -90.8203 -130l-25.7168 -116c-23.9424 -108 -0.820312 -130 33.1797 -130c28 0 53.6611 12 84.6465 39zM440 0h-116l14.6318 66h-2c-29.5381 -34 -94.8486 -76 -150.849 -76
c-98 0 -121.151 76 -90.1143 216l29.2637 132c31.0381 140 87.8867 216 185.887 216c34 0 62.4521 -16 112.698 -60l50.5459 228h126z" />
    <glyph glyph-name="e" unicode="e" 
d="M503.65 242h-274l-15.9619 -72c-11.9717 -54 14.707 -78 56.707 -78c53 0 81.5381 34 90.8496 76h126c-30.8301 -112 -112.462 -178 -239.462 -178c-120 0 -183.595 74 -157.213 193l39.4619 178c26.3818 119 122.787 193 242.787 193c117 0 183.595 -74 158.986 -185z
M252.263 344h148l6.65137 30c10.6416 48 -5.70801 78 -56.708 78s-80.6504 -30 -91.292 -78z" />
    <glyph glyph-name="f" unicode="f" horiz-adv-x="278" 
d="M430.95 726l-23.0557 -104h-36c-30 0 -47.2129 -19 -53.1982 -46l-12.415 -56h75l-22.6123 -102h-75l-92.6689 -418h-126l92.6689 418h-57l22.6123 102h57l11.5283 52c27.9336 126 88.4707 160 180.471 160c18 0 38.335 -3 58.6699 -6z" />
    <glyph glyph-name="g" unicode="g" 
d="M368.928 347c15.5195 70 1.27832 105 -42.7217 105c-48 0 -73.3154 -33 -92.1602 -118c-15.0752 -68 -0.612305 -102 37.3877 -102c54 0 76.4336 20 97.4941 115zM600.819 554l-24.3867 -110c-9.55664 2 -27.2266 8 -37.2266 8c-13 0 -27.5518 -7 -45.6602 -12
c0.0185547 -36 2.0332 -63 -5.2832 -96c-30.1504 -136 -105.442 -214 -229.442 -214c-18 0 -32.7783 1 -50.4482 7c-9.2168 -10 -26.2119 -19 -29.0938 -32c-15.0752 -68 324.202 37 280.528 -160c-20.6172 -93 -126.372 -137 -272.372 -137c-134 0 -199.575 38 -186.052 99
c9.08887 41 60.6318 66 94.8438 85c-26.0098 18 -42.6885 42 -34.9297 77c9.5332 43 60.9619 72 96.1738 91c-52.1318 40 -60.2734 98 -40.0996 189c25.9385 117 90.4482 205 231.448 205c52 0 104.679 -24 128.033 -63c40.8672 40 76.9668 63 123.967 63zM298.019 -36
l-135.339 12c-15.8828 -13 -31.3213 -24 -35.7549 -44c-6.20801 -28 32.1318 -40 106.132 -40c60 0 98.3262 15 104.533 43c3.99023 18 -2.23633 26 -39.5713 29z" />
    <glyph glyph-name="h" unicode="h" 
d="M186 0h-126l160.063 722h126l-53.2061 -240c50.8672 40 100.962 72 152.962 72c77 0 108.354 -39 85.9619 -140l-91.7812 -414h-126l88.6777 400c7.98145 36 1.30176 60 -32.6982 60c-26 0 -60.542 -25 -92.8633 -49z" />
    <glyph glyph-name="i" unicode="i" horiz-adv-x="278" 
d="M196.603 544h126l-120.603 -544h-126zM343.441 638h-126l25.2734 114h126z" />
    <glyph glyph-name="j" unicode="j" horiz-adv-x="278" 
d="M196.603 544h126l-130.357 -588c-23.0557 -104 -102.811 -148 -186.811 -148c-16 0 -31.7783 1 -45.335 3l24.6084 111c54 0 77.5469 16 85.085 50zM343.441 638h-126l25.2734 114h126z" />
    <glyph glyph-name="k" unicode="k" 
d="M192 0h-126l160.063 722h126l-86.2393 -389h2l180.778 211h140.999l-165.791 -184l56.1895 -360h-133l-35.4678 255l-82.7305 -89z" />
    <glyph glyph-name="l" unicode="l" horiz-adv-x="278" 
d="M76 0l160.063 722h126l-160.063 -722h-126z" />
    <glyph glyph-name="m" unicode="m" horiz-adv-x="722" 
d="M60 0l120.603 544h122l-13.7451 -62c49.2021 37 97.9619 72 150.962 72c47 0 73.9053 -32 77.8203 -82c48.5332 43 97.1797 82 152.18 82c76 0 104.802 -46 83.0752 -144l-90.8945 -410h-126l91.7812 414c7.98145 36 -2.80176 46 -22.8018 46
c-24 0 -69.207 -28 -89.8633 -49l-91.1162 -411h-126l91.7812 414c7.98145 36 -3.80176 46 -23.8018 46c-27 0 -69.207 -28 -88.8633 -49l-91.1162 -411h-126z" />
    <glyph glyph-name="n" unicode="n" 
d="M186 0h-126l120.603 544h122l-13.7451 -62c54.8672 40 104.962 72 156.962 72c77 0 108.354 -39 85.9619 -140l-91.7812 -414h-126l88.6777 400c7.98145 36 1.30176 60 -32.6982 60c-26 0 -60.542 -25 -92.8633 -49z" />
    <glyph glyph-name="o" unicode="o" 
d="M93.4521 196l33.6973 152c31.9248 144 119.67 206 245.67 206s186.255 -62 154.33 -206l-33.6973 -152c-31.9238 -144 -119.669 -206 -245.669 -206s-186.255 62 -154.331 206zM260.244 380l-47.8857 -216c-9.31152 -42 15.8115 -64 59.8115 -64s78.877 22 88.1885 64
l47.8857 216c9.31152 42 -15.8115 64 -59.8115 64s-78.877 -22 -88.1885 -64z" />
    <glyph glyph-name="p" unicode="p" 
d="M279.334 421l-66.0654 -298c19.0146 -27 39.3535 -39 67.3535 -39c34 0 66.8779 22 90.8203 130l25.7168 116c23.9434 108 0.820312 130 -33.1797 130c-28 0 -53.6602 -12 -84.6455 -39zM180.603 544h116l-14.6318 -66h2c29.5371 34 94.8486 76 150.849 76
c98 0 121.151 -76 90.1133 -216l-29.2637 -132c-31.0371 -140 -87.8857 -216 -185.886 -216c-34 0 -62.4531 16 -112.698 60l-53.6504 -242h-126z" />
    <glyph glyph-name="q" unicode="q" 
d="M341.269 123l66.0654 298c-19.0146 27 -39.3545 39 -67.3545 39c-34 0 -66.877 -22 -90.8203 -130l-25.7168 -116c-23.9424 -108 -0.820312 -130 33.1797 -130c28 0 53.6611 12 84.6465 39zM444.603 544h115.999l-163.167 -736h-126l53.6504 242
c-69.7549 -44 -105.302 -60 -139.302 -60c-98 0 -121.151 76 -90.1143 216l29.2637 132c31.0381 140 87.8867 216 185.887 216c56 0 102.688 -42 117.151 -76h2z" />
    <glyph glyph-name="r" unicode="r" horiz-adv-x="333" 
d="M186 0h-126l120.603 544h123l-15.9629 -72h2c40.9717 54 85.1797 82 148.18 82l-30.1504 -136c-19.6699 6 -41.8965 14 -63.8965 14c-41 0 -68.873 -31 -75.3018 -60z" />
    <glyph glyph-name="s" unicode="s" horiz-adv-x="444" 
d="M496.669 418l-112.868 -40c-5.91504 50 -32.5947 74 -70.5947 74c-29 0 -55.6553 -21 -61.8633 -49c-18.6221 -84 226.935 -86 191.02 -248c-23.9424 -108 -112.579 -165 -217.579 -165c-76 0 -139.788 19 -170.638 155l119.873 31c-0.306641 -51 23.377 -84 73.377 -84
c38 0 64.9912 18 71.6416 48c23.0566 104 -228.486 79 -187.916 262c22.835 103 116.698 152 205.698 152c94 0 147.028 -54 159.85 -136z" />
    <glyph glyph-name="t" unicode="t" horiz-adv-x="278" 
d="M148.669 418h-50l22.6123 102h50l32.8105 148h126l-32.8105 -148h81l-22.6123 -102h-81l-61.6318 -278c-5.98535 -27 14.1328 -40 48.1328 -40c9 0 17 0 25.2217 1l-23.5 -106c-24.8867 -4 -49.1084 -5 -73.1084 -5c-82 0 -129.35 30 -112.057 108z" />
    <glyph glyph-name="u" unicode="u" 
d="M434.603 544h125.999l-120.602 -544h-122l13.7451 62c-54.8682 -40 -104.962 -72 -156.962 -72c-77 0 -108.354 39 -85.9629 140l91.7822 414h126l-88.6787 -400c-7.98047 -36 -1.30176 -60 32.6982 -60c26 0 60.543 25 92.8633 49z" />
    <glyph glyph-name="v" unicode="v" horiz-adv-x="444" 
d="M258.603 544l5.40625 -350h2l160.594 350h125.999l-268.602 -544h-124l-27.3975 544h126z" />
    <glyph glyph-name="w" unicode="w" horiz-adv-x="667" 
d="M143 0l-9.39746 544h118l-2.37695 -340h2l148.377 340h108l1.62305 -340h2l144.376 340h118l-248.602 -544h-118l-1.62402 340h-2l-142.376 -340h-118z" />
    <glyph glyph-name="x" unicode="x" horiz-adv-x="444" 
d="M217.074 280l-79.4717 264h134l36.415 -156l107.585 156h133.999l-196.749 -265l85.1475 -279h-134l-42.9814 176l-121.019 -176h-134z" />
    <glyph glyph-name="y" unicode="y" horiz-adv-x="444" 
d="M-10.1221 -190l24.3867 110c11.5566 -2 23.5566 -2 36.5566 -2c55 0 101.641 48 106.962 72c7.09375 32 5.29688 69 2.49512 115l-28.6758 439h128l5.18945 -360h2l158.811 360h127.999l-265.158 -542c-71.5889 -147 -133.009 -194 -259.009 -194
c-12 0 -25.7783 1 -39.5566 2z" />
    <glyph glyph-name="z" unicode="z" horiz-adv-x="444" 
d="M147.216 434l24.3867 110h361.999l-23.9424 -108l-303.272 -326h231l-24.3867 -110h-382l23.9434 108l299.272 326h-207z" />
    <glyph glyph-name="braceleft" unicode="{" horiz-adv-x="333" 
d="M423.28 732l-13.3008 -60h-31c-36 0 -56.7695 -17 -66.5234 -61l-43.0088 -194c-12.6367 -57 -49.4014 -83 -99.1748 -91l-0.443359 -2c46.2266 -8 71.4629 -34 58.8262 -91l-43.4521 -196c-9.75488 -44 3.47656 -61 39.4766 -61h31l-13.3018 -60h-79
c-55 0 -106.798 37 -88.6182 119l43.6738 197c11.084 50 -17.0332 63 -57.0332 63l13.3018 60c40 0 73.8818 13 84.9668 63l43.2305 195c18.1787 82 86.3809 119 141.381 119h79z" />
    <glyph glyph-name="bar" unicode="|" horiz-adv-x="222" 
d="M47.7832 -10l164.497 742h122l-164.497 -742h-122z" />
    <glyph glyph-name="braceright" unicode="}" horiz-adv-x="333" 
d="M53.3779 -84l13.3018 60h31c36 0 56.7686 17 66.5234 61l43.0088 194c12.6367 57 49.4004 83 99.1738 91l0.443359 2c-46.2266 8 -71.4619 34 -58.8252 91l43.4521 196c9.75391 44 -3.47656 61 -39.4766 61h-31l13.3008 60h79c55 0 106.798 -37 88.6191 -119
l-43.6748 -197c-11.084 -50 17.0342 -63 57.0342 -63l-13.3018 -60c-40 0 -73.8828 -13 -84.9668 -63l-43.2305 -195c-18.1797 -82 -86.3818 -119 -141.382 -119h-79z" />
    <glyph glyph-name="asciitilde" unicode="~" horiz-adv-x="600" 
d="M591.806 369l16.2734 -98c-40.9756 -45 -87.3955 -92 -154.396 -92c-43 0 -72.0098 18 -102.798 37c-32.0088 18 -67.0186 36 -119.019 36c-42 0 -76.8682 -40 -102.07 -77l-17.7178 96c34.1982 46 83.6182 93 155.618 93c75 0 157.816 -73 217.816 -73
c38 0 72.8672 40 106.292 78z" />
    <glyph glyph-name="exclamdown" unicode="&#xa1;" horiz-adv-x="278" 
d="M172.538 -178h-146l133.971 478h90zM188.603 544h142l-31.4814 -142h-142z" />
    <glyph glyph-name="cent" unicode="&#xa2;" horiz-adv-x="556" 
d="M222.929 135l145.504 309h-2c-52 0 -86.877 -22 -96.1885 -64l-47.8857 -216c-2.21777 -10 -2.43457 -20 0.570312 -29zM557.924 356h-125l5.32031 24c3.76855 17 0.650391 30 -7.13184 40l-152.721 -319c3.77832 -1 7.77832 -1 11.7783 -1c56 0 90.877 22 100.188 64
l7.53711 34h126l-0.443359 -2c-31.9238 -144 -119.669 -206 -257.669 -206c-11 0 -21.7783 1 -33.5566 2l-65.2637 -132h-89l76.1406 154c-51.127 31 -71.0469 90 -50.6514 182l33.6973 152c31.9248 144 119.67 206 253.67 206c11 0 21 0 30.5566 -2l61.4902 124h89
l-70.9248 -144c55.2363 -26 76.3779 -84 56.9824 -176z" />
    <glyph glyph-name="sterling" unicode="&#xa3;" horiz-adv-x="556" 
d="M182.499 318h-96l19.5088 88h83c1.5332 43 4.73145 89 14.042 131c28.5986 129 138.23 195 247.23 195c162.001 0 215.043 -81 185.558 -214h-126c8.74512 62 -3.94336 104 -71.9434 104c-52 0 -91.9814 -36 -103.953 -90c-9.97559 -45 -11.0654 -86 -12.9336 -126h132
l-19.5088 -88h-120c-5.76367 -26 -33.9336 -126 -62.6885 -170c31.6797 -24 64.2461 -44 114.246 -44s76.0889 41 96.2725 114h120c-26.1592 -118 -80.5459 -228 -231.546 -228c-68 0 -97.7832 10 -173.59 65c-62.1982 -46 -98.4102 -65 -155.41 -65l27.0469 122
c62.4434 2 107.519 70 127.914 162c3.10449 14 5.20801 28 6.75488 44z" />
    <glyph glyph-name="fraction" unicode="&#x2044;" horiz-adv-x="167" 
d="M-169.217 -10l569.497 742h96l-569.497 -742h-96z" />
    <glyph glyph-name="yen" unicode="&#xa5;" horiz-adv-x="556" 
d="M599.206 452l-19.5088 -88h-126l-47.9619 -72h158l-19.5098 -88h-162l-45.2256 -204h-118l45.2256 204h-162l19.5098 88h158l-16.0381 72h-126l19.5088 88h86l-65.1426 270h122l68.6143 -322l207.386 322h122l-184.857 -270h86z" />
    <glyph glyph-name="florin" unicode="&#x192;" horiz-adv-x="556" 
d="M-14.127 -181l38.835 103c10.6699 -6 32.3398 -12 49.3398 -12c28 0 57.4336 20 83.8438 85l153.249 371h-98l19.5088 88h119c80.2256 204 142.631 278 256.632 278c27 0 49.8906 -5 71.3389 -12l-40.1689 -100c-9.8916 5 -25.7832 10 -41.7832 10
c-44.4434 -2 -75.7549 -44 -124.019 -176h99l-19.5088 -88h-116l-136.938 -329c-46.8301 -112 -107.769 -229 -243.769 -229c-24 0 -49.5566 2 -70.5615 11z" />
    <glyph glyph-name="section" unicode="&#xa7;" 
d="M546.545 652l-79.9717 -54c-15.457 25 -35.915 50 -70.915 50c-27 0 -50.9902 -18 -56.3105 -42c-17.293 -78 199.547 -196 169.618 -331c-14.6318 -66 -70.834 -103 -134.272 -114c22.9053 -32 36.0371 -72 26.0615 -117c-18.4014 -83 -96.377 -128 -172.377 -128
c-85 0 -111.798 37 -142.156 85l79.75 53c7.79199 -28 34.0283 -54 78.0283 -54c27 0 54.9902 18 61.6416 48c18.6221 84 -194.228 220 -170.728 326c19.9521 90 68.6035 120 132.82 130c-22.0195 36 -32.5898 65 -22.1699 112c14.1885 64 82.7158 116 159.716 116
c69 0 109.458 -25 141.265 -80zM412.079 271c3.76855 17 -5.46191 34 -46.6035 92c-34.916 50 -64.373 75 -81.373 75c-20 0 -41.3252 -15 -47.2031 -37c-4.21191 -19 2.68945 -42 41.1611 -94c41.3633 -57 67.2646 -80 85.2646 -80c25 0 43.4336 20 48.7539 44z" />
    <glyph glyph-name="currency" unicode="&#xa4;" horiz-adv-x="556" 
d="M572.471 160l-70.8574 -58l-44.1426 58c-38.8721 -31 -97.8623 -49 -154.862 -49s-108.01 18 -133.138 49l-69.8574 -58l-45.1416 58l68.4141 56c-21.2402 35 -25.2686 89 -12.8535 145s40.3857 110 77.1455 145l-43.585 56l70.8584 58l44.1416 -58
c38.8721 31 97.8633 49 154.863 49s108.009 -18 133.137 -49l69.8584 58l45.1416 -58l-68.415 -56c21.2402 -35 25.2695 -89 12.8545 -145s-40.3867 -110 -77.1465 -145zM494.032 361c18.1787 82 -18.1895 148 -103.189 148s-150.632 -66 -168.811 -148
c-18.1797 -82 18.1885 -148 103.188 -148s150.632 66 168.812 148z" />
    <glyph glyph-name="quotesingle" unicode="'" horiz-adv-x="222" 
d="M156.206 452l59.8574 270h110l-59.8574 -270h-110z" />
    <glyph glyph-name="quotedblleft" unicode="&#x201c;" horiz-adv-x="444" 
d="M335.28 732l-83.8105 -148h60l-31.4805 -142h-142l31.4805 142l95.8105 148h70zM557.281 732l-83.8115 -148h60l-31.4805 -142h-142l31.4805 142l95.8105 148h70.001z" />
    <glyph glyph-name="guillemotleft" unicode="&#xab;" horiz-adv-x="556" 
d="M410.83 112l-86.5293 160l157.472 160h110l-157.472 -160l86.5293 -160h-110zM206.83 112l-86.5293 160l157.472 160h110l-157.472 -160l86.5293 -160h-110z" />
    <glyph glyph-name="guilsinglleft" unicode="&#x2039;" horiz-adv-x="333" 
d="M98.3008 272l157.472 160h110l-157.472 -160l86.5293 -160h-110z" />
    <glyph glyph-name="guilsinglright" unicode="&#x203a;" horiz-adv-x="333" 
d="M355.301 272l-157.471 -160h-110l157.471 160l-86.5283 160h110z" />
    <glyph glyph-name="fi" unicode="&#xfb01;" 
d="M437.281 520h126l-115.281 -520h-126zM584.121 614h-126l25.2725 114h126zM430.95 726l-23.0557 -104h-36c-30 0 -47.2129 -19 -53.1982 -46l-12.415 -56h75l-22.6123 -102h-75l-92.6689 -418h-126l92.6689 418h-57l22.6123 102h57l11.5283 52
c27.9336 126 88.4707 160 180.471 160c18 0 38.335 -3 58.6699 -6z" />
    <glyph glyph-name="fl" unicode="&#xfb02;" 
d="M322 0l160.063 722h126l-160.063 -722h-126zM430.95 726l-23.0557 -104h-36c-30 0 -47.2129 -19 -53.1982 -46l-12.415 -56h75l-22.6123 -102h-75l-92.6689 -418h-126l92.6689 418h-57l22.6123 102h57l11.5283 52c27.9336 126 88.4707 160 180.471 160
c18 0 38.335 -3 58.6699 -6z" />
    <glyph glyph-name="endash" unicode="&#x2013;" 
d="M550.99 230h-500l18.6221 84h500z" />
    <glyph glyph-name="dagger" unicode="&#x2020;" 
d="M169.531 467l21.2832 96l156.014 -27l17.4521 196h96l-69.4521 -196l167.986 27l-21.2832 -96l-153.014 27l-12.6885 -170c-39.2734 -114 -81.4141 -268 -119.234 -398h-38c19.8203 130 45.9609 284 57.2344 398l62.6885 170z" />
    <glyph glyph-name="daggerdbl" unicode="&#x2021;" 
d="M272.938 329l64.2402 177l-164.986 -27l21.2832 96l156.015 -27l14.791 184h96l-66.791 -184l167.985 27l-21.2832 -96l-153.014 27l-14.2402 -177l-64.2402 -177l164.986 27l-21.2832 -96l-156.014 27l-14.792 -184h-96l66.792 184l-167.986 -27l21.2832 96l153.014 -27
z" />
    <glyph glyph-name="periodcentered" unicode="&#xb7;" horiz-adv-x="278" 
d="M216.149 348c45 0 67.7979 -37 59.1514 -76c-8.64551 -39 -47.8486 -76 -92.8486 -76s-67.7969 37 -59.1514 76c8.64648 39 47.8486 76 92.8486 76z" />
    <glyph glyph-name="paragraph" unicode="&#xb6;" horiz-adv-x="556" 
d="M171.378 -84l100.649 454c-112 0 -165.368 66 -141.646 173c26.3809 119 101.683 179 253.683 179h322l-18.6221 -84h-68l-160.063 -722h-110l160.063 722h-68l-160.063 -722h-110z" />
    <glyph glyph-name="bullet" unicode="&#x2022;" 
d="M149.032 361c22.1689 100 119.904 180 219.904 180s163.265 -80 141.096 -180c-22.1699 -100 -121.127 -181 -221.127 -181s-162.043 81 -139.873 181z" />
    <glyph glyph-name="quotesinglbase" unicode="&#x201a;" horiz-adv-x="222" 
d="M16.1895 -148l83.8105 148h-60l31.4805 142h142l-31.4805 -142l-95.8105 -148h-70z" />
    <glyph glyph-name="quotedblbase" unicode="&#x201e;" horiz-adv-x="444" 
d="M16.1895 -148l83.8105 148h-60l31.4805 142h142l-31.4805 -142l-95.8105 -148h-70zM238.189 -148l83.8105 148h-60l31.4805 142h142l-31.4805 -142l-95.8105 -148h-70z" />
    <glyph glyph-name="quotedblright" unicode="&#x201d;" horiz-adv-x="444" 
d="M144.772 432l83.8105 148h-60l31.4805 142h142l-31.4805 -142l-95.8105 -148h-70zM366.772 432l83.8105 148h-60l31.4805 142h142l-31.4805 -142l-95.8105 -148h-70z" />
    <glyph glyph-name="guillemotright" unicode="&#xbb;" horiz-adv-x="556" 
d="M352.301 272l-157.471 -160h-110l157.471 160l-86.5283 160h110zM556.301 272l-157.471 -160h-110l157.471 160l-86.5283 160h110z" />
    <glyph glyph-name="ellipsis" unicode="&#x2026;" horiz-adv-x="1000" 
d="M238 0h-142l31.4805 142h142zM904 0h-142l31.4805 142h142zM571 0h-142l31.4805 142h142z" />
    <glyph glyph-name="perthousand" unicode="&#x2030;" horiz-adv-x="1000" 
d="M322.063 722c82 0 133.146 -67 115.189 -148s-98.8105 -148 -180.811 -148s-133.146 67 -115.189 148s98.8105 148 180.811 148zM303.885 640c-38 0 -72.4287 -29 -80.6318 -66s13.3682 -66 51.3682 -66s72.4287 29 80.6318 66s-13.3682 66 -51.3682 66zM524.442 214
c-38 0 -72.4287 -29 -80.6318 -66c-8.20215 -37 13.3682 -66 51.3682 -66s72.4297 29 80.6318 66c8.20312 37 -13.3682 66 -51.3682 66zM542.622 296c82 0 133.146 -67 115.188 -148c-17.957 -81 -98.8105 -148 -180.811 -148s-133.146 67 -115.189 148
c17.958 81 98.8115 148 180.812 148zM885.442 214c-38 0 -72.4287 -29 -80.6318 -66c-8.20215 -37 13.3682 -66 51.3682 -66s72.4297 29 80.6318 66c8.20312 37 -13.3682 66 -51.3682 66zM903.622 296c82 0 133.146 -67 115.188 -148
c-17.957 -81 -98.8105 -148 -180.811 -148s-133.146 67 -115.189 148c17.958 81 98.8115 148 180.812 148zM73.7832 -10l572.498 742h77l-572.498 -742h-77z" />
    <glyph glyph-name="questiondown" unicode="&#xbf;" horiz-adv-x="444" 
d="M319.443 2l107.906 -32c-46.9482 -99 -134.028 -158 -236.028 -158c-95 0 -173.92 59 -149.312 170c20.3955 92 186.565 192 204.301 272l11.085 50h110l-21.7266 -98c-10.6416 -48 -167.019 -176 -179.876 -234c-7.53809 -34 18.1416 -58 50.1416 -58
c41 0 90.7539 44 103.509 88zM294.603 544h142l-31.4814 -142h-142z" />
    <glyph glyph-name="grave" unicode="`" horiz-adv-x="278" 
d="M143.602 756h155l60.6328 -146h-101z" />
    <glyph glyph-name="acute" unicode="&#xb4;" horiz-adv-x="278" 
d="M314.602 756h155l-179.367 -146h-101z" />
    <glyph glyph-name="circumflex" unicode="&#x2c6;" horiz-adv-x="278" 
d="M243.602 756h126l81.6328 -146h-113l-45.8213 82l-82.1787 -82h-113z" />
    <glyph glyph-name="tilde" unicode="&#x2dc;" horiz-adv-x="278" 
d="M421.941 744h65c-26.9668 -63 -65.8252 -121 -137.825 -121c-54 0 -94.2412 35 -139.241 35c-25 0 -44.2119 -19 -54.3105 -42h-63c23.9668 63 71.0469 122 142.047 122c53 0 98.7969 -37 130.797 -37c24 0 46.2119 19 56.5332 43z" />
    <glyph glyph-name="macron" unicode="&#xaf;" horiz-adv-x="278" 
d="M454.885 640h-348l16.4053 74h348z" />
    <glyph glyph-name="breve" unicode="&#x2d8;" horiz-adv-x="278" 
d="M408.158 754h66c-35.1699 -100 -108.367 -146 -207.367 -146c-95 0 -143.138 49 -128.633 146h64c-6.41504 -56 39.4814 -70 88.4814 -70c53 0 95.3252 15 117.519 70z" />
    <glyph glyph-name="dotaccent" unicode="&#x2d9;" horiz-adv-x="278" 
d="M241.28 732h120l-25.2725 -114h-120z" />
    <glyph glyph-name="dieresis" unicode="&#xa8;" horiz-adv-x="278" 
d="M146.28 732h120l-25.2725 -114h-120zM336.28 732h120l-25.2725 -114h-120z" />
    <glyph glyph-name="ring" unicode="&#x2da;" horiz-adv-x="278" 
d="M271.903 604c-59 0 -95.3584 48 -82.2783 107c12.8584 58 70.7217 107 129.722 107c58 0 97.1367 -49 84.2783 -107c-13.0801 -59 -73.7217 -107 -131.722 -107zM307.375 764c-30 0 -57.3203 -24 -63.75 -53c-6.65039 -30 10.25 -53 40.25 -53c29 0 59.0996 23 65.75 53
c6.42969 29 -13.25 53 -42.25 53z" />
    <glyph glyph-name="cedilla" unicode="&#xb8;" horiz-adv-x="278" 
d="M-43.0039 -203l28.3105 42c22.2266 -8 46.2314 -17 71.2314 -17c24 0 58.2168 10 64.6465 39c4.87695 22 -10.7979 37 -32.7979 37c-16 0 -30.8867 -4 -46.7734 -8l-16.5654 20l78.9521 90h53l-55.5234 -61l1.55664 -2c10.3301 6 21.5518 7 32.5518 7
c45 0 83.3496 -30 72.708 -78c-15.0752 -68 -89.8398 -94 -147.84 -94c-38 0 -71.5605 11 -103.457 25z" />
    <glyph glyph-name="hungarumlaut" unicode="&#x2dd;" horiz-adv-x="278" 
d="M226.602 756h151l-173.367 -146h-97zM406.602 756h155l-179.367 -146h-101z" />
    <glyph glyph-name="ogonek" unicode="&#x2db;" horiz-adv-x="278" 
d="M262.655 21l-2.66016 -12c-57.4336 -20 -154.858 -58 -169.712 -125c-7.31543 -33 12.4717 -52 41.4717 -52c32 0 75.7646 26 105.533 43l12.4619 -34c-51.6504 -30 -108.079 -59 -164.079 -59c-57 0 -97.1279 31 -83.8262 91c23.2783 105 178.929 135 260.811 148z" />
    <glyph glyph-name="caron" unicode="&#x2c7;" horiz-adv-x="278" 
d="M337.234 610h-126l-81.6328 146h113l45.8213 -82l82.1787 82h113z" />
    <glyph glyph-name="emdash" unicode="&#x2014;" horiz-adv-x="1000" 
d="M1050.99 230h-1000l18.6221 84h1000z" />
    <glyph glyph-name="AE" unicode="&#xc6;" horiz-adv-x="1000" 
d="M601.678 612l-225.612 -314h174l69.6123 314h-18zM162 0h-148l530.063 722h532l-27.0469 -122h-294l-36.8008 -166h221l-27.0469 -122h-221l-42.1221 -190h306l-27.0469 -122h-444l39.0186 176h-236z" />
    <glyph glyph-name="ordfeminine" unicode="&#xaa;" horiz-adv-x="300" 
d="M245.003 627h-90c12.0889 41 34.6318 66 62.1787 82c30.9902 18 62.0986 23 96.0986 23c88 0 112.133 -40 99.0527 -99l-45.8906 -207c-1.99512 -9 -1.99121 -18 -1.76465 -26h-86c-0.226562 8 1.21289 19 2.09473 32c-24.8779 -22 -61.4248 -38 -102.425 -38
c-49 0 -75.457 25 -63.708 78c16.8496 76 102.387 110 202.595 138l4.87695 22c4.21191 19 -4.34961 30 -27.3496 30c-25 0 -45.5469 -16 -49.7588 -35zM290.631 490l12.8584 58c-44.5479 -16 -89.3164 -33 -95.9668 -63c-3.99121 -18 8.45703 -25 22.457 -25
c25 0 44.6602 12 60.6514 30z" />
    <glyph glyph-name="Lslash" unicode="&#x141;" horiz-adv-x="444" 
d="M270.056 316l-43.0088 -194h222l-27.0469 -122h-360l57.6406 260l-67.542 -25l25.7158 116l67.543 25l76.7061 346h138l-64.291 -290l177.632 66l-26.7168 -116z" />
    <glyph glyph-name="Oslash" unicode="&#xd8;" horiz-adv-x="556" 
d="M248.084 262l232.056 316c-9.67969 24 -33.9053 32 -66.9053 32c-55 0 -94.8779 -22 -112.613 -102l-54.5371 -246h2zM461.994 433l-220.287 -299c10.4531 -16 33.123 -22 61.123 -22c55 0 94.877 22 112.612 102l48.5518 219h-2zM616.705 770h104l-104.037 -140
c11.0186 -36 10.8213 -82 -2.03711 -140l-57.1973 -258c-39.4619 -178 -147.65 -242 -281.65 -242c-45 0 -84.4482 7 -114.458 25l-68.6172 -93h-104l115.584 156c-15.7969 37 -17.7119 87 -2.8584 154l57.1973 258c39.4609 178 147.649 242 281.649 242
c50 0 93.0049 -9 125.35 -30z" />
    <glyph glyph-name="OE" unicode="&#x152;" horiz-adv-x="944" 
d="M292.659 436l-33.2549 -150c-29.2637 -132 -0.574219 -174 103.426 -174c89 0 122.197 46 140.82 130l52.7637 238c18.6221 84 5.82031 130 -83.1797 130c-104 0 -151.312 -42 -180.575 -174zM721.017 600l-36.8008 -166h223l-27.0469 -122h-223l-42.1221 -190h306
l-27.0469 -122h-413c-70 0 -97.2168 -10 -178.217 -10c-149 0 -223.723 105 -184.261 283l42.3438 191c40.3486 182 175.414 268 343.414 268c96.001 0 129.783 -10 213.783 -10h327l-27.0469 -122h-297z" />
    <glyph glyph-name="ordmasculine" unicode="&#xba;" horiz-adv-x="300" 
d="M134.838 518l20.1748 91c19.0654 86 75.2676 123 157.268 123c81 0 121.798 -37 102.732 -123l-20.1748 -91c-19.2871 -87 -76.4902 -124 -157.49 -124c-82 0 -121.797 37 -102.51 124zM247.451 620l-25.2734 -114c-5.54199 -25 2.5752 -38 31.5752 -38
c28 0 42.8828 13 48.4248 38l25.2734 114c5.54199 25 -3.57617 38 -31.5762 38c-29 0 -43.8818 -13 -48.4238 -38z" />
    <glyph glyph-name="ae" unicode="&#xe6;" horiz-adv-x="778" 
d="M345.707 134l29.2637 132c-73.7637 -26 -159.075 -68 -171.712 -125c-7.98047 -36 9.36328 -57 43.3633 -57c38 0 69.4346 20 99.085 50zM769.65 242h-274l-15.9619 -72c-11.9717 -54 14.707 -78 56.707 -78c53 0 81.5381 34 90.8496 76h126
c-30.8301 -112 -112.462 -178 -239.462 -178c-90 0 -134.023 45 -149.481 70c-98.1885 -64 -146.519 -70 -195.519 -70c-76 0 -115.689 42 -96.1797 130c27.9336 126 159.905 180 320.324 227l8.86816 40c10.4199 47 -7.58984 65 -43.5898 65
c-38 0 -76.207 -28 -84.8535 -67h-126c35.8252 121 138.467 169 223.467 169c63 0 108.679 -24 130.255 -62c39.9805 36 92.7451 62 147.745 62c107 0 173.595 -74 148.986 -185zM518.263 344h148l6.65137 30c10.6416 48 -5.70801 78 -56.708 78s-80.6504 -30 -91.292 -78z
" />
    <glyph glyph-name="dotlessi" unicode="&#x131;" horiz-adv-x="278" 
d="M202 0h-126l120.603 544h126z" />
    <glyph glyph-name="lslash" unicode="&#x142;" horiz-adv-x="278" 
d="M285.579 377l-83.5791 -377h-126l69.3906 313l-82.2031 -37l20.8398 94l82.2021 37l69.834 315h126l-55.6455 -251l82.2031 37l-20.8398 -94z" />
    <glyph glyph-name="oslash" unicode="&#xf8;" 
d="M224.334 209l167.438 223c-10.2266 8 -25.3398 12 -43.3398 12c-44 0 -78.877 -22 -88.1885 -64l-37.9102 -171h2zM392.277 317l-157.334 -209c8.8916 -5 21.2266 -8 37.2266 -8c44 0 78.877 22 88.1885 64l33.9189 153h-2zM157.33 6l-89.1602 -118h-89l124.358 164
c-20.6846 33 -24.2646 80 -10.0762 144l33.6973 152c31.9248 144 119.67 206 245.67 206c39 0 71.6699 -6 97.7871 -19l72.0615 95h89l-110.367 -146c16.9053 -32 18.9287 -77 5.84863 -136l-33.6973 -152c-31.9238 -144 -119.669 -206 -245.669 -206
c-36 0 -66.8916 5 -90.4531 16z" />
    <glyph glyph-name="oe" unicode="&#x153;" horiz-adv-x="778" 
d="M260.244 380l-47.8857 -216c-9.31152 -42 15.8115 -64 59.8115 -64s78.877 22 88.1885 64l47.8857 216c9.31152 42 -15.8115 64 -59.8115 64s-78.877 -22 -88.1885 -64zM781.65 242h-278l-15.9619 -72c-11.9717 -54 18.707 -78 60.707 -78c53 0 81.5381 34 90.8496 76
h126c-30.8301 -112 -112.462 -178 -239.462 -178c-62 0 -104.35 30 -124.038 72c-37.3115 -42 -90.9619 -72 -159.962 -72c-120 0 -180.255 62 -148.331 206l33.6973 152c31.9248 144 119.67 206 239.67 206c69 0 109.349 -30 128.038 -72c38.3105 42 93.9619 72 161.962 72
c111 0 177.595 -74 152.986 -185zM526.263 344h152l6.65137 30c10.6416 48 -5.70801 78 -56.708 78s-84.6504 -30 -95.292 -78z" />
    <glyph glyph-name="germandbls" unicode="&#xdf;" 
d="M186 0h-126l115.946 523c26.1602 118 86.1172 199 233.117 199c115 0 163.26 -71 134.439 -201c-10.6416 -48 -44.0557 -104 -93.377 -128c64.3545 -39 71.6094 -101 49.4395 -201c-29.4854 -133 -107.782 -202 -192.782 -202c-25 0 -48.8916 5 -69.6748 15l25.2734 114
c10.6699 -6 24.0049 -9 38.0049 -9c38 0 61.4287 29 76.9473 99c16.8486 76 12.7119 125 -66.2881 125l22.6133 102c45.4434 2 78.5371 34 90.5088 88c11.3066 51 2.50977 88 -46.4902 88c-39 0 -62.208 -28 -69.0801 -59z" />
    <glyph glyph-name="onesuperior" unicode="&#xb9;" horiz-adv-x="333" 
d="M207.735 292l73.1592 330h-67l11.9717 54c64.6602 12 83.6504 30 107.414 56h62l-97.5449 -440h-90z" />
    <glyph glyph-name="logicalnot" unicode="&#xac;" horiz-adv-x="600" 
d="M469.73 89l54.0938 244h-422l27.0469 122h544l-81.1406 -366h-122z" />
    <glyph glyph-name="mu" unicode="&#x3bc;" 
d="M434.603 544h125.999l-120.602 -544h-122l13.7451 62c-51.2031 -37 -98.0752 -68 -147.962 -72l-40.3486 -182h-126l163.168 736h126l-88.6787 -400c-7.98047 -36 -1.30176 -60 32.6982 -60c26 0 60.543 25 92.8633 49z" />
    <glyph glyph-name="trademark" unicode="&#x2122;" horiz-adv-x="1000" 
d="M752.063 722l38.5762 -250l148.424 250h153l-91.3379 -412h-106l62.0742 280h-2l-160.074 -280h-81l-35.9258 280h-2l-62.0742 -280h-106l91.3379 412h153zM533.063 722l-18.6221 -84h-115l-72.7158 -328h-112l72.7158 328h-114l18.6221 84h341z" />
    <glyph glyph-name="Eth" unicode="&#xd0;" horiz-adv-x="556" 
d="M77.1689 312l27.0469 122h54l63.8477 288h192c158 0 230.925 -68 196.576 -250l-49.2158 -222c-46.3486 -182 -149.424 -250 -307.424 -250h-192l69.1689 312h-54zM384.216 434l-27.0469 -122h-88l-42.1221 -190h48c76 0 127.98 36 151.924 144l42.1221 190
c22.6133 102 -2.07617 144 -88.0762 144h-48l-36.8008 -166h88z" />
    <glyph glyph-name="onehalf" unicode="&#xbd;" horiz-adv-x="834" 
d="M211.735 292l73.1592 330h-67l11.9717 54c64.6602 12 83.6504 30 107.414 56h62l-97.5449 -440h-90zM791 0h-296l16.627 75c218.693 161 255.565 192 265.542 237c6.42871 29 -5.02832 54 -46.0283 54c-44 0 -68.543 -25 -74.3066 -51l-3.54688 -16h-90l4.65527 21
c13.9668 63 81.6035 120 172.604 120c92 0 145.467 -43 127.066 -126c-22.1699 -100 -158.24 -177 -239.207 -240h179zM132.783 -10l569.498 742h96l-569.498 -742h-96z" />
    <glyph glyph-name="plusminus" unicode="&#xb1;" horiz-adv-x="600" 
d="M329.895 410l29.708 134h122l-29.708 -134h211l-27.0469 -122h-211l-29.707 -134h-122l29.707 134h-210.999l27.0459 122h211zM28 0l27.0469 122h544l-27.0469 -122h-544z" />
    <glyph glyph-name="Thorn" unicode="&#xde;" horiz-adv-x="556" 
d="M208 0h-138l160.063 722h138l-29.2637 -132h61c170 0 235.265 -80 205.114 -216s-130.887 -216 -300.887 -216h-61zM313.526 476l-45.2256 -204h74c68 0 109.538 34 124.613 102s-11.3877 102 -79.3877 102h-74z" />
    <glyph glyph-name="onequarter" unicode="&#xbc;" horiz-adv-x="834" 
d="M580.792 184h102l29.042 131h-2zM484.792 184l254.202 249h89l-55.2021 -249h66l-15.5186 -70h-66l-25.2734 -114h-90l25.2734 114h-198zM211.735 292l73.1592 330h-67l11.9717 54c64.6602 12 83.6504 30 107.414 56h62l-97.5449 -440h-90zM150.783 -10l569.498 742h96
l-569.498 -742h-96z" />
    <glyph glyph-name="divide" unicode="&#xf7;" horiz-adv-x="600" 
d="M618.777 211h-544l27.0469 122h544zM313.739 495c11.5283 52 65.0605 95 117.061 95c50 0 84.2461 -44 72.9395 -95c-10.6416 -48 -65.0615 -95 -114.062 -95c-53 0 -87.4668 43 -75.9385 95zM214.863 49c11.75 53 65.0605 95 117.061 95c50 0 84.4678 -43 72.9395 -95
c-10.4199 -47 -65.0615 -95 -114.062 -95c-53 0 -87.2451 44 -75.9385 95z" />
    <glyph glyph-name="brokenbar" unicode="&#xa6;" horiz-adv-x="222" 
d="M47.7832 -10l62.9609 284h122l-62.9609 -284h-122zM149.319 448l62.9609 284h122l-62.9609 -284h-122z" />
    <glyph glyph-name="degree" unicode="&#xb0;" horiz-adv-x="400" 
d="M311.291 502c48 0 90.6455 39 101.287 87s-14.7119 87 -62.7119 87s-90.6465 -39 -101.288 -87s14.7129 -87 62.7129 -87zM298.876 446c-81 0 -130.033 63 -112.298 143s94.7021 143 175.702 143s130.034 -63 112.298 -143c-17.7354 -80 -94.7021 -143 -175.702 -143z
" />
    <glyph glyph-name="thorn" unicode="&#xfe;" 
d="M279.334 421l-66.0654 -298c19.0146 -27 39.3535 -39 67.3535 -39c34 0 66.8779 22 90.8203 130l25.7168 116c23.9434 108 0.820312 130 -33.1797 130c-28 0 -53.6602 -12 -84.6455 -39zM220.063 722h124l-51.876 -234h2c19.3203 24 84.6318 66 140.632 66
c98 0 121.151 -76 90.1133 -216l-29.2637 -132c-31.0371 -140 -87.8857 -216 -185.886 -216c-34 0 -62.4531 16 -112.698 60l-53.6504 -242h-126z" />
    <glyph glyph-name="threequarters" unicode="&#xbe;" horiz-adv-x="834" 
d="M580.792 184h102l29.042 131h-2zM484.792 184l254.202 249h89l-55.2021 -249h66l-15.5186 -70h-66l-25.2734 -114h-90l25.2734 114h-198zM129.112 420h90c-9.31152 -42 5.69824 -60 51.6982 -60c41 0 70.3203 24 78.3018 60c10.6406 48 -15.8115 64 -76.8115 64
l16.4053 74c55 0 81.8818 13 90.9717 54c5.32031 24 -10.8027 46 -45.8027 46c-30 0 -55.6553 -21 -62.8623 -49h-90c19.6221 84 91.2676 123 170.268 123c84 0 135.911 -41 119.062 -117c-8.4248 -38 -36.0713 -77 -77.0615 -95c46.0098 -18 55.8066 -55 44.9434 -104
c-19.0654 -86 -97.8203 -130 -181.82 -130c-106 0 -145.25 53 -127.292 134zM170.783 -10l569.498 742h96l-569.498 -742h-96z" />
    <glyph glyph-name="twosuperior" unicode="&#xb2;" horiz-adv-x="333" 
d="M375.735 292h-296l16.627 75c218.692 161 255.565 192 265.541 237c6.42969 29 -5.02832 54 -46.0283 54c-44 0 -68.542 -25 -74.3057 -51l-3.54785 -16h-90l4.65625 21c13.9668 63 81.6025 120 172.603 120c92 0 145.468 -43 127.067 -126
c-22.1699 -100 -158.24 -177 -239.207 -240h179z" />
    <glyph glyph-name="registered" unicode="&#xae;" horiz-adv-x="800" 
d="M409.051 325l-37.0234 -167h-88l90.2305 407h153c106 0 160.349 -30 139.731 -123c-16.627 -75 -67.0566 -104 -124.943 -108l54.9814 -176h-97l-49.9766 167h-41zM446.296 493l-21.2832 -96h77c49 0 65.8818 13 74.9717 54c6.87305 31 -8.68848 42 -68.6885 42h-62z
M397.783 -10c-200 0 -352.406 138 -300.751 371c51.6543 233 265.248 371 465.249 371c200 0 352.405 -138 300.751 -371c-51.6553 -233 -265.249 -371 -465.249 -371zM749.032 361c37.2441 168 -59.2607 283 -206.261 283c-150 0 -294.495 -115 -331.739 -283
c-37.2451 -168 56.2598 -283 206.26 -283c147 0 294.495 115 331.74 283z" />
    <glyph glyph-name="minus" unicode="&#x2212;" horiz-adv-x="600" 
d="M618.777 211h-544l27.0469 122h544z" />
    <glyph glyph-name="eth" unicode="&#xf0;" 
d="M253.593 350l-42.1221 -190c-8.64551 -39 16.6992 -60 60.6992 -60s78.6553 21 87.3008 60l42.123 190c8.86719 40 -16.6992 60 -60.6992 60s-78.4336 -20 -87.3018 -60zM332.96 708l121.104 14c8.33984 -12 15.6797 -24 23.7979 -37l116.202 37l13.5947 -74
l-98.0938 -32c31.7119 -87 36.208 -184 12.708 -290l-31.7021 -143c-29.9287 -135 -116.787 -193 -242.787 -193s-187.142 58 -157.213 193l31.7021 143c29.9287 135 117.009 194 243.009 194c14 0 25 0 42.1133 -4c-0.123047 22 -4.4668 43 -10.8115 64l-118.425 -38
l-13.5938 74l102.315 33c-10.5654 20 -22.3535 39 -33.9199 59z" />
    <glyph glyph-name="multiply" unicode="&#xd7;" horiz-adv-x="600" 
d="M274.522 273l-144.765 186l105.845 85l143.986 -185l227.013 185l67.1562 -85l-227.457 -187l144.765 -186l-105.065 -86l-144.765 186l-226.235 -186l-67.9346 86l227.235 186z" />
    <glyph glyph-name="threesuperior" unicode="&#xb3;" horiz-adv-x="333" 
d="M103.112 420h90c-9.31152 -42 5.69824 -60 51.6982 -60c41 0 70.3203 24 78.3018 60c10.6406 48 -15.8115 64 -76.8115 64l16.4053 74c55 0 81.8818 13 90.9717 54c5.32031 24 -10.8027 46 -45.8027 46c-30 0 -55.6553 -21 -62.8623 -49h-90
c19.6221 84 91.2676 123 170.268 123c84 0 135.911 -41 119.062 -117c-8.4248 -38 -36.0713 -77 -77.0615 -95c46.0098 -18 55.8066 -55 44.9434 -104c-19.0654 -86 -97.8203 -130 -181.82 -130c-106 0 -145.25 53 -127.292 134z" />
    <glyph glyph-name="copyright" unicode="&#xa9;" horiz-adv-x="800" 
d="M397.783 -10c-200 0 -352.406 138 -300.751 371c51.6543 233 265.248 371 465.249 371c200 0 352.405 -138 300.751 -371c-51.6553 -233 -265.249 -371 -465.249 -371zM749.032 361c37.2441 168 -59.2607 283 -206.261 283c-150 0 -294.495 -115 -331.739 -283
c-37.2451 -168 56.2598 -283 206.26 -283c147 0 294.495 115 331.74 283zM571.617 305h90c-38.6133 -102 -127.807 -157 -213.807 -157c-126 0 -186.16 94 -159.113 216c27.4902 124 124.886 216 252.886 216c89 0 149.472 -52 143.303 -152h-86
c1.19727 46 -33.8115 64 -76.8115 64c-65 0 -111.863 -49 -128.934 -126c-16.4053 -74 12.1797 -130 74.1797 -130c49 0 88.6553 21 104.297 69z" />
    <glyph glyph-name="Aacute" unicode="&#xc1;" horiz-adv-x="556" 
d="M403.479 566l-132.735 -292h137l-2.26465 292h-2zM146 0h-133l339.063 722h177l13.9365 -722h-132l-1.30273 152h-191zM487.521 909h155l-179.367 -146h-101z" />
    <glyph glyph-name="Acircumflex" unicode="&#xc2;" horiz-adv-x="556" 
d="M403.479 566l-132.735 -292h137l-2.26465 292h-2zM146 0h-133l339.063 722h177l13.9365 -722h-132l-1.30273 152h-191zM416.521 909h126l81.6328 -146h-113l-45.8213 82l-82.1787 -82h-113z" />
    <glyph glyph-name="Adieresis" unicode="&#xc4;" horiz-adv-x="556" 
d="M403.479 566l-132.735 -292h137l-2.26465 292h-2zM146 0h-133l339.063 722h177l13.9365 -722h-132l-1.30273 152h-191zM319.199 885h120l-25.2725 -114h-120zM509.199 885h120l-25.2725 -114h-120z" />
    <glyph glyph-name="Agrave" unicode="&#xc0;" horiz-adv-x="556" 
d="M403.479 566l-132.735 -292h137l-2.26465 292h-2zM146 0h-133l339.063 722h177l13.9365 -722h-132l-1.30273 152h-191zM316.521 909h155l60.6328 -146h-101z" />
    <glyph glyph-name="Aring" unicode="&#xc5;" horiz-adv-x="556" 
d="M403.479 566l-132.735 -292h137l-2.26465 292h-2zM146 0h-133l339.063 722h177l13.9365 -722h-132l-1.30273 152h-191zM444.822 757c-59 0 -95.3584 48 -82.2783 107c12.8584 58 70.7217 107 129.722 107c58 0 97.1367 -49 84.2783 -107
c-13.0801 -59 -73.7217 -107 -131.722 -107zM480.294 917c-30 0 -57.3203 -24 -63.75 -53c-6.65039 -30 10.25 -53 40.25 -53c29 0 59.0996 23 65.75 53c6.42969 29 -13.25 53 -42.25 53z" />
    <glyph glyph-name="Atilde" unicode="&#xc3;" horiz-adv-x="556" 
d="M403.479 566l-132.735 -292h137l-2.26465 292h-2zM146 0h-133l339.063 722h177l13.9365 -722h-132l-1.30273 152h-191zM594.86 897h65c-26.9668 -63 -65.8252 -121 -137.825 -121c-54 0 -94.2412 35 -139.241 35c-25 0 -44.2119 -19 -54.3105 -42h-63
c23.9668 63 71.0469 122 142.047 122c53 0 98.7969 -37 130.797 -37c24 0 46.2119 19 56.5332 43z" />
    <glyph glyph-name="Ccedilla" unicode="&#xc7;" horiz-adv-x="556" 
d="M300.621 508l-65.1787 -294c-17.7354 -80 12.3877 -102 67.3877 -102s94.877 22 112.612 102l10.6416 48h138l-6.65039 -30c-39.4619 -178 -147.65 -242 -281.65 -242s-213.812 64 -174.35 242l57.1973 258c39.4609 178 147.649 242 281.649 242
c134.001 0 213.812 -64 174.351 -242l-0.443359 -2h-138l4.43359 20c17.7354 80 -12.3867 102 -67.3867 102s-94.8779 -22 -112.613 -102zM95.9961 -203l28.3105 42c22.2266 -8 46.2314 -17 71.2314 -17c24 0 58.2168 10 64.6465 39c4.87695 22 -10.7979 37 -32.7979 37
c-16 0 -30.8867 -4 -46.7734 -8l-16.5654 20l78.9521 90h53l-55.5234 -61l1.55664 -2c10.3301 6 21.5518 7 32.5518 7c45 0 83.3496 -30 72.708 -78c-15.0752 -68 -89.8398 -94 -147.84 -94c-38 0 -71.5605 11 -103.457 25z" />
    <glyph glyph-name="Eacute" unicode="&#xc9;" 
d="M450 0h-388l160.063 722h378l-27.0469 -122h-240l-36.8008 -166h183l-27.0469 -122h-183l-42.1221 -190h250zM459.521 909h155l-179.367 -146h-101z" />
    <glyph glyph-name="Ecircumflex" unicode="&#xca;" 
d="M450 0h-388l160.063 722h378l-27.0469 -122h-240l-36.8008 -166h183l-27.0469 -122h-183l-42.1221 -190h250zM388.521 909h126l81.6328 -146h-113l-45.8213 82l-82.1787 -82h-113z" />
    <glyph glyph-name="Edieresis" unicode="&#xcb;" 
d="M450 0h-388l160.063 722h378l-27.0469 -122h-240l-36.8008 -166h183l-27.0469 -122h-183l-42.1221 -190h250zM291.199 885h120l-25.2725 -114h-120zM481.199 885h120l-25.2725 -114h-120z" />
    <glyph glyph-name="Egrave" unicode="&#xc8;" 
d="M450 0h-388l160.063 722h378l-27.0469 -122h-240l-36.8008 -166h183l-27.0469 -122h-183l-42.1221 -190h250zM288.521 909h155l60.6328 -146h-101z" />
    <glyph glyph-name="Iacute" unicode="&#xcd;" horiz-adv-x="278" 
d="M208 0h-138l160.063 722h138zM348.521 909h155l-179.367 -146h-101z" />
    <glyph glyph-name="Icircumflex" unicode="&#xce;" horiz-adv-x="278" 
d="M208 0h-138l160.063 722h138zM277.521 909h126l81.6328 -146h-113l-45.8213 82l-82.1787 -82h-113z" />
    <glyph glyph-name="Idieresis" unicode="&#xcf;" horiz-adv-x="278" 
d="M208 0h-138l160.063 722h138zM180.199 885h120l-25.2725 -114h-120zM370.199 885h120l-25.2725 -114h-120z" />
    <glyph glyph-name="Igrave" unicode="&#xcc;" horiz-adv-x="278" 
d="M208 0h-138l160.063 722h138zM177.521 909h155l60.6328 -146h-101z" />
    <glyph glyph-name="Ntilde" unicode="&#xd1;" horiz-adv-x="611" 
d="M196 0h-126l160.063 722h151l97.1152 -428h2l94.8848 428h126l-160.063 -722h-132l-107.69 466h-2zM622.86 897h65c-26.9668 -63 -65.8252 -121 -137.825 -121c-54 0 -94.2412 35 -139.241 35c-25 0 -44.2119 -19 -54.3105 -42h-63c23.9668 63 71.0469 122 142.047 122
c53 0 98.7969 -37 130.797 -37c24 0 46.2119 19 56.5332 43z" />
    <glyph glyph-name="Oacute" unicode="&#xd3;" horiz-adv-x="556" 
d="M101.434 232l57.1973 258c39.4609 178 147.649 242 281.649 242c134.001 0 213.812 -64 174.351 -242l-57.1973 -258c-39.4619 -178 -147.65 -242 -281.65 -242s-213.812 64 -174.35 242zM300.621 508l-65.1787 -294c-17.7354 -80 12.3877 -102 67.3877 -102
s94.877 22 112.612 102l65.1787 294c17.7354 80 -12.3867 102 -67.3867 102s-94.8779 -22 -112.613 -102zM487.521 909h155l-179.367 -146h-101z" />
    <glyph glyph-name="Ocircumflex" unicode="&#xd4;" horiz-adv-x="556" 
d="M101.434 232l57.1973 258c39.4609 178 147.649 242 281.649 242c134.001 0 213.812 -64 174.351 -242l-57.1973 -258c-39.4619 -178 -147.65 -242 -281.65 -242s-213.812 64 -174.35 242zM300.621 508l-65.1787 -294c-17.7354 -80 12.3877 -102 67.3877 -102
s94.877 22 112.612 102l65.1787 294c17.7354 80 -12.3867 102 -67.3867 102s-94.8779 -22 -112.613 -102zM416.521 909h126l81.6328 -146h-113l-45.8213 82l-82.1787 -82h-113z" />
    <glyph glyph-name="Odieresis" unicode="&#xd6;" horiz-adv-x="556" 
d="M101.434 232l57.1973 258c39.4609 178 147.649 242 281.649 242c134.001 0 213.812 -64 174.351 -242l-57.1973 -258c-39.4619 -178 -147.65 -242 -281.65 -242s-213.812 64 -174.35 242zM300.621 508l-65.1787 -294c-17.7354 -80 12.3877 -102 67.3877 -102
s94.877 22 112.612 102l65.1787 294c17.7354 80 -12.3867 102 -67.3867 102s-94.8779 -22 -112.613 -102zM319.199 885h120l-25.2725 -114h-120zM509.199 885h120l-25.2725 -114h-120z" />
    <glyph glyph-name="Ograve" unicode="&#xd2;" horiz-adv-x="556" 
d="M101.434 232l57.1973 258c39.4609 178 147.649 242 281.649 242c134.001 0 213.812 -64 174.351 -242l-57.1973 -258c-39.4619 -178 -147.65 -242 -281.65 -242s-213.812 64 -174.35 242zM300.621 508l-65.1787 -294c-17.7354 -80 12.3877 -102 67.3877 -102
s94.877 22 112.612 102l65.1787 294c17.7354 80 -12.3867 102 -67.3867 102s-94.8779 -22 -112.613 -102zM316.521 909h155l60.6328 -146h-101z" />
    <glyph glyph-name="Otilde" unicode="&#xd5;" horiz-adv-x="556" 
d="M101.434 232l57.1973 258c39.4609 178 147.649 242 281.649 242c134.001 0 213.812 -64 174.351 -242l-57.1973 -258c-39.4619 -178 -147.65 -242 -281.65 -242s-213.812 64 -174.35 242zM300.621 508l-65.1787 -294c-17.7354 -80 12.3877 -102 67.3877 -102
s94.877 22 112.612 102l65.1787 294c17.7354 80 -12.3867 102 -67.3867 102s-94.8779 -22 -112.613 -102zM594.86 897h65c-26.9668 -63 -65.8252 -121 -137.825 -121c-54 0 -94.2412 35 -139.241 35c-25 0 -44.2119 -19 -54.3105 -42h-63
c23.9668 63 71.0469 122 142.047 122c53 0 98.7969 -37 130.797 -37c24 0 46.2119 19 56.5332 43z" />
    <glyph glyph-name="Scaron" unicode="&#x160;" horiz-adv-x="556" 
d="M614.484 557l-131.981 -36c-7.9248 68 -31.4951 97 -79.4951 97c-49 0 -82.6514 -30 -93.5146 -79c-24.1641 -109 282.062 -117 231.959 -343c-27.4902 -124 -130.669 -206 -275.669 -206c-112 0 -185.477 61 -190.996 203l142.429 29
c-3.28711 -87 39.8408 -118 80.8408 -118c48 0 92.0938 32 104.065 86c30.1504 136 -277.406 138 -232.624 340c27.4902 124 118.782 202 261.782 202c123.001 0 181.816 -73 183.204 -175zM510.153 763h-126l-81.6328 146h113l45.8213 -82l82.1787 82h113z" />
    <glyph glyph-name="Uacute" unicode="&#xda;" horiz-adv-x="611" 
d="M230.063 722h138l-111.956 -505c-15.2969 -69 6.72266 -105 73.7227 -105s105.98 36 121.277 105l111.956 505h138l-112.178 -506c-35.249 -159 -144.103 -226 -286.103 -226s-220.146 67 -184.897 226zM515.521 909h155l-179.367 -146h-101z" />
    <glyph glyph-name="Ucircumflex" unicode="&#xdb;" horiz-adv-x="611" 
d="M230.063 722h138l-111.956 -505c-15.2969 -69 6.72266 -105 73.7227 -105s105.98 36 121.277 105l111.956 505h138l-112.178 -506c-35.249 -159 -144.103 -226 -286.103 -226s-220.146 67 -184.897 226zM444.521 909h126l81.6328 -146h-113l-45.8213 82l-82.1787 -82
h-113z" />
    <glyph glyph-name="Udieresis" unicode="&#xdc;" horiz-adv-x="611" 
d="M230.063 722h138l-111.956 -505c-15.2969 -69 6.72266 -105 73.7227 -105s105.98 36 121.277 105l111.956 505h138l-112.178 -506c-35.249 -159 -144.103 -226 -286.103 -226s-220.146 67 -184.897 226zM347.199 885h120l-25.2725 -114h-120zM537.199 885h120
l-25.2725 -114h-120z" />
    <glyph glyph-name="Ugrave" unicode="&#xd9;" horiz-adv-x="611" 
d="M230.063 722h138l-111.956 -505c-15.2969 -69 6.72266 -105 73.7227 -105s105.98 36 121.277 105l111.956 505h138l-112.178 -506c-35.249 -159 -144.103 -226 -286.103 -226s-220.146 67 -184.897 226zM344.521 909h155l60.6328 -146h-101z" />
    <glyph glyph-name="Yacute" unicode="&#xdd;" horiz-adv-x="556" 
d="M319.063 722l56.4873 -291l181.513 291h147l-292.328 -430l-64.7354 -292h-138l64.7354 292l-101.672 430h147zM487.521 909h155l-179.367 -146h-101z" />
    <glyph glyph-name="Ydieresis" unicode="&#x178;" horiz-adv-x="556" 
d="M319.063 722l56.4873 -291l181.513 291h147l-292.328 -430l-64.7354 -292h-138l64.7354 292l-101.672 430h147zM319.199 885h120l-25.2725 -114h-120zM509.199 885h120l-25.2725 -114h-120z" />
    <glyph glyph-name="Zcaron" unicode="&#x17d;" 
d="M194.017 600l27.0469 122h400l-25.7158 -116l-380.301 -484h279l-27.0469 -122h-434l25.9385 117l380.078 483h-245zM482.153 763h-126l-81.6328 146h113l45.8213 -82l82.1787 82h113z" />
    <glyph glyph-name="aacute" unicode="&#xe1;" 
d="M259.353 385h-126c35.8252 121 138.467 169 239.467 169c134 0 169.925 -68 148.42 -165l-76.4844 -345c-3.32617 -15 -3.65137 -30 -2.75488 -44h-126c0.103516 14 1.87305 31 2.75 53c-45.2031 -37 -100.967 -63 -163.967 -63c-76 0 -115.689 42 -96.1797 130
c27.9336 126 159.905 180 327.324 227l8.86816 40c10.4199 47 -14.5898 65 -50.5898 65c-38 0 -76.207 -28 -84.8535 -67zM338.707 134l29.2637 132c-80.7637 -26 -166.075 -68 -178.712 -125c-7.98047 -36 9.36328 -57 43.3633 -57c38 0 69.4346 20 106.085 50z
M425.602 756h155l-179.367 -146h-101z" />
    <glyph glyph-name="acircumflex" unicode="&#xe2;" 
d="M259.353 385h-126c35.8252 121 138.467 169 239.467 169c134 0 169.925 -68 148.42 -165l-76.4844 -345c-3.32617 -15 -3.65137 -30 -2.75488 -44h-126c0.103516 14 1.87305 31 2.75 53c-45.2031 -37 -100.967 -63 -163.967 -63c-76 0 -115.689 42 -96.1797 130
c27.9336 126 159.905 180 327.324 227l8.86816 40c10.4199 47 -14.5898 65 -50.5898 65c-38 0 -76.207 -28 -84.8535 -67zM338.707 134l29.2637 132c-80.7637 -26 -166.075 -68 -178.712 -125c-7.98047 -36 9.36328 -57 43.3633 -57c38 0 69.4346 20 106.085 50z
M354.602 756h126l81.6328 -146h-113l-45.8213 82l-82.1787 -82h-113z" />
    <glyph glyph-name="adieresis" unicode="&#xe4;" 
d="M259.353 385h-126c35.8252 121 138.467 169 239.467 169c134 0 169.925 -68 148.42 -165l-76.4844 -345c-3.32617 -15 -3.65137 -30 -2.75488 -44h-126c0.103516 14 1.87305 31 2.75 53c-45.2031 -37 -100.967 -63 -163.967 -63c-76 0 -115.689 42 -96.1797 130
c27.9336 126 159.905 180 327.324 227l8.86816 40c10.4199 47 -14.5898 65 -50.5898 65c-38 0 -76.207 -28 -84.8535 -67zM338.707 134l29.2637 132c-80.7637 -26 -166.075 -68 -178.712 -125c-7.98047 -36 9.36328 -57 43.3633 -57c38 0 69.4346 20 106.085 50zM257.28 732
h120l-25.2725 -114h-120zM447.28 732h120l-25.2725 -114h-120z" />
    <glyph glyph-name="agrave" unicode="&#xe0;" 
d="M259.353 385h-126c35.8252 121 138.467 169 239.467 169c134 0 169.925 -68 148.42 -165l-76.4844 -345c-3.32617 -15 -3.65137 -30 -2.75488 -44h-126c0.103516 14 1.87305 31 2.75 53c-45.2031 -37 -100.967 -63 -163.967 -63c-76 0 -115.689 42 -96.1797 130
c27.9336 126 159.905 180 327.324 227l8.86816 40c10.4199 47 -14.5898 65 -50.5898 65c-38 0 -76.207 -28 -84.8535 -67zM338.707 134l29.2637 132c-80.7637 -26 -166.075 -68 -178.712 -125c-7.98047 -36 9.36328 -57 43.3633 -57c38 0 69.4346 20 106.085 50z
M254.602 756h155l60.6328 -146h-101z" />
    <glyph glyph-name="aring" unicode="&#xe5;" 
d="M259.353 385h-126c35.8252 121 138.467 169 239.467 169c134 0 169.925 -68 148.42 -165l-76.4844 -345c-3.32617 -15 -3.65137 -30 -2.75488 -44h-126c0.103516 14 1.87305 31 2.75 53c-45.2031 -37 -100.967 -63 -163.967 -63c-76 0 -115.689 42 -96.1797 130
c27.9336 126 159.905 180 327.324 227l8.86816 40c10.4199 47 -14.5898 65 -50.5898 65c-38 0 -76.207 -28 -84.8535 -67zM338.707 134l29.2637 132c-80.7637 -26 -166.075 -68 -178.712 -125c-7.98047 -36 9.36328 -57 43.3633 -57c38 0 69.4346 20 106.085 50z
M382.903 604c-59 0 -95.3584 48 -82.2783 107c12.8584 58 70.7217 107 129.722 107c58 0 97.1367 -49 84.2783 -107c-13.0801 -59 -73.7217 -107 -131.722 -107zM418.375 764c-30 0 -57.3203 -24 -63.75 -53c-6.65039 -30 10.25 -53 40.25 -53c29 0 59.0996 23 65.75 53
c6.42969 29 -13.25 53 -42.25 53z" />
    <glyph glyph-name="atilde" unicode="&#xe3;" 
d="M259.353 385h-126c35.8252 121 138.467 169 239.467 169c134 0 169.925 -68 148.42 -165l-76.4844 -345c-3.32617 -15 -3.65137 -30 -2.75488 -44h-126c0.103516 14 1.87305 31 2.75 53c-45.2031 -37 -100.967 -63 -163.967 -63c-76 0 -115.689 42 -96.1797 130
c27.9336 126 159.905 180 327.324 227l8.86816 40c10.4199 47 -14.5898 65 -50.5898 65c-38 0 -76.207 -28 -84.8535 -67zM338.707 134l29.2637 132c-80.7637 -26 -166.075 -68 -178.712 -125c-7.98047 -36 9.36328 -57 43.3633 -57c38 0 69.4346 20 106.085 50z
M532.941 744h65c-26.9668 -63 -65.8252 -121 -137.825 -121c-54 0 -94.2412 35 -139.241 35c-25 0 -44.2119 -19 -54.3105 -42h-63c23.9668 63 71.0469 122 142.047 122c53 0 98.7969 -37 130.797 -37c24 0 46.2119 19 56.5332 43z" />
    <glyph glyph-name="ccedilla" unicode="&#xe7;" 
d="M527.924 356h-125l5.32031 24c9.31152 42 -15.8115 64 -59.8115 64s-78.877 -22 -88.1885 -64l-47.8857 -216c-9.31152 -42 15.8115 -64 59.8115 -64s78.877 22 88.1885 64l7.53711 34h126l-0.443359 -2c-31.9238 -144 -119.669 -206 -245.669 -206
s-186.255 62 -154.331 206l33.6973 152c31.9248 144 119.67 206 245.67 206c123 0 183.698 -60 155.104 -198zM67.9961 -203l28.3105 42c22.2266 -8 46.2314 -17 71.2314 -17c24 0 58.2168 10 64.6465 39c4.87695 22 -10.7979 37 -32.7979 37c-16 0 -30.8867 -4 -46.7734 -8
l-16.5654 20l78.9521 90h53l-55.5234 -61l1.55664 -2c10.3301 6 21.5518 7 32.5518 7c45 0 83.3496 -30 72.708 -78c-15.0752 -68 -89.8398 -94 -147.84 -94c-38 0 -71.5605 11 -103.457 25z" />
    <glyph glyph-name="eacute" unicode="&#xe9;" 
d="M503.65 242h-274l-15.9619 -72c-11.9717 -54 14.707 -78 56.707 -78c53 0 81.5381 34 90.8496 76h126c-30.8301 -112 -112.462 -178 -239.462 -178c-120 0 -183.595 74 -157.213 193l39.4619 178c26.3818 119 122.787 193 242.787 193c117 0 183.595 -74 158.986 -185z
M252.263 344h148l6.65137 30c10.6416 48 -5.70801 78 -56.708 78s-80.6504 -30 -91.292 -78zM425.602 756h155l-179.367 -146h-101z" />
    <glyph glyph-name="ecircumflex" unicode="&#xea;" 
d="M503.65 242h-274l-15.9619 -72c-11.9717 -54 14.707 -78 56.707 -78c53 0 81.5381 34 90.8496 76h126c-30.8301 -112 -112.462 -178 -239.462 -178c-120 0 -183.595 74 -157.213 193l39.4619 178c26.3818 119 122.787 193 242.787 193c117 0 183.595 -74 158.986 -185z
M252.263 344h148l6.65137 30c10.6416 48 -5.70801 78 -56.708 78s-80.6504 -30 -91.292 -78zM354.602 756h126l81.6328 -146h-113l-45.8213 82l-82.1787 -82h-113z" />
    <glyph glyph-name="edieresis" unicode="&#xeb;" 
d="M503.65 242h-274l-15.9619 -72c-11.9717 -54 14.707 -78 56.707 -78c53 0 81.5381 34 90.8496 76h126c-30.8301 -112 -112.462 -178 -239.462 -178c-120 0 -183.595 74 -157.213 193l39.4619 178c26.3818 119 122.787 193 242.787 193c117 0 183.595 -74 158.986 -185z
M252.263 344h148l6.65137 30c10.6416 48 -5.70801 78 -56.708 78s-80.6504 -30 -91.292 -78zM257.28 732h120l-25.2725 -114h-120zM447.28 732h120l-25.2725 -114h-120z" />
    <glyph glyph-name="egrave" unicode="&#xe8;" 
d="M503.65 242h-274l-15.9619 -72c-11.9717 -54 14.707 -78 56.707 -78c53 0 81.5381 34 90.8496 76h126c-30.8301 -112 -112.462 -178 -239.462 -178c-120 0 -183.595 74 -157.213 193l39.4619 178c26.3818 119 122.787 193 242.787 193c117 0 183.595 -74 158.986 -185z
M252.263 344h148l6.65137 30c10.6416 48 -5.70801 78 -56.708 78s-80.6504 -30 -91.292 -78zM254.602 756h155l60.6328 -146h-101z" />
    <glyph glyph-name="iacute" unicode="&#xed;" horiz-adv-x="278" 
d="M202 0h-126l120.603 544h126zM314.602 756h155l-179.367 -146h-101z" />
    <glyph glyph-name="icircumflex" unicode="&#xee;" horiz-adv-x="278" 
d="M202 0h-126l120.603 544h126zM243.602 756h126l81.6328 -146h-113l-45.8213 82l-82.1787 -82h-113z" />
    <glyph glyph-name="idieresis" unicode="&#xef;" horiz-adv-x="278" 
d="M202 0h-126l120.603 544h126zM146.28 732h120l-25.2725 -114h-120zM336.28 732h120l-25.2725 -114h-120z" />
    <glyph glyph-name="igrave" unicode="&#xec;" horiz-adv-x="278" 
d="M202 0h-126l120.603 544h126zM143.602 756h155l60.6328 -146h-101z" />
    <glyph glyph-name="ntilde" unicode="&#xf1;" 
d="M186 0h-126l120.603 544h122l-13.7451 -62c54.8672 40 104.962 72 156.962 72c77 0 108.354 -39 85.9619 -140l-91.7812 -414h-126l88.6777 400c7.98145 36 1.30176 60 -32.6982 60c-26 0 -60.542 -25 -92.8633 -49zM532.941 744h65
c-26.9668 -63 -65.8252 -121 -137.825 -121c-54 0 -94.2412 35 -139.241 35c-25 0 -44.2119 -19 -54.3105 -42h-63c23.9668 63 71.0469 122 142.047 122c53 0 98.7969 -37 130.797 -37c24 0 46.2119 19 56.5332 43z" />
    <glyph glyph-name="oacute" unicode="&#xf3;" 
d="M93.4521 196l33.6973 152c31.9248 144 119.67 206 245.67 206s186.255 -62 154.33 -206l-33.6973 -152c-31.9238 -144 -119.669 -206 -245.669 -206s-186.255 62 -154.331 206zM260.244 380l-47.8857 -216c-9.31152 -42 15.8115 -64 59.8115 -64s78.877 22 88.1885 64
l47.8857 216c9.31152 42 -15.8115 64 -59.8115 64s-78.877 -22 -88.1885 -64zM425.602 756h155l-179.367 -146h-101z" />
    <glyph glyph-name="ocircumflex" unicode="&#xf4;" 
d="M93.4521 196l33.6973 152c31.9248 144 119.67 206 245.67 206s186.255 -62 154.33 -206l-33.6973 -152c-31.9238 -144 -119.669 -206 -245.669 -206s-186.255 62 -154.331 206zM260.244 380l-47.8857 -216c-9.31152 -42 15.8115 -64 59.8115 -64s78.877 22 88.1885 64
l47.8857 216c9.31152 42 -15.8115 64 -59.8115 64s-78.877 -22 -88.1885 -64zM354.602 756h126l81.6328 -146h-113l-45.8213 82l-82.1787 -82h-113z" />
    <glyph glyph-name="odieresis" unicode="&#xf6;" 
d="M93.4521 196l33.6973 152c31.9248 144 119.67 206 245.67 206s186.255 -62 154.33 -206l-33.6973 -152c-31.9238 -144 -119.669 -206 -245.669 -206s-186.255 62 -154.331 206zM260.244 380l-47.8857 -216c-9.31152 -42 15.8115 -64 59.8115 -64s78.877 22 88.1885 64
l47.8857 216c9.31152 42 -15.8115 64 -59.8115 64s-78.877 -22 -88.1885 -64zM257.28 732h120l-25.2725 -114h-120zM447.28 732h120l-25.2725 -114h-120z" />
    <glyph glyph-name="ograve" unicode="&#xf2;" 
d="M93.4521 196l33.6973 152c31.9248 144 119.67 206 245.67 206s186.255 -62 154.33 -206l-33.6973 -152c-31.9238 -144 -119.669 -206 -245.669 -206s-186.255 62 -154.331 206zM260.244 380l-47.8857 -216c-9.31152 -42 15.8115 -64 59.8115 -64s78.877 22 88.1885 64
l47.8857 216c9.31152 42 -15.8115 64 -59.8115 64s-78.877 -22 -88.1885 -64zM254.602 756h155l60.6328 -146h-101z" />
    <glyph glyph-name="otilde" unicode="&#xf5;" 
d="M93.4521 196l33.6973 152c31.9248 144 119.67 206 245.67 206s186.255 -62 154.33 -206l-33.6973 -152c-31.9238 -144 -119.669 -206 -245.669 -206s-186.255 62 -154.331 206zM260.244 380l-47.8857 -216c-9.31152 -42 15.8115 -64 59.8115 -64s78.877 22 88.1885 64
l47.8857 216c9.31152 42 -15.8115 64 -59.8115 64s-78.877 -22 -88.1885 -64zM532.941 744h65c-26.9668 -63 -65.8252 -121 -137.825 -121c-54 0 -94.2412 35 -139.241 35c-25 0 -44.2119 -19 -54.3105 -42h-63c23.9668 63 71.0469 122 142.047 122
c53 0 98.7969 -37 130.797 -37c24 0 46.2119 19 56.5332 43z" />
    <glyph glyph-name="scaron" unicode="&#x161;" horiz-adv-x="444" 
d="M496.669 418l-112.868 -40c-5.91504 50 -32.5947 74 -70.5947 74c-29 0 -55.6553 -21 -61.8633 -49c-18.6221 -84 226.935 -86 191.02 -248c-23.9424 -108 -112.579 -165 -217.579 -165c-76 0 -139.788 19 -170.638 155l119.873 31c-0.306641 -51 23.377 -84 73.377 -84
c38 0 64.9912 18 71.6416 48c23.0566 104 -228.486 79 -187.916 262c22.835 103 116.698 152 205.698 152c94 0 147.028 -54 159.85 -136zM420.234 610h-126l-81.6328 146h113l45.8213 -82l82.1787 82h113z" />
    <glyph glyph-name="uacute" unicode="&#xfa;" 
d="M434.603 544h125.999l-120.602 -544h-122l13.7451 62c-54.8682 -40 -104.962 -72 -156.962 -72c-77 0 -108.354 39 -85.9629 140l91.7822 414h126l-88.6787 -400c-7.98047 -36 -1.30176 -60 32.6982 -60c26 0 60.543 25 92.8633 49zM416.602 756h155l-179.367 -146h-101z
" />
    <glyph glyph-name="ucircumflex" unicode="&#xfb;" 
d="M434.603 544h125.999l-120.602 -544h-122l13.7451 62c-54.8682 -40 -104.962 -72 -156.962 -72c-77 0 -108.354 39 -85.9629 140l91.7822 414h126l-88.6787 -400c-7.98047 -36 -1.30176 -60 32.6982 -60c26 0 60.543 25 92.8633 49zM345.602 756h126l81.6328 -146h-113
l-45.8213 82l-82.1787 -82h-113z" />
    <glyph glyph-name="udieresis" unicode="&#xfc;" 
d="M434.603 544h125.999l-120.602 -544h-122l13.7451 62c-54.8682 -40 -104.962 -72 -156.962 -72c-77 0 -108.354 39 -85.9629 140l91.7822 414h126l-88.6787 -400c-7.98047 -36 -1.30176 -60 32.6982 -60c26 0 60.543 25 92.8633 49zM248.28 732h120l-25.2725 -114h-120z
M438.28 732h120l-25.2725 -114h-120z" />
    <glyph glyph-name="ugrave" unicode="&#xf9;" 
d="M434.603 544h125.999l-120.602 -544h-122l13.7451 62c-54.8682 -40 -104.962 -72 -156.962 -72c-77 0 -108.354 39 -85.9629 140l91.7822 414h126l-88.6787 -400c-7.98047 -36 -1.30176 -60 32.6982 -60c26 0 60.543 25 92.8633 49zM245.602 756h155l60.6328 -146h-101z
" />
    <glyph glyph-name="yacute" unicode="&#xfd;" horiz-adv-x="444" 
d="M-10.1221 -190l24.3867 110c11.5566 -2 23.5566 -2 36.5566 -2c55 0 101.641 48 106.962 72c7.09375 32 5.29688 69 2.49512 115l-28.6758 439h128l5.18945 -360h2l158.811 360h127.999l-265.158 -542c-71.5889 -147 -133.009 -194 -259.009 -194
c-12 0 -25.7783 1 -39.5566 2zM397.602 756h155l-179.367 -146h-101z" />
    <glyph glyph-name="ydieresis" unicode="&#xff;" horiz-adv-x="444" 
d="M-10.1221 -190l24.3867 110c11.5566 -2 23.5566 -2 36.5566 -2c55 0 101.641 48 106.962 72c7.09375 32 5.29688 69 2.49512 115l-28.6758 439h128l5.18945 -360h2l158.811 360h127.999l-265.158 -542c-71.5889 -147 -133.009 -194 -259.009 -194
c-12 0 -25.7783 1 -39.5566 2zM229.28 732h120l-25.2725 -114h-120zM419.28 732h120l-25.2725 -114h-120z" />
    <glyph glyph-name="zcaron" unicode="&#x17e;" horiz-adv-x="444" 
d="M147.216 434l24.3867 110h361.999l-23.9424 -108l-303.272 -326h231l-24.3867 -110h-382l23.9434 108l299.272 326h-207zM420.234 610h-126l-81.6328 146h113l45.8213 -82l82.1787 82h113z" />
    </font>
</defs>
</svg>
