<?xml version="1.0" standalone="no"?>
<!DOCTYPE svg PUBLIC "-//W3C//DTD SVG 1.1//EN" "http://www.w3.org/Graphics/SVG/1.1/DTD/svg11.dtd" >
<svg xmlns="http://www.w3.org/2000/svg" width="100%" height="100%">
<metadata>
Created by FontXChange 20110222 at Tue Nov  8 16:28:15 2011
 By Dan Rempel
 The digitally encoded machine readable software for producing the
 Typefaces licensed to you is copyrighted (c) 1989 Adobe Systems.
 All rights reserved. This software is the property of Adobe Systems
 Incorporated and its licensors, and may not be reproduced, used,
 displayed, modified, disclosed, or transferred  without the express
 written approval of Adobe.

 The digitally encoded machine readable outline data for producing
 the Typefaces licensed to you is copyrighted (c) 1981 Linotype AG
 and/or its subsidiaries. All Rights Reserved.
 This data is the property of Linotype AG and/or its subsidiaries
 and may not be reproduced, used, displayed, modified, disclosed or
 transferred without the express written approval of Linotype AG
 and/or its subsidiaries. 
</metadata>
<defs>
<font id="TradeGothic-CondEighteenObl" horiz-adv-x="444" >
  <font-face 
    font-family="TradeGothic"
    font-weight="500"
    font-stretch="normal"
    units-per-em="1000"
    panose-1="2 0 6 3 0 0 0 0 0 0"
    ascent="800"
    descent="-200"
    x-height="520"
    cap-height="722"
    bbox="-169.217 -216 1062.96 950"
    underline-thickness="50"
    underline-position="-100"
    unicode-range="U+0020-FB02"
  />
    <missing-glyph />
    <glyph glyph-name="space" unicode=" " horiz-adv-x="222" 
 />
    <glyph glyph-name="exclam" unicode="!" horiz-adv-x="333" 
d="M187.442 214l96.6211 508h84l-128.621 -508h-52zM144.839 94h84l-20.8389 -94h-84z" />
    <glyph glyph-name="quotedbl" unicode="&#x22;" horiz-adv-x="333" 
d="M175.31 466l56.7539 256h62l-56.7539 -256h-62zM302.31 466l56.7539 256h62l-56.7539 -256h-62z" />
    <glyph glyph-name="numbersign" unicode="#" 
d="M464.739 283l-12.4141 -56h-84l-75.3252 -227h-59l75.3252 227h-99l-75.3252 -227h-59l76.3252 227h-84l12.4141 56h90l52.585 156h-83l12.415 56h88l76.3242 227h58l-75.3242 -227h99l75.3242 227h59l-76.3242 -227h79l-12.415 -56h-84l-52.585 -156h78zM380.324 439
h-99l-52.585 -156h100z" />
    <glyph glyph-name="dollar" unicode="$" 
d="M312.942 320l-57.6406 -260c58.1084 5 103.307 51 117.717 116c13.9668 63 -17.7227 105 -60.0762 144zM289.989 442l48.7725 220c-48.2168 -10 -87.084 -50 -98.3906 -101c-11.5283 -52 13.7119 -87 49.6182 -119zM81.8955 198h72
c-13.0752 -68 -4.8252 -121 51.4062 -138l65.1787 294c-62.1377 49 -125.388 102 -103.883 199c20.1738 91 96.0273 158 185.466 169l21.2832 96h50l-21.2832 -96c94.8965 -14 128.826 -91 109.435 -192h-72c9.19336 55 -0.504883 115 -50.7363 132l-56.5322 -255
c65.4727 -52 139.836 -109 113.454 -228c-22.835 -103 -103.688 -170 -203.684 -179l-25.7168 -116h-50l25.7168 116c-96.6748 15 -133.383 93 -110.104 198z" />
    <glyph glyph-name="percent" unicode="%" horiz-adv-x="778" 
d="M418.584 156c18.8447 85 101.585 156 190.585 156s140.26 -71 121.415 -156c-18.8438 -85 -101.584 -156 -190.584 -156s-140.26 71 -121.416 156zM478.584 156c-11.3057 -51 19.7178 -96 74.7178 -96s105.977 45 117.282 96c11.3066 51 -19.7168 96 -74.7168 96
s-105.977 -45 -117.283 -96zM171.479 566c18.8438 85 101.584 156 190.584 156s140.26 -71 121.416 -156s-101.585 -156 -190.585 -156s-140.259 71 -121.415 156zM231.479 566c-11.3066 -51 19.7168 -96 74.7168 -96s105.977 45 117.283 96s-19.7178 96 -74.7178 96
s-105.976 -45 -117.282 -96zM716.281 732h58l-578.498 -742h-58z" />
    <glyph glyph-name="ampersand" unicode="&#x26;" horiz-adv-x="556" 
d="M161.905 180c-16.4053 -74 14.5098 -124 93.5098 -124c40 0 85.207 28 114.302 60c-42.1465 67 -76.1895 148 -97.4492 219c-45.4238 -38 -97.9473 -99 -110.362 -155zM319.691 585c-12.1934 -55 -2.50391 -97 4.40625 -138c61.1934 55 103.392 101 117.58 165
c7.98047 36 -11.3682 66 -37.3682 66c-38 0 -68.8779 -22 -84.6182 -93zM489.594 350l69.1123 -4c-24.6221 -84 -46.5938 -138 -97.4424 -214c17.793 -28 42.0283 -54 70.708 -78l-53.9717 -54c-23.3398 12 -55.1318 40 -74.9248 68c-46.9766 -45 -110.292 -78 -170.292 -78
c-113 0 -169.26 71 -144.208 184c23.499 106 111.688 170 167.772 220c-10.1318 40 -23.0664 126 -9.98633 185c22.835 103 89.9189 153 159.919 153c80 0 121.143 -58 106.067 -126c-22.1699 -100 -96.8066 -157 -175.552 -219c19.8164 -73 47.1846 -139 84.8828 -199
c31.5283 52 50.7217 107 67.915 162z" />
    <glyph glyph-name="quoteright" unicode="&#x2019;" horiz-adv-x="222" 
d="M226.063 722h84l-22.1689 -100l-91.9238 -144h-30l79.2539 150h-40z" />
    <glyph glyph-name="parenleft" unicode="(" horiz-adv-x="278" 
d="M220.265 -80l-54.6514 -30c-55.293 134 -66.8027 258 -30.666 421c36.1357 163 102.626 287 217.333 421l41.3496 -30c-100.82 -130 -162.311 -254 -192.683 -391s-23.8623 -261 19.3174 -391z" />
    <glyph glyph-name="parenright" unicode=")" horiz-adv-x="278" 
d="M195.63 702l54.6504 30c55.293 -134 66.8027 -258 30.667 -421c-36.1367 -163 -102.627 -287 -217.334 -421l-41.3486 30c100.82 130 162.311 254 192.683 391s23.8623 261 -19.3174 391z" />
    <glyph glyph-name="asterisk" unicode="*" 
d="M415.063 722l-55.0273 -158l159.519 70l5.36816 -66l-161.095 -32l89.1709 -112l-67.7549 -44l-48.4062 138l-109.594 -138l-48.2451 44l138.829 112l-146.905 32l34.6318 66l128.481 -70l15.0273 158h66z" />
    <glyph glyph-name="plus" unicode="+" horiz-adv-x="600" 
d="M331.957 293l50.3242 227h66l-50.3242 -227h227l-14.6318 -66h-227l-50.3252 -227h-66l50.3252 227h-227l14.6318 66h227z" />
    <glyph glyph-name="comma" unicode="," horiz-adv-x="222" 
d="M89.8389 94h84l-22.1689 -100l-91.9238 -144h-30l79.2539 150h-40z" />
    <glyph glyph-name="hyphen" unicode="-" horiz-adv-x="333" 
d="M339.325 227h-246l14.6318 66h246z" />
    <glyph glyph-name="period" unicode="." horiz-adv-x="222" 
d="M89.8389 94h84l-20.8389 -94h-84z" />
    <glyph glyph-name="slash" unicode="/" horiz-adv-x="278" 
d="M53.7832 -10h-66l396.497 742h66z" />
    <glyph glyph-name="zero" unicode="0" 
d="M404.032 361c52.541 237 32.9473 311 -33.0527 311s-118.406 -74 -170.947 -311c-52.542 -237 -32.9473 -311 33.0527 -311s118.405 74 170.947 311zM476.032 361c-57.8623 -261 -138.249 -371 -256.249 -371s-149.613 110 -91.751 371s138.248 371 256.248 371
s149.614 -110 91.752 -371z" />
    <glyph glyph-name="one" unicode="1" 
d="M350 0h-244l13.3018 60h88l128.583 580l-91.7734 -8l9.75488 44c43.2168 10 87.207 28 126.414 56h48l-148.979 -672h84z" />
    <glyph glyph-name="two" unicode="2" 
d="M388 0h-340l13.3018 60c111.442 214 338.046 334 374.404 498c16.8486 76 -12.7266 114 -61.7266 114c-57 0 -108.755 -44 -138.698 -152h-66c44.3584 164 128.999 212 215.999 212c95 0 146.812 -64 120.209 -184c-39.9053 -180 -214.32 -236 -378.188 -488h274z" />
    <glyph glyph-name="three" unicode="3" 
d="M252.366 570l-64.2266 8c26.8438 85 88.1406 154 181.141 154c81 0 148.586 -56 121.982 -176c-22.6133 -102 -77.4717 -160 -131.688 -170l-0.443359 -2c75.0146 -27 83.165 -103 66.0947 -180c-32.8105 -148 -133.442 -214 -223.442 -214
c-96 0 -143.93 77 -121.651 182h66c-11.293 -78 12.9531 -122 76.9531 -122c48 0 107.528 52 129.476 151c26.3818 119 -16.0801 153 -130.08 153l13.3008 60c108 0 157.765 26 182.595 138c19.0654 86 -7.39648 120 -57.3965 120c-62 0 -95.5283 -52 -108.613 -102z" />
    <glyph glyph-name="four" unicode="4" 
d="M398.432 656l-256.771 -432h163l95.7715 432h-2zM382.063 722h105l-110.403 -498h75l-13.3018 -60h-75l-36.3584 -164h-72l36.3584 164h-231l7.53711 34z" />
    <glyph glyph-name="five" unicode="5" 
d="M91.915 162l67.3301 6c-5.52832 -52 1.83984 -118 65.8398 -118c62 0 122.188 64 149.9 189c29.9287 135 -6.76074 177 -59.7607 177c-41 0 -85.8721 -31 -106.519 -70l-53.7822 10l105.14 366h254l-19.3018 -60h-190l-62.7725 -220c29.6553 21 66.5371 34 103.537 34
c84 0 136.708 -78 101.902 -235c-36.5801 -165 -135.646 -251 -231.646 -251c-104 0 -138.708 78 -123.868 172z" />
    <glyph glyph-name="six" unicode="6" 
d="M507.243 592l-66.8867 -4c5.96191 72 -31.377 84 -59.377 84c-64 0 -123.51 -88 -170.07 -289c35.8721 31 80.1934 55 123.193 55c81 0 142.142 -58 105.783 -222c-31.0371 -140 -110.103 -226 -205.103 -226c-125 0 -169.038 72 -111.397 332
c64.292 290 158.895 410 272.895 410c93 0 115.586 -56 110.963 -140zM194.056 316l-15.0752 -68c-32.3672 -146 -5.89551 -198 58.1045 -198c56 0 103.311 42 131.022 167c28.5986 129 -8.30664 161 -54.3066 161s-88.6514 -30 -119.745 -62z" />
    <glyph glyph-name="seven" unicode="7" 
d="M206.762 662l13.3018 60h324l-8.42383 -38l-361.64 -684h-76l356.762 662h-248z" />
    <glyph glyph-name="eight" unicode="8" 
d="M367.684 179c17.292 78 -20.5098 124 -68.9775 167c-67.5322 -43 -125.73 -89 -143.022 -167c-13.0801 -59 3.40137 -129 77.4014 -129s121.519 70 134.599 129zM440.14 578c10.1982 46 -7.16016 94 -69.1602 94s-100.642 -48 -110.84 -94
c-16.1836 -73 7.84473 -127 54.5293 -160c61.3154 33 109.287 87 125.471 160zM440.349 182c-23.0566 -104 -108.565 -192 -220.565 -192s-158.491 88 -135.435 192c19.7305 89 80.9189 153 160.782 202c-52.6934 51 -77.6084 101 -58.7646 186
c21.0605 95 107.914 162 197.914 162s147.146 -67 126.086 -162c-18.8438 -85 -65.9287 -135 -141.235 -186c58.1367 -49 90.9482 -113 71.2178 -202z" />
    <glyph glyph-name="nine" unicode="9" 
d="M96.8203 130l66.8867 4c-5.96191 -72 31.3779 -84 59.3779 -84c64 0 123.509 88 170.069 289c-35.8721 -31 -80.1934 -55 -123.193 -55c-81 0 -142.142 58 -105.783 222c31.0371 140 110.103 226 205.103 226c125 0 169.038 -72 111.397 -332
c-64.291 -290 -158.895 -410 -272.895 -410c-93 0 -115.585 56 -110.963 140zM410.008 406l15.0752 68c32.3682 146 5.89648 198 -58.1035 198c-56 0 -103.312 -42 -131.023 -167c-28.5986 -129 8.30664 -161 54.3066 -161s88.6514 30 119.745 62z" />
    <glyph glyph-name="colon" unicode=":" horiz-adv-x="222" 
d="M89.8389 94h84l-20.8389 -94h-84zM150.141 366h84l-20.8398 -94h-84z" />
    <glyph glyph-name="semicolon" unicode=";" horiz-adv-x="222" 
d="M89.8389 94h84l-22.1689 -100l-91.9238 -144h-30l79.2539 150h-40zM150.141 366h84l-20.8398 -94h-84z" />
    <glyph glyph-name="less" unicode="&#x3c;" horiz-adv-x="600" 
d="M575.962 72l-15.2969 -69l-468.566 232l11.084 50l571.434 232l-15.2969 -69l-463.679 -188z" />
    <glyph glyph-name="equal" unicode="=" horiz-adv-x="600" 
d="M114.046 334l14.6318 66h520l-14.6318 -66h-520zM66.6035 120l14.6318 66h520l-14.6318 -66h-520z" />
    <glyph glyph-name="greater" unicode="&#x3e;" horiz-adv-x="600" 
d="M40.665 3l15.2969 69l463.679 188l-380.321 188l15.2969 69l468.566 -232l-11.084 -50z" />
    <glyph glyph-name="question" unicode="?" horiz-adv-x="389" 
d="M234.442 214h-56l11.085 50c34.585 156 164.565 192 196.046 334c11.5283 52 -13.5938 74 -41.5938 74c-44 0 -77.4199 -47 -90.0664 -86l-57.3398 12c23.6279 75 83.707 134 163.707 134c67 0 117.246 -44 97.293 -134c-37.2441 -168 -181.896 -198 -214.263 -344z
M131.839 94h84l-20.8389 -94h-84z" />
    <glyph glyph-name="at" unicode="@" horiz-adv-x="800" 
d="M394.226 204c87 0 184.042 131 201.999 212c10.6416 48 -18.1602 94 -60.1602 94c-93 0 -185.269 -123 -204.334 -209c-12.6367 -57 12.4951 -97 62.4951 -97zM644.961 496l35.7451 62h63l-148.519 -282c-10.2119 -19 -18.6455 -39 -21.9707 -54
c-3.32617 -15 1.45703 -25 16.457 -25c71 0 174.16 118 197.66 224c35.0273 158 -74.4678 255 -220.468 255c-175 0 -336.703 -143 -374.391 -313c-40.127 -181 67.7227 -317 239.723 -317c94 0 200.976 45 272.382 119h63c-88.165 -109 -222.797 -175 -349.797 -175
c-211 0 -337.421 165 -291.308 373c45.4473 205 248.805 369 451.806 369c184 0 309.623 -128 270.161 -306c-37.9102 -171 -202.849 -288 -296.849 -288c-34 0 -56.123 22 -50.3682 66l-2.22168 -1c-36.0938 -32 -88.4102 -65 -136.41 -65c-85 0 -127.26 71 -108.415 156
c30.1504 136 155.074 280 296.074 280c46 0 83.123 -22 94.708 -78z" />
    <glyph glyph-name="A" unicode="A" 
d="M369.092 668l-166.018 -388h162l6.01758 388h-2zM328.063 722h108l-1.06348 -722h-78l4.44238 214h-184l-90.4424 -214h-78z" />
    <glyph glyph-name="B" unicode="B" horiz-adv-x="500" 
d="M66 0l160.063 722h192c108 0 154.038 -72 130.538 -178c-15.9619 -72 -62.3721 -137 -145.471 -160l-0.443359 -2c81.9014 -23 105.604 -92 85.6514 -182c-29.707 -134 -118.339 -200 -276.339 -200h-146zM220.706 346l-62.0742 -280h78c94 0 153.09 41 173.707 134
c21.0615 95 -9.63281 146 -111.633 146h-78zM289.432 656l-54.0938 -244h44c112 0 169.538 34 191.265 132c18.1787 82 -11.1709 112 -103.171 112h-78z" />
    <glyph glyph-name="C" unicode="C" horiz-adv-x="500" 
d="M551.734 504h-78c15.2734 114 -10.0859 162 -71.0859 162c-91 0 -148.735 -80 -198.616 -305c-49.8818 -225 -27.6172 -305 63.3828 -305c73 0 126.085 50 157.792 184h78c-37.4717 -160 -127.424 -250 -250.424 -250c-129 0 -187.274 98 -126.751 371
c60.5225 273 162.248 371 291.248 371c107.001 0 156.595 -74 134.454 -228z" />
    <glyph glyph-name="D" unicode="D" horiz-adv-x="500" 
d="M289.432 656l-130.8 -590h42c114 0 190.642 48 245.4 295s-0.600586 295 -114.601 295h-42zM66 0l160.063 722h134c152 0 225.378 -84 163.969 -361c-61.4102 -277 -172.032 -361 -324.032 -361h-134z" />
    <glyph glyph-name="E" unicode="E" 
d="M226.063 722h330l-14.6318 -66h-252l-54.5371 -246h186l-14.6318 -66h-186l-61.6309 -278h264l-14.6318 -66h-342z" />
    <glyph glyph-name="F" unicode="F" horiz-adv-x="389" 
d="M66 0l160.063 722h310l-14.6318 -66h-232l-54.5371 -246h174l-14.6318 -66h-174l-76.2627 -344h-78z" />
    <glyph glyph-name="G" unicode="G" horiz-adv-x="500" 
d="M554.848 500h-78c14.8389 94 2.80078 166 -76.1992 166c-87 0 -146.292 -78 -196.616 -305c-50.3252 -227 -25.6172 -305 61.3828 -305c73 0 121.868 40 138.273 114l22.6123 102h-98l14.6318 66h176l-74.9326 -338h-50l1.97168 54
c-38.8682 -40 -86.1885 -64 -145.188 -64c-127 0 -185.274 98 -124.751 371c60.5225 273 162.248 371 289.248 371c133.001 0 155.284 -116 139.567 -232z" />
    <glyph glyph-name="H" unicode="H" horiz-adv-x="500" 
d="M226.063 722h78l-69.1689 -312h212l69.1689 312h78l-160.063 -722h-78l76.2627 344h-212l-76.2627 -344h-78z" />
    <glyph glyph-name="I" unicode="I" horiz-adv-x="222" 
d="M232.063 722h78l-160.063 -722h-78z" />
    <glyph glyph-name="J" unicode="J" horiz-adv-x="278" 
d="M294.063 722h78l-120.158 -542c-32.8115 -148 -92.1221 -190 -220.122 -190c-10 0 -24.335 3 -38.6699 6l21.0752 68c12.8916 -5 27.2266 -8 43.2266 -8c63 0 94.9854 27 112.5 106z" />
    <glyph glyph-name="K" unicode="K" 
d="M216.063 722h78l-81.583 -368h2l283.583 368h84l-195.867 -252l61.8037 -470h-84l-47.5391 390h-2l-131.245 -168l-49.2158 -222h-78z" />
    <glyph glyph-name="L" unicode="L" horiz-adv-x="389" 
d="M226.063 722h78l-145.432 -656h234l-14.6318 -66h-312z" />
    <glyph glyph-name="M" unicode="M" horiz-adv-x="611" 
d="M216.063 722h124l4.95508 -546h2l244.045 546h124l-160.063 -722h-72l146.762 662h-2l-296.762 -662h-51l-3.23828 662h-2l-146.762 -662h-72z" />
    <glyph glyph-name="N" unicode="N" horiz-adv-x="500" 
d="M216.063 722h122l68.0586 -532h2l117.941 532h78l-160.063 -722h-84l-84.7754 628h-2l-139.225 -628h-78z" />
    <glyph glyph-name="O" unicode="O" horiz-adv-x="500" 
d="M456.032 361c54.3154 245 11.6162 305 -58.3838 305s-139.301 -60 -193.616 -305s-11.6172 -305 58.3828 -305s139.302 60 193.617 305zM534.032 361c-59.6367 -269 -164.249 -371 -286.249 -371s-181.388 102 -121.751 371c59.6357 269 164.248 371 286.248 371
c122.001 0 181.388 -102 121.752 -371z" />
    <glyph glyph-name="P" unicode="P" 
d="M56 0l160.063 722h170c116 0 174.708 -78 148.104 -198s-119.896 -198 -235.896 -198h-92l-72.2725 -326h-78zM279.432 656l-58.5273 -264h82c78 0 133.312 42 153.264 132c19.9531 90 -16.7363 132 -94.7363 132h-82z" />
    <glyph glyph-name="Q" unicode="Q" horiz-adv-x="500" 
d="M297.037 140l14.1885 64c32.7832 -10 54.9062 -32 70.9199 -59c27.1982 46 51.4951 115 73.8867 216c54.3154 245 11.6162 305 -58.3838 305s-139.301 -60 -193.616 -305s-11.6172 -305 58.3828 -305c26 0 51.7734 8 77.0938 32c-10.3438 21 -23.5752 38 -42.4717 52z
M476.66 12l-15.0752 -68c-56.335 3 -82.7969 37 -99.8213 82c-35.542 -25 -73.9805 -36 -113.98 -36c-122 0 -181.388 102 -121.751 371c59.6357 269 164.248 371 286.248 371c122.001 0 181.388 -102 121.752 -371c-29.707 -134 -70.3252 -227 -119.405 -286
c11.5713 -29 27.6982 -60 62.0332 -63z" />
    <glyph glyph-name="R" unicode="R" horiz-adv-x="500" 
d="M289.432 656l-55.4238 -250h68c112 0 157.755 44 175.712 125c17.958 81 -8.28809 125 -120.288 125h-68zM66 0l160.063 722h174c116 0 182.925 -68 156.543 -187c-17.957 -81 -69.0322 -149 -155.239 -177l42.6328 -358h-82l-40.1807 342l-102.887 -4l-74.9326 -338h-78
z" />
    <glyph glyph-name="S" unicode="S" 
d="M514.828 536h-72c10.4062 74 -7.17969 130 -82.1797 130c-60 0 -107.867 -40 -120.061 -95c-36.1367 -163 253.42 -165 201.987 -397c-25.4951 -115 -106.792 -184 -225.792 -184c-113 0 -162.6 83 -137.774 204h72c-16.8438 -85 11.4062 -138 88.4062 -138
c65 0 116.312 42 133.382 119c36.3574 164 -249.43 183 -203.761 389c22.6123 102 107.244 168 211.244 168s156.481 -70 134.548 -196z" />
    <glyph glyph-name="T" unicode="T" horiz-adv-x="389" 
d="M167.063 722h374l-14.6318 -66h-148l-145.432 -656h-78l145.432 656h-148z" />
    <glyph glyph-name="U" unicode="U" horiz-adv-x="500" 
d="M226.063 722h78l-117.498 -530c-16.1836 -73 -9.15039 -136 75.8496 -136s119.967 63 136.15 136l117.498 530h78l-117.941 -532c-25.7168 -116 -98.3389 -200 -228.339 -200s-165.378 84 -139.661 200z" />
    <glyph glyph-name="V" unicode="V" 
d="M176.063 722h78l0.19043 -572h2l253.81 572h78l-330.063 -722h-72z" />
    <glyph glyph-name="W" unicode="W" horiz-adv-x="611" 
d="M166.063 722h72l-39.0361 -564h2l233.036 564h64l-13.0361 -564h2l205.036 564h72l-276.063 -722h-66l11.7012 567h-2l-239.701 -567h-66z" />
    <glyph glyph-name="X" unicode="X" 
d="M180.063 722h84l53.2461 -256l158.754 256h84l-216.933 -338l86.8691 -384h-84l-65.0479 302l-182.952 -302h-84l241.131 384z" />
    <glyph glyph-name="Y" unicode="Y" 
d="M176.063 722h84l53.9443 -316l190.056 316h84l-258.225 -416l-67.8389 -306h-78l67.8389 306z" />
    <glyph glyph-name="Z" unicode="Z" 
d="M228.063 722h332l-11.9717 -54l-401.46 -602h268l-14.6318 -66h-356l12.415 56l393.017 600h-236z" />
    <glyph glyph-name="bracketleft" unicode="[" horiz-adv-x="278" 
d="M37.8301 -100l182.233 822h184l-8.86719 -40h-118l-164.498 -742h118l-8.86816 -40h-184z" />
    <glyph glyph-name="backslash" unicode="\" horiz-adv-x="278" 
d="M285.783 -10h-66l-67.5029 742h66z" />
    <glyph glyph-name="bracketright" unicode="]" horiz-adv-x="278" 
d="M378.063 722l-182.233 -822h-184l8.86816 40h118l164.498 742h-118l8.86719 40h184z" />
    <glyph glyph-name="asciicircum" unicode="^" horiz-adv-x="600" 
d="M127.4 295l304.663 427h56l115.337 -427h-72l-90.1807 342l-241.819 -342h-72z" />
    <glyph glyph-name="underscore" unicode="_" horiz-adv-x="500" 
d="M472.288 -125h-500l11.085 50h500z" />
    <glyph glyph-name="quoteleft" unicode="&#x2018;" horiz-adv-x="222" 
d="M264.188 488h-84l22.1689 100l91.9238 144h30l-79.2539 -150h40z" />
    <glyph glyph-name="a" unicode="a" 
d="M209.584 368l-63.7832 10c32.1787 82 95.6973 152 187.697 152c96 0 136.585 -56 116.189 -148l-64.292 -290c-10.1973 -46 -12.7354 -80 -7.39551 -92h-75l0.754883 44c-34.208 -28 -89.9717 -54 -122.972 -54c-81 0 -123.472 52 -105.293 134
c28.377 128 183.787 193 292.886 216l8.20312 37c12.6367 57 -8.38281 93 -54.3828 93c-55 0 -94.1924 -55 -112.612 -102zM316.057 104l39.0176 176c-70.4336 -20 -188.075 -68 -206.254 -150c-10.8633 -49 4.26465 -80 56.2646 -80c39 0 78.9854 27 110.972 54z" />
    <glyph glyph-name="b" unicode="b" 
d="M149.085 50l-27.085 -50h-56c14.6504 30 27.9619 72 43.0371 140l129.026 582h72l-53.2061 -240c29.3203 24 67.6406 48 106.641 48c82 0 134.481 -70 90.1426 -270s-127.857 -270 -209.857 -270c-46 0 -76.9014 23 -94.6982 60zM243.999 424l-71.8291 -324
c15.3486 -30 42.915 -50 64.915 -50c60 0 109.085 50 144.556 210c35.4717 160 11.5557 210 -49.4443 210c-32 0 -62.542 -25 -88.1973 -46z" />
    <glyph glyph-name="c" unicode="c" horiz-adv-x="389" 
d="M427.141 366h-70c10.292 78 -14.9443 104 -58.9443 104c-61 0 -95.4238 -38 -133.556 -210s-20.5557 -210 40.4443 -210c46 0 77.3203 24 109.273 114h70c-34.6133 -102 -98.5752 -174 -192.575 -174c-109 0 -140.821 82 -99.1426 270s109.857 270 218.857 270
c94 0 124.255 -62 115.643 -164z" />
    <glyph glyph-name="d" unicode="d" 
d="M310 0l8.08496 50h-2c-33.2031 -37 -74.3018 -60 -120.302 -60c-82 0 -134.481 70 -90.1426 270s127.857 270 209.857 270c39 0 66.6797 -24 85.3594 -48l53.2061 240h72l-129.026 -582c-15.0752 -68 -20.3867 -110 -19.0371 -140h-68zM316.17 100l71.8291 324
c-16.3447 21 -35.8027 46 -67.8027 46c-61 0 -107.084 -50 -142.556 -210c-35.4707 -160 -8.55566 -210 51.4443 -210c22 0 58.4336 20 87.085 50z" />
    <glyph glyph-name="e" unicode="e" horiz-adv-x="389" 
d="M175.282 308h174c22.8301 112 13.9141 162 -51.0859 162c-52 0 -94.4238 -38 -122.914 -162zM407.98 248h-246l-6.42969 -29c-28.1553 -127 -8.46582 -169 59.5342 -169c55 0 89.3066 51 108.726 98l66.2266 -8c-28.292 -78 -103.254 -150 -198.254 -150
c-109 0 -140.821 82 -99.1426 270s109.857 270 218.857 270c110 0 137.274 -98 104.02 -248z" />
    <glyph glyph-name="f" unicode="f" horiz-adv-x="278" 
d="M119.979 460l13.3018 60h80l23.5 106c15.5186 70 51.499 106 129.499 106c19 0 38.335 -3 54.6699 -6l-12.415 -56c-11.6689 6 -24.2256 8 -37.2256 8c-35 0 -55.8779 -22 -63.1934 -55l-22.835 -103h84l-13.3018 -60h-84l-101.979 -460h-72l101.979 460h-80z" />
    <glyph glyph-name="g" unicode="g" 
d="M326.688 -42c10.6416 48 -77.585 56 -136.481 70c-45.9902 -18 -79.3105 -42 -85.7402 -71c-9.53223 -43 19.8164 -73 97.8164 -73c80 0 115.095 32 124.405 74zM216.484 345c-21.9473 -99 4.95801 -131 46.958 -131s83.0947 32 105.042 131
c21.9482 99 -4.95801 131 -46.958 131s-83.0938 -32 -105.042 -131zM525.498 530l-14.6318 -66c-7.55664 2 -13.5566 2 -20.5566 2c-19 0 -33.7734 -8 -49.4336 -20c2.90527 -32 3.1416 -58 -6.16992 -100c-28.8203 -130 -101.235 -186 -181.235 -186
c-16 0 -31.1123 4 -47.1123 4c-12.665 -3 -39.1045 -14 -43.5381 -34c-8.20312 -37 50.3535 -39 114.25 -53c71.4531 -16 133.133 -40 114.288 -125c-15.0752 -68 -93.0469 -122 -203.047 -122c-118 0 -168.245 44 -153.17 112c10.1982 46 47.6221 84 99.0566 104
c-28.7832 10 -48.2412 35 -40.4814 70c8.64551 39 47.9668 63 83.2969 69c-34.5713 29 -40.9395 95 -28.9678 149c27.4902 124 103.452 196 194.452 196c34 0 74.6748 -15 84.3594 -48c22.207 28 54.6406 48 98.6406 48z" />
    <glyph glyph-name="h" unicode="h" 
d="M72 0l160.063 722h72l-57.4189 -259c37.7598 35 94.8535 67 128.854 67c72 0 105.133 -40 83.8496 -136l-87.3477 -394h-72l85.1309 384c13.3018 60 1.06543 86 -37.9346 86c-35 0 -72.3203 -24 -113.188 -64l-90.0078 -406h-72z" />
    <glyph glyph-name="i" unicode="i" horiz-adv-x="222" 
d="M75 0l115.281 520h72l-115.281 -520h-72zM216.441 638l18.6221 84h72l-18.6221 -84h-72z" />
    <glyph glyph-name="j" unicode="j" horiz-adv-x="222" 
d="M-32.8018 -166l13.3018 60c8.55664 -2 16.1133 -4 23.1133 -4c32 0 53.9912 18 64.1885 64l125.479 566h72l-126.81 -572c-19.0654 -86 -60.1602 -118 -132.16 -118c-13 0 -25.5566 2 -39.1133 4zM219.441 638l18.6221 84h72l-18.6221 -84h-72z" />
    <glyph glyph-name="k" unicode="k" horiz-adv-x="389" 
d="M66 0l160.063 722h72l-101.093 -456h2l194.311 254h74l-132.801 -166l41.5195 -354h-74l-31.4824 282h-2l-96.377 -128l-34.1406 -154h-72z" />
    <glyph glyph-name="l" unicode="l" horiz-adv-x="222" 
d="M75 0l160.063 722h72l-160.063 -722h-72z" />
    <glyph glyph-name="m" unicode="m" horiz-adv-x="667" 
d="M152 0h-72l115.281 520h66l-12.6367 -57c35.3164 33 85.8535 67 135.854 67c41 0 74.0146 -27 78.3682 -66c36.0947 32 84.6318 66 135.632 66c68 0 94.8027 -46 78.3965 -120l-90.8945 -410h-72l88.6777 400c11.9717 54 -0.481445 70 -38.4814 70
c-44 0 -75.8721 -31 -102.972 -54l-92.2246 -416h-72l88.6777 400c11.9717 54 -3.48145 70 -41.4814 70c-44 0 -75.8721 -31 -99.9707 -54z" />
    <glyph glyph-name="n" unicode="n" 
d="M72 0l115.281 520h68l-12.6367 -57c41.7598 35 98.8535 67 132.854 67c72 0 105.133 -40 83.8496 -136l-87.3477 -394h-72l85.1309 384c13.3018 60 1.06543 86 -37.9346 86c-35 0 -72.3203 -24 -113.188 -64l-90.0078 -406h-72z" />
    <glyph glyph-name="o" unicode="o" horiz-adv-x="389" 
d="M164.641 260c-38.1318 -172 -20.5557 -210 40.4443 -210s95.4238 38 133.556 210s20.5557 210 -40.4443 210s-95.4238 -38 -133.556 -210zM92.6406 260c41.6787 188 109.857 270 218.857 270s140.821 -82 99.1426 -270s-109.857 -270 -218.857 -270
s-140.821 82 -99.1426 270z" />
    <glyph glyph-name="p" unicode="p" 
d="M253.281 520l-11.085 -50h2c32.2031 37 73.3018 60 119.302 60c82 0 134.481 -70 90.1426 -270s-127.857 -270 -209.857 -270c-39 0 -66.6797 24 -85.3584 48l-46.1133 -208h-72l152.97 690h60zM243.112 420l-71.8291 -324c16.3438 -21 35.8018 -46 67.8018 -46
c61 0 107.085 50 142.556 210c35.4717 160 8.55566 210 -51.4443 210c-22 0 -58.4336 -20 -87.084 -50z" />
    <glyph glyph-name="q" unicode="q" 
d="M410.196 470l11.085 50h60l-152.97 -690h-72l46.1133 208c-29.3213 -24 -67.6416 -48 -106.642 -48c-82 0 -134.481 70 -90.1426 270s127.857 270 209.857 270c46 0 76.9014 -23 92.6982 -60h2zM315.283 96l71.8291 324c-15.3496 30 -42.916 50 -64.916 50
c-60 0 -109.084 -50 -144.556 -210c-35.4707 -160 -11.5557 -210 49.4443 -210c32 0 62.542 25 88.1982 46z" />
    <glyph glyph-name="r" unicode="r" horiz-adv-x="278" 
d="M66 0l115.281 520h72l-13.9668 -63h2c56.9668 63 91.1836 73 148.184 73l-15.0752 -68c-54 0 -98.9902 -18 -154.396 -92l-82.0273 -370h-72z" />
    <glyph glyph-name="s" unicode="s" horiz-adv-x="389" 
d="M424.008 406l-63.9902 -18c-3.02344 45 -13.8213 82 -71.8213 82c-34 0 -63.9854 -27 -71.7451 -62c-23.499 -106 195.171 -112 159.256 -274c-18.1787 -82 -91.9238 -144 -173.924 -144c-94 0 -129.693 51 -135.406 138l69.1035 14c4.80273 -46 21.6045 -92 74.6045 -92
c39 0 82.9805 36 92.5137 79c26.6035 120 -192.953 122 -159.034 275c15.0752 68 83.9336 126 162.934 126c80 0 117.803 -46 117.51 -124z" />
    <glyph glyph-name="t" unicode="t" horiz-adv-x="278" 
d="M109.979 460l13.3018 60h70l38.5752 174h72l-38.5752 -174h96l-13.3018 -60h-96l-80.6963 -364c-6.65137 -30 4.47168 -52 40.4717 -52c14 0 33.3301 6 46.2168 10l-11.9717 -54c-21.3301 -6 -40.2168 -10 -70.2168 -10c-68 0 -92.9062 32 -75.1699 112l79.3662 358h-70z
" />
    <glyph glyph-name="u" unicode="u" 
d="M487.281 520l-115.281 -520h-68l12.6367 57c-41.7598 -35 -98.8535 -67 -132.854 -67c-72 0 -105.133 40 -83.8496 136l87.3477 394h72l-85.1309 -384c-13.3018 -60 -1.06543 -86 37.9346 -86c35 0 72.3203 24 113.188 64l90.0078 406h72z" />
    <glyph glyph-name="v" unicode="v" horiz-adv-x="389" 
d="M133.281 520h72l4.68066 -448h2l201.319 448h72l-243.281 -520h-96z" />
    <glyph glyph-name="w" unicode="w" horiz-adv-x="556" 
d="M133.281 520h68l-10.6875 -382h2l168.688 382h68l1.3125 -382h2l152.688 382h68l-223.281 -520h-60l-0.435547 404h-2l-179.564 -404h-60z" />
    <glyph glyph-name="x" unicode="x" horiz-adv-x="333" 
d="M180.857 270l-64.5762 250h74l45.6514 -182l116.349 182h74l-167.424 -250l72.1426 -270h-74l-48.7744 204l-133.226 -204h-74z" />
    <glyph glyph-name="y" unicode="y" horiz-adv-x="333" 
d="M117.281 520h74l9.76562 -398h2l168.234 398h74l-231.843 -509c-52.2734 -114 -117.127 -181 -204.127 -181h-37l13.3018 60h22c57 0 103.09 41 133.273 114z" />
    <glyph glyph-name="z" unicode="z" horiz-adv-x="333" 
d="M140.979 460l13.3018 60h270l-10.6416 -48l-297.338 -412h206l-13.3018 -60h-286l11.9717 54l290.008 406h-184z" />
    <glyph glyph-name="braceleft" unicode="{" horiz-adv-x="278" 
d="M80.5137 291l8.86719 40c41 0 62.4336 20 76.623 84l48.9941 221c14.1885 64 59.2822 96 115.282 96h64l-8.86719 -40h-52c-26 0 -43.9902 -18 -51.5283 -52l-52.0986 -235c-13.7451 -62 -59.5088 -88 -96.6172 -93l-0.443359 -2c34.8916 -5 69.127 -31 55.3818 -93
l-52.0977 -235c-7.53809 -34 2.47168 -52 28.4717 -52h52l-8.86816 -40h-64c-56 0 -86.9053 32 -72.7168 96l48.9941 221c14.1885 64 1.62305 84 -39.377 84z" />
    <glyph glyph-name="bar" unicode="|" horiz-adv-x="222" 
d="M75.7832 -10l164.497 742h66l-164.497 -742h-66z" />
    <glyph glyph-name="braceright" unicode="}" horiz-adv-x="278" 
d="M335.381 331l-8.86719 -40c-41 0 -62.4346 -20 -76.623 -84l-48.9941 -221c-14.1885 -64 -59.2832 -96 -115.283 -96h-64l8.86816 40h52c26 0 43.9902 18 51.5283 52l52.0977 235c13.7451 62 59.5098 88 96.6182 93l0.443359 2c-34.8916 5 -69.1279 31 -55.3828 93
l52.0986 235c7.53809 34 -2.47168 52 -28.4717 52h-52l8.86719 40h64c56 0 86.9062 -32 72.7178 -96l-48.9941 -221c-14.1895 -64 -1.62305 -84 39.377 -84z" />
    <glyph glyph-name="asciitilde" unicode="~" horiz-adv-x="600" 
d="M575.381 331l26.915 -50c-34.5322 -43 -81.5088 -88 -150.509 -88c-35 0 -71.6748 15 -107.684 33c-34.4531 16 -69.2412 35 -97.2412 35c-41 0 -74.9805 -36 -106.962 -72l-26.915 50c34.5322 43 81.5088 88 150.509 88c35 0 71.6748 -15 107.685 -33
c34.4521 -16 69.2402 -35 97.2402 -35c41 0 74.9814 36 106.962 72z" />
    <glyph glyph-name="exclamdown" unicode="&#xa1;" horiz-adv-x="333" 
d="M260.839 306l-96.6211 -508h-84l128.621 508h52zM303.442 426h-84l20.8389 94h84z" />
    <glyph glyph-name="cent" unicode="&#xa2;" 
d="M177.505 97l170.243 380c-5.55664 2 -13.334 3 -21.334 3c-61 0 -95.4248 -38 -133.557 -210c-20.1738 -91 -24.9238 -144 -15.3525 -173zM380.876 446l-170.909 -383c6.55664 -2 14.335 -3 23.335 -3c46 0 77.3203 24 109.273 114h70
c-34.6133 -102 -98.5752 -174 -192.575 -174c-14 0 -25.7783 1 -35.8916 5l-53.3818 -119h-48l61.1504 136c-45.0186 36 -52.5049 115 -23.0195 248c41.6787 188 109.857 270 218.857 270c13 0 23.7783 -1 34.335 -3l50.0518 113h48l-57.8203 -130
c35.0146 -27 46.9297 -77 41.0762 -144h-70c3.87207 31 2.75 53 -4.48145 70z" />
    <glyph glyph-name="sterling" unicode="&#xa3;" 
d="M29.7832 -10l15.0752 68c73.8721 31 110.165 109 125.019 176c8.42383 38 8.9668 63 13.2822 96h-78l13.3018 60h66c0.0849609 50 -4.72168 105 7.69336 161c28.1553 127 108.126 181 185.126 181c129 0 140.388 -102 122.888 -208h-66
c8.62305 84 0.811523 148 -63.1885 148c-50 0 -85.7646 -26 -104.387 -110c-13.3018 -60 -7.93848 -117 -10.1318 -172h106l-13.3018 -60h-94c-3.98535 -27 -4.19336 -55 -10.6221 -84c-9.75488 -44 -25.5098 -88 -52.8203 -130c20.9053 -32 46.1416 -58 85.1416 -58
c40 0 79.7637 26 103.264 132h66c-34.1406 -154 -86.3389 -200 -183.339 -200c-47 0 -90.2412 35 -109.151 76c-33.9814 -36 -77.2969 -69 -123.849 -76z" />
    <glyph glyph-name="fraction" unicode="&#x2044;" horiz-adv-x="167" 
d="M-107.217 -10h-62l603.497 742h62z" />
    <glyph glyph-name="yen" unicode="&#xa5;" 
d="M485.065 298l-13.3018 -60h-160l-52.7637 -238h-72l52.7637 238h-160l13.3018 60h160l1.77344 8l-15.3779 84h-126l13.3018 60h102l-49.6992 272h72l59.3975 -332l202.603 332h72l-168.301 -272h102l-13.3018 -60h-126l-52.6221 -84l-1.77344 -8h160z" />
    <glyph glyph-name="florin" unicode="&#x192;" 
d="M-2.80176 -166l14.6318 66c10.6699 -6 23.7832 -10 39.7832 -10c54 0 83.5479 16 227.961 496h-88l13.3018 60h92c57.6592 224 135.404 286 231.405 286c16 0 31.5557 -2 47.1123 -4l-14.1885 -64c-14.335 3 -27.2266 8 -42.2266 8c-57.999 0 -88.4336 -20 -150.103 -226
h86l-13.3018 -60h-90c-149.961 -496 -201.263 -556 -319.263 -556c-11 0 -23.7783 1 -35.1133 4z" />
    <glyph glyph-name="section" unicode="&#xa7;" horiz-adv-x="500" 
d="M536.545 652l-56.4238 -38c-13.5713 29 -43.8115 64 -79.8115 64c-46 0 -68.8779 -22 -77.0801 -59c-19.7314 -89 202.778 -213 173.293 -346c-14.8535 -67 -71.1641 -109 -136.164 -109c22.2402 -35 42.9287 -77 31.8447 -127c-15.5195 -70 -82.8252 -121 -151.825 -121
c-70 0 -113.35 30 -142.378 84l56.4248 38c13.3535 -39 49.9248 -68 95.9248 -68c34 0 67.8721 31 75.1885 64c23.0557 104 -204.784 222 -172.639 367c13.5234 61 78.9482 99 137.948 99c-29.0195 36 -43.5947 74 -32.0664 126c12.415 56 67.499 106 145.499 106
c60 0 104.02 -36 132.265 -80zM217.791 396c-9.97656 -45 85.8779 -190 144.878 -190c30 0 59.6514 30 66.0801 59c12.1934 55 -85.2129 193 -139.213 193c-38 0 -63.542 -25 -71.7451 -62z" />
    <glyph glyph-name="currency" unicode="&#xa4;" 
d="M479.014 185l-51.3115 -42l-35.5801 47c-41.0947 -32 -92.9766 -45 -137.977 -45s-91.1182 13 -118.023 45l-56.4199 -47l-32.6885 42l56.8633 49c-21.793 28 -26.043 81 -15.8447 127c10.1973 46 37.9473 99 72.1553 127l-35.1377 49l51.3115 42l35.5801 -47
c41.0947 32 92.9766 45 137.977 45s91.1182 -13 118.023 -45l56.4199 47l32.6885 -42l-56.8623 -49c21.792 -28 26.042 -81 15.8447 -127c-10.1982 -46 -37.9482 -99 -72.1553 -127zM158.032 361c-19.5098 -88 24.3018 -152 110.302 -152s158.188 64 177.698 152
c19.5088 88 -24.3027 152 -110.303 152s-158.188 -64 -177.697 -152z" />
    <glyph glyph-name="quotesingle" unicode="'" horiz-adv-x="222" 
d="M183.31 466l56.7539 256h62l-56.7539 -256h-62z" />
    <glyph glyph-name="quotedblleft" unicode="&#x201c;" horiz-adv-x="389" 
d="M431.188 488h-84l22.1689 100l91.9238 144h30l-79.2539 -150h40zM264.188 488h-84l22.1689 100l91.9238 144h30l-79.2539 -150h40z" />
    <glyph glyph-name="guillemotleft" unicode="&#xab;" horiz-adv-x="500" 
d="M297.5 106h-68l-89.8594 154l158.141 154h68l-162.141 -154zM441.5 106h-68l-89.8594 154l158.141 154h68l-162.141 -154z" />
    <glyph glyph-name="guilsinglleft" unicode="&#x2039;" horiz-adv-x="333" 
d="M287.5 106h-68l-89.8594 154l158.141 154h68l-162.141 -154z" />
    <glyph glyph-name="guilsinglright" unicode="&#x203a;" horiz-adv-x="333" 
d="M160.5 106h-68l162.141 154l-93.8594 154h68l89.8594 -154z" />
    <glyph glyph-name="fi" unicode="&#xfb01;" 
d="M103.979 460l13.3018 60h80l23.5 106c15.5186 70 51.499 106 129.499 106c19 0 38.335 -3 54.6699 -6l-12.415 -56c-11.6689 6 -24.2256 8 -37.2256 8c-35 0 -55.8779 -22 -63.1934 -55l-22.835 -103h84l-13.3018 -60h-84l-101.979 -460h-72l101.979 460h-80zM307 0
l115.281 520h72l-115.281 -520h-72zM448.441 638l18.6221 84h72l-18.6221 -84h-72z" />
    <glyph glyph-name="fl" unicode="&#xfb02;" 
d="M103.979 460l13.3018 60h80l23.5 106c15.5186 70 51.499 106 129.499 106c19 0 38.335 -3 54.6699 -6l-12.415 -56c-11.6689 6 -24.2256 8 -37.2256 8c-35 0 -55.8779 -22 -63.1934 -55l-22.835 -103h84l-13.3018 -60h-84l-101.979 -460h-72l101.979 460h-80zM307 0
l160.063 722h72l-160.063 -722h-72z" />
    <glyph glyph-name="endash" unicode="&#x2013;" horiz-adv-x="500" 
d="M552.32 236h-500l10.6406 48h500z" />
    <glyph glyph-name="dagger" unicode="&#x2020;" horiz-adv-x="500" 
d="M179.083 474l17.293 78l154.679 -24c15.7363 80 17.4717 160 21.2256 204h80c-15.7539 -44 -49.4893 -124 -69.2256 -204l165.321 24l-17.293 -78l-154.679 24c-11.3018 -60 -12.377 -128 -14.5752 -174c-33.7354 -80 -77.6406 -260 -118.451 -408h-24
c24.8105 148 60.7158 328 62.4512 408c18.1982 46 47.2734 114 62.5752 174z" />
    <glyph glyph-name="daggerdbl" unicode="&#x2021;" horiz-adv-x="500" 
d="M548.376 552l-17.293 -78l-154.679 24c-11.3018 -60 -12.377 -128 -14.5752 -174c-18.1982 -46 -47.2734 -114 -62.5752 -174l165.321 24l-17.292 -78l-154.68 24c-15.7354 -80 -17.4717 -160 -21.2256 -204h-80c15.7539 44 49.4902 124 69.2256 204l-165.32 -24
l17.292 78l154.679 -24c11.3018 60 12.377 128 14.5752 174c18.1982 46 47.2734 114 62.5752 174l-165.321 -24l17.293 78l154.679 -24c15.7363 80 17.4717 160 21.2256 204h80c-15.7539 -44 -49.4893 -124 -69.2256 -204z" />
    <glyph glyph-name="periodcentered" unicode="&#xb7;" horiz-adv-x="222" 
d="M119.641 260c5.98633 27 32.8633 49 59.8633 49s44.123 -22 38.1367 -49c-5.98535 -27 -32.8633 -49 -59.8633 -49s-44.1221 22 -38.1367 49z" />
    <glyph glyph-name="paragraph" unicode="&#xb6;" horiz-adv-x="500" 
d="M196.378 -84l93.998 424c-122 0 -186.264 80 -162.321 188c30.5938 138 146.009 194 253.009 194h281l-11.9717 -54h-70l-166.714 -752h-66l166.714 752h-85l-166.714 -752h-66z" />
    <glyph glyph-name="bullet" unicode="&#x2022;" horiz-adv-x="500" 
d="M149.032 361c22.1689 100 119.904 180 219.904 180s163.265 -80 141.096 -180c-22.1699 -100 -121.127 -181 -221.127 -181s-162.043 81 -139.873 181z" />
    <glyph glyph-name="quotesinglbase" unicode="&#x201a;" horiz-adv-x="222" 
d="M86.8389 94h84l-22.1689 -100l-91.9238 -144h-30l79.2539 150h-40z" />
    <glyph glyph-name="quotedblbase" unicode="&#x201e;" horiz-adv-x="389" 
d="M86.8389 94h84l-22.1689 -100l-91.9238 -144h-30l79.2539 150h-40zM253.839 94h84l-22.1689 -100l-91.9238 -144h-30l79.2539 150h-40z" />
    <glyph glyph-name="quotedblright" unicode="&#x201d;" horiz-adv-x="389" 
d="M226.063 722h84l-22.1689 -100l-91.9238 -144h-30l79.2539 150h-40zM393.063 722h84l-22.1689 -100l-91.9238 -144h-30l79.2539 150h-40z" />
    <glyph glyph-name="guillemotright" unicode="&#xbb;" horiz-adv-x="500" 
d="M317.781 414h68l89.8594 -154l-158.141 -154h-68l162.141 154zM173.781 414h68l89.8594 -154l-158.141 -154h-68l162.141 154z" />
    <glyph glyph-name="ellipsis" unicode="&#x2026;" horiz-adv-x="1000" 
d="M145.839 94h84l-20.8389 -94h-84zM478.839 94h84.001l-20.8398 -94h-84zM811.84 94h84l-20.8398 -94h-84z" />
    <glyph glyph-name="perthousand" unicode="&#x2030;" horiz-adv-x="1000" 
d="M147.253 574c17.5137 79 101.811 148 180.811 148s132.703 -69 115.189 -148s-101.811 -148 -180.811 -148s-132.703 69 -115.189 148zM203.253 574c-10.6416 -48 18.6045 -92 71.6045 -92s101.754 44 112.396 92s-18.6045 92 -71.6045 92s-101.754 -44 -112.396 -92z
M360.811 148c17.5146 79 101.812 148 180.812 148s132.703 -69 115.188 -148c-17.5137 -79 -101.811 -148 -180.811 -148s-132.703 69 -115.189 148zM416.811 148c-10.6406 -48 18.6045 -92 71.6045 -92s101.755 44 112.396 92c10.6416 48 -18.6035 92 -71.6035 92
s-101.755 -44 -112.396 -92zM716.811 148c17.5146 79 101.812 148 180.812 148s132.702 -69 115.188 -148s-101.811 -148 -180.811 -148s-132.703 69 -115.189 148zM772.811 148c-10.6406 -48 18.6045 -92 71.6045 -92s101.755 44 112.396 92
c10.6416 48 -18.6035 92 -71.6035 92s-101.755 -44 -112.396 -92zM662.281 732h58l-578.498 -742h-58z" />
    <glyph glyph-name="questiondown" unicode="&#xbf;" horiz-adv-x="389" 
d="M269.839 306h56l-11.085 -50c-34.584 -156 -164.565 -192 -196.046 -334c-11.5283 -52 13.5947 -74 41.5947 -74c44 0 77.4189 47 90.0654 86l57.3398 -12c-23.627 -75 -83.707 -134 -163.707 -134c-67 0 -117.246 44 -97.293 134c37.2441 168 181.896 198 214.263 344z
M372.442 426h-84l20.8389 94h84z" />
    <glyph glyph-name="grave" unicode="`" horiz-adv-x="222" 
d="M246.14 578l-95.4062 138h78l67.4062 -138h-50z" />
    <glyph glyph-name="acute" unicode="&#xb4;" horiz-adv-x="222" 
d="M388.733 716l-156.594 -138h-50l128.594 138h78z" />
    <glyph glyph-name="circumflex" unicode="&#x2c6;" horiz-adv-x="222" 
d="M104.14 578l131.594 138h68l70.4062 -138h-64l-48.3867 102l-93.6133 -102h-64z" />
    <glyph glyph-name="tilde" unicode="&#x2dc;" horiz-adv-x="222" 
d="M136.356 588h-36c10.5332 43 51.7266 98 98.7266 98c25 0 46.5615 -11 66.1221 -22c19.5615 -11 38.123 -22 55.123 -22c29 0 40.542 25 49.085 50h36c-13.8633 -49 -43.7266 -98 -99.7266 -98c-21 0 -41.5615 11 -61.1221 22c-19.5615 11 -39.123 22 -57.123 22
c-28 0 -43.542 -25 -51.085 -50z" />
    <glyph glyph-name="macron" unicode="&#xaf;" horiz-adv-x="222" 
d="M380.121 614h-266l10.6406 48h266z" />
    <glyph glyph-name="breve" unicode="&#x2d8;" horiz-adv-x="222" 
d="M139.403 710h38c-7.41504 -56 23.2646 -80 77.2646 -80c56 0 83.4287 29 104.735 80h38c-24.957 -81 -82.377 -128 -163.377 -128c-74 0 -106.363 57 -94.623 128z" />
    <glyph glyph-name="dotaccent" unicode="&#x2d9;" horiz-adv-x="222" 
d="M208.356 588l22.6133 102h66l-22.6133 -102h-66z" />
    <glyph glyph-name="dieresis" unicode="&#xa8;" horiz-adv-x="222" 
d="M142.356 588l22.6133 102h66l-22.6133 -102h-66zM274.356 588l22.6133 102h66l-22.6133 -102h-66z" />
    <glyph glyph-name="ring" unicode="&#x2da;" horiz-adv-x="222" 
d="M165.201 673c11.5273 52 62.0605 95 116.061 95s85.4668 -43 73.9395 -95c-11.5283 -52 -62.0615 -95 -116.062 -95s-85.4668 43 -73.9385 95zM207.201 673c-6.20801 -28 13.25 -53 41.25 -53s58.542 25 64.75 53c6.20703 28 -13.251 53 -41.251 53
s-58.542 -25 -64.749 -53z" />
    <glyph glyph-name="cedilla" unicode="&#xb8;" horiz-adv-x="222" 
d="M-36.3389 -200l23.7549 44c14.6689 -6 35.8955 -14 61.8955 -14c40 0 70.7695 17 76.0898 41c5.09863 23 -9.4668 43 -44.4668 43c-16 0 -30.1084 -5 -44.2178 -10l-10.8955 14l78.1787 82h38l-58.8584 -58l1.55664 -2c7.88672 4 19.3301 6 32.3301 6
c42 0 73.6797 -24 63.0381 -72c-12.1934 -55 -69.9521 -90 -127.952 -90c-38 0 -64.1133 4 -88.4531 16z" />
    <glyph glyph-name="hungarumlaut" unicode="&#x2dd;" horiz-adv-x="222" 
d="M324.733 716l-152.594 -138h-48l120.594 138h80zM444.733 716l-156.594 -138h-50l128.594 138h78z" />
    <glyph glyph-name="ogonek" unicode="&#x2db;" horiz-adv-x="222" 
d="M202.99 18l-2.2168 -10c-55.2119 -19 -168.415 -56 -183.269 -123c-8.42383 -38 11.25 -53 47.25 -53c37 0 86.543 25 115.09 41l8.90527 -32c-46.207 -28 -109.192 -55 -159.192 -55c-45 0 -82.2363 26 -68.9346 86c22.6133 102 162.82 130 242.367 146z" />
    <glyph glyph-name="caron" unicode="&#x2c7;" horiz-adv-x="222" 
d="M205.14 578l-70.4062 138h64l48.3877 -102l93.6123 102h64l-131.594 -138h-68z" />
    <glyph glyph-name="emdash" unicode="&#x2014;" horiz-adv-x="1000" 
d="M1052.32 236h-1000l10.6406 48h1000z" />
    <glyph glyph-name="AE" unicode="&#xc6;" horiz-adv-x="722" 
d="M459.063 722h375l-14.6318 -66h-238l-54.5371 -246h186l-14.6318 -66h-186l-61.6309 -278h250l-14.6318 -66h-328l47.4424 214h-184l-129.442 -214h-83zM262.074 280h158l88.2354 398h-2z" />
    <glyph glyph-name="ordfeminine" unicode="&#xaa;" horiz-adv-x="266" 
d="M216.776 635l-44.6699 6c18.8633 49 59.1738 91 119.174 91c63 0 89.4629 -34 77.2695 -89l-38.5752 -174c-5.98535 -27 -7.64062 -48 -4.19336 -55h-52l-2.00879 18c-17.5469 -16 -52.3213 -24 -73.3213 -24c-53 0 -81.127 31 -69.377 84
c17.0703 77 117.717 116 180.82 130l3.99023 18c7.09473 32 -1.3584 48 -31.3584 48c-35 0 -54.543 -25 -65.75 -53zM279.301 484l19.9521 90c-38.6602 -12 -107.09 -41 -116.179 -82c-6.42969 -29 2.13184 -40 32.1318 -40c25 0 50.5469 16 64.0947 32z" />
    <glyph glyph-name="Lslash" unicode="&#x141;" horiz-adv-x="389" 
d="M217.381 331l-58.749 -265h234l-14.6318 -66h-312l66.2871 299l-87.0947 -32l13.7451 62l87.0947 32l80.0312 361h78l-72.9375 -329l167.745 62l-13.7451 -62z" />
    <glyph glyph-name="Oslash" unicode="&#xd8;" horiz-adv-x="500" 
d="M479.036 564l-285.866 -464c14.6836 -33 39.2451 -44 69.2451 -44c70 0 139.302 60 193.617 305c20.1738 91 26.584 156 25.0039 203h-2zM182.023 167l282.979 460c-15.5713 29 -39.3545 39 -67.3545 39c-70 0 -139.301 -60 -193.616 -305
c-19.0664 -86 -26.2549 -150 -24.0088 -194h2zM148.207 28l-90.8105 -148h-54l118.122 190c-24.9199 59 -26.0811 153 4.51367 291c59.6357 269 164.248 371 286.248 371c40 0 72.5615 -11 96.4629 -34l65.5 106h54l-90.8115 -148c25.9199 -59 27.8594 -154 -3.39941 -295
c-59.6367 -269 -164.249 -371 -286.249 -371c-41 0 -74.5615 11 -99.5762 38z" />
    <glyph glyph-name="OE" unicode="&#x152;" horiz-adv-x="722" 
d="M516.263 344l-61.6309 -278h246l-14.6318 -66h-386c-184 0 -247.151 76 -183.968 361c63.1826 285 160.031 361 344.031 361h374l-14.6318 -66h-234l-54.5371 -246h178l-14.6318 -66h-178zM399.245 168l85.5742 386c17.7354 80 -3.83105 100 -69.8311 100
c-96 0 -169.302 -60 -220.956 -293c-51.6553 -233 -4.95703 -293 91.043 -293c66 0 96.4336 20 114.17 100z" />
    <glyph glyph-name="ordmasculine" unicode="&#xba;" horiz-adv-x="233" 
d="M289.366 570c20.6172 93 12.7168 116 -22.2832 116c-34 0 -51.0996 -23 -71.7168 -116c-20.6182 -93 -13.7168 -116 20.2832 -116c35 0 53.0986 23 73.7168 116zM139.366 570c25.0518 113 66.9141 162 137.914 162s93.1377 -49 68.0859 -162s-68.915 -162 -139.915 -162
s-91.1367 49 -66.085 162z" />
    <glyph glyph-name="ae" unicode="&#xe6;" horiz-adv-x="611" 
d="M280.057 104l39.0176 176c-52.4336 -20 -170.075 -68 -188.254 -150c-10.8633 -49 4.26465 -80 56.2646 -80c31 0 70.9854 27 92.9717 54zM397.282 308h174c22.8301 112 13.9141 162 -51.0859 162c-48 0 -95.6406 -48 -122.914 -162zM629.98 248h-246l-6.42969 -29
c-28.1553 -127 14.5342 -169 59.5342 -169c55 0 89.3066 51 108.726 98l66.2266 -8c-28.292 -78 -103.254 -150 -189.254 -150c-55 0 -98.2314 17 -114.26 71c-68.3018 -60 -116.74 -71 -145.74 -71c-81 0 -123.472 52 -105.293 134c28.377 128 183.787 193 274.886 216
l8.20312 37c13.9668 63 -6.38281 93 -46.3828 93c-42 0 -84.1924 -55 -102.612 -102l-63.7832 10c32.1787 82 95.6973 152 186.697 152c53 0 80.793 -28 91.8115 -64c40.7549 44 85.1885 64 127.188 64c110 0 137.274 -98 104.02 -248z" />
    <glyph glyph-name="dotlessi" unicode="&#x131;" horiz-adv-x="222" 
d="M75 0l115.281 520h72l-115.281 -520h-72z" />
    <glyph glyph-name="lslash" unicode="&#x142;" horiz-adv-x="222" 
d="M237.008 406l-90.0078 -406h-72l81.8057 369l-88.0898 -41l13.3018 60l88.0898 41l64.9561 293h72l-56.7539 -256l87.8682 40l-13.3018 -60z" />
    <glyph glyph-name="oslash" unicode="&#xf8;" horiz-adv-x="389" 
d="M145.49 124l200.494 327c-9.89648 14 -25.7881 19 -47.7881 19c-61 0 -95.4238 -38 -133.556 -210c-13.5234 -61 -20.2783 -105 -21.1504 -136h2zM506.668 630l-95.1416 -154c22.4678 -43 21.7275 -114 -0.885742 -216c-41.6787 -188 -109.857 -270 -218.857 -270
c-28 0 -50.8916 5 -68.0098 18l-79.377 -128h-50l98.25 159c-23.4678 43 -23.5059 115 -0.00585938 221c41.6787 188 109.857 270 218.857 270c30 0 54.6699 -6 71.5664 -20l73.6035 120h50zM357.239 389l-197.386 -322c9.11816 -13 25.2314 -17 45.2314 -17
c61 0 95.4238 38 133.556 210c12.6367 57 19.1699 100 20.5986 129h-2z" />
    <glyph glyph-name="oe" unicode="&#x153;" horiz-adv-x="611" 
d="M152.641 260c-38.1318 -172 -20.5557 -210 40.4443 -210s97.4238 38 135.556 210s18.5557 210 -42.4443 210s-95.4238 -38 -133.556 -210zM411.282 308h162c22.8301 112 13.9141 162 -51.0859 162c-41 0 -80.7539 -44 -110.914 -162zM631.98 248h-234l-6.42969 -29
c-28.1553 -127 2.53418 -169 47.5342 -169c55 0 89.3066 51 106.726 98l66.2266 -8c-26.292 -78 -101.254 -150 -187.254 -150c-46 0 -88.7881 19 -104.043 81c-34.1934 -55 -79.957 -81 -140.957 -81c-109 0 -140.821 82 -99.1426 270s109.857 270 218.857 270
c63 0 98.0146 -27 106.491 -88c39.3018 60 85.5088 88 129.509 88c110 0 137.274 -98 104.02 -248z" />
    <glyph glyph-name="germandbls" unicode="&#xdf;" 
d="M72 0l128.583 580c17.292 78 85.6973 152 179.697 152c98 0 144.038 -72 119.652 -182c-17.293 -78 -52.6035 -120 -104.368 -146c42.6797 -24 80.9248 -68 52.1045 -198c-37.2441 -168 -109.886 -216 -184.886 -216c-19 0 -36.1133 4 -52.3398 12l13.7451 62
c13.0049 -9 27.8965 -14 45.8965 -14c39 0 77.207 28 102.924 144c28.377 128 10.5752 174 -69.4248 174l13.3018 60c54.8867 4 91.0938 32 111.269 123c20.1738 91 -13.1748 121 -57.1748 121c-46 0 -86.4248 -38 -98.3965 -92l-128.583 -580h-72z" />
    <glyph glyph-name="onesuperior" unicode="&#xb9;" horiz-adv-x="266" 
d="M118.735 292l10.6406 48h46l72.7158 328l-48.8867 -4l7.98145 36c24.1084 5 48.3252 15 74.0938 32h43l-86.9043 -392h52l-10.6406 -48h-160z" />
    <glyph glyph-name="logicalnot" unicode="&#xac;" horiz-adv-x="600" 
d="M520.604 120l47.4424 214h-454l14.6318 66h520l-62.0742 -280h-66z" />
    <glyph glyph-name="mu" unicode="&#x3bc;" 
d="M487.281 520l-115.281 -520h-68l12.6367 57c-41.7598 -35 -98.8535 -67 -132.854 -67c-16 0 -29.5566 2 -40.6699 6l-36.8018 -166h-72l152.97 690h72l-85.1309 -384c-13.3018 -60 -1.06543 -86 37.9346 -86c35 0 72.3203 24 113.188 64l90.0078 406h72z" />
    <glyph glyph-name="trademark" unicode="&#x2122;" horiz-adv-x="990" 
d="M532.063 722l-11.9717 -54h-134l-81.8047 -369h-66l81.8047 369h-134l11.9717 54h334zM651.432 656l-79.1445 -357h-66l93.7764 423h105l54.8359 -321l195.164 321h106l-93.7764 -423h-66l79.1445 357h-2l-220.145 -357h-44l-59.8555 357h-3z" />
    <glyph glyph-name="Eth" unicode="&#xd0;" horiz-adv-x="500" 
d="M234.895 410h120l-14.6318 -66h-120l-61.6309 -278h42c114 0 190.642 48 245.4 295s-0.600586 295 -114.601 295h-42zM102.895 410h54l69.1689 312h134c152 0 225.378 -84 163.969 -361c-61.4102 -277 -172.032 -361 -324.032 -361h-134l76.2627 344h-54z" />
    <glyph glyph-name="onehalf" unicode="&#xbd;" horiz-adv-x="666" 
d="M146.783 -10h-62l603.498 742h62zM134.735 292l10.6406 48h46l72.7158 328l-48.8867 -4l7.98145 36c24.1084 5 48.3252 15 74.0938 32h43l-86.9043 -392h52l-10.6406 -48h-160zM640 0h-222l11.085 50c69.3818 119 203.23 195 222.518 282
c7.75977 35 -3.58496 56 -31.585 56c-33 0 -59.5469 -16 -78.627 -75h-50c27.7256 98 82.1553 127 139.155 127c62 0 96.5752 -38 81.2783 -107c-24.3867 -110 -155.905 -180 -222.296 -281h162z" />
    <glyph glyph-name="plusminus" unicode="&#xb1;" horiz-adv-x="600" 
d="M344.594 350l37.6875 170h66l-37.6875 -170h227l-14.6328 -66h-227l-37.6875 -170h-66l37.6875 170h-227l14.6318 66h227.001zM40 0l14.6318 66h520l-14.6318 -66h-520z" />
    <glyph glyph-name="Thorn" unicode="&#xde;" 
d="M56 0l160.063 722h78l-35.9141 -162h92c116 0 174.708 -78 148.104 -198s-119.896 -198 -235.896 -198h-92l-36.3584 -164h-78zM243.518 494l-58.5273 -264h82c78 0 133.311 42 153.264 132c19.9521 90 -16.7363 132 -94.7363 132h-82z" />
    <glyph glyph-name="onequarter" unicode="&#xbc;" horiz-adv-x="666" 
d="M598.702 355l-126.892 -207h83l45.8916 207h-2zM598.994 433h75l-63.1836 -285h50l-11.5273 -52h-50l-21.2832 -96h-56l21.2832 96h-139l9.97559 45zM150.783 -10h-62l603.498 742h62zM134.735 292l10.6406 48h46l72.7158 328l-48.8867 -4l7.98145 36
c24.1084 5 48.3252 15 74.0938 32h43l-86.9043 -392h52l-10.6406 -48h-160z" />
    <glyph glyph-name="divide" unicode="&#xf7;" horiz-adv-x="600" 
d="M610.325 227h-520l14.6318 66h520zM336.866 464c7.98145 36 44.6318 66 80.6318 66s59.3496 -30 51.3682 -66c-7.98047 -36 -44.6318 -66 -80.6318 -66s-59.3486 30 -51.3682 66zM246.415 56c7.98047 36 44.6318 66 80.6318 66s59.3486 -30 51.3682 -66
c-7.98145 -36 -44.6318 -66 -80.6318 -66s-59.3496 30 -51.3682 66z" />
    <glyph glyph-name="brokenbar" unicode="&#xa6;" horiz-adv-x="222" 
d="M75.7832 -10l62.9609 284h66l-62.9609 -284h-66zM177.319 448l62.9609 284h66l-62.9609 -284h-66z" />
    <glyph glyph-name="degree" unicode="&#xb0;" horiz-adv-x="400" 
d="M425.47 584c12.1934 55 -18.3867 102 -73.3867 102s-106.42 -47 -118.613 -102s18.3877 -102 73.3877 -102s106.419 47 118.612 102zM181.47 584c17.957 81 98.8105 148 180.811 148s133.146 -67 115.189 -148s-98.8105 -148 -180.811 -148s-133.146 67 -115.189 148z
" />
    <glyph glyph-name="thorn" unicode="&#xfe;" 
d="M306.063 722l-53.2061 -240h2c25.542 25 62.6406 48 108.641 48c82 0 134.481 -70 90.1426 -270s-127.857 -270 -209.857 -270c-39 0 -66.6797 24 -85.3584 48l-46.1133 -208h-72l197.752 892h68zM243.112 420l-71.8291 -324c16.3438 -21 35.8018 -46 67.8018 -46
c61 0 107.085 50 142.556 210c35.4717 160 8.55566 210 -51.4443 210c-22 0 -58.4336 -20 -87.084 -50z" />
    <glyph glyph-name="threequarters" unicode="&#xbe;" horiz-adv-x="666" 
d="M598.702 355l-126.892 -207h83l45.8916 207h-2zM598.994 433h75l-63.1836 -285h50l-11.5273 -52h-50l-21.2832 -96h-56l21.2832 96h-139l9.97559 45zM146.783 -10h-62l603.498 742h62zM244.998 636h-54c12.1934 55 51.2822 96 116.282 96c52 0 95.6846 -33 79.7227 -105
c-9.08984 -41 -30.7314 -89 -82.3916 -101l-0.443359 -2c49.2314 -17 54.2549 -62 43.8359 -109c-19.9531 -90 -75.5996 -129 -137.6 -129c-70 0 -99.0234 45 -84.6133 110h54c-5.09375 -32 0.141602 -58 43.1416 -58c31 0 57.3213 24 68.8486 76
c13.5234 61 -14.042 81 -77.8203 82l11.5283 52c59.7783 -1 90.8818 13 104.849 76c7.53711 34 0.415039 56 -31.585 56c-33 0 -46.3262 -15 -53.7549 -44z" />
    <glyph glyph-name="twosuperior" unicode="&#xb2;" horiz-adv-x="266" 
d="M308.735 292h-222l11.084 50c69.3818 119 203.23 195 222.519 282c7.75879 35 -3.58496 56 -31.585 56c-33 0 -59.5479 -16 -78.6279 -75h-50c27.7266 98 82.1553 127 139.155 127c62 0 96.5762 -38 81.2793 -107c-24.3867 -110 -155.905 -180 -222.297 -281h162z" />
    <glyph glyph-name="registered" unicode="&#xae;" horiz-adv-x="800" 
d="M398.603 332l-42.1221 -190h-66l96.2158 434h165c100 0 140.91 -41 122.731 -123c-17.292 -78 -75.6084 -111 -131.382 -119l74.4346 -192h-79l-72.8779 190h-67zM440.281 520l-29.2637 -132h72c79 0 113.217 10 126.075 68c9.75488 44 -11.8115 64 -80.8115 64h-88z
M398.783 -10c-204 0 -339.529 160 -292.529 372c46.5557 210 253.026 370 457.027 370c203 0 337.528 -160 290.973 -370c-47 -212 -252.471 -372 -455.471 -372zM412.085 50c170 0 330.707 134 370.169 312c38.7959 175 -62.2754 310 -232.275 310
c-171.999 0 -332.929 -135 -371.725 -310c-39.4619 -178 61.8311 -312 233.831 -312z" />
    <glyph glyph-name="minus" unicode="&#x2212;" horiz-adv-x="600" 
d="M90.3252 227l14.6318 66h520l-14.6318 -66h-520z" />
    <glyph glyph-name="eth" unicode="&#xf0;" horiz-adv-x="389" 
d="M164.641 260c-38.1318 -172 -20.5557 -210 40.4443 -210s95.4238 38 133.556 210s20.5557 210 -40.4443 210s-95.4238 -38 -133.556 -210zM287.187 700l70.877 22c13.4531 -16 25.6846 -33 35.251 -53l106.202 37l13.8018 -46l-100.759 -35
c34.8301 -100 28.6748 -227 -1.91895 -365c-41.6787 -188 -109.857 -270 -218.857 -270s-140.821 82 -99.1426 270s109.857 270 218.857 270c20 0 38.335 -3 47.0049 -9c-0.791992 28 -6.80664 55 -15.4863 79l-98.5371 -34l-13.8018 46l92.0938 32
c-9.56641 20 -21.3535 39 -35.585 56z" />
    <glyph glyph-name="multiply" unicode="&#xd7;" horiz-adv-x="600" 
d="M664.64 472l-258.999 -212l165.001 -212l-58.6416 -48l-164.779 213l-259.221 -213l-37.3584 48l258.999 212l-165.001 212l58.6416 48l164.779 -213l259.221 213z" />
    <glyph glyph-name="threesuperior" unicode="&#xb3;" horiz-adv-x="266" 
d="M224.998 636h-54c12.1934 55 51.2822 96 116.282 96c52 0 95.6846 -33 79.7227 -105c-9.08984 -41 -30.7314 -89 -82.3916 -101l-0.443359 -2c49.2314 -17 54.2549 -62 43.8359 -109c-19.9531 -90 -75.5996 -129 -137.6 -129c-70 0 -99.0234 45 -84.6133 110h54
c-5.09375 -32 0.141602 -58 43.1416 -58c31 0 57.3213 24 68.8486 76c13.5234 61 -14.042 81 -77.8203 82l11.5283 52c59.7783 -1 90.8818 13 104.849 76c7.53711 34 0.415039 56 -31.585 56c-33 0 -46.3262 -15 -53.7549 -44z" />
    <glyph glyph-name="copyright" unicode="&#xa9;" horiz-adv-x="800" 
d="M398.783 -10c-204 0 -339.529 160 -292.529 372c46.5557 210 253.026 370 457.027 370c203 0 337.528 -160 290.973 -370c-47 -212 -252.471 -372 -455.471 -372zM412.085 50c170 0 330.707 134 370.169 312c38.7959 175 -62.2754 310 -232.275 310
c-171.999 0 -332.929 -135 -371.725 -310c-39.4619 -178 61.8311 -312 233.831 -312zM598.292 290h64c-42.2832 -96 -129.25 -159 -220.25 -159c-134 0 -198.608 101 -169.788 231c29.2637 132 132.768 229 268.768 229c94 0 160.028 -54 153.081 -153h-63
c0.75 53 -36.3828 93 -102.383 93c-96 0 -163.405 -74 -184.022 -167c-20.3965 -92 17.6465 -173 110.646 -173c66 0 121.312 42 142.948 99z" />
    <glyph glyph-name="Aacute" unicode="&#xc1;" 
d="M369.092 668l-166.018 -388h162l6.01758 388h-2zM328.063 722h108l-1.06348 -722h-78l4.44238 214h-184l-90.4424 -214h-78zM540.082 898l-156.594 -138h-50l128.594 138h78z" />
    <glyph glyph-name="Acircumflex" unicode="&#xc2;" 
d="M369.092 668l-166.018 -388h162l6.01758 388h-2zM328.063 722h108l-1.06348 -722h-78l4.44238 214h-184l-90.4424 -214h-78zM255.488 760l131.594 138h68l70.4062 -138h-64l-48.3867 102l-93.6133 -102h-64z" />
    <glyph glyph-name="Adieresis" unicode="&#xc4;" 
d="M369.092 668l-166.018 -388h162l6.01758 388h-2zM328.063 722h108l-1.06348 -722h-78l4.44238 214h-184l-90.4424 -214h-78zM293.705 770l22.6133 102h66l-22.6133 -102h-66zM425.705 770l22.6133 102h66l-22.6133 -102h-66z" />
    <glyph glyph-name="Agrave" unicode="&#xc0;" 
d="M369.092 668l-166.018 -388h162l6.01758 388h-2zM328.063 722h108l-1.06348 -722h-78l4.44238 214h-184l-90.4424 -214h-78zM397.488 760l-95.4062 138h78l67.4062 -138h-50z" />
    <glyph glyph-name="Aring" unicode="&#xc5;" 
d="M369.092 668l-166.018 -388h162l6.01758 388h-2zM328.063 722h108l-1.06348 -722h-78l4.44238 214h-184l-90.4424 -214h-78zM316.55 855c11.5273 52 62.0605 95 116.061 95s85.4668 -43 73.9395 -95c-11.5283 -52 -62.0615 -95 -116.062 -95s-85.4668 43 -73.9385 95z
M358.55 855c-6.20801 -28 13.25 -53 41.25 -53s58.542 25 64.75 53c6.20703 28 -13.251 53 -41.251 53s-58.542 -25 -64.749 -53z" />
    <glyph glyph-name="Atilde" unicode="&#xc3;" 
d="M369.092 668l-166.018 -388h162l6.01758 388h-2zM328.063 722h108l-1.06348 -722h-78l4.44238 214h-184l-90.4424 -214h-78zM287.705 770h-36c10.5332 43 51.7266 98 98.7266 98c25 0 46.5615 -11 66.1221 -22c19.5615 -11 38.123 -22 55.123 -22
c29 0 40.542 25 49.085 50h36c-13.8633 -49 -43.7266 -98 -99.7266 -98c-21 0 -41.5615 11 -61.1221 22c-19.5615 11 -39.123 22 -57.123 22c-28 0 -43.542 -25 -51.085 -50z" />
    <glyph glyph-name="Ccedilla" unicode="&#xc7;" horiz-adv-x="500" 
d="M551.734 504h-78c15.2734 114 -10.0859 162 -71.0859 162c-91 0 -148.735 -80 -198.616 -305c-49.8818 -225 -27.6172 -305 63.3828 -305c73 0 126.085 50 157.792 184h78c-37.4717 -160 -127.424 -250 -250.424 -250c-129 0 -187.274 98 -126.751 371
c60.5225 273 162.248 371 291.248 371c107.001 0 156.595 -74 134.454 -228zM102.661 -200l23.7549 44c14.6689 -6 35.8955 -14 61.8955 -14c40 0 70.7695 17 76.0898 41c5.09863 23 -9.4668 43 -44.4668 43c-16 0 -30.1084 -5 -44.2178 -10l-10.8955 14l78.1787 82h38
l-58.8584 -58l1.55664 -2c7.88672 4 19.3301 6 32.3301 6c42 0 73.6797 -24 63.0381 -72c-12.1934 -55 -69.9521 -90 -127.952 -90c-38 0 -64.1133 4 -88.4531 16z" />
    <glyph glyph-name="Eacute" unicode="&#xc9;" 
d="M226.063 722h330l-14.6318 -66h-252l-54.5371 -246h186l-14.6318 -66h-186l-61.6309 -278h264l-14.6318 -66h-342zM546.082 898l-156.594 -138h-50l128.594 138h78z" />
    <glyph glyph-name="Ecircumflex" unicode="&#xca;" 
d="M226.063 722h330l-14.6318 -66h-252l-54.5371 -246h186l-14.6318 -66h-186l-61.6309 -278h264l-14.6318 -66h-342zM261.488 760l131.594 138h68l70.4062 -138h-64l-48.3867 102l-93.6133 -102h-64z" />
    <glyph glyph-name="Edieresis" unicode="&#xcb;" 
d="M226.063 722h330l-14.6318 -66h-252l-54.5371 -246h186l-14.6318 -66h-186l-61.6309 -278h264l-14.6318 -66h-342zM299.705 770l22.6133 102h66l-22.6133 -102h-66zM431.705 770l22.6133 102h66l-22.6133 -102h-66z" />
    <glyph glyph-name="Egrave" unicode="&#xc8;" 
d="M226.063 722h330l-14.6318 -66h-252l-54.5371 -246h186l-14.6318 -66h-186l-61.6309 -278h264l-14.6318 -66h-342zM403.488 760l-95.4062 138h78l67.4062 -138h-50z" />
    <glyph glyph-name="Iacute" unicode="&#xcd;" horiz-adv-x="222" 
d="M232.063 722h78l-160.063 -722h-78zM429.082 898l-156.594 -138h-50l128.594 138h78z" />
    <glyph glyph-name="Icircumflex" unicode="&#xce;" horiz-adv-x="222" 
d="M232.063 722h78l-160.063 -722h-78zM144.488 760l131.594 138h68l70.4062 -138h-64l-48.3867 102l-93.6133 -102h-64z" />
    <glyph glyph-name="Idieresis" unicode="&#xcf;" horiz-adv-x="222" 
d="M232.063 722h78l-160.063 -722h-78zM182.705 770l22.6133 102h66l-22.6133 -102h-66zM314.705 770l22.6133 102h66l-22.6133 -102h-66z" />
    <glyph glyph-name="Igrave" unicode="&#xcc;" horiz-adv-x="222" 
d="M232.063 722h78l-160.063 -722h-78zM286.488 760l-95.4062 138h78l67.4062 -138h-50z" />
    <glyph glyph-name="Ntilde" unicode="&#xd1;" horiz-adv-x="500" 
d="M216.063 722h122l68.0586 -532h2l117.941 532h78l-160.063 -722h-84l-84.7754 628h-2l-139.225 -628h-78zM315.705 770h-36c10.5332 43 51.7266 98 98.7266 98c25 0 46.5615 -11 66.1221 -22c19.5615 -11 38.123 -22 55.123 -22c29 0 40.542 25 49.085 50h36
c-13.8633 -49 -43.7266 -98 -99.7266 -98c-21 0 -41.5615 11 -61.1221 22c-19.5615 11 -39.123 22 -57.123 22c-28 0 -43.542 -25 -51.085 -50z" />
    <glyph glyph-name="Oacute" unicode="&#xd3;" horiz-adv-x="500" 
d="M456.032 361c54.3154 245 11.6162 305 -58.3838 305s-139.301 -60 -193.616 -305s-11.6172 -305 58.3828 -305s139.302 60 193.617 305zM534.032 361c-59.6367 -269 -164.249 -371 -286.249 -371s-181.388 102 -121.751 371c59.6357 269 164.248 371 286.248 371
c122.001 0 181.388 -102 121.752 -371zM568.082 898l-156.594 -138h-50l128.594 138h78z" />
    <glyph glyph-name="Ocircumflex" unicode="&#xd4;" horiz-adv-x="500" 
d="M456.032 361c54.3154 245 11.6162 305 -58.3838 305s-139.301 -60 -193.616 -305s-11.6172 -305 58.3828 -305s139.302 60 193.617 305zM534.032 361c-59.6367 -269 -164.249 -371 -286.249 -371s-181.388 102 -121.751 371c59.6357 269 164.248 371 286.248 371
c122.001 0 181.388 -102 121.752 -371zM283.488 760l131.594 138h68l70.4062 -138h-64l-48.3867 102l-93.6133 -102h-64z" />
    <glyph glyph-name="Odieresis" unicode="&#xd6;" horiz-adv-x="500" 
d="M456.032 361c54.3154 245 11.6162 305 -58.3838 305s-139.301 -60 -193.616 -305s-11.6172 -305 58.3828 -305s139.302 60 193.617 305zM534.032 361c-59.6367 -269 -164.249 -371 -286.249 -371s-181.388 102 -121.751 371c59.6357 269 164.248 371 286.248 371
c122.001 0 181.388 -102 121.752 -371zM321.705 770l22.6133 102h66l-22.6133 -102h-66zM453.705 770l22.6133 102h66l-22.6133 -102h-66z" />
    <glyph glyph-name="Ograve" unicode="&#xd2;" horiz-adv-x="500" 
d="M456.032 361c54.3154 245 11.6162 305 -58.3838 305s-139.301 -60 -193.616 -305s-11.6172 -305 58.3828 -305s139.302 60 193.617 305zM534.032 361c-59.6367 -269 -164.249 -371 -286.249 -371s-181.388 102 -121.751 371c59.6357 269 164.248 371 286.248 371
c122.001 0 181.388 -102 121.752 -371zM425.488 760l-95.4062 138h78l67.4062 -138h-50z" />
    <glyph glyph-name="Otilde" unicode="&#xd5;" horiz-adv-x="500" 
d="M456.032 361c54.3154 245 11.6162 305 -58.3838 305s-139.301 -60 -193.616 -305s-11.6172 -305 58.3828 -305s139.302 60 193.617 305zM534.032 361c-59.6367 -269 -164.249 -371 -286.249 -371s-181.388 102 -121.751 371c59.6357 269 164.248 371 286.248 371
c122.001 0 181.388 -102 121.752 -371zM315.705 770h-36c10.5332 43 51.7266 98 98.7266 98c25 0 46.5615 -11 66.1221 -22c19.5615 -11 38.123 -22 55.123 -22c29 0 40.542 25 49.085 50h36c-13.8633 -49 -43.7266 -98 -99.7266 -98c-21 0 -41.5615 11 -61.1221 22
c-19.5615 11 -39.123 22 -57.123 22c-28 0 -43.542 -25 -51.085 -50z" />
    <glyph glyph-name="Scaron" unicode="&#x160;" 
d="M514.828 536h-72c10.4062 74 -7.17969 130 -82.1797 130c-60 0 -107.867 -40 -120.061 -95c-36.1367 -163 253.42 -165 201.987 -397c-25.4951 -115 -106.792 -184 -225.792 -184c-113 0 -162.6 83 -137.774 204h72c-16.8438 -85 11.4062 -138 88.4062 -138
c65 0 116.312 42 133.382 119c36.3574 164 -249.43 183 -203.761 389c22.6123 102 107.244 168 211.244 168s156.481 -70 134.548 -196zM356.488 760l-70.4062 138h64l48.3877 -102l93.6123 102h64l-131.594 -138h-68z" />
    <glyph glyph-name="Uacute" unicode="&#xda;" horiz-adv-x="500" 
d="M226.063 722h78l-117.498 -530c-16.1836 -73 -9.15039 -136 75.8496 -136s119.967 63 136.15 136l117.498 530h78l-117.941 -532c-25.7168 -116 -98.3389 -200 -228.339 -200s-165.378 84 -139.661 200zM568.082 898l-156.594 -138h-50l128.594 138h78z" />
    <glyph glyph-name="Ucircumflex" unicode="&#xdb;" horiz-adv-x="500" 
d="M226.063 722h78l-117.498 -530c-16.1836 -73 -9.15039 -136 75.8496 -136s119.967 63 136.15 136l117.498 530h78l-117.941 -532c-25.7168 -116 -98.3389 -200 -228.339 -200s-165.378 84 -139.661 200zM283.488 760l131.594 138h68l70.4062 -138h-64l-48.3867 102
l-93.6133 -102h-64z" />
    <glyph glyph-name="Udieresis" unicode="&#xdc;" horiz-adv-x="500" 
d="M226.063 722h78l-117.498 -530c-16.1836 -73 -9.15039 -136 75.8496 -136s119.967 63 136.15 136l117.498 530h78l-117.941 -532c-25.7168 -116 -98.3389 -200 -228.339 -200s-165.378 84 -139.661 200zM321.705 770l22.6133 102h66l-22.6133 -102h-66zM453.705 770
l22.6133 102h66l-22.6133 -102h-66z" />
    <glyph glyph-name="Ugrave" unicode="&#xd9;" horiz-adv-x="500" 
d="M226.063 722h78l-117.498 -530c-16.1836 -73 -9.15039 -136 75.8496 -136s119.967 63 136.15 136l117.498 530h78l-117.941 -532c-25.7168 -116 -98.3389 -200 -228.339 -200s-165.378 84 -139.661 200zM425.488 760l-95.4062 138h78l67.4062 -138h-50z" />
    <glyph glyph-name="Yacute" unicode="&#xdd;" 
d="M176.063 722h84l53.9443 -316l190.056 316h84l-258.225 -416l-67.8389 -306h-78l67.8389 306zM540.082 898l-156.594 -138h-50l128.594 138h78z" />
    <glyph glyph-name="Ydieresis" unicode="&#x178;" 
d="M176.063 722h84l53.9443 -316l190.056 316h84l-258.225 -416l-67.8389 -306h-78l67.8389 306zM293.705 770l22.6133 102h66l-22.6133 -102h-66zM425.705 770l22.6133 102h66l-22.6133 -102h-66z" />
    <glyph glyph-name="Zcaron" unicode="&#x17d;" 
d="M228.063 722h332l-11.9717 -54l-401.46 -602h268l-14.6318 -66h-356l12.415 56l393.017 600h-236zM356.488 760l-70.4062 138h64l48.3877 -102l93.6123 102h64l-131.594 -138h-68z" />
    <glyph glyph-name="aacute" unicode="&#xe1;" 
d="M209.584 368l-63.7832 10c32.1787 82 95.6973 152 187.697 152c96 0 136.585 -56 116.189 -148l-64.292 -290c-10.1973 -46 -12.7354 -80 -7.39551 -92h-75l0.754883 44c-34.208 -28 -89.9717 -54 -122.972 -54c-81 0 -123.472 52 -105.293 134
c28.377 128 183.787 193 292.886 216l8.20312 37c12.6367 57 -8.38281 93 -54.3828 93c-55 0 -94.1924 -55 -112.612 -102zM316.057 104l39.0176 176c-70.4336 -20 -188.075 -68 -206.254 -150c-10.8633 -49 4.26465 -80 56.2646 -80c39 0 78.9854 27 110.972 54z
M499.733 716l-156.594 -138h-50l128.594 138h78z" />
    <glyph glyph-name="acircumflex" unicode="&#xe2;" 
d="M209.584 368l-63.7832 10c32.1787 82 95.6973 152 187.697 152c96 0 136.585 -56 116.189 -148l-64.292 -290c-10.1973 -46 -12.7354 -80 -7.39551 -92h-75l0.754883 44c-34.208 -28 -89.9717 -54 -122.972 -54c-81 0 -123.472 52 -105.293 134
c28.377 128 183.787 193 292.886 216l8.20312 37c12.6367 57 -8.38281 93 -54.3828 93c-55 0 -94.1924 -55 -112.612 -102zM316.057 104l39.0176 176c-70.4336 -20 -188.075 -68 -206.254 -150c-10.8633 -49 4.26465 -80 56.2646 -80c39 0 78.9854 27 110.972 54z
M215.14 578l131.594 138h68l70.4062 -138h-64l-48.3867 102l-93.6133 -102h-64z" />
    <glyph glyph-name="adieresis" unicode="&#xe4;" 
d="M209.584 368l-63.7832 10c32.1787 82 95.6973 152 187.697 152c96 0 136.585 -56 116.189 -148l-64.292 -290c-10.1973 -46 -12.7354 -80 -7.39551 -92h-75l0.754883 44c-34.208 -28 -89.9717 -54 -122.972 -54c-81 0 -123.472 52 -105.293 134
c28.377 128 183.787 193 292.886 216l8.20312 37c12.6367 57 -8.38281 93 -54.3828 93c-55 0 -94.1924 -55 -112.612 -102zM316.057 104l39.0176 176c-70.4336 -20 -188.075 -68 -206.254 -150c-10.8633 -49 4.26465 -80 56.2646 -80c39 0 78.9854 27 110.972 54z
M253.356 588l22.6133 102h66l-22.6133 -102h-66zM385.356 588l22.6133 102h66l-22.6133 -102h-66z" />
    <glyph glyph-name="agrave" unicode="&#xe0;" 
d="M209.584 368l-63.7832 10c32.1787 82 95.6973 152 187.697 152c96 0 136.585 -56 116.189 -148l-64.292 -290c-10.1973 -46 -12.7354 -80 -7.39551 -92h-75l0.754883 44c-34.208 -28 -89.9717 -54 -122.972 -54c-81 0 -123.472 52 -105.293 134
c28.377 128 183.787 193 292.886 216l8.20312 37c12.6367 57 -8.38281 93 -54.3828 93c-55 0 -94.1924 -55 -112.612 -102zM316.057 104l39.0176 176c-70.4336 -20 -188.075 -68 -206.254 -150c-10.8633 -49 4.26465 -80 56.2646 -80c39 0 78.9854 27 110.972 54z
M357.14 578l-95.4062 138h78l67.4062 -138h-50z" />
    <glyph glyph-name="aring" unicode="&#xe5;" 
d="M209.584 368l-63.7832 10c32.1787 82 95.6973 152 187.697 152c96 0 136.585 -56 116.189 -148l-64.292 -290c-10.1973 -46 -12.7354 -80 -7.39551 -92h-75l0.754883 44c-34.208 -28 -89.9717 -54 -122.972 -54c-81 0 -123.472 52 -105.293 134
c28.377 128 183.787 193 292.886 216l8.20312 37c12.6367 57 -8.38281 93 -54.3828 93c-55 0 -94.1924 -55 -112.612 -102zM316.057 104l39.0176 176c-70.4336 -20 -188.075 -68 -206.254 -150c-10.8633 -49 4.26465 -80 56.2646 -80c39 0 78.9854 27 110.972 54z
M276.201 673c11.5273 52 62.0605 95 116.061 95s85.4668 -43 73.9395 -95c-11.5283 -52 -62.0615 -95 -116.062 -95s-85.4668 43 -73.9385 95zM318.201 673c-6.20801 -28 13.25 -53 41.25 -53s58.542 25 64.75 53c6.20703 28 -13.251 53 -41.251 53s-58.542 -25 -64.749 -53
z" />
    <glyph glyph-name="atilde" unicode="&#xe3;" 
d="M209.584 368l-63.7832 10c32.1787 82 95.6973 152 187.697 152c96 0 136.585 -56 116.189 -148l-64.292 -290c-10.1973 -46 -12.7354 -80 -7.39551 -92h-75l0.754883 44c-34.208 -28 -89.9717 -54 -122.972 -54c-81 0 -123.472 52 -105.293 134
c28.377 128 183.787 193 292.886 216l8.20312 37c12.6367 57 -8.38281 93 -54.3828 93c-55 0 -94.1924 -55 -112.612 -102zM316.057 104l39.0176 176c-70.4336 -20 -188.075 -68 -206.254 -150c-10.8633 -49 4.26465 -80 56.2646 -80c39 0 78.9854 27 110.972 54z
M247.356 588h-36c10.5332 43 51.7266 98 98.7266 98c25 0 46.5615 -11 66.1221 -22c19.5615 -11 38.123 -22 55.123 -22c29 0 40.542 25 49.085 50h36c-13.8633 -49 -43.7266 -98 -99.7266 -98c-21 0 -41.5615 11 -61.1221 22c-19.5615 11 -39.123 22 -57.123 22
c-28 0 -43.542 -25 -51.085 -50z" />
    <glyph glyph-name="ccedilla" unicode="&#xe7;" horiz-adv-x="389" 
d="M427.141 366h-70c10.292 78 -14.9443 104 -58.9443 104c-61 0 -95.4238 -38 -133.556 -210s-20.5557 -210 40.4443 -210c46 0 77.3203 24 109.273 114h70c-34.6133 -102 -98.5752 -174 -192.575 -174c-109 0 -140.821 82 -99.1426 270s109.857 270 218.857 270
c94 0 124.255 -62 115.643 -164zM47.6611 -200l23.7549 44c14.6689 -6 35.8955 -14 61.8955 -14c40 0 70.7695 17 76.0898 41c5.09863 23 -9.4668 43 -44.4668 43c-16 0 -30.1084 -5 -44.2178 -10l-10.8955 14l78.1787 82h38l-58.8584 -58l1.55664 -2
c7.88672 4 19.3301 6 32.3301 6c42 0 73.6797 -24 63.0381 -72c-12.1934 -55 -69.9521 -90 -127.952 -90c-38 0 -64.1133 4 -88.4531 16z" />
    <glyph glyph-name="eacute" unicode="&#xe9;" horiz-adv-x="389" 
d="M175.282 308h174c22.8301 112 13.9141 162 -51.0859 162c-52 0 -94.4238 -38 -122.914 -162zM407.98 248h-246l-6.42969 -29c-28.1553 -127 -8.46582 -169 59.5342 -169c55 0 89.3066 51 108.726 98l66.2266 -8c-28.292 -78 -103.254 -150 -198.254 -150
c-109 0 -140.821 82 -99.1426 270s109.857 270 218.857 270c110 0 137.274 -98 104.02 -248zM472.733 716l-156.594 -138h-50l128.594 138h78z" />
    <glyph glyph-name="ecircumflex" unicode="&#xea;" horiz-adv-x="389" 
d="M175.282 308h174c22.8301 112 13.9141 162 -51.0859 162c-52 0 -94.4238 -38 -122.914 -162zM407.98 248h-246l-6.42969 -29c-28.1553 -127 -8.46582 -169 59.5342 -169c55 0 89.3066 51 108.726 98l66.2266 -8c-28.292 -78 -103.254 -150 -198.254 -150
c-109 0 -140.821 82 -99.1426 270s109.857 270 218.857 270c110 0 137.274 -98 104.02 -248zM188.14 578l131.594 138h68l70.4062 -138h-64l-48.3867 102l-93.6133 -102h-64z" />
    <glyph glyph-name="edieresis" unicode="&#xeb;" horiz-adv-x="389" 
d="M175.282 308h174c22.8301 112 13.9141 162 -51.0859 162c-52 0 -94.4238 -38 -122.914 -162zM407.98 248h-246l-6.42969 -29c-28.1553 -127 -8.46582 -169 59.5342 -169c55 0 89.3066 51 108.726 98l66.2266 -8c-28.292 -78 -103.254 -150 -198.254 -150
c-109 0 -140.821 82 -99.1426 270s109.857 270 218.857 270c110 0 137.274 -98 104.02 -248zM226.356 588l22.6133 102h66l-22.6133 -102h-66zM358.356 588l22.6133 102h66l-22.6133 -102h-66z" />
    <glyph glyph-name="egrave" unicode="&#xe8;" horiz-adv-x="389" 
d="M175.282 308h174c22.8301 112 13.9141 162 -51.0859 162c-52 0 -94.4238 -38 -122.914 -162zM407.98 248h-246l-6.42969 -29c-28.1553 -127 -8.46582 -169 59.5342 -169c55 0 89.3066 51 108.726 98l66.2266 -8c-28.292 -78 -103.254 -150 -198.254 -150
c-109 0 -140.821 82 -99.1426 270s109.857 270 218.857 270c110 0 137.274 -98 104.02 -248zM330.14 578l-95.4062 138h78l67.4062 -138h-50z" />
    <glyph glyph-name="iacute" unicode="&#xed;" horiz-adv-x="222" 
d="M75 0l115.281 520h72l-115.281 -520h-72zM388.733 716l-156.594 -138h-50l128.594 138h78z" />
    <glyph glyph-name="icircumflex" unicode="&#xee;" horiz-adv-x="222" 
d="M75 0l115.281 520h72l-115.281 -520h-72zM104.14 578l131.594 138h68l70.4062 -138h-64l-48.3867 102l-93.6133 -102h-64z" />
    <glyph glyph-name="idieresis" unicode="&#xef;" horiz-adv-x="222" 
d="M75 0l115.281 520h72l-115.281 -520h-72zM142.356 588l22.6133 102h66l-22.6133 -102h-66zM274.356 588l22.6133 102h66l-22.6133 -102h-66z" />
    <glyph glyph-name="igrave" unicode="&#xec;" horiz-adv-x="222" 
d="M75 0l115.281 520h72l-115.281 -520h-72zM246.14 578l-95.4062 138h78l67.4062 -138h-50z" />
    <glyph glyph-name="ntilde" unicode="&#xf1;" 
d="M72 0l115.281 520h68l-12.6367 -57c41.7598 35 98.8535 67 132.854 67c72 0 105.133 -40 83.8496 -136l-87.3477 -394h-72l85.1309 384c13.3018 60 1.06543 86 -37.9346 86c-35 0 -72.3203 -24 -113.188 -64l-90.0078 -406h-72zM247.356 588h-36
c10.5332 43 51.7266 98 98.7266 98c25 0 46.5615 -11 66.1221 -22c19.5615 -11 38.123 -22 55.123 -22c29 0 40.542 25 49.085 50h36c-13.8633 -49 -43.7266 -98 -99.7266 -98c-21 0 -41.5615 11 -61.1221 22c-19.5615 11 -39.123 22 -57.123 22
c-28 0 -43.542 -25 -51.085 -50z" />
    <glyph glyph-name="oacute" unicode="&#xf3;" horiz-adv-x="389" 
d="M164.641 260c-38.1318 -172 -20.5557 -210 40.4443 -210s95.4238 38 133.556 210s20.5557 210 -40.4443 210s-95.4238 -38 -133.556 -210zM92.6406 260c41.6787 188 109.857 270 218.857 270s140.821 -82 99.1426 -270s-109.857 -270 -218.857 -270
s-140.821 82 -99.1426 270zM472.733 716l-156.594 -138h-50l128.594 138h78z" />
    <glyph glyph-name="ocircumflex" unicode="&#xf4;" horiz-adv-x="389" 
d="M164.641 260c-38.1318 -172 -20.5557 -210 40.4443 -210s95.4238 38 133.556 210s20.5557 210 -40.4443 210s-95.4238 -38 -133.556 -210zM92.6406 260c41.6787 188 109.857 270 218.857 270s140.821 -82 99.1426 -270s-109.857 -270 -218.857 -270
s-140.821 82 -99.1426 270zM188.14 578l131.594 138h68l70.4062 -138h-64l-48.3867 102l-93.6133 -102h-64z" />
    <glyph glyph-name="odieresis" unicode="&#xf6;" horiz-adv-x="389" 
d="M164.641 260c-38.1318 -172 -20.5557 -210 40.4443 -210s95.4238 38 133.556 210s20.5557 210 -40.4443 210s-95.4238 -38 -133.556 -210zM92.6406 260c41.6787 188 109.857 270 218.857 270s140.821 -82 99.1426 -270s-109.857 -270 -218.857 -270
s-140.821 82 -99.1426 270zM226.356 588l22.6133 102h66l-22.6133 -102h-66zM358.356 588l22.6133 102h66l-22.6133 -102h-66z" />
    <glyph glyph-name="ograve" unicode="&#xf2;" horiz-adv-x="389" 
d="M164.641 260c-38.1318 -172 -20.5557 -210 40.4443 -210s95.4238 38 133.556 210s20.5557 210 -40.4443 210s-95.4238 -38 -133.556 -210zM92.6406 260c41.6787 188 109.857 270 218.857 270s140.821 -82 99.1426 -270s-109.857 -270 -218.857 -270
s-140.821 82 -99.1426 270zM330.14 578l-95.4062 138h78l67.4062 -138h-50z" />
    <glyph glyph-name="otilde" unicode="&#xf5;" horiz-adv-x="389" 
d="M164.641 260c-38.1318 -172 -20.5557 -210 40.4443 -210s95.4238 38 133.556 210s20.5557 210 -40.4443 210s-95.4238 -38 -133.556 -210zM92.6406 260c41.6787 188 109.857 270 218.857 270s140.821 -82 99.1426 -270s-109.857 -270 -218.857 -270
s-140.821 82 -99.1426 270zM220.356 588h-36c10.5332 43 51.7266 98 98.7266 98c25 0 46.5615 -11 66.1221 -22c19.5615 -11 38.123 -22 55.123 -22c29 0 40.542 25 49.085 50h36c-13.8633 -49 -43.7266 -98 -99.7266 -98c-21 0 -41.5615 11 -61.1221 22
c-19.5615 11 -39.123 22 -57.123 22c-28 0 -43.542 -25 -51.085 -50z" />
    <glyph glyph-name="scaron" unicode="&#x161;" horiz-adv-x="389" 
d="M424.008 406l-63.9902 -18c-3.02344 45 -13.8213 82 -71.8213 82c-34 0 -63.9854 -27 -71.7451 -62c-23.499 -106 195.171 -112 159.256 -274c-18.1787 -82 -91.9238 -144 -173.924 -144c-94 0 -129.693 51 -135.406 138l69.1035 14c4.80273 -46 21.6045 -92 74.6045 -92
c39 0 82.9805 36 92.5137 79c26.6035 120 -192.953 122 -159.034 275c15.0752 68 83.9336 126 162.934 126c80 0 117.803 -46 117.51 -124zM289.14 578l-70.4062 138h64l48.3877 -102l93.6123 102h64l-131.594 -138h-68z" />
    <glyph glyph-name="uacute" unicode="&#xfa;" 
d="M487.281 520l-115.281 -520h-68l12.6367 57c-41.7598 -35 -98.8535 -67 -132.854 -67c-72 0 -105.133 40 -83.8496 136l87.3477 394h72l-85.1309 -384c-13.3018 -60 -1.06543 -86 37.9346 -86c35 0 72.3203 24 113.188 64l90.0078 406h72zM499.733 716l-156.594 -138h-50
l128.594 138h78z" />
    <glyph glyph-name="ucircumflex" unicode="&#xfb;" 
d="M487.281 520l-115.281 -520h-68l12.6367 57c-41.7598 -35 -98.8535 -67 -132.854 -67c-72 0 -105.133 40 -83.8496 136l87.3477 394h72l-85.1309 -384c-13.3018 -60 -1.06543 -86 37.9346 -86c35 0 72.3203 24 113.188 64l90.0078 406h72zM215.14 578l131.594 138h68
l70.4062 -138h-64l-48.3867 102l-93.6133 -102h-64z" />
    <glyph glyph-name="udieresis" unicode="&#xfc;" 
d="M487.281 520l-115.281 -520h-68l12.6367 57c-41.7598 -35 -98.8535 -67 -132.854 -67c-72 0 -105.133 40 -83.8496 136l87.3477 394h72l-85.1309 -384c-13.3018 -60 -1.06543 -86 37.9346 -86c35 0 72.3203 24 113.188 64l90.0078 406h72zM253.356 588l22.6133 102h66
l-22.6133 -102h-66zM385.356 588l22.6133 102h66l-22.6133 -102h-66z" />
    <glyph glyph-name="ugrave" unicode="&#xf9;" 
d="M487.281 520l-115.281 -520h-68l12.6367 57c-41.7598 -35 -98.8535 -67 -132.854 -67c-72 0 -105.133 40 -83.8496 136l87.3477 394h72l-85.1309 -384c-13.3018 -60 -1.06543 -86 37.9346 -86c35 0 72.3203 24 113.188 64l90.0078 406h72zM357.14 578l-95.4062 138h78
l67.4062 -138h-50z" />
    <glyph glyph-name="yacute" unicode="&#xfd;" horiz-adv-x="333" 
d="M117.281 520h74l9.76562 -398h2l168.234 398h74l-231.843 -509c-52.2734 -114 -117.127 -181 -204.127 -181h-37l13.3018 60h22c57 0 103.09 41 133.273 114zM444.733 716l-156.594 -138h-50l128.594 138h78z" />
    <glyph glyph-name="ydieresis" unicode="&#xff;" horiz-adv-x="333" 
d="M117.281 520h74l9.76562 -398h2l168.234 398h74l-231.843 -509c-52.2734 -114 -117.127 -181 -204.127 -181h-37l13.3018 60h22c57 0 103.09 41 133.273 114zM198.356 588l22.6133 102h66l-22.6133 -102h-66zM330.356 588l22.6133 102h66l-22.6133 -102h-66z" />
    <glyph glyph-name="zcaron" unicode="&#x17e;" horiz-adv-x="333" 
d="M140.979 460l13.3018 60h270l-10.6416 -48l-297.338 -412h206l-13.3018 -60h-286l11.9717 54l290.008 406h-184zM261.14 578l-70.4062 138h64l48.3877 -102l93.6123 102h64l-131.594 -138h-68z" />
    </font>
</defs>
</svg>
