<?xml version="1.0" standalone="no"?>
<!DOCTYPE svg PUBLIC "-//W3C//DTD SVG 1.1//EN" "http://www.w3.org/Graphics/SVG/1.1/DTD/svg11.dtd" >
<svg xmlns="http://www.w3.org/2000/svg" width="100%" height="100%">
<metadata>
Created by FontXChange 20110222 at Tue Nov  8 16:28:14 2011
 By Dan Rempel
 The digitally encoded machine readable software for producing the
 Typefaces licensed to you is copyrighted (c) 1989, 1990 Adobe Systems.
 All rights reserved. This software is the property of Adobe Systems
 Incorporated and its licensors, and may not be reproduced, used,
 displayed, modified, disclosed, or transferred  without the express
 written approval of Adobe.

 The digitally encoded machine readable outline data for producing
 the Typefaces licensed to you is copyrighted (c) 1981 Linotype AG
 and/or its subsidiaries. All Rights Reserved.
 This data is the property of Linotype AG and/or its subsidiaries
 and may not be reproduced, used, displayed, modified, disclosed or
 transferred without the express written approval of Linotype AG
 and/or its subsidiaries. 
</metadata>
<defs>
<font id="TradeGothic-BoldTwoOblique" horiz-adv-x="611" >
  <font-face 
    font-family="TradeGothic"
    font-weight="700"
    font-style="oblique"
    font-stretch="normal"
    units-per-em="1000"
    panose-1="2 0 8 3 0 0 0 0 0 0"
    ascent="800"
    descent="-200"
    x-height="520"
    cap-height="722"
    bbox="-169.217 -229 1090.06 977"
    underline-thickness="50"
    underline-position="-100"
    stemv=" 124 "
    unicode-range="U+0020-FB02"
  />
    <missing-glyph />
    <glyph glyph-name="space" unicode=" " horiz-adv-x="305" 
 />
    <glyph glyph-name="exclam" unicode="!" horiz-adv-x="333" 
d="M400.063 722l-131.97 -478h-96l79.9697 478h148zM235 0h-138l31.4805 142h138z" />
    <glyph glyph-name="quotedbl" unicode="&#x22;" horiz-adv-x="333" 
d="M296.763 450l60.3008 272h112l-60.3008 -272h-112zM123.763 450l60.3008 272h112l-60.3008 -272h-112z" />
    <glyph glyph-name="numbersign" unicode="#" 
d="M586.73 301l-19.9531 -90h-93l-74.7773 -211h-94l73.7773 211h-96l-74.7773 -211h-94l73.7773 211h-80l19.9531 90h93l43.6035 120h-80l19.9521 90h92l74.7773 211h94l-73.7773 -211h96l74.7773 211h94l-73.7773 -211h80l-19.9521 -90h-92l-43.6035 -120h80zM455.334 421
h-96l-43.6035 -120h96z" />
    <glyph glyph-name="dollar" unicode="$" 
d="M402.4 295l-43.2305 -195c52 0 113.434 20 129.174 91c12.8584 58 -24.7129 87 -85.9434 104zM360.989 442l39.9053 180c-61.8867 -4 -108.651 -30 -123.062 -95c-10.1973 -46 16.5898 -65 83.1562 -85zM285.17 100l48.1074 217c-107.458 25 -194.27 89 -169.439 201
c29.707 134 145.782 202 259.226 204l15.9619 72h74l-15.9619 -72c76.5566 -2 131.463 -34 183.053 -99l-95.0703 -77c-31.3545 39 -58.9248 68 -110.151 76l-44.3389 -200c131.688 -42 198.387 -102 170.453 -228c-29.2637 -132 -141.679 -188 -264.009 -194l-26.6035 -120
h-74l26.6035 120c-86.0049 9 -156.023 45 -194.618 119l102.405 74c24.585 -56 59.2646 -80 114.383 -93z" />
    <glyph glyph-name="percent" unicode="%" horiz-adv-x="889" 
d="M374.063 722c101 0 161.821 -82 140.095 -180c-21.7256 -98 -118.904 -180 -219.904 -180s-161.821 82 -140.096 180c21.7266 98 118.905 180 219.905 180zM352.338 624c-45 0 -90.6465 -39 -100.18 -82c-9.53223 -43 18.8213 -82 63.8213 -82s90.6465 39 100.179 82
c9.5332 43 -18.8203 82 -63.8203 82zM754.811 360c101 0 161.82 -82 140.095 -180c-21.7266 -98 -118.905 -180 -219.905 -180s-161.821 82 -140.095 180c21.7256 98 118.905 180 219.905 180zM733.084 262c-45 0 -90.6465 -39 -100.179 -82
c-9.5332 -43 18.8213 -82 63.8213 -82s90.6455 39 100.179 82c9.53223 43 -18.8213 82 -63.8213 82zM194.783 -10l579.498 742h85l-579.498 -742h-85z" />
    <glyph glyph-name="ampersand" unicode="&#x26;" horiz-adv-x="667" 
d="M342.031 573c-9.31152 -42 -3.17871 -82 12.0615 -117c48.873 31 101.184 73 111.604 120c8.86816 40 -4.59473 74 -45.5947 74c-28 0 -67.207 -28 -78.0703 -77zM590.254 362l103.349 -30c-36.5234 -61 -76.0469 -122 -127.24 -177c24.793 -28 55.3594 -48 91.1377 -49
l-25.7168 -116c-69 0 -95.7832 10 -163.151 76c-60.3066 -51 -128.849 -76 -199.849 -76c-135 0 -216.368 66 -184.444 210c19.7314 89 81.7021 143 162.122 190c-27.1416 58 -38.165 103 -22.4248 174c22.6123 102 114.244 168 220.244 168
c95.001 0 156.481 -70 136.308 -161c-20.8398 -94 -105.032 -149 -183.782 -202c27.25 -53 59.165 -103 95.2979 -143c38.3105 42 70.5088 88 98.1504 136zM215.669 206c-11.75 -53 27.8311 -100 83.8311 -100c35 0 73.1035 14 104.867 40
c-48.0234 45 -83.4951 97 -109.637 155c-40.208 -28 -68.6416 -48 -79.0615 -95z" />
    <glyph glyph-name="quoteright" unicode="&#x2019;" horiz-adv-x="278" 
d="M174.329 430l84.2539 150h-60l31.4805 142h138l-31.4805 -142l-97.2539 -150h-65z" />
    <glyph glyph-name="parenleft" unicode="(" horiz-adv-x="333" 
d="M348.28 732h121c-124.712 -125 -201.976 -257 -235.451 -408s-14.7393 -283 54.5488 -408h-121c-56.293 134 -83.2373 238 -45.5488 408s110.744 274 226.451 408z" />
    <glyph glyph-name="parenright" unicode=")" horiz-adv-x="333" 
d="M128.378 -84h-121c124.712 125 201.976 257 235.451 408s14.7393 283 -54.5488 408h121c56.293 -134 83.2373 -238 45.5488 -408s-110.744 -274 -226.451 -408z" />
    <glyph glyph-name="asterisk" unicode="*" horiz-adv-x="500" 
d="M351.81 572l5.1084 5l1.14551 145h99l-58.3672 -146l3.8916 -5l144.405 74l10.0479 -90l-151.1 -23l83.501 -106l-86.8584 -58l-37.5146 133l-7.22168 -1l-93.042 -131l-63.25 53l129.277 105l-0.669922 6l-142.009 18l45.7305 89z" />
    <glyph glyph-name="plus" unicode="+" horiz-adv-x="600" 
d="M423.612 314h206l-23.9434 -108h-206l-45.6689 -206h-108l45.6689 206h-206l23.9434 108h206l45.6689 206h108z" />
    <glyph glyph-name="comma" unicode="," horiz-adv-x="305" 
d="M58.7461 -150l84.2539 150h-60l31.4805 142h138l-31.4805 -142l-97.2539 -150h-65z" />
    <glyph glyph-name="hyphen" unicode="-" horiz-adv-x="333" 
d="M334.669 206h-245l23.9434 108h245z" />
    <glyph glyph-name="period" unicode="." horiz-adv-x="305" 
d="M221 0h-138l31.4805 142h138z" />
    <glyph glyph-name="slash" unicode="/" horiz-adv-x="278" 
d="M468.28 732l-389.497 -742h-109l389.497 742h109z" />
    <glyph glyph-name="zero" unicode="0" 
d="M122.032 361c45.8906 207 154.248 371 345.248 371c191.001 0 226.643 -164 180.752 -371c-45.8916 -207 -154.249 -371 -345.249 -371s-226.643 164 -180.751 371zM252.032 361c-43.6738 -197 -4.30566 -263 74.6943 -263s147.632 66 191.306 263
s4.30566 263 -74.6943 263s-147.632 -66 -191.306 -263z" />
    <glyph glyph-name="one" unicode="1" 
d="M499 0h-353l22.1699 100h112l110.403 498h-128l18.623 84c66.665 3 127.99 18 168.084 50h101.001l-140.111 -632h111z" />
    <glyph glyph-name="two" unicode="2" 
d="M542 0h-486l26.3818 119c47.0518 113 416.522 273 445.786 405c13.9668 63 -18.8301 100 -84.8301 100c-72 0 -124.642 -48 -155.273 -114l-110.458 25c39.6084 111 162.674 197 291.674 197c127.001 0 218.816 -73 188.888 -208
c-39.0186 -176 -216.98 -248 -433.338 -412h342z" />
    <glyph glyph-name="three" unicode="3" 
d="M266.938 329l23.9434 108c106 0 197.325 15 216.391 101c11.5283 52 -24.9336 86 -84.9336 86c-61 0 -109.538 -34 -153.962 -72l-68.708 78c86.4053 74 168.612 102 242.612 102c132.001 0 223.812 -64 196.766 -186c-15.9629 -72 -67.9336 -126 -143.585 -156
c80.0146 -27 112.383 -93 92.4297 -183c-33.4756 -151 -176.107 -217 -304.107 -217c-102 0 -194.358 48 -223.963 140l117.08 59c21.9199 -59 62.8262 -91 131.826 -91c64 0 133.646 39 149.164 109c26.1602 118 -103.953 122 -190.953 122z" />
    <glyph glyph-name="four" unicode="4" 
d="M182.971 266h225l71.3857 322h-2zM60.8018 166l28.1553 127l403.106 429h141l-101.093 -456h102l-22.1689 -100h-102l-36.8018 -166h-124l36.8018 166h-325z" />
    <glyph glyph-name="five" unicode="5" 
d="M162.933 338l112.131 384h390l-24.8291 -112h-292l-46.3584 -164c28.3203 24 66.3115 42 144.312 42c130 0 188.953 -122 162.793 -240c-35.0283 -158 -149.197 -258 -323.197 -258c-114 0 -182.028 54 -204.071 135l120.415 56c10.6934 -51 61.043 -81 109.821 -82
c91.335 -3 147.079 59 167.032 149c16.4053 74 -17.7363 132 -93.7363 132c-51 0 -94.7637 -26 -122.745 -62z" />
    <glyph glyph-name="six" unicode="6" 
d="M482.438 223c18.7363 80 -13.957 131 -94.957 131c-58 0 -108.208 -28 -148.18 -82c-27.0469 -122 30.4258 -174 100.426 -174c69 0 127.084 50 142.711 125zM688.31 678l-80.0566 -104c-24.2363 26 -58.915 50 -110.915 50c-98 0 -199.727 -98 -228.773 -220
c56.0898 41 108.858 58 174.858 58c127 0 199.718 -96 170.124 -234c-34.4766 -151 -162.764 -238 -307.764 -238c-151 0 -235.057 108 -186.284 328c55.8672 252 205.781 414 401.782 414c70 0 119.565 -20 167.028 -54z" />
    <glyph glyph-name="seven" unicode="7" 
d="M193.234 610l24.8291 112h495l-16.627 -75l-440.437 -647h-143l427.234 610h-347z" />
    <glyph glyph-name="eight" unicode="8" 
d="M668.376 552c-18.8447 -85 -75.8203 -130 -155.245 -168c79.5752 -38 123.273 -98 101.104 -198c-26.1602 -118 -158.452 -196 -311.452 -196s-250.708 78 -224.548 196c22.1689 100 92.4707 160 188.896 198c-62.5752 38 -99.5996 83 -80.7549 168
c24.3857 110 133.904 180 280.904 180c147.001 0 225.481 -70 201.096 -180zM324.952 90c91 0 147.312 42 161.278 105c14.4102 65 -85.958 131 -117.958 131s-141.858 -58 -158.042 -131c-13.9668 -63 23.7217 -105 114.722 -105zM444.111 632
c-80 0 -117.538 -34 -128.179 -82c-14.6318 -66 49.6133 -110 86.6133 -110s123.858 58 135.387 110c10.6406 48 -11.8213 82 -93.8213 82z" />
    <glyph glyph-name="nine" unicode="9" 
d="M276.626 499c-18.7354 -80 13.958 -131 94.958 -131c58 0 108.207 28 148.179 82c27.0469 122 -30.4248 174 -100.425 174c-69 0 -127.085 -50 -142.712 -125zM70.7549 44l80.0557 104c24.2363 -26 58.916 -50 110.916 -50c98 0 199.726 98 228.772 220
c-56.0898 -41 -108.858 -58 -174.858 -58c-127 0 -199.717 96 -170.123 234c34.4756 151 162.763 238 307.763 238c151.001 0 235.058 -108 186.284 -328c-55.8672 -252 -205.781 -414 -401.781 -414c-70 0 -119.566 20 -167.028 54z" />
    <glyph glyph-name="colon" unicode=":" horiz-adv-x="305" 
d="M287.509 300h-138l31.4805 142h138zM221 0h-138l31.4805 142h138z" />
    <glyph glyph-name="semicolon" unicode=";" horiz-adv-x="305" 
d="M58.7461 -150l84.2539 150h-60l31.4805 142h138l-31.4805 -142l-97.2539 -150h-65zM287.509 300h-138l31.4805 142h138z" />
    <glyph glyph-name="less" unicode="&#x3c;" horiz-adv-x="600" 
d="M582.835 103l-24.6084 -111l-470.784 222l20.3965 92l569.216 222l-24.6074 -111l-406.807 -157z" />
    <glyph glyph-name="equal" unicode="=" horiz-adv-x="600" 
d="M653.999 424l-23.9434 -108h-520l23.9434 108h520zM605.226 204l-23.9424 -108h-520l23.9424 108h520z" />
    <glyph glyph-name="greater" unicode="&#x3e;" horiz-adv-x="600" 
d="M38.2266 -8l24.6084 111l406.806 157l-337.193 157l24.6074 111l470.784 -222l-20.3965 -92z" />
    <glyph glyph-name="question" unicode="?" horiz-adv-x="444" 
d="M306.872 243h-110l12.1934 55c12.6367 57 55.499 106 97.4756 151s83.2871 87 92.5986 129c6.65137 30 -18.0283 54 -51.0283 54c-47 0 -87.1982 -46 -102.509 -88l-107.906 32c46.9482 99 133.584 156 240.584 156c98 0 168.586 -56 145.529 -160
c-14.6318 -66 -60.6084 -111 -105.919 -153c-45.5332 -43 -90.4014 -83 -102.816 -139zM269 0h-138l31.4805 142h138z" />
    <glyph glyph-name="at" unicode="@" horiz-adv-x="800" 
d="M436.202 249c63 0 119.302 60 132.604 120c10.6416 48 -12.8213 82 -58.8213 82c-60 0 -115.75 -53 -130.16 -118c-10.6416 -48 9.37793 -84 56.3779 -84zM624.074 492l22.084 50h88l-103.093 -244c-4.21777 -10 -11.3213 -24 -13.9814 -36
c-2.88184 -13 -1.87695 -22 9.12305 -22c45 0 110.193 55 133.914 162c35.4717 160 -55.4629 246 -203.463 246c-163 0 -295.269 -123 -331.848 -288c-38.7969 -175 54.5947 -286 220.595 -286c75 0 149.208 28 207.519 70h90c-89.9473 -99 -204.141 -154 -324.141 -154
c-206 0 -341.416 156 -293.973 370c46.7773 211 249.47 372 453.471 372c172 0 311.84 -118 271.048 -302c-48.7734 -220 -250.627 -287 -310.627 -287c-28 0 -48.2314 17 -41.6934 51l-1.77832 1c-30.207 -28 -73.5283 -52 -108.528 -52c-84 0 -140.042 81 -119.203 175
c26.6035 120 131.32 236 253.32 236c48 0 84.7871 -19 103.255 -62z" />
    <glyph glyph-name="A" unicode="A" 
d="M437.47 584l-154.612 -314h168l-11.3877 314h-2zM13 0l368.285 723h172l44.7148 -723h-137l-5.41602 156h-228l-77.584 -156h-137z" />
    <glyph glyph-name="B" unicode="B" horiz-adv-x="667" 
d="M78 0l160.063 722h268c144 0 226.359 -48 205.761 -177c-16.6279 -75 -60.4863 -133 -146.358 -164c85.5752 -38 108.043 -81 83.6562 -191c-24.8301 -112 -121.122 -190 -305.122 -190h-266zM287.386 322l-46.5557 -210h138c80 0 122.98 36 138.277 105
s-11.7217 105 -91.7217 105h-138zM351.234 610l-39.0186 -176h138c66 0 107.424 38 118.509 88s-13.4902 88 -79.4902 88h-138z" />
    <glyph glyph-name="C" unicode="C" 
d="M692.158 542l-131.65 -30c-6.47656 61 -39.9434 104 -107.943 104c-92 0 -167.066 -86 -204.532 -255c-39.4668 -169 -8.53223 -255 95.4678 -255c62 0 104.877 22 164.721 107l120.463 -34c-70.7119 -125 -178.9 -189 -310.9 -189c-184 0 -260.071 135 -207.751 371
c52.3193 236 188.248 371 372.248 371c138.001 0 204.255 -62 209.878 -190z" />
    <glyph glyph-name="D" unicode="D" horiz-adv-x="667" 
d="M78 0l160.063 722h239c191 0 299.501 -106 243.969 -361c-57.5322 -255 -213.032 -361 -404.032 -361h-239zM350.348 606l-108.631 -490h92c158 0 220.717 116 249.315 245s17.3154 245 -140.685 245h-92z" />
    <glyph glyph-name="E" unicode="E" 
d="M573 0h-489l160.063 722h478l-25.7158 -116h-340l-38.1318 -172h247l-25.7168 -116h-247l-44.7822 -202h351z" />
    <glyph glyph-name="F" unicode="F" horiz-adv-x="556" 
d="M216 0h-138l160.063 722h460l-25.7158 -116h-322l-38.1318 -172h241l-25.7168 -116h-241z" />
    <glyph glyph-name="G" unicode="G" horiz-adv-x="667" 
d="M714.489 548l-135.538 -34c-17.0381 72 -50.3867 102 -122.387 102c-102 0 -174.613 -102 -210.084 -262c-33.6982 -152 2.01953 -248 98.0195 -248c90 0 161.302 60 182.702 143h-137l25.7168 116h270l-80.9189 -365h-100l16.4053 74
c-72.1885 -64 -130.622 -84 -206.622 -84c-196 0 -252.416 156 -207.19 360c40.792 184 154.688 382 385.688 382c144.001 0 210.708 -78 221.209 -184z" />
    <glyph glyph-name="H" unicode="H" horiz-adv-x="722" 
d="M222 0h-138l160.063 722h138l-63.8477 -288h278l63.8477 288h138l-160.063 -722h-138l68.7256 310h-278z" />
    <glyph glyph-name="I" unicode="I" horiz-adv-x="333" 
d="M235 0h-138l160.063 722h138z" />
    <glyph glyph-name="J" unicode="J" horiz-adv-x="444" 
d="M14.2871 87l110.74 71c15.1328 -40 32.4727 -52 63.4727 -52c33 0 61.877 22 76.0654 86l117.498 530h138l-116.833 -527c-29.9287 -135 -112.447 -205 -240.447 -205c-76 0 -122.02 36 -148.496 97z" />
    <glyph glyph-name="K" unicode="K" horiz-adv-x="667" 
d="M216 0h-138l160.063 722h138l-71.6074 -323h-2l314.607 323h159l-265.079 -271l138.016 -451h-153l-102.959 343l-128.934 -126z" />
    <glyph glyph-name="L" unicode="L" horiz-adv-x="556" 
d="M530 0h-452l160.063 722h138l-134.347 -606h314z" />
    <glyph glyph-name="M" unicode="M" horiz-adv-x="833" 
d="M201 0h-120l160.063 722h194l27.2656 -504h2l251.734 504h196l-160.063 -722h-120l125.923 568h-2l-287.923 -568h-105l-34.0771 568h-2z" />
    <glyph glyph-name="N" unicode="N" horiz-adv-x="722" 
d="M211 0h-130l160.063 722h144l174.927 -492h2l109.073 492h130l-160.063 -722h-133l-181.049 514h-2z" />
    <glyph glyph-name="O" unicode="O" horiz-adv-x="667" 
d="M578.032 361c37.4658 169 4.53223 255 -108.468 255s-184.066 -86 -221.532 -255c-39.4668 -169 -5.53223 -255 108.468 -255c113 0 184.065 86 221.532 255zM716.032 361c-52.3203 -236 -188.249 -371 -385.249 -371s-273.071 135 -220.751 371
c52.3193 236 188.248 371 385.248 371c197.001 0 273.071 -135 220.752 -371z" />
    <glyph glyph-name="P" unicode="P" 
d="M206 0h-138l160.063 722h264c156 0 240.59 -65 207.336 -215s-146.664 -215 -302.664 -215h-126zM341.234 610l-45.6699 -206h110c104 0 141.646 39 155.835 103s-6.16504 103 -110.165 103h-110z" />
    <glyph glyph-name="Q" unicode="Q" horiz-adv-x="667" 
d="M375.787 193l27.2686 123c69.4482 -7 103.354 -39 127.604 -92c19.9805 36 35.1787 82 47.3721 137c37.4658 169 4.53223 255 -108.468 255s-184.066 -86 -221.532 -255c-39.4668 -169 -5.53223 -255 108.468 -255c34 0 64.7734 8 91.3203 24
c-14.127 31 -33.8066 55 -72.0332 63zM668.745 62l-25.7168 -116c-92 0 -105.675 15 -151.265 80c-47.3203 -24 -100.98 -36 -160.98 -36c-197 0 -273.071 135 -220.751 371c52.3193 236 188.248 371 385.248 371c197.001 0 273.071 -135 220.752 -371
c-24.8301 -112 -68.5615 -201 -130.972 -266c20.5664 -20 47.9062 -32 83.6846 -33z" />
    <glyph glyph-name="R" unicode="R" horiz-adv-x="667" 
d="M216 0h-138l160.063 722h288c164 0 208.939 -95 183.558 -214c-18.7305 -89 -79.6934 -161 -173.235 -186l87.6143 -322h-153l-70.8213 294h-119zM351.234 610l-45.2266 -204h102c108 0 148.538 34 163.613 102s-18.3867 102 -94.3867 102h-126z" />
    <glyph glyph-name="S" unicode="S" 
d="M671.145 569l-134.646 -39c-8.58496 56 -43.1602 94 -108.16 94c-60 0 -108.321 -24 -120.735 -80c-27.4902 -124 350.273 -98 298.396 -332c-32.8105 -148 -142.216 -222 -302.216 -222c-118 0 -214.368 66 -232.09 171l125.084 50
c17.9248 -68 50.9492 -113 131.949 -113c69 0 127.764 26 143.282 96c31.4805 142 -346.727 114 -297.511 336c28.5986 129 152.782 202 277.782 202c116.001 0 199.143 -58 218.864 -163z" />
    <glyph glyph-name="T" unicode="T" horiz-adv-x="556" 
d="M180.285 723h516l-25.7168 -116h-189l-134.568 -607h-138l134.568 607h-188.999z" />
    <glyph glyph-name="U" unicode="U" horiz-adv-x="722" 
d="M558.527 264l101.536 458h138l-100.206 -452c-46.7773 -211 -192.074 -280 -339.074 -280s-261.703 69 -214.926 280l100.206 452h138l-101.536 -458c-25.9385 -117 10.9727 -158 103.973 -158s148.089 41 174.027 158z" />
    <glyph glyph-name="V" unicode="V" horiz-adv-x="556" 
d="M201 0l-30.9365 722h136l10.0586 -532h2l251.941 532h136l-351.063 -722h-154z" />
    <glyph glyph-name="W" unicode="W" horiz-adv-x="833" 
d="M171 0l9.06348 722h129l-16.9648 -487h2l210.965 487h142l-12.9648 -487h2l206.965 487h129l-310.063 -722h-140l8.95117 514h-2l-217.951 -514h-140z" />
    <glyph glyph-name="X" unicode="X" horiz-adv-x="556" 
d="M285.027 370l-104.964 352h150l58.5625 -223l157.438 223h150l-261.036 -352l112.973 -370h-150l-65.6846 245l-174.315 -245h-150z" />
    <glyph glyph-name="Y" unicode="Y" horiz-adv-x="556" 
d="M314.063 722l60.5957 -286l187.404 286h144l-295.216 -434l-63.8477 -288h-138l63.8477 288l-102.784 434h144z" />
    <glyph glyph-name="Z" unicode="Z" horiz-adv-x="556" 
d="M555.717 116l-25.7168 -116h-514l25.9385 117l445.409 489h-314l25.7158 116h488l-24.3857 -110l-458.961 -496h352z" />
    <glyph glyph-name="bracketleft" unicode="[" horiz-adv-x="333" 
d="M270.595 -74h-235l176.469 796h233l-13.3018 -60h-125l-149.865 -676h127z" />
    <glyph glyph-name="backslash" unicode="\" horiz-adv-x="278" 
d="M194.783 -10l-60.5029 742h109l60.5029 -742h-109z" />
    <glyph glyph-name="bracketright" unicode="]" horiz-adv-x="333" 
d="M264.595 -74h-235l13.3018 60h127l149.865 676h-125l13.3018 60h233z" />
    <glyph glyph-name="asciicircum" unicode="^" horiz-adv-x="600" 
d="M255.928 347h-109l263.136 375h100l96.8643 -375h-110l-61.6934 263z" />
    <glyph glyph-name="underscore" unicode="_" horiz-adv-x="500" 
d="M472.288 -125h-500l11.085 50h500z" />
    <glyph glyph-name="quoteleft" unicode="&#x2018;" horiz-adv-x="278" 
d="M361.28 732l-84.2539 -150h60l-31.4805 -142h-138l31.4805 142l97.2539 150h65z" />
    <glyph glyph-name="a" unicode="a" horiz-adv-x="500" 
d="M450 0h-121l1.97656 45c-57.5381 -34 -109.193 -55 -174.193 -55c-94 0 -126.146 67 -110.406 138c26.1602 118 135.905 180 343.226 204l9.75488 44c8.86719 40 -18.2549 62 -62.2549 62c-58 0 -96.873 -31 -128.188 -64l-66.4766 61c44.1934 55 139.504 97 215.061 95
c139.335 -3 188.028 -54 153.444 -210l-54.3154 -245c-5.76367 -26 -9.52832 -52 -6.62695 -75zM346.372 137l24.8301 112c-86.5469 -16 -181.316 -33 -197.5 -106c-8.64551 -39 11.4766 -61 46.4766 -61c39 0 95.3164 33 126.193 55z" />
    <glyph glyph-name="b" unicode="b" horiz-adv-x="556" 
d="M64 0l160.063 722h124l-55.4238 -250h2c32.3164 33 96.8584 58 138.858 58c134 0 179.623 -128 151.246 -256c-35.9141 -162 -132.961 -284 -270.961 -284c-56 0 -91.9014 23 -126.368 66l-26.415 -56h-97zM273.574 386l-55.4238 -250
c21.5664 -20 32.8018 -46 85.8018 -46c74 0 129.302 60 153.688 170s-4.31152 170 -78.3115 170c-40 0 -75.6562 -21 -105.755 -44z" />
    <glyph glyph-name="c" unicode="c" horiz-adv-x="500" 
d="M541.683 391l-111.868 -40c-10.2451 44 -24.4854 79 -84.4854 79c-69 0 -113.972 -54 -139.688 -170s-4.68848 -170 68.3115 -170c54 0 93.2031 37 128.401 83l82.25 -53c-70.6182 -93 -142.042 -131 -236.82 -130c-141 0 -202.723 105 -166.143 270
s144.857 270 285.857 270c98 0 164.473 -52 174.185 -139z" />
    <glyph glyph-name="d" unicode="d" horiz-adv-x="556" 
d="M652.063 722l-160.063 -722h-105l6.41504 56c-53.5332 -43 -99.6318 -66 -155.632 -66c-138 0 -180.953 122 -145.039 284c28.377 128 130.754 256 264.754 256c42 0 95.458 -25 113.142 -58h2l55.4238 250h124zM398.15 136l55.4238 250
c-19.9014 23 -46.2451 44 -86.2451 44c-74 0 -129.302 -60 -153.688 -170s4.31152 -170 78.3115 -170c53 0 75.7646 26 106.198 46z" />
    <glyph glyph-name="e" unicode="e" horiz-adv-x="500" 
d="M219.829 324h200c13.9619 72 -14.7266 114 -74.7266 114s-107.312 -42 -125.273 -114zM515.207 240h-314c-21.9434 -108 16.7451 -150 74.7451 -150s90.7646 26 129.745 62l77.5859 -56c-64.4062 -74 -141.5 -106 -241.5 -106c-135 0 -196.723 105 -160.143 270
s144.857 270 285.857 270c136.222 1 186.727 -114 159.016 -239z" />
    <glyph glyph-name="f" unicode="f" horiz-adv-x="333" 
d="M406.112 420h-105l-93.1123 -420h-124l93.1123 420h-72l22.1689 100h71l14.1885 64c24.8301 112 77.8105 148 179.811 148h82l-22.1689 -100h-34c-52 0 -73.5469 -16 -82.415 -56l-12.415 -56h105z" />
    <glyph glyph-name="g" unicode="g" horiz-adv-x="500" 
d="M216.217 10c-68 0 -96.4238 -38 -101.302 -60c-8.86719 -40 21.1416 -58 125.142 -58c80 0 115.868 40 119.858 58c5.32129 24 -23.6982 60 -143.698 60zM400.037 352c10.6406 48 -18.9346 86 -65.9346 86c-53 0 -98.4248 -38 -109.065 -86
c-10.6416 -48 17.9336 -86 70.9336 -86c47 0 93.4248 38 104.066 86zM605.498 530l-18.6221 -84c-29 0 -61 0 -82.6602 -12c11.1221 -22 16.4717 -52 7.60352 -92c-21.7256 -98 -103.244 -168 -233.244 -168c-54 0 -97.4434 -2 -104.095 -32
c-18.6221 -84 348.651 30 302.538 -178c-16.4053 -74 -109.141 -154 -275.141 -154c-140 0 -222.688 42 -204.51 124c14.4102 65 70.2822 96 115.282 96l0.443359 2c-20.6738 15 -70.792 28 -58.377 84c11.085 50 77.5088 88 102.061 95
c-35.2402 35 -60.373 75 -46.4062 138c20.1748 91 110.127 181 245.127 181c44 0 92.0098 -18 117.803 -46c31.0938 32 73.6406 48 132.197 46z" />
    <glyph glyph-name="h" unicode="h" horiz-adv-x="556" 
d="M188 0h-124l160.063 722h124l-57.1973 -258c45.0947 32 103.632 66 164.632 66c104 0 138.925 -68 115.426 -174l-78.9238 -356h-124l74.9326 338c15.5186 70 -1.60352 92 -43.6035 92c-54 0 -101.873 -31 -128.193 -55z" />
    <glyph glyph-name="i" unicode="i" horiz-adv-x="278" 
d="M316.281 520l-115.281 -520h-124l115.281 520h124zM337.564 616h-124l25.7158 116h124z" />
    <glyph glyph-name="j" unicode="j" horiz-adv-x="278" 
d="M-37.3486 -182l22.3916 101c12.7783 -1 22.335 -3 40.335 -3c29 0 49.1035 14 60.1885 64l119.715 540h124l-124.149 -560c-23.499 -106 -77.2539 -150 -179.254 -150c-25 0 -45.335 3 -63.2266 8zM350.564 616h-124l25.7158 116h124z" />
    <glyph glyph-name="k" unicode="k" horiz-adv-x="500" 
d="M188 0h-124l160.063 722h124l-89.3428 -403h4l197.561 201h142l-196.009 -194l91.7275 -326h-132l-63.3447 233l-79.1846 -73z" />
    <glyph glyph-name="l" unicode="l" horiz-adv-x="278" 
d="M201 0h-124l160.063 722h124z" />
    <glyph glyph-name="m" unicode="m" horiz-adv-x="833" 
d="M188 0h-124l115.281 520h113l-12.415 -56c56.5332 43 99.6318 66 170.632 66c54 0 99.2363 -26 111.151 -76c52.5332 43 109.849 76 195.849 76c54 0 120.906 -32 93.416 -156l-82.9141 -374h-124l80.4756 363c9.31055 42 -2.58984 65 -47.1465 67
c-32 0 -81.4297 -29 -116.415 -56l-82.9141 -374h-124l80.4756 363c9.31055 42 -2.58984 65 -47.1465 67c-32 0 -81.4297 -29 -116.415 -56z" />
    <glyph glyph-name="n" unicode="n" horiz-adv-x="556" 
d="M188 0h-124l115.281 520h114l-12.415 -56c53.0947 32 113.632 66 174.632 66c104 0 138.925 -68 115.426 -174l-78.9238 -356h-124l74.9326 338c15.5186 70 -1.60352 92 -43.6035 92c-54 0 -101.873 -31 -128.193 -55z" />
    <glyph glyph-name="o" unicode="o" horiz-adv-x="500" 
d="M409.641 260c25.7168 116 4.68848 170 -64.3115 170s-113.972 -54 -139.688 -170s-4.68848 -170 64.3115 -170s113.972 54 139.688 170zM81.6406 260c36.5801 165 144.857 270 285.857 270s202.723 -105 166.143 -270s-144.857 -270 -285.857 -270
s-202.723 105 -166.143 270z" />
    <glyph glyph-name="p" unicode="p" horiz-adv-x="556" 
d="M21.8779 -190l157.403 710h119l-10.6416 -48c43.7598 35 89.8584 58 145.858 58c138 0 180.953 -122 145.039 -284c-28.377 -128 -130.754 -256 -264.754 -256c-42 0 -95.458 25 -113.142 58h-2l-52.7637 -238h-124zM273.131 384l-55.4238 -250
c19.9014 -23 46.2451 -44 86.2451 -44c74 0 129.302 60 153.688 170s-4.31152 170 -78.3115 170c-53 0 -75.7646 -26 -106.198 -46z" />
    <glyph glyph-name="q" unicode="q" horiz-adv-x="556" 
d="M607.281 520l-157.403 -710h-124l52.7637 238h-2c-32.3164 -33 -96.8584 -58 -138.858 -58c-134 0 -179.623 128 -151.246 256c35.9141 162 132.961 284 270.961 284c56 0 91.9014 -23 126.368 -66l26.415 56h97zM397.707 134l55.4238 250
c-21.5664 20 -32.8018 46 -85.8018 46c-74 0 -129.302 -60 -153.688 -170s4.31152 -170 78.3115 -170c40 0 75.6562 21 105.755 44z" />
    <glyph glyph-name="r" unicode="r" horiz-adv-x="333" 
d="M180 0h-124l115.281 520h114l-19.7305 -89h2c43.7451 62 93.5039 97 167.947 99l-29.042 -131c-5.77832 1 -12.7783 1 -21.7783 1c-62 0 -131.74 -71 -134.622 -84z" />
    <glyph glyph-name="s" unicode="s" horiz-adv-x="444" 
d="M494.984 451l-93.0752 -68c-19.0146 27 -45.8066 55 -84.8066 55c-48 0 -74.4336 -20 -81.3066 -51c-19.7305 -89 248.693 -51 206.571 -241c-23.9424 -108 -116.584 -156 -225.584 -156c-83 0 -142.798 37 -173.723 105l96.7451 62c20.1328 -40 51.373 -75 104.373 -75
c44 0 79.3213 24 87.0801 59c19.7314 89 -247.363 57 -207.236 238c21.5039 97 115.476 151 205.476 151c69 0 132.236 -26 165.486 -79z" />
    <glyph glyph-name="t" unicode="t" horiz-adv-x="333" 
d="M127.281 520h72l38.1318 172h124l-38.1318 -172h102l-22.1689 -100h-102l-65.1787 -294c-6.20703 -28 6.01855 -36 37.0186 -36c19 0 40.3311 6 59.2178 10l-22.6133 -102c-34.8867 -4 -65.7734 -8 -99.7734 -8c-92 0 -117.802 46 -101.396 120l68.7256 310h-72z" />
    <glyph glyph-name="u" unicode="u" horiz-adv-x="556" 
d="M483.281 520h124l-115.281 -520h-114l12.415 56c-53.0947 -32 -113.632 -66 -174.632 -66c-104 0 -138.925 68 -115.425 174l78.9229 356h124l-74.9326 -338c-15.5186 -70 1.60352 -92 43.6035 -92c54 0 101.873 31 128.193 55z" />
    <glyph glyph-name="v" unicode="v" horiz-adv-x="444" 
d="M155 0l-29.7188 520h124l7.96387 -352h2l166.036 352h124l-264.281 -520h-130z" />
    <glyph glyph-name="w" unicode="w" horiz-adv-x="667" 
d="M144 0l-18.7188 520h118l-0.829102 -324h2l146.829 324h115l0.170898 -324h2l145.829 324h118l-249.281 -520h-112l-5.1709 324h-2l-147.829 -324h-112z" />
    <glyph glyph-name="x" unicode="x" horiz-adv-x="444" 
d="M4 0l212.857 270l-91.5762 250h137l41.0762 -144l105.924 144h134l-201.424 -250l98.1426 -270h-132l-51.085 162l-119.915 -162h-133z" />
    <glyph glyph-name="y" unicode="y" horiz-adv-x="444" 
d="M-31.2354 -186l22.6133 102c18.1133 -4 33.1133 -4 51.1133 -4c43 0 69.6602 12 91.0889 41c17.543 25 28.8682 40 33.5234 61c4.21289 19 -0.910156 41 -2.25488 62l-40.5674 444h125l15.0576 -320h2l159.942 320h124l-279.503 -521
c-88.0322 -149 -140.9 -189 -242.9 -189c-30 0 -44.5566 2 -59.1133 4z" />
    <glyph glyph-name="z" unicode="z" horiz-adv-x="444" 
d="M132.112 420l22.1689 100h385l-19.5088 -88l-323.603 -332h252l-22.1699 -100h-408l19.5088 88l324.604 332h-230z" />
    <glyph glyph-name="braceleft" unicode="{" horiz-adv-x="333" 
d="M73.1787 294l13.3018 60c40 0 75.542 25 84.4102 65l43.0088 194c18.1787 82 80.3809 119 154.381 119h71l-13.3008 -60h-49c-28 0 -47.3213 -24 -53.085 -50l-42.1221 -190c-14.6318 -66 -42.8398 -94 -99.7217 -107l-0.443359 -2c51.1182 -13 66.9102 -41 52.2783 -107
l-42.1221 -190c-5.76367 -26 2.91602 -50 30.916 -50h49l-13.3018 -60h-71c-74 0 -119.798 37 -101.618 119l43.0088 194c8.86719 40 -15.5898 65 -55.5898 65z" />
    <glyph glyph-name="bar" unicode="|" horiz-adv-x="222" 
d="M54.7832 -10l164.497 742h108l-164.497 -742h-108z" />
    <glyph glyph-name="braceright" unicode="}" horiz-adv-x="333" 
d="M403.48 354l-13.3018 -60c-40 0 -75.543 -25 -84.4102 -65l-43.0088 -194c-18.1797 -82 -80.3818 -119 -154.382 -119h-71l13.3018 60h49c28 0 47.3203 24 53.084 50l42.1221 190c14.6318 66 42.8398 94 99.7217 107l0.443359 2c-51.1182 13 -66.9102 41 -52.2783 107
l42.1221 190c5.76367 26 -2.91504 50 -30.915 50h-49l13.3008 60h71c74 0 119.798 -37 101.619 -119l-43.0088 -194c-8.86816 -40 15.5898 -65 55.5898 -65z" />
    <glyph glyph-name="asciitilde" unicode="~" horiz-adv-x="600" 
d="M572.594 350l15.0469 -90c-38.3115 -42 -81.2871 -87 -149.287 -87c-46 0 -73.458 25 -108.024 45c-23.1172 13 -48.6787 24 -84.6787 24c-47 0 -79.2031 -37 -102.962 -72l-15.0479 90c30.3115 42 76.0654 86 143.065 86c74 0 146.925 -68 197.925 -68
c40 0 73.2031 37 103.963 72z" />
    <glyph glyph-name="exclamdown" unicode="&#xa1;" horiz-adv-x="333" 
d="M53.0947 -180l131.971 478h96l-79.9707 -478h-148zM218.158 542h138l-31.4805 -142h-138z" />
    <glyph glyph-name="cent" unicode="&#xa2;" 
d="M258.934 126l174.509 300c-8.33496 3 -18.1133 4 -30.1133 4c-69 0 -123.972 -54 -149.688 -170c-13.9668 -63 -10.7217 -107 5.29297 -134zM473.348 394l-173.287 -299c9.11328 -4 19.8916 -5 31.8916 -5c54 0 93.2031 37 128.401 83l82.25 -53
c-70.6182 -93 -142.042 -131 -236.82 -130c-23 0 -43.335 3 -62.2266 8l-72.2686 -123h-58l84.1455 145c-61.9102 41 -82.8447 127 -57.793 240c36.5801 165 144.857 270 285.857 270c24 0 45.335 -3 64.2266 -8l61.5 106h58l-74.377 -128
c36.9004 -23 59.4766 -61 64.835 -109l-111.868 -40c-3.45215 16 -8.34863 30 -14.4668 43z" />
    <glyph glyph-name="sterling" unicode="&#xa3;" 
d="M460.612 314h-116c-9.75488 -44 -34.9336 -126 -64.8018 -166c32.9014 -23 64.6895 -42 109.689 -42c70 0 85.8584 58 102.829 112h120c-27.4893 -124 -104.546 -228 -218.546 -228c-96 0 -134.345 21 -190.255 62c-38.9814 -36 -95.1885 -64 -153.745 -62l27.4902 124
c76.3301 6 111.4 83 124.48 142c4.43359 20 7.64648 39 8.8584 58h-95l20.8389 94h81c1.4248 38 4.29297 78 14.7119 125c28.5986 129 120.117 199 264.117 199c132.001 0 194.821 -82 165.779 -213h-120c6.9668 63 -5.72168 105 -76.7217 105
c-64 0 -94.3066 -51 -106.057 -104c-9.31055 -42 -9.40527 -74 -7.83008 -112h130z" />
    <glyph glyph-name="fraction" unicode="&#x2044;" horiz-adv-x="167" 
d="M-169.217 -10l577.497 742h88l-576.497 -742h-89z" />
    <glyph glyph-name="yen" unicode="&#xa5;" 
d="M406.782 202l-44.7822 -202h-114l44.7822 202h-180l20.8398 94h176l-18.9248 68h-142l20.8389 94h95l-76.4727 264h124l84.2744 -310l222.726 310h124l-193.527 -264h94l-20.8389 -94h-141l-50.0752 -68h176l-20.8398 -94h-180z" />
    <glyph glyph-name="florin" unicode="&#x192;" 
d="M17.6514 -182l42.5 106c13.1133 -4 26.7832 -10 51.7832 -10c46 0 58.207 28 231.206 452h-97l20.8389 94h119c80.0088 194 131.302 272 251.302 272c30 0 54.1123 -4 76.0039 -9l-39.499 -106c-14.6699 6 -27.5615 11 -44.5615 11c-55 0 -82.3018 -60 -120.245 -168h103
l-20.8389 -94h-120c-153.037 -352 -186.711 -549 -384.263 -556c-28.2217 -1 -49.1133 4 -69.2266 8z" />
    <glyph glyph-name="section" unicode="&#xa7;" horiz-adv-x="500" 
d="M549.545 652l-80.1934 -55c-15.457 25 -35.25 53 -70.25 53c-27 0 -52.9902 -18 -58.3105 -42c-17.7363 -80 200.104 -198 170.175 -333c-9.75391 -44 -48.1689 -100 -133.272 -114c22.9053 -32 35.0371 -72 25.0615 -117c-18.4014 -83 -95.377 -128 -172.377 -128
c-66 0 -110.798 37 -141.156 85l79.75 53c12.5703 -29 34.585 -56 70.585 -56c34 0 62.1035 14 70.085 50c20.3955 92 -201.114 216 -173.624 340c14.4102 65 70.8301 112 134.717 116c-22.0195 36 -32.5898 65 -22.1699 112c15.9619 72 81.7158 116 159.716 116
c71 0 103.01 -18 141.265 -80zM232.234 398c-3.76855 -17 9.46777 -43 46.3828 -93c37.6934 -51 65.1514 -76 84.1514 -76c26 0 47.5469 16 52.8672 40c5.32129 24 -14.915 50 -49.2734 98c-41.1416 58 -61.2598 71 -82.2598 71c-22 0 -46.7686 -17 -51.8682 -40z" />
    <glyph glyph-name="currency" unicode="&#xa4;" 
d="M688.706 558l-63.5283 -52c19.6885 -42 25.6035 -92 13.8545 -145c-11.75 -53 -39.835 -103 -78.1465 -145l40.4727 -52l-76.1885 -64l-43.6943 51c-45.9854 -27 -99.7539 -44 -152.754 -44s-99.2314 17 -133.246 44l-66.3057 -51l-47.8115 64l63.5273 52
c-19.6885 42 -25.6035 92 -13.8535 145c11.749 53 39.834 103 78.1455 145l-40.4717 52l76.1885 64l43.6934 -51c45.9854 27 99.7549 44 152.755 44s99.2305 -17 133.245 -44l66.3066 51zM245.032 361c-18.8447 -85 26.1885 -148 107.188 -148s153.967 63 172.812 148
c18.8438 85 -26.1895 148 -107.189 148s-153.967 -63 -172.811 -148z" />
    <glyph glyph-name="quotesingle" unicode="'" horiz-adv-x="222" 
d="M154.763 450l60.3008 272h112l-60.3008 -272h-112z" />
    <glyph glyph-name="quotedblleft" unicode="&#x201c;" horiz-adv-x="444" 
d="M556.281 732l-84.2549 -150h60l-31.4805 -142h-138l31.4805 142l97.2539 150h65.001zM333.28 732l-84.2539 -150h60l-31.4805 -142h-138l31.4805 142l97.2539 150h65z" />
    <glyph glyph-name="guillemotleft" unicode="&#xab;" horiz-adv-x="556" 
d="M116.976 257l156.137 163h112l-159.137 -163l88.1943 -157h-112zM320.976 257l156.137 163h112l-159.137 -163l88.1943 -157h-112z" />
    <glyph glyph-name="guilsinglleft" unicode="&#x2039;" horiz-adv-x="333" 
d="M97.9756 257l156.137 163h112l-159.137 -163l88.1943 -157h-112z" />
    <glyph glyph-name="guilsinglright" unicode="&#x203a;" horiz-adv-x="333" 
d="M265.112 420l83.8633 -163l-154.806 -157h-112l157.806 157l-86.8633 163h112z" />
    <glyph glyph-name="fi" unicode="&#xfb01;" horiz-adv-x="556" 
d="M607.281 520l-115.281 -520h-124l115.281 520h124zM628.564 616h-124l25.7168 116h124zM406.112 420h-105l-93.1123 -420h-124l93.1123 420h-72l22.1689 100h71l14.1885 64c24.8301 112 77.8105 148 179.811 148h82l-22.1689 -100h-34c-52 0 -73.5469 -16 -82.415 -56
l-12.415 -56h105z" />
    <glyph glyph-name="fl" unicode="&#xfb02;" horiz-adv-x="556" 
d="M492 0h-124l160.063 722h124zM406.112 420h-105l-93.1123 -420h-124l93.1123 420h-72l22.1689 100h71l14.1885 64c24.8301 112 77.8105 148 179.811 148h82l-22.1689 -100h-34c-52 0 -73.5469 -16 -82.415 -56l-12.415 -56h105z" />
    <glyph glyph-name="endash" unicode="&#x2013;" horiz-adv-x="500" 
d="M548.329 218h-500l18.623 84h500z" />
    <glyph glyph-name="dagger" unicode="&#x2020;" horiz-adv-x="500" 
d="M558.366 570l-23.5 -106l-151.349 30l-9.69336 -161l-122.229 -407h-36l58.2295 407l61.6934 161l-164.651 -30l23.5 106l151.349 -30l16.5654 192h100l-68.5654 -192z" />
    <glyph glyph-name="daggerdbl" unicode="&#x2021;" horiz-adv-x="500" 
d="M272.938 329l64.3535 173l-164.651 -30l23.5 106l151.35 -30l14.791 184h100l-66.791 -184l164.65 30l-23.5 -106l-151.349 30l-12.3535 -173l-64.3535 -173l164.651 30l-23.5 -106l-151.349 30l-14.792 -184h-100l66.792 184l-164.651 -30l23.5 106l151.349 -30z" />
    <glyph glyph-name="periodcentered" unicode="&#xb7;" horiz-adv-x="305" 
d="M285.641 260c-9.5332 -43 -51.8486 -76 -94.8486 -76c-42 0 -66.4629 34 -57.1514 76c9.08984 41 49.8486 76 90.8486 76c42 0 70.4629 -34 61.1514 -76z" />
    <glyph glyph-name="paragraph" unicode="&#xb6;" horiz-adv-x="620" 
d="M204.925 -68l96.8809 437c-118 0 -183.368 66 -159.647 173c31.4814 142 144.905 180 249.905 180h354l-18.6221 -84h-73l-156.517 -706h-102l156.517 706h-89l-156.517 -706h-102z" />
    <glyph glyph-name="bullet" unicode="&#x2022;" horiz-adv-x="500" 
d="M149.032 361c22.1689 100 119.904 180 219.904 180s163.265 -80 141.096 -180c-22.1699 -100 -121.127 -181 -221.127 -181s-162.043 81 -139.873 181z" />
    <glyph glyph-name="quotesinglbase" unicode="&#x201a;" horiz-adv-x="278" 
d="M45.7461 -150l84.2539 150h-60l31.4805 142h138l-31.4805 -142l-97.2539 -150h-65z" />
    <glyph glyph-name="quotedblbase" unicode="&#x201e;" horiz-adv-x="444" 
d="M16.7461 -150l84.2539 150h-60l31.4805 142h138l-31.4805 -142l-97.2539 -150h-65zM239.746 -150l84.2539 150h-60l31.4805 142h138l-31.4805 -142l-97.2539 -150h-65z" />
    <glyph glyph-name="quotedblright" unicode="&#x201d;" horiz-adv-x="444" 
d="M145.329 430l84.2539 150h-60l31.4805 142h138l-31.4805 -142l-97.2539 -150h-65zM368.329 430l84.2539 150h-60l31.4805 142h138l-31.4805 -142l-97.2539 -150h-65z" />
    <glyph glyph-name="guillemotright" unicode="&#xbb;" horiz-adv-x="556" 
d="M554.306 263l-156.136 -163h-112l159.136 163l-88.1934 157h112zM350.306 263l-156.136 -163h-112l159.136 163l-88.1934 157h112z" />
    <glyph glyph-name="ellipsis" unicode="&#x2026;" horiz-adv-x="1000" 
d="M904 0h-142l31.4805 142h142zM571 0h-142l31.4805 142h142zM238 0h-142l31.4805 142h142z" />
    <glyph glyph-name="perthousand" unicode="&#x2030;" horiz-adv-x="1000" 
d="M322.063 722c82 0 133.146 -67 115.189 -148s-98.8105 -148 -180.811 -148s-133.146 67 -115.189 148s98.8105 148 180.811 148zM303.885 640c-38 0 -72.4287 -29 -80.6318 -66s13.3682 -66 51.3682 -66s72.4287 29 80.6318 66s-13.3682 66 -51.3682 66zM524.442 214
c-38 0 -72.4287 -29 -80.6318 -66c-8.20215 -37 13.3682 -66 51.3682 -66s72.4297 29 80.6318 66c8.20312 37 -13.3682 66 -51.3682 66zM542.622 296c82 0 133.146 -67 115.188 -148c-17.957 -81 -98.8105 -148 -180.811 -148s-133.146 67 -115.189 148
c17.958 81 98.8115 148 180.812 148zM885.442 214c-38 0 -72.4287 -29 -80.6318 -66c-8.20215 -37 13.3682 -66 51.3682 -66s72.4297 29 80.6318 66c8.20312 37 -13.3682 66 -51.3682 66zM903.622 296c82 0 133.146 -67 115.188 -148
c-17.957 -81 -98.8105 -148 -180.811 -148s-133.146 67 -115.189 148c17.958 81 98.8115 148 180.812 148zM73.7832 -10l572.498 742h77l-572.498 -742h-77z" />
    <glyph glyph-name="questiondown" unicode="&#xbf;" horiz-adv-x="444" 
d="M257.287 299h110l-12.1934 -55c-12.6367 -57 -55.5 -106 -97.4766 -151c-41.9756 -45 -83.2871 -87 -92.5986 -129c-6.65039 -30 18.0293 -54 51.0293 -54c47 0 87.1973 46 102.509 88l107.905 -32c-46.9473 -99 -133.584 -156 -240.584 -156
c-98 0 -168.585 56 -145.528 160c14.6318 66 60.6074 111 105.919 153c45.5332 43 90.4004 83 102.815 139zM295.158 542h138l-31.4805 -142h-138z" />
    <glyph glyph-name="grave" unicode="`" horiz-adv-x="278" 
d="M134.28 732h154l61.6328 -146h-102z" />
    <glyph glyph-name="acute" unicode="&#xb4;" horiz-adv-x="278" 
d="M314.28 732h154l-178.367 -146h-102z" />
    <glyph glyph-name="circumflex" unicode="&#x2c6;" horiz-adv-x="278" 
d="M238.28 732h124l82.6328 -146h-113l-44.8213 82l-82.1787 -82h-112z" />
    <glyph glyph-name="tilde" unicode="&#x2dc;" horiz-adv-x="278" 
d="M417.063 722h65c-26.7451 -62 -67.0469 -122 -138.047 -122c-50 0 -99.2402 35 -139.24 35c-27 0 -41.9902 -18 -55.0898 -41h-62c22.7451 62 72.0469 122 141.047 122c54 0 99.7979 -37 131.798 -37c24 0 46.4336 20 56.5322 43z" />
    <glyph glyph-name="macron" unicode="&#xaf;" horiz-adv-x="278" 
d="M449.008 618h-346l16.4053 74h346z" />
    <glyph glyph-name="breve" unicode="&#x2d8;" horiz-adv-x="278" 
d="M404.28 732h66c-35.9473 -99 -109.367 -146 -208.367 -146c-94 0 -144.915 50 -129.633 146h66c-6.19238 -55 41.4814 -70 88.4814 -70c54 0 93.3262 15 117.519 70z" />
    <glyph glyph-name="dotaccent" unicode="&#x2d9;" horiz-adv-x="278" 
d="M236.847 712h120l-25.7168 -116h-120z" />
    <glyph glyph-name="dieresis" unicode="&#xa8;" horiz-adv-x="278" 
d="M141.847 712h120l-25.7168 -116h-120zM331.847 712h120l-25.7168 -116h-120z" />
    <glyph glyph-name="ring" unicode="&#x2da;" horiz-adv-x="278" 
d="M184.635 693c13.3018 60 71.9434 108 131.943 108s97.3584 -48 84.0566 -108s-71.9434 -108 -131.943 -108s-97.3584 48 -84.0566 108zM238.635 693c-6.65137 -30 12.0283 -54 42.0283 -54s59.3203 24 65.9717 54c6.65039 30 -12.0283 54 -42.0283 54
s-59.3213 -24 -65.9717 -54z" />
    <glyph glyph-name="cedilla" unicode="&#xb8;" horiz-adv-x="278" 
d="M-24.0039 -203l27.3105 42c15.6699 -6 46.4531 -16 74.4531 -16c33 0 53.7734 8 61.3115 42c5.76367 26 -14.1279 31 -36.1279 31c-14 0 -32.8867 -4 -43.3301 -6l-15.5654 20l78.9521 90h53l-56.9668 -63c12.665 3 25.1084 5 37.1084 5c45 0 82.9014 -23 71.1514 -76
c-14.8535 -67 -91.0615 -95 -148.062 -95c-38 0 -71.3389 12 -103.235 26z" />
    <glyph glyph-name="hungarumlaut" unicode="&#x2dd;" horiz-adv-x="278" 
d="M194.28 732h154l-164.367 -146h-98zM388.28 732h154.001l-178.368 -146h-102z" />
    <glyph glyph-name="ogonek" unicode="&#x2db;" horiz-adv-x="278" 
d="M262.655 21l-2.66016 -12c-57.4336 -20 -153.858 -58 -168.712 -125c-6.87207 -31 12.3584 -48 41.3584 -48c32 0 75.3213 24 105.09 41l12.0186 -36c-51.6504 -30 -107.636 -57 -163.636 -57c-57 0 -98.5713 29 -85.2695 89c22.3916 101 169.372 137 261.811 148z" />
    <glyph glyph-name="caron" unicode="&#x2c7;" horiz-adv-x="278" 
d="M329.913 586h-124l-80.6328 146h112l45.8213 -82l81.1787 82h113z" />
    <glyph glyph-name="emdash" unicode="&#x2014;" horiz-adv-x="1000" 
d="M1048.33 218h-1000l18.623 84h1000z" />
    <glyph glyph-name="AE" unicode="&#xc6;" horiz-adv-x="944" 
d="M154 0h-147l523.063 722h525l-25.7158 -116h-303l-38.1318 -172h210l-25.7168 -116h-210l-44.7822 -202h314l-25.7168 -116h-452l37.4668 169h-220zM354.183 285h163l74.7119 337h-2z" />
    <glyph glyph-name="ordfeminine" unicode="&#xaa;" horiz-adv-x="300" 
d="M378.781 414h-84l1.20801 28c-32.6553 -21 -65.5381 -34 -108.538 -34c-61 0 -82.1318 40 -72.5986 83c15.7402 71 85.9424 108 215.047 122l5.09863 23c4.87695 22 -7.90625 32 -36.9062 32c-38 0 -60.6602 -12 -80.6504 -30l-43.7969 37
c28.3154 33 89.8574 58 138.636 57c90.5566 -2 122.906 -32 102.067 -126l-32.5898 -147c-3.54688 -16 -5.87207 -31 -2.97656 -45zM303.961 496l14.8535 67c-50.9951 -9 -106.212 -19 -115.967 -63c-4.43359 -20 4.79199 -28 26.792 -28c26 0 60.4395 11 74.3213 24z" />
    <glyph glyph-name="Lslash" unicode="&#x141;" horiz-adv-x="556" 
d="M292.706 346l-50.9893 -230h314l-25.7168 -116h-452l64.292 290l-85.0947 -32l22.1699 100l85.0938 32l73.6025 332h138l-61.1875 -276l172.188 64l-22.1699 -100z" />
    <glyph glyph-name="Oslash" unicode="&#xd8;" horiz-adv-x="667" 
d="M590.626 499l-322.476 -363c20.5664 -20 49.3496 -30 88.3496 -30c113 0 184.065 86 221.532 255c12.415 56 16.6123 102 12.5938 138zM233.104 226l322.253 362c-20.7881 19 -48.792 28 -85.792 28c-113 0 -184.066 -86 -221.532 -255
c-11.9717 -54 -18.1699 -100 -14.9287 -135zM824.932 762l-121.15 -136c33.0332 -63 37.0801 -153 12.251 -265c-52.3203 -236 -188.249 -371 -385.249 -371c-65 0 -116.896 14 -154.467 43l-87.9482 -99h-114l146.58 165c-32.0332 63 -35.5244 151 -10.916 262
c52.3193 236 188.248 371 385.248 371c63.001 0 113.896 -14 151.689 -42l62.9619 72h115z" />
    <glyph glyph-name="OE" unicode="&#x152;" horiz-adv-x="944" 
d="M517.971 266l42.1221 190c28.377 128 -3.52832 160 -103.528 160c-92 0 -178.425 -38 -225.532 -255c-49.1084 -217 20.4678 -255 112.468 -255c100 0 146.094 32 174.471 160zM909.216 434l-25.7168 -116h-216l-44.7822 -202h323l-25.7168 -116h-403
c-58 0 -118.217 -10 -177.217 -10c-233 0 -300.401 129 -246.751 371c53.6494 242 178.248 371 411.248 371c42.001 0 97.7832 -10 155.783 -10h403l-25.7158 -116h-306l-38.1318 -172h216z" />
    <glyph glyph-name="ordmasculine" unicode="&#xba;" horiz-adv-x="300" 
d="M336.366 570c14.8535 67 1.72559 98 -38.2744 98c-41 0 -67.8721 -31 -82.7256 -98s-1.72656 -98 39.2734 -98c40 0 66.873 31 81.7266 98zM129.366 570c21.9473 99 90.9141 162 182.914 162c91 0 132.034 -63 110.086 -162s-90.915 -162 -181.915 -162
c-92 0 -133.033 63 -111.085 162z" />
    <glyph glyph-name="ae" unicode="&#xe6;" horiz-adv-x="778" 
d="M350.372 137l24.8301 112c-90.5469 -16 -185.316 -33 -201.5 -106c-8.64551 -39 11.4766 -61 46.4766 -61c39 0 95.3164 33 130.193 55zM505.829 324h202c13.9619 72 -14.7266 114 -74.7266 114c-62 0 -109.312 -42 -127.273 -114zM803.207 240h-316l-11.5283 -52
c-12.8584 -58 22.2734 -98 86.2734 -98c60 0 92.7646 26 131.745 62l77.5859 -56c-64.4062 -74 -141.5 -106 -241.5 -106c-56 0 -118.231 17 -145.043 81c-114.74 -71 -172.957 -81 -227.957 -81c-94 0 -126.146 67 -110.406 138c26.1602 118 135.905 180 347.226 204
l9.75488 44c8.86719 40 -22.2549 62 -66.2549 62c-58 0 -96.873 -31 -128.188 -64l-66.4766 61c44.1934 55 139.504 97 215.061 95c76.5566 -2 118.123 -22 138.585 -56c41.9814 36 94.415 56 153.415 56c142.222 1 192.727 -114 165.016 -239z" />
    <glyph glyph-name="dotlessi" unicode="&#x131;" horiz-adv-x="278" 
d="M316.281 520l-115.281 -520h-124l115.281 520h124z" />
    <glyph glyph-name="lslash" unicode="&#x142;" horiz-adv-x="278" 
d="M285.022 379l-84.0225 -379h-124l70.2773 317l-85.6465 -39l22.1699 100l85.6465 39l67.6162 305h124l-53.8721 -243l85.6465 39l-22.1689 -100z" />
    <glyph glyph-name="oslash" unicode="&#xf8;" horiz-adv-x="500" 
d="M419.819 342l-188.093 -244c9.89062 -5 23.2256 -8 38.2256 -8c69 0 113.972 54 139.688 170c7.09473 32 10.0801 59 10.1787 82zM161.552 7l-82.7217 -107h-91l117.92 153c-35.3584 48 -43.6182 119 -24.1094 207c36.5801 165 144.857 270 285.857 270
c36 0 67.4482 -7 91.5664 -20l78.6133 102h91l-115.033 -149c31.5801 -47 39.0615 -117 19.9961 -203c-36.5801 -165 -144.857 -270 -285.857 -270c-33 0 -61.6699 6 -86.2314 17zM195.467 169l193.424 250c-11.4482 7 -25.5615 11 -43.5615 11
c-69 0 -113.972 -54 -139.688 -170c-7.98047 -36 -11.6318 -66 -10.1738 -91z" />
    <glyph glyph-name="oe" unicode="&#x153;" horiz-adv-x="778" 
d="M193.641 260c-25.7168 -116 -4.68848 -170 60.3115 -170s109.972 54 135.688 170s4.68848 170 -60.3115 170s-109.972 -54 -135.688 -170zM517.829 324h190c13.9619 72 -14.7266 114 -69.7266 114s-102.312 -42 -120.273 -114zM803.207 240h-304
c-21.9434 -108 2.74512 -150 76.7451 -150c46 0 78.7646 26 117.745 62l77.5859 -56c-64.4062 -74 -141.5 -106 -225.5 -106c-68 0 -113.236 26 -137.703 69c-46.4199 -47 -108.297 -69 -178.297 -69c-135 0 -196.723 105 -160.143 270s144.857 270 279.857 270
c68 0 119.345 -21 146.146 -67c44.7549 44 100.854 67 161.854 67c134.222 1 184.727 -114 157.016 -239z" />
    <glyph glyph-name="germandbls" unicode="&#xdf;" horiz-adv-x="500" 
d="M177 0h-124l121.933 550c21.7256 98 99.1309 172 225.131 172c132 0 180.925 -68 156.982 -176c-15.5195 -70 -42.1602 -118 -108.812 -148l-0.443359 -2c65.5664 -20 101.821 -82 76.1045 -198c-35.0273 -158 -118.112 -208 -225.112 -208
c-21 0 -60.7832 10 -75.6797 24l49.5098 88c11.4473 -7 27.3389 -12 42.3389 -12c41 0 69.4248 38 86.2734 114c16.4053 74 11.2637 132 -60.7363 132h-26l22.1699 100h16c36 0 66.207 28 79.7305 89c14.4102 65 -4.49512 97 -52.4951 97c-44 0 -70.3213 -24 -81.8486 -76z
" />
    <glyph glyph-name="onesuperior" unicode="&#xb9;" horiz-adv-x="366" 
d="M368.735 292h-229l14.6318 66h67l63.8477 288h-77l12.415 56c42.4434 2 82.4385 11 108.65 30h67l-82.9131 -374h70z" />
    <glyph glyph-name="logicalnot" unicode="&#xac;" horiz-adv-x="600" 
d="M473.283 96l48.7725 220h-412l23.9434 108h520l-72.7158 -328h-108z" />
    <glyph glyph-name="mu" unicode="&#x3bc;" horiz-adv-x="556" 
d="M483.281 520h124l-115.281 -520h-114l12.415 56c-53.0947 -32 -113.632 -66 -174.632 -66c-11 0 -20.7783 1 -29.5566 2l-40.3486 -182h-124l157.403 710h124l-74.9326 -338c-15.5186 -70 1.60352 -92 43.6035 -92c54 0 101.873 31 128.193 55z" />
    <glyph glyph-name="trademark" unicode="&#x2122;" horiz-adv-x="1000" 
d="M754.063 722l35.8027 -258h2l149.197 258h149l-91.3379 -412h-100l62.2959 281l-3.55664 2l-162.739 -283h-77l-37.4824 282h-4l-62.5176 -282h-100l91.3379 412h149zM523.063 722l-18.6221 -84h-121l-72.7158 -328h-100l72.7158 328h-120l18.6221 84h341z" />
    <glyph glyph-name="Eth" unicode="&#xd0;" horiz-adv-x="667" 
d="M78 0l68.7256 310h-67l27.4902 124h67l63.8477 288h239c191 0 299.501 -106 243.969 -361c-57.5322 -255 -213.032 -361 -404.032 -361h-239zM350.348 606l-38.1318 -172h149l-27.4902 -124h-149l-43.0088 -194h92c158 0 220.717 116 249.315 245
s17.3154 245 -140.685 245h-92z" />
    <glyph glyph-name="onehalf" unicode="&#xbd;" horiz-adv-x="916" 
d="M192.783 -10l577.498 742h88l-576.498 -742h-89zM378.735 292h-229l14.6318 66h67l63.8477 288h-77l12.415 56c42.4434 2 82.4385 11 108.65 30h67l-82.9131 -374h70zM848 0h-316l15.9619 72c29.0752 68 264.358 164 280.542 237c8.42383 38 -9.91992 59 -52.9199 59
c-47 0 -80.208 -28 -99.8535 -67l-71.6748 15c25.9619 72 104.49 124 188.49 124c83 0 143.245 -44 125.288 -125c-23.2783 -105 -139.032 -149 -269.872 -243h216z" />
    <glyph glyph-name="plusminus" unicode="&#xb1;" horiz-adv-x="600" 
d="M332.018 388l29.2637 132h108l-29.2637 -132h206l-23.9434 -108h-206l-29.4854 -133h-108l29.4854 133h-206l23.9434 108h206zM40 0l23.9434 108h520l-23.9434 -108h-520z" />
    <glyph glyph-name="Thorn" unicode="&#xde;" 
d="M206 0h-138l160.063 722h138l-29.4854 -133h126c156 0 240.59 -65 207.336 -215s-146.664 -215 -302.664 -215h-126zM311.748 477l-45.6689 -206h110c104 0 141.646 39 155.835 103s-6.16602 103 -110.166 103h-110z" />
    <glyph glyph-name="onequarter" unicode="&#xbc;" horiz-adv-x="916" 
d="M769.802 166l39.0176 176h-2l-164.018 -176h127zM552.17 100l18.6221 84l247.424 250h103l-59.4141 -268h63l-14.6318 -66h-63l-22.1699 -100h-92l22.1699 100h-203zM208.783 -10l577.498 742h88l-576.498 -742h-89zM378.735 292h-229l14.6318 66h67l63.8477 288h-77
l12.415 56c42.4434 2 82.4385 11 108.65 30h67l-82.9131 -374h70z" />
    <glyph glyph-name="divide" unicode="&#xf7;" horiz-adv-x="600" 
d="M605.669 206h-520l23.9434 108h520zM488.541 449c-9.75488 -44 -60.5088 -88 -109.509 -88c-46 0 -77.2461 44 -67.4912 88s60.7305 89 106.73 89c49 0 80.0244 -45 70.2695 -89zM404.519 70c-9.75488 -44 -60.5088 -88 -109.509 -88c-46 0 -77.2461 44 -67.4912 88
s60.7314 89 106.731 89c49 0 80.0234 -45 70.2686 -89z" />
    <glyph glyph-name="brokenbar" unicode="&#xa6;" horiz-adv-x="222" 
d="M54.7832 -10l62.5176 282h108l-62.5176 -282h-108zM156.763 450l62.5176 282h108l-62.5176 -282h-108z" />
    <glyph glyph-name="degree" unicode="&#xb0;" horiz-adv-x="400" 
d="M298.876 446c-80 0 -129.033 63 -111.298 143s94.7021 143 174.702 143s129.034 -63 111.298 -143c-17.7354 -80 -94.7021 -143 -174.702 -143zM251.578 589c-9.75391 -44 16.5996 -83 60.5996 -83s87.6465 39 97.4004 83c9.75488 44 -16.5986 83 -60.5986 83
s-87.6465 -39 -97.4014 -83z" />
    <glyph glyph-name="thorn" unicode="&#xfe;" horiz-adv-x="556" 
d="M21.8779 -190l202.186 912h119l-55.4238 -250c43.7598 35 89.8584 58 145.858 58c138 0 180.953 -122 145.039 -284c-28.377 -128 -130.754 -256 -264.754 -256c-42 0 -95.458 25 -113.142 58h-2l-52.7637 -238h-124zM273.131 384l-55.4238 -250
c19.9014 -23 46.2451 -44 86.2451 -44c74 0 129.302 60 153.688 170s-4.31152 170 -78.3115 170c-53 0 -75.7646 -26 -106.198 -46z" />
    <glyph glyph-name="threequarters" unicode="&#xbe;" horiz-adv-x="916" 
d="M244.631 490l14.6318 66c67 0 121.995 9 132.193 55c6.20703 28 -13.3594 48 -52.1377 49c-40.2217 -1 -71.4336 -20 -99.5322 -43l-45.3594 48c57.085 50 103.854 67 163.854 67c86 0 139.576 -38 123.393 -111c-9.75488 -44 -41.8486 -76 -90.6182 -93l-0.443359 -2
c52.6748 -15 73.8066 -55 61.8359 -109c-19.9531 -90 -112.043 -131 -195.043 -131c-66 0 -126.349 30 -145.825 91l75.7588 35c15.2412 -35 42.0293 -54 87.0293 -54c41 0 82.0986 23 91.4102 65c14.4102 65 -66.1465 67 -121.146 67zM552.17 100l18.6221 84l247.424 250
h103l-59.4141 -268h63l-14.6318 -66h-63l-22.1699 -100h-92l22.1699 100h-203zM222.783 -10l577.498 742h88l-576.498 -742h-89zM769.802 166l39.0176 176h-2l-164.018 -176h127z" />
    <glyph glyph-name="twosuperior" unicode="&#xb2;" horiz-adv-x="366" 
d="M400.735 292h-316l15.9619 72c29.0752 68 264.357 164 280.541 237c8.4248 38 -9.91992 59 -52.9199 59c-47 0 -80.207 -28 -99.8535 -67l-71.6738 15c25.9619 72 104.489 124 188.489 124c83 0 143.246 -44 125.288 -125c-23.2773 -105 -139.032 -149 -269.871 -243h216
z" />
    <glyph glyph-name="registered" unicode="&#xae;" horiz-adv-x="800" 
d="M409.938 329l-37.9102 -171h-88l90.2305 407h153c106 0 159.349 -30 138.731 -123c-16.627 -75 -66.0566 -104 -135.943 -108l66.9814 -176h-89l-57.0898 171h-41zM447.183 497l-22.1699 -100h77c48 0 71.0996 23 77.9717 54c8.20312 37 -17.8018 46 -59.8018 46h-73z
M397.783 -10c-200 0 -351.406 138 -299.751 371c51.6543 233 264.248 371 464.249 371c200 0 351.405 -138 299.751 -371c-51.6553 -233 -264.249 -371 -464.249 -371zM764.032 361c39.2393 177 -62.7139 299 -217.714 299c-158 0 -311.047 -122 -350.286 -299
c-39.2402 -177 59.7129 -299 217.713 -299c155 0 311.047 122 350.287 299z" />
    <glyph glyph-name="minus" unicode="&#x2212;" horiz-adv-x="600" 
d="M605.669 206h-520l23.9434 108h520z" />
    <glyph glyph-name="eth" unicode="&#xf0;" horiz-adv-x="500" 
d="M269.952 90c69 0 113.972 54 136.142 154c22.1689 100 1.14062 154 -67.8594 154s-113.972 -54 -136.141 -154c-22.1699 -100 -1.1416 -154 67.8584 -154zM290.526 688l115.537 34c16.8965 -14 31.3496 -30 45.3594 -48l110.641 48l21.8115 -64l-97.5322 -43
c54.7217 -105 71.4629 -246 43.751 -371c-33.0332 -149 -141.311 -254 -282.311 -254s-202.723 105 -169.689 254c33.0322 149 141.311 254 282.311 254c13 0 24.7783 -1 40.8916 -5c-5.01465 27 -14.4717 52 -25.5947 74l-112.863 -49l-21.8115 64l100.755 44
c-14.9014 23 -32.4668 43 -51.2549 62z" />
    <glyph glyph-name="multiply" unicode="&#xd7;" horiz-adv-x="600" 
d="M340.792 184l-223.792 -184l-59.708 78l223.57 183l-142.43 183l93.8486 76l142.651 -182l223.349 182l60.1514 -76l-223.57 -183l142.43 -183l-94.292 -78z" />
    <glyph glyph-name="threesuperior" unicode="&#xb3;" horiz-adv-x="366" 
d="M228.631 490l14.6318 66c67 0 121.995 9 132.193 55c6.20703 28 -13.3594 48 -52.1377 49c-40.2217 -1 -71.4336 -20 -99.5322 -43l-45.3594 48c57.085 50 103.854 67 163.854 67c86 0 139.576 -38 123.393 -111c-9.75488 -44 -41.8486 -76 -90.6182 -93l-0.443359 -2
c52.6748 -15 73.8066 -55 61.8359 -109c-19.9531 -90 -112.043 -131 -195.043 -131c-66 0 -126.349 30 -145.825 91l75.7588 35c15.2412 -35 42.0293 -54 87.0293 -54c41 0 82.0986 23 91.4102 65c14.4102 65 -66.1465 67 -121.146 67z" />
    <glyph glyph-name="copyright" unicode="&#xa9;" horiz-adv-x="800" 
d="M397.783 -10c-200 0 -351.406 138 -299.751 371c51.6543 233 264.248 371 464.249 371c200 0 351.405 -138 299.751 -371c-51.6553 -233 -264.249 -371 -464.249 -371zM764.032 361c39.2393 177 -62.7139 299 -217.714 299c-158 0 -311.047 -122 -350.286 -299
c-39.2402 -177 59.7129 -299 217.713 -299c155 0 311.047 122 350.287 299zM571.617 305h90c-38.6133 -102 -127.807 -157 -213.807 -157c-126 0 -188.16 94 -161.113 216c27.4902 124 126.886 216 254.886 216c89 0 149.472 -52 143.303 -152h-86
c1.19727 46 -33.8115 64 -76.8115 64c-65 0 -111.863 -49 -128.934 -126c-16.4053 -74 12.1797 -130 74.1797 -130c49 0 88.6553 21 104.297 69z" />
    <glyph glyph-name="Aacute" unicode="&#xc1;" 
d="M437.47 584l-154.612 -314h168l-11.3877 314h-2zM13 0l368.285 723h172l44.7148 -723h-137l-5.41602 156h-228l-77.584 -156h-137zM520.299 908h154l-178.367 -146h-102z" />
    <glyph glyph-name="Acircumflex" unicode="&#xc2;" 
d="M437.47 584l-154.612 -314h168l-11.3877 314h-2zM13 0l368.285 723h172l44.7148 -723h-137l-5.41602 156h-228l-77.584 -156h-137zM444.299 908h124l82.6328 -146h-113l-44.8213 82l-82.1787 -82h-112z" />
    <glyph glyph-name="Adieresis" unicode="&#xc4;" 
d="M437.47 584l-154.612 -314h168l-11.3877 314h-2zM13 0l368.285 723h172l44.7148 -723h-137l-5.41602 156h-228l-77.584 -156h-137zM347.865 888h120l-25.7168 -116h-120zM537.865 888h120l-25.7168 -116h-120z" />
    <glyph glyph-name="Agrave" unicode="&#xc0;" 
d="M437.47 584l-154.612 -314h168l-11.3877 314h-2zM13 0l368.285 723h172l44.7148 -723h-137l-5.41602 156h-228l-77.584 -156h-137zM340.299 908h154l61.6328 -146h-102z" />
    <glyph glyph-name="Aring" unicode="&#xc5;" 
d="M437.47 584l-154.612 -314h168l-11.3877 314h-2zM13 0l368.285 723h172l44.7148 -723h-137l-5.41602 156h-228l-77.584 -156h-137zM390.653 869c13.3018 60 71.9434 108 131.943 108s97.3584 -48 84.0566 -108s-71.9434 -108 -131.943 -108s-97.3584 48 -84.0566 108z
M444.653 869c-6.65137 -30 12.0283 -54 42.0283 -54s59.3203 24 65.9717 54c6.65039 30 -12.0283 54 -42.0283 54s-59.3213 -24 -65.9717 -54z" />
    <glyph glyph-name="Atilde" unicode="&#xc3;" 
d="M437.47 584l-154.612 -314h168l-11.3877 314h-2zM13 0l368.285 723h172l44.7148 -723h-137l-5.41602 156h-228l-77.584 -156h-137zM623.082 898h65c-26.7451 -62 -67.0469 -122 -138.047 -122c-50 0 -99.2402 35 -139.24 35c-27 0 -41.9902 -18 -55.0898 -41h-62
c22.7451 62 72.0469 122 141.047 122c54 0 99.7979 -37 131.798 -37c24 0 46.4336 20 56.5322 43z" />
    <glyph glyph-name="Ccedilla" unicode="&#xc7;" 
d="M692.158 542l-131.65 -30c-6.47656 61 -39.9434 104 -107.943 104c-92 0 -167.066 -86 -204.532 -255c-39.4668 -169 -8.53223 -255 95.4678 -255c62 0 104.877 22 164.721 107l120.463 -34c-70.7119 -125 -178.9 -189 -310.9 -189c-184 0 -260.071 135 -207.751 371
c52.3193 236 188.248 371 372.248 371c138.001 0 204.255 -62 209.878 -190zM151.996 -203l27.3105 42c15.6699 -6 46.4531 -16 74.4531 -16c33 0 53.7734 8 61.3115 42c5.76367 26 -14.1279 31 -36.1279 31c-14 0 -32.8867 -4 -43.3301 -6l-15.5654 20l78.9521 90h53
l-56.9668 -63c12.665 3 25.1084 5 37.1084 5c45 0 82.9014 -23 71.1514 -76c-14.8535 -67 -91.0615 -95 -148.062 -95c-38 0 -71.3389 12 -103.235 26z" />
    <glyph glyph-name="Eacute" unicode="&#xc9;" 
d="M573 0h-489l160.063 722h478l-25.7158 -116h-340l-38.1318 -172h247l-25.7168 -116h-247l-44.7822 -202h351zM539.299 908h154l-178.367 -146h-102z" />
    <glyph glyph-name="Ecircumflex" unicode="&#xca;" 
d="M573 0h-489l160.063 722h478l-25.7158 -116h-340l-38.1318 -172h247l-25.7168 -116h-247l-44.7822 -202h351zM463.299 908h124l82.6328 -146h-113l-44.8213 82l-82.1787 -82h-112z" />
    <glyph glyph-name="Edieresis" unicode="&#xcb;" 
d="M573 0h-489l160.063 722h478l-25.7158 -116h-340l-38.1318 -172h247l-25.7168 -116h-247l-44.7822 -202h351zM366.865 888h120l-25.7168 -116h-120zM556.865 888h120l-25.7168 -116h-120z" />
    <glyph glyph-name="Egrave" unicode="&#xc8;" 
d="M573 0h-489l160.063 722h478l-25.7158 -116h-340l-38.1318 -172h247l-25.7168 -116h-247l-44.7822 -202h351zM359.299 908h154l61.6328 -146h-102z" />
    <glyph glyph-name="Iacute" unicode="&#xcd;" horiz-adv-x="333" 
d="M235 0h-138l160.063 722h138zM378.299 908h154l-178.367 -146h-102z" />
    <glyph glyph-name="Icircumflex" unicode="&#xce;" horiz-adv-x="333" 
d="M235 0h-138l160.063 722h138zM302.299 908h124l82.6328 -146h-113l-44.8213 82l-82.1787 -82h-112z" />
    <glyph glyph-name="Idieresis" unicode="&#xcf;" horiz-adv-x="333" 
d="M235 0h-138l160.063 722h138zM205.865 888h120l-25.7168 -116h-120zM395.865 888h120l-25.7168 -116h-120z" />
    <glyph glyph-name="Igrave" unicode="&#xcc;" horiz-adv-x="333" 
d="M235 0h-138l160.063 722h138zM198.299 908h154l61.6328 -146h-102z" />
    <glyph glyph-name="Ntilde" unicode="&#xd1;" horiz-adv-x="722" 
d="M211 0h-130l160.063 722h144l174.927 -492h2l109.073 492h130l-160.063 -722h-133l-181.049 514h-2zM678.082 898h65c-26.7451 -62 -67.0469 -122 -138.047 -122c-50 0 -99.2402 35 -139.24 35c-27 0 -41.9902 -18 -55.0898 -41h-62c22.7451 62 72.0469 122 141.047 122
c54 0 99.7979 -37 131.798 -37c24 0 46.4336 20 56.5322 43z" />
    <glyph glyph-name="Oacute" unicode="&#xd3;" horiz-adv-x="667" 
d="M578.032 361c37.4658 169 4.53223 255 -108.468 255s-184.066 -86 -221.532 -255c-39.4668 -169 -5.53223 -255 108.468 -255c113 0 184.065 86 221.532 255zM716.032 361c-52.3203 -236 -188.249 -371 -385.249 -371s-273.071 135 -220.751 371
c52.3193 236 188.248 371 385.248 371c197.001 0 273.071 -135 220.752 -371zM548.299 908h154l-178.367 -146h-102z" />
    <glyph glyph-name="Ocircumflex" unicode="&#xd4;" horiz-adv-x="667" 
d="M578.032 361c37.4658 169 4.53223 255 -108.468 255s-184.066 -86 -221.532 -255c-39.4668 -169 -5.53223 -255 108.468 -255c113 0 184.065 86 221.532 255zM716.032 361c-52.3203 -236 -188.249 -371 -385.249 -371s-273.071 135 -220.751 371
c52.3193 236 188.248 371 385.248 371c197.001 0 273.071 -135 220.752 -371zM472.299 908h124l82.6328 -146h-113l-44.8213 82l-82.1787 -82h-112z" />
    <glyph glyph-name="Odieresis" unicode="&#xd6;" horiz-adv-x="667" 
d="M578.032 361c37.4658 169 4.53223 255 -108.468 255s-184.066 -86 -221.532 -255c-39.4668 -169 -5.53223 -255 108.468 -255c113 0 184.065 86 221.532 255zM716.032 361c-52.3203 -236 -188.249 -371 -385.249 -371s-273.071 135 -220.751 371
c52.3193 236 188.248 371 385.248 371c197.001 0 273.071 -135 220.752 -371zM375.865 888h120l-25.7168 -116h-120zM565.865 888h120l-25.7168 -116h-120z" />
    <glyph glyph-name="Ograve" unicode="&#xd2;" horiz-adv-x="667" 
d="M578.032 361c37.4658 169 4.53223 255 -108.468 255s-184.066 -86 -221.532 -255c-39.4668 -169 -5.53223 -255 108.468 -255c113 0 184.065 86 221.532 255zM716.032 361c-52.3203 -236 -188.249 -371 -385.249 -371s-273.071 135 -220.751 371
c52.3193 236 188.248 371 385.248 371c197.001 0 273.071 -135 220.752 -371zM368.299 908h154l61.6328 -146h-102z" />
    <glyph glyph-name="Otilde" unicode="&#xd5;" horiz-adv-x="667" 
d="M578.032 361c37.4658 169 4.53223 255 -108.468 255s-184.066 -86 -221.532 -255c-39.4668 -169 -5.53223 -255 108.468 -255c113 0 184.065 86 221.532 255zM716.032 361c-52.3203 -236 -188.249 -371 -385.249 -371s-273.071 135 -220.751 371
c52.3193 236 188.248 371 385.248 371c197.001 0 273.071 -135 220.752 -371zM651.082 898h65c-26.7451 -62 -67.0469 -122 -138.047 -122c-50 0 -99.2402 35 -139.24 35c-27 0 -41.9902 -18 -55.0898 -41h-62c22.7451 62 72.0469 122 141.047 122
c54 0 99.7979 -37 131.798 -37c24 0 46.4336 20 56.5322 43z" />
    <glyph glyph-name="Scaron" unicode="&#x160;" 
d="M671.145 569l-134.646 -39c-8.58496 56 -43.1602 94 -108.16 94c-60 0 -108.321 -24 -120.735 -80c-27.4902 -124 350.273 -98 298.396 -332c-32.8105 -148 -142.216 -222 -302.216 -222c-118 0 -214.368 66 -232.09 171l125.084 50
c17.9248 -68 50.9492 -113 131.949 -113c69 0 127.764 26 143.282 96c31.4805 142 -346.727 114 -297.511 336c28.5986 129 152.782 202 277.782 202c116.001 0 199.143 -58 218.864 -163zM535.932 762h-124l-80.6328 146h112l45.8213 -82l81.1787 82h113z" />
    <glyph glyph-name="Uacute" unicode="&#xda;" horiz-adv-x="722" 
d="M558.527 264l101.536 458h138l-100.206 -452c-46.7773 -211 -192.074 -280 -339.074 -280s-261.703 69 -214.926 280l100.206 452h138l-101.536 -458c-25.9385 -117 10.9727 -158 103.973 -158s148.089 41 174.027 158zM572.299 908h154l-178.367 -146h-102z" />
    <glyph glyph-name="Ucircumflex" unicode="&#xdb;" horiz-adv-x="722" 
d="M558.527 264l101.536 458h138l-100.206 -452c-46.7773 -211 -192.074 -280 -339.074 -280s-261.703 69 -214.926 280l100.206 452h138l-101.536 -458c-25.9385 -117 10.9727 -158 103.973 -158s148.089 41 174.027 158zM496.299 908h124l82.6328 -146h-113l-44.8213 82
l-82.1787 -82h-112z" />
    <glyph glyph-name="Udieresis" unicode="&#xdc;" horiz-adv-x="722" 
d="M558.527 264l101.536 458h138l-100.206 -452c-46.7773 -211 -192.074 -280 -339.074 -280s-261.703 69 -214.926 280l100.206 452h138l-101.536 -458c-25.9385 -117 10.9727 -158 103.973 -158s148.089 41 174.027 158zM399.865 888h120l-25.7168 -116h-120zM589.865 888
h120l-25.7168 -116h-120z" />
    <glyph glyph-name="Ugrave" unicode="&#xd9;" horiz-adv-x="722" 
d="M558.527 264l101.536 458h138l-100.206 -452c-46.7773 -211 -192.074 -280 -339.074 -280s-261.703 69 -214.926 280l100.206 452h138l-101.536 -458c-25.9385 -117 10.9727 -158 103.973 -158s148.089 41 174.027 158zM392.299 908h154l61.6328 -146h-102z" />
    <glyph glyph-name="Yacute" unicode="&#xdd;" horiz-adv-x="556" 
d="M314.063 722l60.5957 -286l187.404 286h144l-295.216 -434l-63.8477 -288h-138l63.8477 288l-102.784 434h144zM492.299 908h154l-178.367 -146h-102z" />
    <glyph glyph-name="Ydieresis" unicode="&#x178;" horiz-adv-x="556" 
d="M314.063 722l60.5957 -286l187.404 286h144l-295.216 -434l-63.8477 -288h-138l63.8477 288l-102.784 434h144zM319.865 888h120l-25.7168 -116h-120zM509.865 888h120l-25.7168 -116h-120z" />
    <glyph glyph-name="Zcaron" unicode="&#x17d;" horiz-adv-x="556" 
d="M555.717 116l-25.7168 -116h-514l25.9385 117l445.409 489h-314l25.7158 116h488l-24.3857 -110l-458.961 -496h352zM507.932 762h-124l-80.6328 146h112l45.8213 -82l81.1787 82h113z" />
    <glyph glyph-name="aacute" unicode="&#xe1;" horiz-adv-x="500" 
d="M450 0h-121l1.97656 45c-57.5381 -34 -109.193 -55 -174.193 -55c-94 0 -126.146 67 -110.406 138c26.1602 118 135.905 180 343.226 204l9.75488 44c8.86719 40 -18.2549 62 -62.2549 62c-58 0 -96.873 -31 -128.188 -64l-66.4766 61c44.1934 55 139.504 97 215.061 95
c139.335 -3 188.028 -54 153.444 -210l-54.3154 -245c-5.76367 -26 -9.52832 -52 -6.62695 -75zM346.372 137l24.8301 112c-86.5469 -16 -181.316 -33 -197.5 -106c-8.64551 -39 11.4766 -61 46.4766 -61c39 0 95.3164 33 126.193 55zM425.28 732h154l-178.367 -146h-102z
" />
    <glyph glyph-name="acircumflex" unicode="&#xe2;" horiz-adv-x="500" 
d="M450 0h-121l1.97656 45c-57.5381 -34 -109.193 -55 -174.193 -55c-94 0 -126.146 67 -110.406 138c26.1602 118 135.905 180 343.226 204l9.75488 44c8.86719 40 -18.2549 62 -62.2549 62c-58 0 -96.873 -31 -128.188 -64l-66.4766 61c44.1934 55 139.504 97 215.061 95
c139.335 -3 188.028 -54 153.444 -210l-54.3154 -245c-5.76367 -26 -9.52832 -52 -6.62695 -75zM346.372 137l24.8301 112c-86.5469 -16 -181.316 -33 -197.5 -106c-8.64551 -39 11.4766 -61 46.4766 -61c39 0 95.3164 33 126.193 55zM349.28 732h124l82.6328 -146h-113
l-44.8213 82l-82.1787 -82h-112z" />
    <glyph glyph-name="adieresis" unicode="&#xe4;" horiz-adv-x="500" 
d="M450 0h-121l1.97656 45c-57.5381 -34 -109.193 -55 -174.193 -55c-94 0 -126.146 67 -110.406 138c26.1602 118 135.905 180 343.226 204l9.75488 44c8.86719 40 -18.2549 62 -62.2549 62c-58 0 -96.873 -31 -128.188 -64l-66.4766 61c44.1934 55 139.504 97 215.061 95
c139.335 -3 188.028 -54 153.444 -210l-54.3154 -245c-5.76367 -26 -9.52832 -52 -6.62695 -75zM346.372 137l24.8301 112c-86.5469 -16 -181.316 -33 -197.5 -106c-8.64551 -39 11.4766 -61 46.4766 -61c39 0 95.3164 33 126.193 55zM252.847 712h120l-25.7168 -116h-120z
M442.847 712h120l-25.7168 -116h-120z" />
    <glyph glyph-name="agrave" unicode="&#xe0;" horiz-adv-x="500" 
d="M450 0h-121l1.97656 45c-57.5381 -34 -109.193 -55 -174.193 -55c-94 0 -126.146 67 -110.406 138c26.1602 118 135.905 180 343.226 204l9.75488 44c8.86719 40 -18.2549 62 -62.2549 62c-58 0 -96.873 -31 -128.188 -64l-66.4766 61c44.1934 55 139.504 97 215.061 95
c139.335 -3 188.028 -54 153.444 -210l-54.3154 -245c-5.76367 -26 -9.52832 -52 -6.62695 -75zM346.372 137l24.8301 112c-86.5469 -16 -181.316 -33 -197.5 -106c-8.64551 -39 11.4766 -61 46.4766 -61c39 0 95.3164 33 126.193 55zM245.28 732h154l61.6328 -146h-102z
" />
    <glyph glyph-name="aring" unicode="&#xe5;" horiz-adv-x="500" 
d="M450 0h-121l1.97656 45c-57.5381 -34 -109.193 -55 -174.193 -55c-94 0 -126.146 67 -110.406 138c26.1602 118 135.905 180 343.226 204l9.75488 44c8.86719 40 -18.2549 62 -62.2549 62c-58 0 -96.873 -31 -128.188 -64l-66.4766 61c44.1934 55 139.504 97 215.061 95
c139.335 -3 188.028 -54 153.444 -210l-54.3154 -245c-5.76367 -26 -9.52832 -52 -6.62695 -75zM346.372 137l24.8301 112c-86.5469 -16 -181.316 -33 -197.5 -106c-8.64551 -39 11.4766 -61 46.4766 -61c39 0 95.3164 33 126.193 55zM295.635 693
c13.3018 60 71.9434 108 131.943 108s97.3584 -48 84.0566 -108s-71.9434 -108 -131.943 -108s-97.3584 48 -84.0566 108zM349.635 693c-6.65137 -30 12.0283 -54 42.0283 -54s59.3203 24 65.9717 54c6.65039 30 -12.0283 54 -42.0283 54s-59.3213 -24 -65.9717 -54z" />
    <glyph glyph-name="atilde" unicode="&#xe3;" horiz-adv-x="500" 
d="M450 0h-121l1.97656 45c-57.5381 -34 -109.193 -55 -174.193 -55c-94 0 -126.146 67 -110.406 138c26.1602 118 135.905 180 343.226 204l9.75488 44c8.86719 40 -18.2549 62 -62.2549 62c-58 0 -96.873 -31 -128.188 -64l-66.4766 61c44.1934 55 139.504 97 215.061 95
c139.335 -3 188.028 -54 153.444 -210l-54.3154 -245c-5.76367 -26 -9.52832 -52 -6.62695 -75zM346.372 137l24.8301 112c-86.5469 -16 -181.316 -33 -197.5 -106c-8.64551 -39 11.4766 -61 46.4766 -61c39 0 95.3164 33 126.193 55zM528.063 722h65
c-26.7451 -62 -67.0469 -122 -138.047 -122c-50 0 -99.2402 35 -139.24 35c-27 0 -41.9902 -18 -55.0898 -41h-62c22.7451 62 72.0469 122 141.047 122c54 0 99.7979 -37 131.798 -37c24 0 46.4336 20 56.5322 43z" />
    <glyph glyph-name="ccedilla" unicode="&#xe7;" horiz-adv-x="500" 
d="M541.683 391l-111.868 -40c-10.2451 44 -24.4854 79 -84.4854 79c-69 0 -113.972 -54 -139.688 -170s-4.68848 -170 68.3115 -170c54 0 93.2031 37 128.401 83l82.25 -53c-70.6182 -93 -142.042 -131 -236.82 -130c-141 0 -202.723 105 -166.143 270
s144.857 270 285.857 270c98 0 164.473 -52 174.185 -139zM86.9961 -203l27.3105 42c15.6699 -6 46.4531 -16 74.4531 -16c33 0 53.7734 8 61.3115 42c5.76367 26 -14.1279 31 -36.1279 31c-14 0 -32.8867 -4 -43.3301 -6l-15.5654 20l78.9521 90h53l-56.9668 -63
c12.665 3 25.1084 5 37.1084 5c45 0 82.9014 -23 71.1514 -76c-14.8535 -67 -91.0615 -95 -148.062 -95c-38 0 -71.3389 12 -103.235 26z" />
    <glyph glyph-name="eacute" unicode="&#xe9;" horiz-adv-x="500" 
d="M219.829 324h200c13.9619 72 -14.7266 114 -74.7266 114s-107.312 -42 -125.273 -114zM515.207 240h-314c-21.9434 -108 16.7451 -150 74.7451 -150s90.7646 26 129.745 62l77.5859 -56c-64.4062 -74 -141.5 -106 -241.5 -106c-135 0 -196.723 105 -160.143 270
s144.857 270 285.857 270c136.222 1 186.727 -114 159.016 -239zM425.28 732h154l-178.367 -146h-102z" />
    <glyph glyph-name="ecircumflex" unicode="&#xea;" horiz-adv-x="500" 
d="M219.829 324h200c13.9619 72 -14.7266 114 -74.7266 114s-107.312 -42 -125.273 -114zM515.207 240h-314c-21.9434 -108 16.7451 -150 74.7451 -150s90.7646 26 129.745 62l77.5859 -56c-64.4062 -74 -141.5 -106 -241.5 -106c-135 0 -196.723 105 -160.143 270
s144.857 270 285.857 270c136.222 1 186.727 -114 159.016 -239zM349.28 732h124l82.6328 -146h-113l-44.8213 82l-82.1787 -82h-112z" />
    <glyph glyph-name="edieresis" unicode="&#xeb;" horiz-adv-x="500" 
d="M219.829 324h200c13.9619 72 -14.7266 114 -74.7266 114s-107.312 -42 -125.273 -114zM515.207 240h-314c-21.9434 -108 16.7451 -150 74.7451 -150s90.7646 26 129.745 62l77.5859 -56c-64.4062 -74 -141.5 -106 -241.5 -106c-135 0 -196.723 105 -160.143 270
s144.857 270 285.857 270c136.222 1 186.727 -114 159.016 -239zM252.847 712h120l-25.7168 -116h-120zM442.847 712h120l-25.7168 -116h-120z" />
    <glyph glyph-name="egrave" unicode="&#xe8;" horiz-adv-x="500" 
d="M219.829 324h200c13.9619 72 -14.7266 114 -74.7266 114s-107.312 -42 -125.273 -114zM515.207 240h-314c-21.9434 -108 16.7451 -150 74.7451 -150s90.7646 26 129.745 62l77.5859 -56c-64.4062 -74 -141.5 -106 -241.5 -106c-135 0 -196.723 105 -160.143 270
s144.857 270 285.857 270c136.222 1 186.727 -114 159.016 -239zM245.28 732h154l61.6328 -146h-102z" />
    <glyph glyph-name="iacute" unicode="&#xed;" horiz-adv-x="278" 
d="M316.281 520l-115.281 -520h-124l115.281 520h124zM316.28 732h154l-178.367 -146h-102z" />
    <glyph glyph-name="icircumflex" unicode="&#xee;" horiz-adv-x="278" 
d="M316.281 520l-115.281 -520h-124l115.281 520h124zM240.28 732h124l82.6328 -146h-113l-44.8213 82l-82.1787 -82h-112z" />
    <glyph glyph-name="idieresis" unicode="&#xef;" horiz-adv-x="278" 
d="M316.281 520l-115.281 -520h-124l115.281 520h124zM143.847 712h120l-25.7168 -116h-120zM333.847 712h120l-25.7168 -116h-120z" />
    <glyph glyph-name="igrave" unicode="&#xec;" horiz-adv-x="278" 
d="M316.281 520l-115.281 -520h-124l115.281 520h124zM136.28 732h154l61.6328 -146h-102z" />
    <glyph glyph-name="ntilde" unicode="&#xf1;" horiz-adv-x="556" 
d="M188 0h-124l115.281 520h114l-12.415 -56c53.0947 32 113.632 66 174.632 66c104 0 138.925 -68 115.426 -174l-78.9238 -356h-124l74.9326 338c15.5186 70 -1.60352 92 -43.6035 92c-54 0 -101.873 -31 -128.193 -55zM551.063 722h65
c-26.7451 -62 -67.0469 -122 -138.047 -122c-50 0 -99.2402 35 -139.24 35c-27 0 -41.9902 -18 -55.0898 -41h-62c22.7451 62 72.0469 122 141.047 122c54 0 99.7979 -37 131.798 -37c24 0 46.4336 20 56.5322 43z" />
    <glyph glyph-name="oacute" unicode="&#xf3;" horiz-adv-x="500" 
d="M409.641 260c25.7168 116 4.68848 170 -64.3115 170s-113.972 -54 -139.688 -170s-4.68848 -170 64.3115 -170s113.972 54 139.688 170zM81.6406 260c36.5801 165 144.857 270 285.857 270s202.723 -105 166.143 -270s-144.857 -270 -285.857 -270
s-202.723 105 -166.143 270zM422.28 732h154l-178.367 -146h-102z" />
    <glyph glyph-name="ocircumflex" unicode="&#xf4;" horiz-adv-x="500" 
d="M409.641 260c25.7168 116 4.68848 170 -64.3115 170s-113.972 -54 -139.688 -170s-4.68848 -170 64.3115 -170s113.972 54 139.688 170zM81.6406 260c36.5801 165 144.857 270 285.857 270s202.723 -105 166.143 -270s-144.857 -270 -285.857 -270
s-202.723 105 -166.143 270zM346.28 732h124l82.6328 -146h-113l-44.8213 82l-82.1787 -82h-112z" />
    <glyph glyph-name="odieresis" unicode="&#xf6;" horiz-adv-x="500" 
d="M409.641 260c25.7168 116 4.68848 170 -64.3115 170s-113.972 -54 -139.688 -170s-4.68848 -170 64.3115 -170s113.972 54 139.688 170zM81.6406 260c36.5801 165 144.857 270 285.857 270s202.723 -105 166.143 -270s-144.857 -270 -285.857 -270
s-202.723 105 -166.143 270zM249.847 712h120l-25.7168 -116h-120zM439.847 712h120l-25.7168 -116h-120z" />
    <glyph glyph-name="ograve" unicode="&#xf2;" horiz-adv-x="500" 
d="M409.641 260c25.7168 116 4.68848 170 -64.3115 170s-113.972 -54 -139.688 -170s-4.68848 -170 64.3115 -170s113.972 54 139.688 170zM81.6406 260c36.5801 165 144.857 270 285.857 270s202.723 -105 166.143 -270s-144.857 -270 -285.857 -270
s-202.723 105 -166.143 270zM242.28 732h154l61.6328 -146h-102z" />
    <glyph glyph-name="otilde" unicode="&#xf5;" horiz-adv-x="500" 
d="M409.641 260c25.7168 116 4.68848 170 -64.3115 170s-113.972 -54 -139.688 -170s-4.68848 -170 64.3115 -170s113.972 54 139.688 170zM81.6406 260c36.5801 165 144.857 270 285.857 270s202.723 -105 166.143 -270s-144.857 -270 -285.857 -270
s-202.723 105 -166.143 270zM525.063 722h65c-26.7451 -62 -67.0469 -122 -138.047 -122c-50 0 -99.2402 35 -139.24 35c-27 0 -41.9902 -18 -55.0898 -41h-62c22.7451 62 72.0469 122 141.047 122c54 0 99.7979 -37 131.798 -37c24 0 46.4336 20 56.5322 43z" />
    <glyph glyph-name="scaron" unicode="&#x161;" horiz-adv-x="444" 
d="M494.984 451l-93.0752 -68c-19.0146 27 -45.8066 55 -84.8066 55c-48 0 -74.4336 -20 -81.3066 -51c-19.7305 -89 248.693 -51 206.571 -241c-23.9424 -108 -116.584 -156 -225.584 -156c-83 0 -142.798 37 -173.723 105l96.7451 62c20.1328 -40 51.373 -75 104.373 -75
c44 0 79.3213 24 87.0801 59c19.7314 89 -247.363 57 -207.236 238c21.5039 97 115.476 151 205.476 151c69 0 132.236 -26 165.486 -79zM412.913 586h-124l-80.6328 146h112l45.8213 -82l81.1787 82h113z" />
    <glyph glyph-name="uacute" unicode="&#xfa;" horiz-adv-x="556" 
d="M483.281 520h124l-115.281 -520h-114l12.415 56c-53.0947 -32 -113.632 -66 -174.632 -66c-104 0 -138.925 68 -115.425 174l78.9229 356h124l-74.9326 -338c-15.5186 -70 1.60352 -92 43.6035 -92c54 0 101.873 31 128.193 55zM453.28 732h154l-178.367 -146h-102z" />
    <glyph glyph-name="ucircumflex" unicode="&#xfb;" horiz-adv-x="556" 
d="M483.281 520h124l-115.281 -520h-114l12.415 56c-53.0947 -32 -113.632 -66 -174.632 -66c-104 0 -138.925 68 -115.425 174l78.9229 356h124l-74.9326 -338c-15.5186 -70 1.60352 -92 43.6035 -92c54 0 101.873 31 128.193 55zM377.28 732h124l82.6328 -146h-113
l-44.8213 82l-82.1787 -82h-112z" />
    <glyph glyph-name="udieresis" unicode="&#xfc;" horiz-adv-x="556" 
d="M483.281 520h124l-115.281 -520h-114l12.415 56c-53.0947 -32 -113.632 -66 -174.632 -66c-104 0 -138.925 68 -115.425 174l78.9229 356h124l-74.9326 -338c-15.5186 -70 1.60352 -92 43.6035 -92c54 0 101.873 31 128.193 55zM280.847 712h120l-25.7168 -116h-120z
M470.847 712h120l-25.7168 -116h-120z" />
    <glyph glyph-name="ugrave" unicode="&#xf9;" horiz-adv-x="556" 
d="M483.281 520h124l-115.281 -520h-114l12.415 56c-53.0947 -32 -113.632 -66 -174.632 -66c-104 0 -138.925 68 -115.425 174l78.9229 356h124l-74.9326 -338c-15.5186 -70 1.60352 -92 43.6035 -92c54 0 101.873 31 128.193 55zM273.28 732h154l61.6328 -146h-102z" />
    <glyph glyph-name="yacute" unicode="&#xfd;" horiz-adv-x="444" 
d="M-31.2354 -186l22.6133 102c18.1133 -4 33.1133 -4 51.1133 -4c43 0 69.6602 12 91.0889 41c17.543 25 28.8682 40 33.5234 61c4.21289 19 -0.910156 41 -2.25488 62l-40.5674 444h125l15.0576 -320h2l159.942 320h124l-279.503 -521
c-88.0322 -149 -140.9 -189 -242.9 -189c-30 0 -44.5566 2 -59.1133 4zM397.28 732h154l-178.367 -146h-102z" />
    <glyph glyph-name="ydieresis" unicode="&#xff;" horiz-adv-x="444" 
d="M-31.2354 -186l22.6133 102c18.1133 -4 33.1133 -4 51.1133 -4c43 0 69.6602 12 91.0889 41c17.543 25 28.8682 40 33.5234 61c4.21289 19 -0.910156 41 -2.25488 62l-40.5674 444h125l15.0576 -320h2l159.942 320h124l-279.503 -521
c-88.0322 -149 -140.9 -189 -242.9 -189c-30 0 -44.5566 2 -59.1133 4zM224.847 712h120l-25.7168 -116h-120zM414.847 712h120l-25.7168 -116h-120z" />
    <glyph glyph-name="zcaron" unicode="&#x17e;" horiz-adv-x="444" 
d="M132.112 420l22.1689 100h385l-19.5088 -88l-323.603 -332h252l-22.1699 -100h-408l19.5088 88l324.604 332h-230zM412.913 586h-124l-80.6328 146h112l45.8213 -82l81.1787 82h113z" />
    </font>
</defs>
</svg>
