<?xml version="1.0" encoding="utf-8"?>
<!-- Generator: Adobe Illustrator 19.1.0, SVG Export Plug-In . SVG Version: 6.00 Build 0)  -->
<svg version="1.1" id="Layer_1" xmlns="http://www.w3.org/2000/svg" xmlns:xlink="http://www.w3.org/1999/xlink" x="0px" y="0px"
	 viewBox="0 0 119 119" style="enable-background:new 0 0 119 119;" xml:space="preserve">
<metadata><?xpacket begin="﻿" id="W5M0MpCehiHzreSzNTczkc9d"?>
<x:xmpmeta xmlns:x="adobe:ns:meta/" x:xmptk="Adobe XMP Core 5.6-c067 79.157747, 2015/03/30-23:40:42        ">
   <rdf:RDF xmlns:rdf="http://www.w3.org/1999/02/22-rdf-syntax-ns#">
      <rdf:Description rdf:about=""/>
   </rdf:RDF>
</x:xmpmeta>
                                                                                                    
                                                                                                    
                                                                                                    
                                                                                                    
                                                                                                    
                                                                                                    
                                                                                                    
                                                                                                    
                                                                                                    
                                                                                                    
                                                                                                    
                                                                                                    
                                                                                                    
                                                                                                    
                                                                                                    
                                                                                                    
                                                                                                    
                                                                                                    
                                                                                                    
                                                                                                    
                           
<?xpacket end="w"?></metadata>
<g>
	<g>
		<path d="M28,43.9c-0.2-0.8-0.8-1.3-1.6-1.3c-1.1,0-1.8,1.1-1.8,3.1c0,2.1,0.6,3.1,1.9,3.1c0.8,0,1.2-0.3,1.7-1.3l1.6,0.4
			c-0.5,1.5-1.7,2.3-3.3,2.3c-2.3,0-3.6-1.7-3.6-4.6c0-2.9,1.3-4.6,3.6-4.6c1.7,0,2.7,0.8,3.1,2.3L28,43.9z"/>
		<path d="M38.5,41.3v8.9h-1V46h-4.3v4.2h-1v-8.9h1v3.8h4.3v-3.8H38.5z"/>
		<path d="M40.7,50.2l2.7-8.9h1.5l2.7,8.9h-1l-0.8-2.8h-3.2l-0.8,2.8H40.7z M42.8,46.6h2.7L44.3,42h-0.1L42.8,46.6z"/>
		<path d="M49.9,50.2v-8.9h2.9c1.9,0,3,0.9,3,2.3c0,1.3-0.7,2-1.8,2.3l1.9,4.2h-1.1l-1.8-4h-2.1v4H49.9z M50.8,45.3h1.8
			c1.4,0,2.1-0.5,2.1-1.6c0-1.2-0.8-1.6-2.1-1.6h-1.8V45.3z"/>
		<path d="M60.9,42.1v8.1h-1v-8.1h-2.7v-0.8h6.3v0.8H60.9z"/>
		<path d="M70.8,41.3v0.8h-4.4v3h3.1V46h-3.1v3.4h4.6v0.8h-5.6v-8.9H70.8z"/>
		<path d="M73.2,50.2v-8.9H76c1.9,0,3,0.9,3,2.3c0,1.3-0.7,2-1.8,2.3l1.9,4.2H78l-1.8-4h-2.1v4H73.2z M74.2,45.3h1.8
			c1.4,0,2.1-0.5,2.1-1.6c0-1.2-0.8-1.6-2.1-1.6h-1.8V45.3z"/>
		<path d="M86.5,41.3v0.8h-4.4v3h3.1V46h-3.1v3.4h4.6v0.8h-5.6v-8.9H86.5z"/>
		<path d="M88.5,41.3h2.4c2.4,0,4,1.5,4,4.5c0,2.6-1.4,4.5-4.1,4.5h-2.3V41.3z M89.5,49.4h1.3c2,0,3.1-1.2,3.1-3.6
			c0-2.6-1.2-3.6-3.1-3.6h-1.4V49.4z"/>
		<path d="M23.3,56.4h3.3c1.8,0,2.9,0.6,3,2.2c0,0.9-0.4,1.6-1.4,2c1.2,0.5,1.6,1,1.6,2.4c0,1.4-1,2.3-3.2,2.3h-3.3V56.4z M25,60
			h1.7c0.8,0,1.2-0.5,1.2-1.1s-0.4-1.1-1.2-1.1H25V60z M25,63.9h1.7c1,0,1.4-0.4,1.4-1.3c0-0.9-0.4-1.3-1.4-1.3H25V63.9z"/>
		<path d="M33.3,56.4v6.3c0,1,0.7,1.9,2.1,1.9c1.4,0,2.1-0.9,2.1-1.9v-6.3h1v6.2c0,1.8-1.3,2.8-3.1,2.8c-1.8,0-3.1-1-3.1-2.8v-6.2
			H33.3z"/>
		<path d="M45.6,58.7c-0.2-0.9-0.9-1.6-2.1-1.6c-1,0-1.7,0.5-1.7,1.4c0,1.9,5,1.5,5,4.3c0,1.3-0.7,2.6-3,2.6c-1.9,0-2.7-1.3-3.2-2.3
			l0.9-0.3c0.4,0.9,1,1.8,2.3,1.8s2-0.7,2-1.6c0-2.3-5-1.6-5-4.4c0-1.3,1.1-2.3,2.7-2.3c1.4,0,2.5,0.7,2.9,2.2L45.6,58.7z"/>
		<path d="M50.4,56.4v8.9h-1v-8.9H50.4z"/>
		<path d="M53.7,65.3v-8.9h1.4l3.9,6.9h0v-6.9h0.9v8.9h-0.8l-4.5-7.9h0v7.9H53.7z"/>
		<path d="M68.2,56.4v0.8h-4.4v3h3.1v0.8h-3.1v3.4h4.6v0.8h-5.6v-8.9H68.2z"/>
		<path d="M74.4,58.7c-0.2-0.9-0.9-1.6-2.1-1.6c-1,0-1.7,0.5-1.7,1.4c0,1.9,5,1.5,5,4.3c0,1.3-0.7,2.6-3,2.6c-1.9,0-2.7-1.3-3.2-2.3
			l0.9-0.3c0.4,0.9,1,1.8,2.3,1.8c1.3,0,2-0.7,2-1.6c0-2.3-5-1.6-5-4.4c0-1.3,1.1-2.3,2.7-2.3c1.4,0,2.5,0.7,2.9,2.2L74.4,58.7z"/>
		<path d="M81.9,58.7c-0.2-0.9-0.9-1.6-2.1-1.6c-1,0-1.7,0.5-1.7,1.4c0,1.9,5,1.5,5,4.3c0,1.3-0.7,2.6-3,2.6c-1.9,0-2.7-1.3-3.2-2.3
			l0.9-0.3c0.4,0.9,1,1.8,2.3,1.8c1.3,0,2-0.7,2-1.6c0-2.3-5-1.6-5-4.4c0-1.3,1.1-2.3,2.7-2.3c1.4,0,2.5,0.7,2.9,2.2L81.9,58.7z"/>
		<path d="M23.1,71.5h1.7l1.6,6.6h0l1.7-6.6h1.7l-2.4,8.9h-1.9L23.1,71.5z"/>
		<path d="M31.4,80.4l2.7-8.9h1.5l2.7,8.9h-1l-0.8-2.8h-3.2l-0.8,2.8H31.4z M33.5,76.8h2.7l-1.3-4.6h-0.1L33.5,76.8z"/>
		<path d="M40.5,80.4v-8.9h1v8.1h4.2v0.8H40.5z"/>
		<path d="M48.1,71.5v6.3c0,1,0.7,1.9,2.1,1.9c1.4,0,2.1-0.9,2.1-1.9v-6.3h1v6.2c0,1.8-1.3,2.8-3.1,2.8c-1.8,0-3.1-1-3.1-2.8v-6.2
			H48.1z"/>
		<path d="M55.1,80.4l2.7-8.9h1.5l2.7,8.9h-1l-0.8-2.8H57l-0.8,2.8H55.1z M57.2,76.8h2.7l-1.3-4.6h-0.1L57.2,76.8z"/>
		<path d="M66.3,72.4v8.1h-1v-8.1h-2.7v-0.8H69v0.8H66.3z"/>
		<path d="M73.5,71.4c2.2,0,3.5,1.6,3.5,4.6c0,3-1.3,4.6-3.5,4.6C71.3,80.6,70,79,70,76C70,73,71.3,71.4,73.5,71.4z M73.5,79.7
			c1.6,0,2.5-1.2,2.5-3.7c0-2.5-0.9-3.7-2.5-3.7c-1.6,0-2.5,1.2-2.5,3.7C71,78.5,71.9,79.7,73.5,79.7z"/>
		<path d="M79,80.4v-8.9h2.9c1.9,0,3,0.9,3,2.3c0,1.3-0.7,2-1.8,2.3l1.9,4.2h-1.1l-1.8-4H80v4H79z M80,75.6h1.8
			c1.4,0,2.1-0.5,2.1-1.6c0-1.2-0.8-1.6-2.1-1.6H80V75.6z"/>
		<path d="M91.4,73.8c-0.2-0.9-0.9-1.6-2.1-1.6c-1,0-1.7,0.5-1.7,1.4c0,1.9,5,1.5,5,4.3c0,1.3-0.7,2.6-3,2.6c-1.9,0-2.7-1.3-3.2-2.3
			l0.9-0.3c0.4,0.9,1,1.8,2.3,1.8s2-0.7,2-1.6c0-2.3-5-1.6-5-4.4c0-1.3,1.1-2.3,2.7-2.3c1.4,0,2.5,0.7,2.9,2.2L91.4,73.8z"/>
	</g>
	<polygon style="fill:#ED1A39;" points="31.7,91.8 21.2,91.8 21.2,88.9 26.5,88.9 31.7,88.9 	"/>
	<polygon points="31.7,32.5 21.2,32.5 21.2,29.6 26.5,29.6 31.7,29.6 	"/>
	<g>
		<path d="M95.3,71.7v1.8h-0.2v-1.8h-0.6v-0.2h1.4v0.2H95.3z"/>
		<path d="M97.9,73.5v-1.8h0l-0.5,1.8h-0.2l-0.5-1.8h0v1.8h-0.2v-1.9h0.3l0.5,1.6h0l0.5-1.6H98v1.9H97.9z"/>
	</g>
</g>
</svg>
