<?xml version="1.0" encoding="utf-8"?>
<!-- Generator: Adobe Illustrator 19.1.0, SVG Export Plug-In . SVG Version: 6.00 Build 0)  -->
<svg version="1.1" id="Layer_1" xmlns="http://www.w3.org/2000/svg" xmlns:xlink="http://www.w3.org/1999/xlink" x="0px" y="0px"
	 viewBox="0 0 119 119" style="enable-background:new 0 0 119 119;" xml:space="preserve">
<metadata><?xpacket begin="﻿" id="W5M0MpCehiHzreSzNTczkc9d"?>
<x:xmpmeta xmlns:x="adobe:ns:meta/" x:xmptk="Adobe XMP Core 5.6-c067 79.157747, 2015/03/30-23:40:42        ">
   <rdf:RDF xmlns:rdf="http://www.w3.org/1999/02/22-rdf-syntax-ns#">
      <rdf:Description rdf:about=""/>
   </rdf:RDF>
</x:xmpmeta>
                                                                                                    
                                                                                                    
                                                                                                    
                                                                                                    
                                                                                                    
                                                                                                    
                                                                                                    
                                                                                                    
                                                                                                    
                                                                                                    
                                                                                                    
                                                                                                    
                                                                                                    
                                                                                                    
                                                                                                    
                                                                                                    
                                                                                                    
                                                                                                    
                                                                                                    
                                                                                                    
                           
<?xpacket end="w"?></metadata>
<g>
	<g>
		<path style="fill:#6D6E71;" d="M56.8,59.7c-0.3,0-0.6,0-0.9,0c-0.3,0-0.6-0.1-0.9-0.1v-5.2c0.2,0,0.5-0.1,0.8-0.1
			c0.3,0,0.6,0,0.8,0c0.3,0,0.7,0,0.9,0.1c0.3,0,0.5,0.1,0.7,0.3c0.2,0.1,0.4,0.3,0.5,0.5c0.1,0.2,0.2,0.4,0.2,0.7
			c0,0.4-0.2,0.8-0.6,1c0.3,0.1,0.6,0.3,0.7,0.5c0.1,0.2,0.2,0.5,0.2,0.8c0,0.6-0.2,1-0.6,1.3C58.2,59.6,57.6,59.7,56.8,59.7z
			 M56.1,56.4h0.6c0.4,0,0.6,0,0.8-0.1c0.2-0.1,0.2-0.3,0.2-0.5c0-0.2-0.1-0.4-0.2-0.5c-0.2-0.1-0.4-0.1-0.7-0.1c-0.1,0-0.2,0-0.3,0
			c-0.1,0-0.2,0-0.3,0V56.4z M56.1,57.3v1.4c0.1,0,0.2,0,0.3,0c0.1,0,0.2,0,0.3,0c0.4,0,0.7-0.1,0.9-0.2c0.2-0.1,0.3-0.3,0.3-0.6
			c0-0.2-0.1-0.4-0.3-0.5c-0.2-0.1-0.5-0.2-0.8-0.2H56.1z"/>
		<path style="fill:#6D6E71;" d="M63.6,59.5c-0.2,0.1-0.5,0.1-0.8,0.2c-0.3,0-0.6,0.1-1,0.1c-0.3,0-0.6,0-0.9-0.1
			c-0.2-0.1-0.4-0.2-0.5-0.4c-0.1-0.2-0.2-0.4-0.3-0.6c-0.1-0.2-0.1-0.5-0.1-0.8v-2.3h1.2v2.1c0,0.4,0,0.6,0.1,0.8
			c0.1,0.2,0.3,0.2,0.6,0.2c0.1,0,0.2,0,0.3,0c0.1,0,0.2,0,0.2,0v-3.2h1.2V59.5z"/>
		<path style="fill:#6D6E71;" d="M65.8,58.8c0.2,0,0.4,0,0.5-0.1c0.1,0,0.1-0.1,0.1-0.2c0-0.1-0.1-0.2-0.2-0.2
			c-0.1-0.1-0.3-0.1-0.5-0.2c-0.2-0.1-0.3-0.1-0.5-0.2c-0.1-0.1-0.3-0.2-0.4-0.3c-0.1-0.1-0.2-0.2-0.2-0.4c-0.1-0.1-0.1-0.3-0.1-0.5
			c0-0.4,0.1-0.7,0.4-0.9c0.3-0.2,0.7-0.3,1.2-0.3c0.2,0,0.5,0,0.7,0.1c0.2,0,0.4,0.1,0.5,0.1l-0.2,0.9c-0.1,0-0.3-0.1-0.4-0.1
			c-0.2,0-0.3-0.1-0.5-0.1c-0.4,0-0.5,0.1-0.5,0.3c0,0,0,0.1,0,0.1c0,0,0,0.1,0.1,0.1c0,0,0.1,0.1,0.2,0.1c0.1,0,0.2,0.1,0.3,0.1
			c0.3,0.1,0.5,0.2,0.6,0.3c0.2,0.1,0.3,0.2,0.4,0.3c0.1,0.1,0.2,0.2,0.2,0.4c0,0.1,0.1,0.3,0.1,0.5c0,0.4-0.2,0.7-0.5,0.9
			c-0.3,0.2-0.7,0.3-1.3,0.3c-0.4,0-0.7,0-0.9-0.1c-0.2-0.1-0.4-0.1-0.5-0.2l0.2-0.9c0.2,0.1,0.4,0.1,0.6,0.2
			C65.4,58.8,65.6,58.8,65.8,58.8z"/>
		<path style="fill:#6D6E71;" d="M69.7,54.4c0,0.2-0.1,0.4-0.2,0.5c-0.1,0.1-0.3,0.2-0.5,0.2c-0.2,0-0.3-0.1-0.5-0.2
			c-0.1-0.1-0.2-0.3-0.2-0.5s0.1-0.4,0.2-0.5c0.1-0.1,0.3-0.2,0.5-0.2c0.2,0,0.3,0.1,0.5,0.2C69.6,54,69.7,54.2,69.7,54.4z
			 M69.6,59.7h-1.2v-4.1h1.2V59.7z"/>
		<path style="fill:#6D6E71;" d="M70.6,55.7c0.2-0.1,0.5-0.1,0.8-0.2c0.3,0,0.6-0.1,1-0.1c0.3,0,0.6,0,0.9,0.1
			c0.2,0.1,0.4,0.2,0.5,0.4c0.1,0.2,0.2,0.4,0.3,0.6c0.1,0.2,0.1,0.5,0.1,0.8v2.3H73v-2.2c0-0.4,0-0.6-0.1-0.8
			c-0.1-0.2-0.3-0.2-0.6-0.2c-0.1,0-0.2,0-0.3,0c-0.1,0-0.2,0-0.2,0v3.2h-1.2V55.7z"/>
		<path style="fill:#6D6E71;" d="M75,57.7c0-0.4,0.1-0.7,0.2-1c0.1-0.3,0.3-0.5,0.4-0.7c0.2-0.2,0.4-0.3,0.6-0.4
			c0.2-0.1,0.5-0.1,0.7-0.1c0.6,0,1,0.2,1.4,0.5c0.3,0.4,0.5,0.9,0.5,1.6c0,0.1,0,0.1,0,0.2c0,0.1,0,0.2,0,0.2h-2.6
			c0,0.2,0.1,0.4,0.3,0.6c0.2,0.1,0.5,0.2,0.8,0.2c0.2,0,0.4,0,0.6-0.1c0.2,0,0.4-0.1,0.5-0.1l0.2,0.9c-0.1,0-0.1,0.1-0.2,0.1
			c-0.1,0-0.2,0.1-0.3,0.1c-0.1,0-0.3,0-0.4,0.1c-0.1,0-0.3,0-0.4,0c-0.4,0-0.7-0.1-1-0.2c-0.3-0.1-0.5-0.3-0.7-0.4
			c-0.2-0.2-0.3-0.4-0.4-0.7C75,58.2,75,58,75,57.7z M77.7,57.2c0-0.1,0-0.2-0.1-0.3c0-0.1-0.1-0.2-0.1-0.2
			c-0.1-0.1-0.1-0.1-0.2-0.2c-0.1,0-0.2-0.1-0.3-0.1c-0.1,0-0.2,0-0.3,0.1c-0.1,0-0.2,0.1-0.2,0.2c-0.1,0.1-0.1,0.2-0.1,0.3
			c0,0.1-0.1,0.2-0.1,0.3H77.7z"/>
		<path style="fill:#6D6E71;" d="M80.9,58.8c0.2,0,0.4,0,0.5-0.1c0.1,0,0.1-0.1,0.1-0.2c0-0.1-0.1-0.2-0.2-0.2
			c-0.1-0.1-0.3-0.1-0.5-0.2c-0.2-0.1-0.3-0.1-0.5-0.2c-0.1-0.1-0.3-0.2-0.4-0.3c-0.1-0.1-0.2-0.2-0.2-0.4c-0.1-0.1-0.1-0.3-0.1-0.5
			c0-0.4,0.1-0.7,0.4-0.9c0.3-0.2,0.7-0.3,1.2-0.3c0.2,0,0.5,0,0.7,0.1c0.2,0,0.4,0.1,0.5,0.1l-0.2,0.9c-0.1,0-0.3-0.1-0.4-0.1
			c-0.2,0-0.3-0.1-0.5-0.1c-0.4,0-0.5,0.1-0.5,0.3c0,0,0,0.1,0,0.1c0,0,0,0.1,0.1,0.1c0,0,0.1,0.1,0.2,0.1s0.2,0.1,0.3,0.1
			c0.3,0.1,0.5,0.2,0.6,0.3c0.2,0.1,0.3,0.2,0.4,0.3c0.1,0.1,0.2,0.2,0.2,0.4c0,0.1,0.1,0.3,0.1,0.5c0,0.4-0.2,0.7-0.5,0.9
			c-0.3,0.2-0.7,0.3-1.3,0.3c-0.4,0-0.7,0-0.9-0.1c-0.2-0.1-0.4-0.1-0.5-0.2l0.2-0.9c0.2,0.1,0.4,0.1,0.6,0.2
			C80.5,58.8,80.7,58.8,80.9,58.8z"/>
		<path style="fill:#6D6E71;" d="M84.6,58.8c0.2,0,0.4,0,0.5-0.1c0.1,0,0.1-0.1,0.1-0.2c0-0.1-0.1-0.2-0.2-0.2s-0.3-0.1-0.5-0.2
			c-0.2-0.1-0.3-0.1-0.5-0.2c-0.1-0.1-0.3-0.2-0.4-0.3c-0.1-0.1-0.2-0.2-0.2-0.4c-0.1-0.1-0.1-0.3-0.1-0.5c0-0.4,0.1-0.7,0.4-0.9
			c0.3-0.2,0.7-0.3,1.2-0.3c0.2,0,0.5,0,0.7,0.1c0.2,0,0.4,0.1,0.5,0.1l-0.2,0.9c-0.1,0-0.3-0.1-0.4-0.1c-0.2,0-0.3-0.1-0.5-0.1
			c-0.4,0-0.5,0.1-0.5,0.3c0,0,0,0.1,0,0.1c0,0,0,0.1,0.1,0.1c0,0,0.1,0.1,0.2,0.1c0.1,0,0.2,0.1,0.3,0.1c0.3,0.1,0.5,0.2,0.6,0.3
			c0.2,0.1,0.3,0.2,0.4,0.3c0.1,0.1,0.2,0.2,0.2,0.4c0,0.1,0.1,0.3,0.1,0.5c0,0.4-0.2,0.7-0.5,0.9c-0.3,0.2-0.7,0.3-1.3,0.3
			c-0.4,0-0.7,0-0.9-0.1c-0.2-0.1-0.4-0.1-0.5-0.2l0.2-0.9c0.2,0.1,0.4,0.1,0.6,0.2C84.2,58.8,84.4,58.8,84.6,58.8z"/>
		<path style="fill:#6D6E71;" d="M94.3,57c0,0.5-0.1,0.9-0.2,1.2c-0.1,0.4-0.3,0.6-0.6,0.9c-0.2,0.2-0.5,0.4-0.9,0.5
			c-0.3,0.1-0.7,0.2-1.1,0.2c-0.4,0-0.7-0.1-1-0.2c-0.3-0.1-0.6-0.3-0.9-0.5c-0.2-0.2-0.4-0.5-0.6-0.9s-0.2-0.8-0.2-1.2
			c0-0.5,0.1-0.9,0.2-1.2c0.1-0.4,0.3-0.6,0.6-0.9c0.2-0.2,0.5-0.4,0.9-0.5c0.3-0.1,0.7-0.2,1-0.2c0.4,0,0.7,0.1,1,0.2
			c0.3,0.1,0.6,0.3,0.9,0.5c0.2,0.2,0.4,0.5,0.6,0.9C94.2,56.1,94.3,56.5,94.3,57z M90.2,57c0,0.3,0,0.5,0.1,0.7
			c0.1,0.2,0.2,0.4,0.3,0.5c0.1,0.2,0.3,0.3,0.4,0.4c0.2,0.1,0.4,0.1,0.6,0.1c0.2,0,0.4,0,0.6-0.1c0.2-0.1,0.3-0.2,0.5-0.4
			c0.1-0.2,0.2-0.3,0.3-0.5C93,57.5,93,57.2,93,57s0-0.5-0.1-0.7c-0.1-0.2-0.2-0.4-0.3-0.6c-0.1-0.2-0.3-0.3-0.5-0.4
			c-0.2-0.1-0.4-0.1-0.6-0.1c-0.2,0-0.4,0-0.6,0.1c-0.2,0.1-0.3,0.2-0.4,0.4c-0.1,0.2-0.2,0.3-0.3,0.6C90.2,56.5,90.2,56.7,90.2,57z
			"/>
		<path style="fill:#6D6E71;" d="M97.7,57.3c-0.1,0.4-0.2,0.8-0.3,1.2c-0.1,0.4-0.2,0.8-0.4,1.2h-0.9c-0.1-0.2-0.2-0.5-0.3-0.8
			c-0.1-0.3-0.2-0.6-0.3-1c-0.1-0.4-0.2-0.7-0.4-1.1c-0.1-0.4-0.2-0.8-0.4-1.2H96c0,0.2,0.1,0.4,0.1,0.6c0,0.2,0.1,0.4,0.2,0.7
			c0.1,0.2,0.1,0.5,0.2,0.7c0.1,0.2,0.1,0.5,0.2,0.7c0.1-0.2,0.1-0.5,0.2-0.7c0.1-0.2,0.1-0.5,0.2-0.7c0.1-0.2,0.1-0.5,0.2-0.7
			c0.1-0.2,0.1-0.4,0.1-0.6h0.8c0,0.2,0.1,0.4,0.1,0.6c0.1,0.2,0.1,0.4,0.2,0.7c0.1,0.2,0.1,0.5,0.2,0.7c0.1,0.2,0.1,0.5,0.2,0.7
			c0.1-0.2,0.1-0.4,0.2-0.7c0.1-0.2,0.1-0.5,0.2-0.7c0.1-0.2,0.1-0.5,0.2-0.7c0-0.2,0.1-0.4,0.1-0.6h1.2c-0.1,0.4-0.2,0.8-0.4,1.2
			c-0.1,0.4-0.2,0.8-0.4,1.1s-0.2,0.7-0.3,1c-0.1,0.3-0.2,0.6-0.3,0.8h-0.9c-0.1-0.4-0.3-0.8-0.4-1.2C97.9,58.1,97.8,57.7,97.7,57.3
			z"/>
		<path style="fill:#6D6E71;" d="M101.3,55.7c0.2-0.1,0.5-0.1,0.8-0.2c0.3,0,0.6-0.1,1-0.1c0.3,0,0.6,0,0.9,0.1
			c0.2,0.1,0.4,0.2,0.5,0.4c0.1,0.2,0.2,0.4,0.3,0.6c0.1,0.2,0.1,0.5,0.1,0.8v2.3h-1.2v-2.2c0-0.4,0-0.6-0.1-0.8
			c-0.1-0.2-0.3-0.2-0.6-0.2c-0.1,0-0.2,0-0.3,0c-0.1,0-0.2,0-0.2,0v3.2h-1.2V55.7z"/>
		<path style="fill:#6D6E71;" d="M105.7,57.7c0-0.4,0.1-0.7,0.2-1c0.1-0.3,0.3-0.5,0.4-0.7c0.2-0.2,0.4-0.3,0.6-0.4
			c0.2-0.1,0.5-0.1,0.7-0.1c0.6,0,1,0.2,1.4,0.5c0.3,0.4,0.5,0.9,0.5,1.6c0,0.1,0,0.1,0,0.2c0,0.1,0,0.2,0,0.2h-2.6
			c0,0.2,0.1,0.4,0.3,0.6c0.2,0.1,0.5,0.2,0.8,0.2c0.2,0,0.4,0,0.6-0.1c0.2,0,0.4-0.1,0.5-0.1l0.2,0.9c-0.1,0-0.1,0.1-0.2,0.1
			c-0.1,0-0.2,0.1-0.3,0.1c-0.1,0-0.3,0-0.4,0.1c-0.1,0-0.3,0-0.4,0c-0.4,0-0.7-0.1-1-0.2c-0.3-0.1-0.5-0.3-0.7-0.4
			c-0.2-0.2-0.3-0.4-0.4-0.7C105.7,58.2,105.7,58,105.7,57.7z M108.4,57.2c0-0.1,0-0.2-0.1-0.3c0-0.1-0.1-0.2-0.1-0.2
			c-0.1-0.1-0.1-0.1-0.2-0.2c-0.1,0-0.2-0.1-0.3-0.1c-0.1,0-0.2,0-0.3,0.1c-0.1,0-0.2,0.1-0.2,0.2c-0.1,0.1-0.1,0.2-0.1,0.3
			c0,0.1-0.1,0.2-0.1,0.3H108.4z"/>
		<path style="fill:#6D6E71;" d="M112.9,56.6c-0.1,0-0.2-0.1-0.4-0.1c-0.1,0-0.3,0-0.5,0c-0.1,0-0.2,0-0.3,0c-0.1,0-0.2,0-0.2,0v3.1
			h-1.2v-3.9c0.2-0.1,0.5-0.1,0.7-0.2c0.3-0.1,0.6-0.1,0.9-0.1c0.1,0,0.1,0,0.2,0c0.1,0,0.2,0,0.3,0c0.1,0,0.2,0,0.3,0
			c0.1,0,0.2,0,0.2,0.1L112.9,56.6z"/>
		<path style="fill:#6D6E71;" d="M56.4,66c0.2,0,0.3,0,0.4,0c0.1,0,0.2-0.1,0.3-0.1c0.1,0,0.1-0.1,0.1-0.2c0-0.1,0-0.1,0-0.2
			c0-0.2-0.1-0.3-0.2-0.4c-0.2-0.1-0.5-0.2-0.9-0.4c-0.2-0.1-0.4-0.1-0.5-0.2c-0.2-0.1-0.3-0.2-0.5-0.3c-0.1-0.1-0.3-0.3-0.3-0.4
			c-0.1-0.2-0.1-0.4-0.1-0.6c0-0.2,0-0.5,0.1-0.7c0.1-0.2,0.2-0.4,0.4-0.5c0.2-0.1,0.4-0.2,0.6-0.3c0.2-0.1,0.5-0.1,0.8-0.1
			c0.4,0,0.7,0,0.9,0.1s0.5,0.2,0.7,0.3l-0.4,1c-0.2-0.1-0.3-0.1-0.5-0.2c-0.2-0.1-0.4-0.1-0.7-0.1c-0.3,0-0.5,0-0.6,0.1
			C56,62.6,56,62.7,56,62.9c0,0.1,0,0.2,0.1,0.2c0,0.1,0.1,0.1,0.2,0.2c0.1,0.1,0.2,0.1,0.3,0.1c0.1,0,0.2,0.1,0.4,0.1
			c0.3,0.1,0.5,0.2,0.7,0.3c0.2,0.1,0.4,0.2,0.5,0.4c0.1,0.1,0.2,0.3,0.3,0.5c0.1,0.2,0.1,0.4,0.1,0.7c0,0.5-0.2,0.9-0.5,1.2
			S57.1,67,56.4,67c-0.2,0-0.5,0-0.6,0c-0.2,0-0.4-0.1-0.5-0.1c-0.1,0-0.3-0.1-0.4-0.1c-0.1,0-0.2-0.1-0.3-0.1l0.3-1
			c0.2,0.1,0.4,0.2,0.6,0.2C55.8,65.9,56.1,66,56.4,66z"/>
		<path style="fill:#6D6E71;" d="M59.3,61.8l1.2-0.2v1.2h1.4v1h-1.4v1.4c0,0.2,0,0.4,0.1,0.6c0.1,0.1,0.3,0.2,0.5,0.2
			c0.1,0,0.3,0,0.4,0c0.1,0,0.3-0.1,0.4-0.1l0.2,0.9c-0.1,0.1-0.3,0.1-0.5,0.1C61.4,67,61.2,67,61,67c-0.3,0-0.6,0-0.8-0.1
			c-0.2-0.1-0.4-0.2-0.5-0.4c-0.1-0.2-0.2-0.3-0.3-0.6c0-0.2-0.1-0.5-0.1-0.7V61.8z"/>
		<path style="fill:#6D6E71;" d="M65.3,63.8c-0.1,0-0.2-0.1-0.4-0.1c-0.1,0-0.3,0-0.5,0c-0.1,0-0.2,0-0.3,0c-0.1,0-0.2,0-0.2,0v3.1
			h-1.2V63c0.2-0.1,0.5-0.1,0.7-0.2c0.3-0.1,0.6-0.1,0.9-0.1c0.1,0,0.1,0,0.2,0c0.1,0,0.2,0,0.3,0c0.1,0,0.2,0,0.3,0
			c0.1,0,0.2,0,0.2,0.1L65.3,63.8z"/>
		<path style="fill:#6D6E71;" d="M67.5,62.7c0.3,0,0.6,0,0.9,0.1c0.2,0.1,0.4,0.2,0.5,0.3c0.1,0.1,0.2,0.3,0.3,0.5
			c0.1,0.2,0.1,0.4,0.1,0.7v2.4c-0.2,0-0.4,0.1-0.7,0.1c-0.3,0-0.7,0.1-1.1,0.1c-0.3,0-0.5,0-0.7-0.1c-0.2,0-0.4-0.1-0.6-0.2
			c-0.2-0.1-0.3-0.2-0.4-0.4c-0.1-0.2-0.1-0.4-0.1-0.6c0-0.2,0-0.4,0.1-0.6c0.1-0.2,0.2-0.3,0.4-0.4c0.2-0.1,0.3-0.2,0.6-0.2
			c0.2,0,0.4-0.1,0.6-0.1c0.2,0,0.3,0,0.4,0c0.1,0,0.2,0,0.3,0.1v-0.1c0-0.2-0.1-0.4-0.2-0.5c-0.1-0.1-0.3-0.2-0.6-0.2
			c-0.2,0-0.4,0-0.6,0c-0.2,0-0.4,0.1-0.5,0.1l-0.1-0.9c0.1,0,0.2,0,0.3-0.1c0.1,0,0.2,0,0.3-0.1c0.1,0,0.2,0,0.4,0
			C67.2,62.7,67.4,62.7,67.5,62.7z M67.6,66.1c0.1,0,0.2,0,0.3,0c0.1,0,0.2,0,0.2,0v-0.9c0,0-0.1,0-0.2,0c-0.1,0-0.2,0-0.3,0
			c-0.1,0-0.2,0-0.3,0c-0.1,0-0.2,0-0.3,0.1c-0.1,0-0.1,0.1-0.2,0.1c0,0.1-0.1,0.1-0.1,0.2c0,0.2,0.1,0.3,0.2,0.4
			C67.2,66.1,67.4,66.1,67.6,66.1z"/>
		<path style="fill:#6D6E71;" d="M70.3,61.8l1.2-0.2v1.2h1.4v1h-1.4v1.4c0,0.2,0,0.4,0.1,0.6c0.1,0.1,0.3,0.2,0.5,0.2
			c0.1,0,0.3,0,0.4,0c0.1,0,0.3-0.1,0.4-0.1l0.2,0.9c-0.1,0.1-0.3,0.1-0.5,0.1c-0.2,0-0.4,0.1-0.6,0.1c-0.3,0-0.6,0-0.8-0.1
			c-0.2-0.1-0.4-0.2-0.5-0.4c-0.1-0.2-0.2-0.3-0.3-0.6c0-0.2-0.1-0.5-0.1-0.7V61.8z"/>
		<path style="fill:#6D6E71;" d="M73.5,64.9c0-0.4,0.1-0.7,0.2-1c0.1-0.3,0.3-0.5,0.4-0.7c0.2-0.2,0.4-0.3,0.6-0.4
			c0.2-0.1,0.5-0.1,0.7-0.1c0.6,0,1,0.2,1.4,0.5c0.3,0.4,0.5,0.9,0.5,1.6c0,0.1,0,0.1,0,0.2c0,0.1,0,0.2,0,0.2h-2.6
			c0,0.2,0.1,0.4,0.3,0.6c0.2,0.1,0.5,0.2,0.8,0.2c0.2,0,0.4,0,0.6-0.1s0.4-0.1,0.5-0.1l0.2,0.9c-0.1,0-0.1,0.1-0.2,0.1
			c-0.1,0-0.2,0.1-0.3,0.1c-0.1,0-0.3,0-0.4,0.1c-0.1,0-0.3,0-0.4,0c-0.4,0-0.7-0.1-1-0.2c-0.3-0.1-0.5-0.3-0.7-0.4
			c-0.2-0.2-0.3-0.4-0.4-0.7C73.5,65.5,73.5,65.2,73.5,64.9z M76.2,64.4c0-0.1,0-0.2-0.1-0.3c0-0.1-0.1-0.2-0.1-0.2
			c-0.1-0.1-0.1-0.1-0.2-0.2c-0.1,0-0.2-0.1-0.3-0.1c-0.1,0-0.2,0-0.3,0.1c-0.1,0-0.2,0.1-0.2,0.2c-0.1,0.1-0.1,0.2-0.1,0.3
			c0,0.1-0.1,0.2-0.1,0.3H76.2z"/>
		<path style="fill:#6D6E71;" d="M81.7,66.4c0,0.7-0.2,1.2-0.5,1.5c-0.3,0.3-0.9,0.5-1.6,0.5c-0.2,0-0.5,0-0.7-0.1
			c-0.2,0-0.5-0.1-0.7-0.2l0.2-1c0.2,0.1,0.4,0.1,0.6,0.2c0.2,0,0.4,0.1,0.7,0.1c0.3,0,0.6-0.1,0.7-0.2c0.1-0.1,0.2-0.3,0.2-0.6
			v-0.1c-0.1,0.1-0.3,0.1-0.4,0.1c-0.1,0-0.3,0-0.4,0c-0.6,0-1-0.2-1.3-0.5c-0.3-0.3-0.5-0.8-0.5-1.4c0-0.3,0-0.6,0.1-0.8
			c0.1-0.2,0.2-0.5,0.4-0.6c0.2-0.2,0.4-0.3,0.7-0.4c0.3-0.1,0.6-0.1,0.9-0.1c0.1,0,0.3,0,0.4,0c0.1,0,0.3,0,0.4,0.1
			c0.1,0,0.3,0,0.4,0.1c0.1,0,0.3,0.1,0.4,0.1V66.4z M79.1,64.7c0,0.6,0.3,1,0.8,1c0.1,0,0.2,0,0.3,0c0.1,0,0.2-0.1,0.3-0.1v-1.9
			c-0.1,0-0.1,0-0.2,0c-0.1,0-0.2,0-0.3,0c-0.3,0-0.5,0.1-0.7,0.3C79.2,64.2,79.1,64.4,79.1,64.7z"/>
		<path style="fill:#6D6E71;" d="M86.4,62.8c-0.2,0.8-0.5,1.5-0.7,2.2c-0.3,0.7-0.5,1.4-0.8,2c-0.1,0.2-0.2,0.4-0.3,0.6
			c-0.1,0.2-0.2,0.3-0.4,0.4c-0.1,0.1-0.3,0.2-0.4,0.2c-0.2,0-0.4,0.1-0.6,0.1c-0.2,0-0.4,0-0.5-0.1c-0.2,0-0.3-0.1-0.4-0.1l0.2-0.9
			c0.1,0,0.2,0.1,0.3,0.1c0.1,0,0.2,0,0.3,0c0.2,0,0.4-0.1,0.5-0.2c0.1-0.1,0.2-0.3,0.3-0.5c-0.3-0.5-0.5-1.1-0.8-1.7
			c-0.3-0.6-0.5-1.4-0.7-2.2h1.2c0.1,0.2,0.1,0.4,0.2,0.7c0.1,0.2,0.1,0.5,0.2,0.7c0.1,0.2,0.2,0.5,0.2,0.7c0.1,0.2,0.2,0.4,0.2,0.6
			c0.1-0.2,0.1-0.4,0.2-0.6c0.1-0.2,0.1-0.5,0.2-0.7c0.1-0.2,0.1-0.5,0.2-0.7c0.1-0.2,0.1-0.5,0.2-0.7H86.4z"/>
	</g>
	<g>
		<path style="fill:#72BF44;" d="M56,75.6c-0.5,0-0.8-0.1-1-0.4c-0.2-0.3-0.4-0.6-0.4-1.1c0-0.2,0-0.4,0.1-0.6
			c0.1-0.2,0.2-0.3,0.3-0.5c0.1-0.1,0.3-0.2,0.5-0.3c0.2-0.1,0.4-0.1,0.6-0.1c0.1,0,0.2,0,0.3,0c0.1,0,0.2,0,0.3,0.1
			c0.1,0,0.1,0,0.2,0.1c0,0,0.1,0,0.1,0.1l-0.2,0.5c-0.1,0-0.2-0.1-0.3-0.1c-0.1,0-0.2,0-0.4,0c-0.1,0-0.2,0-0.3,0
			c-0.1,0-0.2,0.1-0.2,0.2c-0.1,0.1-0.1,0.2-0.2,0.3c0,0.1-0.1,0.3-0.1,0.4c0,0.1,0,0.2,0,0.4c0,0.1,0.1,0.2,0.1,0.3
			c0.1,0.1,0.1,0.1,0.2,0.2c0.1,0,0.2,0.1,0.4,0.1c0.1,0,0.2,0,0.2,0c0.1,0,0.1,0,0.2,0c0.1,0,0.1,0,0.1-0.1c0,0,0.1,0,0.1-0.1
			l0.2,0.5c-0.1,0.1-0.2,0.1-0.4,0.1C56.4,75.6,56.2,75.6,56,75.6z"/>
		<path style="fill:#72BF44;" d="M59.4,75.5c0-0.1-0.1-0.2-0.1-0.3c0-0.1-0.1-0.2-0.1-0.3h-1.1c0,0.1-0.1,0.2-0.1,0.3
			c0,0.1-0.1,0.2-0.1,0.3h-0.7c0.1-0.3,0.2-0.6,0.3-0.8c0.1-0.3,0.2-0.5,0.3-0.7c0.1-0.2,0.2-0.4,0.3-0.6c0.1-0.2,0.2-0.4,0.3-0.6
			H59c0.1,0.2,0.2,0.4,0.3,0.6c0.1,0.2,0.2,0.4,0.3,0.6c0.1,0.2,0.2,0.5,0.3,0.7c0.1,0.3,0.2,0.5,0.3,0.8H59.4z M58.7,73.4
			c0,0,0,0.1-0.1,0.2c0,0.1-0.1,0.2-0.1,0.2c0,0.1-0.1,0.2-0.1,0.3c0,0.1-0.1,0.2-0.1,0.3h0.8c0-0.1-0.1-0.2-0.1-0.3
			c0-0.1-0.1-0.2-0.1-0.3c0-0.1-0.1-0.2-0.1-0.2C58.7,73.5,58.7,73.4,58.7,73.4z"/>
		<path style="fill:#72BF44;" d="M62.4,75.5c-0.2-0.3-0.4-0.6-0.6-0.9c-0.2-0.3-0.4-0.6-0.7-0.9v1.8h-0.6v-2.8H61
			c0.1,0.1,0.2,0.2,0.3,0.3c0.1,0.1,0.2,0.3,0.3,0.4c0.1,0.1,0.2,0.3,0.3,0.5s0.2,0.3,0.3,0.5v-1.7h0.6v2.8H62.4z"/>
		<path style="fill:#72BF44;" d="M65.5,75.5c0-0.1-0.1-0.2-0.1-0.3c0-0.1-0.1-0.2-0.1-0.3h-1.1c0,0.1-0.1,0.2-0.1,0.3
			c0,0.1-0.1,0.2-0.1,0.3h-0.7c0.1-0.3,0.2-0.6,0.3-0.8c0.1-0.3,0.2-0.5,0.3-0.7c0.1-0.2,0.2-0.4,0.3-0.6c0.1-0.2,0.2-0.4,0.3-0.6
			H65c0.1,0.2,0.2,0.4,0.3,0.6c0.1,0.2,0.2,0.4,0.3,0.6c0.1,0.2,0.2,0.5,0.3,0.7c0.1,0.3,0.2,0.5,0.3,0.8H65.5z M64.7,73.4
			c0,0,0,0.1-0.1,0.2c0,0.1-0.1,0.2-0.1,0.2c0,0.1-0.1,0.2-0.1,0.3c0,0.1-0.1,0.2-0.1,0.3h0.8c0-0.1-0.1-0.2-0.1-0.3
			c0-0.1-0.1-0.2-0.1-0.3c0-0.1-0.1-0.2-0.1-0.2C64.8,73.5,64.8,73.4,64.7,73.4z"/>
		<path style="fill:#72BF44;" d="M69,74.1c0,0.2,0,0.5-0.1,0.6c-0.1,0.2-0.2,0.3-0.3,0.4s-0.3,0.2-0.5,0.3c-0.2,0.1-0.4,0.1-0.7,0.1
			c-0.1,0-0.2,0-0.4,0c-0.2,0-0.3,0-0.4-0.1v-2.7c0.1,0,0.3,0,0.5-0.1c0.2,0,0.3,0,0.4,0c0.2,0,0.5,0,0.7,0.1
			c0.2,0.1,0.4,0.1,0.5,0.3c0.1,0.1,0.2,0.3,0.3,0.4C69,73.7,69,73.9,69,74.1z M67.2,75c0,0,0.1,0,0.1,0c0,0,0.1,0,0.1,0
			c0.3,0,0.5-0.1,0.7-0.2c0.2-0.2,0.2-0.4,0.2-0.7c0-0.3-0.1-0.5-0.2-0.7s-0.4-0.2-0.7-0.2c0,0-0.1,0-0.1,0s-0.1,0-0.1,0V75z"/>
		<path style="fill:#72BF44;" d="M71.4,75.5c0-0.1-0.1-0.2-0.1-0.3c0-0.1-0.1-0.2-0.1-0.3h-1.1c0,0.1-0.1,0.2-0.1,0.3
			c0,0.1-0.1,0.2-0.1,0.3h-0.7c0.1-0.3,0.2-0.6,0.3-0.8c0.1-0.3,0.2-0.5,0.3-0.7c0.1-0.2,0.2-0.4,0.3-0.6s0.2-0.4,0.3-0.6h0.6
			c0.1,0.2,0.2,0.4,0.3,0.6c0.1,0.2,0.2,0.4,0.3,0.6c0.1,0.2,0.2,0.5,0.3,0.7c0.1,0.3,0.2,0.5,0.3,0.8H71.4z M70.6,73.4
			c0,0,0,0.1-0.1,0.2c0,0.1-0.1,0.2-0.1,0.2c0,0.1-0.1,0.2-0.1,0.3c0,0.1-0.1,0.2-0.1,0.3H71c0-0.1-0.1-0.2-0.1-0.3
			c0-0.1-0.1-0.2-0.1-0.3c0-0.1-0.1-0.2-0.1-0.2C70.7,73.5,70.6,73.4,70.6,73.4z"/>
		<path style="fill:#72BF44;" d="M72.7,72.4c0,0,0,0.1,0,0.1c0,0,0,0.1,0,0.1c0,0.2,0,0.4-0.1,0.5c-0.1,0.2-0.1,0.3-0.2,0.4L72,73.5
			c0.1-0.1,0.1-0.2,0.1-0.4c0-0.1,0-0.3,0-0.4c0,0,0,0,0,0c0,0,0,0,0-0.1c0,0,0,0,0-0.1c0,0,0,0,0-0.1H72.7z"/>
		<path style="fill:#72BF44;" d="M74.1,75.1c0.1,0,0.2,0,0.2,0c0.1,0,0.1,0,0.1-0.1c0,0,0.1-0.1,0.1-0.1c0,0,0-0.1,0-0.1
			c0-0.1,0-0.2-0.1-0.2c-0.1-0.1-0.2-0.1-0.4-0.2c-0.1,0-0.2-0.1-0.3-0.1c-0.1,0-0.2-0.1-0.2-0.2s-0.1-0.1-0.2-0.2
			c0-0.1-0.1-0.2-0.1-0.3c0-0.1,0-0.2,0.1-0.3c0-0.1,0.1-0.2,0.2-0.3c0.1-0.1,0.2-0.1,0.3-0.2c0.1,0,0.3-0.1,0.4-0.1
			c0.2,0,0.4,0,0.5,0.1c0.1,0,0.3,0.1,0.3,0.1l-0.2,0.5c-0.1,0-0.2-0.1-0.3-0.1c-0.1,0-0.2,0-0.3,0c-0.2,0-0.3,0-0.3,0.1
			c-0.1,0-0.1,0.1-0.1,0.2c0,0.1,0,0.1,0,0.1c0,0,0.1,0.1,0.1,0.1c0,0,0.1,0.1,0.2,0.1c0.1,0,0.1,0,0.2,0.1c0.1,0.1,0.3,0.1,0.4,0.2
			c0.1,0.1,0.2,0.1,0.3,0.2c0.1,0.1,0.1,0.2,0.2,0.2c0,0.1,0.1,0.2,0.1,0.3c0,0.3-0.1,0.5-0.3,0.6c-0.2,0.1-0.5,0.2-0.8,0.2
			c-0.1,0-0.2,0-0.3,0c-0.1,0-0.2,0-0.3-0.1c-0.1,0-0.1,0-0.2-0.1c-0.1,0-0.1,0-0.1-0.1l0.2-0.5c0.1,0,0.2,0.1,0.3,0.1
			C73.8,75,73.9,75.1,74.1,75.1z"/>
		<path style="fill:#72BF44;" d="M78,75.6c-0.5,0-0.8-0.1-1-0.4c-0.2-0.3-0.4-0.6-0.4-1.1c0-0.2,0-0.4,0.1-0.6
			c0.1-0.2,0.2-0.3,0.3-0.5c0.1-0.1,0.3-0.2,0.5-0.3c0.2-0.1,0.4-0.1,0.6-0.1c0.1,0,0.2,0,0.3,0c0.1,0,0.2,0,0.3,0.1
			c0.1,0,0.1,0,0.2,0.1c0,0,0.1,0,0.1,0.1l-0.2,0.5c-0.1,0-0.2-0.1-0.3-0.1c-0.1,0-0.2,0-0.4,0c-0.1,0-0.2,0-0.3,0
			c-0.1,0-0.2,0.1-0.2,0.2c-0.1,0.1-0.1,0.2-0.2,0.3c0,0.1-0.1,0.3-0.1,0.4c0,0.1,0,0.2,0,0.4c0,0.1,0.1,0.2,0.1,0.3
			c0.1,0.1,0.1,0.1,0.2,0.2c0.1,0,0.2,0.1,0.4,0.1c0.1,0,0.2,0,0.2,0c0.1,0,0.1,0,0.2,0c0.1,0,0.1,0,0.1-0.1c0,0,0.1,0,0.1-0.1
			l0.2,0.5c-0.1,0.1-0.2,0.1-0.4,0.1C78.4,75.6,78.2,75.6,78,75.6z"/>
		<path style="fill:#72BF44;" d="M80.2,72.7c0.4,0,0.7,0.1,1,0.2c0.2,0.1,0.3,0.4,0.3,0.7c0,0.2,0,0.4-0.1,0.5
			c-0.1,0.1-0.2,0.2-0.4,0.3c0.1,0.1,0.1,0.2,0.2,0.2c0.1,0.1,0.1,0.2,0.2,0.3c0.1,0.1,0.1,0.2,0.2,0.3c0.1,0.1,0.1,0.2,0.2,0.3H81
			c-0.1-0.1-0.1-0.2-0.2-0.3c-0.1-0.1-0.1-0.2-0.2-0.3c-0.1-0.1-0.1-0.2-0.2-0.3c-0.1-0.1-0.1-0.2-0.2-0.2H80v1h-0.6v-2.8
			c0.1,0,0.3,0,0.4-0.1C80,72.7,80.1,72.7,80.2,72.7z M80.2,73.2c0,0-0.1,0-0.1,0c0,0-0.1,0-0.1,0V74h0.2c0.2,0,0.4,0,0.5-0.1
			c0.1-0.1,0.2-0.2,0.2-0.3c0-0.1-0.1-0.2-0.2-0.3C80.6,73.3,80.4,73.2,80.2,73.2z"/>
		<path style="fill:#72BF44;" d="M82.1,75.5v-2.8H84v0.5h-1.3v0.5h1.1v0.5h-1.1V75h1.4v0.5H82.1z"/>
		<path style="fill:#72BF44;" d="M87.1,74.1c0,0.2,0,0.5-0.1,0.6c-0.1,0.2-0.2,0.3-0.3,0.4c-0.1,0.1-0.3,0.2-0.5,0.3
			c-0.2,0.1-0.4,0.1-0.7,0.1c-0.1,0-0.2,0-0.4,0c-0.2,0-0.3,0-0.4-0.1v-2.7c0.1,0,0.3,0,0.5-0.1c0.2,0,0.3,0,0.4,0
			c0.2,0,0.5,0,0.7,0.1c0.2,0.1,0.4,0.1,0.5,0.3c0.1,0.1,0.2,0.3,0.3,0.4C87.1,73.7,87.1,73.9,87.1,74.1z M85.3,75c0,0,0.1,0,0.1,0
			c0,0,0.1,0,0.1,0c0.3,0,0.5-0.1,0.7-0.2c0.2-0.2,0.2-0.4,0.2-0.7c0-0.3-0.1-0.5-0.2-0.7s-0.4-0.2-0.7-0.2c0,0-0.1,0-0.1,0
			c0,0-0.1,0-0.1,0V75z"/>
		<path style="fill:#72BF44;" d="M87.7,72.7h0.6v2.8h-0.6V72.7z"/>
		<path style="fill:#72BF44;" d="M91.1,72.7v0.5h-0.8v2.3h-0.6v-2.3h-0.8v-0.5H91.1z"/>
		<path style="fill:#72BF44;" d="M93.6,75.6c-0.2,0-0.4,0-0.5-0.1c-0.1-0.1-0.3-0.1-0.4-0.2c-0.1-0.1-0.2-0.2-0.2-0.4
			c0-0.1-0.1-0.3-0.1-0.5v-1.7h0.6v1.7c0,0.1,0,0.2,0,0.3c0,0.1,0.1,0.1,0.1,0.2c0,0,0.1,0.1,0.2,0.1c0.1,0,0.1,0,0.2,0
			c0.2,0,0.3,0,0.4-0.1c0.1-0.1,0.1-0.3,0.1-0.5v-1.7h0.6v1.7c0,0.2,0,0.3-0.1,0.5c0,0.1-0.1,0.3-0.2,0.4c-0.1,0.1-0.2,0.2-0.4,0.2
			C94,75.6,93.8,75.6,93.6,75.6z"/>
		<path style="fill:#72BF44;" d="M97.3,75.5c-0.2-0.3-0.4-0.6-0.6-0.9c-0.2-0.3-0.4-0.6-0.7-0.9v1.8h-0.6v-2.8H96
			c0.1,0.1,0.2,0.2,0.3,0.3c0.1,0.1,0.2,0.3,0.3,0.4c0.1,0.1,0.2,0.3,0.3,0.5s0.2,0.3,0.3,0.5v-1.7h0.6v2.8H97.3z"/>
		<path style="fill:#72BF44;" d="M98.6,72.7h0.6v2.8h-0.6V72.7z"/>
		<path style="fill:#72BF44;" d="M102.5,74.1c0,0.2,0,0.5-0.1,0.6c-0.1,0.2-0.2,0.3-0.3,0.5c-0.1,0.1-0.3,0.2-0.4,0.3
			c-0.2,0.1-0.4,0.1-0.6,0.1c-0.2,0-0.4,0-0.5-0.1c-0.2-0.1-0.3-0.2-0.4-0.3c-0.1-0.1-0.2-0.3-0.3-0.5c-0.1-0.2-0.1-0.4-0.1-0.6
			c0-0.2,0-0.5,0.1-0.6c0.1-0.2,0.2-0.3,0.3-0.5c0.1-0.1,0.3-0.2,0.4-0.3c0.2-0.1,0.3-0.1,0.5-0.1c0.2,0,0.4,0,0.5,0.1
			c0.2,0.1,0.3,0.2,0.4,0.3c0.1,0.1,0.2,0.3,0.3,0.5C102.5,73.7,102.5,73.9,102.5,74.1z M100.4,74.1c0,0.1,0,0.3,0.1,0.4
			c0,0.1,0.1,0.2,0.1,0.3c0.1,0.1,0.1,0.1,0.2,0.2c0.1,0,0.2,0.1,0.3,0.1c0.1,0,0.2,0,0.3-0.1c0.1,0,0.2-0.1,0.2-0.2
			c0.1-0.1,0.1-0.2,0.1-0.3c0-0.1,0.1-0.2,0.1-0.4c0-0.1,0-0.3-0.1-0.4c0-0.1-0.1-0.2-0.1-0.3c-0.1-0.1-0.1-0.1-0.2-0.2
			c-0.1,0-0.2-0.1-0.3-0.1c-0.1,0-0.2,0-0.3,0.1c-0.1,0-0.2,0.1-0.2,0.2c-0.1,0.1-0.1,0.2-0.1,0.3C100.4,73.9,100.4,74,100.4,74.1z"
			/>
		<path style="fill:#72BF44;" d="M105,75.5c-0.2-0.3-0.4-0.6-0.6-0.9c-0.2-0.3-0.4-0.6-0.7-0.9v1.8h-0.6v-2.8h0.5
			c0.1,0.1,0.2,0.2,0.3,0.3c0.1,0.1,0.2,0.3,0.3,0.4c0.1,0.1,0.2,0.3,0.3,0.5s0.2,0.3,0.3,0.5v-1.7h0.6v2.8H105z"/>
		<path style="fill:#72BF44;" d="M107,75.1c0.1,0,0.2,0,0.2,0c0.1,0,0.1,0,0.1-0.1c0,0,0.1-0.1,0.1-0.1c0,0,0-0.1,0-0.1
			c0-0.1,0-0.2-0.1-0.2c-0.1-0.1-0.2-0.1-0.4-0.2c-0.1,0-0.2-0.1-0.3-0.1c-0.1,0-0.2-0.1-0.2-0.2c-0.1-0.1-0.1-0.1-0.2-0.2
			c0-0.1-0.1-0.2-0.1-0.3c0-0.1,0-0.2,0.1-0.3c0-0.1,0.1-0.2,0.2-0.3c0.1-0.1,0.2-0.1,0.3-0.2c0.1,0,0.3-0.1,0.4-0.1
			c0.2,0,0.4,0,0.5,0.1c0.1,0,0.3,0.1,0.3,0.1l-0.2,0.5c-0.1,0-0.2-0.1-0.3-0.1c-0.1,0-0.2,0-0.3,0c-0.2,0-0.3,0-0.3,0.1
			c-0.1,0-0.1,0.1-0.1,0.2c0,0.1,0,0.1,0,0.1c0,0,0.1,0.1,0.1,0.1c0,0,0.1,0.1,0.2,0.1c0.1,0,0.1,0,0.2,0.1c0.1,0.1,0.3,0.1,0.4,0.2
			c0.1,0.1,0.2,0.1,0.3,0.2c0.1,0.1,0.1,0.2,0.2,0.2c0,0.1,0.1,0.2,0.1,0.3c0,0.3-0.1,0.5-0.3,0.6c-0.2,0.1-0.5,0.2-0.8,0.2
			c-0.1,0-0.2,0-0.3,0c-0.1,0-0.2,0-0.3-0.1c-0.1,0-0.1,0-0.2-0.1c-0.1,0-0.1,0-0.1-0.1l0.2-0.5c0.1,0,0.2,0.1,0.3,0.1
			C106.7,75,106.8,75.1,107,75.1z"/>
	</g>
	<path style="fill-rule:evenodd;clip-rule:evenodd;fill:#6D6E71;" d="M26.4,44.6c0,0.3-0.8,0.3-1.5,0.3c-0.1,0-0.1,0-0.2,0
		c-0.4-0.2-0.2-0.6-0.2-0.9c0-1.1-0.1-2.3-0.3-3.4c0.2-0.7,0-1.2,0.1-1.9c-0.1-0.4-0.2-0.9,0.3-1.1c0.3-0.1,0.9,0,1.4-0.3
		c0.2,0,0.3,0,0.4,0c0.3,0.4,0.2,1,0.2,1.6c0,0.1,0,0.1,0,0.2c0,0,0,0.2,0,0.2c0,0,0,0.1,0,0.1c0,0.1,0,0,0,0.1
		c0,0.2,0.1,0.4,0.1,0.5c0,0.1-0.1,0.2-0.1,0.3c0,0.2,0,0.5,0,0.7c0,0.5,0,1-0.1,1.5C26.6,43.2,26.4,44,26.4,44.6z"/>
	<g>
		<path style="fill-rule:evenodd;clip-rule:evenodd;fill:#6D6E71;" d="M6.4,55.6c0.8,0.2,1.6,0.2,2.5,0.3c0.5-0.1,0.9-0.2,1.4-0.1
			c0.2-0.1,0.2,0,0.5-0.1c0.3,0.2,0.8,0.1,0.8,0.7c0,0.1-0.1,0.2-0.1,0.3c0,0.1,0.1,0.2,0.1,0.4c0,0.4-0.2,0.7-0.2,0.9
			c-1.2,0.3-2.3,0.2-3.5,0c-0.2,0.2-0.3,0.1-0.5,0.1c-0.6-0.2-1.2,0.1-1.7-0.3c-0.2-0.6,0.2-1,0-1.6C5.7,55.8,6.1,55.7,6.4,55.6z"/>
	</g>
	<path style="fill-rule:evenodd;clip-rule:evenodd;fill:#6D6E71;" d="M26.1,73.4c0,0.1-0.1,0.3-0.1,0.3c0,0.4-0.1,0.9-0.1,1.4
		c0,0.5,0,1,0.1,1.5c-0.1,0.8,0,1.5-0.5,2.1C25,79,24.2,79,23.5,78.8c-0.2-0.3,0-1,0-1.5c0-1,0.2-2.2,0.2-3.1
		c0.1-0.5,0.1-0.5,0.2-0.7c0.1-0.1,0.1-0.3,0.4-0.4c0.5-0.1,1.1-0.4,1.6-0.2C25.8,73.2,26.1,73.3,26.1,73.4z"/>
	<path style="fill-rule:evenodd;clip-rule:evenodd;fill:#6D6E71;" d="M39.8,57.4c0-0.2,0-0.1,0-0.4c0.3-0.2,0.4-0.1,0.7-0.1
		c0.3,0,0.7,0,1,0c0.2-0.1,0.5-0.1,0.8-0.2c1.2,0.2,2.3-0.2,3.5,0.2c0.1,0.3,0,0.5,0.1,0.9c0,0.2,0.2,0.9-0.1,1.1
		c-1.5,0.3-3.3,0.1-4.8,0.5c-0.9-0.2-1.3-1-1.2-1.7C39.8,57.5,39.8,57.4,39.8,57.4z"/>
	<g>
		<g>
			<path style="fill-rule:evenodd;clip-rule:evenodd;fill:#72BF44;" d="M40.2,62.4c0.2-0.1,0.4,0,0.5-0.2c0.8,0.4,1.6,0.6,2.5,0.9
				c0.2,0.8,0.2,1.8-0.7,1.9c-0.4-0.3-0.9-0.3-1.4-0.6c-0.3-0.1-0.6-0.2-0.8-0.3C39.7,63.8,39.6,63.1,40.2,62.4z"/>
		</g>
		<path style="fill-rule:evenodd;clip-rule:evenodd;fill:#72BF44;" d="M32.1,42c-0.4,1.1-0.5,2.2-0.7,3.3c-0.5,0.4-1.1-0.2-1.6-0.1
			c-0.1-0.1-0.3-0.1-0.4-0.2c0-0.1,0.1-0.2,0-0.3c0.4-0.4,0.4-1.4,0.5-2.1c0-0.2,0-0.5,0.1-0.6c0.2-0.2,0.5-0.2,0.7-0.3
			C31.2,42,31.7,41.6,32.1,42z"/>
		<path style="fill-rule:evenodd;clip-rule:evenodd;fill:#72BF44;" d="M23,40.8c0,0.2,0.1,0.2,0.1,0.4c0.4,0.7,0.4,1.5,0.6,2.3
			c0,0.1,0.1,0.1,0.1,0.2c0,0.3,0.1,0.5,0.1,0.8c-0.5,0.5-1.1,0.7-1.8,0.5c-0.3-1.2-0.7-2.3-1.1-3.4c0-0.4-0.1-0.6,0.1-0.9
			c0.2-0.5,0.8-0.5,1.3-0.6c0.5,0.1,0.5,0.1,0.6,0.4C23,40.7,23,40.7,23,40.8z"/>
		<path style="fill-rule:evenodd;clip-rule:evenodd;fill:#72BF44;" d="M21.8,45c-0.3,0.6-0.8,0.5-1.1,1c-0.2,0-0.3,0-0.5,0.1
			c-0.1,0.1-0.2,0.2-0.3,0.2c-0.3-0.1-0.3-0.4-0.3-0.6c-0.1-0.8-0.9-1.3-0.6-2.2c0.3-0.1,0.8-0.2,1.1-0.3c0.2-0.1,0.6-0.3,0.8,0.1
			C21,43.8,21.4,44.4,21.8,45z"/>
		<path style="fill-rule:evenodd;clip-rule:evenodd;fill:#72BF44;" d="M17.2,46.9c-0.1-0.2,0-0.2,0-0.4c-1-1.2-2-2.4-2.5-3.8
			c-0.1,0-0.1-0.2-0.2-0.2c-0.1-0.1-0.1-0.1-0.1-0.2c0.5-0.6,1.3-1.6,1.5-1.5c0.8,0.1,1,1,1.3,1.6c0.2,0.3,0.5,0.6,0.5,0.9
			c0.4,0.3,0.5,0.8,0.8,1.3c0.2,0.4,0.7,0.8,0.6,1.2c0,0.5-0.6,1.1-0.9,1.3C17.9,47.2,17.6,47,17.2,46.9z"/>
		<path style="fill-rule:evenodd;clip-rule:evenodd;fill:#72BF44;" d="M43.9,55.2c0,0.2,0,0.2-0.1,0.2c-0.2,0.4-1.1,0.3-1.5,0.3
			c-0.7,0.1-1.3,0.3-1.7,0.6c-0.2-0.1-0.2,0-0.4,0c-0.7-0.3-0.5-0.9-0.7-1.3c0.1-0.1,0-0.3,0.2-0.3c0.9-0.4,1.8-0.6,2.7-0.8
			c0.2,0,0.2-0.1,0.4-0.3C43.6,53.9,43.3,54.8,43.9,55.2z"/>
		<path style="fill-rule:evenodd;clip-rule:evenodd;fill:#72BF44;" d="M40.6,46.9c-1,0.9-2.6,1.6-3.5,2.7c-0.1,0.1,0,0.2,0,0.3
			c0.3,0.2,0.6,0.7,1.2,0.7c1.3-0.8,2.5-1.7,3.5-3C41.7,47.1,41.1,46.8,40.6,46.9z"/>
		<path style="fill-rule:evenodd;clip-rule:evenodd;fill:#72BF44;" d="M41.8,47.6c-1,1.3-2.2,2.2-3.5,3c-0.6,0-0.8-0.5-1.2-0.7
			c0-0.1-0.1-0.2,0-0.3c0.9-1.1,2.5-1.8,3.5-2.7C41.1,46.8,41.7,47.1,41.8,47.6z"/>
		<path style="fill-rule:evenodd;clip-rule:evenodd;fill:#72BF44;" d="M17,46.9c0.1,0.5-0.6,1.2-0.9,1.8c-0.2,0.1-0.4-0.1-0.5,0.1
			c-0.3-0.1-0.2-0.4-0.4-0.7c-0.1-0.2-0.4-0.4-0.6-0.6c-0.2-0.2-0.4-0.6-0.6-0.8c-0.3-0.3-0.8-0.9-0.6-1.3c0.2-0.5,0.7-0.5,1-0.9
			c0.1,0,0.1-0.1,0.3,0C15.5,45.3,16,46.2,17,46.9z"/>
		<path style="fill-rule:evenodd;clip-rule:evenodd;fill:#72BF44;" d="M40.9,62c-0.2,0-0.4,0-0.6-0.2c-0.1-0.5-0.3-1-0.2-1.6
			c0-0.1,0-0.2,0-0.3c0.2-0.2,0.3-0.1,0.5-0.1c0.1,0,0.3,0,0.4,0c1,0,2.1,0.3,3,0.1c0.3,0.1,0.2,0.1,0.4,0.4c0,0.2,0.1,1.2-0.2,1.6
			c-0.3,0.4-0.8,0-1.3,0.2C42.4,61.7,41.6,61.9,40.9,62L40.9,62z"/>
		<path style="fill-rule:evenodd;clip-rule:evenodd;fill:#72BF44;" d="M12.9,52.7c-0.1,0.1-0.1,0-0.1,0.2c-0.3,0.4-0.7-0.2-1.1-0.4
			c-0.9-0.6-2-1.1-2.9-1.4c-0.1,0-0.2-0.2-0.4-0.2c-0.1-0.2-0.1-0.3,0-0.6c0-0.1,0.2-0.3,0.2-0.4c0.2-0.5,0.4-1,0.9-1.2
			c0.2,0.1,0.3,0,0.4,0.1c0,0,0,0.1,0,0.1c0.8,0.4,1.4,1.1,2.1,1.6c0.2,0.1,0.5,0.2,0.6,0.4c0.5,0.1,0.7,0.3,0.9,0.6
			C13.4,51.8,13.2,52.4,12.9,52.7z"/>
		<path style="fill-rule:evenodd;clip-rule:evenodd;fill:#72BF44;" d="M42.9,66c-0.3,0.4-0.4,1.2-0.9,1.5c-0.4-0.1-1-0.6-1.4-0.9
			c-0.5-0.3-1.1-0.4-1.5-0.7c-0.1-0.2,0-0.5,0.1-0.9c0.1-0.3,0.1-0.6,0.3-0.6c0.1-0.1,0.1-0.1,0.2-0.2c0,0,0,0,0.1,0
			c0.5,0.3,1.7,1,2.6,1.4C42.7,65.7,42.9,65.7,42.9,66z"/>
		<path style="fill-rule:evenodd;clip-rule:evenodd;fill:#72BF44;" d="M39.6,69.1c-0.3-0.2-0.5-0.4-0.6-0.6
			c-0.6-0.3-1.3-0.4-1.1-1.2c0.1-0.4,0.2-0.9,0.6-1.1c0.1-0.1,0-0.1,0.1-0.3c0-0.1,0.2-0.1,0.2-0.1c0.3,0.3,0.9,0.9,1.3,1.2
			c0.5,0.4,0.9,0.5,0.5,1.3C40.4,68.8,40,68.8,39.6,69.1z"/>
		<path style="fill-rule:evenodd;clip-rule:evenodd;fill:#72BF44;" d="M11.7,55.1c-0.3-0.1-0.7-0.3-1.2-0.4c-0.5-0.2-1-0.3-1.4-0.4
			c-0.4-0.2-0.5-0.8-0.3-1.1c0,0,0.1-0.1,0.1-0.1c0.1-0.3,0-0.7,0.3-0.8c0.7,0.2,1.2,0.3,1.7,0.6c0.3,0.2,0.6,0.3,1,0.3
			c0.2,0.1,0.1,0.2,0.2,0.3C12,54,12,54.7,11.7,55.1z"/>
		<path style="fill-rule:evenodd;clip-rule:evenodd;fill:#72BF44;" d="M39.8,70.4c-0.1,0.6-0.8,0.7-1,1.2c-0.5,0.2-1.3-0.9-1.9-1.3
			c-0.2-0.1-0.2-0.1-0.4-0.2c-0.1-0.2-0.1-0.4-0.3-0.5c0.1-0.6,0.4-1,0.8-1.5c0.3,0.1,0.6-0.2,0.8,0C38.2,68.9,39.1,69.6,39.8,70.4z
			"/>
		<path style="fill-rule:evenodd;clip-rule:evenodd;fill:#72BF44;" d="M36.1,69.8c0,0,0.1,0.1,0.1,0.1c0.4,0.5,0.7,1,1.2,1.4
			c-0.1,0.1,0.1,0.1,0.1,0.2c-0.3,0.6-0.9,0.6-1.2,1.2c-0.2,0-0.5,0-0.6-0.2c-0.4-0.5-1-0.9-1.5-1.4c0-1,0.9-1.5,1.6-1.9
			c0.1,0.1,0.1,0.1,0.2,0.2C36.1,69.6,36,69.8,36.1,69.8z"/>
		<path style="fill-rule:evenodd;clip-rule:evenodd;fill:#72BF44;" d="M40.7,49.6c0.4,0.1,0.2,0.7,0.6,0.9c0,0.4-1,1-1.5,1.4
			c-0.2,0.1-0.2,0.2-0.3,0.3c-0.2,0.1-0.3,0.1-0.5,0.2c-0.4-0.1-0.6-0.4-0.8-0.8c0.1-0.2,0-0.5,0.3-0.6C39.2,50.8,40,50.1,40.7,49.6
			z"/>
		<path style="fill-rule:evenodd;clip-rule:evenodd;fill:#72BF44;" d="M39.4,52.7c0,0,0.1-0.1,0.1-0.1c0.5-0.2,0.9-0.4,1.4-0.7
			c0.1,0.1,0.1,0,0.2,0c0.3,0.3,0.1,0.8,0.4,1.1c-0.1,0.2-0.2,0.4-0.3,0.5c-0.4,0.2-0.9,0.7-1.4,1c-0.7-0.1-0.7-1-0.8-1.6
			c0.1-0.1,0.1-0.1,0.3-0.1C39.3,52.7,39.3,52.8,39.4,52.7z"/>
		<path style="fill-rule:evenodd;clip-rule:evenodd;fill:#72BF44;" d="M11.8,60.7c-0.1,0-0.1,0-0.2,0c-0.1,0-0.1,0-0.2,0
			c-0.3,0-0.6,0-1,0.1c-0.5,0.1-1.7,0.4-2.1-0.1c-0.1-0.2,0-0.3-0.1-0.5c0-0.3-0.2-0.6,0.1-0.9C8.7,59.1,9.1,59,9.5,59
			c0.6,0,1.3-0.3,1.8,0c0.2,0.1,0.1,0.4,0.3,0.6c0.2,0.3,0.4,0.4,0.5,0.6C12,60.5,12,60.6,11.8,60.7z"/>
		<path style="fill-rule:evenodd;clip-rule:evenodd;fill:#72BF44;" d="M33.8,71.5c0.2,0.7,0.6,1.3,0.8,2c0.3,0.3,0.5,0.6,0.6,1
			c0.2,0.1,0.2,0.2,0.3,0.3c0,0.3,0.2,0.7-0.2,0.9c-0.1,0-0.2,0-0.3,0.1c-0.1,0-0.1,0.2-0.2,0.2c-0.3,0.2-0.7,0.1-0.8,0.2
			c-0.8-0.8-1.1-1.7-1.5-2.6c-0.2-0.1-0.2-0.2-0.3-0.3c-0.1-0.5-0.5-0.9-0.5-1.5c0.4-0.4,0.9-0.3,1.2-0.7
			C33.3,71,33.4,71.5,33.8,71.5z"/>
		<g>
			<path style="fill-rule:evenodd;clip-rule:evenodd;fill:#72BF44;" d="M29.5,40.8c-0.2,0.7-0.3,1.4-0.5,2.1
				c0.1,0.4,0.1,0.8-0.1,1.2c0.1,0.2,0.1,0.3,0.1,0.4c-0.2,0.3-0.3,0.7-0.7,0.6c-0.1,0-0.2-0.1-0.3-0.1c-0.1,0-0.2,0.1-0.3,0.1
				c-0.3,0-0.6-0.3-0.8-0.3c-0.2-1.1,0.1-2,0.3-3c-0.1-0.2,0-0.2-0.1-0.4c0.2-0.5,0.1-1.1,0.5-1.5c0.5-0.1,0.9,0.2,1.4,0.1
				C29.3,40.1,29.4,40.4,29.5,40.8z"/>
		</g>
		<path style="fill-rule:evenodd;clip-rule:evenodd;fill:#72BF44;" d="M6.3,62.6c0.1-0.2,0.3-0.2,0.4-0.5c0.2-0.1,0.4-0.1,0.6-0.2
			c0.6,0,1-0.2,1.6-0.2c0.6-0.1,1.1-0.4,1.8-0.4c0.1,0,0.2-0.1,0.3-0.1c0.2,0.2,0.4,0.2,0.7,0.2c0.3,0.3,0.4,0.6,0.6,0.9
			c0,0.4-0.1,1-0.7,0.9c-0.8,0.3-1.6,0.4-2.3,0.7c-0.1-0.1-0.2,0-0.4-0.1c-0.2,0.3-0.5,0.3-0.9,0.3c-0.3,0.1-0.8,0.5-1.1,0.4
			c-0.2-0.1-0.5-0.4-0.6-0.6C6.2,63.7,6.2,63.1,6.3,62.6z"/>
		<path style="fill-rule:evenodd;clip-rule:evenodd;fill:#72BF44;" d="M11.9,63.6C11.9,63.6,11.9,63.7,11.9,63.6
			c0.3,0.3,0.6,0.6,0.8,0.9c0.1,0.3-0.1,0.7,0,1.1c-0.2,0.2-0.5,0-0.6,0.3c-1.2,0.1-2.1,0.9-3.3,1c-0.2-0.3-0.5-1.4-0.3-1.8
			c0.1-0.1,0.5-0.2,0.6-0.3c0.4-0.2,1.2-0.4,1.6-0.6c0.1-0.1,0.2-0.2,0.3-0.2c0,0,0.1,0.1,0.2,0c0.1,0,0.2-0.2,0.3-0.2
			C11.6,63.7,11.7,63.7,11.9,63.6z"/>
		<path style="fill-rule:evenodd;clip-rule:evenodd;fill:#72BF44;" d="M28.8,72.9c0,0.3,0.1,0.6,0.2,0.9c0,0.1-0.1,0.1-0.1,0.2
			c0.1,0.3,0,0.6,0.1,1.1c0,0.2,0.1,0.6,0.1,0.9c0,0.2,0.1,0.4-0.1,0.7c-0.4,0.4-1,0.2-1.6,0.3c-0.7-0.8-0.6-1.8-0.8-2.8
			c0.3-0.8,1-1.4,1.8-1.3c0.1-0.1,0.1-0.1,0.2-0.2C28.7,72.8,28.7,72.8,28.8,72.9z"/>
		<path style="fill-rule:evenodd;clip-rule:evenodd;fill:#72BF44;" d="M13.9,67.7c-0.9,0-1.5,0.5-2.2,1c-0.1,0-0.4,0-0.5-0.1
			c0,0,0-0.2-0.1-0.4c-0.1-0.1-0.3-0.2-0.3-0.3c-0.1-0.2,0-0.5,0-0.7c0.1-0.1,0.3-0.2,0.4-0.3c0.5-0.2,1-0.6,1.5-0.8
			C13.4,66.5,14.5,67,13.9,67.7z"/>
		<path style="fill-rule:evenodd;clip-rule:evenodd;fill:#72BF44;" d="M15.6,68.8c0.1,0.1,0,0,0.2,0.1c-0.1,0.3-0.2,0.3-0.4,0.6
			c-0.7,0.3-1.2,1.2-1.9,1.6c-0.1,0.1-0.2,0.4-0.3,0.5c-0.4,0.2-0.7,0.8-1.2,0.9c-0.6,0-0.7-0.6-1.2-0.9c-0.1-0.4,0-0.6,0.3-1
			c0.1-0.1,0.2-0.3,0.3-0.3c0.2-0.2,0.5-0.2,0.7-0.4c0.5-0.5,1.2-1,1.6-1.6c0.3,0,0.5-0.3,0.8-0.2C14.9,68.1,15.3,68.6,15.6,68.8z"
			/>
		<path style="fill-rule:evenodd;clip-rule:evenodd;fill:#72BF44;" d="M22.4,76.5c-0.3,0-0.6-0.1-1-0.1c-0.4,0-0.8,0.1-0.8-0.3
			c0.6-1.1,0.4-2.8,1.4-3.6c0.5,0.1,1.2,0.1,1.1,0.7c0,0.1-0.1,0.4-0.2,0.7c-0.1,0.3-0.1,0.6-0.1,0.8c-0.1,0.3-0.2,0.5-0.2,0.7
			C22.7,75.9,22.8,76.1,22.4,76.5z"/>
		<path style="fill-rule:evenodd;clip-rule:evenodd;fill:#72BF44;" d="M18.8,74.6c-0.2-0.7,0.4-1.5,0.5-2.3c0.4-0.3,1.3-0.7,1.7,0
			c-0.1,0.5-0.4,1.2-0.6,1.9c-0.1,0.3-0.1,0.7-0.3,0.8C19.8,75.1,19.2,74.7,18.8,74.6z"/>
		<g>
			<path style="fill-rule:evenodd;clip-rule:evenodd;fill:#72BF44;" d="M12.8,47.6c0.2,0,0.4,0.1,0.5,0c0.5,0.6,1.1,1.1,1.7,1.7
				c-0.2,0.8-0.6,1.9-1.5,1.7c-0.2-0.4-0.7-0.6-0.9-1c-0.2-0.2-0.4-0.4-0.6-0.6C11.7,48.9,12,48.1,12.8,47.6z"/>
		</g>
		<g>
			<path style="fill-rule:evenodd;clip-rule:evenodd;fill:#72BF44;" d="M30.5,75.6c-0.2-0.1-0.3-0.2-0.5-0.2
				c-0.1-0.8-0.4-1.5-0.7-2.3c0.6-0.6,1.5-1.4,2.1-0.8c-0.1,0.5,0.3,0.9,0.3,1.3c0,0.3,0.2,0.6,0.2,0.8
				C32.1,74.9,31.5,75.5,30.5,75.6z"/>
		</g>
		<path style="fill-rule:evenodd;clip-rule:evenodd;fill:#72BF44;" d="M33.8,46.6c0.4-0.5,0.8-1.2,1.2-1.8c0.1-0.4,0.3-0.8,0.6-1.1
			c0-0.2,0.1-0.3,0.1-0.4c0.2-0.2,0.5-0.5,0.8-0.3c0.1,0,0.1,0.2,0.1,0.2c0.1,0,0.2,0,0.3,0c0.2,0.1,0.3,0.4,0.4,0.5
			c-0.3,1-0.9,1.8-1.5,2.6c0,0.2-0.1,0.2-0.1,0.4c-0.4,0.4-0.5,0.9-1,1.2c-0.4-0.1-0.5-0.5-0.9-0.6C33.6,47.3,34,46.9,33.8,46.6z"/>
		<g>
			<path style="fill-rule:evenodd;clip-rule:evenodd;fill:#72BF44;" d="M38.3,46.9c0,0.2,0.2,0.2,0,0.5c-0.6,0.6-0.9,1.2-1.5,1.8
				c-0.7-0.1-1.6-0.4-1.3-1.2c0.4-0.2,0.5-0.7,0.9-1c0.2-0.2,0.3-0.5,0.5-0.6C37.3,46,37.9,46.2,38.3,46.9z"/>
		</g>
		<g>
			<path style="fill-rule:evenodd;clip-rule:evenodd;fill:#72BF44;" d="M14.4,72.1c0-0.2,0.1-0.3,0-0.5c0.6-0.6,1-1.2,1.5-1.9
				c0.7,0.1,1.5,0.3,1.3,1c-0.4,0.2-0.5,0.7-0.9,1c-0.2,0.2-0.4,0.5-0.5,0.6C15.4,72.9,14.8,72.8,14.4,72.1z"/>
		</g>
		<path style="fill-rule:evenodd;clip-rule:evenodd;fill:#72BF44;" d="M19.2,71.3c-0.2,0.5-0.4,1-0.8,1.5c0,0,0,0.1-0.1,0.2
			c-0.1,0.3-0.2,0.5-0.3,0.9c-0.1,0.3-0.5,0.8-0.7,1.1c0,0.1,0,0.2-0.1,0.3c-0.4,0.5-0.9-0.4-1.4-0.5c-0.5-1.1,0.8-2.1,1.1-3.4
			c0.3-0.4,0.8-0.3,1.3-0.5C18.7,71.1,18.8,71.3,19.2,71.3z"/>
		<path style="fill-rule:evenodd;clip-rule:evenodd;fill:#72BF44;" d="M31.5,45.6c1-1.6,1.4-3.1,2-4.8c0.2,0,0.1-0.3,0.5-0.2
			c0.4,0,0.8,0.3,1.2,0.4c0.3,0.4,0.1,0.7-0.1,1.2c-0.1,0.3-0.1,0.6-0.2,0.8c-0.2,0.5-0.5,0.9-0.6,1.4c-0.2,0.7-0.2,1.5-0.7,2
			c-0.6,0.2-0.6,0.4-1.2,0c-0.1-0.3-1-0.2-0.8-0.5C31.6,45.8,31.5,45.7,31.5,45.6z"/>
	</g>
	<g>
		<path style="fill:#6D6E71;" d="M57.4,52.5c-0.9,0-1.5-0.2-2-0.7s-0.7-1.2-0.7-2.1c0-0.4,0.1-0.8,0.2-1.2c0.1-0.3,0.3-0.6,0.6-0.9
			c0.2-0.2,0.5-0.4,0.9-0.5c0.3-0.1,0.7-0.2,1.1-0.2c0.2,0,0.4,0,0.6,0.1c0.2,0,0.3,0.1,0.5,0.1c0.1,0,0.3,0.1,0.3,0.1
			c0.1,0,0.2,0.1,0.2,0.1l-0.3,1c-0.2-0.1-0.4-0.2-0.6-0.2C58,48,57.8,48,57.5,48c-0.2,0-0.4,0-0.5,0.1c-0.2,0.1-0.3,0.2-0.5,0.3
			c-0.1,0.1-0.2,0.3-0.3,0.5C56,49.1,56,49.4,56,49.7c0,0.2,0,0.5,0.1,0.7c0.1,0.2,0.1,0.4,0.3,0.6c0.1,0.2,0.3,0.3,0.5,0.4
			c0.2,0.1,0.4,0.1,0.7,0.1c0.2,0,0.3,0,0.5,0c0.1,0,0.3,0,0.4-0.1c0.1,0,0.2-0.1,0.3-0.1c0.1,0,0.2-0.1,0.2-0.1l0.3,1
			c-0.2,0.1-0.4,0.2-0.7,0.3C58.2,52.5,57.8,52.5,57.4,52.5z"/>
		<path style="fill:#6D6E71;" d="M62.1,49.4c-0.1,0-0.2-0.1-0.4-0.1c-0.1,0-0.3,0-0.5,0c-0.1,0-0.2,0-0.3,0s-0.2,0-0.2,0v3.1h-1.2
			v-3.9c0.2-0.1,0.5-0.1,0.7-0.2c0.3-0.1,0.6-0.1,0.9-0.1c0.1,0,0.1,0,0.2,0c0.1,0,0.2,0,0.3,0c0.1,0,0.2,0,0.3,0
			c0.1,0,0.2,0,0.2,0.1L62.1,49.4z"/>
		<path style="fill:#6D6E71;" d="M62.3,50.4c0-0.4,0.1-0.7,0.2-1c0.1-0.3,0.3-0.5,0.4-0.7c0.2-0.2,0.4-0.3,0.6-0.4
			c0.2-0.1,0.5-0.1,0.7-0.1c0.6,0,1,0.2,1.4,0.5c0.3,0.4,0.5,0.9,0.5,1.6c0,0.1,0,0.1,0,0.2c0,0.1,0,0.2,0,0.2h-2.6
			c0,0.2,0.1,0.4,0.3,0.6c0.2,0.1,0.5,0.2,0.8,0.2c0.2,0,0.4,0,0.6-0.1c0.2,0,0.4-0.1,0.5-0.1l0.2,0.9c-0.1,0-0.1,0.1-0.2,0.1
			c-0.1,0-0.2,0.1-0.3,0.1c-0.1,0-0.3,0-0.4,0.1c-0.1,0-0.3,0-0.4,0c-0.4,0-0.7-0.1-1-0.2c-0.3-0.1-0.5-0.3-0.7-0.4
			c-0.2-0.2-0.3-0.4-0.4-0.7C62.3,51,62.3,50.7,62.3,50.4z M65,50c0-0.1,0-0.2-0.1-0.3c0-0.1-0.1-0.2-0.1-0.2
			c-0.1-0.1-0.1-0.1-0.2-0.2c-0.1,0-0.2-0.1-0.3-0.1c-0.1,0-0.2,0-0.3,0.1c-0.1,0-0.2,0.1-0.2,0.2c-0.1,0.1-0.1,0.2-0.1,0.3
			c0,0.1-0.1,0.2-0.1,0.3H65z"/>
		<path style="fill:#6D6E71;" d="M70.3,52.3c-0.1,0-0.2,0.1-0.4,0.1c-0.1,0-0.3,0.1-0.4,0.1c-0.1,0-0.3,0-0.5,0.1
			c-0.2,0-0.3,0-0.4,0c-0.3,0-0.6,0-0.9-0.1c-0.3-0.1-0.5-0.2-0.7-0.4c-0.2-0.2-0.3-0.4-0.4-0.7c-0.1-0.3-0.1-0.6-0.1-0.9
			c0-0.3,0-0.6,0.1-0.9c0.1-0.3,0.2-0.5,0.4-0.7c0.2-0.2,0.3-0.3,0.6-0.4c0.2-0.1,0.5-0.1,0.8-0.1c0.2,0,0.3,0,0.4,0
			c0.1,0,0.3,0.1,0.4,0.1v-1.8l1.2-0.2V52.3z M67.7,50.3c0,0.4,0.1,0.6,0.2,0.9c0.2,0.2,0.4,0.3,0.7,0.3c0.1,0,0.2,0,0.3,0
			c0.1,0,0.2,0,0.2,0v-2.1c-0.1,0-0.2-0.1-0.3-0.1c-0.1,0-0.2,0-0.4,0C68,49.2,67.7,49.6,67.7,50.3z"/>
		<path style="fill:#6D6E71;" d="M72.4,47.1c0,0.2-0.1,0.4-0.2,0.5c-0.1,0.1-0.3,0.2-0.5,0.2c-0.2,0-0.3-0.1-0.5-0.2
			C71,47.5,71,47.4,71,47.1c0-0.2,0.1-0.4,0.2-0.5c0.1-0.1,0.3-0.2,0.5-0.2c0.2,0,0.3,0.1,0.5,0.2C72.3,46.8,72.4,46.9,72.4,47.1z
			 M72.2,52.4h-1.2v-4.1h1.2V52.4z"/>
		<path style="fill:#6D6E71;" d="M73,47.3l1.2-0.2v1.2h1.4v1h-1.4v1.4c0,0.2,0,0.4,0.1,0.6c0.1,0.1,0.3,0.2,0.5,0.2
			c0.1,0,0.3,0,0.4,0c0.1,0,0.3-0.1,0.4-0.1l0.2,0.9c-0.1,0.1-0.3,0.1-0.5,0.1c-0.2,0-0.4,0.1-0.6,0.1c-0.3,0-0.6,0-0.8-0.1
			c-0.2-0.1-0.4-0.2-0.5-0.4c-0.1-0.2-0.2-0.3-0.3-0.6c0-0.2-0.1-0.5-0.1-0.7V47.3z"/>
		<path style="fill:#6D6E71;" d="M79.9,52.5c-0.4,0-0.7-0.1-1-0.2c-0.3-0.1-0.5-0.3-0.7-0.4c-0.2-0.2-0.3-0.4-0.4-0.7
			c-0.1-0.3-0.1-0.6-0.1-0.9V47h1.2v3.2c0,0.2,0,0.4,0.1,0.6c0,0.2,0.1,0.3,0.2,0.4c0.1,0.1,0.2,0.2,0.3,0.2c0.1,0,0.3,0.1,0.4,0.1
			c0.3,0,0.5-0.1,0.7-0.3c0.2-0.2,0.3-0.5,0.3-0.9V47h1.2v3.3c0,0.3,0,0.6-0.1,0.9c-0.1,0.3-0.2,0.5-0.4,0.7
			c-0.2,0.2-0.4,0.3-0.7,0.4C80.6,52.5,80.3,52.5,79.9,52.5z"/>
		<path style="fill:#6D6E71;" d="M82.9,48.5c0.2-0.1,0.5-0.1,0.8-0.2c0.3,0,0.6-0.1,1-0.1c0.3,0,0.6,0,0.9,0.1
			c0.2,0.1,0.4,0.2,0.5,0.4c0.1,0.2,0.2,0.4,0.3,0.6c0.1,0.2,0.1,0.5,0.1,0.8v2.3h-1.2v-2.2c0-0.4,0-0.6-0.1-0.8
			c-0.1-0.2-0.3-0.2-0.6-0.2c-0.1,0-0.2,0-0.3,0c-0.1,0-0.2,0-0.2,0v3.2h-1.2V48.5z"/>
		<path style="fill:#6D6E71;" d="M88.4,47.1c0,0.2-0.1,0.4-0.2,0.5c-0.1,0.1-0.3,0.2-0.5,0.2c-0.2,0-0.3-0.1-0.5-0.2
			c-0.1-0.1-0.2-0.3-0.2-0.5c0-0.2,0.1-0.4,0.2-0.5c0.1-0.1,0.3-0.2,0.5-0.2c0.2,0,0.3,0.1,0.5,0.2C88.3,46.8,88.4,46.9,88.4,47.1z
			 M88.3,52.4h-1.2v-4.1h1.2V52.4z"/>
		<path style="fill:#6D6E71;" d="M92.9,50.4c0,0.3,0,0.6-0.1,0.9c-0.1,0.3-0.2,0.5-0.4,0.7c-0.2,0.2-0.4,0.3-0.6,0.4
			c-0.2,0.1-0.5,0.2-0.8,0.2c-0.3,0-0.6-0.1-0.8-0.2c-0.2-0.1-0.5-0.2-0.6-0.4c-0.2-0.2-0.3-0.4-0.4-0.7c-0.1-0.3-0.1-0.6-0.1-0.9
			c0-0.3,0.1-0.6,0.2-0.9c0.1-0.3,0.2-0.5,0.4-0.7c0.2-0.2,0.4-0.3,0.6-0.4c0.2-0.1,0.5-0.2,0.8-0.2c0.3,0,0.6,0.1,0.8,0.2
			c0.2,0.1,0.5,0.2,0.6,0.4c0.2,0.2,0.3,0.4,0.4,0.7C92.8,49.8,92.9,50,92.9,50.4z M91.7,50.4c0-0.4-0.1-0.6-0.2-0.8
			c-0.1-0.2-0.3-0.3-0.6-0.3s-0.5,0.1-0.6,0.3C90.1,49.7,90,50,90,50.4c0,0.4,0.1,0.6,0.2,0.9c0.1,0.2,0.3,0.3,0.6,0.3
			s0.5-0.1,0.6-0.3C91.6,51,91.7,50.7,91.7,50.4z"/>
		<path style="fill:#6D6E71;" d="M93.4,48.5c0.2-0.1,0.5-0.1,0.8-0.2c0.3,0,0.6-0.1,1-0.1c0.3,0,0.6,0,0.9,0.1
			c0.2,0.1,0.4,0.2,0.5,0.4c0.1,0.2,0.2,0.4,0.3,0.6c0.1,0.2,0.1,0.5,0.1,0.8v2.3h-1.2v-2.2c0-0.4,0-0.6-0.1-0.8
			c-0.1-0.2-0.3-0.2-0.6-0.2c-0.1,0-0.2,0-0.3,0c-0.1,0-0.2,0-0.2,0v3.2h-1.2V48.5z"/>
	</g>
</g>
</svg>
