<?xml version="1.0" encoding="utf-8"?>
<!-- Generator: Adobe Illustrator 19.1.0, SVG Export Plug-In . SVG Version: 6.00 Build 0)  -->
<svg version="1.1" id="Layer_1" xmlns="http://www.w3.org/2000/svg" xmlns:xlink="http://www.w3.org/1999/xlink" x="0px" y="0px"
	 viewBox="0 0 119 119" style="enable-background:new 0 0 119 119;" xml:space="preserve">
<metadata><?xpacket begin="﻿" id="W5M0MpCehiHzreSzNTczkc9d"?>
<x:xmpmeta xmlns:x="adobe:ns:meta/" x:xmptk="Adobe XMP Core 5.6-c067 79.157747, 2015/03/30-23:40:42        ">
   <rdf:RDF xmlns:rdf="http://www.w3.org/1999/02/22-rdf-syntax-ns#">
      <rdf:Description rdf:about=""/>
   </rdf:RDF>
</x:xmpmeta>
                                                                                                    
                                                                                                    
                                                                                                    
                                                                                                    
                                                                                                    
                                                                                                    
                                                                                                    
                                                                                                    
                                                                                                    
                                                                                                    
                                                                                                    
                                                                                                    
                                                                                                    
                                                                                                    
                                                                                                    
                                                                                                    
                                                                                                    
                                                                                                    
                                                                                                    
                                                                                                    
                           
<?xpacket end="w"?></metadata>
<g>
	<defs>
		<rect id="SVGID_1_" x="4.7" y="41.1" width="110.4" height="37"/>
	</defs>
	<clipPath id="SVGID_2_">
		<use xlink:href="#SVGID_1_"  style="overflow:visible;"/>
	</clipPath>
	<path style="clip-path:url(#SVGID_2_);fill:#0B7DB2;" d="M27.4,57.6v-9.9c0-0.4-0.2-0.8-0.8-1l-2.6-1.1c-0.2-0.1-0.6-0.2-0.6-0.3
		c0-0.1,0.2-0.2,0.5-0.2h13.9c0.4,0,0.5,0.1,0.5,0.2c0,0.1-0.4,0.2-0.6,0.3l-2.6,1.1c-0.6,0.3-0.8,0.6-0.8,1V70c0,0.4,0.2,0.8,0.8,1
		l2.6,1.1c0.2,0.1,0.6,0.2,0.6,0.3c0,0.1-0.2,0.2-0.5,0.2H23.8c-0.4,0-0.5-0.1-0.5-0.2c0-0.1,0.4-0.2,0.6-0.3l2.6-1.1
		c0.6-0.3,0.8-0.6,0.8-1V59.6h-9V70c0,0.4,0.2,0.8,0.8,1l2.6,1.1c0.2,0.1,0.6,0.2,0.6,0.3c0,0.1-0.2,0.2-0.5,0.2H8
		c-0.4,0-0.5-0.1-0.5-0.2c0-0.1,0.4-0.2,0.6-0.3l2.6-1.1c0.6-0.3,0.8-0.6,0.8-1V47.7c0-0.4-0.2-0.8-0.8-1l-2.6-1.1
		c-0.2-0.1-0.6-0.2-0.6-0.3c0-0.1,0.2-0.2,0.5-0.2h13.9c0.4,0,0.5,0.1,0.5,0.2c0,0.1-0.4,0.2-0.6,0.3l-2.6,1.1
		c-0.6,0.3-0.8,0.6-0.8,1v9.9H27.4z"/>
	<path style="clip-path:url(#SVGID_2_);fill:#FFFFFF;" d="M19.6,65.7c0,0.2-0.2,0.3-0.3,0.3c-0.2,0-0.3-0.1-0.3-0.3
		c0-0.2,0.2-0.3,0.3-0.3C19.4,65.5,19.6,65.6,19.6,65.7"/>
	<path style="clip-path:url(#SVGID_2_);fill:#FFFFFF;" d="M20.9,68.9c0,0.2,0,0.3,0,0.3s-0.1,0.3,0,0.3c0,0,0.1,0,0.1-0.1
		c0-0.1,0-0.5,0-0.5s0-0.3-0.1-0.3C20.9,68.6,20.9,68.8,20.9,68.9"/>
	<path style="clip-path:url(#SVGID_2_);fill:#FFFFFF;" d="M21.3,68.5c0,0-0.1,0.2-0.1,0.3c0,0.1,0.1,0.4,0.1,0.6
		c0,0.2-0.1,0.3-0.1,0.3c0,0.1,0.1,0.1,0.2,0.1c0,0,0.1-0.6,0.1-0.6s0-0.4-0.1-0.5C21.4,68.6,21.3,68.5,21.3,68.5"/>
	<path style="clip-path:url(#SVGID_2_);fill:#FFFFFF;" d="M21.7,68.5c0,0.1,0,0.4,0,0.4s0,0.3,0,0.5c0,0.3-0.1,0.5-0.1,0.5
		s0,0.1,0,0.2c0,0,0.1,0,0.2-0.1c0.1-0.1,0.1-0.6,0.1-0.9c0-0.3,0-0.4,0-0.5c0-0.1,0-0.3-0.1-0.3C21.8,68.2,21.6,68.4,21.7,68.5"/>
	<path style="clip-path:url(#SVGID_2_);fill:#FFFFFF;" d="M22.2,68.6c0,0.2,0,0.6,0,0.6s-0.1,0.6-0.1,0.7c0,0.1-0.1,0.4-0.1,0.4
		c0,0.1,0.1,0.1,0.2-0.1c0.1-0.2,0.2-1.1,0.2-1.1s0-0.5,0-0.6c0-0.1-0.1-0.3-0.2-0.2C22.1,68.2,22.2,68.4,22.2,68.6"/>
	<path style="clip-path:url(#SVGID_2_);fill:#FFFFFF;" d="M20.6,68.8c0,0.1,0,0.2,0,0.2c0,0.1,0,0.2,0,0.2s0,0.1,0,0.1
		c0,0,0.1,0,0.1,0c0,0,0-0.1,0-0.1l0-0.1c0-0.1,0-0.1,0-0.2C20.7,68.9,20.7,68.9,20.6,68.8C20.7,68.6,20.6,68.8,20.6,68.8"/>
	<path style="clip-path:url(#SVGID_2_);fill:#FFFFFF;" d="M20.3,68.9c0,0.1,0,0.1,0,0.2c0,0.1,0,0.2,0,0.2s0,0.1,0,0.1
		c0,0,0.1-0.1,0.1-0.1s0,0,0-0.1c0,0,0-0.1,0-0.1C20.3,69,20.4,69,20.3,68.9C20.4,68.9,20.3,68.8,20.3,68.9"/>
	<path style="clip-path:url(#SVGID_2_);fill:#0B7DB2;" d="M47,54.1v-3.9c0-0.2,0-0.3-0.1-0.4l-0.4-0.4c0,0-0.1-0.1-0.1-0.1
		c0,0,0-0.1,0.1-0.1h2.3c0.1,0,0.1,0,0.1,0.1c0,0-0.1,0.1-0.1,0.1l-0.4,0.4c-0.1,0.1-0.1,0.2-0.1,0.4V59c0,0.2,0,0.3,0.1,0.4
		l0.4,0.4c0,0,0.1,0.1,0.1,0.1c0,0,0,0.1-0.1,0.1h-2.3c-0.1,0-0.1,0-0.1-0.1c0,0,0.1-0.1,0.1-0.1l0.4-0.4C47,59.3,47,59.2,47,59
		v-4.1h-1.5V59c0,0.2,0,0.3,0.1,0.4l0.4,0.4c0,0,0.1,0.1,0.1,0.1c0,0,0,0.1-0.1,0.1h-2.3c-0.1,0-0.1,0-0.1-0.1c0,0,0.1-0.1,0.1-0.1
		l0.4-0.4c0.1-0.1,0.1-0.2,0.1-0.4v-8.8c0-0.2,0-0.3-0.1-0.4l-0.4-0.4c0,0-0.1-0.1-0.1-0.1c0,0,0-0.1,0.1-0.1h2.3
		c0.1,0,0.1,0,0.1,0.1c0,0-0.1,0.1-0.1,0.1l-0.4,0.4c-0.1,0.1-0.1,0.2-0.1,0.4v3.9H47z"/>
	<path style="clip-path:url(#SVGID_2_);fill:#0B7DB2;" d="M52.8,59.3c0,0.1,0,0.1,0,0.1l0.5,0.5c0,0,0.1,0.1,0.1,0.1
		c0,0,0,0.1-0.1,0.1h-1.4c-0.1,0-0.1,0-0.1-0.1v-0.5h0c-0.2,0.3-0.5,0.6-1,0.6c-0.8,0-1.2-0.5-1.2-1.5v-5.9c0-0.1,0-0.1,0-0.1
		L49,52.2c0,0-0.1-0.1-0.1-0.1c0,0,0-0.1,0.1-0.1h1.4c0,0,0.1,0,0.1,0.1v6.5c0,0.6,0.2,0.8,0.6,0.8c0.3,0,0.7-0.5,0.7-1.2v-5.6
		c0-0.1,0-0.1,0-0.1l-0.4-0.4c0,0-0.1-0.1-0.1-0.1c0,0,0-0.1,0.1-0.1h1.4c0.1,0,0.1,0,0.1,0.1V59.3z"/>
	<path style="clip-path:url(#SVGID_2_);fill:#0B7DB2;" d="M55,52.5L55,52.5c0.3-0.3,0.5-0.5,1-0.5c0.7,0,1.2,0.5,1.2,1.5v5.8
		c0,0.1,0,0.1,0,0.1l0.5,0.5c0,0,0.1,0.1,0.1,0.1c0,0,0,0.1-0.1,0.1h-1.9c-0.1,0-0.1,0-0.1-0.1c0,0,0-0.1,0.1-0.1l0.4-0.5
		c0,0,0-0.1,0-0.1v-5.8c0-0.6-0.2-0.8-0.5-0.8c-0.4,0-0.7,0.5-0.7,1.3v5.4c0,0.1,0,0.1,0,0.1l0.4,0.5c0,0,0.1,0.1,0.1,0.1
		c0,0,0,0.1-0.1,0.1h-1.9c-0.1,0-0.1,0-0.1-0.1c0,0,0-0.1,0.1-0.1l0.4-0.5c0,0,0-0.1,0-0.1v-6.6c0-0.1,0-0.1,0-0.1l-0.4-0.4
		c0,0-0.1-0.1-0.1-0.1c0,0,0-0.1,0.1-0.1h1.4c0.1,0,0.1,0,0.1,0.1V52.5z"/>
	<path style="clip-path:url(#SVGID_2_);fill:#0B7DB2;" d="M59.5,58.9c0,0.3,0.1,0.5,0.3,0.5c0.2,0,0.4-0.2,0.5-0.3
		c0,0,0.1-0.1,0.1-0.1c0,0,0.1,0,0,0.1c-0.1,0.4-0.4,0.9-1,0.9c-0.6,0-0.9-0.3-0.9-1.5v-5.9c0-0.1,0-0.1,0-0.2L58,52.1
		c0,0-0.1-0.1-0.1-0.1c0,0,0.1-0.1,0.2-0.1c0.6-0.1,0.7-1.2,0.7-1.8c0-0.1,0-0.1,0.1-0.1h0.4c0.1,0,0.1,0,0.1,0.1v1.7
		c0,0.1,0,0.1,0.1,0.1h0.3c0.1,0,0.1,0.1,0,0.2l-0.3,0.4c0,0.1-0.1,0.2-0.1,0.3V58.9z"/>
	<path style="clip-path:url(#SVGID_2_);fill:#0B7DB2;" d="M63.3,54.9c0,0.1,0,0.1-0.1,0.1c0,0-0.1-0.1-0.1-0.1
		c-0.1-0.5-0.2-0.9-0.4-1.5c-0.2-0.5-0.4-0.7-0.7-0.7c-0.3,0-0.4,0.3-0.4,0.8c0,0.6,0.3,1.4,0.9,2.4c0.6,0.9,0.9,1.9,0.9,2.8
		c0,0.9-0.6,1.5-1.2,1.5c-0.4,0-0.7-0.2-0.9-0.5L61,60c0,0-0.1,0.1-0.1,0.1c0,0,0,0,0-0.1v-2.8c0,0,0-0.1,0.1-0.1
		c0.1,0,0.1,0.1,0.1,0.1c0.2,1.2,0.6,2.2,1.1,2.2c0.3,0,0.5-0.2,0.5-0.6c0-0.9-0.5-1.9-0.9-2.6c-0.5-0.9-0.8-1.8-0.8-2.7
		c0-0.9,0.6-1.6,1.1-1.6c0.4,0,0.6,0.2,0.9,0.5l0.4-0.4c0,0,0.1-0.1,0.1-0.1c0,0,0.1,0.1,0.1,0.1V54.9z"/>
	<path style="clip-path:url(#SVGID_2_);fill:#0B7DB2;" d="M66.2,59.8c0,0.1-0.1,0.3-0.2,0.3h-0.4c-0.1,0-0.2-0.1-0.2-0.2l-1-7.1
		c0-0.1,0-0.2-0.1-0.3L64,52.2c0,0-0.1-0.1-0.1-0.1c0,0,0-0.1,0.1-0.1h1.7c0,0,0.1,0,0.1,0c0,0,0,0.1-0.1,0.1l-0.4,0.4
		c0,0-0.1,0.1-0.1,0.2l0.6,4h0l0.5-4c0-0.1,0-0.2-0.1-0.2L66,52.1c0,0-0.1-0.1-0.1-0.1c0,0,0,0,0.1,0h1.5c0,0,0.1,0,0.1,0.1
		c0,0,0,0.1-0.1,0.1l-0.4,0.3c-0.1,0.1-0.1,0.2-0.1,0.3L66.2,59.8z"/>
	<path style="clip-path:url(#SVGID_2_);fill:#0B7DB2;" d="M68.3,52.7c0-0.1,0-0.1,0-0.1l-0.4-0.4c0,0-0.1-0.1-0.1-0.1
		c0,0,0-0.1,0.1-0.1h1.4c0,0,0.1,0,0.1,0.1v7.2c0,0.1,0,0.1,0,0.1l0.4,0.5c0,0,0.1,0.1,0.1,0.1c0,0,0,0.1-0.1,0.1h-1.9
		c0,0-0.1,0-0.1-0.1c0,0,0-0.1,0.1-0.1l0.4-0.5c0,0,0-0.1,0-0.1V52.7z M69.3,49.9c0,0.4-0.2,0.8-0.5,0.8c-0.3,0-0.5-0.4-0.5-0.8
		c0-0.4,0.2-0.8,0.5-0.8C69.1,49.2,69.3,49.5,69.3,49.9"/>
	<path style="clip-path:url(#SVGID_2_);fill:#0B7DB2;" d="M71.6,59.3c0,0.1,0,0.1,0,0.1l0.5,0.5c0,0,0.1,0.1,0.1,0.1
		c0,0,0,0.1-0.1,0.1h-1.9c0,0-0.1,0-0.1-0.1c0,0,0-0.1,0.1-0.1l0.5-0.5c0,0,0-0.1,0-0.1v-9.4c0-0.1,0-0.1,0-0.1l-0.4-0.4
		c0,0-0.1-0.1-0.1-0.1c0,0,0-0.1,0.1-0.1h1.4c0,0,0.1,0,0.1,0.1V59.3z"/>
	<path style="clip-path:url(#SVGID_2_);fill:#0B7DB2;" d="M73.8,59.3c0,0.1,0,0.1,0,0.1l0.4,0.5c0,0,0.1,0.1,0.1,0.1
		c0,0,0,0.1-0.1,0.1h-1.9c0,0-0.1,0-0.1-0.1c0,0,0-0.1,0.1-0.1l0.4-0.5c0,0,0-0.1,0-0.1v-9.4c0-0.1,0-0.1,0-0.1l-0.4-0.4
		c0,0-0.1-0.1-0.1-0.1c0,0,0-0.1,0.1-0.1h1.4c0,0,0.1,0,0.1,0.1V59.3z"/>
	<path style="clip-path:url(#SVGID_2_);fill:#0B7DB2;" d="M75.9,56.9c0,1.8,0.2,2.5,0.9,2.5c0.5,0,0.7-0.2,1-0.7
		c0,0,0.1-0.1,0.1-0.1c0,0,0.1,0,0,0.1c-0.2,0.7-0.6,1.3-1.3,1.3c-1.3,0-1.9-1.3-1.9-4.6c0-2.2,0.6-3.5,1.7-3.5
		c0.8,0,1.6,0.6,1.6,2.7v0.9c0,0.1,0,0.2-0.1,0.2h-2V56.9z M77,55.2v-1.5c0-0.8-0.2-1.2-0.6-1.2c-0.4,0-0.5,0.4-0.5,1.2v1.5H77z"/>
	<path style="clip-path:url(#SVGID_2_);fill:#0B7DB2;" d="M47.4,67.1v-3.9c0-0.2,0-0.3-0.1-0.4l-0.4-0.4c0,0-0.1-0.1-0.1-0.1
		c0,0,0-0.1,0.1-0.1h2.3c0.1,0,0.1,0,0.1,0.1c0,0-0.1,0.1-0.1,0.1l-0.4,0.4c-0.1,0.1-0.1,0.2-0.1,0.4v8.8c0,0.2,0,0.3,0.1,0.4
		l0.4,0.4c0,0,0.1,0.1,0.1,0.1c0,0,0,0.1-0.1,0.1h-2.3c-0.1,0-0.1,0-0.1-0.1c0,0,0.1-0.1,0.1-0.1l0.4-0.4c0.1-0.1,0.1-0.2,0.1-0.4
		v-4.1h-1.5v4.1c0,0.2,0,0.3,0.1,0.4l0.4,0.4c0,0,0.1,0.1,0.1,0.1c0,0,0,0.1-0.1,0.1h-2.3c-0.1,0-0.1,0-0.1-0.1c0,0,0.1-0.1,0.1-0.1
		l0.4-0.4c0.1-0.1,0.1-0.2,0.1-0.4v-8.8c0-0.2,0-0.3-0.1-0.4l-0.4-0.4c0,0-0.1-0.1-0.1-0.1c0,0,0-0.1,0.1-0.1h2.3
		c0.1,0,0.1,0,0.1,0.1c0,0-0.1,0.1-0.1,0.1l-0.4,0.4c-0.1,0.1-0.1,0.2-0.1,0.4v3.9H47.4z"/>
	<path style="clip-path:url(#SVGID_2_);fill:#0B7DB2;" d="M52.9,68.6c0,3.6-0.8,4.4-1.7,4.4c-0.9,0-1.7-0.8-1.7-4.4
		c0-2.9,0.8-3.7,1.7-3.7C52.1,64.9,52.9,65.7,52.9,68.6 M51.8,68.6c0-2.5-0.2-3.1-0.6-3.1c-0.4,0-0.6,0.5-0.6,3.1
		c0,3.3,0.2,3.8,0.6,3.8C51.6,72.4,51.8,71.9,51.8,68.6"/>
	<path style="clip-path:url(#SVGID_2_);fill:#0B7DB2;" d="M56.2,67.8c0,0.1,0,0.1-0.1,0.1c0,0-0.1-0.1-0.1-0.1
		c-0.1-0.5-0.2-0.9-0.4-1.5c-0.2-0.5-0.4-0.7-0.7-0.7c-0.3,0-0.4,0.3-0.4,0.8c0,0.6,0.3,1.4,0.9,2.4c0.6,0.9,0.9,1.9,0.9,2.8
		c0,0.9-0.6,1.5-1.2,1.5c-0.4,0-0.7-0.2-0.9-0.5l-0.4,0.4c0,0-0.1,0.1-0.1,0.1c0,0,0,0,0-0.1v-2.8c0,0,0-0.1,0.1-0.1
		c0.1,0,0.1,0.1,0.1,0.1c0.2,1.2,0.6,2.2,1.1,2.2c0.3,0,0.5-0.2,0.5-0.6c0-0.9-0.5-1.9-0.9-2.6c-0.5-0.9-0.8-1.8-0.8-2.7
		c0-0.9,0.6-1.6,1.1-1.6c0.3,0,0.6,0.2,0.9,0.5l0.4-0.4c0,0,0.1-0.1,0.1-0.1c0,0,0.1,0.1,0.1,0.1V67.8z"/>
	<path style="clip-path:url(#SVGID_2_);fill:#0B7DB2;" d="M57.4,65.5c0,0,0-0.1-0.1-0.1l-0.4-0.3c0,0-0.1-0.1-0.1-0.1
		c0,0,0-0.1,0.1-0.1h1.4c0,0,0.1,0,0.1,0.1v0.4h0c0.2-0.3,0.5-0.5,1-0.5c0.6,0,1.3,0.4,1.3,3.6c0,4.1-0.7,4.5-1.3,4.5
		c-0.5,0-0.7-0.3-0.9-0.6h0v1.7c0,0,0,0.1,0,0.1l0.4,0.5c0,0,0.1,0.1,0.1,0.1c0,0,0,0-0.1,0H57c-0.1,0-0.1,0-0.1,0
		c0,0,0-0.1,0.1-0.1l0.5-0.5c0,0,0-0.1,0-0.1V65.5z M58.4,71.3c0,0.6,0.4,1.1,0.7,1.1c0.3,0,0.5-0.3,0.5-3.8c0-2.7-0.2-3-0.5-3
		c-0.2,0-0.6,0.4-0.6,1.1V71.3z"/>
	<path style="clip-path:url(#SVGID_2_);fill:#0B7DB2;" d="M61.7,65.6c0-0.1,0-0.1,0-0.1l-0.4-0.4c0,0-0.1-0.1-0.1-0.1
		c0,0,0-0.1,0.1-0.1h1.4c0,0,0.1,0,0.1,0.1v7.2c0,0.1,0,0.1,0,0.1l0.4,0.5c0,0,0.1,0.1,0.1,0.1c0,0,0,0.1-0.1,0.1h-1.9
		c0,0-0.1,0-0.1-0.1c0,0,0-0.1,0.1-0.1l0.5-0.5c0,0,0-0.1,0-0.1V65.6z M62.7,62.9c0,0.4-0.2,0.8-0.5,0.8c-0.3,0-0.5-0.4-0.5-0.8
		c0-0.4,0.2-0.8,0.5-0.8C62.5,62.1,62.7,62.5,62.7,62.9"/>
	<path style="clip-path:url(#SVGID_2_);fill:#0B7DB2;" d="M65,71.8c0,0.3,0.1,0.5,0.3,0.5c0.2,0,0.4-0.2,0.4-0.3
		c0,0,0.1-0.1,0.1-0.1c0,0,0.1,0,0,0.1c-0.1,0.4-0.4,0.9-1,0.9c-0.6,0-0.9-0.3-0.9-1.5v-5.9c0-0.1,0-0.1,0-0.2L63.5,65
		c0,0-0.1-0.1-0.1-0.1c0,0,0.1-0.1,0.2-0.1c0.6-0.1,0.7-1.2,0.7-1.8c0-0.1,0-0.1,0.1-0.1h0.4c0.1,0,0.1,0,0.1,0.1v1.7
		c0,0.1,0,0.1,0.1,0.1h0.3c0.1,0,0.1,0.1,0,0.2l-0.3,0.4c0,0.1-0.1,0.2-0.1,0.3V71.8z"/>
	<path style="clip-path:url(#SVGID_2_);fill:#0B7DB2;" d="M69.4,72c0,0.2,0.1,0.4,0.2,0.4c0.1,0,0.3-0.1,0.4-0.2c0,0,0-0.1,0.1-0.1
		c0,0,0,0,0,0.1c-0.1,0.4-0.4,0.9-0.8,0.9c-0.5,0-0.7-0.3-0.9-0.6c-0.2,0.3-0.6,0.6-1,0.6c-0.6,0-1.3-0.4-1.3-2.4
		c0-1.6,0.2-2.1,1.8-3.3c0.3-0.2,0.3-0.4,0.3-1c0-0.6-0.1-0.8-0.6-0.8c-0.4,0-1,0.3-1.3,0.6c0,0-0.1,0-0.1,0c0,0,0,0,0-0.1
		c0-0.2,0.8-1.2,1.6-1.2c0.5,0,1.4,0.3,1.4,1.8V72z M68.4,67.7L68.4,67.7c-0.8,0.7-1.1,1.2-1.1,2.7c0,1.7,0.2,2,0.5,2
		c0.3,0,0.6-0.4,0.6-0.9V67.7z"/>
	<path style="clip-path:url(#SVGID_2_);fill:#0B7DB2;" d="M71.8,72.2c0,0.1,0,0.1,0,0.1l0.5,0.5c0,0,0.1,0.1,0.1,0.1
		c0,0,0,0.1-0.1,0.1h-1.9c0,0-0.1,0-0.1-0.1c0,0,0-0.1,0.1-0.1l0.5-0.5c0,0,0-0.1,0-0.1v-9.4c0-0.1,0-0.1,0-0.1l-0.4-0.4
		c0,0-0.1-0.1-0.1-0.1c0,0,0-0.1,0.1-0.1h1.4c0,0,0.1,0,0.1,0.1V72.2z"/>
	<path style="clip-path:url(#SVGID_2_);fill:#0B7DB2;" d="M76.1,67.1h0.3c0.1,0,0.1,0,0.2-0.1l0.5-1c0-0.1,0.1-0.1,0.1-0.1
		c0,0,0.1,0,0.1,0.1V69c0,0.1,0,0.1-0.1,0.1c0,0-0.1,0-0.1-0.1L76.5,68c0-0.1-0.1-0.1-0.2-0.1h-0.3v4.1c0,0.2,0,0.3,0.1,0.4l0.5,0.4
		c0,0,0.1,0.1,0.1,0.1c0,0,0,0.1-0.1,0.1h-2.4c-0.1,0-0.1,0-0.1-0.1c0,0,0.1-0.1,0.1-0.1l0.4-0.4c0.1-0.1,0.1-0.2,0.1-0.4v-8.8
		c0-0.2,0-0.3-0.1-0.4l-0.4-0.4c0,0-0.1-0.1-0.1-0.1c0,0,0-0.1,0.1-0.1h3.8c0.1,0,0.1,0.1,0.1,0.1v3.6c0,0,0,0.1-0.1,0.1
		c0,0-0.1,0-0.1-0.1l-0.8-2.7c-0.1-0.2-0.2-0.3-0.4-0.3h-0.8V67.1z"/>
	<path style="clip-path:url(#SVGID_2_);fill:#0B7DB2;" d="M82,68.6c0,3.6-0.8,4.4-1.7,4.4c-0.9,0-1.7-0.8-1.7-4.4
		c0-2.9,0.8-3.7,1.7-3.7C81.2,64.9,82,65.7,82,68.6 M80.8,68.6c0-2.5-0.2-3.1-0.6-3.1c-0.4,0-0.6,0.5-0.6,3.1c0,3.3,0.2,3.8,0.6,3.8
		C80.6,72.4,80.8,71.9,80.8,68.6"/>
	<path style="clip-path:url(#SVGID_2_);fill:#0B7DB2;" d="M86.2,72.2c0,0.1,0,0.1,0,0.1l0.5,0.5c0,0,0.1,0.1,0.1,0.1
		c0,0,0,0.1-0.1,0.1h-1.4c-0.1,0-0.1,0-0.1-0.1v-0.5h0c-0.2,0.3-0.5,0.6-1,0.6c-0.8,0-1.2-0.5-1.2-1.5v-5.9c0-0.1,0-0.1,0-0.1
		l-0.4-0.4c0,0-0.1-0.1-0.1-0.1c0,0,0-0.1,0.1-0.1h1.4c0,0,0.1,0,0.1,0.1v6.5c0,0.6,0.2,0.8,0.6,0.8c0.3,0,0.7-0.4,0.7-1.2v-5.6
		c0-0.1,0-0.1,0-0.1l-0.4-0.4c0,0-0.1-0.1-0.1-0.1c0,0,0-0.1,0.1-0.1h1.4c0.1,0,0.1,0,0.1,0.1V72.2z"/>
	<path style="clip-path:url(#SVGID_2_);fill:#0B7DB2;" d="M88.4,65.4L88.4,65.4c0.3-0.3,0.5-0.5,1-0.5c0.7,0,1.2,0.5,1.2,1.5v5.8
		c0,0.1,0,0.1,0,0.1l0.5,0.5c0,0,0.1,0.1,0.1,0.1c0,0,0,0.1-0.1,0.1h-1.9c-0.1,0-0.1,0-0.1-0.1c0,0,0-0.1,0.1-0.1l0.5-0.5
		c0,0,0-0.1,0-0.1v-5.8c0-0.6-0.2-0.8-0.5-0.8c-0.3,0-0.7,0.5-0.7,1.3v5.4c0,0.1,0,0.1,0,0.1l0.4,0.5c0,0,0.1,0.1,0.1,0.1
		c0,0,0,0.1-0.1,0.1H87c-0.1,0-0.1,0-0.1-0.1c0,0,0-0.1,0.1-0.1l0.4-0.5c0,0,0-0.1,0-0.1v-6.6c0-0.1,0-0.1,0-0.1l-0.4-0.4
		c0,0-0.1-0.1-0.1-0.1c0,0,0-0.1,0.1-0.1h1.4c0.1,0,0.1,0,0.1,0.1V65.4z"/>
	<path style="clip-path:url(#SVGID_2_);fill:#0B7DB2;" d="M94,62.8c0-0.1,0-0.1-0.1-0.1l-0.4-0.4c0,0-0.1-0.1-0.1-0.1
		c0,0,0-0.1,0.1-0.1h1.4c0.1,0,0.1,0,0.1,0.1v10c0,0.1,0,0.1,0,0.1l0.5,0.5c0,0,0.1,0.1,0.1,0.1c0,0,0,0.1-0.1,0.1h-1.3
		C94,73,94,73,94,72.9v-0.5h0c-0.2,0.3-0.5,0.6-1,0.6c-0.6,0-1.3-0.4-1.3-4.5c0-3.2,0.7-3.6,1.3-3.6c0.4,0,0.7,0.2,1,0.5h0V62.8z
		 M94,66.6c0-0.7-0.4-1.1-0.6-1.1c-0.4,0-0.5,0.3-0.5,3c0,3.5,0.1,3.8,0.5,3.8c0.3,0,0.7-0.4,0.7-1.2V66.6z"/>
	<path style="clip-path:url(#SVGID_2_);fill:#0B7DB2;" d="M99.1,72c0,0.2,0.1,0.4,0.2,0.4c0.1,0,0.3-0.1,0.4-0.2c0,0,0-0.1,0.1-0.1
		c0,0,0,0,0,0.1c-0.1,0.4-0.4,0.9-0.8,0.9c-0.4,0-0.7-0.3-0.9-0.6c-0.2,0.3-0.6,0.6-1,0.6c-0.6,0-1.3-0.4-1.3-2.4
		c0-1.6,0.2-2.1,1.8-3.3c0.3-0.2,0.3-0.4,0.3-1c0-0.6-0.1-0.8-0.6-0.8c-0.4,0-1,0.3-1.3,0.6c0,0-0.1,0-0.1,0c0,0,0,0,0-0.1
		c0-0.2,0.8-1.2,1.6-1.2c0.5,0,1.4,0.3,1.4,1.8V72z M98.1,67.7L98.1,67.7c-0.8,0.7-1.1,1.2-1.1,2.7c0,1.7,0.2,2,0.5,2
		c0.3,0,0.6-0.4,0.6-0.9V67.7z"/>
	<path style="clip-path:url(#SVGID_2_);fill:#0B7DB2;" d="M101.4,71.8c0,0.3,0.1,0.5,0.3,0.5c0.2,0,0.4-0.2,0.4-0.3
		c0,0,0.1-0.1,0.1-0.1c0,0,0.1,0,0,0.1c-0.1,0.4-0.4,0.9-1,0.9c-0.6,0-0.9-0.3-0.9-1.5v-5.9c0-0.1,0-0.1,0-0.2L100,65
		c0,0-0.1-0.1-0.1-0.1c0,0,0.1-0.1,0.2-0.1c0.6-0.1,0.7-1.2,0.7-1.8c0-0.1,0-0.1,0.1-0.1h0.4c0.1,0,0.1,0,0.1,0.1v1.7
		c0,0.1,0,0.1,0.1,0.1h0.3c0.1,0,0.1,0.1,0,0.2l-0.3,0.4c0,0.1-0.1,0.2-0.1,0.3V71.8z"/>
	<path style="clip-path:url(#SVGID_2_);fill:#0B7DB2;" d="M103,65.6c0-0.1,0-0.1,0-0.1l-0.4-0.4c0,0-0.1-0.1-0.1-0.1
		c0,0,0-0.1,0.1-0.1h1.4c0,0,0.1,0,0.1,0.1v7.2c0,0.1,0,0.1,0,0.1l0.5,0.5c0,0,0.1,0.1,0.1,0.1c0,0,0,0.1-0.1,0.1h-1.9
		c0,0-0.1,0-0.1-0.1c0,0,0-0.1,0.1-0.1l0.4-0.5c0,0,0-0.1,0-0.1V65.6z M104,62.9c0,0.4-0.2,0.8-0.5,0.8c-0.3,0-0.5-0.4-0.5-0.8
		c0-0.4,0.2-0.8,0.5-0.8C103.8,62.1,104,62.5,104,62.9"/>
	<path style="clip-path:url(#SVGID_2_);fill:#0B7DB2;" d="M108.4,68.6c0,3.6-0.8,4.4-1.7,4.4c-0.9,0-1.7-0.8-1.7-4.4
		c0-2.9,0.8-3.7,1.7-3.7C107.7,64.9,108.4,65.7,108.4,68.6 M107.3,68.6c0-2.5-0.2-3.1-0.6-3.1c-0.4,0-0.6,0.5-0.6,3.1
		c0,3.3,0.2,3.8,0.6,3.8C107.1,72.4,107.3,71.9,107.3,68.6"/>
	<path style="clip-path:url(#SVGID_2_);fill:#0B7DB2;" d="M110.4,65.4L110.4,65.4c0.3-0.3,0.5-0.5,1-0.5c0.7,0,1.2,0.5,1.2,1.5v5.8
		c0,0.1,0,0.1,0,0.1l0.5,0.5c0,0,0.1,0.1,0.1,0.1c0,0,0,0.1-0.1,0.1h-1.9c-0.1,0-0.1,0-0.1-0.1c0,0,0-0.1,0.1-0.1l0.4-0.5
		c0,0,0-0.1,0-0.1v-5.8c0-0.6-0.2-0.8-0.5-0.8c-0.3,0-0.7,0.5-0.7,1.3v5.4c0,0.1,0,0.1,0,0.1l0.5,0.5c0,0,0.1,0.1,0.1,0.1
		c0,0,0,0.1-0.1,0.1H109c-0.1,0-0.1,0-0.1-0.1c0,0,0-0.1,0.1-0.1l0.4-0.5c0,0,0-0.1,0-0.1v-6.6c0-0.1,0-0.1,0-0.1l-0.4-0.4
		c0,0-0.1-0.1-0.1-0.1c0,0,0-0.1,0.1-0.1h1.4c0.1,0,0.1,0,0.1,0.1V65.4z"/>
	<path style="clip-path:url(#SVGID_2_);fill:#231F20;" d="M35,73c0-0.1-0.4-0.3-0.4-0.4c-0.3-0.3-0.5-0.4-0.8-0.6
		c-0.3-0.1-0.7-0.3-0.9-0.4c-0.1,0-0.1,0-0.2-0.1c0,0,0.9-0.1,1-0.1c0.1,0,0.2,0,0.1-0.1c-0.1-0.1-1.6-0.4-1.8-0.5
		c-0.1,0-1.2-0.3-1.4-0.4c-0.1,0-0.5-0.1-1-0.2c-0.5-0.1-1.2-0.2-1.7-0.3c-1.1-0.2-2.7-0.2-3.6,0c0,0-0.3,0.1-0.6,0.2
		c-0.4,0.1-0.9,0.3-1,0.4c-0.1,0-0.2,0-0.1-0.1c0-0.1,0.2-0.6,0.2-0.7c0-0.1,0.1-0.6,0.1-0.7c0-0.3,0-0.9-0.1-1.3
		c-0.1-0.4-0.7-1.6-0.8-1.7c-0.2-0.2-0.5-0.6-1-1c-0.2-0.2-0.7-0.3-0.8-0.3c-0.1,0-0.6-0.1-0.9-0.1c-0.3,0-0.8,0.2-0.8,0.2
		c-0.1,0.1-0.3,0.2-0.4,0.3c-0.1,0.1-0.2,0.2-0.3,0.3c-0.1,0.1-0.2,0.1-0.4,0.2c-0.1,0-0.2,0.1-0.3,0.1c-0.2,0-1.1,0.1-1.2,0.1
		c-0.1,0-0.7,0.1-0.9,0.2c0,0-0.2,0.1-0.2,0.1c0,0.1,0.1,0.1,0.1,0.1c0.3,0.1,1.3,0.3,1.7,0.3c0.2,0,0.5,0,0.7,0.1
		c0.2,0.1,0.3,0.1,0.4,0.2c0.1,0.1,0.2,0.2,0.3,0.2c0.3,0.2,0.6,0.3,0.9,0.5c0.1,0,0.6,0.2,0.7,0.3c0.3,0.2,0.6,0.3,0.7,0.7
		c0,0.2,0,0.5-0.1,0.7c-0.1,0.2-0.2,0.3-0.4,0.5c-0.1,0.1-0.2,0.2-0.3,0.2c-0.1,0.1-0.3,0.4-0.4,0.5c-0.2,0.2-0.4,0.9-0.4,1.3
		c0,0.2,0,0.5,0.1,0.7c0,0.1,0.1,0.2,0.2,0.2c0.1,0.1,0.2,0.1,0.3,0.1c0.1,0,0.5,0.1,0.6,0.1c0.1,0,0.7,0.1,1,0.1
		c0.2,0,1.1,0,1.3,0.1c0.1,0,1,0,1.7,0.1c0.4,0,0.9,0,1,0c0.1,0,0.7,0,0.8,0c0.2,0,1.1,0.1,2,0.1h0.3c0.1,0,0.2,0,0.3,0
		c0.4,0,0.9,0,1.4-0.1c0.9,0,1.8,0,1.9-0.1c0.1,0,1.9,0,2,0C33.7,73.1,34.7,73.2,35,73C35.1,73.1,35,73,35,73"/>
	<path style="clip-path:url(#SVGID_2_);fill:#FFFFFF;" d="M19.7,65.7c0,0.2-0.2,0.3-0.3,0.3c-0.2,0-0.3-0.1-0.3-0.3
		c0-0.2,0.2-0.3,0.3-0.3C19.5,65.5,19.7,65.6,19.7,65.7"/>
	<path style="clip-path:url(#SVGID_2_);fill:#FFFFFF;" d="M26,70.2C26,70.2,26,70.2,26,70.2C26,70.2,26,70.2,26,70.2
		c0-0.1-0.1-0.2-0.2-0.2c0,0,0,0,0,0l0,0c0,0-0.1,0.1-0.1,0.2l0,0.1l0,0.1c0,0,0,0,0,0c0,0,0,0,0,0l0,0C25.8,70.4,25.8,70.4,26,70.2
		L26,70.2L26,70.2z"/>
	<path style="clip-path:url(#SVGID_2_);fill:#FFFFFF;" d="M26.4,70.6C26.4,70.5,26.4,70.5,26.4,70.6C26.4,70.5,26.4,70.5,26.4,70.6
		c0-0.1-0.1-0.1,0-0.1l0.1,0c0,0,0.1,0,0.1-0.1c0,0,0,0,0-0.1c0,0,0,0,0-0.1c0-0.1-0.1-0.1-0.2-0.1l-0.1,0c-0.1,0.1-0.1,0.2-0.1,0.2
		c0,0,0,0.1,0,0.1c0,0,0,0.1-0.1,0.1c0,0,0,0.1-0.1,0.1c0,0,0,0.1,0,0.1c0,0-0.1,0.1-0.1,0.1l0,0c0,0,0,0.1,0,0.1l0,0.1l0.1,0
		c0.1,0,0.2-0.1,0.2-0.2c0,0,0-0.1,0-0.1c0,0,0,0,0,0l0.1,0c0,0,0,0,0-0.1L26.4,70.6C26.4,70.6,26.4,70.6,26.4,70.6"/>
	<path style="clip-path:url(#SVGID_2_);fill:#FFFFFF;" d="M25.2,70.6C25.2,70.6,25.2,70.6,25.2,70.6L25.2,70.6
		c0.2,0,0.3-0.1,0.3-0.2c0-0.1,0-0.2-0.1-0.2c0,0,0,0,0,0c-0.1,0.1-0.1,0.1-0.1,0.2l0,0l0,0.1C25.2,70.4,25.1,70.5,25.2,70.6
		C25.2,70.6,25.2,70.6,25.2,70.6"/>
	<path style="clip-path:url(#SVGID_2_);fill:#FFFFFF;" d="M26.8,70.4c0.1,0,0.1-0.1,0.1-0.1c0,0,0-0.1,0-0.1l0,0l0,0
		c0,0-0.1,0-0.1,0l0,0l0,0C26.8,70.2,26.7,70.3,26.8,70.4C26.8,70.4,26.8,70.4,26.8,70.4"/>
	<path style="clip-path:url(#SVGID_2_);fill:#FFFFFF;" d="M27.2,70.3c0,0,0,0,0,0.1l0,0.1l0,0l0.1,0c0,0,0,0,0.1-0.1
		c0,0,0-0.1,0-0.1v0l0,0L27.2,70.3L27.2,70.3L27.2,70.3L27.2,70.3L27.2,70.3C27.2,70.3,27.2,70.3,27.2,70.3"/>
	<path style="clip-path:url(#SVGID_2_);fill:#FFFFFF;" d="M25.1,70.4C25.1,70.4,25,70.3,25.1,70.4C25,70.3,25,70.3,25.1,70.4
		c-0.1-0.1-0.1-0.2-0.1-0.2c0,0,0,0,0,0c0,0-0.1,0.1,0,0.2c0,0,0,0,0.1,0C24.9,70.5,25,70.5,25.1,70.4C25,70.4,25.1,70.4,25.1,70.4"
		/>
	<path style="clip-path:url(#SVGID_2_);fill:#FFFFFF;" d="M27.9,70.7L27.9,70.7L27.9,70.7c0-0.1,0-0.1,0-0.2c0,0,0-0.1,0-0.1
		c0,0,0.1,0,0.1-0.1c0,0,0,0,0,0c0,0,0,0,0-0.1c0-0.1-0.1-0.1-0.2-0.1l0,0l0,0c-0.1,0-0.2,0.2-0.2,0.4c0,0,0,0.1,0,0.1
		C27.7,70.8,27.8,70.7,27.9,70.7"/>
	<path style="clip-path:url(#SVGID_2_);fill:#FFFFFF;" d="M28.3,70.7c0.1,0,0.1,0,0.2-0.1c0,0,0.1,0,0.1,0l0,0
		c0-0.2-0.2-0.2-0.3-0.2l0,0l0,0c0,0,0,0,0,0c0,0,0,0,0,0c0,0,0,0,0,0v0C28.2,70.6,28.3,70.7,28.3,70.7"/>
	<path style="clip-path:url(#SVGID_2_);fill:#FFFFFF;" d="M24.5,70.4C24.5,70.4,24.5,70.4,24.5,70.4c-0.1,0-0.1,0.2-0.1,0.2
		c0,0,0,0,0,0l0,0c0,0,0,0,0,0v0c0,0,0,0-0.1,0c0,0,0,0,0,0c0,0,0,0,0,0.1c0,0,0,0,0,0c0.1,0,0.1,0,0.1-0.1c0,0-0.1,0,0-0.1
		C24.6,70.5,24.6,70.4,24.5,70.4"/>
	<path style="clip-path:url(#SVGID_2_);fill:#FFFFFF;" d="M29.4,71.4L29.4,71.4c0,0-0.1,0-0.1,0c0,0,0,0.1,0,0.1
		S29.4,71.5,29.4,71.4C29.5,71.5,29.4,71.4,29.4,71.4"/>
	<path style="clip-path:url(#SVGID_2_);fill:#FFFFFF;" d="M26.9,70.6L26.9,70.6c0-0.1-0.1-0.1-0.2-0.1l0,0l0,0l-0.1,0.1l0,0.1
		c0,0.1,0,0.1,0,0.2l0,0v0c0,0.1,0,0.1,0.1,0.1c0,0,0.1,0,0.1,0c0,0,0-0.1,0-0.1c0,0,0,0,0-0.1L26.9,70.6
		C26.8,70.6,26.8,70.6,26.9,70.6C26.8,70.6,26.8,70.6,26.9,70.6L26.9,70.6L26.9,70.6L26.9,70.6z"/>
	<path style="clip-path:url(#SVGID_2_);fill:#FFFFFF;" d="M27.3,70.6c0,0-0.1-0.1-0.1-0.1l0,0l0,0L27,70.6v0c0,0.1,0.1,0.1,0.1,0.1
		c0.1,0,0.2,0,0.2-0.1C27.3,70.7,27.3,70.6,27.3,70.6"/>
	<path style="clip-path:url(#SVGID_2_);fill:#FFFFFF;" d="M24.2,70.5L24.2,70.5c0,0-0.1,0-0.1,0.1c0,0,0,0.1,0,0.1c0,0,0,0,0,0
		c0,0,0.1,0,0.1,0l0,0L24.2,70.5C24.3,70.6,24.3,70.6,24.2,70.5C24.3,70.5,24.2,70.5,24.2,70.5"/>
	<path style="clip-path:url(#SVGID_2_);fill:#FFFFFF;" d="M25.2,70.6C25.2,70.6,25.2,70.6,25.2,70.6c0,0-0.1,0.1-0.1,0.1
		c0,0,0.1,0.1,0.1,0.1c0,0-0.1,0-0.1,0.1c0,0,0,0,0,0c0,0,0,0.1,0,0.1c0,0,0.1,0,0.2,0c0,0,0,0,0,0c0,0-0.1-0.1-0.1-0.1
		c0,0,0,0,0.1,0C25.3,70.8,25.3,70.7,25.2,70.6"/>
	<path style="clip-path:url(#SVGID_2_);fill:#FFFFFF;" d="M25.7,70.6C25.7,70.6,25.7,70.6,25.7,70.6C25.6,70.6,25.6,70.7,25.7,70.6
		c-0.1,0.1-0.1,0-0.1,0.1c0,0,0,0,0,0c0.1,0.1,0.2,0.1,0.2,0c0,0,0,0,0,0C25.8,70.7,25.8,70.6,25.7,70.6"/>
	<path style="clip-path:url(#SVGID_2_);fill:#FFFFFF;" d="M23.8,70.7C23.8,70.7,23.7,70.7,23.8,70.7c0,0-0.1,0.2-0.1,0.3
		c0,0,0,0,0.1,0c0.1,0,0.1-0.1,0.1-0.1C23.9,70.8,23.8,70.7,23.8,70.7"/>
	<path style="clip-path:url(#SVGID_2_);fill:#FFFFFF;" d="M29.1,70.7L29.1,70.7l-0.2-0.1l0,0l-0.1,0.1l0,0c0,0,0,0,0,0.1
		c0,0,0.1,0,0.2,0c0,0,0,0,0.1,0C29.2,70.8,29.1,70.7,29.1,70.7L29.1,70.7z"/>
	<path style="clip-path:url(#SVGID_2_);fill:#FFFFFF;" d="M28.4,70.9c0,0,0-0.1-0.1-0.2l0,0c0,0-0.1,0-0.1,0l0,0c0,0,0,0,0,0
		c0,0,0,0,0,0c0,0,0,0,0,0l0,0c0,0.1,0,0.1,0.1,0.1C28.2,70.9,28.3,70.9,28.4,70.9C28.4,70.9,28.4,70.9,28.4,70.9"/>
	<path style="clip-path:url(#SVGID_2_);fill:#FFFFFF;" d="M29.9,70.8L29.9,70.8C29.9,70.8,29.9,70.8,29.9,70.8L29.9,70.8L29.9,70.8
		c0-0.1-0.2-0.1-0.2-0.1c0,0,0,0.1,0,0.1c0,0,0,0,0,0C29.7,70.9,29.8,70.9,29.9,70.8L29.9,70.8L29.9,70.8L29.9,70.8z"/>
	<path style="clip-path:url(#SVGID_2_);fill:#FFFFFF;" d="M27.4,70.9c0,0,0,0.1,0,0.1l0,0h0c0.1,0,0.2,0,0.2,0c0,0,0,0,0.1-0.1
		l0-0.1l0,0l0,0c0,0-0.1,0-0.1,0l-0.1,0l0,0L27.4,70.9L27.4,70.9z"/>
	<path style="clip-path:url(#SVGID_2_);fill:#FFFFFF;" d="M24.5,70.8c0,0-0.1,0-0.1,0c0,0,0,0,0,0s0,0.1,0,0.2c0,0,0,0,0,0
		c0,0,0,0,0,0c0,0,0,0,0.1,0C24.4,71,24.5,70.9,24.5,70.8C24.5,70.9,24.5,70.8,24.5,70.8"/>
	<path style="clip-path:url(#SVGID_2_);fill:#FFFFFF;" d="M25.5,70.9L25.5,70.9c-0.2,0.1-0.1,0.1-0.1,0.2l0,0.1l0,0
		c0,0,0.2-0.1,0.2-0.2C25.7,70.9,25.6,70.9,25.5,70.9"/>
	<path style="clip-path:url(#SVGID_2_);fill:#FFFFFF;" d="M27.2,71C27.2,71,27.2,71,27.2,71c0-0.1-0.1-0.1-0.2-0.1l0,0l0,0
		c0,0-0.1,0.1-0.1,0.1c0,0,0,0,0,0c0,0,0,0,0,0c0,0,0,0.1,0,0.1c0,0,0,0.1,0,0.1c0,0,0,0,0,0l0.1,0l0,0l0,0v0c0,0,0,0,0,0l0,0
		L27.2,71C27.2,71,27.2,71,27.2,71"/>
	<path style="clip-path:url(#SVGID_2_);fill:#FFFFFF;" d="M29.5,70.9L29.5,70.9L29.5,70.9L29.5,70.9L29.5,70.9
		c-0.1,0.1-0.1,0.1,0,0.1c0,0,0.1,0,0.2,0l0,0l0,0C29.7,71,29.6,71,29.5,70.9"/>
	<path style="clip-path:url(#SVGID_2_);fill:#FFFFFF;" d="M26.6,71C26.6,71,26.5,71,26.6,71L26.5,71l0,0l0,0.1l-0.1,0.1v0h0l0,0
		c0,0,0,0,0,0.1c0,0,0.1,0,0.2-0.1l0,0L26.6,71L26.6,71z"/>
	<path style="clip-path:url(#SVGID_2_);fill:#FFFFFF;" d="M28.7,71L28.7,71L28.7,71c-0.1,0-0.1,0-0.1,0.1c0,0,0,0,0,0c0,0,0,0,0,0
		c0,0,0,0,0,0c0,0,0.1,0.1,0.2,0.1c0,0,0.1,0,0.1,0c0,0,0-0.1,0-0.1C28.9,71,28.8,71,28.7,71"/>
	<path style="clip-path:url(#SVGID_2_);fill:#FFFFFF;" d="M28.1,71L28.1,71L28.1,71L28.1,71c-0.1,0-0.1,0-0.2,0.1c0,0,0,0.1,0,0.1
		l0,0l0,0c0.1,0,0.2-0.1,0.2-0.1C28.2,71.1,28.2,71.1,28.1,71"/>
	<path style="clip-path:url(#SVGID_2_);fill:#FFFFFF;" d="M26,71.1C26,71.1,26,71.1,26,71.1C26,71.1,26,71.1,26,71.1
		C25.9,71.1,26,71.2,26,71.1c-0.1,0.1,0,0.1,0,0.1C26,71.2,26.1,71.2,26,71.1C26.1,71.1,26,71.1,26,71.1C26,71.1,26,71.1,26,71.1"/>
	<path style="clip-path:url(#SVGID_2_);fill:#FFFFFF;" d="M27.3,71.1L27.3,71.1L27.3,71.1l0,0.2h0l0,0c0,0,0.1,0,0.1,0l0.1,0l0,0
		C27.5,71.2,27.5,71.2,27.3,71.1"/>
	<path style="clip-path:url(#SVGID_2_);fill:#FFFFFF;" d="M25.4,71.2C25.4,71.2,25.4,71.1,25.4,71.2c-0.1,0-0.1,0.1-0.1,0.1
		s0,0,0,0.1c0,0,0.1,0,0.1,0c0,0,0,0,0,0c0,0,0,0,0,0c0,0,0,0,0,0C25.5,71.2,25.4,71.2,25.4,71.2"/>
	<path style="clip-path:url(#SVGID_2_);fill:#FFFFFF;" d="M28.5,71.3C28.5,71.3,28.5,71.3,28.5,71.3c-0.1-0.1-0.1,0-0.1,0
		c0,0,0.1,0.1,0.1,0.1l0,0c0,0,0.1,0,0.1,0C28.6,71.4,28.6,71.4,28.5,71.3L28.5,71.3L28.5,71.3z"/>
	<path style="clip-path:url(#SVGID_2_);fill:#FFFFFF;" d="M27.7,71.3L27.7,71.3L27.7,71.3L27.7,71.3L27.7,71.3
		c-0.1,0.1-0.1,0.2,0,0.2c0.1,0,0.1,0,0.2,0c0,0,0-0.1,0-0.1C27.9,71.4,27.7,71.3,27.7,71.3"/>
	<path style="clip-path:url(#SVGID_2_);fill:#FFFFFF;" d="M27.1,71.4L27.1,71.4L27.1,71.4l-0.1,0.2h0v0h0.1v0c0,0,0,0,0,0
		c0,0,0,0,0,0C27.2,71.5,27.2,71.4,27.1,71.4"/>
	<path style="clip-path:url(#SVGID_2_);fill:#FFFFFF;" d="M22,72.1C22,72.1,22,72.1,22,72.1C22,72.2,22,72.2,22,72.1
		C22,72.2,22,72.2,22,72.1"/>
	<path style="clip-path:url(#SVGID_2_);fill:#FFFFFF;" d="M21.7,72.3L21.7,72.3c0,0.1,0,0.1,0,0.1h0C21.7,72.4,21.7,72.4,21.7,72.3"
		/>
	<path style="clip-path:url(#SVGID_2_);fill:#FFFFFF;" d="M21.5,72.4L21.5,72.4c0,0.1,0,0.2,0.1,0.2v0h0c0,0,0,0,0,0
		C21.6,72.5,21.5,72.5,21.5,72.4"/>
	<path style="clip-path:url(#SVGID_2_);fill:#FFFFFF;" d="M21.9,72.3C21.8,72.2,21.8,72.2,21.9,72.3c-0.1-0.1-0.1-0.1-0.1-0.1
		c0,0,0.1,0,0.1,0c0,0-0.2-0.1-0.2-0.1h0c0,0,0.2,0,0.2,0c-0.2-0.2-0.3-0.3-0.5-0.5c0,0-0.1-0.2-0.2-0.3c0,0-0.1-0.1-0.1-0.1
		c-0.1-0.1-0.2-0.2-0.3-0.3c-0.1-0.1-0.2-0.2-0.4-0.3c0,0-0.2-0.1-0.3-0.1c-0.1,0-0.5-0.1-0.5-0.1c-0.1,0-0.2,0-0.3,0.1
		c-0.1,0.1-0.2,0.3-0.3,0.4c0,0.1-0.2,0.5-0.2,0.6c0,0.1-0.1,0.4-0.1,0.5c0,0.1,0,0.3,0,0.4c0,0.1,0.1,0.2,0.2,0.2
		c0.1,0.1,0.3,0.1,0.5,0.2c0.2,0.1,0.9,0.1,0.9,0.1l0.6,0.1l0.3,0c0,0,0.2,0,0.2,0l0.1,0l0.1,0c-0.1,0-0.1-0.1-0.1-0.1
		c0,0-0.1-0.1,0-0.1c0.1,0,0.2,0.1,0.2,0.1c0,0,0.1,0,0.1,0c-0.1-0.1-0.2-0.2-0.2-0.3c0,0,0.1,0,0.1,0c0.1,0,0.1,0,0.2,0
		c0,0,0.1,0,0.2,0C22.1,72.4,21.9,72.3,21.9,72.3"/>
	<path style="clip-path:url(#SVGID_2_);fill:#FFFFFF;" d="M21,68.9c0,0.2,0,0.3,0,0.3s-0.1,0.3,0,0.3c0,0,0.1,0,0.1-0.1
		c0-0.1,0-0.5,0-0.5s0-0.3-0.1-0.4C21,68.6,21,68.8,21,68.9"/>
	<path style="clip-path:url(#SVGID_2_);fill:#FFFFFF;" d="M21.4,68.5c0,0-0.1,0.2-0.1,0.3c0,0.1,0.1,0.4,0.1,0.6
		c0,0.2-0.1,0.3-0.1,0.3c0,0.1,0.1,0.1,0.2,0.1c0,0,0.1-0.6,0.1-0.6s0-0.4-0.1-0.5C21.5,68.6,21.4,68.5,21.4,68.5"/>
	<path style="clip-path:url(#SVGID_2_);fill:#FFFFFF;" d="M21.8,68.5c0,0.1,0,0.4,0,0.4s0,0.3,0,0.5c0,0.3-0.1,0.5-0.1,0.5
		s0,0.1,0,0.2c0,0,0.1,0,0.2-0.1c0.1-0.1,0.1-0.6,0.1-0.9c0-0.3,0-0.4,0-0.5c0-0.1,0-0.3-0.1-0.3C21.9,68.2,21.8,68.4,21.8,68.5"/>
	<path style="clip-path:url(#SVGID_2_);fill:#FFFFFF;" d="M22.3,68.6c0,0.2,0,0.6,0,0.6s-0.1,0.6-0.1,0.7c0,0.1-0.1,0.4-0.1,0.4
		c0,0.1,0.1,0.1,0.2-0.1c0.1-0.2,0.2-1.1,0.2-1.1s0-0.5,0-0.6c0-0.1-0.1-0.3-0.2-0.3C22.2,68.2,22.3,68.4,22.3,68.6"/>
	<path style="clip-path:url(#SVGID_2_);fill:#FFFFFF;" d="M20.7,68.8c0,0.1,0,0.2,0,0.2c0,0.1,0,0.2,0,0.2s0,0.1,0,0.1
		c0,0,0.1,0,0.1,0c0,0,0-0.1,0-0.1l0-0.1c0-0.1,0-0.1,0-0.2C20.8,68.9,20.8,68.9,20.7,68.8C20.8,68.6,20.7,68.8,20.7,68.8"/>
	<path style="clip-path:url(#SVGID_2_);fill:#FFFFFF;" d="M20.4,68.9c0,0,0,0.1,0,0.2c0,0.1,0,0.2,0,0.2s0,0.1,0,0.1
		c0,0,0.1-0.1,0.1-0.1s0,0,0-0.1c0,0,0-0.1,0-0.1C20.4,69,20.5,69,20.4,68.9C20.5,68.9,20.4,68.8,20.4,68.9"/>
	<path style="clip-path:url(#SVGID_2_);fill:#FFFFFF;" d="M24.9,70.7c0,0-0.1,0.1-0.1,0.1c0,0,0,0,0,0c0,0,0,0,0-0.1
		c0,0,0-0.1,0-0.1c0,0,0,0,0.1,0C24.9,70.6,24.9,70.7,24.9,70.7"/>
</g>
</svg>
