<?xml version="1.0" encoding="utf-8"?>
<!-- Generator: Adobe Illustrator 19.1.0, SVG Export Plug-In . SVG Version: 6.00 Build 0)  -->
<svg version="1.1" id="Layer_1" xmlns="http://www.w3.org/2000/svg" xmlns:xlink="http://www.w3.org/1999/xlink" x="0px" y="0px"
	 viewBox="0 0 119 119" style="enable-background:new 0 0 119 119;" xml:space="preserve">
<metadata><?xpacket begin="﻿" id="W5M0MpCehiHzreSzNTczkc9d"?>
<x:xmpmeta xmlns:x="adobe:ns:meta/" x:xmptk="Adobe XMP Core 5.6-c067 79.157747, 2015/03/30-23:40:42        ">
   <rdf:RDF xmlns:rdf="http://www.w3.org/1999/02/22-rdf-syntax-ns#">
      <rdf:Description rdf:about=""/>
   </rdf:RDF>
</x:xmpmeta>
                                                                                                    
                                                                                                    
                                                                                                    
                                                                                                    
                                                                                                    
                                                                                                    
                                                                                                    
                                                                                                    
                                                                                                    
                                                                                                    
                                                                                                    
                                                                                                    
                                                                                                    
                                                                                                    
                                                                                                    
                                                                                                    
                                                                                                    
                                                                                                    
                                                                                                    
                                                                                                    
                           
<?xpacket end="w"?></metadata>
<g>
	<path style="fill:#FDB913;" d="M63.8,31.6c-0.8-0.8-1.8-1.3-2.9-1.3c0,0-0.1,0-0.1,0c-1.1,0-2.1,0.4-2.9,1.1
		c-0.8,0.8-1.3,1.8-1.3,2.9c0,0,0,0,0,0.1c0,0,0,0,0,0.1c0,0,0,0,0,0c1.7,0.3,3.2,0.8,4.7,1.3c0,0,0,0,0,0c0,0,0,0,0,0
		c1.1-0.4,2.3-0.8,3.7-1.1c0,0,0,0,0,0C65,33.5,64.6,32.4,63.8,31.6"/>
	<path style="fill:#6DCFF6;" d="M87.4,35.5c-2.5-0.3-4.9-0.5-7.2-0.6c-1.2-0.1-2.4-0.1-3.5-0.1c-4.2,0-7.7,0.2-10.6,0.9
		c-1,0.2-2,0.5-2.8,0.8c0,0,0,0,0,0c0,0,0,0,0,0c2,0.8,3.8,1.7,5.1,2.8c0,0,0,0,0,0l0,0C72.4,37.7,79.1,35.7,87.4,35.5
		C87.4,35.5,87.4,35.5,87.4,35.5C87.4,35.5,87.4,35.5,87.4,35.5"/>
	<path style="fill:#C1CD23;" d="M66.7,39.8c-1.5-1.1-3.4-2-5.5-2.8c-1.4-0.5-3-1-4.7-1.3c-2.5-0.5-5.3-0.9-8.3-1
		c-0.9,0-1.8-0.1-2.7-0.1c-4,0-8.4,0.3-13.1,0.9c0,0,0,0,0,0c0,0,0,0,0,0c0.3,0,0.7,0,1,0.1c2,0.1,4.2,0.2,6.1,0.4
		c5.6,0.6,15.7,2.4,21,6.8c0,0,0,0,0,0c0,0,0,0,0,0c0,0,1.6-0.9,2.9-1.5C65.1,40.5,66.4,40,66.7,39.8C66.7,39.9,66.7,39.9,66.7,39.8
		C66.7,39.8,66.7,39.8,66.7,39.8"/>
	<path style="fill:#007AC1;" d="M34.8,81.9c-1.3,0-2.1-0.9-2.1-2.3c0-1.4,0.8-2.3,2.1-2.3c0.5,0,0.9,0.1,1.2,0.3l-0.1,0.8
		c-0.3-0.2-0.6-0.4-1.1-0.4c-0.8,0-1.3,0.6-1.3,1.6c0,1,0.5,1.5,1.3,1.5c0.4,0,0.8-0.1,1.1-0.4l0.1,0.7
		C35.7,81.7,35.3,81.9,34.8,81.9"/>
	<path style="fill:#007AC1;" d="M38.8,78.1h-0.5v1.4h0.4c0.5,0,0.9-0.2,0.9-0.7C39.6,78.3,39.3,78.1,38.8,78.1 M40.7,81.7l-0.9,0.2
		l-1.2-1.7h-0.4v1.7h-0.8v-4.4h1.4c1,0,1.6,0.5,1.6,1.3c0,0.6-0.3,1-0.9,1.2L40.7,81.7z"/>
	<polygon style="fill:#007AC1;" points="41.9,81.8 41.9,77.4 44.5,77.4 44.5,78.1 42.8,78.1 42.8,79.2 44.1,79.2 44.2,79.9 
		42.8,79.9 42.8,81.1 44.5,81.1 44.5,81.8 	"/>
	<path style="fill:#007AC1;" d="M47.3,78.1h-0.6v3h0.5c0.9,0,1.5-0.5,1.5-1.5C48.7,78.6,48.1,78.1,47.3,78.1 M47.3,81.8h-1.4v-4.4
		h1.4c1.5,0,2.3,0.9,2.3,2.2C49.6,80.9,48.8,81.8,47.3,81.8"/>
	<rect x="51" y="77.4" style="fill:#007AC1;" width="0.9" height="4.4"/>
	<polygon style="fill:#007AC1;" points="55.4,78.1 55.4,81.8 54.5,81.8 54.5,78.1 53.2,78.1 53.2,77.4 56.6,77.4 56.8,78.1 	"/>
	<path style="fill:#007AC1;" d="M61.7,81.9c-1.1,0-1.8-0.6-1.8-1.8v-2.7h0.8v2.7c0,0.7,0.3,1.1,0.9,1.1c0.6,0,0.9-0.4,0.9-1.1v-2.7
		h0.9v2.7C63.5,81.3,62.8,81.9,61.7,81.9"/>
	<polygon style="fill:#007AC1;" points="67.9,81.8 65.8,78.8 65.8,81.8 65,81.8 65,77.4 65.8,77.4 67.8,80.3 67.8,77.4 68.6,77.4 
		68.6,81.8 	"/>
	<rect x="70.2" y="77.4" style="fill:#007AC1;" width="0.9" height="4.4"/>
	<path style="fill:#007AC1;" d="M74.6,78c-0.8,0-1.2,0.6-1.2,1.6c0,1,0.5,1.6,1.2,1.6c0.8,0,1.2-0.6,1.2-1.6
		C75.8,78.7,75.3,78,74.6,78 M74.6,81.9c-1.3,0-2.1-0.9-2.1-2.3c0-1.4,0.8-2.3,2.1-2.3c1.3,0,2.1,0.9,2.1,2.3
		C76.6,81,75.8,81.9,74.6,81.9"/>
	<polygon style="fill:#007AC1;" points="80.9,81.8 78.8,78.8 78.8,81.8 78,81.8 78,77.4 78.8,77.4 80.8,80.3 80.8,77.4 81.6,77.4 
		81.6,81.8 	"/>
	<polygon style="fill:#007AC1;" points="22,72.8 22,46.1 25.8,44.9 25.8,69.4 34.9,69.4 34.9,72.8 	"/>
	<polygon style="fill:#007AC1;" points="37.5,72.8 37.5,54 41.2,52.7 41.2,72.8 	"/>
	<path style="fill:#007AC1;" d="M52.8,55.6c-1.8,0-2.8,0.5-3.7,0.9v13.1c0.8,0.3,1.7,0.5,3,0.5c3.8,0,6.7-3.4,6.7-7.7
		C58.8,58.5,56.6,55.6,52.8,55.6 M51.3,73.2c-2.8,0-4.8-0.6-5.9-1.3V44l3.7-1.2v10.3c1.4-0.5,2.7-0.8,4.3-0.8c4.7,0,9.1,3.2,9.1,9.8
		C62.5,69.1,57.4,73.2,51.3,73.2"/>
	<path style="fill:#007AC1;" d="M80.2,62.7c0,4.4,2.1,7.4,5.6,7.4c3.5,0,5.5-3,5.5-7.4c0-4.4-2-7.4-5.6-7.4S80.2,58.3,80.2,62.7
		 M92.4,54.9c1.8,1.9,2.8,4.6,2.8,7.8c0,3.2-1,6-2.8,7.8c-1.7,1.7-3.9,2.6-6.6,2.6c-2.6,0-4.8-0.8-6.5-2.5c-1.9-1.9-2.9-4.7-2.9-8
		c0-3.3,1-6,2.8-7.9c1.7-1.7,3.9-2.7,6.6-2.7C88.5,52.2,90.8,53.2,92.4,54.9"/>
	<path style="fill:#007AC1;" d="M76.3,52.8c-0.9-0.2-1.7-0.3-2.5-0.3c-1.4,0-2.5,0.1-4,0.6c-1.7,0.6-3.4,1.8-4.7,3.2l-0.2,0.3v16.1
		h3.8V57.6c1.3-1.1,2.9-2,4.5-2h0c0.4,0,1.2,0,1.8,0.2l0.2,0l0.1-0.2c0.3-0.6,0.6-1.3,1-2l0.4-0.8L76.3,52.8z"/>
</g>
</svg>
