<?xml version="1.0" encoding="utf-8"?>
<!-- Generator: Adobe Illustrator 19.1.0, SVG Export Plug-In . SVG Version: 6.00 Build 0)  -->
<svg version="1.1" id="Layer_1" xmlns="http://www.w3.org/2000/svg" xmlns:xlink="http://www.w3.org/1999/xlink" x="0px" y="0px"
	 viewBox="0 0 119 119" style="enable-background:new 0 0 119 119;" xml:space="preserve">
<metadata><?xpacket begin="﻿" id="W5M0MpCehiHzreSzNTczkc9d"?>
<x:xmpmeta xmlns:x="adobe:ns:meta/" x:xmptk="Adobe XMP Core 5.6-c067 79.157747, 2015/03/30-23:40:42        ">
   <rdf:RDF xmlns:rdf="http://www.w3.org/1999/02/22-rdf-syntax-ns#">
      <rdf:Description rdf:about=""/>
   </rdf:RDF>
</x:xmpmeta>
                                                                                                    
                                                                                                    
                                                                                                    
                                                                                                    
                                                                                                    
                                                                                                    
                                                                                                    
                                                                                                    
                                                                                                    
                                                                                                    
                                                                                                    
                                                                                                    
                                                                                                    
                                                                                                    
                                                                                                    
                                                                                                    
                                                                                                    
                                                                                                    
                                                                                                    
                                                                                                    
                           
<?xpacket end="w"?></metadata>
<g>
	<line style="fill:#ED1C24;stroke:#ED1C24;stroke-width:0.3554;" x1="35.5" y1="65.7" x2="108.9" y2="65.7"/>
	<g>
		<path d="M90.5,67.9c0.2-0.7-0.3-0.9-0.5-0.9l-2,0l-1,3.7l1.7,0c0.7,0,1.3-0.2,1.5-1c0.1-0.5-0.1-0.9-0.4-0.9l0,0
			C90.1,68.7,90.4,68.4,90.5,67.9z M89.2,69.6C89.1,70,88.9,70,88.6,70l-0.4,0l0.2-0.8l0.4,0C89.1,69.2,89.3,69.2,89.2,69.6z
			 M89.5,68c-0.1,0.5-0.4,0.4-0.7,0.4l-0.3,0l0.2-0.7l0.3,0C89.3,67.7,89.6,67.7,89.5,68z"/>
		<path d="M100.7,67l-1.8,0l-1,3.7l1.6,0c1.1,0,1.8-0.8,2.1-1.9C102,67.3,101.1,67,100.7,67z M100.6,68.9c-0.1,0.6-0.5,1.1-1.1,1.1
			l-0.4,0l0.5-2.1l0.5,0C100.6,67.8,100.8,68.2,100.6,68.9z"/>
		<path d="M36.9,67l-1.8,0l-1,3.7l1.6,0c1.1,0,1.8-0.8,2.1-1.9C38.2,67.3,37.3,67,36.9,67z M36.8,68.9c-0.1,0.6-0.5,1.1-1.1,1.1
			l-0.4,0l0.5-2.1l0.5,0C36.9,67.8,37,68.2,36.8,68.9z"/>
		<g>
			<polygon points="104.5,68.5 104.3,69.3 103,69.3 102.8,69.9 104.4,69.9 104.2,70.7 101.6,70.7 102.6,67 105.1,67 104.9,67.8 
				103.4,67.8 103.2,68.4 			"/>
		</g>
		<g>
			<polygon points="71.6,67 72.6,67 72.2,68.4 73.5,68.4 73.8,67 74.8,67 73.9,70.7 72.9,70.7 73.3,69.2 72,69.2 71.6,70.7 
				70.6,70.7 			"/>
		</g>
		<g>
			<polygon points="66.6,67 67.6,67 66.6,70.7 65.6,70.7 			"/>
		</g>
		<g>
			<path d="M105.7,67l1.7,0c0.8,0,1.1,0.4,0.9,1.1c-0.1,0.4-0.5,0.8-0.9,0.9c0.1,0.6,0.2,1.2,0.3,1.7l-1.1,0c0-0.7-0.1-1.4-0.2-2.1
				c0.1,0,0.2,0,0.2,0c0.3,0,0.6-0.1,0.7-0.5c0.1-0.4-0.2-0.4-0.3-0.4l-0.5,0l-0.8,3l-1,0L105.7,67z"/>
		</g>
		<g>
			<path d="M95.5,67l1.7,0c0.8,0,1.1,0.4,0.9,1.1c-0.1,0.4-0.5,0.8-0.9,0.9c0.1,0.6,0.2,1.2,0.3,1.7l-1.1,0c0-0.7-0.1-1.4-0.2-2.1
				c0.1,0,0.2,0,0.2,0c0.3,0,0.6-0.1,0.7-0.5c0.1-0.4-0.2-0.4-0.3-0.4l-0.5,0l-0.8,3l-1,0L95.5,67z"/>
		</g>
		<g>
			<path d="M53.5,67l1.7,0c0.8,0,1.1,0.4,0.9,1.1c-0.1,0.4-0.5,0.8-0.9,0.9c0.1,0.6,0.2,1.2,0.3,1.7l-1.1,0c0-0.7-0.1-1.4-0.2-2.1
				c0.1,0,0.2,0,0.2,0c0.3,0,0.6-0.1,0.7-0.5c0.1-0.4-0.2-0.4-0.3-0.4l-0.5,0l-0.8,3l-1,0L53.5,67z"/>
		</g>
		<g>
			<polygon points="83,67 86,67 85.8,67.8 84.8,67.8 84.1,70.7 83.1,70.7 83.8,67.8 82.8,67.8 			"/>
		</g>
		<g>
			<polygon points="68.1,67 71.1,67 70.8,67.8 69.9,67.8 69.1,70.7 68.1,70.7 68.9,67.8 67.9,67.8 			"/>
		</g>
		<g>
			<polygon points="46,67 49,67 48.8,67.8 47.8,67.8 47.1,70.7 46.1,70.7 46.8,67.8 45.8,67.8 			"/>
		</g>
		<g>
			<path d="M80.5,67l-0.5,2.1c-0.1,0.5-0.1,0.9,0.4,0.9c0.4,0,0.7-0.3,0.8-0.9l0.5-2.1l1,0L82,69.5c-0.2,0.9-1,1.3-1.9,1.3
				c-0.9,0-1.5-0.4-1.2-1.3l0.6-2.5L80.5,67z"/>
		</g>
		<g>
			<polygon points="66,67 64.1,70.7 62.9,70.7 63.1,68.4 63.1,68.4 62.1,70.7 60.9,70.7 61.1,67 62,67 61.9,69.6 61.9,69.6 63,67 
				64,67 63.8,69.6 63.8,69.6 65.1,67 			"/>
		</g>
		<g>
			<path d="M44.6,70.7c-0.3,0-0.7,0.1-0.9,0.1c-1.1,0-1.7-0.7-1.4-1.9c0.3-1.2,1.3-1.9,2.4-1.9c0.3,0,0.6,0,0.8,0.1l-0.1,0.9
				c-0.2-0.1-0.5-0.2-0.7-0.2c-0.8,0-1.2,0.6-1.3,1.1c-0.1,0.6,0,1.1,0.6,1.1c0.4,0,0.7-0.1,1-0.1L44.6,70.7z"/>
		</g>
		<g>
			<path d="M56.1,69.7c0.2,0.1,0.5,0.3,0.8,0.3c0.2,0,0.4,0,0.5-0.3c0.1-0.5-1-0.9-0.7-1.8c0.1-0.4,0.5-1,1.4-1c0.3,0,0.6,0,0.8,0.1
				l-0.1,0.9c-0.2-0.1-0.4-0.2-0.6-0.2c-0.2,0-0.4,0.1-0.5,0.3c-0.1,0.6,1,0.8,0.7,1.8c-0.1,0.5-0.6,1-1.5,1c-0.3,0-0.6-0.1-0.9-0.1
				L56.1,69.7z"/>
		</g>
		<g>
			<path d="M108.3,69.7c0.2,0.1,0.5,0.3,0.8,0.3c0.2,0,0.4,0,0.5-0.3c0.1-0.5-1-0.9-0.7-1.8c0.1-0.4,0.5-1,1.4-1
				c0.3,0,0.6,0,0.8,0.1l-0.1,0.9c-0.2-0.1-0.4-0.2-0.6-0.2c-0.2,0-0.4,0.1-0.5,0.3c-0.1,0.6,1,0.8,0.7,1.8c-0.1,0.5-0.6,1-1.5,1
				c-0.3,0-0.6-0.1-0.9-0.1L108.3,69.7z"/>
		</g>
		<path d="M40.6,66.9c-1.1,0-2.1,0.7-2.4,1.9c-0.3,1.2,0.3,1.9,1.4,1.9c1.1,0,2.1-0.7,2.4-1.9C42.3,67.6,41.7,66.9,40.6,66.9z
			 M41,68.9c-0.1,0.6-0.6,1.1-1.2,1.1c-0.6,0-0.8-0.5-0.6-1.1c0.1-0.6,0.6-1.1,1.2-1.1C41,67.8,41.1,68.3,41,68.9z"/>
		<path d="M51,66.9c-1.1,0-2.1,0.7-2.4,1.9c-0.3,1.2,0.3,1.9,1.4,1.9c1.1,0,2.1-0.7,2.4-1.9C52.7,67.6,52.1,66.9,51,66.9z
			 M51.4,68.9c-0.1,0.6-0.6,1.1-1.2,1.1c-0.6,0-0.8-0.5-0.6-1.1c0.1-0.6,0.6-1.1,1.2-1.1C51.4,67.8,51.6,68.3,51.4,68.9z"/>
		<path d="M77.2,66.9c-1.1,0-2.1,0.7-2.4,1.9c-0.3,1.2,0.3,1.9,1.4,1.9c1.1,0,2.1-0.7,2.4-1.9C78.9,67.6,78.3,66.9,77.2,66.9z
			 M77.6,68.9C77.4,69.5,77,70,76.4,70c-0.6,0-0.8-0.5-0.6-1.1c0.1-0.6,0.6-1.1,1.2-1.1C77.6,67.8,77.7,68.3,77.6,68.9z"/>
		<path d="M93.1,66.9c-1.1,0-2.1,0.7-2.4,1.9c-0.3,1.2,0.3,1.9,1.4,1.9c1.1,0,2.1-0.7,2.4-1.9C94.8,67.6,94.2,66.9,93.1,66.9z
			 M93.5,68.9c-0.1,0.6-0.6,1.1-1.2,1.1c-0.6,0-0.8-0.5-0.6-1.1c0.1-0.6,0.6-1.1,1.2-1.1C93.5,67.8,93.7,68.3,93.5,68.9z"/>
	</g>
	<g>
		<path d="M69.2,60.6l-1.2,0c-0.8,1.3-1.7,2.6-2.5,3.8l1.1,0l0.7-1.1l1.2,0l0.1,1.1l1.1,0C69.4,63.1,69.3,61.8,69.2,60.6z
			 M67.7,62.5l0.7-1.1h0l0.1,1.1L67.7,62.5z"/>
		<path d="M46.1,60.6l-1.8,0l-1,3.8l1.6,0c1.1,0,1.8-0.8,2.1-1.9C47.5,60.9,46.6,60.6,46.1,60.6z M46.1,62.5
			c-0.1,0.6-0.5,1.1-1.1,1.1l-0.4,0l0.6-2.2l0.5,0C46.1,61.4,46.2,61.8,46.1,62.5z"/>
		<g>
			<polygon points="50,62.1 49.8,62.9 48.4,62.9 48.2,63.6 49.8,63.6 49.6,64.4 47,64.4 48,60.6 50.6,60.6 50.4,61.4 48.8,61.4 
				48.6,62.1 			"/>
		</g>
		<g>
			<polygon points="43.1,62.1 42.9,62.9 41.6,62.9 41.4,63.6 43,63.6 42.8,64.4 40.2,64.4 41.2,60.6 43.8,60.6 43.6,61.4 42,61.4 
				41.8,62.1 			"/>
		</g>
		<g>
			<polygon points="54.3,60.6 55.3,60.6 54.3,64.4 53.3,64.4 			"/>
		</g>
		<g>
			<polygon points="38.1,60.6 38.1,63 38.1,63 39.3,60.6 40.6,60.6 39.6,64.4 38.8,64.4 39.5,61.7 39.5,61.7 38.1,64.4 37.2,64.4 
				37.3,61.7 37.3,61.7 36.6,64.4 35.8,64.4 36.8,60.6 			"/>
		</g>
		<g>
			<polygon points="70.9,60.6 72.1,60.6 72.7,63.1 72.7,63.1 73.3,60.6 74.2,60.6 73.2,64.4 72,64.4 71.4,62 71.4,62 70.8,64.4 
				69.9,64.4 			"/>
		</g>
		<g>
			<polygon points="56,60.6 57.1,60.6 57.7,63.1 57.8,63.1 58.4,60.6 59.3,60.6 58.3,64.4 57.1,64.4 56.5,62 56.5,62 55.9,64.4 
				55,64.4 			"/>
		</g>
		<g>
			<path d="M52.8,64.4c-0.3,0-0.7,0.1-0.9,0.1c-1.1,0-1.7-0.7-1.4-2c0.3-1.3,1.3-2,2.4-2c0.3,0,0.6,0,0.8,0.1l-0.1,0.9
				c-0.2-0.1-0.5-0.2-0.7-0.2c-0.8,0-1.2,0.6-1.4,1.1c-0.2,0.6,0,1.1,0.6,1.1c0.4,0,0.7-0.1,1-0.2L52.8,64.4z"/>
		</g>
		<g>
			<path d="M59.1,63.4c0.2,0.1,0.5,0.3,0.8,0.3c0.2,0,0.5,0,0.5-0.3c0.1-0.5-1-0.9-0.8-1.9c0.1-0.4,0.5-1,1.4-1c0.3,0,0.6,0,0.8,0.1
				l-0.1,0.9c-0.2-0.1-0.4-0.2-0.7-0.2c-0.2,0-0.4,0.1-0.5,0.3c-0.1,0.6,1,0.8,0.8,1.8c-0.1,0.5-0.6,1-1.5,1c-0.3,0-0.6-0.1-0.9-0.1
				L59.1,63.4z"/>
		</g>
		<g>
			<path d="M63.3,63.4c0.2,0.1,0.5,0.3,0.8,0.3c0.2,0,0.5,0,0.5-0.3c0.1-0.5-1-0.9-0.8-1.9c0.1-0.4,0.5-1,1.4-1c0.3,0,0.6,0,0.8,0.1
				L66,61.5c-0.2-0.1-0.4-0.2-0.7-0.2c-0.2,0-0.4,0.1-0.5,0.3c-0.1,0.6,1,0.8,0.8,1.8c-0.1,0.5-0.6,1-1.5,1c-0.3,0-0.6-0.1-0.9-0.1
				L63.3,63.4z"/>
		</g>
		<g>
			<path d="M74.1,63.4c0.2,0.1,0.5,0.3,0.8,0.3c0.2,0,0.5,0,0.5-0.3c0.1-0.5-1-0.9-0.8-1.9c0.1-0.4,0.5-1,1.4-1c0.3,0,0.6,0,0.8,0.1
				l-0.1,0.9c-0.2-0.1-0.4-0.2-0.7-0.2c-0.2,0-0.4,0.1-0.5,0.3c-0.1,0.6,1,0.8,0.8,1.8c-0.1,0.5-0.6,1-1.5,1c-0.3,0-0.6-0.1-0.9-0.1
				L74.1,63.4z"/>
		</g>
		<g>
			<polygon points="100.6,62.1 100.4,62.9 99,62.9 98.8,63.6 100.4,63.6 100.2,64.4 97.6,64.4 98.6,60.6 101.2,60.6 101,61.4 
				99.4,61.4 99.2,62.1 			"/>
		</g>
		<g>
			<polygon points="107.1,62.1 106.9,62.9 105.6,62.9 105.4,63.6 107,63.6 106.8,64.4 104.2,64.4 105.2,60.6 107.8,60.6 107.6,61.4 
				106,61.4 105.8,62.1 			"/>
		</g>
		<g>
			<polygon points="80.9,62.1 80.7,62.9 79.5,62.9 79.1,64.4 78.1,64.4 79,60.6 81.5,60.6 81.3,61.4 79.8,61.4 79.7,62.1 			"/>
		</g>
		<g>
			<polygon points="96.9,60.6 97.9,60.6 97,64.4 95.9,64.4 			"/>
		</g>
		<g>
			<polygon points="89.6,60.6 90.8,60.6 91.4,63.1 91.4,63.1 92,60.6 92.9,60.6 91.9,64.4 90.7,64.4 90.1,62 90.1,62 89.5,64.4 
				88.6,64.4 			"/>
		</g>
		<g>
			<path d="M101.8,60.6l1.7,0c0.8,0,1.1,0.4,0.9,1.2c-0.1,0.5-0.5,0.8-1,1c0.1,0.6,0.2,1.2,0.3,1.7l-1.1,0c0-0.7-0.1-1.5-0.2-2.1
				c0.1,0,0.2,0,0.2,0c0.3,0,0.6-0.1,0.7-0.5c0.1-0.4-0.2-0.4-0.4-0.4l-0.5,0l-0.8,3l-1,0L101.8,60.6z"/>
		</g>
		<g>
			<path d="M82,60.6l1.7,0c0.8,0,1.1,0.4,0.9,1.2c-0.1,0.5-0.5,0.8-1,1c0.1,0.6,0.2,1.2,0.3,1.7l-1.1,0c0-0.7-0.1-1.5-0.2-2.1
				c0.1,0,0.2,0,0.2,0c0.3,0,0.6-0.1,0.7-0.5c0.1-0.4-0.2-0.4-0.4-0.4l-0.5,0l-0.8,3l-1,0L82,60.6z"/>
		</g>
		<g>
			<polygon points="93.4,60.6 96.4,60.6 96.2,61.4 95.2,61.4 94.4,64.4 93.4,64.4 94.2,61.4 93.2,61.4 			"/>
		</g>
		<g>
			<path d="M107.5,63.4c0.2,0.1,0.5,0.3,0.8,0.3c0.2,0,0.5,0,0.5-0.3c0.1-0.5-1-0.9-0.8-1.9c0.1-0.4,0.5-1,1.4-1
				c0.3,0,0.6,0,0.8,0.1l-0.1,0.9c-0.2-0.1-0.4-0.2-0.7-0.2c-0.2,0-0.4,0.1-0.5,0.3c-0.1,0.6,1,0.8,0.8,1.8c-0.1,0.5-0.6,1-1.5,1
				c-0.3,0-0.6-0.1-0.9-0.1L107.5,63.4z"/>
		</g>
		<path d="M87.1,60.5c-1.1,0-2.1,0.7-2.4,2c-0.3,1.3,0.3,2,1.4,2c1.1,0,2.1-0.7,2.4-2C88.9,61.2,88.3,60.5,87.1,60.5z M87.5,62.5
			c-0.2,0.6-0.6,1.1-1.2,1.1c-0.6,0-0.8-0.6-0.6-1.1c0.2-0.6,0.6-1.1,1.2-1.1C87.5,61.4,87.7,61.9,87.5,62.5z"/>
	</g>
	<g>
		<g>
			<path style="fill:#ED1C24;" d="M19.2,67.5c0.3-0.2,1.1-0.6,1.1-0.6c0.1-0.1,0.2-0.1,0.2,0c0,0.2,0,0.5,0.2,0.6
				c0.1,0,0.2-0.1,0.2,0c0.1,0.1,0.1,0.1,0.1,0.1c0,0,0.1,0,0.2,0c0.1,0.1,0,0.1,0,0.2c0.1,0.1,0.2,0,0.2,0c0.1,0,0.1,0.1,0.1,0.2
				c0,0.1,0,0.2,0.2,0c0.1-0.1,0.1,0,0.2-0.1c0,0,0.1,0,0.2,0c0,0,0.1,0.1,0.1,0.1c0.1,0,0.2,0,0.2,0c0.1,0,0.1,0.1,0.1,0.1
				c0.1,0,0.1-0.1,0.2-0.1c0.1,0.1-0.1,0.3,0,0.3c0.1,0,0.1,0,0.2,0c0.1,0,0.1-0.1,0.1-0.1c0.1,0,0.1,0.1,0.2,0
				c0.1,0,0.1-0.1,0.1-0.1c0.1,0,0.1,0,0.2-0.1c0.1,0,0-0.2,0.2-0.1c0.2,0,0,0.2,0,0.2c0.1,0,0.2,0,0.2,0c0.1,0,0.2-0.1,0.2-0.2
				c0-0.1,0.2-0.4,0.2-0.5c0.1-0.1,0.2-0.4,0.3-0.5c0.1-0.1,0.3-0.5,0.4-0.6c0-0.1,0.1-0.2,0.2-0.2c0-0.1,0.1-0.2,0.2-0.4
				c0.1-0.1,0.3-0.4,0.3-0.5c0-0.1,0.2-0.4,0.2-0.5c0.1-0.1,0.2-0.3,0.3-0.5c0-0.1,0.2-0.4,0.2-0.4l0.1-0.2c0,0,0-0.1,0.1-0.2
				c0.1-0.1,0.2-0.4,0.3-0.5c0.1-0.1,0.2-0.3,0.2-0.3l0.1-0.3l0.1-0.2c0,0,0.1-0.2,0.1-0.3c0-0.1,0.2-0.2,0.2-0.3
				c0-0.1,0.1-0.4,0.2-0.5c0.1-0.1,0.3-0.6,0.3-0.6c0-0.1,0.3-0.6,0.3-0.7c0-0.1,0-0.2,0.1-0.3c0-0.1,0.1-0.2,0.2-0.3
				c0,0,0.2-0.5,0.2-0.5c0-0.1,0-0.2,0.1-0.2c0.1,0,0.1,0.1,0.2,0.1c0.1,0.1,0.2,0.1,0.2,0.1c0.1,0.1,0.3,0.3,0.3,0.3
				c0,0,0.1,0,0.1,0.1c0,0,0,0.1,0.1,0.1c0,0,0.2,0.1,0.2,0.2c0,0.1,0.1,0.2,0.1,0.2c0,0,0.2,0.2,0.3,0.2c0,0.1,0.3,0.4,0.3,0.5
				c0,0.1,0.1,0.2,0.1,0.2c0,0,0.1,0.1,0.1,0.1c0,0,0,0.2,0,0.2c0,0,0.1,0.1,0.2,0.1c0,0,0.1,0.2,0.1,0.2c0,0,0.1,0.1,0.1,0.1
				c0,0,0,0.2,0.1,0.3c0,0,0.1,0.2,0.1,0.2c0,0.1,0.1,0.2,0.1,0.2c0,0,0,0.2,0,0.3c0,0.1,0.1,0.2,0.1,0.2c0,0,0,0.1,0,0.1l0.1,0.2
				c0,0,0.1,0.2,0.1,0.2s0,0.1,0,0.2c0,0,0.1,0.2,0.1,0.2c0,0,0.1,0.2,0.1,0.2s0,0.2,0,0.2c0,0,0.1,0.2,0.1,0.2c0,0,0,0.2,0,0.2
				l0,0.1c0,0,0,0.1,0,0.1c0,0,0,0.1,0,0.1c0,0,0.1,0.2,0.1,0.2c-0.1,0.1-3.7,1.7-5.2,2.5c-2.2,1-6.9,3.4-7.4,3.7
				c-0.5,0.3-0.8,0.5-0.9,0.4c-0.3-0.1-0.7-0.5-1-1.4c-0.3-0.7-0.3-1.3-0.2-1.6c0-0.2,0-0.4,0.3-0.6C18.3,68.1,18.9,67.7,19.2,67.5z
				"/>
			<path style="fill:#ED1C24;" d="M12.8,54.7c0,0,0.1,0,0.2,0c0,0,0.1,0.1,0.1,0.1c0,0,0.1,0,0.1,0c0.1,0,0,0.1,0.1,0.2
				c0,0.1,0.1,0.1,0.1,0.2c0.1,0,0.1,0,0.1,0.1c0,0.1,0,0.1,0,0.2c0.1,0.2,0,0.7,0.1,0.7c0.1,0,0.3,0,0.4-0.1
				c0.1-0.1,0.2-0.2,0.3-0.3c0.1-0.1,0.4-0.2,0.5-0.2c0.1,0,0.2-0.2,0.3-0.2c0.1,0,0.1-0.1,0.2-0.1c0.1,0,0.3-0.1,0.3-0.1
				c0,0,0.1,0.1,0.2,0.1c0.1,0,0.2,0,0.2,0.1c0,0.2,0.3,0,0.3,0s0.3-0.2,0.4-0.2c0.1-0.1,0.4-0.2,0.4-0.2s0.3-0.1,0.4-0.2
				c3.9-1.9,7-2.9,9.8-4c4.4-1.7,12.1-3.7,13.5-4c0.2,0,0.5-0.1,0.5-0.1c0,0,0.1,0,0.1-0.2c0-0.1-0.1-0.3-0.1-0.4s0.2-0.3,0.2-0.5
				c0-0.1-0.1-0.1-0.1-0.1s0-0.2,0-0.3c0-0.1-0.2-0.2-0.3-0.3c0-0.1,0-0.3,0-0.4c0-0.1-0.1-0.2-0.1-0.2s0,0,0-0.1
				c0-0.1-0.1-0.1-0.1-0.1s0-0.2,0-0.2c0-0.1-0.1-0.1-0.1-0.1s-0.1-0.1-0.1-0.1s0-0.1-0.1-0.2c-0.1,0-0.2,0-0.3-0.1
				c-0.1,0-0.2-0.1-0.3,0c-0.1,0-0.1,0.1-0.4,0.1c-0.2,0.1-0.3,0-0.5,0c-0.1,0-0.2,0.1-0.3,0.1c-1.2,0.3-6.6,1.9-10.6,3.4
				c-3.7,1.4-8.2,3.4-10.9,4.8c-2,1.1-3.1,1.7-3.6,2c-0.2,0.1-0.5,0.3-0.5,0.4c-0.1,0.1-0.1,0.3-0.3,0.3c-0.2,0-0.1,0.1-0.2,0.1
				c-0.1,0-0.1,0.1-0.2,0.1C12.7,54.6,12.7,54.6,12.8,54.7z"/>
			<path style="fill:#ED1C24;" d="M29.7,52.2c-0.2-0.1-0.1-0.2,0.1-0.3c1.3-0.6,4.6-1.7,6.4-2.3c1.6-0.5,6-1.9,7.3-2.3
				c0.3-0.1,0.4-0.1,0.5,0.1c0.3,0.4,0.7,0.8,1,1.4c0.3,0.5,0.5,1.3,0.6,1.8c0.1,0.4-0.1,0.4-0.3,0.5c-1.4,0.6-4.7,2.1-6.1,2.8
				c-1.4,0.6-3.9,1.9-4.7,2.3c-0.4,0.2-0.3,0.3-0.5,0c-0.1-0.1-0.2-0.3-0.2-0.3c0-0.1-0.5-0.5-0.6-0.5c-0.1-0.1-0.3-0.4-0.4-0.4
				c-0.1-0.1-0.3-0.4-0.4-0.4c-0.1,0-0.2-0.1-0.2-0.1c-0.1-0.1-0.1-0.2-0.2-0.2c-0.1,0-0.2-0.2-0.2-0.2l-0.2-0.1l-0.1-0.2
				c0,0-0.1-0.2-0.2-0.2c-0.1,0-0.2-0.2-0.2-0.2c0-0.1-0.3-0.4-0.5-0.5c-0.1-0.1-0.5-0.3-0.5-0.4C29.9,52.4,29.8,52.3,29.7,52.2z"/>
			<path style="fill:#ED1C24;" d="M34.6,57c-0.1-0.1,0-0.2,0.2-0.2c0.6-0.2,4-1.3,6.9-2.1c3-0.8,7.2-1.7,7.9-1.8
				c0.3-0.1,0.4,0,0.5,0.2c0.2,0.3,0.5,1.1,0.6,1.8c0.2,0.9,0,1.7-0.1,1.9c-0.1,0.2-0.3,0.2-0.9,0.3c-0.3,0.1-1.8,0.5-2.4,0.6
				c-0.7,0.2-2.5,0.7-3.2,1c-0.8,0.3-1.9,0.7-1.9,0.7l-5.9,0.1c0,0-0.1-0.4-0.1-0.4c-0.1,0-0.1-0.2-0.2-0.3
				c-0.1-0.1-0.1-0.2-0.1-0.2s-0.1-0.2-0.1-0.2c-0.1,0-0.2-0.3-0.2-0.4c-0.1,0-0.2-0.2-0.2-0.3c-0.1-0.1-0.1-0.2-0.2-0.2
				c-0.1-0.1-0.2-0.2-0.3-0.2C34.8,57.2,34.8,57.1,34.6,57z"/>
			<path style="fill:#ED1C24;" d="M27.5,45.7c-0.2,0-0.3,0-0.4,0c0,0,0-0.1,0-0.1c0,0-0.1,0-0.2,0c0,0,0,0-0.1,0
				c-0.1,0-0.3-0.1-0.4,0c-0.1,0-0.2,0-0.3,0c-0.1,0-0.1-0.2-0.2-0.2c-0.1,0-0.2-0.1-0.3-0.2c-0.1-0.1-0.2-0.2-0.2-0.3
				c0-0.1-0.1-0.2-0.1-0.2c0-0.1-0.1-0.2-0.1-0.2c0,0-0.1-0.1-0.1-0.1c0,0-0.1-0.2-0.1-0.2c0,0-0.1-0.1-0.1-0.1c0,0,0-0.1,0-0.1
				c0,0-0.1-0.1-0.1-0.2c0,0,0-0.4,0-0.6c0-0.2,0-0.4,0-0.5c0-0.1,0.1-0.2,0.1-0.3c0-0.1,0.1-0.4,0.2-0.6c0-0.1,0.1-0.4,0.1-0.5
				c0-0.1,0.1-0.4,0.2-0.4c0.1-0.1,0.2-0.4,0.3-0.5c0.1-0.1,0.4-0.5,0.5-0.5c0.1-0.1,0.3-0.2,0.3-0.3c0,0,0.3-0.2,0.4-0.3
				c0.1,0,0.2,0,0.2,0l0.1-0.1c0,0,0-0.1,0.1-0.1c0,0,0.2,0,0.2,0s0.1-0.1,0.3-0.1c0.1,0,0.1-0.1,0.1-0.1c0.1,0,0.2,0,0.3,0
				c0,0,0.1,0.1,0.2,0.1c0.1,0,0.2,0,0.2,0c0.1,0,0.1,0.1,0.2,0.1c0,0,0.5,0.5,0.6,0.6c0,0,0,0.1,0,0.1c0,0,0.1,0.1,0.1,0.2
				c0,0.1,0.1,0.1,0.1,0.3c0,0.1,0.2,0.2,0.2,0.3c0,0,0,0.2,0,0.2c0,0,0,0,0.1,0.1c0,0.1,0,0.1,0,0.2c0,0.1,0.1,0.3,0.1,0.5
				c0,0.2,0,0.3-0.1,0.5c0,0.1,0,0.4,0,0.5c0,0.1-0.1,0.3-0.1,0.4c0,0.1-0.2,0.6-0.2,0.6c0,0.1-0.1,0.3-0.2,0.3
				c-0.1,0.1-0.5,0.6-0.5,0.7c-0.1,0.1-0.3,0.2-0.3,0.3c0,0.1-0.1,0.2-0.1,0.2c-0.1,0.1-0.2,0-0.2,0.1c-0.1,0.1-0.2,0.2-0.2,0.2
				c0,0.1-0.1,0.2-0.2,0.2C27.9,45.6,27.7,45.7,27.5,45.7z"/>
			<path style="fill:#ED1C24;" d="M15.8,62.9c0,0-1.7,0.6-2.4,0.8c-0.6,0.2-1.4,0.5-1.8,0.7C11,64.6,10,65,9.7,65.1
				c-0.4,0.1-0.5,0.1-0.6-0.2c-0.1-0.2-0.4-0.7-0.5-1.3c-0.1-0.6-0.2-1-0.2-1.2c0-0.2,0.1-0.5,0.3-0.6c0.2-0.1,0.7-0.4,1.1-0.6
				c0.8-0.4,3.4-1.8,5-2.7c1.7-0.9,4.3-2.1,5.7-2.8c1.4-0.7,3.7-1.8,4-1.9c0.3-0.1,0.6-0.3,0.7-0.3c0.1,0,0.1,0.1,0.1,0.1
				c0,0.1,0,0.1-0.1,0.2c0,0.1,0,0.2,0,0.3c0,0.1-0.1,0.2-0.1,0.3c0,0.1,0,0.3-0.1,0.4c-0.1,0.1-0.3,0.6-0.4,0.8
				c-0.1,0.2-0.2,0.6-0.2,0.7c-0.1,0.1-0.2,0.4-0.2,0.5c0,0.1-0.1,0.4-0.2,0.5c0,0.1-0.2,0.5-0.3,0.6c0,0.1-0.2,0.5-0.2,0.6
				c0,0.1-0.2,0.3-0.2,0.3l-0.1,0.3c0,0-0.2,0.3-0.2,0.3c0,0.1-0.1,0.5-0.2,0.6c-0.1,0.1-0.4,0.9-0.5,1.1c-0.1,0.3-0.2,0.6-0.2,0.7
				c0,0.1-0.2,0.4-0.3,0.5c0,0.1-0.2,0.6-0.2,0.7c-0.1,0.1-0.2,0.4-0.2,0.5c0,0.1-0.1,0.3-0.2,0.5c-0.1,0.2-0.2,0.5-0.2,0.6
				c-0.1,0.1-0.1,0.2-0.1,0.3c0,0.1,0,0.3-0.1,0.3c0,0.1-0.1,0.1-0.1,0.1c-0.1,0-4.8,2.1-5.4,2.4c-0.7,0.3-5.4,2.6-5.7,2.7
				c-0.3,0.1-0.7,0.4-1,0.2c-0.4-0.3-0.7-0.8-1-1.3c-0.2-0.4-0.4-1.1-0.5-1.5c0-0.6,0.2-0.7,1.1-1.2c0.4-0.3,3.8-2.1,4.9-2.6
				C13.6,64.1,15.8,62.9,15.8,62.9z"/>
		</g>
	</g>
</g>
</svg>
