<?xml version="1.0" encoding="utf-8"?>
<!-- Generator: Adobe Illustrator 19.1.0, SVG Export Plug-In . SVG Version: 6.00 Build 0)  -->
<svg version="1.1" id="Layer_1" xmlns="http://www.w3.org/2000/svg" xmlns:xlink="http://www.w3.org/1999/xlink" x="0px" y="0px"
	 viewBox="0 0 119 119" style="enable-background:new 0 0 119 119;" xml:space="preserve">
<metadata><?xpacket begin="﻿" id="W5M0MpCehiHzreSzNTczkc9d"?>
<x:xmpmeta xmlns:x="adobe:ns:meta/" x:xmptk="Adobe XMP Core 5.6-c067 79.157747, 2015/03/30-23:40:42        ">
   <rdf:RDF xmlns:rdf="http://www.w3.org/1999/02/22-rdf-syntax-ns#">
      <rdf:Description rdf:about=""/>
   </rdf:RDF>
</x:xmpmeta>
                                                                                                    
                                                                                                    
                                                                                                    
                                                                                                    
                                                                                                    
                                                                                                    
                                                                                                    
                                                                                                    
                                                                                                    
                                                                                                    
                                                                                                    
                                                                                                    
                                                                                                    
                                                                                                    
                                                                                                    
                                                                                                    
                                                                                                    
                                                                                                    
                                                                                                    
                                                                                                    
                           
<?xpacket end="w"?></metadata>
<path d="M10.5,61.9h2.4v1.4c0,1.2,0.4,1.9,1.4,1.9c1.3,0,1.6-0.9,1.6-2c0-1.5-0.1-1.9-2.6-4.4c-1.5-1.5-2.8-2.9-2.8-5.3
	c0-2.8,1.3-4.1,3.9-4.1c1.3,0,2.2,0.4,2.8,1c0.4,0.4,0.7,1,0.7,2.2v1.6h-2.3v-1.4c0-1-0.4-1.6-1.3-1.6c-1,0-1.4,0.6-1.4,1.9
	c0,1.2,0.2,1.9,2.4,4.2c2.4,2.4,2.8,3.3,2.8,5.4c0,2.7-1.1,4.3-3.9,4.3c-2.2,0-3.7-0.9-3.7-3.1V61.9z"/>
<rect x="21" y="49.6" width="2.4" height="17.3"/>
<path d="M26.4,61.9h2.4v1.4c0,1.2,0.4,1.9,1.4,1.9c1.3,0,1.6-0.9,1.6-2c0-1.5-0.1-1.9-2.6-4.4c-1.5-1.5-2.8-2.9-2.8-5.3
	c0-2.8,1.3-4.1,3.9-4.1c1.3,0,2.2,0.4,2.8,1c0.4,0.4,0.7,1,0.7,2.2v1.6h-2.3v-1.4c0-1-0.4-1.6-1.3-1.6c-1,0-1.4,0.6-1.4,1.9
	c0,1.2,0.2,1.9,2.4,4.2c2.4,2.4,2.8,3.3,2.8,5.4c0,2.7-1.1,4.3-3.9,4.3c-2.2,0-3.7-0.9-3.7-3.1V61.9z"/>
<polygon points="37,49.6 39.4,49.6 39.4,57.5 39.4,57.5 43.2,49.6 45.6,49.6 41.6,57.8 45.9,67 43.2,67 39.4,58.3 39.4,58.3 
	39.4,67 37,67 "/>
<rect x="48.4" y="49.6" width="2.4" height="17.3"/>
<polygon points="54.8,49.6 58.1,49.6 60.9,64 60.9,64 60.9,49.6 63.2,49.6 63.2,67 59.7,67 56.9,52.2 56.9,52.2 56.9,67 54.8,67 "/>
<path d="M67.1,49.6h3.9c3.9,0,4.2,1.3,4.2,6.3v5.2c0,4.4-0.8,5.8-4.6,5.8h-3.5V49.6z M69.5,64.9h1.2c1.8,0,2.1-0.9,2.1-3.9v-5.9
	c0-2.6-0.3-3.4-2.3-3.4h-1V64.9z"/>
<path d="M77.8,61.9h2.4v1.4c0,1.2,0.4,1.9,1.4,1.9c1.3,0,1.6-0.9,1.6-2c0-1.5-0.1-1.9-2.6-4.4c-1.5-1.5-2.8-2.9-2.8-5.3
	c0-2.8,1.3-4.1,3.9-4.1c1.3,0,2.2,0.4,2.8,1c0.4,0.4,0.7,1,0.7,2.2v1.6H83v-1.4c0-1-0.4-1.6-1.3-1.6c-1,0-1.4,0.6-1.4,1.9
	c0,1.2,0.2,1.9,2.4,4.2c2.3,2.4,2.8,3.3,2.8,5.4c0,2.7-1.1,4.3-3.9,4.3c-2.2,0-3.7-0.9-3.7-3.1V61.9z"/>
<polygon points="99,49.6 99,50.1 98.4,50.1 98.4,53.6 97.9,53.6 97.9,50.1 97.2,50.1 97.2,49.6 "/>
<polygon points="102.7,49.6 102.7,51.2 103.5,51.2 103.5,49.6 104,49.6 104,53.6 103.5,53.6 103.5,51.7 102.7,51.7 102.7,53.6 
	102.2,53.6 102.2,49.6 "/>
<polygon points="108.9,49.6 108.9,50.1 108,50.1 108,51.3 108.8,51.3 108.8,51.8 108,51.8 108,53.2 108.9,53.2 108.9,53.6 
	107.4,53.6 107.4,49.6 "/>
<polygon points="98.7,63 98.7,63.4 97.8,63.4 97.8,64.7 98.7,64.7 98.7,65.1 97.8,65.1 97.8,67 97.3,67 97.3,63 "/>
<rect x="100.5" y="63" width="0.5" height="4"/>
<path d="M103,63h0.6c0.4,0,1,0,1,1c0,0.4-0.1,0.9-0.5,1l0.7,1.9h-0.5l-0.7-1.9h0V67H103V63z M104,64.1c0-0.4,0-0.7-0.4-0.7h-0.1v1.3
	C103.9,64.8,104,64.5,104,64.1"/>
<polygon points="107,63 107.5,65.8 107.5,65.8 107.5,65.7 107.7,64.7 108,63 108.5,63 108.9,67 108.4,67 108.3,65.5 108.2,64.7 
	108.2,64.2 108.2,64.2 108.1,64.8 107.7,67 107.3,67 106.8,64.2 106.8,64.2 106.7,67 106.2,67 106.5,63 "/>
<path d="M91.3,75.5c0,0-0.3-7.4-0.3-17.3S91.3,41,91.3,41h0.1c0,0,0.3,7.4,0.3,17.3S91.4,75.5,91.3,75.5L91.3,75.5z"/>
<polygon points="97.2,61 98.8,61 98.8,61.6 96.5,61.6 96.5,54.8 97.2,54.8 "/>
<path d="M103.7,61.6h-0.7l-0.3-1.4h-1.6l-0.3,1.4h-0.7l1.5-6.8h0.7L103.7,61.6z M102.5,59.6l-0.7-3.7l-0.6,3.7H102.5z"/>
<path d="M108.5,61.6h-0.6c0,0-0.9-5.3-0.9-5.7l0.1,0c0,0.4-1,5.7-1,5.7h-0.6l-1.2-6.8h0.7l0.7,4.5c0,0.3,0.1,0.7,0.1,1
	c0.1-0.3,0.1-0.7,0.2-1l0.9-4.5h0.5l0.7,4.5c0,0.3,0.1,0.7,0.2,1c0-0.3,0.1-0.7,0.2-1l0.8-4.5h0.7L108.5,61.6z"/>
</svg>
