<svg xmlns="http://www.w3.org/2000/svg" viewBox="0 0 119 119"><path d="M28 43.9c-.2-.8-.8-1.3-1.6-1.3-1.1 0-1.8 1.1-1.8 3.1 0 2.1.6 3.1 1.9 3.1.8 0 1.2-.3 1.7-1.3l1.6.4c-.5 1.5-1.7 2.3-3.3 2.3-2.3 0-3.6-1.7-3.6-4.6 0-2.9 1.3-4.6 3.6-4.6 1.7 0 2.7.8 3.1 2.3l-1.6.6zm10.5-2.6v8.9h-1V46h-4.3v4.2h-1v-8.9h1v3.8h4.3v-3.8h1zm2.2 8.9l2.7-8.9h1.5l2.7 8.9h-1l-.8-2.8h-3.2l-.8 2.8h-1.1zm2.1-3.6h2.7L44.3 42h-.1l-1.4 4.6zm7.1 3.6v-8.9h2.9c1.9 0 3 .9 3 2.3 0 1.3-.7 2-1.8 2.3l1.9 4.2h-1.1l-1.8-4h-2.1v4h-1zm.9-4.9h1.8c1.4 0 2.1-.5 2.1-1.6 0-1.2-.8-1.6-2.1-1.6h-1.8v3.2zm10.1-3.2v8.1h-1v-8.1h-2.7v-.8h6.3v.8h-2.6zm9.9-.8v.8h-4.4v3h3.1v.9h-3.1v3.4H71v.8h-5.6v-8.9h5.4zm2.4 8.9v-8.9H76c1.9 0 3 .9 3 2.3 0 1.3-.7 2-1.8 2.3l1.9 4.2H78l-1.8-4h-2.1v4h-.9zm1-4.9H76c1.4 0 2.1-.5 2.1-1.6 0-1.2-.8-1.6-2.1-1.6h-1.8v3.2zm12.3-4v.8h-4.4v3h3.1v.9h-3.1v3.4h4.6v.8h-5.6v-8.9h5.4zm2 0h2.4c2.4 0 4 1.5 4 4.5 0 2.6-1.4 4.5-4.1 4.5h-2.3v-9zm1 8.1h1.3c2 0 3.1-1.2 3.1-3.6 0-2.6-1.2-3.6-3.1-3.6h-1.4v7.2zm-66.2 7h3.3c1.8 0 2.9.6 3 2.2 0 .9-.4 1.6-1.4 2 1.2.5 1.6 1 1.6 2.4s-1 2.3-3.2 2.3h-3.3v-8.9zM25 60h1.7c.8 0 1.2-.5 1.2-1.1s-.4-1.1-1.2-1.1H25V60zm0 3.9h1.7c1 0 1.4-.4 1.4-1.3s-.4-1.3-1.4-1.3H25v2.6zm8.3-7.5v6.3c0 1 .7 1.9 2.1 1.9 1.4 0 2.1-.9 2.1-1.9v-6.3h1v6.2c0 1.8-1.3 2.8-3.1 2.8s-3.1-1-3.1-2.8v-6.2h1zm12.3 2.3c-.2-.9-.9-1.6-2.1-1.6-1 0-1.7.5-1.7 1.4 0 1.9 5 1.5 5 4.3 0 1.3-.7 2.6-3 2.6-1.9 0-2.7-1.3-3.2-2.3l.9-.3c.4.9 1 1.8 2.3 1.8s2-.7 2-1.6c0-2.3-5-1.6-5-4.4 0-1.3 1.1-2.3 2.7-2.3 1.4 0 2.5.7 2.9 2.2l-.8.2zm4.8-2.3v8.9h-1v-8.9h1zm3.3 8.9v-8.9h1.4l3.9 6.9v-6.9h.9v8.9h-.8l-4.5-7.9v7.9h-.9zm14.5-8.9v.8h-4.4v3h3.1v.8h-3.1v3.4h4.6v.8h-5.6v-8.9h5.4zm6.2 2.3c-.2-.9-.9-1.6-2.1-1.6-1 0-1.7.5-1.7 1.4 0 1.9 5 1.5 5 4.3 0 1.3-.7 2.6-3 2.6-1.9 0-2.7-1.3-3.2-2.3l.9-.3c.4.9 1 1.8 2.3 1.8 1.3 0 2-.7 2-1.6 0-2.3-5-1.6-5-4.4 0-1.3 1.1-2.3 2.7-2.3 1.4 0 2.5.7 2.9 2.2l-.8.2zm7.5 0c-.2-.9-.9-1.6-2.1-1.6-1 0-1.7.5-1.7 1.4 0 1.9 5 1.5 5 4.3 0 1.3-.7 2.6-3 2.6-1.9 0-2.7-1.3-3.2-2.3l.9-.3c.4.9 1 1.8 2.3 1.8 1.3 0 2-.7 2-1.6 0-2.3-5-1.6-5-4.4 0-1.3 1.1-2.3 2.7-2.3 1.4 0 2.5.7 2.9 2.2l-.8.2zM23.1 71.5h1.7l1.6 6.6 1.7-6.6h1.7l-2.4 8.9h-1.9l-2.4-8.9zm8.3 8.9l2.7-8.9h1.5l2.7 8.9h-1l-.8-2.8h-3.2l-.8 2.8h-1.1zm2.1-3.6h2.7l-1.3-4.6h-.1l-1.3 4.6zm7 3.6v-8.9h1v8.1h4.2v.8h-5.2zm7.6-8.9v6.3c0 1 .7 1.9 2.1 1.9 1.4 0 2.1-.9 2.1-1.9v-6.3h1v6.2c0 1.8-1.3 2.8-3.1 2.8s-3.1-1-3.1-2.8v-6.2h1zm7 8.9l2.7-8.9h1.5l2.7 8.9h-1l-.8-2.8H57l-.8 2.8h-1.1zm2.1-3.6h2.7l-1.3-4.6h-.1l-1.3 4.6zm9.1-4.4v8.1h-1v-8.1h-2.7v-.8H69v.8h-2.7zm7.2-1c2.2 0 3.5 1.6 3.5 4.6 0 3-1.3 4.6-3.5 4.6S70 79 70 76c0-3 1.3-4.6 3.5-4.6zm0 8.3c1.6 0 2.5-1.2 2.5-3.7s-.9-3.7-2.5-3.7S71 73.5 71 76s.9 3.7 2.5 3.7zm5.5.7v-8.9h2.9c1.9 0 3 .9 3 2.3 0 1.3-.7 2-1.8 2.3l1.9 4.2h-1.1l-1.8-4H80v4h-1zm1-4.8h1.8c1.4 0 2.1-.5 2.1-1.6 0-1.2-.8-1.6-2.1-1.6H80v3.2zm11.4-1.8c-.2-.9-.9-1.6-2.1-1.6-1 0-1.7.5-1.7 1.4 0 1.9 5 1.5 5 4.3 0 1.3-.7 2.6-3 2.6-1.9 0-2.7-1.3-3.2-2.3l.9-.3c.4.9 1 1.8 2.3 1.8s2-.7 2-1.6c0-2.3-5-1.6-5-4.4 0-1.3 1.1-2.3 2.7-2.3 1.4 0 2.5.7 2.9 2.2l-.8.2z"/><path fill="#ed1a39" d="M31.7 91.8H21.2v-2.9h10.5z"/><path d="M31.7 32.5H21.2v-2.9h10.5zm63.6 39.2v1.8h-.2v-1.8h-.6v-.2h1.4v.2h-.6zm2.6 1.8v-1.8l-.5 1.8h-.2l-.5-1.8v1.8h-.2v-1.9h.3l.5 1.6.5-1.6h.2v1.9h-.1z"/></svg>