<svg xmlns="http://www.w3.org/2000/svg" viewBox="0 0 119 119"><path d="M56.8 59.7h-.9c-.3 0-.6-.1-.9-.1v-5.2c.2 0 .5-.1.8-.1h.8c.3 0 .7 0 .9.1.3 0 .5.1.7.3.2.1.4.3.5.5.1.2.2.4.2.7 0 .4-.2.8-.6 1 .3.1.6.3.7.5.1.2.2.5.2.8 0 .6-.2 1-.6 1.3-.4.1-1 .2-1.8.2zm-.7-3.3h.6c.4 0 .6 0 .8-.1.2-.1.2-.3.2-.5s-.1-.4-.2-.5c-.2-.1-.4-.1-.7-.1h-.6v1.2zm0 .9v1.4h.6c.4 0 .7-.1.9-.2.2-.1.3-.3.3-.6 0-.2-.1-.4-.3-.5-.2-.1-.5-.2-.8-.2h-.7zm7.5 2.2c-.2.1-.5.1-.8.2-.3 0-.6.1-1 .1-.3 0-.6 0-.9-.1-.2-.1-.4-.2-.5-.4l-.3-.6c-.1-.2-.1-.5-.1-.8v-2.3h1.2v2.1c0 .4 0 .6.1.8.1.2.3.2.6.2h.5v-3.2h1.2v4zm2.2-.7c.2 0 .4 0 .5-.1.1 0 .1-.1.1-.2s-.1-.2-.2-.2c-.1-.1-.3-.1-.5-.2s-.3-.1-.5-.2c-.1-.1-.3-.2-.4-.3-.1-.1-.2-.2-.2-.4-.1-.1-.1-.3-.1-.5 0-.4.1-.7.4-.9.3-.2.7-.3 1.2-.3.2 0 .5 0 .7.1.2 0 .4.1.5.1l-.2.9c-.1 0-.3-.1-.4-.1-.2 0-.3-.1-.5-.1-.4 0-.5.1-.5.3v.1s0 .1.1.1c0 0 .1.1.2.1s.2.1.3.1c.3.1.5.2.6.3.2.1.3.2.4.3.1.1.2.2.2.4 0 .1.1.3.1.5 0 .4-.2.7-.5.9-.3.2-.7.3-1.3.3-.4 0-.7 0-.9-.1-.2-.1-.4-.1-.5-.2l.2-.9c.2.1.4.1.6.2h.6zm3.9-4.4c0 .2-.1.4-.2.5-.1.1-.3.2-.5.2s-.3-.1-.5-.2c-.1-.1-.2-.3-.2-.5s.1-.4.2-.5c.1-.1.3-.2.5-.2s.3.1.5.2c.1.1.2.3.2.5zm-.1 5.3h-1.2v-4.1h1.2v4.1zm1-4c.2-.1.5-.1.8-.2.3 0 .6-.1 1-.1.3 0 .6 0 .9.1.2.1.4.2.5.4l.3.6c.1.2.1.5.1.8v2.3H73v-2.2c0-.4 0-.6-.1-.8-.1-.2-.3-.2-.6-.2h-.5v3.2h-1.2v-3.9zm4.4 2c0-.4.1-.7.2-1 .1-.3.3-.5.4-.7.2-.2.4-.3.6-.4.2-.1.5-.1.7-.1.6 0 1 .2 1.4.5.3.4.5.9.5 1.6v.4h-2.6c0 .2.1.4.3.6.2.1.5.2.8.2.2 0 .4 0 .6-.1.2 0 .4-.1.5-.1l.2.9c-.1 0-.1.1-.2.1s-.2.1-.3.1c-.1 0-.3 0-.4.1h-.4c-.4 0-.7-.1-1-.2-.3-.1-.5-.3-.7-.4-.2-.2-.3-.4-.4-.7-.2-.3-.2-.5-.2-.8zm2.7-.5c0-.1 0-.2-.1-.3 0-.1-.1-.2-.1-.2l-.2-.2c-.1 0-.2-.1-.3-.1-.1 0-.2 0-.3.1-.1 0-.2.1-.2.2-.1.1-.1.2-.1.3 0 .1-.1.2-.1.3h1.4zm3.2 1.6c.2 0 .4 0 .5-.1.1 0 .1-.1.1-.2s-.1-.2-.2-.2c-.1-.1-.3-.1-.5-.2s-.3-.1-.5-.2c-.1-.1-.3-.2-.4-.3-.1-.1-.2-.2-.2-.4-.1-.1-.1-.3-.1-.5 0-.4.1-.7.4-.9.3-.2.7-.3 1.2-.3.2 0 .5 0 .7.1.2 0 .4.1.5.1l-.2.9c-.1 0-.3-.1-.4-.1-.2 0-.3-.1-.5-.1-.4 0-.5.1-.5.3v.1s0 .1.1.1c0 0 .1.1.2.1s.2.1.3.1c.3.1.5.2.6.3.2.1.3.2.4.3.1.1.2.2.2.4 0 .1.1.3.1.5 0 .4-.2.7-.5.9-.3.2-.7.3-1.3.3-.4 0-.7 0-.9-.1-.2-.1-.4-.1-.5-.2l.2-.9c.2.1.4.1.6.2h.6zm3.7 0c.2 0 .4 0 .5-.1.1 0 .1-.1.1-.2s-.1-.2-.2-.2-.3-.1-.5-.2-.3-.1-.5-.2c-.1-.1-.3-.2-.4-.3-.1-.1-.2-.2-.2-.4-.1-.1-.1-.3-.1-.5 0-.4.1-.7.4-.9.3-.2.7-.3 1.2-.3.2 0 .5 0 .7.1.2 0 .4.1.5.1l-.2.9c-.1 0-.3-.1-.4-.1-.2 0-.3-.1-.5-.1-.4 0-.5.1-.5.3v.1s0 .1.1.1c0 0 .1.1.2.1s.2.1.3.1c.3.1.5.2.6.3.2.1.3.2.4.3.1.1.2.2.2.4 0 .1.1.3.1.5 0 .4-.2.7-.5.9-.3.2-.7.3-1.3.3-.4 0-.7 0-.9-.1-.2-.1-.4-.1-.5-.2l.2-.9c.2.1.4.1.6.2h.6zm9.7-1.8c0 .5-.1.9-.2 1.2-.1.4-.3.6-.6.9-.2.2-.5.4-.9.5-.3.1-.7.2-1.1.2-.4 0-.7-.1-1-.2-.3-.1-.6-.3-.9-.5-.2-.2-.4-.5-.6-.9s-.2-.8-.2-1.2c0-.5.1-.9.2-1.2.1-.4.3-.6.6-.9.2-.2.5-.4.9-.5.3-.1.7-.2 1-.2.4 0 .7.1 1 .2.3.1.6.3.9.5.2.2.4.5.6.9.2.3.3.7.3 1.2zm-4.1 0c0 .3 0 .5.1.7.1.2.2.4.3.5.1.2.3.3.4.4.2.1.4.1.6.1.2 0 .4 0 .6-.1.2-.1.3-.2.5-.4.1-.2.2-.3.3-.5V57c0-.2 0-.5-.1-.7l-.3-.6c-.1-.2-.3-.3-.5-.4-.2-.1-.4-.1-.6-.1-.2 0-.4 0-.6.1-.2.1-.3.2-.4.4-.1.2-.2.3-.3.6v.7zm7.5.3l-.3 1.2c-.1.4-.2.8-.4 1.2h-.9c-.1-.2-.2-.5-.3-.8-.1-.3-.2-.6-.3-1-.1-.4-.2-.7-.4-1.1-.1-.4-.2-.8-.4-1.2H96c0 .2.1.4.1.6 0 .2.1.4.2.7.1.2.1.5.2.7.1.2.1.5.2.7.1-.2.1-.5.2-.7.1-.2.1-.5.2-.7.1-.2.1-.5.2-.7.1-.2.1-.4.1-.6h.8c0 .2.1.4.1.6.1.2.1.4.2.7.1.2.1.5.2.7.1.2.1.5.2.7.1-.2.1-.4.2-.7.1-.2.1-.5.2-.7.1-.2.1-.5.2-.7 0-.2.1-.4.1-.6h1.2c-.1.4-.2.8-.4 1.2-.1.4-.2.8-.4 1.1s-.2.7-.3 1c-.1.3-.2.6-.3.8h-.9c-.1-.4-.3-.8-.4-1.2-.2-.4-.3-.8-.4-1.2zm3.6-1.6c.2-.1.5-.1.8-.2.3 0 .6-.1 1-.1.3 0 .6 0 .9.1.2.1.4.2.5.4l.3.6c.1.2.1.5.1.8v2.3h-1.2v-2.2c0-.4 0-.6-.1-.8-.1-.2-.3-.2-.6-.2h-.5v3.2h-1.2v-3.9zm4.4 2c0-.4.1-.7.2-1 .1-.3.3-.5.4-.7.2-.2.4-.3.6-.4.2-.1.5-.1.7-.1.6 0 1 .2 1.4.5.3.4.5.9.5 1.6v.4h-2.6c0 .2.1.4.3.6.2.1.5.2.8.2.2 0 .4 0 .6-.1.2 0 .4-.1.5-.1l.2.9c-.1 0-.1.1-.2.1s-.2.1-.3.1c-.1 0-.3 0-.4.1h-.4c-.4 0-.7-.1-1-.2-.3-.1-.5-.3-.7-.4-.2-.2-.3-.4-.4-.7-.2-.3-.2-.5-.2-.8zm2.7-.5c0-.1 0-.2-.1-.3 0-.1-.1-.2-.1-.2l-.2-.2c-.1 0-.2-.1-.3-.1-.1 0-.2 0-.3.1-.1 0-.2.1-.2.2-.1.1-.1.2-.1.3 0 .1-.1.2-.1.3h1.4zm4.5-.6c-.1 0-.2-.1-.4-.1h-1v3.1h-1.2v-3.9c.2-.1.5-.1.7-.2.3-.1.6-.1.9-.1h.8c.1 0 .2 0 .2.1v1.1zM56.4 66h.4c.1 0 .2-.1.3-.1.1 0 .1-.1.1-.2v-.2c0-.2-.1-.3-.2-.4-.2-.1-.5-.2-.9-.4-.2-.1-.4-.1-.5-.2-.2-.1-.3-.2-.5-.3-.1-.1-.3-.3-.3-.4-.1-.2-.1-.4-.1-.6 0-.2 0-.5.1-.7.1-.2.2-.4.4-.5l.6-.3c.2-.1.5-.1.8-.1.4 0 .7 0 .9.1s.5.2.7.3l-.4 1c-.2-.1-.3-.1-.5-.2s-.4-.1-.7-.1c-.3 0-.5 0-.6.1v.1c0 .1 0 .2.1.2 0 .1.1.1.2.2s.2.1.3.1c.1 0 .2.1.4.1.3.1.5.2.7.3.2.1.4.2.5.4.1.1.2.3.3.5.1.2.1.4.1.7 0 .5-.2.9-.5 1.2s-1 .4-1.7.4h-.6c-.2 0-.4-.1-.5-.1-.1 0-.3-.1-.4-.1-.1 0-.2-.1-.3-.1l.3-1c.2.1.4.2.6.2.3 0 .6.1.9.1zm2.9-4.2l1.2-.2v1.2h1.4v1h-1.4v1.4c0 .2 0 .4.1.6.1.1.3.2.5.2h.4c.1 0 .3-.1.4-.1l.2.9c-.1.1-.3.1-.5.1-.2.1-.4.1-.6.1-.3 0-.6 0-.8-.1-.2-.1-.4-.2-.5-.4-.1-.2-.2-.3-.3-.6 0-.2-.1-.5-.1-.7v-3.4zm6 2c-.1 0-.2-.1-.4-.1h-1v3.1h-1.2V63c.2-.1.5-.1.7-.2.3-.1.6-.1.9-.1h.8c.1 0 .2 0 .2.1v1zm2.2-1.1c.3 0 .6 0 .9.1.2.1.4.2.5.3.1.1.2.3.3.5.1.2.1.4.1.7v2.4c-.2 0-.4.1-.7.1-.3 0-.7.1-1.1.1-.3 0-.5 0-.7-.1-.2 0-.4-.1-.6-.2-.2-.1-.3-.2-.4-.4-.1-.2-.1-.4-.1-.6 0-.2 0-.4.1-.6.1-.2.2-.3.4-.4.2-.1.3-.2.6-.2.2 0 .4-.1.6-.1h.4c.1 0 .2 0 .3.1v-.1c0-.2-.1-.4-.2-.5-.1-.1-.3-.2-.6-.2h-.6c-.2 0-.4.1-.5.1l-.1-.9c.1 0 .2 0 .3-.1.1 0 .2 0 .3-.1h.4c.1.1.3.1.4.1zm.1 3.4h.5v-.9h-.8c-.1 0-.2 0-.3.1-.1 0-.1.1-.2.1 0 .1-.1.1-.1.2 0 .2.1.3.2.4.3.1.5.1.7.1zm2.7-4.3l1.2-.2v1.2h1.4v1h-1.4v1.4c0 .2 0 .4.1.6.1.1.3.2.5.2h.4c.1 0 .3-.1.4-.1l.2.9c-.1.1-.3.1-.5.1s-.4.1-.6.1c-.3 0-.6 0-.8-.1-.2-.1-.4-.2-.5-.4-.1-.2-.2-.3-.3-.6 0-.2-.1-.5-.1-.7v-3.4zm3.2 3.1c0-.4.1-.7.2-1 .1-.3.3-.5.4-.7.2-.2.4-.3.6-.4.2-.1.5-.1.7-.1.6 0 1 .2 1.4.5.3.4.5.9.5 1.6v.4h-2.6c0 .2.1.4.3.6.2.1.5.2.8.2.2 0 .4 0 .6-.1s.4-.1.5-.1l.2.9c-.1 0-.1.1-.2.1s-.2.1-.3.1c-.1 0-.3 0-.4.1h-.4c-.4 0-.7-.1-1-.2-.3-.1-.5-.3-.7-.4-.2-.2-.3-.4-.4-.7-.2-.2-.2-.5-.2-.8zm2.7-.5c0-.1 0-.2-.1-.3 0-.1-.1-.2-.1-.2l-.2-.2c-.1 0-.2-.1-.3-.1-.1 0-.2 0-.3.1-.1 0-.2.1-.2.2-.1.1-.1.2-.1.3 0 .1-.1.2-.1.3h1.4zm5.5 2c0 .7-.2 1.2-.5 1.5-.3.3-.9.5-1.6.5-.2 0-.5 0-.7-.1-.2 0-.5-.1-.7-.2l.2-1c.2.1.4.1.6.2.2 0 .4.1.7.1.3 0 .6-.1.7-.2.1-.1.2-.3.2-.6v-.1c-.1.1-.3.1-.4.1h-.4c-.6 0-1-.2-1.3-.5-.3-.3-.5-.8-.5-1.4 0-.3 0-.6.1-.8.1-.2.2-.5.4-.6.2-.2.4-.3.7-.4.3-.1.6-.1.9-.1h.4c.1 0 .3 0 .4.1.1 0 .3 0 .4.1.1 0 .3.1.4.1v3.3zm-2.6-1.7c0 .6.3 1 .8 1h.3c.1 0 .2-.1.3-.1v-1.9H80c-.3 0-.5.1-.7.3-.1.2-.2.4-.2.7zm7.3-1.9c-.2.8-.5 1.5-.7 2.2-.3.7-.5 1.4-.8 2l-.3.6c-.1.2-.2.3-.4.4-.1.1-.3.2-.4.2-.2 0-.4.1-.6.1-.2 0-.4 0-.5-.1-.2 0-.3-.1-.4-.1l.2-.9c.1 0 .2.1.3.1h.3c.2 0 .4-.1.5-.2.1-.1.2-.3.3-.5-.3-.5-.5-1.1-.8-1.7-.3-.6-.5-1.4-.7-2.2h1.2c.1.2.1.4.2.7.1.2.1.5.2.7.1.2.2.5.2.7.1.2.2.4.2.6.1-.2.1-.4.2-.6.1-.2.1-.5.2-.7.1-.2.1-.5.2-.7.1-.2.1-.5.2-.7h1.2z" fill="#6d6e71"/><path d="M56 75.6c-.5 0-.8-.1-1-.4-.2-.3-.4-.6-.4-1.1 0-.2 0-.4.1-.6.1-.2.2-.3.3-.5.1-.1.3-.2.5-.3.2-.1.4-.1.6-.1h.3c.1 0 .2 0 .3.1.1 0 .1 0 .2.1 0 0 .1 0 .1.1l-.2.5c-.1 0-.2-.1-.3-.1h-.7c-.1 0-.2.1-.2.2-.1.1-.1.2-.2.3 0 .1-.1.3-.1.4v.4c0 .1.1.2.1.3l.2.2c.1 0 .2.1.4.1h.4c.1 0 .1 0 .1-.1 0 0 .1 0 .1-.1l.2.5c-.1.1-.2.1-.4.1H56zm3.4-.1c0-.1-.1-.2-.1-.3 0-.1-.1-.2-.1-.3h-1.1c0 .1-.1.2-.1.3 0 .1-.1.2-.1.3h-.7c.1-.3.2-.6.3-.8.1-.3.2-.5.3-.7l.3-.6.3-.6h.6l.3.6.3.6c.1.2.2.5.3.7.1.3.2.5.3.8h-.8zm-.7-2.1s0 .1-.1.2c0 .1-.1.2-.1.2 0 .1-.1.2-.1.3 0 .1-.1.2-.1.3h.8c0-.1-.1-.2-.1-.3 0-.1-.1-.2-.1-.3 0-.1-.1-.2-.1-.2-.1-.1-.1-.2-.1-.2zm3.7 2.1l-.6-.9c-.2-.3-.4-.6-.7-.9v1.8h-.6v-2.8h.5l.3.3c.1.1.2.3.3.4.1.1.2.3.3.5s.2.3.3.5v-1.7h.6v2.8h-.4zm3.1 0c0-.1-.1-.2-.1-.3 0-.1-.1-.2-.1-.3h-1.1c0 .1-.1.2-.1.3 0 .1-.1.2-.1.3h-.7c.1-.3.2-.6.3-.8.1-.3.2-.5.3-.7l.3-.6.3-.6h.5l.3.6.3.6c.1.2.2.5.3.7.1.3.2.5.3.8h-.7zm-.8-2.1s0 .1-.1.2c0 .1-.1.2-.1.2 0 .1-.1.2-.1.3 0 .1-.1.2-.1.3h.8c0-.1-.1-.2-.1-.3 0-.1-.1-.2-.1-.3 0-.1-.1-.2-.1-.2 0-.1 0-.2-.1-.2zm4.3.7c0 .2 0 .5-.1.6-.1.2-.2.3-.3.4s-.3.2-.5.3c-.2.1-.4.1-.7.1H67c-.2 0-.3 0-.4-.1v-2.7c.1 0 .3 0 .5-.1h.4c.2 0 .5 0 .7.1.2.1.4.1.5.3.1.1.2.3.3.4v.7zm-1.8.9h.2c.3 0 .5-.1.7-.2.2-.2.2-.4.2-.7 0-.3-.1-.5-.2-.7s-.4-.2-.7-.2h-.2V75zm4.2.5c0-.1-.1-.2-.1-.3 0-.1-.1-.2-.1-.3h-1.1c0 .1-.1.2-.1.3 0 .1-.1.2-.1.3h-.7c.1-.3.2-.6.3-.8.1-.3.2-.5.3-.7l.3-.6.3-.6h.6l.3.6.3.6c.1.2.2.5.3.7.1.3.2.5.3.8h-.8zm-.8-2.1s0 .1-.1.2c0 .1-.1.2-.1.2 0 .1-.1.2-.1.3 0 .1-.1.2-.1.3h.8c0-.1-.1-.2-.1-.3 0-.1-.1-.2-.1-.3 0-.1-.1-.2-.1-.2 0-.1-.1-.2-.1-.2zm2.1-1v.2c0 .2 0 .4-.1.5-.1.2-.1.3-.2.4H72c.1-.1.1-.2.1-.4v-.7h.6zm1.4 2.7h.2c.1 0 .1 0 .1-.1l.1-.1v-.1c0-.1 0-.2-.1-.2-.1-.1-.2-.1-.4-.2-.1 0-.2-.1-.3-.1-.1 0-.2-.1-.2-.2s-.1-.1-.2-.2c0-.1-.1-.2-.1-.3 0-.1 0-.2.1-.3 0-.1.1-.2.2-.3.1-.1.2-.1.3-.2.1 0 .3-.1.4-.1.2 0 .4 0 .5.1.1 0 .3.1.3.1l-.2.5c-.1 0-.2-.1-.3-.1h-.3c-.2 0-.3 0-.3.1-.1 0-.1.1-.1.2v.1l.1.1s.1.1.2.1.1 0 .2.1.3.1.4.2c.1.1.2.1.3.2.1.1.1.2.2.2 0 .1.1.2.1.3 0 .3-.1.5-.3.6-.2.1-.5.2-.8.2h-.3c-.1 0-.2 0-.3-.1-.1 0-.1 0-.2-.1-.1 0-.1 0-.1-.1l.2-.5c.1 0 .2.1.3.1 0 0 .1.1.3.1zm3.9.5c-.5 0-.8-.1-1-.4-.2-.3-.4-.6-.4-1.1 0-.2 0-.4.1-.6.1-.2.2-.3.3-.5.1-.1.3-.2.5-.3.2-.1.4-.1.6-.1h.3c.1 0 .2 0 .3.1.1 0 .1 0 .2.1 0 0 .1 0 .1.1l-.2.5c-.1 0-.2-.1-.3-.1h-.7c-.1 0-.2.1-.2.2-.1.1-.1.2-.2.3 0 .1-.1.3-.1.4v.4c0 .1.1.2.1.3l.2.2c.1 0 .2.1.4.1h.4c.1 0 .1 0 .1-.1 0 0 .1 0 .1-.1l.2.5c-.1.1-.2.1-.4.1H78zm2.2-2.9c.4 0 .7.1 1 .2.2.1.3.4.3.7 0 .2 0 .4-.1.5-.1.1-.2.2-.4.3.1.1.1.2.2.2.1.1.1.2.2.3.1.1.1.2.2.3.1.1.1.2.2.3H81c-.1-.1-.1-.2-.2-.3-.1-.1-.1-.2-.2-.3-.1-.1-.1-.2-.2-.3-.1-.1-.1-.2-.2-.2H80v1h-.6v-2.8c.1 0 .3 0 .4-.1.2.2.3.2.4.2zm0 .5H80v.8h.2c.2 0 .4 0 .5-.1.1-.1.2-.2.2-.3 0-.1-.1-.2-.2-.3-.1 0-.3-.1-.5-.1zm1.9 2.3v-2.8H84v.5h-1.3v.5h1.1v.5h-1.1v.8h1.4v.5h-2zm5-1.4c0 .2 0 .5-.1.6-.1.2-.2.3-.3.4-.1.1-.3.2-.5.3-.2.1-.4.1-.7.1h-.4c-.2 0-.3 0-.4-.1v-2.7c.1 0 .3 0 .5-.1h.4c.2 0 .5 0 .7.1.2.1.4.1.5.3.1.1.2.3.3.4v.7zm-1.8.9h.2c.3 0 .5-.1.7-.2.2-.2.2-.4.2-.7 0-.3-.1-.5-.2-.7s-.4-.2-.7-.2h-.2V75zm2.4-2.3h.6v2.8h-.6v-2.8zm3.4 0v.5h-.8v2.3h-.6v-2.3h-.8v-.5h2.2zm2.5 2.9c-.2 0-.4 0-.5-.1-.1-.1-.3-.1-.4-.2-.1-.1-.2-.2-.2-.4 0-.1-.1-.3-.1-.5v-1.7h.6v2c0 .1.1.1.1.2 0 0 .1.1.2.1h.2c.2 0 .3 0 .4-.1.1-.1.1-.3.1-.5v-1.7h.6v1.7c0 .2 0 .3-.1.5 0 .1-.1.3-.2.4-.1.1-.2.2-.4.2.1.1-.1.1-.3.1zm3.7-.1l-.6-.9c-.2-.3-.4-.6-.7-.9v1.8h-.6v-2.8h.6l.3.3c.1.1.2.3.3.4.1.1.2.3.3.5s.2.3.3.5v-1.7h.6v2.8h-.5zm1.3-2.8h.6v2.8h-.6v-2.8zm3.9 1.4c0 .2 0 .5-.1.6-.1.2-.2.3-.3.5-.1.1-.3.2-.4.3-.2.1-.4.1-.6.1-.2 0-.4 0-.5-.1-.2-.1-.3-.2-.4-.3-.1-.1-.2-.3-.3-.5-.1-.2-.1-.4-.1-.6 0-.2 0-.5.1-.6.1-.2.2-.3.3-.5.1-.1.3-.2.4-.3.2-.1.3-.1.5-.1s.4 0 .5.1c.2.1.3.2.4.3.1.1.2.3.3.5.2.2.2.4.2.6zm-2.1 0c0 .1 0 .3.1.4 0 .1.1.2.1.3l.2.2c.1 0 .2.1.3.1.1 0 .2 0 .3-.1.1 0 .2-.1.2-.2.1-.1.1-.2.1-.3 0-.1.1-.2.1-.4 0-.1 0-.3-.1-.4 0-.1-.1-.2-.1-.3l-.2-.2c-.1 0-.2-.1-.3-.1-.1 0-.2 0-.3.1-.1 0-.2.1-.2.2-.1.1-.1.2-.1.3-.1.2-.1.3-.1.4zm4.6 1.4l-.6-.9c-.2-.3-.4-.6-.7-.9v1.8h-.6v-2.8h.5l.3.3c.1.1.2.3.3.4.1.1.2.3.3.5s.2.3.3.5v-1.7h.6v2.8h-.4zm2-.4h.2c.1 0 .1 0 .1-.1l.1-.1v-.1c0-.1 0-.2-.1-.2-.1-.1-.2-.1-.4-.2-.1 0-.2-.1-.3-.1-.1 0-.2-.1-.2-.2l-.2-.2c0-.1-.1-.2-.1-.3 0-.1 0-.2.1-.3 0-.1.1-.2.2-.3.1-.1.2-.1.3-.2.1 0 .3-.1.4-.1.2 0 .4 0 .5.1.1 0 .3.1.3.1l-.2.5c-.1 0-.2-.1-.3-.1h-.3c-.2 0-.3 0-.3.1-.1 0-.1.1-.1.2v.1l.1.1s.1.1.2.1.1 0 .2.1.3.1.4.2c.1.1.2.1.3.2.1.1.1.2.2.2 0 .1.1.2.1.3 0 .3-.1.5-.3.6-.2.1-.5.2-.8.2h-.3c-.1 0-.2 0-.3-.1-.1 0-.1 0-.2-.1-.1 0-.1 0-.1-.1l.2-.5c.1 0 .2.1.3.1 0 0 .1.1.3.1z" fill="#72bf44"/><path d="M26.4 44.6c0 .3-.8.3-1.5.3h-.2c-.4-.2-.2-.6-.2-.9 0-1.1-.1-2.3-.3-3.4.2-.7 0-1.2.1-1.9-.1-.4-.2-.9.3-1.1.3-.1.9 0 1.4-.3h.4c.3.4.2 1 .2 1.6v.6c0 .2.1.4.1.5 0 .1-.1.2-.1.3v.7c0 .5 0 1-.1 1.5.1.7-.1 1.5-.1 2.1zm-20 11c.8.2 1.6.2 2.5.3.5-.1.9-.2 1.4-.1.2-.1.2 0 .5-.1.3.2.8.1.8.7 0 .1-.1.2-.1.3 0 .1.1.2.1.4 0 .4-.2.7-.2.9-1.2.3-2.3.2-3.5 0-.2.2-.3.1-.5.1-.6-.2-1.2.1-1.7-.3-.2-.6.2-1 0-1.6 0-.4.4-.5.7-.6zm19.7 17.8c0 .1-.1.3-.1.3 0 .4-.1.9-.1 1.4 0 .5 0 1 .1 1.5-.1.8 0 1.5-.5 2.1-.5.3-1.3.3-2 .1-.2-.3 0-1 0-1.5 0-1 .2-2.2.2-3.1.1-.5.1-.5.2-.7.1-.1.1-.3.4-.4.5-.1 1.1-.4 1.6-.2-.1.3.2.4.2.5zm13.7-16V57c.3-.2.4-.1.7-.1h1c.2-.1.5-.1.8-.2 1.2.2 2.3-.2 3.5.2.1.3 0 .5.1.9 0 .2.2.9-.1 1.1-1.5.3-3.3.1-4.8.5-.9-.2-1.3-1-1.2-1.7v-.3z" fill-rule="evenodd" clip-rule="evenodd" fill="#6d6e71"/><path d="M40.2 62.4c.2-.1.4 0 .5-.2.8.4 1.6.6 2.5.9.2.8.2 1.8-.7 1.9-.4-.3-.9-.3-1.4-.6-.3-.1-.6-.2-.8-.3-.6-.3-.7-1-.1-1.7zM32.1 42c-.4 1.1-.5 2.2-.7 3.3-.5.4-1.1-.2-1.6-.1-.1-.1-.3-.1-.4-.2 0-.1.1-.2 0-.3.4-.4.4-1.4.5-2.1 0-.2 0-.5.1-.6.2-.2.5-.2.7-.3.5.3 1-.1 1.4.3zM23 40.8c0 .2.1.2.1.4.4.7.4 1.5.6 2.3 0 .1.1.1.1.2 0 .3.1.5.1.8-.5.5-1.1.7-1.8.5-.3-1.2-.7-2.3-1.1-3.4 0-.4-.1-.6.1-.9.2-.5.8-.5 1.3-.6.5.1.5.1.6.4v.3zM21.8 45c-.3.6-.8.5-1.1 1-.2 0-.3 0-.5.1-.1.1-.2.2-.3.2-.3-.1-.3-.4-.3-.6-.1-.8-.9-1.3-.6-2.2.3-.1.8-.2 1.1-.3.2-.1.6-.3.8.1.1.5.5 1.1.9 1.7zm-4.6 1.9c-.1-.2 0-.2 0-.4-1-1.2-2-2.4-2.5-3.8-.1 0-.1-.2-.2-.2-.1-.1-.1-.1-.1-.2.5-.6 1.3-1.6 1.5-1.5.8.1 1 1 1.3 1.6.2.3.5.6.5.9.4.3.5.8.8 1.3.2.4.7.8.6 1.2 0 .5-.6 1.1-.9 1.3-.3.1-.6-.1-1-.2zm26.7 8.3c0 .2 0 .2-.1.2-.2.4-1.1.3-1.5.3-.7.1-1.3.3-1.7.6-.2-.1-.2 0-.4 0-.7-.3-.5-.9-.7-1.3.1-.1 0-.3.2-.3.9-.4 1.8-.6 2.7-.8.2 0 .2-.1.4-.3.8.3.5 1.2 1.1 1.6zm-3.3-8.3c-1 .9-2.6 1.6-3.5 2.7-.1.1 0 .2 0 .3.3.2.6.7 1.2.7 1.3-.8 2.5-1.7 3.5-3-.1-.5-.7-.8-1.2-.7z" fill-rule="evenodd" clip-rule="evenodd" fill="#72bf44"/><path d="M41.8 47.6c-1 1.3-2.2 2.2-3.5 3-.6 0-.8-.5-1.2-.7 0-.1-.1-.2 0-.3.9-1.1 2.5-1.8 3.5-2.7.5-.1 1.1.2 1.2.7zM17 46.9c.1.5-.6 1.2-.9 1.8-.2.1-.4-.1-.5.1-.3-.1-.2-.4-.4-.7-.1-.2-.4-.4-.6-.6-.2-.2-.4-.6-.6-.8-.3-.3-.8-.9-.6-1.3.2-.5.7-.5 1-.9.1 0 .1-.1.3 0 .8.8 1.3 1.7 2.3 2.4zM40.9 62c-.2 0-.4 0-.6-.2-.1-.5-.3-1-.2-1.6v-.3c.2-.2.3-.1.5-.1h.4c1 0 2.1.3 3 .1.3.1.2.1.4.4 0 .2.1 1.2-.2 1.6-.3.4-.8 0-1.3.2-.5-.4-1.3-.2-2-.1zm-28-9.3c-.1.1-.1 0-.1.2-.3.4-.7-.2-1.1-.4-.9-.6-2-1.1-2.9-1.4-.1 0-.2-.2-.4-.2-.1-.2-.1-.3 0-.6 0-.1.2-.3.2-.4.2-.5.4-1 .9-1.2.2.1.3 0 .4.1v.1c.8.4 1.4 1.1 2.1 1.6.2.1.5.2.6.4.5.1.7.3.9.6-.1.3-.3.9-.6 1.2zm30 13.3c-.3.4-.4 1.2-.9 1.5-.4-.1-1-.6-1.4-.9-.5-.3-1.1-.4-1.5-.7-.1-.2 0-.5.1-.9.1-.3.1-.6.3-.6l.2-.2h.1c.5.3 1.7 1 2.6 1.4.3.1.5.1.5.4zm-3.3 3.1c-.3-.2-.5-.4-.6-.6-.6-.3-1.3-.4-1.1-1.2.1-.4.2-.9.6-1.1.1-.1 0-.1.1-.3 0-.1.2-.1.2-.1.3.3.9.9 1.3 1.2.5.4.9.5.5 1.3-.2.5-.6.5-1 .8zm-27.9-14c-.3-.1-.7-.3-1.2-.4-.5-.2-1-.3-1.4-.4-.4-.2-.5-.8-.3-1.1l.1-.1c.1-.3 0-.7.3-.8.7.2 1.2.3 1.7.6.3.2.6.3 1 .3.2.1.1.2.2.3-.1.5-.1 1.2-.4 1.6zm28.1 15.3c-.1.6-.8.7-1 1.2-.5.2-1.3-.9-1.9-1.3l-.4-.2c-.1-.2-.1-.4-.3-.5.1-.6.4-1 .8-1.5.3.1.6-.2.8 0 .4.8 1.3 1.5 2 2.3z" fill-rule="evenodd" clip-rule="evenodd" fill="#72bf44"/><path d="M36.1 69.8l.1.1c.4.5.7 1 1.2 1.4-.1.1.1.1.1.2-.3.6-.9.6-1.2 1.2-.2 0-.5 0-.6-.2-.4-.5-1-.9-1.5-1.4 0-1 .9-1.5 1.6-1.9l.2.2c.1.2 0 .4.1.4zm4.6-20.2c.4.1.2.7.6.9 0 .4-1 1-1.5 1.4-.2.1-.2.2-.3.3-.2.1-.3.1-.5.2-.4-.1-.6-.4-.8-.8.1-.2 0-.5.3-.6.7-.2 1.5-.9 2.2-1.4zm-1.3 3.1l.1-.1c.5-.2.9-.4 1.4-.7.1.1.1 0 .2 0 .3.3.1.8.4 1.1-.1.2-.2.4-.3.5-.4.2-.9.7-1.4 1-.7-.1-.7-1-.8-1.6.1-.1.1-.1.3-.1 0-.1 0 0 .1-.1zm-27.6 8h-.4c-.3 0-.6 0-1 .1-.5.1-1.7.4-2.1-.1-.1-.2 0-.3-.1-.5 0-.3-.2-.6.1-.9.4-.2.8-.3 1.2-.3.6 0 1.3-.3 1.8 0 .2.1.1.4.3.6.2.3.4.4.5.6-.1.3-.1.4-.3.5zm22 10.8c.2.7.6 1.3.8 2 .3.3.5.6.6 1 .2.1.2.2.3.3 0 .3.2.7-.2.9-.1 0-.2 0-.3.1-.1 0-.1.2-.2.2-.3.2-.7.1-.8.2-.8-.8-1.1-1.7-1.5-2.6-.2-.1-.2-.2-.3-.3-.1-.5-.5-.9-.5-1.5.4-.4.9-.3 1.2-.7.4-.1.5.4.9.4zm-4.3-30.7c-.2.7-.3 1.4-.5 2.1.1.4.1.8-.1 1.2.1.2.1.3.1.4-.2.3-.3.7-.7.6-.1 0-.2-.1-.3-.1-.1 0-.2.1-.3.1-.3 0-.6-.3-.8-.3-.2-1.1.1-2 .3-3-.1-.2 0-.2-.1-.4.2-.5.1-1.1.5-1.5.5-.1.9.2 1.4.1.3.1.4.4.5.8zM6.3 62.6c.1-.2.3-.2.4-.5.2-.1.4-.1.6-.2.6 0 1-.2 1.6-.2.6-.1 1.1-.4 1.8-.4.1 0 .2-.1.3-.1.2.2.4.2.7.2.3.3.4.6.6.9 0 .4-.1 1-.7.9-.8.3-1.6.4-2.3.7-.1-.1-.2 0-.4-.1-.2.3-.5.3-.9.3-.3.1-.8.5-1.1.4-.2-.1-.5-.4-.6-.6-.1-.2-.1-.8 0-1.3zm5.6 1s0 .1 0 0c.3.3.6.6.8.9.1.3-.1.7 0 1.1-.2.2-.5 0-.6.3-1.2.1-2.1.9-3.3 1-.2-.3-.5-1.4-.3-1.8.1-.1.5-.2.6-.3.4-.2 1.2-.4 1.6-.6.1-.1.2-.2.3-.2 0 0 .1.1.2 0 .1 0 .2-.2.3-.2.1-.1.2-.1.4-.2zm16.9 9.3c0 .3.1.6.2.9 0 .1-.1.1-.1.2.1.3 0 .6.1 1.1 0 .2.1.6.1.9 0 .2.1.4-.1.7-.4.4-1 .2-1.6.3-.7-.8-.6-1.8-.8-2.8.3-.8 1-1.4 1.8-1.3l.2-.2.2.2zm-14.9-5.2c-.9 0-1.5.5-2.2 1-.1 0-.4 0-.5-.1 0 0 0-.2-.1-.4-.1-.1-.3-.2-.3-.3-.1-.2 0-.5 0-.7.1-.1.3-.2.4-.3.5-.2 1-.6 1.5-.8.7.4 1.8.9 1.2 1.6zm1.7 1.1c.1.1 0 0 .2.1-.1.3-.2.3-.4.6-.7.3-1.2 1.2-1.9 1.6-.1.1-.2.4-.3.5-.4.2-.7.8-1.2.9-.6 0-.7-.6-1.2-.9-.1-.4 0-.6.3-1 .1-.1.2-.3.3-.3.2-.2.5-.2.7-.4.5-.5 1.2-1 1.6-1.6.3 0 .5-.3.8-.2.4 0 .8.5 1.1.7zm6.8 7.7c-.3 0-.6-.1-1-.1s-.8.1-.8-.3c.6-1.1.4-2.8 1.4-3.6.5.1 1.2.1 1.1.7 0 .1-.1.4-.2.7-.1.3-.1.6-.1.8-.1.3-.2.5-.2.7.1.5.2.7-.2 1.1zm-3.6-1.9c-.2-.7.4-1.5.5-2.3.4-.3 1.3-.7 1.7 0-.1.5-.4 1.2-.6 1.9-.1.3-.1.7-.3.8-.3.1-.9-.3-1.3-.4zm-6-27c.2 0 .4.1.5 0 .5.6 1.1 1.1 1.7 1.7-.2.8-.6 1.9-1.5 1.7-.2-.4-.7-.6-.9-1l-.6-.6c-.3-.5 0-1.3.8-1.8zm17.7 28c-.2-.1-.3-.2-.5-.2-.1-.8-.4-1.5-.7-2.3.6-.6 1.5-1.4 2.1-.8-.1.5.3.9.3 1.3 0 .3.2.6.2.8.2.5-.4 1.1-1.4 1.2zm3.3-29c.4-.5.8-1.2 1.2-1.8.1-.4.3-.8.6-1.1 0-.2.1-.3.1-.4.2-.2.5-.5.8-.3.1 0 .1.2.1.2h.3c.2.1.3.4.4.5-.3 1-.9 1.8-1.5 2.6 0 .2-.1.2-.1.4-.4.4-.5.9-1 1.2-.4-.1-.5-.5-.9-.6-.2 0 .2-.4 0-.7zm4.5.3c0 .2.2.2 0 .5-.6.6-.9 1.2-1.5 1.8-.7-.1-1.6-.4-1.3-1.2.4-.2.5-.7.9-1 .2-.2.3-.5.5-.6.4-.4 1-.2 1.4.5zM14.4 72.1c0-.2.1-.3 0-.5.6-.6 1-1.2 1.5-1.9.7.1 1.5.3 1.3 1-.4.2-.5.7-.9 1-.2.2-.4.5-.5.6-.4.6-1 .5-1.4-.2zm4.8-.8c-.2.5-.4 1-.8 1.5 0 0 0 .1-.1.2-.1.3-.2.5-.3.9-.1.3-.5.8-.7 1.1 0 .1 0 .2-.1.3-.4.5-.9-.4-1.4-.5-.5-1.1.8-2.1 1.1-3.4.3-.4.8-.3 1.3-.5.5.2.6.4 1 .4zm12.3-25.7c1-1.6 1.4-3.1 2-4.8.2 0 .1-.3.5-.2.4 0 .8.3 1.2.4.3.4.1.7-.1 1.2-.1.3-.1.6-.2.8-.2.5-.5.9-.6 1.4-.2.7-.2 1.5-.7 2-.6.2-.6.4-1.2 0-.1-.3-1-.2-.8-.5 0-.1-.1-.2-.1-.3z" fill-rule="evenodd" clip-rule="evenodd" fill="#72bf44"/><path d="M57.4 52.5c-.9 0-1.5-.2-2-.7s-.7-1.2-.7-2.1c0-.4.1-.8.2-1.2.1-.3.3-.6.6-.9.2-.2.5-.4.9-.5.3-.1.7-.2 1.1-.2.2 0 .4 0 .6.1.2 0 .3.1.5.1.1 0 .3.1.3.1.1 0 .2.1.2.1l-.3 1c-.2-.1-.4-.2-.6-.2-.2-.1-.4-.1-.7-.1-.2 0-.4 0-.5.1-.2.1-.3.2-.5.3-.1.1-.2.3-.3.5-.2.2-.2.5-.2.8 0 .2 0 .5.1.7.1.2.1.4.3.6.1.2.3.3.5.4.2.1.4.1.7.1h.5c.1 0 .3 0 .4-.1.1 0 .2-.1.3-.1.1 0 .2-.1.2-.1l.3 1c-.2.1-.4.2-.7.3h-1.2zm4.7-3.1c-.1 0-.2-.1-.4-.1h-1v3.1h-1.2v-3.9c.2-.1.5-.1.7-.2.3-.1.6-.1.9-.1h.8c.1 0 .2 0 .2.1v1.1zm.2 1c0-.4.1-.7.2-1 .1-.3.3-.5.4-.7.2-.2.4-.3.6-.4.2-.1.5-.1.7-.1.6 0 1 .2 1.4.5.3.4.5.9.5 1.6v.4h-2.6c0 .2.1.4.3.6.2.1.5.2.8.2.2 0 .4 0 .6-.1.2 0 .4-.1.5-.1l.2.9c-.1 0-.1.1-.2.1s-.2.1-.3.1c-.1 0-.3 0-.4.1h-.4c-.4 0-.7-.1-1-.2-.3-.1-.5-.3-.7-.4-.2-.2-.3-.4-.4-.7-.2-.2-.2-.5-.2-.8zM65 50c0-.1 0-.2-.1-.3 0-.1-.1-.2-.1-.2l-.2-.2c-.1 0-.2-.1-.3-.1-.1 0-.2 0-.3.1-.1 0-.2.1-.2.2-.1.1-.1.2-.1.3 0 .1-.1.2-.1.3H65zm5.3 2.3c-.1 0-.2.1-.4.1-.1 0-.3.1-.4.1-.1 0-.3 0-.5.1h-.4c-.3 0-.6 0-.9-.1-.3-.1-.5-.2-.7-.4-.2-.2-.3-.4-.4-.7-.1-.3-.1-.6-.1-.9 0-.3 0-.6.1-.9.1-.3.2-.5.4-.7.2-.2.3-.3.6-.4.2-.1.5-.1.8-.1h.4c.1 0 .3.1.4.1v-1.8l1.2-.2v5.8zm-2.6-2c0 .4.1.6.2.9.2.2.4.3.7.3h.5v-2.1c-.1 0-.2-.1-.3-.1h-.4c-.4-.1-.7.3-.7 1zm4.7-3.2c0 .2-.1.4-.2.5-.1.1-.3.2-.5.2s-.3-.1-.5-.2-.2-.2-.2-.5c0-.2.1-.4.2-.5.1-.1.3-.2.5-.2s.3.1.5.2c.1.2.2.3.2.5zm-.2 5.3H71v-4.1h1.2v4.1zm.8-5.1l1.2-.2v1.2h1.4v1h-1.4v1.4c0 .2 0 .4.1.6.1.1.3.2.5.2h.4c.1 0 .3-.1.4-.1l.2.9c-.1.1-.3.1-.5.1s-.4.1-.6.1c-.3 0-.6 0-.8-.1-.2-.1-.4-.2-.5-.4-.1-.2-.2-.3-.3-.6 0-.2-.1-.5-.1-.7v-3.4zm6.9 5.2c-.4 0-.7-.1-1-.2-.3-.1-.5-.3-.7-.4-.2-.2-.3-.4-.4-.7-.1-.3-.1-.6-.1-.9V47h1.2v3.2c0 .2 0 .4.1.6 0 .2.1.3.2.4.1.1.2.2.3.2.1 0 .3.1.4.1.3 0 .5-.1.7-.3.2-.2.3-.5.3-.9V47h1.2v3.3c0 .3 0 .6-.1.9-.1.3-.2.5-.4.7-.2.2-.4.3-.7.4-.3.2-.6.2-1 .2zm3-4c.2-.1.5-.1.8-.2.3 0 .6-.1 1-.1.3 0 .6 0 .9.1.2.1.4.2.5.4l.3.6c.1.2.1.5.1.8v2.3h-1.2v-2.2c0-.4 0-.6-.1-.8-.1-.2-.3-.2-.6-.2h-.5v3.2h-1.2v-3.9zm5.5-1.4c0 .2-.1.4-.2.5-.1.1-.3.2-.5.2s-.3-.1-.5-.2c-.1-.1-.2-.3-.2-.5s.1-.4.2-.5c.1-.1.3-.2.5-.2s.3.1.5.2c.1.2.2.3.2.5zm-.1 5.3h-1.2v-4.1h1.2v4.1zm4.6-2c0 .3 0 .6-.1.9-.1.3-.2.5-.4.7-.2.2-.4.3-.6.4-.2.1-.5.2-.8.2-.3 0-.6-.1-.8-.2-.2-.1-.5-.2-.6-.4-.2-.2-.3-.4-.4-.7-.1-.3-.1-.6-.1-.9 0-.3.1-.6.2-.9.1-.3.2-.5.4-.7.2-.2.4-.3.6-.4.2-.1.5-.2.8-.2.3 0 .6.1.8.2.2.1.5.2.6.4.2.2.3.4.4.7-.1.3 0 .5 0 .9zm-1.2 0c0-.4-.1-.6-.2-.8-.1-.2-.3-.3-.6-.3s-.5.1-.6.3c-.2.1-.3.4-.3.8s.1.6.2.9c.1.2.3.3.6.3s.5-.1.6-.3c.2-.3.3-.6.3-.9zm1.7-1.9c.2-.1.5-.1.8-.2.3 0 .6-.1 1-.1.3 0 .6 0 .9.1.2.1.4.2.5.4l.3.6c.1.2.1.5.1.8v2.3h-1.2v-2.2c0-.4 0-.6-.1-.8-.1-.2-.3-.2-.6-.2h-.5v3.2h-1.2v-3.9z" fill="#6d6e71"/></svg>