<svg xmlns="http://www.w3.org/2000/svg" xmlns:xlink="http://www.w3.org/1999/xlink" viewBox="0 0 119 119"><defs><path id="a" d="M4.7 41.1h110.4v37H4.7z"/></defs><clipPath id="b"><use xlink:href="#a" overflow="visible"/></clipPath><path d="M27.4 57.6v-9.9c0-.4-.2-.8-.8-1L24 45.6c-.2-.1-.6-.2-.6-.3 0-.1.2-.2.5-.2h13.9c.4 0 .5.1.5.2s-.4.2-.6.3l-2.6 1.1c-.6.3-.8.6-.8 1V70c0 .4.2.8.8 1l2.6 1.1c.2.1.6.2.6.3 0 .1-.2.2-.5.2h-14c-.4 0-.5-.1-.5-.2s.4-.2.6-.3l2.6-1.1c.6-.3.8-.6.8-1V59.6h-9V70c0 .4.2.8.8 1l2.6 1.1c.2.1.6.2.6.3 0 .1-.2.2-.5.2H8c-.4 0-.5-.1-.5-.2s.4-.2.6-.3l2.6-1.1c.6-.3.8-.6.8-1V47.7c0-.4-.2-.8-.8-1l-2.6-1.1c-.2-.1-.6-.2-.6-.3 0-.1.2-.2.5-.2h13.9c.4 0 .5.1.5.2s-.4.2-.6.3l-2.6 1.1c-.6.3-.8.6-.8 1v9.9h9z" clip-path="url(#b)" fill="#0b7db2"/><path d="M19.6 65.7c0 .2-.2.3-.3.3-.2 0-.3-.1-.3-.3 0-.2.2-.3.3-.3.1.1.3.2.3.3m1.3 3.2v.3s-.1.3 0 .3c0 0 .1 0 .1-.1v-.5s0-.3-.1-.3v.3m.4-.4s-.1.2-.1.3c0 .1.1.4.1.6 0 .2-.1.3-.1.3 0 .1.1.1.2.1l.1-.6s0-.4-.1-.5c0-.1-.1-.2-.1-.2m.4 0v.9c0 .3-.1.5-.1.5v.2s.1 0 .2-.1.1-.6.1-.9v-.5c0-.1 0-.3-.1-.3 0-.1-.2.1-.1.2m.5.1v.6s-.1.6-.1.7c0 .1-.1.4-.1.4 0 .1.1.1.2-.1s.2-1.1.2-1.1v-.6c0-.1-.1-.3-.2-.2-.1-.1 0 .1 0 .3m-1.6.2v.5h.1v-.4l-.1-.1c.1-.2 0 0 0 0m-.3.1v.5l.1-.1v-.2c-.1-.1 0-.1-.1-.2.1 0 0-.1 0 0" clip-path="url(#b)" fill="#FFF"/><path d="M47 54.1v-3.9c0-.2 0-.3-.1-.4l-.4-.4-.1-.1s0-.1.1-.1h2.3c.1 0 .1 0 .1.1l-.1.1-.4.4c-.1.1-.1.2-.1.4V59c0 .2 0 .3.1.4l.4.4.1.1s0 .1-.1.1h-2.3c-.1 0-.1 0-.1-.1l.1-.1.4-.4c.1-.1.1-.2.1-.4v-4.1h-1.5V59c0 .2 0 .3.1.4l.4.4.1.1s0 .1-.1.1h-2.3c-.1 0-.1 0-.1-.1l.1-.1.4-.4c.1-.1.1-.2.1-.4v-8.8c0-.2 0-.3-.1-.4l-.4-.4-.1-.1s0-.1.1-.1H46c.1 0 .1 0 .1.1l-.1.1-.4.4c-.1.1-.1.2-.1.4v3.9H47z" clip-path="url(#b)" fill="#0b7db2"/><path d="M52.8 59.3v.1l.5.5.1.1s0 .1-.1.1h-1.4c-.1 0-.1 0-.1-.1v-.5c-.2.3-.5.6-1 .6-.8 0-1.2-.5-1.2-1.5v-6l-.6-.4-.1-.1s0-.1.1-.1h1.4s.1 0 .1.1v6.5c0 .6.2.8.6.8.3 0 .7-.5.7-1.2v-5.7l-.4-.4-.1-.1s0-.1.1-.1h1.4c.1 0 .1 0 .1.1v7.3zm2.2-6.8c.3-.3.5-.5 1-.5.7 0 1.2.5 1.2 1.5v5.9l.5.5.1.1s0 .1-.1.1h-1.9c-.1 0-.1 0-.1-.1 0 0 0-.1.1-.1l.4-.5v-5.9c0-.6-.2-.8-.5-.8-.4 0-.7.5-.7 1.3v5.5l.4.5.1.1s0 .1-.1.1h-1.9c-.1 0-.1 0-.1-.1 0 0 0-.1.1-.1l.4-.5v-6.8l-.4-.4-.1-.1s0-.1.1-.1h1.4c.1 0 .1 0 .1.1v.3zm4.5 6.4c0 .3.1.5.3.5.2 0 .4-.2.5-.3l.1-.1s.1 0 0 .1c-.1.4-.4.9-1 .9s-.9-.3-.9-1.5v-6.1l-.5-.3-.1-.1s.1-.1.2-.1c.6-.1.7-1.2.7-1.8 0-.1 0-.1.1-.1h.4c.1 0 .1 0 .1.1v1.7c0 .1 0 .1.1.1h.3c.1 0 .1.1 0 .2l-.3.4c0 .1-.1.2-.1.3v6.1zm3.8-4c0 .1 0 .1-.1.1l-.1-.1c-.1-.5-.2-.9-.4-1.5-.2-.5-.4-.7-.7-.7-.3 0-.4.3-.4.8 0 .6.3 1.4.9 2.4.6.9.9 1.9.9 2.8 0 .9-.6 1.5-1.2 1.5-.4 0-.7-.2-.9-.5l-.3.3-.1.1v-2.9s0-.1.1-.1.1.1.1.1c.2 1.2.6 2.2 1.1 2.2.3 0 .5-.2.5-.6 0-.9-.5-1.9-.9-2.6-.5-.9-.8-1.8-.8-2.7 0-.9.6-1.6 1.1-1.6.4 0 .6.2.9.5l.4-.4.1-.1.1.1v2.9zm2.9 4.9c0 .1-.1.3-.2.3h-.4c-.1 0-.2-.1-.2-.2l-1-7.1c0-.1 0-.2-.1-.3l-.3-.3-.1-.1s0-.1.1-.1h1.8s0 .1-.1.1l-.4.4s-.1.1-.1.2l.6 4 .5-4c0-.1 0-.2-.1-.2l-.2-.4-.1-.1h1.6s.1 0 .1.1c0 0 0 .1-.1.1l-.4.3c-.1.1-.1.2-.1.3l-.8 7zm2.1-7.1v-.1l-.4-.4-.1-.1s0-.1.1-.1h1.4s.1 0 .1.1v7.3l.4.5.1.1s0 .1-.1.1h-1.9s-.1 0-.1-.1c0 0 0-.1.1-.1l.4-.5v-6.7zm1-2.8c0 .4-.2.8-.5.8s-.5-.4-.5-.8.2-.8.5-.8c.3.1.5.4.5.8m2.3 9.4v.1l.5.5.1.1s0 .1-.1.1h-1.9s-.1 0-.1-.1c0 0 0-.1.1-.1l.5-.5v-9.6l-.4-.4-.1-.1s0-.1.1-.1h1.4s.1 0 .1.1v10zm2.2 0v.1l.4.5.1.1s0 .1-.1.1h-1.9s-.1 0-.1-.1c0 0 0-.1.1-.1l.4-.5v-9.6l-.4-.4-.1-.1s0-.1.1-.1h1.4s.1 0 .1.1v10zm2.1-2.4c0 1.8.2 2.5.9 2.5.5 0 .7-.2 1-.7l.1-.1s.1 0 0 .1c-.2.7-.6 1.3-1.3 1.3-1.3 0-1.9-1.3-1.9-4.6 0-2.2.6-3.5 1.7-3.5.8 0 1.6.6 1.6 2.7v.9c0 .1 0 .2-.1.2h-2v1.2zm1.1-1.7v-1.5c0-.8-.2-1.2-.6-1.2-.4 0-.5.4-.5 1.2v1.5H77zM47.4 67.1v-3.9c0-.2 0-.3-.1-.4l-.4-.4-.1-.1s0-.1.1-.1h2.3c.1 0 .1 0 .1.1l-.1.1-.4.4c-.1.1-.1.2-.1.4V72c0 .2 0 .3.1.4l.4.4.1.1s0 .1-.1.1h-2.3c-.1 0-.1 0-.1-.1l.1-.1.4-.4c.1-.1.1-.2.1-.4v-4.1h-1.5V72c0 .2 0 .3.1.4l.4.4.1.1s0 .1-.1.1h-2.3c-.1 0-.1 0-.1-.1l.1-.1.4-.4c.1-.1.1-.2.1-.4v-8.8c0-.2 0-.3-.1-.4l-.4-.4-.1-.1s0-.1.1-.1h2.3c.1 0 .1 0 .1.1l-.1.1-.4.4c-.1.1-.1.2-.1.4v3.9h1.5zm5.5 1.5c0 3.6-.8 4.4-1.7 4.4-.9 0-1.7-.8-1.7-4.4 0-2.9.8-3.7 1.7-3.7.9 0 1.7.8 1.7 3.7m-1.1 0c0-2.5-.2-3.1-.6-3.1-.4 0-.6.5-.6 3.1 0 3.3.2 3.8.6 3.8.4 0 .6-.5.6-3.8m4.4-.8c0 .1 0 .1-.1.1l-.1-.1c-.1-.5-.2-.9-.4-1.5-.2-.5-.4-.7-.7-.7-.3 0-.4.3-.4.8 0 .6.3 1.4.9 2.4.6.9.9 1.9.9 2.8 0 .9-.6 1.5-1.2 1.5-.4 0-.7-.2-.9-.5l-.4.4-.1.1v-2.9s0-.1.1-.1.1.1.1.1c.2 1.2.6 2.2 1.1 2.2.3 0 .5-.2.5-.6 0-.9-.5-1.9-.9-2.6-.5-.9-.8-1.8-.8-2.7 0-.9.6-1.6 1.1-1.6.3 0 .6.2.9.5l.4-.4.1-.1.1.1v2.8zm1.2-2.3s0-.1-.1-.1l-.4-.3-.1-.1s0-.1.1-.1h1.4s.1 0 .1.1v.4c.2-.3.5-.5 1-.5.6 0 1.3.4 1.3 3.6 0 4.1-.7 4.5-1.3 4.5-.5 0-.7-.3-.9-.6v1.8l.4.5.1.1h-2.1s0-.1.1-.1l.5-.5v-8.7zm1 5.8c0 .6.4 1.1.7 1.1.3 0 .5-.3.5-3.8 0-2.7-.2-3-.5-3-.2 0-.6.4-.6 1.1v4.6zm3.3-5.7v-.1l-.4-.4-.1-.1s0-.1.1-.1h1.4s.1 0 .1.1v7.3l.4.5.1.1s0 .1-.1.1h-1.9s-.1 0-.1-.1c0 0 0-.1.1-.1l.5-.5v-6.7zm1-2.7c0 .4-.2.8-.5.8s-.5-.4-.5-.8.2-.8.5-.8.5.4.5.8m2.3 8.9c0 .3.1.5.3.5.2 0 .4-.2.4-.3l.1-.1s.1 0 0 .1c-.1.4-.4.9-1 .9s-.9-.3-.9-1.5v-6.1l-.4-.3-.1-.1s.1-.1.2-.1c.6-.1.7-1.2.7-1.8 0-.1 0-.1.1-.1h.4c.1 0 .1 0 .1.1v1.7c0 .1 0 .1.1.1h.3c.1 0 .1.1 0 .2l-.3.4c0 .1-.1.2-.1.3v6.1zm4.4.2c0 .2.1.4.2.4s.3-.1.4-.2c0 0 0-.1.1-.1v.1c-.1.4-.4.9-.8.9-.5 0-.7-.3-.9-.6-.2.3-.6.6-1 .6-.6 0-1.3-.4-1.3-2.4 0-1.6.2-2.1 1.8-3.3.3-.2.3-.4.3-1s-.1-.8-.6-.8c-.4 0-1 .3-1.3.6h-.1v-.1c0-.2.8-1.2 1.6-1.2.5 0 1.4.3 1.4 1.8V72zm-1-4.3c-.8.7-1.1 1.2-1.1 2.7 0 1.7.2 2 .5 2s.6-.4.6-.9v-3.8zm3.4 4.5v.1l.5.5.1.1s0 .1-.1.1h-1.9s-.1 0-.1-.1c0 0 0-.1.1-.1l.5-.5v-9.6l-.4-.4-.1-.1s0-.1.1-.1h1.4s.1 0 .1.1v10zm4.3-5.1h.3c.1 0 .1 0 .2-.1l.5-1c0-.1.1-.1.1-.1s.1 0 .1.1v3c0 .1 0 .1-.1.1 0 0-.1 0-.1-.1l-.6-1c0-.1-.1-.1-.2-.1H76V72c0 .2 0 .3.1.4l.5.4.1.1s0 .1-.1.1h-2.4c-.1 0-.1 0-.1-.1l.1-.1.4-.4c.1-.1.1-.2.1-.4v-8.8c0-.2 0-.3-.1-.4l-.4-.4-.1-.1s0-.1.1-.1H78c.1 0 .1.1.1.1v3.6s0 .1-.1.1c0 0-.1 0-.1-.1l-.8-2.7c-.1-.2-.2-.3-.4-.3h-.8v4.2zm5.9 1.5c0 3.6-.8 4.4-1.7 4.4-.9 0-1.7-.8-1.7-4.4 0-2.9.8-3.7 1.7-3.7.9 0 1.7.8 1.7 3.7m-1.2 0c0-2.5-.2-3.1-.6-3.1-.4 0-.6.5-.6 3.1 0 3.3.2 3.8.6 3.8.4 0 .6-.5.6-3.8m5.4 3.6v.1l.5.5.1.1s0 .1-.1.1h-1.4c-.1 0-.1 0-.1-.1v-.5c-.2.3-.5.6-1 .6-.8 0-1.2-.5-1.2-1.5v-6l-.4-.4-.1-.1s0-.1.1-.1H84s.1 0 .1.1v6.5c0 .6.2.8.6.8.3 0 .7-.4.7-1.2v-5.7L85 65l-.1-.1s0-.1.1-.1h1.4c.1 0 .1 0 .1.1v7.3zm2.2-6.8c.3-.3.5-.5 1-.5.7 0 1.2.5 1.2 1.5v5.9l.5.5.1.1s0 .1-.1.1h-1.9c-.1 0-.1 0-.1-.1 0 0 0-.1.1-.1l.5-.5v-5.9c0-.6-.2-.8-.5-.8s-.7.5-.7 1.3v5.5l.4.5.1.1s0 .1-.1.1H87c-.1 0-.1 0-.1-.1 0 0 0-.1.1-.1l.4-.5v-6.8l-.4-.4-.1-.1s0-.1.1-.1h1.4c.1 0 .1 0 .1.1v.3zm5.6-2.6c0-.1 0-.1-.1-.1l-.4-.4-.1-.1s0-.1.1-.1h1.4c.1 0 .1 0 .1.1v10.1l.5.5.1.1s0 .1-.1.1h-1.3c-.2 0-.2 0-.2-.1v-.5c-.2.3-.5.6-1 .6-.6 0-1.3-.4-1.3-4.5 0-3.2.7-3.6 1.3-3.6.4 0 .7.2 1 .5v-2.6zm0 3.8c0-.7-.4-1.1-.6-1.1-.4 0-.5.3-.5 3 0 3.5.1 3.8.5 3.8.3 0 .7-.4.7-1.2v-4.5zm5.1 5.4c0 .2.1.4.2.4s.3-.1.4-.2c0 0 0-.1.1-.1v.1c-.1.4-.4.9-.8.9s-.7-.3-.9-.6c-.2.3-.6.6-1 .6-.6 0-1.3-.4-1.3-2.4 0-1.6.2-2.1 1.8-3.3.3-.2.3-.4.3-1s-.1-.8-.6-.8c-.4 0-1 .3-1.3.6h-.1v-.1c0-.2.8-1.2 1.6-1.2.5 0 1.4.3 1.4 1.8V72zm-1-4.3c-.8.7-1.1 1.2-1.1 2.7 0 1.7.2 2 .5 2s.6-.4.6-.9v-3.8zm3.3 4.1c0 .3.1.5.3.5.2 0 .4-.2.4-.3l.1-.1s.1 0 0 .1c-.1.4-.4.9-1 .9s-.9-.3-.9-1.5v-6.1l-.3-.3-.1-.1s.1-.1.2-.1c.6-.1.7-1.2.7-1.8 0-.1 0-.1.1-.1h.4c.1 0 .1 0 .1.1v1.7c0 .1 0 .1.1.1h.3c.1 0 .1.1 0 .2l-.3.4c0 .1-.1.2-.1.3v6.1zm1.6-6.2v-.1l-.4-.4-.1-.1s0-.1.1-.1h1.4s.1 0 .1.1v7.3l.5.5.1.1s0 .1-.1.1h-1.9s-.1 0-.1-.1c0 0 0-.1.1-.1l.4-.5v-6.7zm1-2.7c0 .4-.2.8-.5.8s-.5-.4-.5-.8.2-.8.5-.8.5.4.5.8m4.4 5.7c0 3.6-.8 4.4-1.7 4.4-.9 0-1.7-.8-1.7-4.4 0-2.9.8-3.7 1.7-3.7 1 0 1.7.8 1.7 3.7m-1.1 0c0-2.5-.2-3.1-.6-3.1-.4 0-.6.5-.6 3.1 0 3.3.2 3.8.6 3.8.4 0 .6-.5.6-3.8m3.1-3.2c.3-.3.5-.5 1-.5.7 0 1.2.5 1.2 1.5v5.9l.5.5.1.1s0 .1-.1.1h-1.9c-.1 0-.1 0-.1-.1 0 0 0-.1.1-.1l.4-.5v-5.9c0-.6-.2-.8-.5-.8s-.7.5-.7 1.3v5.5l.5.5.1.1s0 .1-.1.1H109c-.1 0-.1 0-.1-.1 0 0 0-.1.1-.1l.4-.5v-6.8l-.4-.4-.1-.1s0-.1.1-.1h1.4c.1 0 .1 0 .1.1v.3z" clip-path="url(#b)" fill="#0b7db2"/><path d="M35 73c0-.1-.4-.3-.4-.4-.3-.3-.5-.4-.8-.6-.3-.1-.7-.3-.9-.4-.1 0-.1 0-.2-.1 0 0 .9-.1 1-.1.1 0 .2 0 .1-.1s-1.6-.4-1.8-.5c-.1 0-1.2-.3-1.4-.4-.1 0-.5-.1-1-.2s-1.2-.2-1.7-.3c-1.1-.2-2.7-.2-3.6 0l-.6.2c-.4.1-.9.3-1 .4-.1 0-.2 0-.1-.1 0-.1.2-.6.2-.7 0-.1.1-.6.1-.7 0-.3 0-.9-.1-1.3s-.7-1.6-.8-1.7c-.2-.2-.5-.6-1-1-.2-.2-.7-.3-.8-.3-.1 0-.6-.1-.9-.1-.3 0-.8.2-.8.2-.1.1-.3.2-.4.3l-.3.3c-.1.1-.2.1-.4.2-.1 0-.2.1-.3.1-.2 0-1.1.1-1.2.1-.1 0-.7.1-.9.2l-.2.1c0 .1.1.1.1.1.3.1 1.3.3 1.7.3.2 0 .5 0 .7.1.2.1.3.1.4.2.1.1.2.2.3.2.3.2.6.3.9.5.1 0 .6.2.7.3.3.2.6.3.7.7 0 .2 0 .5-.1.7-.1.2-.2.3-.4.5-.1.1-.2.2-.3.2-.1.1-.3.4-.4.5-.2.2-.4.9-.4 1.3 0 .2 0 .5.1.7 0 .1.1.2.2.2.1.1.2.1.3.1.1 0 .5.1.6.1.1 0 .7.1 1 .1.2 0 1.1 0 1.3.1.1 0 1 0 1.7.1h1.8c.2 0 1.1.1 2 .1h.6c.4 0 .9 0 1.4-.1.9 0 1.8 0 1.9-.1h2c.1.1 1.1.2 1.4 0 .1.1 0 0 0 0" clip-path="url(#b)" fill="#231f20"/><path d="M19.7 65.7c0 .2-.2.3-.3.3-.2 0-.3-.1-.3-.3 0-.2.2-.3.3-.3.1.1.3.2.3.3m6.3 4.5c0-.1-.1-.2-.2-.2 0 0-.1.1-.1.2v.2c.1 0 .1 0 .3-.2zm.4.4c0-.1 0-.1 0 0 0-.1 0-.1 0 0 0-.1-.1-.1 0-.1h.1s.1 0 .1-.1v-.2c0-.1-.1-.1-.2-.1h-.1c-.1.1-.1.2-.1.2v.1s0 .1-.1.1c0 0 0 .1-.1.1v.1l-.1.1v.2h.1c.1 0 .2-.1.2-.2v-.1h.1v-.1h.1m-1.2 0c.2 0 .3-.1.3-.2s0-.2-.1-.2c-.1.1-.1.1-.1.2v.1c-.1-.1-.2 0-.1.1m1.6-.2c.1 0 .1-.1.1-.1v-.1h-.1s-.1.1 0 .2m.4-.1v.2h.1l.1-.1v-.1h-.2m-2.1.1s-.1-.1 0 0c-.1-.1-.1-.1 0 0-.1-.1-.1-.2-.1-.2s-.1.1 0 .2h.1c-.2.1-.1.1 0 0-.1 0 0 0 0 0m2.8.3v-.3s.1 0 .1-.1v-.1c0-.1-.1-.1-.2-.1s-.2.2-.2.4v.1c.1.2.2.1.3.1m.4 0c.1 0 .1 0 .2-.1h.1c0-.2-.2-.2-.3-.2-.1.2 0 .3 0 .3m-3.8-.3c-.1 0-.1.2-.1.2h-.1v.1c.1 0 .1 0 .1-.1 0 0-.1 0 0-.1.2 0 .2-.1.1-.1m4.9 1h-.1v.1s.1 0 .1-.1c.1.1 0 0 0 0m-2.5-.8c0-.1-.1-.1-.2-.1l-.1.1v.3c0 .1 0 .1.1.1h.1v-.2l.1-.2c-.1 0-.1 0 0 0-.1 0-.1 0 0 0zm.4 0l-.1-.1-.2.1c0 .1.1.1.1.1.1 0 .2 0 .2-.1 0 .1 0 0 0 0m-3.1-.1s-.1 0-.1.1v.1h.1v-.2c.1.1.1.1 0 0 .1 0 0 0 0 0" clip-path="url(#b)" fill="#FFF"/><path d="M25.2 70.6l-.1.1.1.1s-.1 0-.1.1v.1h.2l-.1-.1h.1c0-.1 0-.2-.1-.3m.5 0c-.1 0-.1.1 0 0-.1.1-.1 0-.1.1.1.1.2.1.2 0 0 0 0-.1-.1-.1m-1.9.1s-.1 0 0 0c0 0-.1.2-.1.3h.1c.1 0 .1-.1.1-.1 0-.1-.1-.2-.1-.2m5.3 0l-.2-.1-.1.1v.1h.3c.1 0 0-.1 0-.1zm-.7.2s0-.1-.1-.2h-.1c0 .1 0 .1.1.1-.1.1 0 .1.1.1m1.5-.1c0-.1-.2-.1-.2-.1v.1c0 .1.1.1.2 0zm-2.5.1v.1h.2l.1-.1v-.1h-.2l-.1.1zm-2.9-.1h-.1v.2h.1c-.1 0 0-.1 0-.2 0 .1 0 0 0 0m1 .1c-.2.1-.1.1-.1.2v.1s.2-.1.2-.2c.1-.1 0-.1-.1-.1m1.7.1c0-.1-.1-.1-.2-.1l-.1.1v.2h.1l.2-.2m2.3-.1c-.1.1-.1.1 0 .1h.2s-.1 0-.2-.1m-2.9.1s-.1 0 0 0h-.1v.1l-.1.1v.1s.1 0 .2-.1V71zm2.1 0c-.1 0-.1 0-.1.1 0 0 .1.1.2.1h.1v-.1c0-.1-.1-.1-.2-.1m-.6 0c-.1 0-.1 0-.2.1v.1c.1 0 .2-.1.2-.1.1 0 .1 0 0-.1m-2.1.1c-.1 0 0 .1 0 0-.1.1 0 .1 0 .1s.1 0 0-.1c.1 0 0 0 0 0m1.3 0v.2h.2c0-.1 0-.1-.2-.2" clip-path="url(#b)" fill="#FFF"/><path d="M25.4 71.2s0-.1 0 0c-.1 0-.1.1-.1.1v.1h.1c.1-.2 0-.2 0-.2m3.1.1c-.1-.1-.1 0-.1 0l.1.1h.1l-.1-.1zm-.8 0c-.1.1-.1.2 0 .2h.2v-.1l-.2-.1m-.6.1l-.1.2h.1c.1-.1.1-.2 0-.2m-5.1.7c0 .1 0 .1 0 0 0 .1 0 .1 0 0m-.5.3c0 .1 0 .2.1.2 0-.1-.1-.1-.1-.2" clip-path="url(#b)" fill="#FFF"/><path d="M21.9 72.3c-.1-.1-.1-.1 0 0l-.1-.1h.1l-.2-.1h.2l-.5-.5s-.1-.2-.2-.3l-.1-.1-.3-.3c-.1-.1-.2-.2-.4-.3 0 0-.2-.1-.3-.1-.1 0-.5-.1-.5-.1-.1 0-.2 0-.3.1-.1.1-.2.3-.3.4 0 .1-.2.5-.2.6 0 .1-.1.4-.1.5v.4c0 .1.1.2.2.2.1.1.3.1.5.2s.9.1.9.1l.6.1h.7c-.1 0-.1-.1-.1-.1s-.1-.1 0-.1.2.1.2.1h.1c-.1-.1-.2-.2-.2-.3h.5c0-.2-.2-.3-.2-.3m-.9-3.4v.3s-.1.3 0 .3c0 0 .1 0 .1-.1v-.5s0-.3-.1-.4v.4m.4-.4s-.1.2-.1.3c0 .1.1.4.1.6 0 .2-.1.3-.1.3 0 .1.1.1.2.1l.1-.6s0-.4-.1-.5c0-.1-.1-.2-.1-.2m.4 0v.9c0 .3-.1.5-.1.5v.2s.1 0 .2-.1.1-.6.1-.9v-.5c0-.1 0-.3-.1-.3 0-.1-.1.1-.1.2m.5.1v.6s-.1.6-.1.7c0 .1-.1.4-.1.4 0 .1.1.1.2-.1s.2-1.1.2-1.1v-.6c0-.1-.1-.3-.2-.3s0 .2 0 .4m-1.6.2v.5h.1v-.4l-.1-.1c.1-.2 0 0 0 0m-.3.1v.5l.1-.1v-.2c-.1-.1 0-.1-.1-.2.1 0 0-.1 0 0m4.5 1.8l-.1.1v-.2h.1v.1" clip-path="url(#b)" fill="#FFF"/></svg>