<svg xmlns="http://www.w3.org/2000/svg" viewBox="0 0 119 119"><path d="M63.8 31.6c-.8-.8-1.8-1.3-2.9-1.3h-.1c-1.1 0-2.1.4-2.9 1.1-.8.8-1.3 1.8-1.3 2.9v.2c1.7.3 3.2.8 4.7 1.3 1.1-.4 2.3-.8 3.7-1.1 0-1.2-.4-2.3-1.2-3.1" fill="#fdb913"/><path d="M87.4 35.5c-2.5-.3-4.9-.5-7.2-.6-1.2-.1-2.4-.1-3.5-.1-4.2 0-7.7.2-10.6.9-1 .2-2 .5-2.8.8 2 .8 3.8 1.7 5.1 2.8 4-1.6 10.7-3.6 19-3.8" fill="#6dcff6"/><path d="M66.7 39.8c-1.5-1.1-3.4-2-5.5-2.8-1.4-.5-3-1-4.7-1.3-2.5-.5-5.3-.9-8.3-1-.9 0-1.8-.1-2.7-.1-4 0-8.4.3-13.1.9.3 0 .7 0 1 .1 2 .1 4.2.2 6.1.4 5.6.6 15.7 2.4 21 6.8 0 0 1.6-.9 2.9-1.5 1.7-.8 3-1.3 3.3-1.5 0 .1 0 .1 0 0" fill="#c1cd23"/><path d="M34.8 81.9c-1.3 0-2.1-.9-2.1-2.3s.8-2.3 2.1-2.3c.5 0 .9.1 1.2.3l-.1.8c-.3-.2-.6-.4-1.1-.4-.8 0-1.3.6-1.3 1.6s.5 1.5 1.3 1.5c.4 0 .8-.1 1.1-.4l.1.7c-.3.3-.7.5-1.2.5m4-3.8h-.5v1.4h.4c.5 0 .9-.2.9-.7 0-.5-.3-.7-.8-.7m1.9 3.6l-.9.2-1.2-1.7h-.4v1.7h-.8v-4.4h1.4c1 0 1.6.5 1.6 1.3 0 .6-.3 1-.9 1.2l1.2 1.7zm1.2.1v-4.4h2.6v.7h-1.7v1.1h1.3l.1.7h-1.4v1.2h1.7v.7zm5.4-3.7h-.6v3h.5c.9 0 1.5-.5 1.5-1.5s-.6-1.5-1.4-1.5m0 3.7h-1.4v-4.4h1.4c1.5 0 2.3.9 2.3 2.2 0 1.3-.8 2.2-2.3 2.2m3.7-4.4h.9v4.4H51zm4.4.7v3.7h-.9v-3.7h-1.3v-.7h3.4l.2.7zm6.3 3.8c-1.1 0-1.8-.6-1.8-1.8v-2.7h.8v2.7c0 .7.3 1.1.9 1.1.6 0 .9-.4.9-1.1v-2.7h.9v2.7c.1 1.2-.6 1.8-1.7 1.8m6.2-.1l-2.1-3v3H65v-4.4h.8l2 2.9v-2.9h.8v4.4zm2.3-4.4h.9v4.4h-.9zm4.4.6c-.8 0-1.2.6-1.2 1.6s.5 1.6 1.2 1.6c.8 0 1.2-.6 1.2-1.6 0-.9-.5-1.6-1.2-1.6m0 3.9c-1.3 0-2.1-.9-2.1-2.3s.8-2.3 2.1-2.3 2.1.9 2.1 2.3c-.1 1.4-.9 2.3-2.1 2.3m6.3-.1l-2.1-3v3H78v-4.4h.8l2 2.9v-2.9h.8v4.4zm-58.9-9V46.1l3.8-1.2v24.5h9.1v3.4zm15.5 0V54l3.7-1.3v20.1zm15.3-17.2c-1.8 0-2.8.5-3.7.9v13.1c.8.3 1.7.5 3 .5 3.8 0 6.7-3.4 6.7-7.7 0-3.9-2.2-6.8-6-6.8m-1.5 17.6c-2.8 0-4.8-.6-5.9-1.3V44l3.7-1.2v10.3c1.4-.5 2.7-.8 4.3-.8 4.7 0 9.1 3.2 9.1 9.8 0 7-5.1 11.1-11.2 11.1m28.9-10.5c0 4.4 2.1 7.4 5.6 7.4 3.5 0 5.5-3 5.5-7.4s-2-7.4-5.6-7.4-5.5 3-5.5 7.4m12.2-7.8c1.8 1.9 2.8 4.6 2.8 7.8s-1 6-2.8 7.8c-1.7 1.7-3.9 2.6-6.6 2.6-2.6 0-4.8-.8-6.5-2.5-1.9-1.9-2.9-4.7-2.9-8s1-6 2.8-7.9c1.7-1.7 3.9-2.7 6.6-2.7 2.7.2 5 1.2 6.6 2.9m-16.1-2.1c-.9-.2-1.7-.3-2.5-.3-1.4 0-2.5.1-4 .6-1.7.6-3.4 1.8-4.7 3.2l-.2.3v16.1h3.8V57.6c1.3-1.1 2.9-2 4.5-2 .4 0 1.2 0 1.8.2h.2l.1-.2c.3-.6.6-1.3 1-2l.4-.8h-.4z" fill="#007ac1"/></svg>