<svg xmlns="http://www.w3.org/2000/svg" viewBox="0 0 119 119"><path fill="#ed1c24" stroke="#ed1c24" stroke-width=".355" d="M35.5 65.7h73.4"/><path d="M90.5 67.9c.2-.7-.3-.9-.5-.9h-2l-1 3.7h1.7c.7 0 1.3-.2 1.5-1 .1-.5-.1-.9-.4-.9.3-.1.6-.4.7-.9zm-1.3 1.7c-.1.4-.3.4-.6.4h-.4l.2-.8h.4c.3 0 .5 0 .4.4zm.3-1.6c-.1.5-.4.4-.7.4h-.3l.2-.7h.3c.3 0 .6 0 .5.3zm11.2-1h-1.8l-1 3.7h1.6c1.1 0 1.8-.8 2.1-1.9.4-1.5-.5-1.8-.9-1.8zm-.1 1.9c-.1.6-.5 1.1-1.1 1.1h-.4l.5-2.1h.5c.5-.1.7.3.5 1zM36.9 67h-1.8l-1 3.7h1.6c1.1 0 1.8-.8 2.1-1.9.4-1.5-.5-1.8-.9-1.8zm-.1 1.9c-.1.6-.5 1.1-1.1 1.1h-.4l.5-2.1h.5c.6-.1.7.3.5 1zm67.7-.4l-.2.8H103l-.2.6h1.6l-.2.8h-2.6l1-3.7h2.5l-.2.8h-1.5l-.2.6zM71.6 67h1l-.4 1.4h1.3l.3-1.4h1l-.9 3.7h-1l.4-1.5H72l-.4 1.5h-1zm-5 0h1l-1 3.7h-1zm39.1 0h1.7c.8 0 1.1.4.9 1.1-.1.4-.5.8-.9.9.1.6.2 1.2.3 1.7h-1.1c0-.7-.1-1.4-.2-2.1h.2c.3 0 .6-.1.7-.5.1-.4-.2-.4-.3-.4h-.5l-.8 3h-1l1-3.7zm-10.2 0h1.7c.8 0 1.1.4.9 1.1-.1.4-.5.8-.9.9.1.6.2 1.2.3 1.7h-1.1c0-.7-.1-1.4-.2-2.1h.2c.3 0 .6-.1.7-.5.1-.4-.2-.4-.3-.4h-.5l-.8 3h-1l1-3.7zm-42 0h1.7c.8 0 1.1.4.9 1.1-.1.4-.5.8-.9.9.1.6.2 1.2.3 1.7h-1.1c0-.7-.1-1.4-.2-2.1h.2c.3 0 .6-.1.7-.5.1-.4-.2-.4-.3-.4h-.5l-.8 3h-1l1-3.7zM83 67h3l-.2.8h-1l-.7 2.9h-1l.7-2.9h-1zm-14.9 0h3l-.3.8h-.9l-.8 2.9h-1l.8-2.9h-1zM46 67h3l-.2.8h-1l-.7 2.9h-1l.7-2.9h-1zm34.5 0l-.5 2.1c-.1.5-.1.9.4.9.4 0 .7-.3.8-.9l.5-2.1h1l-.7 2.5c-.2.9-1 1.3-1.9 1.3-.9 0-1.5-.4-1.2-1.3l.6-2.5h1zM66 67l-1.9 3.7h-1.2l.2-2.3-1 2.3h-1.2l.2-3.7h.9l-.1 2.6L63 67h1l-.2 2.6 1.3-2.6zm-21.4 3.7c-.3 0-.7.1-.9.1-1.1 0-1.7-.7-1.4-1.9.3-1.2 1.3-1.9 2.4-1.9.3 0 .6 0 .8.1l-.1.9c-.2-.1-.5-.2-.7-.2-.8 0-1.2.6-1.3 1.1-.1.6 0 1.1.6 1.1.4 0 .7-.1 1-.1l-.4.8zm11.5-1c.2.1.5.3.8.3.2 0 .4 0 .5-.3.1-.5-1-.9-.7-1.8.1-.4.5-1 1.4-1 .3 0 .6 0 .8.1l-.1.9c-.2-.1-.4-.2-.6-.2-.2 0-.4.1-.5.3-.1.6 1 .8.7 1.8-.1.5-.6 1-1.5 1-.3 0-.6-.1-.9-.1l.1-1zm52.2 0c.2.1.5.3.8.3.2 0 .4 0 .5-.3.1-.5-1-.9-.7-1.8.1-.4.5-1 1.4-1 .3 0 .6 0 .8.1l-.1.9c-.2-.1-.4-.2-.6-.2-.2 0-.4.1-.5.3-.1.6 1 .8.7 1.8-.1.5-.6 1-1.5 1-.3 0-.6-.1-.9-.1l.1-1zm-67.7-2.8c-1.1 0-2.1.7-2.4 1.9-.3 1.2.3 1.9 1.4 1.9 1.1 0 2.1-.7 2.4-1.9.3-1.2-.3-1.9-1.4-1.9zm.4 2c-.1.6-.6 1.1-1.2 1.1s-.8-.5-.6-1.1c.1-.6.6-1.1 1.2-1.1s.7.5.6 1.1zm10-2c-1.1 0-2.1.7-2.4 1.9-.3 1.2.3 1.9 1.4 1.9 1.1 0 2.1-.7 2.4-1.9.3-1.2-.3-1.9-1.4-1.9zm.4 2c-.1.6-.6 1.1-1.2 1.1s-.8-.5-.6-1.1c.1-.6.6-1.1 1.2-1.1s.8.5.6 1.1zm25.8-2c-1.1 0-2.1.7-2.4 1.9-.3 1.2.3 1.9 1.4 1.9 1.1 0 2.1-.7 2.4-1.9.3-1.2-.3-1.9-1.4-1.9zm.4 2c-.2.6-.6 1.1-1.2 1.1s-.8-.5-.6-1.1c.1-.6.6-1.1 1.2-1.1s.7.5.6 1.1zm15.5-2c-1.1 0-2.1.7-2.4 1.9-.3 1.2.3 1.9 1.4 1.9 1.1 0 2.1-.7 2.4-1.9.3-1.2-.3-1.9-1.4-1.9zm.4 2c-.1.6-.6 1.1-1.2 1.1s-.8-.5-.6-1.1c.1-.6.6-1.1 1.2-1.1s.8.5.6 1.1zm-24.3-8.3H68c-.8 1.3-1.7 2.6-2.5 3.8h1.1l.7-1.1h1.2l.1 1.1h1.1c-.3-1.3-.4-2.6-.5-3.8zm-1.5 1.9l.7-1.1.1 1.1h-.8zm-21.6-1.9h-1.8l-1 3.8h1.6c1.1 0 1.8-.8 2.1-1.9.5-1.6-.4-1.9-.9-1.9zm0 1.9c-.1.6-.5 1.1-1.1 1.1h-.4l.6-2.2h.5c.4 0 .5.4.4 1.1zm3.9-.4l-.2.8h-1.4l-.2.7h1.6l-.2.8H47l1-3.8h2.6l-.2.8h-1.6l-.2.7zm-6.9 0l-.2.8h-1.3l-.2.7H43l-.2.8h-2.6l1-3.8h2.6l-.2.8H42l-.2.7zm11.2-1.5h1l-1 3.8h-1zm-16.2 0V63l1.2-2.4h1.3l-1 3.8h-.8l.7-2.7-1.4 2.7h-.9l.1-2.7-.7 2.7h-.8l1-3.8zm32.8 0h1.2l.6 2.5.6-2.5h.9l-1 3.8H72l-.6-2.4-.6 2.4h-.9zm-14.9 0h1.1l.6 2.5h.1l.6-2.5h.9l-1 3.8h-1.2l-.6-2.4-.6 2.4H55zm-3.2 3.8c-.3 0-.7.1-.9.1-1.1 0-1.7-.7-1.4-2 .3-1.3 1.3-2 2.4-2 .3 0 .6 0 .8.1l-.1.9c-.2-.1-.5-.2-.7-.2-.8 0-1.2.6-1.4 1.1-.2.6 0 1.1.6 1.1.4 0 .7-.1 1-.2l-.3 1.1zm6.3-1c.2.1.5.3.8.3.2 0 .5 0 .5-.3.1-.5-1-.9-.8-1.9.1-.4.5-1 1.4-1 .3 0 .6 0 .8.1l-.1.9c-.2-.1-.4-.2-.7-.2-.2 0-.4.1-.5.3-.1.6 1 .8.8 1.8-.1.5-.6 1-1.5 1-.3 0-.6-.1-.9-.1l.2-.9zm4.2 0c.2.1.5.3.8.3.2 0 .5 0 .5-.3.1-.5-1-.9-.8-1.9.1-.4.5-1 1.4-1 .3 0 .6 0 .8.1v.9c-.2-.1-.4-.2-.7-.2-.2 0-.4.1-.5.3-.1.6 1 .8.8 1.8-.1.5-.6 1-1.5 1-.3 0-.6-.1-.9-.1l.1-.9zm10.8 0c.2.1.5.3.8.3.2 0 .5 0 .5-.3.1-.5-1-.9-.8-1.9.1-.4.5-1 1.4-1 .3 0 .6 0 .8.1l-.1.9c-.2-.1-.4-.2-.7-.2-.2 0-.4.1-.5.3-.1.6 1 .8.8 1.8-.1.5-.6 1-1.5 1-.3 0-.6-.1-.9-.1l.2-.9zm26.5-1.3l-.2.8H99l-.2.7h1.6l-.2.8h-2.6l1-3.8h2.6l-.2.8h-1.6l-.2.7zm6.5 0l-.2.8h-1.3l-.2.7h1.6l-.2.8h-2.6l1-3.8h2.6l-.2.8H106l-.2.7zm-26.2 0l-.2.8h-1.2l-.4 1.5h-1l.9-3.8h2.5l-.2.8h-1.5l-.1.7zm16-1.5h1l-.9 3.8h-1.1zm-7.3 0h1.2l.6 2.5.6-2.5h.9l-1 3.8h-1.2l-.6-2.4-.6 2.4h-.9zm12.2 0h1.7c.8 0 1.1.4.9 1.2-.1.5-.5.8-1 1 .1.6.2 1.2.3 1.7h-1.1c0-.7-.1-1.5-.2-2.1h.2c.3 0 .6-.1.7-.5.1-.4-.2-.4-.4-.4h-.5l-.8 3h-1l1.2-3.9zm-19.8 0h1.7c.8 0 1.1.4.9 1.2-.1.5-.5.8-1 1 .1.6.2 1.2.3 1.7h-1.1c0-.7-.1-1.5-.2-2.1h.2c.3 0 .6-.1.7-.5.1-.4-.2-.4-.4-.4h-.5l-.8 3h-1l1.2-3.9zm11.4 0h3l-.2.8h-1l-.8 3h-1l.8-3h-1zm14.1 2.8c.2.1.5.3.8.3.2 0 .5 0 .5-.3.1-.5-1-.9-.8-1.9.1-.4.5-1 1.4-1 .3 0 .6 0 .8.1l-.1.9c-.2-.1-.4-.2-.7-.2-.2 0-.4.1-.5.3-.1.6 1 .8.8 1.8-.1.5-.6 1-1.5 1-.3 0-.6-.1-.9-.1l.2-.9zm-20.4-2.9c-1.1 0-2.1.7-2.4 2-.3 1.3.3 2 1.4 2 1.1 0 2.1-.7 2.4-2 .4-1.3-.2-2-1.4-2zm.4 2c-.2.6-.6 1.1-1.2 1.1s-.8-.6-.6-1.1c.2-.6.6-1.1 1.2-1.1s.8.5.6 1.1z"/><g fill="#ed1c24"><path d="M19.2 67.5c.3-.2 1.1-.6 1.1-.6.1-.1.2-.1.2 0 0 .2 0 .5.2.6.1 0 .2-.1.2 0l.1.1h.2c.1.1 0 .1 0 .2.1.1.2 0 .2 0 .1 0 .1.1.1.2s0 .2.2 0c.1-.1.1 0 .2-.1h.2l.1.1h.2c.1 0 .1.1.1.1.1 0 .1-.1.2-.1.1.1-.1.3 0 .3h.2c.1 0 .1-.1.1-.1.1 0 .1.1.2 0 .1 0 .1-.1.1-.1.1 0 .1 0 .2-.1.1 0 0-.2.2-.1.2 0 0 .2 0 .2h.2c.1 0 .2-.1.2-.2s.2-.4.2-.5c.1-.1.2-.4.3-.5.1-.1.3-.5.4-.6 0-.1.1-.2.2-.2 0-.1.1-.2.2-.4.1-.1.3-.4.3-.5 0-.1.2-.4.2-.5.1-.1.2-.3.3-.5 0-.1.2-.4.2-.4l.1-.2s0-.1.1-.2.2-.4.3-.5c.1-.1.2-.3.2-.3l.1-.3.1-.2s.1-.2.1-.3c0-.1.2-.2.2-.3 0-.1.1-.4.2-.5.1-.1.3-.6.3-.6 0-.1.3-.6.3-.7 0-.1 0-.2.1-.3 0-.1.1-.2.2-.3l.2-.5c0-.1 0-.2.1-.2s.1.1.2.1c.1.1.2.1.2.1l.3.3s.1 0 .1.1c0 0 0 .1.1.1 0 0 .2.1.2.2s.1.2.1.2.2.2.3.2c0 .1.3.4.3.5 0 .1.1.2.1.2l.1.1v.2s.1.1.2.1l.1.2.1.1s0 .2.1.3l.1.2c0 .1.1.2.1.2v.3c0 .1.1.2.1.2v.1l.1.2.1.2v.2l.1.2.1.2v.2l.1.2v.5l.1.2c-.1.1-3.7 1.7-5.2 2.5-2.2 1-6.9 3.4-7.4 3.7-.5.3-.8.5-.9.4-.3-.1-.7-.5-1-1.4-.3-.7-.3-1.3-.2-1.6 0-.2 0-.4.3-.6.3.6.9.2 1.2 0zm-6.4-12.8h.2l.1.1h.1c.1 0 0 .1.1.2 0 .1.1.1.1.2.1 0 .1 0 .1.1v.2c.1.2 0 .7.1.7s.3 0 .4-.1l.3-.3c.1-.1.4-.2.5-.2.1 0 .2-.2.3-.2.1 0 .1-.1.2-.1s.3-.1.3-.1.1.1.2.1.2 0 .2.1c0 .2.3 0 .3 0s.3-.2.4-.2c.1-.1.4-.2.4-.2s.3-.1.4-.2c3.9-1.9 7-2.9 9.8-4 4.4-1.7 12.1-3.7 13.5-4 .2 0 .5-.1.5-.1s.1 0 .1-.2c0-.1-.1-.3-.1-.4s.2-.3.2-.5c0-.1-.1-.1-.1-.1v-.3c0-.1-.2-.2-.3-.3v-.4c0-.1-.1-.2-.1-.2v-.1c0-.1-.1-.1-.1-.1v-.2c0-.1-.1-.1-.1-.1l-.1-.1s0-.1-.1-.2c-.1 0-.2 0-.3-.1-.1 0-.2-.1-.3 0-.1 0-.1.1-.4.1-.2.1-.3 0-.5 0-.1 0-.2.1-.3.1-1.2.3-6.6 1.9-10.6 3.4-3.7 1.4-8.2 3.4-10.9 4.8-2 1.1-3.1 1.7-3.6 2-.2.1-.5.3-.5.4-.1.1-.1.3-.3.3-.2 0-.1.1-.2.1s-.1.1-.2.1c.2-.1.2-.1.3 0zm16.9-2.5c-.2-.1-.1-.2.1-.3 1.3-.6 4.6-1.7 6.4-2.3 1.6-.5 6-1.9 7.3-2.3.3-.1.4-.1.5.1.3.4.7.8 1 1.4.3.5.5 1.3.6 1.8.1.4-.1.4-.3.5-1.4.6-4.7 2.1-6.1 2.8-1.4.6-3.9 1.9-4.7 2.3-.4.2-.3.3-.5 0-.1-.1-.2-.3-.2-.3 0-.1-.5-.5-.6-.5-.1-.1-.3-.4-.4-.4-.1-.1-.3-.4-.4-.4-.1 0-.2-.1-.2-.1-.1-.1-.1-.2-.2-.2s-.2-.2-.2-.2l-.2-.1-.1-.2s-.1-.2-.2-.2-.2-.2-.2-.2c0-.1-.3-.4-.5-.5-.1-.1-.5-.3-.5-.4-.2-.1-.3-.2-.4-.3zm4.9 4.8c-.1-.1 0-.2.2-.2.6-.2 4-1.3 6.9-2.1 3-.8 7.2-1.7 7.9-1.8.3-.1.4 0 .5.2.2.3.5 1.1.6 1.8.2.9 0 1.7-.1 1.9-.1.2-.3.2-.9.3-.3.1-1.8.5-2.4.6-.7.2-2.5.7-3.2 1-.8.3-1.9.7-1.9.7l-5.9.1-.1-.4c-.1 0-.1-.2-.2-.3-.1-.1-.1-.2-.1-.2l-.1-.2c-.1 0-.2-.3-.2-.4-.1 0-.2-.2-.2-.3-.1-.1-.1-.2-.2-.2-.1-.1-.2-.2-.3-.2-.1-.1-.1-.2-.3-.3zm-7.1-11.3h-.4v-.1h-.3c-.1 0-.3-.1-.4 0h-.3c-.1 0-.1-.2-.2-.2s-.2-.1-.3-.2c-.1-.1-.2-.2-.2-.3 0-.1-.1-.2-.1-.2 0-.1-.1-.2-.1-.2l-.1-.1-.1-.2-.1-.1V44s-.1-.1-.1-.2v-1.1c0-.1.1-.2.1-.3 0-.1.1-.4.2-.6 0-.1.1-.4.1-.5 0-.1.1-.4.2-.4.1-.1.2-.4.3-.5.1-.1.4-.5.5-.5.1-.1.3-.2.3-.3 0 0 .3-.2.4-.3h.2l.1-.1s0-.1.1-.1h.2s.1-.1.3-.1c.1 0 .1-.1.1-.1h.3s.1.1.2.1h.2c.1 0 .1.1.2.1l.6.6v.1s.1.1.1.2.1.1.1.3c0 .1.2.2.2.3v.2l.1.1v.2c0 .1.1.3.1.5s0 .3-.1.5v.5c0 .1-.1.3-.1.4 0 .1-.2.6-.2.6 0 .1-.1.3-.2.3-.1.1-.5.6-.5.7-.1.1-.3.2-.3.3 0 .1-.1.2-.1.2-.1.1-.2 0-.2.1l-.2.2c0 .1-.1.2-.2.2 0 0-.2.1-.4.1z"/><path d="M15.8 62.9s-1.7.6-2.4.8c-.6.2-1.4.5-1.8.7-.6.2-1.6.6-1.9.7-.4.1-.5.1-.6-.2-.1-.2-.4-.7-.5-1.3-.1-.6-.2-1-.2-1.2 0-.2.1-.5.3-.6.2-.1.7-.4 1.1-.6.8-.4 3.4-1.8 5-2.7 1.7-.9 4.3-2.1 5.7-2.8 1.4-.7 3.7-1.8 4-1.9.3-.1.6-.3.7-.3.1 0 .1.1.1.1 0 .1 0 .1-.1.2v.3c0 .1-.1.2-.1.3 0 .1 0 .3-.1.4-.1.1-.3.6-.4.8-.1.2-.2.6-.2.7-.1.1-.2.4-.2.5 0 .1-.1.4-.2.5 0 .1-.2.5-.3.6 0 .1-.2.5-.2.6 0 .1-.2.3-.2.3l-.1.3-.2.3c0 .1-.1.5-.2.6-.1.1-.4.9-.5 1.1-.1.3-.2.6-.2.7 0 .1-.2.4-.3.5 0 .1-.2.6-.2.7-.1.1-.2.4-.2.5 0 .1-.1.3-.2.5s-.2.5-.2.6c-.1.1-.1.2-.1.3 0 .1 0 .3-.1.3 0 .1-.1.1-.1.1-.1 0-4.8 2.1-5.4 2.4-.7.3-5.4 2.6-5.7 2.7-.3.1-.7.4-1 .2-.4-.3-.7-.8-1-1.3-.2-.4-.4-1.1-.5-1.5 0-.6.2-.7 1.1-1.2.4-.3 3.8-2.1 4.9-2.6.5.1 2.7-1.1 2.7-1.1z"/></g></svg>