<svg xmlns="http://www.w3.org/2000/svg" viewBox="0 0 119 119"><path d="M10.5 61.9h2.4v1.4c0 1.2.4 1.9 1.4 1.9 1.3 0 1.6-.9 1.6-2 0-1.5-.1-1.9-2.6-4.4-1.5-1.5-2.8-2.9-2.8-5.3 0-2.8 1.3-4.1 3.9-4.1 1.3 0 2.2.4 2.8 1 .4.4.7 1 .7 2.2v1.6h-2.3v-1.4c0-1-.4-1.6-1.3-1.6-1 0-1.4.6-1.4 1.9 0 1.2.2 1.9 2.4 4.2 2.4 2.4 2.8 3.3 2.8 5.4 0 2.7-1.1 4.3-3.9 4.3-2.2 0-3.7-.9-3.7-3.1v-2zM21 49.6h2.4v17.3H21zm5.4 12.3h2.4v1.4c0 1.2.4 1.9 1.4 1.9 1.3 0 1.6-.9 1.6-2 0-1.5-.1-1.9-2.6-4.4-1.5-1.5-2.8-2.9-2.8-5.3 0-2.8 1.3-4.1 3.9-4.1 1.3 0 2.2.4 2.8 1 .4.4.7 1 .7 2.2v1.6h-2.3v-1.4c0-1-.4-1.6-1.3-1.6-1 0-1.4.6-1.4 1.9 0 1.2.2 1.9 2.4 4.2 2.4 2.4 2.8 3.3 2.8 5.4 0 2.7-1.1 4.3-3.9 4.3-2.2 0-3.7-.9-3.7-3.1v-2zM37 49.6h2.4v7.9l3.8-7.9h2.4l-4 8.2 4.3 9.2h-2.7l-3.8-8.7V67H37zm11.4 0h2.4v17.3h-2.4zm6.4 0h3.3L60.9 64V49.6h2.3V67h-3.5l-2.8-14.8V67h-2.1zm12.3 0H71c3.9 0 4.2 1.3 4.2 6.3v5.2c0 4.4-.8 5.8-4.6 5.8h-3.5V49.6zm2.4 15.3h1.2c1.8 0 2.1-.9 2.1-3.9v-5.9c0-2.6-.3-3.4-2.3-3.4h-1v13.2zm8.3-3h2.4v1.4c0 1.2.4 1.9 1.4 1.9 1.3 0 1.6-.9 1.6-2 0-1.5-.1-1.9-2.6-4.4-1.5-1.5-2.8-2.9-2.8-5.3 0-2.8 1.3-4.1 3.9-4.1 1.3 0 2.2.4 2.8 1 .4.4.7 1 .7 2.2v1.6H83v-1.4c0-1-.4-1.6-1.3-1.6-1 0-1.4.6-1.4 1.9 0 1.2.2 1.9 2.4 4.2 2.3 2.4 2.8 3.3 2.8 5.4 0 2.7-1.1 4.3-3.9 4.3-2.2 0-3.7-.9-3.7-3.1v-2zM99 49.6v.5h-.6v3.5h-.5v-3.5h-.7v-.5zm3.7 0v1.6h.8v-1.6h.5v4h-.5v-1.9h-.8v1.9h-.5v-4zm6.2 0v.5h-.9v1.2h.8v.5h-.8v1.4h.9v.4h-1.5v-4zM98.7 63v.4h-.9v1.3h.9v.4h-.9V67h-.5v-4zm1.8 0h.5v4h-.5zm2.5 0h.6c.4 0 1 0 1 1 0 .4-.1.9-.5 1l.7 1.9h-.5l-.7-1.9v2h-.6v-4zm1 1.1c0-.4 0-.7-.4-.7h-.1v1.3c.4.1.5-.2.5-.6m3-1.1l.5 2.8v-.1l.2-1 .3-1.7h.5l.4 4h-.5l-.1-1.5-.1-.8v-.5l-.1.6-.4 2.2h-.4l-.5-2.8-.1 2.8h-.5l.3-4zM91.3 75.5s-.3-7.4-.3-17.3.3-17.2.3-17.2h.1s.3 7.4.3 17.3-.3 17.2-.4 17.2zM97.2 61h1.6v.6h-2.3v-6.8h.7zm6.5.6h-.7l-.3-1.4h-1.6l-.3 1.4h-.7l1.5-6.8h.7l1.4 6.8zm-1.2-2l-.7-3.7-.6 3.7h1.3zm6 2h-.6s-.9-5.3-.9-5.7h.1c0 .4-1 5.7-1 5.7h-.6l-1.2-6.8h.7l.7 4.5c0 .3.1.7.1 1 .1-.3.1-.7.2-1l.9-4.5h.5l.7 4.5c0 .3.1.7.2 1 0-.3.1-.7.2-1l.8-4.5h.7l-1.5 6.8z"/></svg>