<?xml version="1.0" encoding="utf-8"?>
<!-- Generator: Adobe Illustrator 19.1.0, SVG Export Plug-In . SVG Version: 6.00 Build 0)  -->
<svg version="1.1" id="Layer_1" xmlns="http://www.w3.org/2000/svg" xmlns:xlink="http://www.w3.org/1999/xlink" x="0px" y="0px"
	 viewBox="0 0 18 17" style="enable-background:new 0 0 18 17;" xml:space="preserve">
<metadata><?xpacket begin="﻿" id="W5M0MpCehiHzreSzNTczkc9d"?>
<x:xmpmeta xmlns:x="adobe:ns:meta/" x:xmptk="Adobe XMP Core 5.6-c067 79.157747, 2015/03/30-23:40:42        ">
   <rdf:RDF xmlns:rdf="http://www.w3.org/1999/02/22-rdf-syntax-ns#">
      <rdf:Description rdf:about=""/>
   </rdf:RDF>
</x:xmpmeta>
                                                                                                    
                                                                                                    
                                                                                                    
                                                                                                    
                                                                                                    
                                                                                                    
                                                                                                    
                                                                                                    
                                                                                                    
                                                                                                    
                                                                                                    
                                                                                                    
                                                                                                    
                                                                                                    
                                                                                                    
                                                                                                    
                                                                                                    
                                                                                                    
                                                                                                    
                                                                                                    
                           
<?xpacket end="w"?></metadata>
<style type="text/css">
	.st0{fill:#77777A;}
</style>
<g>
	<path class="st0" d="M0,8.7c0-0.1,0-0.2,0-0.3c0,0,0-0.1,0-0.1C0.2,7.8,0.5,7.6,1,7.6c0.3,0,0.5,0,0.8,0c0,0,0.1,0,0.1,0
		c0-0.6,0-1.3,0-1.9c0,0-0.1,0-0.1,0c-0.3,0-0.5,0-0.8,0c-0.2,0-0.4-0.1-0.6-0.2C0.2,5.3,0.1,5.1,0,4.9c0-0.1,0-0.2,0-0.3
		c0,0,0,0,0-0.1C0.2,4.1,0.5,3.8,1,3.8c0.2,0,0.4,0,0.6,0c0.1,0,0.2,0,0.3,0c0-0.1,0-0.1,0-0.1c0-0.3,0-0.6,0-0.8
		C1.9,2.4,2,2,2.1,1.7C2.7,0.6,3.6,0,4.8,0c3.4,0,6.9,0,10.3,0c0.2,0,0.4,0,0.5,0C17,0.3,18,1.4,18,2.8c0,0.9,0,1.8,0,2.6
		c0,2.9,0,5.8,0,8.7c0,0.6-0.2,1.1-0.5,1.6c-0.6,0.8-1.4,1.2-2.4,1.2c-3.5,0-6.9,0-10.4,0c-0.4,0-0.8-0.1-1.2-0.3
		c-1-0.5-1.5-1.3-1.6-2.4c0-0.3,0-0.7,0-1c0,0,0-0.1,0-0.1c-0.3,0-0.6,0-0.9,0c-0.4,0-0.7-0.2-0.9-0.5c0-0.1-0.1-0.1-0.1-0.2
		c0-0.1,0-0.2,0-0.4c0,0,0-0.1,0-0.1c0.1-0.4,0.5-0.7,0.9-0.7c0.3,0,0.5,0,0.8,0c0,0,0.1,0,0.1,0c0-0.6,0-1.3,0-1.9c0,0-0.1,0-0.1,0
		c-0.3,0-0.5,0-0.8,0c-0.2,0-0.4-0.1-0.6-0.2C0.2,9.1,0.1,8.9,0,8.7z M5.7,15.1c0,0,0.1,0,0.1,0c3.1,0,6.2,0,9.3,0
		c0.1,0,0.3,0,0.4-0.1c0.4-0.2,0.5-0.5,0.5-0.9c0-3.8,0-7.5,0-11.3c0,0,0-0.1,0-0.1c0-0.5-0.5-0.9-1-0.9c-3.1,0-6.2,0-9.3,0
		c0,0-0.1,0-0.1,0C5.7,6.3,5.7,10.7,5.7,15.1z M3.8,9.5c0,0.6,0,1.2,0,1.9c0.3,0,0.6,0,0.9,0c0-0.6,0-1.3,0-1.9
		C4.4,9.5,4.1,9.5,3.8,9.5z M4.7,7.5c0-0.6,0-1.2,0-1.9c-0.3,0-0.6,0-0.9,0c0,0.6,0,1.3,0,1.9C4.1,7.5,4.4,7.5,4.7,7.5z M3.8,3.8
		c0.3,0,0.6,0,0.9,0c0-0.6,0-1.3,0-1.9c-0.5,0-0.9,0.4-0.9,0.8C3.8,3.1,3.8,3.4,3.8,3.8z M4.7,13.2c-0.3,0-0.6,0-0.9,0
		c0,0.3,0,0.6,0,0.9c0,0.3,0.1,0.5,0.3,0.7c0.2,0.2,0.4,0.3,0.6,0.2C4.7,14.5,4.7,13.9,4.7,13.2z"/>
	<path class="st0" d="M12.9,6.9c0,0.2-0.1,0.5-0.1,0.8c-0.2,0.7-0.6,1.1-1.3,1.3c-0.5,0.1-1,0.1-1.5,0C9.2,8.8,8.7,8.3,8.5,7.5
		C8.4,7,8.4,6.5,8.6,6c0.2-0.7,0.6-1.1,1.3-1.3c0.5-0.1,1.1-0.1,1.6,0c0.7,0.2,1.2,0.7,1.3,1.4C12.8,6.4,12.9,6.6,12.9,6.9z"/>
	<path class="st0" d="M10.5,12.4c-0.5,0-1.1,0-1.7-0.2c-0.2-0.1-0.4-0.2-0.7-0.3c-0.2-0.1-0.3-0.3-0.2-0.6c0.1-0.3,0.2-0.5,0.4-0.7
		c0.4-0.4,0.9-0.5,1.4-0.6c0.8-0.1,1.7-0.1,2.5,0.2c0.3,0.1,0.6,0.3,0.8,0.5c0.2,0.2,0.3,0.3,0.3,0.6c0.1,0.3,0,0.4-0.2,0.6
		c-0.2,0.1-0.5,0.2-0.8,0.3C11.8,12.3,11.2,12.4,10.5,12.4z"/>
</g>
</svg>
