<?xml version="1.0" encoding="utf-8"?>
<!-- Generator: Adobe Illustrator 19.1.0, SVG Export Plug-In . SVG Version: 6.00 Build 0)  -->
<svg version="1.1" id="Layer_1" xmlns="http://www.w3.org/2000/svg" xmlns:xlink="http://www.w3.org/1999/xlink" x="0px" y="0px"
	 viewBox="0 0 25 23" style="enable-background:new 0 0 25 23;" xml:space="preserve">
<metadata><?xpacket begin="﻿" id="W5M0MpCehiHzreSzNTczkc9d"?>
<x:xmpmeta xmlns:x="adobe:ns:meta/" x:xmptk="Adobe XMP Core 5.6-c067 79.157747, 2015/03/30-23:40:42        ">
   <rdf:RDF xmlns:rdf="http://www.w3.org/1999/02/22-rdf-syntax-ns#">
      <rdf:Description rdf:about=""/>
   </rdf:RDF>
</x:xmpmeta>
                                                                                                    
                                                                                                    
                                                                                                    
                                                                                                    
                                                                                                    
                                                                                                    
                                                                                                    
                                                                                                    
                                                                                                    
                                                                                                    
                                                                                                    
                                                                                                    
                                                                                                    
                                                                                                    
                                                                                                    
                                                                                                    
                                                                                                    
                                                                                                    
                                                                                                    
                                                                                                    
                           
<?xpacket end="w"?></metadata>
<style type="text/css">
	.st0{fill:#FFFFFF;}
</style>
<g>
	<path class="st0" d="M0,11.7c0-0.2,0-0.3,0-0.5c0,0,0-0.1,0-0.1c0.2-0.6,0.7-0.9,1.3-0.9c0.4,0,0.7,0,1.1,0c0.1,0,0.1,0,0.2,0
		c0-0.9,0-1.7,0-2.6c-0.1,0-0.1,0-0.2,0c-0.4,0-0.8,0-1.1,0C1,7.7,0.7,7.6,0.5,7.4C0.2,7.2,0.1,6.9,0,6.6c0-0.2,0-0.3,0-0.5
		c0,0,0-0.1,0-0.1c0.2-0.6,0.7-0.9,1.3-0.9c0.3,0,0.6,0,0.8,0c0.1,0,0.3,0,0.4,0c0-0.1,0-0.1,0-0.2c0-0.4,0-0.8,0-1.1
		c0-0.5,0.1-1.1,0.3-1.6C3.7,0.8,4.9,0,6.6,0c4.8,0,9.6,0,14.3,0c0.3,0,0.5,0,0.8,0C23.6,0.4,25,1.9,25,3.8c0,1.2,0,2.4,0,3.6
		c0,3.9,0,7.9,0,11.8c0,0.8-0.2,1.5-0.7,2.1C23.5,22.4,22.4,23,21,23c-4.8,0-9.6,0-14.5,0c-0.6,0-1.2-0.1-1.7-0.4
		c-1.3-0.7-2.1-1.7-2.2-3.2c0-0.5,0-0.9,0-1.4c0-0.1,0-0.1,0-0.2c-0.4,0-0.8,0-1.3,0c-0.6,0-1-0.3-1.2-0.7C0.1,17.1,0,17,0,16.9
		c0-0.2,0-0.3,0-0.5c0,0,0-0.1,0.1-0.1c0.2-0.6,0.7-0.9,1.3-0.9c0.4,0,0.7,0,1.1,0c0.1,0,0.1,0,0.2,0c0-0.9,0-1.7,0-2.6
		c-0.1,0-0.1,0-0.2,0c-0.4,0-0.7,0-1.1,0c-0.3,0-0.6-0.1-0.8-0.3C0.2,12.3,0.1,12,0,11.7z M7.9,20.4c0.1,0,0.1,0,0.1,0
		c4.3,0,8.6,0,12.9,0c0.2,0,0.4,0,0.6-0.1c0.5-0.2,0.8-0.7,0.8-1.2c0-5.1,0-10.1,0-15.2c0-0.1,0-0.1,0-0.2c-0.1-0.7-0.6-1.2-1.4-1.2
		c-4.3,0-8.6,0-12.9,0c-0.1,0-0.1,0-0.2,0C7.9,8.5,7.9,14.5,7.9,20.4z M5.3,12.8c0,0.8,0,1.7,0,2.5c0.4,0,0.9,0,1.3,0
		c0-0.9,0-1.7,0-2.5C6.1,12.8,5.7,12.8,5.3,12.8z M6.6,10.2c0-0.8,0-1.7,0-2.5c-0.4,0-0.9,0-1.3,0c0,0.9,0,1.7,0,2.5
		C5.7,10.2,6.1,10.2,6.6,10.2z M5.3,5.1c0.4,0,0.9,0,1.3,0c0-0.9,0-1.7,0-2.6c-0.7,0-1.2,0.6-1.3,1.1C5.2,4.1,5.3,4.6,5.3,5.1z
		 M6.6,17.9c-0.4,0-0.9,0-1.3,0c0,0.4,0,0.8,0,1.2c0,0.4,0.1,0.7,0.4,1c0.2,0.2,0.5,0.4,0.9,0.3C6.6,19.6,6.6,18.7,6.6,17.9z"/>
	<path class="st0" d="M17.9,9.3c-0.1,0.3-0.1,0.7-0.2,1.1c-0.2,0.9-0.9,1.5-1.8,1.7c-0.7,0.2-1.4,0.2-2.1,0c-1.1-0.2-1.8-0.9-2-2
		c-0.1-0.7-0.1-1.4,0.1-2.1c0.3-0.9,0.9-1.5,1.8-1.7c0.7-0.2,1.5-0.2,2.2,0c1,0.3,1.6,0.9,1.8,1.9C17.8,8.6,17.9,9,17.9,9.3z"/>
	<path class="st0" d="M14.5,16.7c-0.7,0-1.5,0-2.3-0.3c-0.3-0.1-0.6-0.2-0.9-0.4c-0.3-0.2-0.4-0.4-0.3-0.7c0.1-0.4,0.3-0.7,0.6-0.9
		c0.6-0.5,1.2-0.7,2-0.8c1.2-0.2,2.3-0.1,3.4,0.3c0.4,0.2,0.8,0.4,1.1,0.7c0.2,0.2,0.4,0.5,0.5,0.8c0.1,0.4,0,0.6-0.3,0.7
		c-0.3,0.2-0.7,0.3-1.1,0.4C16.4,16.7,15.5,16.7,14.5,16.7z"/>
</g>
</svg>
