<?xml version="1.0" encoding="utf-8"?>
<!-- Generator: Adobe Illustrator 19.1.0, SVG Export Plug-In . SVG Version: 6.00 Build 0)  -->
<svg version="1.1" id="Layer_1" xmlns="http://www.w3.org/2000/svg" xmlns:xlink="http://www.w3.org/1999/xlink" x="0px" y="0px"
	 viewBox="0 0 29 29" style="enable-background:new 0 0 29 29;" xml:space="preserve">
<metadata><?xpacket begin="﻿" id="W5M0MpCehiHzreSzNTczkc9d"?>
<x:xmpmeta xmlns:x="adobe:ns:meta/" x:xmptk="Adobe XMP Core 5.6-c067 79.157747, 2015/03/30-23:40:42        ">
   <rdf:RDF xmlns:rdf="http://www.w3.org/1999/02/22-rdf-syntax-ns#">
      <rdf:Description rdf:about=""/>
   </rdf:RDF>
</x:xmpmeta>
                                                                                                    
                                                                                                    
                                                                                                    
                                                                                                    
                                                                                                    
                                                                                                    
                                                                                                    
                                                                                                    
                                                                                                    
                                                                                                    
                                                                                                    
                                                                                                    
                                                                                                    
                                                                                                    
                                                                                                    
                                                                                                    
                                                                                                    
                                                                                                    
                                                                                                    
                                                                                                    
                           
<?xpacket end="w"?></metadata>
<style type="text/css">
	.st0{fill:#FFBD4F;}
</style>
<g>
	<path class="st0" d="M18.1,14.5h-2.3c0,3.7,0,8.4,0,8.4h-3.5c0,0,0-4.6,0-8.4h-1.7v-3h1.7V9.6c0-1.4,0.7-3.5,3.5-3.5l2.6,0V9
		c0,0-1.6,0-1.9,0c-0.3,0-0.7,0.2-0.7,0.8v1.7h2.7L18.1,14.5z"/>
	<g>
		<path class="st0" d="M26.2,2.2c0.3,0,0.6,0.3,0.6,0.6v23.3c0,0.3-0.3,0.6-0.6,0.6H2.8c-0.3,0-0.6-0.3-0.6-0.6V2.8
			c0-0.3,0.3-0.6,0.6-0.6H26.2 M26.2,0H2.8C1.3,0,0,1.3,0,2.8v23.3C0,27.7,1.3,29,2.8,29h23.3c1.6,0,2.8-1.3,2.8-2.8V2.8
			C29,1.3,27.7,0,26.2,0L26.2,0z"/>
	</g>
</g>
</svg>
