<?xml version="1.0" encoding="utf-8"?>
<!-- Generator: Adobe Illustrator 19.1.0, SVG Export Plug-In . SVG Version: 6.00 Build 0)  -->
<svg version="1.1" id="Layer_1" xmlns="http://www.w3.org/2000/svg" xmlns:xlink="http://www.w3.org/1999/xlink" x="0px" y="0px"
	 viewBox="0 0 17 17" style="enable-background:new 0 0 17 17;" xml:space="preserve">
<metadata><?xpacket begin="﻿" id="W5M0MpCehiHzreSzNTczkc9d"?>
<x:xmpmeta xmlns:x="adobe:ns:meta/" x:xmptk="Adobe XMP Core 5.6-c067 79.157747, 2015/03/30-23:40:42        ">
   <rdf:RDF xmlns:rdf="http://www.w3.org/1999/02/22-rdf-syntax-ns#">
      <rdf:Description rdf:about=""/>
   </rdf:RDF>
</x:xmpmeta>
                                                                                                    
                                                                                                    
                                                                                                    
                                                                                                    
                                                                                                    
                                                                                                    
                                                                                                    
                                                                                                    
                                                                                                    
                                                                                                    
                                                                                                    
                                                                                                    
                                                                                                    
                                                                                                    
                                                                                                    
                                                                                                    
                                                                                                    
                                                                                                    
                                                                                                    
                                                                                                    
                           
<?xpacket end="w"?></metadata>
<style type="text/css">
	.st0{fill:#77777A;}
</style>
<g>
	<path class="st0" d="M10.6,8.5H9.2c0,2.2,0,4.9,0,4.9h-2c0,0,0-2.7,0-4.9h-1V6.8h1V5.6c0-0.8,0.4-2.1,2.1-2.1l1.5,0v1.7
		c0,0-0.9,0-1.1,0c-0.2,0-0.4,0.1-0.4,0.5v1h1.6L10.6,8.5z"/>
	<path class="st0" d="M14.8,2.2v12.6H2.2V2.2H14.8 M15.3,0H1.7C0.8,0,0,0.8,0,1.7v13.6C0,16.2,0.8,17,1.7,17h13.6
		c0.9,0,1.7-0.8,1.7-1.7V1.7C17,0.8,16.2,0,15.3,0L15.3,0z"/>
</g>
</svg>
