<?xml version="1.0" encoding="utf-8"?>
<!-- Generator: Adobe Illustrator 19.1.0, SVG Export Plug-In . SVG Version: 6.00 Build 0)  -->
<svg version="1.1" id="Layer_1" xmlns="http://www.w3.org/2000/svg" xmlns:xlink="http://www.w3.org/1999/xlink" x="0px" y="0px"
	 viewBox="0 0 23 23" style="enable-background:new 0 0 23 23;" xml:space="preserve">
<metadata><?xpacket begin="﻿" id="W5M0MpCehiHzreSzNTczkc9d"?>
<x:xmpmeta xmlns:x="adobe:ns:meta/" x:xmptk="Adobe XMP Core 5.6-c067 79.157747, 2015/03/30-23:40:42        ">
   <rdf:RDF xmlns:rdf="http://www.w3.org/1999/02/22-rdf-syntax-ns#">
      <rdf:Description rdf:about=""/>
   </rdf:RDF>
</x:xmpmeta>
                                                                                                    
                                                                                                    
                                                                                                    
                                                                                                    
                                                                                                    
                                                                                                    
                                                                                                    
                                                                                                    
                                                                                                    
                                                                                                    
                                                                                                    
                                                                                                    
                                                                                                    
                                                                                                    
                                                                                                    
                                                                                                    
                                                                                                    
                                                                                                    
                                                                                                    
                                                                                                    
                           
<?xpacket end="w"?></metadata>
<style type="text/css">
	.st0{fill:#FFFFFF;}
</style>
<g>
	<path class="st0" d="M14.3,11.5h-1.9c0,3,0,6.6,0,6.6H9.7c0,0,0-3.6,0-6.6H8.4V9.2h1.3V7.6c0-1.1,0.5-2.8,2.8-2.8l2,0v2.3
		c0,0-1.2,0-1.5,0c-0.2,0-0.6,0.1-0.6,0.6v1.4h2.1L14.3,11.5z"/>
	<path class="st0" d="M20.1,2.9v17.1H2.9V2.9H20.1 M20.7,0H2.3C1,0,0,1,0,2.3v18.4C0,22,1,23,2.3,23h18.4c1.3,0,2.3-1,2.3-2.3V2.3
		C23,1,22,0,20.7,0L20.7,0z"/>
</g>
</svg>
