<?xml version="1.0" encoding="utf-8"?>
<!-- Generator: Adobe Illustrator 19.1.0, SVG Export Plug-In . SVG Version: 6.00 Build 0)  -->
<svg version="1.1" id="Layer_1" xmlns="http://www.w3.org/2000/svg" xmlns:xlink="http://www.w3.org/1999/xlink" x="0px" y="0px"
	 viewBox="0 0 345 26" style="enable-background:new 0 0 345 26;" xml:space="preserve">
<metadata><?xpacket begin="﻿" id="W5M0MpCehiHzreSzNTczkc9d"?>
<x:xmpmeta xmlns:x="adobe:ns:meta/" x:xmptk="Adobe XMP Core 5.6-c067 79.157747, 2015/03/30-23:40:42        ">
   <rdf:RDF xmlns:rdf="http://www.w3.org/1999/02/22-rdf-syntax-ns#">
      <rdf:Description rdf:about=""/>
   </rdf:RDF>
</x:xmpmeta>
                                                                                                    
                                                                                                    
                                                                                                    
                                                                                                    
                                                                                                    
                                                                                                    
                                                                                                    
                                                                                                    
                                                                                                    
                                                                                                    
                                                                                                    
                                                                                                    
                                                                                                    
                                                                                                    
                                                                                                    
                                                                                                    
                                                                                                    
                                                                                                    
                                                                                                    
                                                                                                    
                           
<?xpacket end="w"?></metadata>
<style type="text/css">
	.st0{fill:#ACABAD;}
	.st1{fill:#F7A800;}
	.st2{fill:#77777A;}
</style>
<g>
	<path class="st0" d="M126.6,13.4c0.9-1,1.7-1.7,2-1.7s0.5,0.7,0.5,1.5c0,1.5-0.9,3.6-2.2,3.6c-0.4,0-0.7-0.4-0.7-0.9
		c0-0.2,0-0.6,0.1-1L126.6,13.4z M127.8,7.4c0-0.1,0.2-0.4-0.1-0.4c-0.2,0-0.4,0.2-0.5,0.2L126,7.9l0.1,0.2c0.3-0.1,0.5-0.2,0.5-0.2
		c0.1,0,0.1,0.1,0.1,0.3l-1.3,6.7c-0.1,0.4-0.1,0.6-0.1,0.8c0,0.8,0.6,1.3,1.4,1.3c1.4,0,3.4-1.7,3.4-4.2c0-0.9-0.4-2-0.8-2
		c-0.3,0.1-1.7,1.2-2.6,2.2l0,0L127.8,7.4"/>
	<path class="st0" d="M131.4,12.5c0.8-0.9,1.4-1.6,1.7-1.6c0.2,0,0.3,0.2,0.3,0.5c0,0.5-0.4,2.4-0.8,3.6c-0.1,0.2,0,0.4,0.1,0l0.7-2
		c0.3-0.8,0.9-2.1,1.6-2.1c0.2,0,0.4,0.2,0.4,0.5c0,0.2-0.1,0.6-0.4,0.6c-0.1,0-0.2,0-0.4,0c-0.3,0-0.7,0.7-1,1.4
		c-0.3,0.8-0.7,2-0.8,2.4l-0.3,1.1c0,0.1-0.1,0.2-0.3,0.2h-0.4c-0.2,0-0.2-0.1-0.1-0.2l0.8-4.4c0-0.3,0.1-0.5-0.1-0.5
		c-0.2,0-0.4,0.3-0.8,0.8L131.4,12.5"/>
	<path class="st0" d="M138.7,14.6c-1.2,1.2-1.8,1.7-2,1.7c-0.3,0-0.5-0.4-0.5-1.1c0-1,0.5-2.2,1-2.8c0.6-0.4,1.2-0.7,2.1-0.8
		L138.7,14.6z M140.4,10.9c-2.5-0.1-5.1,2.4-5.1,4.6c0,0.8,0.4,1.5,0.8,1.5c0.5,0,2.1-1.7,2.5-2.1l0,0c-0.2,0.9-0.4,2,0.2,2
		c0.3,0,1-0.6,1.5-1.3v-0.1c-0.3,0.3-0.7,0.8-0.9,0.8c-0.1,0-0.2-0.2-0.1-0.6L140.4,10.9"/>
	<path class="st0" d="M143.2,14L143.2,14c1.3-1.7,2.7-3.1,3.4-3.1c0.4,0,0.6,0.4,0.6,0.9c0,0.3,0,0.5-0.1,0.8l-0.9,3.4
		c-0.1,0.2-0.1,0.4,0.1,0.4s0.8-0.7,1.2-1.2l0.2,0.1c-0.4,0.7-1.5,1.7-2,1.7c-0.4,0.1-0.6-0.3-0.4-1l1-3.8c0.1-0.5,0-0.6-0.2-0.6
		c-0.2,0-0.4,0.1-0.8,0.6c-0.5,0.5-1.3,1.4-2.1,2.4l-0.4,2.2c0,0.2-0.1,0.3-0.3,0.3H142c-0.2,0-0.2-0.1-0.2-0.3l0.9-4.5
		c0-0.2,0-0.3-0.1-0.3c-0.1,0-0.4,0.3-0.8,0.9l-0.2-0.1c0.5-0.8,1.5-1.8,1.9-1.8c0.1,0,0.3,0.1,0.2,0.5L143.2,14L143.2,14"/>
	<path class="st0" d="M152.4,14.2c-0.8,1.2-1.7,2.2-2,2.2c-0.3,0-0.5-0.4-0.5-1.1c0-1.8,1.2-3.9,2-3.9c0.4,0,0.7,0.3,1,0.9
		L152.4,14.2z M153.9,15.3c-0.3,0.5-0.7,0.9-0.8,0.9c-0.1,0-0.1-0.1-0.1-0.4l1.7-8.4c0-0.2,0.1-0.4-0.1-0.4c-0.1,0-0.4,0.1-0.5,0.2
		l-1.6,0.9l0.1,0.2l0.6-0.3c0.2-0.1,0.3-0.1,0.3-0.1c0.1,0,0.1,0.1,0.1,0.2l-0.7,3.3c-0.2-0.3-0.5-0.5-0.9-0.5c-1,0-3.1,2-3.1,4.4
		c0,1,0.3,1.7,0.8,1.7c0.4,0,1.5-0.9,2.5-2.3l0,0l-0.3,1.3c-0.1,0.6,0,0.9,0.3,0.9C152.6,16.9,153.5,16.1,153.9,15.3L153.9,15.3"/>
	<path class="st0" d="M155.6,12.3c0.6-0.7,1.4-1.4,1.8-1.4c0.2,0,0.4,0.2,0.2,0.9l-0.8,4c-0.1,0.3-0.1,0.5,0.1,0.5
		c0.1,0,0.5-0.4,0.9-0.9l0.2,0.2c-0.6,0.7-1.4,1.5-1.8,1.5c-0.3,0-0.4-0.2-0.4-0.5c0-0.2,0-0.4,0.1-0.6l0.8-4c0-0.1,0-0.2-0.1-0.2
		s-0.2,0.1-0.3,0.2l-0.5,0.5L155.6,12.3z M158,7.8c0.2,0,0.4,0.2,0.4,0.5c0,0.5-0.2,1.1-0.7,1.1c-0.2,0-0.4-0.2-0.4-0.5
		C157.3,8.3,157.6,7.8,158,7.8"/>
	<path class="st0" d="M161,14L161,14c1.3-1.7,2.6-3.1,3.3-3.1c0.4,0,0.6,0.4,0.6,0.9c0,0.3,0,0.5-0.1,0.8l-0.9,3.4
		c-0.1,0.2-0.1,0.4,0.1,0.4s0.8-0.7,1.2-1.2l0.2,0.1c-0.4,0.7-1.5,1.7-2,1.7c-0.3,0-0.5-0.4-0.4-1.1l1-3.8c0.1-0.5-0.1-0.6-0.2-0.6
		c-0.2,0-0.4,0.1-0.8,0.6c-0.5,0.5-1.3,1.4-2.1,2.4l-0.5,2.2c0,0.2-0.1,0.3-0.3,0.3h-0.5c-0.2,0-0.2-0.1-0.2-0.3l0.9-4.5
		c0-0.2,0-0.3-0.1-0.3c-0.1,0-0.4,0.3-0.8,0.9l-0.2-0.1c0.6-0.8,1.5-1.8,1.9-1.8c0.1,0,0.3,0.1,0.2,0.5L161,14L161,14"/>
	<path class="st0" d="M169.7,19.3c0,0.4-1.1,0.8-2.3,0.8c-1.3,0-1.9-0.6-1.9-1s0.6-1,1.9-1.6C168.7,18.5,169.7,18.8,169.7,19.3z
		 M171.5,11c-0.6,0-1.2-0.1-1.8-0.1c-1.8,0-3.2,1.9-3.2,3.1c0,0.8,0.5,1.6,1.2,1.9c-0.3,0.2-0.7,0.5-0.7,0.8c0,0.2,0.1,0.3,0.2,0.4
		c-0.7,0.4-2.6,1.2-2.6,2c0,0.6,1,1.2,2.8,1.2s3.1-0.6,3.1-1.4c0-0.9-2.8-1.9-2.8-2.6c0-0.4,1.3-0.5,2.5-1.7
		c0.6-0.6,0.7-1.2,0.7-1.8c0-0.4-0.1-0.9-0.3-1.2l0.8,0.1L171.5,11L171.5,11z M169.1,11.3c0.5,0,0.9,0.6,0.9,1.4
		c0,1.4-0.8,2.8-1.6,2.8c-0.5,0-0.9-0.6-0.9-1.4C167.5,13.5,168,11.3,169.1,11.3"/>
	<rect x="177" y="11.5" class="st0" width="0.4" height="7.3"/>
	<path class="st0" d="M187,15.7c-0.7,0.8-1.6,1.3-2.2,1.3c-0.7,0-1.3-0.6-1.3-1.5c0-1.7,1.4-4.7,3.2-4.7c0.5,0,0.8,0.2,0.8,0.5
		s-0.2,0.4-0.4,0.4c-0.5,0-0.7-0.4-1.1-0.4c-1,0-1.6,2.9-1.6,3.9c0,0.7,0.3,1.1,0.9,1.1c0.4,0,1-0.4,1.5-0.9L187,15.7"/>
	<path class="st0" d="M191.9,13.3c0,1.4-0.7,3.3-1.9,3.3c-0.5,0-1-0.6-1-1.8c0-1.5,0.8-3.2,1.7-3.2
		C191.4,11.4,191.9,12.2,191.9,13.3z M188.1,14.7c0,1.2,0.6,2.3,1.3,2.3c0.7,0,3.5-1.2,3.5-4c0-1.6-0.9-2.2-1.3-2.2
		C190.6,10.9,188.1,12.4,188.1,14.7"/>
	<path class="st0" d="M194.3,12.5c0.7-0.9,1.5-1.6,1.8-1.6c0.1,0,0.3,0.1,0.2,0.5l-0.6,2.8l0,0c1.1-1.9,2.7-3.3,3.3-3.3
		c0.3,0,0.4,0.2,0.4,0.6c0,0.3-0.1,0.6-0.2,1.1l-0.3,1.4l0,0c1.1-1.8,2.7-3.2,3.3-3.2c0.3,0,0.4,0.3,0.4,0.6c0,0.3,0,0.4-0.1,0.6
		l-0.8,4c0,0.1,0,0.2,0.1,0.2c0.2,0,0.6-0.5,1-1l0.2,0.1c-0.5,0.6-1.4,1.6-1.9,1.6c-0.4,0-0.4-0.3-0.3-0.8l1-4.1
		c0.1-0.3,0.1-0.4,0-0.4c-0.2,0-0.6,0.3-1,0.7c-0.5,0.4-1.8,2-2,3l-0.3,1.5c0,0.2-0.1,0.3-0.2,0.3h-0.5c-0.1,0-0.2-0.1-0.2-0.2
		l1-4.9c0.1-0.2,0.1-0.3-0.1-0.3c-0.1,0-0.4,0.2-0.8,0.5c-0.6,0.6-2,2.2-2.2,3.2l-0.3,1.5c0,0.1-0.1,0.2-0.2,0.2h-0.5
		c-0.2,0-0.2-0.1-0.2-0.3l0.9-4.5c0-0.2,0-0.3,0-0.3c-0.2,0-0.4,0.3-0.8,0.7L194.3,12.5"/>
	<path class="st0" d="M204.5,12.5c0.7-0.9,1.5-1.6,1.8-1.6c0.1,0,0.3,0.1,0.2,0.5l-0.6,2.8l0,0c1.1-1.9,2.7-3.3,3.3-3.3
		c0.3,0,0.4,0.2,0.4,0.6c0,0.3,0,0.6-0.2,1.1l-0.1,1.5l0,0c1.1-1.8,2.7-3.2,3.3-3.2c0.3,0,0.4,0.3,0.4,0.6s0,0.4-0.1,0.6l-0.8,4
		c0,0.1,0,0.2,0,0.2c0.2,0,0.6-0.5,1-1l0.2,0.1c-0.5,0.6-1.4,1.6-1.9,1.6c-0.4,0-0.4-0.3-0.3-0.8L212,12c0.1-0.3,0.1-0.4,0-0.4
		c-0.2,0-0.6,0.3-1,0.7c-0.5,0.4-1.8,2-2,3l-0.3,1.5c-0.1,0.2-0.1,0.3-0.2,0.3H208c-0.1,0-0.2-0.1-0.2-0.2l1-4.9
		c0-0.2,0-0.3-0.1-0.3c-0.2,0-0.4,0.2-0.8,0.5c-0.6,0.6-2,2.2-2.2,3.2l-0.3,1.5c0,0.1-0.1,0.2-0.2,0.2h-0.5c-0.2,0-0.3-0.1-0.2-0.3
		l0.9-4.5c0-0.2,0-0.3,0-0.3c-0.1,0-0.4,0.3-0.8,0.7L204.5,12.5"/>
	<path class="st0" d="M219.1,15.9c0,0.1,0,0.2,0.1,0.2c0.2,0,0.5-0.3,0.9-0.9l0.2,0.1c-0.7,0.9-1.6,1.7-1.9,1.7
		c-0.2,0-0.3-0.2-0.3-0.5c0-0.2,0.1-0.6,0.1-1l0.4-1.9l0,0c-0.7,1-1.4,1.7-1.7,2c-0.7,0.7-1.4,1.4-1.7,1.4c-0.3,0-0.4-0.3-0.4-0.8
		c0-0.3,0-0.5,0.1-0.9l0.6-3c0.1-0.4,0.1-0.5,0-0.5s-0.4,0.2-0.8,0.7l-0.2-0.1c0.6-0.9,1.4-1.6,1.8-1.6c0.3,0,0.3,0.4,0.2,1
		l-0.7,3.5c0,0.1,0,0.3,0,0.4c0,0.2,0,0.3,0.2,0.3s0.5-0.3,0.9-0.7c0.8-0.8,2-2.3,2.1-3.1l0.2-1.2c0-0.2,0.1-0.3,0.4-0.3h0.3
		c0.2,0,0.3,0.1,0.2,0.3L219.1,15.9"/>
	<path class="st0" d="M223.2,14L223.2,14c1.3-1.7,2.7-3.1,3.4-3.1c0.4,0,0.6,0.4,0.6,0.9c0,0.3,0,0.5-0.1,0.8l-1,3.4
		c-0.1,0.2-0.1,0.4,0.1,0.4c0.2,0,0.8-0.7,1.2-1.2l0.2,0.1c-0.4,0.7-1.5,1.7-2,1.7c-0.3,0-0.5-0.4-0.3-1.1l1-3.8
		c0.1-0.5,0-0.6-0.2-0.6c-0.2,0-0.4,0.1-0.8,0.6c-0.5,0.5-1.3,1.4-2.1,2.4l-0.4,2.2c0,0.2-0.1,0.3-0.3,0.3H222
		c-0.2,0-0.3-0.1-0.2-0.3l0.9-4.5c0.1-0.2,0-0.3-0.1-0.3c-0.1,0-0.4,0.3-0.8,0.9l-0.2-0.1c0.5-0.8,1.5-1.8,1.9-1.8
		c0.1,0,0.3,0.1,0.2,0.5L223.2,14L223.2,14"/>
	<path class="st0" d="M228.8,12.3c0.6-0.7,1.4-1.4,1.8-1.4c0.2,0,0.4,0.2,0.2,0.9l-0.8,4c-0.1,0.3-0.1,0.5,0.1,0.5
		c0.1,0,0.5-0.4,0.9-0.9l0.2,0.2c-0.6,0.7-1.4,1.5-1.8,1.5c-0.2,0-0.4-0.2-0.4-0.5c0-0.2,0-0.4,0.1-0.6l0.8-4c0-0.1,0-0.2-0.1-0.2
		c-0.1,0-0.2,0.1-0.3,0.2l-0.5,0.5L228.8,12.3z M231.2,7.8c0.2,0,0.4,0.2,0.4,0.5c0,0.5-0.2,1.1-0.7,1.1c-0.2,0-0.4-0.2-0.4-0.5
		C230.5,8.3,230.9,7.8,231.2,7.8"/>
	<path class="st0" d="M235.8,15.7c-0.7,0.8-1.6,1.3-2.2,1.3c-0.7,0-1.2-0.6-1.2-1.5c0-1.7,1.4-4.7,3.2-4.7c0.5,0,0.7,0.2,0.7,0.5
		s-0.1,0.4-0.4,0.4c-0.5,0-0.7-0.4-1.1-0.4c-1,0-1.6,2.9-1.6,3.9c0,0.7,0.3,1.1,0.9,1.1c0.4,0,1-0.4,1.5-0.9L235.8,15.7"/>
	<path class="st0" d="M240.2,14.6c-1.2,1.2-1.8,1.7-2,1.7c-0.3,0-0.5-0.4-0.5-1.1c0-1,0.5-2.2,1-2.8c0.5-0.5,1.1-0.8,2.1-0.8
		L240.2,14.6z M241.8,10.9c-2.5-0.1-5.1,2.4-5.1,4.7c0,0.8,0.4,1.5,0.8,1.5c0.5,0,2.1-1.7,2.5-2.1l0,0c-0.2,0.9-0.4,2,0.2,2
		c0.3,0,1-0.6,1.5-1.3v-0.2c-0.3,0.3-0.7,0.8-0.9,0.8c-0.1,0-0.2-0.2-0.1-0.6L241.8,10.9"/>
	<path class="st0" d="M246.4,11.6h-1.1l-1,4.4c-0.1,0.4-0.1,0.5,0.1,0.5c0.2,0,0.7-0.4,1.4-1.1l0.2,0.2c-0.8,0.8-1.7,1.5-2.1,1.5
		c-0.3,0-0.5-0.2-0.5-0.6c0-0.2,0.1-0.6,0.1-0.9l0.8-4h-0.8l0.1-0.2c0.8-0.4,1.4-1,2.2-2.1h0.2c-0.3,0.6-0.5,1.3-0.7,1.9h1.2
		L246.4,11.6"/>
	<path class="st0" d="M247.2,12.3c0.6-0.7,1.4-1.4,1.8-1.4c0.2,0,0.4,0.2,0.2,0.9l-0.8,4c-0.1,0.3-0.1,0.5,0.1,0.5
		c0.1,0,0.5-0.4,0.9-0.9l0.2,0.2c-0.6,0.7-1.4,1.5-1.8,1.5c-0.2,0-0.4-0.2-0.4-0.5c0-0.2,0-0.4,0.1-0.6l0.8-4c0-0.1,0-0.2-0.1-0.2
		s-0.2,0.1-0.3,0.2l-0.5,0.5L247.2,12.3z M249.7,7.8c0.2,0,0.4,0.2,0.4,0.5c0,0.5-0.2,1.1-0.7,1.1c-0.2,0-0.4-0.2-0.4-0.5
		C249,8.3,249.3,7.8,249.7,7.8"/>
	<path class="st0" d="M254.8,13.3c0,1.4-0.7,3.3-1.9,3.3c-0.5,0-1-0.6-1-1.8c0-1.5,0.8-3.2,1.8-3.2
		C254.3,11.4,254.8,12.2,254.8,13.3z M251,14.7c0,1.2,0.6,2.3,1.3,2.3s3.5-1.2,3.5-4c0-1.6-0.9-2.2-1.3-2.2
		C253.6,10.9,251,12.4,251,14.7"/>
	<path class="st0" d="M258.7,14L258.7,14c1.3-1.7,2.7-3.1,3.4-3.1c0.4,0,0.6,0.4,0.6,0.9c0,0.3,0,0.5-0.1,0.8l-1,3.4
		c-0.1,0.2-0.1,0.4,0.1,0.4s0.8-0.7,1.2-1.2l0.2,0.1c-0.4,0.7-1.5,1.7-2,1.7c-0.3,0-0.5-0.4-0.4-1.1l1-3.8c0.1-0.5,0-0.6-0.2-0.6
		c-0.2,0-0.4,0.1-0.8,0.6c-0.5,0.5-1.3,1.4-2.1,2.4l-0.5,2.2c0,0.2-0.1,0.3-0.3,0.3h-0.5c-0.2,0-0.3-0.1-0.2-0.3l0.9-4.5
		c0-0.2,0-0.3-0.1-0.3s-0.4,0.3-0.8,0.9l-0.2-0.1c0.5-0.8,1.5-1.8,1.9-1.8c0.1,0,0.3,0.1,0.2,0.5L258.7,14L258.7,14"/>
	<path class="st0" d="M264.9,12.8c0-0.9,1.1-1.9,2-1.9c0.5,0,0.9,0.4,0.9,0.8c0,0.3-0.2,0.5-0.4,0.5c-0.5,0-0.4-0.8-1-0.8
		c-0.4,0-0.9,0.5-0.9,1c0,0.9,1.6,1.6,1.6,2.9c0,1.1-0.9,1.8-2.3,1.8c-0.7,0-1.1-0.3-1.1-0.7c0-0.3,0.2-0.4,0.5-0.4
		c0.5,0,0.9,0.6,1.6,0.6c0.5,0,0.8-0.3,0.8-0.8C266.6,14.8,264.9,13.9,264.9,12.8"/>
	<rect x="274.8" y="11.5" class="st0" width="0.4" height="7.3"/>
	<path class="st0" d="M285.4,13.3c0,1.4-0.7,3.3-1.9,3.3c-0.5,0-1-0.6-1-1.8c0-1.5,0.8-3.2,1.7-3.2
		C284.9,11.4,285.4,12.2,285.4,13.3z M281.6,14.7c0,1.2,0.6,2.3,1.3,2.3c0.7,0,3.5-1.2,3.5-4c0-1.6-0.9-2.2-1.3-2.2
		C284.2,10.9,281.6,12.4,281.6,14.7"/>
	<path class="st0" d="M287.7,12.5c0.8-0.9,1.4-1.6,1.7-1.6c0.2,0,0.3,0.2,0.3,0.5c0,0.5-0.4,2.4-0.8,3.6c-0.1,0.2,0,0.4,0.1,0l0.7-2
		c0.3-0.8,0.9-2.1,1.6-2.1c0.2,0,0.4,0.2,0.4,0.5c0,0.3-0.2,0.7-0.5,0.7c-0.1,0-0.2,0-0.3,0c-0.4,0-0.7,0.7-1,1.4
		c-0.3,0.8-0.7,2-0.9,2.3l-0.3,1.1c0,0.1-0.1,0.2-0.3,0.2h-0.5c-0.2,0-0.2-0.1-0.1-0.2l0.8-4.4c0-0.3,0.1-0.5-0.1-0.5
		s-0.4,0.3-0.8,0.8L287.7,12.5"/>
	<path class="st0" d="M292.4,12.3c0.6-0.7,1.4-1.4,1.8-1.4c0.2,0,0.4,0.2,0.2,0.9l-0.8,4c-0.1,0.3-0.1,0.5,0.1,0.5s0.5-0.4,0.9-0.9
		l0.2,0.2c-0.6,0.7-1.4,1.5-1.8,1.5c-0.2,0-0.4-0.2-0.4-0.5c0-0.2,0-0.4,0.1-0.6l0.8-4c0-0.1,0-0.2-0.1-0.2c-0.1,0-0.2,0.1-0.3,0.2
		l-0.5,0.5L292.4,12.3z M294.8,7.8c0.2,0,0.4,0.2,0.4,0.5c0,0.5-0.2,1.1-0.7,1.1c-0.2,0-0.4-0.2-0.4-0.5
		C294.1,8.3,294.5,7.8,294.8,7.8"/>
	<path class="st0" d="M299.7,11.8c0,0.4-0.1,0.9-0.5,1.2c-0.2,0.2-0.9,0.6-1.9,0.9c0.4-1.8,1-2.7,1.9-2.7
		C299.5,11.2,299.7,11.4,299.7,11.8z M299.9,15.7c-0.7,0.5-1.3,0.8-1.7,0.8c-1,0-1.3-1.1-1-2.3c1.7-0.5,3.3-1.2,3.3-2.4
		c0-0.6-0.4-1-1.2-1c-1.8,0-3.2,2.3-3.2,4.2c0,1.1,0.6,2,1.4,2c0.6,0,1.6-0.4,2.4-1.1V15.7"/>
	<path class="st0" d="M303.1,14L303.1,14c1.3-1.7,2.7-3.1,3.4-3.1c0.4,0,0.6,0.4,0.6,0.9c0,0.3,0,0.5-0.1,0.8l-1,3.4
		c-0.1,0.2-0.1,0.4,0.1,0.4c0.2,0,0.8-0.7,1.2-1.2l0.2,0.1c-0.4,0.7-1.5,1.7-2,1.7c-0.3,0-0.5-0.4-0.4-1.1l1-3.8
		c0.1-0.5-0.1-0.6-0.2-0.6c-0.2,0-0.4,0.1-0.8,0.6c-0.5,0.5-1.3,1.4-2.1,2.4l-0.5,2.2c0,0.2-0.1,0.3-0.2,0.3h-0.5
		c-0.2,0-0.2-0.1-0.2-0.3l0.9-4.5c0-0.2,0-0.3-0.1-0.3s-0.4,0.3-0.8,0.9l-0.2-0.1c0.5-0.8,1.5-1.8,1.9-1.8c0.1,0,0.3,0.1,0.2,0.5
		L303.1,14L303.1,14"/>
	<path class="st0" d="M312,11.6h-1.2l-0.9,4.4c-0.1,0.4-0.1,0.5,0.1,0.5s0.7-0.4,1.4-1.1l0.1,0.2c-0.8,0.8-1.7,1.5-2.1,1.5
		c-0.3,0-0.5-0.2-0.5-0.6c0-0.2,0.1-0.6,0.1-0.9l0.8-4h-0.7l0.1-0.2c0.8-0.4,1.4-1,2.2-2.1h0.2c-0.3,0.6-0.5,1.3-0.7,1.9h1.1
		L312,11.6"/>
	<path class="st0" d="M316.3,11.8c0,0.4-0.1,0.9-0.5,1.2c-0.2,0.2-0.9,0.6-1.9,0.9c0.4-1.8,1-2.7,1.9-2.7
		C316.1,11.2,316.3,11.4,316.3,11.8z M316.5,15.7c-0.7,0.5-1.3,0.8-1.7,0.8c-1,0-1.3-1.1-1-2.3c1.7-0.5,3.3-1.2,3.3-2.4
		c0-0.6-0.4-1-1.2-1c-1.8,0-3.2,2.3-3.2,4.2c0,1.1,0.6,2,1.4,2c0.6,0,1.6-0.4,2.4-1.1V15.7"/>
	<path class="st0" d="M321.6,11.8c0,0.4-0.1,0.9-0.5,1.2c-0.2,0.2-0.9,0.6-1.9,0.9c0.4-1.8,1-2.7,1.9-2.7
		C321.5,11.2,321.6,11.4,321.6,11.8z M321.8,15.7c-0.7,0.5-1.3,0.8-1.7,0.8c-1,0-1.3-1.1-1-2.3c1.7-0.5,3.3-1.2,3.3-2.4
		c0-0.6-0.4-1-1.2-1c-1.8,0-3.2,2.3-3.2,4.2c0,1.1,0.6,2,1.4,2c0.6,0,1.6-0.4,2.4-1.1V15.7"/>
	<path class="st0" d="M323.4,12.5c0.8-0.9,1.4-1.6,1.7-1.6c0.2,0,0.3,0.2,0.3,0.5c0,0.5-0.4,2.4-0.8,3.6c-0.1,0.2,0,0.4,0.1,0l0.7-2
		c0.3-0.8,0.9-2.1,1.6-2.1c0.2,0,0.4,0.2,0.4,0.5c0,0.3-0.1,0.7-0.5,0.7c-0.1,0-0.2,0-0.3,0c-0.4,0-0.7,0.7-1,1.4
		c-0.3,0.8-0.7,2-0.9,2.3l-0.3,1.1c0,0.1-0.1,0.2-0.3,0.2h-0.5c-0.2,0-0.2-0.1-0.1-0.2l0.8-4.4c0-0.3,0.1-0.5-0.1-0.5
		s-0.4,0.3-0.8,0.8L323.4,12.5"/>
	<path class="st0" d="M328.1,12.3c0.6-0.7,1.4-1.4,1.8-1.4c0.2,0,0.4,0.2,0.2,0.9l-0.8,4c-0.1,0.3-0.1,0.5,0.1,0.5
		c0.1,0,0.5-0.4,0.9-0.9l0.2,0.2c-0.6,0.7-1.4,1.5-1.8,1.5c-0.3,0-0.4-0.2-0.4-0.5c0-0.2,0-0.4,0.1-0.6l0.8-4c0-0.1,0-0.2-0.1-0.2
		s-0.2,0.1-0.3,0.2l-0.5,0.5L328.1,12.3z M330.6,7.8c0.2,0,0.4,0.2,0.4,0.5c0,0.5-0.2,1.1-0.7,1.1c-0.2,0-0.4-0.2-0.4-0.5
		C329.9,8.3,330.2,7.8,330.6,7.8"/>
	<path class="st0" d="M333.5,14L333.5,14c1.3-1.7,2.7-3.1,3.4-3.1c0.4,0,0.6,0.4,0.6,0.9c0,0.3,0,0.5-0.1,0.8l-1,3.4
		c-0.1,0.2-0.1,0.4,0.1,0.4s0.8-0.7,1.2-1.2l0.2,0.1c-0.4,0.7-1.5,1.7-2,1.7c-0.3,0-0.5-0.4-0.3-1.1l1-3.8c0.1-0.5,0-0.6-0.2-0.6
		c-0.2,0-0.4,0.1-0.8,0.6s-1.3,1.4-2.1,2.4l-0.5,2.2c0,0.2-0.1,0.3-0.2,0.3h-0.5c-0.2,0-0.3-0.1-0.2-0.3l0.9-4.5
		c0-0.2,0-0.3-0.1-0.3s-0.4,0.3-0.8,0.9l-0.2-0.1c0.5-0.8,1.5-1.8,1.9-1.8c0.1,0,0.3,0.1,0.2,0.5L333.5,14L333.5,14"/>
	<path class="st0" d="M342.2,19.3c0,0.4-1.1,0.8-2.3,0.8c-1.3,0-1.9-0.6-1.9-1s0.6-1,1.9-1.6C341.2,18.5,342.2,18.8,342.2,19.3z
		 M344,11c-0.5-0.1-1.2-0.1-1.7-0.1c-1.8,0-3.2,1.9-3.2,3.1c0,0.8,0.5,1.6,1.2,1.9c-0.3,0.2-0.7,0.5-0.7,0.8c0,0.2,0.1,0.3,0.2,0.4
		c-0.7,0.4-2.6,1.2-2.6,2c0,0.6,1,1.2,2.8,1.2s3.1-0.6,3.1-1.4c0-0.9-2.8-1.9-2.8-2.6c0-0.4,1.3-0.5,2.5-1.7
		c0.6-0.6,0.7-1.2,0.7-1.8c0-0.4-0.1-0.9-0.3-1.2l0.8,0.1V11z M341.6,11.3c0.5,0,0.9,0.6,0.9,1.4c0,1.4-0.8,2.8-1.6,2.8
		c-0.5,0-0.9-0.6-0.9-1.4C340,13.5,340.5,11.3,341.6,11.3"/>
</g>
<g>
	<g>
		<polygon class="st1" points="57.4,0.6 56.6,4.1 70.5,0.6 70.5,0.6 		"/>
	</g>
	<g>
		<path class="st2" d="M71.5,0.6L71.5,0.6L58.6,15.9h9.6L67.5,19H53.4l0.6-2.9L71.5,0.6"/>
		<path class="st2" d="M20.8,7.7l0.1-0.4C21.4,5,22.6,2.6,25,2.6c2.1,0,2.5,1.8,2,4.1l-0.2,1H20.8z M29.9,10.3l0.4-2
			c1.1-5.1,0.4-8.2-4.8-8.2c-5.8,0-7.9,5.1-9,10c-1.8,8.5,1.7,9.4,4.8,9.4c4,0,7-2.6,7.9-6.7h-3.5C25.5,14,24.5,17,21.9,17
			c-2.8,0-2.4-3.2-1.9-5.6l0.2-1.1H29.9z"/>
		<path class="st2" d="M77.1,0.6h3.7L76.8,19h-3.7L77.1,0.6z"/>
		<polygon class="st2" points="6.1,19 9.6,2.7 14.6,2.7 15.2,0 1.6,0 1,2.7 5.9,2.7 2.4,19 		"/>
		<path class="st2" d="M46.8,0.1c-0.1,0-0.2,0-0.3,0c0,0,0,0,0,0c-0.6,0-1.2,0.1-1.8,0.3v0c-1.3,0.5-2.2,1.3-4.1,1.3
			c-1,0-1.8-0.4-2.3-1.1L34.5,19h3.7l2.6-12.4C41.3,4.2,43,3,44.5,3c1.9,0,2.4,0.9,1.9,3.3L43.7,19h3.7l3-13.9
			C51.2,1.4,49.6,0.1,46.8,0.1z"/>
		<path class="st2" d="M96.7,0.1c-0.1,0-0.2,0-0.3,0c0,0,0,0,0,0c-0.6,0-1.2,0.1-1.8,0.3v0c-1.3,0.5-2.2,1.3-4.1,1.3
			c-1,0-1.8-0.4-2.3-1.1L84.4,19h3.7l2.6-12.4C91.2,4.2,92.9,3,94.4,3c1.9,0,2.4,0.9,1.9,3.3L93.6,19h3.7l3-13.9
			C101.1,1.4,99.5,0.1,96.7,0.1z"/>
		<path class="st2" d="M113.7,0.4c-0.5-0.2-1.1-0.4-1.7-0.3c-4.9,0.3-6.6,5.6-7.4,9.5c-1.1,5-0.8,9.3,3.6,9.3c1.8,0,3.7-0.9,4.7-2.5
			h0.1l-0.6,3c-0.5,2.1-1.9,3.5-3.9,3.5c-1.6,0-2.4-1.1-2.2-2.2h-3.5c-0.3,1.5-0.4,4.7,5.1,4.7c5,0,7.5-2.7,8.4-7.2L120,0.6
			c-0.7,0.7-1.8,1.1-2.7,1.1C115.4,1.7,114.8,0.9,113.7,0.4z M114.4,9.4c-0.6,2.9-1.7,6.6-4.6,6.6c-2.7,0-2.1-3.6-1.5-6.7
			c0.7-3.4,1.8-6.2,4.4-6.2C115.4,3,115.1,6.4,114.4,9.4z"/>
		<g>
			<path class="st2" d="M122.1,0.6h2L124,1h-0.8l-0.4,2.1h-0.4l0.4-2.1H122L122.1,0.6z"/>
			<path class="st2" d="M124.4,0.6h0.6l0.3,1.8h0l1-1.8h0.6l-0.5,2.4H126l0.4-1.9h0l-1.1,1.9H125l-0.3-1.9h0l-0.4,1.9h-0.4
				L124.4,0.6z"/>
		</g>
	</g>
</g>
</svg>
