<?xml version="1.0" encoding="utf-8"?>
<!-- Generator: Adobe Illustrator 19.1.0, SVG Export Plug-In . SVG Version: 6.00 Build 0)  -->
<svg version="1.1" id="Layer_1" xmlns="http://www.w3.org/2000/svg" xmlns:xlink="http://www.w3.org/1999/xlink" x="0px" y="0px"
	 viewBox="0 0 219 13" style="enable-background:new 0 0 219 13;" xml:space="preserve">
<metadata><?xpacket begin="﻿" id="W5M0MpCehiHzreSzNTczkc9d"?>
<x:xmpmeta xmlns:x="adobe:ns:meta/" x:xmptk="Adobe XMP Core 5.6-c067 79.157747, 2015/03/30-23:40:42        ">
   <rdf:RDF xmlns:rdf="http://www.w3.org/1999/02/22-rdf-syntax-ns#">
      <rdf:Description rdf:about=""/>
   </rdf:RDF>
</x:xmpmeta>
                                                                                                    
                                                                                                    
                                                                                                    
                                                                                                    
                                                                                                    
                                                                                                    
                                                                                                    
                                                                                                    
                                                                                                    
                                                                                                    
                                                                                                    
                                                                                                    
                                                                                                    
                                                                                                    
                                                                                                    
                                                                                                    
                                                                                                    
                                                                                                    
                                                                                                    
                                                                                                    
                           
<?xpacket end="w"?></metadata>
<style type="text/css">
	.st0{fill:#ACABAD;}
</style>
<g>
	<path class="st0" d="M1.3,6.4c0.9-1,1.7-1.7,2-1.7c0.3,0,0.5,0.7,0.5,1.5c0,1.5-0.9,3.6-2.2,3.6c-0.4,0-0.7-0.4-0.7-0.9
		c0-0.2,0-0.6,0.1-1L1.3,6.4z M2.5,0.4C2.5,0.3,2.7,0,2.4,0C2.2,0,2,0.2,1.9,0.2L0.7,0.9l0.1,0.2c0.3-0.1,0.5-0.2,0.5-0.2
		c0.1,0,0.1,0.1,0.1,0.3L0.1,7.9C0,8.3,0,8.5,0,8.7c0,0.8,0.6,1.3,1.4,1.3c1.4,0,3.4-1.7,3.4-4.2c0-0.9-0.4-2-0.8-2
		C3.7,3.9,2.3,5,1.4,6l0,0L2.5,0.4"/>
	<path class="st0" d="M6.1,5.5c0.8-0.9,1.4-1.6,1.7-1.6c0.2,0,0.3,0.2,0.3,0.5c0,0.5-0.4,2.4-0.8,3.6c-0.1,0.2,0,0.4,0.1,0l0.7-2
		c0.3-0.8,0.9-2.1,1.6-2.1c0.2,0,0.4,0.2,0.4,0.5C10.1,4.6,10,5,9.7,5C9.6,5,9.5,5,9.3,5C9,5,8.6,5.7,8.3,6.4C8,7.2,7.6,8.4,7.5,8.8
		L7.2,9.9c0,0.1-0.1,0.2-0.3,0.2H6.5c-0.2,0-0.2-0.1-0.1-0.2l0.8-4.4c0-0.3,0.1-0.5-0.1-0.5c-0.2,0-0.4,0.3-0.8,0.8L6.1,5.5"/>
	<path class="st0" d="M13.4,7.6c-1.2,1.2-1.8,1.7-2,1.7c-0.3,0-0.5-0.4-0.5-1.1c0-1,0.5-2.2,1-2.8C12.5,5,13.1,4.7,14,4.6L13.4,7.6z
		 M15.1,3.9C12.6,3.8,10,6.3,10,8.5c0,0.8,0.4,1.5,0.8,1.5c0.5,0,2.1-1.7,2.5-2.1l0,0c-0.2,0.9-0.4,2,0.2,2c0.3,0,1-0.6,1.5-1.3V8.5
		c-0.3,0.3-0.7,0.8-0.9,0.8c-0.1,0-0.2-0.2-0.1-0.6L15.1,3.9"/>
	<path class="st0" d="M17.9,7L17.9,7c1.3-1.7,2.7-3.1,3.4-3.1c0.4,0,0.6,0.4,0.6,0.9c0,0.3,0,0.5-0.1,0.8L20.9,9
		c-0.1,0.2-0.1,0.4,0.1,0.4c0.2,0,0.8-0.7,1.2-1.2l0.2,0.1c-0.4,0.7-1.5,1.7-2,1.7C20,10.1,19.8,9.7,20,9l1-3.8
		c0.1-0.5,0-0.6-0.2-0.6c-0.2,0-0.4,0.1-0.8,0.6c-0.5,0.5-1.3,1.4-2.1,2.4l-0.4,2.2c0,0.2-0.1,0.3-0.3,0.3h-0.5
		c-0.2,0-0.2-0.1-0.2-0.3l0.9-4.5c0-0.2,0-0.3-0.1-0.3c-0.1,0-0.4,0.3-0.8,0.9l-0.2-0.1c0.5-0.8,1.5-1.8,1.9-1.8
		c0.1,0,0.3,0.1,0.2,0.5L17.9,7L17.9,7"/>
	<path class="st0" d="M27.1,7.2c-0.8,1.2-1.7,2.2-2,2.2c-0.3,0-0.5-0.4-0.5-1.1c0-1.8,1.2-3.9,2-3.9c0.4,0,0.7,0.3,1,0.9L27.1,7.2z
		 M28.6,8.3c-0.3,0.5-0.7,0.9-0.8,0.9c-0.1,0-0.1-0.1-0.1-0.4l1.7-8.4c0-0.2,0.1-0.4-0.1-0.4c-0.1,0-0.4,0.1-0.5,0.2l-1.6,0.9
		l0.1,0.2L27.9,1c0.2-0.1,0.3-0.1,0.3-0.1c0.1,0,0.1,0.1,0.1,0.2l-0.7,3.3c-0.2-0.3-0.5-0.5-0.9-0.5c-1,0-3.1,2-3.1,4.4
		c0,1,0.3,1.7,0.8,1.7c0.4,0,1.5-0.9,2.5-2.3l0,0l-0.3,1.3c-0.1,0.6,0,0.9,0.3,0.9c0.4,0,1.3-0.8,1.8-1.6L28.6,8.3"/>
	<path class="st0" d="M30.3,5.3c0.6-0.7,1.4-1.4,1.8-1.4c0.2,0,0.4,0.2,0.2,0.9l-0.8,4c-0.1,0.3-0.1,0.5,0.1,0.5
		c0.1,0,0.5-0.4,0.9-0.9l0.2,0.2c-0.6,0.7-1.4,1.5-1.8,1.5c-0.3,0-0.4-0.2-0.4-0.5c0-0.2,0-0.4,0.1-0.6l0.8-4c0-0.1,0-0.2-0.1-0.2
		c-0.1,0-0.2,0.1-0.3,0.2l-0.5,0.5L30.3,5.3z M32.7,0.8c0.2,0,0.4,0.2,0.4,0.5c0,0.5-0.2,1.1-0.7,1.1c-0.2,0-0.4-0.2-0.4-0.5
		C32,1.3,32.3,0.8,32.7,0.8"/>
	<path class="st0" d="M35.7,7L35.7,7C37,5.3,38.3,3.9,39,3.9c0.4,0,0.6,0.4,0.6,0.9c0,0.3,0,0.5-0.1,0.8L38.6,9
		c-0.1,0.2-0.1,0.4,0.1,0.4c0.2,0,0.8-0.7,1.2-1.2l0.2,0.1c-0.4,0.7-1.5,1.7-2,1.7c-0.3,0-0.5-0.4-0.4-1.1l1-3.8
		c0.1-0.5-0.1-0.6-0.2-0.6c-0.2,0-0.4,0.1-0.8,0.6c-0.5,0.5-1.3,1.4-2.1,2.4l-0.5,2.2c0,0.2-0.1,0.3-0.3,0.3h-0.5
		c-0.2,0-0.2-0.1-0.2-0.3l0.9-4.5c0-0.2,0-0.3-0.1-0.3c-0.1,0-0.4,0.3-0.8,0.9l-0.2-0.1c0.6-0.8,1.5-1.8,1.9-1.8
		c0.1,0,0.3,0.1,0.2,0.5L35.7,7L35.7,7"/>
	<path class="st0" d="M44.4,12.3c0,0.4-1.1,0.8-2.3,0.8c-1.3,0-1.9-0.6-1.9-1c0-0.4,0.6-1,1.9-1.6C43.4,11.5,44.4,11.8,44.4,12.3z
		 M46.2,4C45.6,4,45,3.9,44.4,3.9c-1.8,0-3.2,1.9-3.2,3.1c0,0.8,0.5,1.6,1.2,1.9c-0.3,0.2-0.7,0.5-0.7,0.8c0,0.2,0.1,0.3,0.2,0.4
		c-0.7,0.4-2.6,1.2-2.6,2c0,0.6,1,1.2,2.8,1.2c1.8,0,3.1-0.6,3.1-1.4c0-0.9-2.8-1.9-2.8-2.6c0-0.4,1.3-0.5,2.5-1.7
		c0.6-0.6,0.7-1.2,0.7-1.8c0-0.4-0.1-0.9-0.3-1.2l0.8,0.1V4z M43.8,4.3c0.5,0,0.9,0.6,0.9,1.4c0,1.4-0.8,2.8-1.6,2.8
		c-0.5,0-0.9-0.6-0.9-1.4C42.2,6.5,42.7,4.3,43.8,4.3"/>
	<rect x="51.7" y="4.5" class="st0" width="0.4" height="7.3"/>
	<path class="st0" d="M61.7,8.7c-0.7,0.8-1.6,1.3-2.2,1.3c-0.7,0-1.3-0.6-1.3-1.5c0-1.7,1.4-4.7,3.2-4.7c0.5,0,0.8,0.2,0.8,0.5
		c0,0.3-0.2,0.4-0.4,0.4c-0.5,0-0.7-0.4-1.1-0.4c-1,0-1.6,2.9-1.6,3.9c0,0.7,0.3,1.1,0.9,1.1c0.4,0,1-0.4,1.5-0.9L61.7,8.7"/>
	<path class="st0" d="M66.6,6.3c0,1.4-0.7,3.3-1.9,3.3c-0.5,0-1-0.6-1-1.8c0-1.5,0.8-3.2,1.7-3.2C66.1,4.4,66.6,5.2,66.6,6.3z
		 M62.8,7.7c0,1.2,0.6,2.3,1.3,2.3c0.7,0,3.5-1.2,3.5-4c0-1.6-0.9-2.2-1.3-2.2C65.3,3.9,62.8,5.4,62.8,7.7"/>
	<path class="st0" d="M69,5.5c0.7-0.9,1.5-1.6,1.8-1.6c0.1,0,0.3,0.1,0.2,0.5l-0.6,2.8l0,0c1.1-1.9,2.7-3.3,3.3-3.3
		c0.3,0,0.4,0.2,0.4,0.6c0,0.3-0.1,0.6-0.2,1.1l-0.3,1.4l0,0c1.1-1.8,2.7-3.2,3.3-3.2c0.3,0,0.4,0.3,0.4,0.6c0,0.3,0,0.4-0.1,0.6
		l-0.8,4c0,0.1,0,0.2,0.1,0.2c0.2,0,0.6-0.5,1-1l0.2,0.1c-0.5,0.6-1.4,1.6-1.9,1.6c-0.4,0-0.4-0.3-0.3-0.8L76.5,5
		c0.1-0.3,0.1-0.4,0-0.4c-0.2,0-0.6,0.3-1,0.7c-0.5,0.4-1.8,2-2,3l-0.3,1.5c0,0.2-0.1,0.3-0.2,0.3h-0.5c-0.1,0-0.2-0.1-0.2-0.2
		l1-4.9c0.1-0.2,0.1-0.3-0.1-0.3c-0.1,0-0.4,0.2-0.8,0.5c-0.6,0.6-2,2.2-2.2,3.2l-0.3,1.5c0,0.1-0.1,0.2-0.2,0.2h-0.5
		C69,10.1,69,10,69,9.8l0.9-4.5c0-0.2,0-0.3,0-0.3c-0.2,0-0.4,0.3-0.8,0.7L69,5.5"/>
	<path class="st0" d="M79.2,5.5c0.7-0.9,1.5-1.6,1.8-1.6c0.1,0,0.3,0.1,0.2,0.5l-0.6,2.8l0,0c1.1-1.9,2.7-3.3,3.3-3.3
		c0.3,0,0.4,0.2,0.4,0.6c0,0.3,0,0.6-0.2,1.1L84,7.1l0,0c1.1-1.8,2.7-3.2,3.3-3.2c0.3,0,0.4,0.3,0.4,0.6c0,0.3,0,0.4-0.1,0.6l-0.8,4
		c0,0.1,0,0.2,0,0.2c0.2,0,0.6-0.5,1-1L88,8.4c-0.5,0.6-1.4,1.6-1.9,1.6c-0.4,0-0.4-0.3-0.3-0.8L86.7,5c0.1-0.3,0.1-0.4,0-0.4
		c-0.2,0-0.6,0.3-1,0.7c-0.5,0.4-1.8,2-2,3l-0.3,1.5c-0.1,0.2-0.1,0.3-0.2,0.3h-0.5c-0.1,0-0.2-0.1-0.2-0.2l1-4.9
		c0-0.2,0-0.3-0.1-0.3c-0.2,0-0.4,0.2-0.8,0.5c-0.6,0.6-2,2.2-2.2,3.2l-0.3,1.5c0,0.1-0.1,0.2-0.2,0.2h-0.5c-0.2,0-0.3-0.1-0.2-0.3
		l0.9-4.5c0-0.2,0-0.3,0-0.3c-0.1,0-0.4,0.3-0.8,0.7L79.2,5.5"/>
	<path class="st0" d="M93.8,8.9c0,0.1,0,0.2,0.1,0.2c0.2,0,0.5-0.3,0.9-0.9L95,8.3c-0.7,0.9-1.6,1.7-1.9,1.7c-0.2,0-0.3-0.2-0.3-0.5
		c0-0.2,0.1-0.6,0.1-1l0.4-1.9h0c-0.7,1-1.4,1.7-1.7,2c-0.7,0.7-1.4,1.4-1.7,1.4c-0.3,0-0.4-0.3-0.4-0.8c0-0.3,0-0.5,0.1-0.9l0.6-3
		c0.1-0.4,0.1-0.5,0-0.5c-0.1,0-0.4,0.2-0.8,0.7l-0.2-0.1c0.6-0.9,1.4-1.6,1.8-1.6c0.3,0,0.3,0.4,0.2,1l-0.7,3.5c0,0.1,0,0.3,0,0.4
		c0,0.2,0,0.3,0.2,0.3c0.2,0,0.5-0.3,0.9-0.7c0.8-0.8,2-2.3,2.1-3.1l0.2-1.2c0-0.2,0.1-0.3,0.4-0.3h0.3c0.2,0,0.3,0.1,0.2,0.3
		L93.8,8.9"/>
	<path class="st0" d="M97.9,7L97.9,7c1.3-1.7,2.7-3.1,3.4-3.1c0.4,0,0.6,0.4,0.6,0.9c0,0.3,0,0.5-0.1,0.8L100.8,9
		c-0.1,0.2-0.1,0.4,0.1,0.4c0.2,0,0.8-0.7,1.2-1.2l0.2,0.1c-0.4,0.7-1.5,1.7-2,1.7c-0.3,0-0.5-0.4-0.3-1.1l1-3.8
		c0.1-0.5,0-0.6-0.2-0.6c-0.2,0-0.4,0.1-0.8,0.6c-0.5,0.5-1.3,1.4-2.1,2.4l-0.4,2.2c0,0.2-0.1,0.3-0.3,0.3h-0.5
		c-0.2,0-0.3-0.1-0.2-0.3l0.9-4.5c0.1-0.2,0-0.3-0.1-0.3c-0.1,0-0.4,0.3-0.8,0.9l-0.2-0.1c0.5-0.8,1.5-1.8,1.9-1.8
		c0.1,0,0.3,0.1,0.2,0.5L97.9,7L97.9,7"/>
	<path class="st0" d="M103.5,5.3c0.6-0.7,1.4-1.4,1.8-1.4c0.2,0,0.4,0.2,0.2,0.9l-0.8,4c-0.1,0.3-0.1,0.5,0.1,0.5
		c0.1,0,0.5-0.4,0.9-0.9l0.2,0.2c-0.6,0.7-1.4,1.5-1.8,1.5c-0.2,0-0.4-0.2-0.4-0.5c0-0.2,0-0.4,0.1-0.6l0.8-4c0-0.1,0-0.2-0.1-0.2
		c-0.1,0-0.2,0.1-0.3,0.2l-0.5,0.5L103.5,5.3z M105.9,0.8c0.2,0,0.4,0.2,0.4,0.5c0,0.5-0.2,1.1-0.7,1.1c-0.2,0-0.4-0.2-0.4-0.5
		C105.2,1.3,105.6,0.8,105.9,0.8"/>
	<path class="st0" d="M110.5,8.7c-0.7,0.8-1.6,1.3-2.2,1.3c-0.7,0-1.2-0.6-1.2-1.5c0-1.7,1.4-4.7,3.2-4.7c0.5,0,0.7,0.2,0.7,0.5
		c0,0.3-0.1,0.4-0.4,0.4c-0.5,0-0.7-0.4-1.1-0.4c-1,0-1.6,2.9-1.6,3.9c0,0.7,0.3,1.1,0.9,1.1c0.4,0,1-0.4,1.5-0.9L110.5,8.7"/>
	<path class="st0" d="M114.9,7.6c-1.2,1.2-1.8,1.7-2,1.7c-0.3,0-0.5-0.4-0.5-1.1c0-1,0.5-2.2,1-2.8c0.5-0.5,1.1-0.8,2.1-0.8
		L114.9,7.6z M116.5,3.9c-2.5-0.1-5.1,2.4-5.1,4.7c0,0.8,0.4,1.5,0.8,1.5c0.5,0,2.1-1.7,2.5-2.1l0,0c-0.2,0.9-0.4,2,0.2,2
		c0.3,0,1-0.6,1.5-1.3V8.5c-0.3,0.3-0.7,0.8-0.9,0.8c-0.1,0-0.2-0.2-0.1-0.6L116.5,3.9"/>
	<path class="st0" d="M121.1,4.6h-1.1L119,9c-0.1,0.4-0.1,0.5,0.1,0.5c0.2,0,0.7-0.4,1.4-1.1l0.2,0.2c-0.8,0.8-1.7,1.5-2.1,1.5
		c-0.3,0-0.5-0.2-0.5-0.6c0-0.2,0.1-0.6,0.1-0.9l0.8-4h-0.8l0.1-0.2c0.8-0.4,1.4-1,2.2-2.1h0.2c-0.3,0.6-0.5,1.3-0.7,1.9h1.2
		L121.1,4.6"/>
	<path class="st0" d="M121.9,5.3c0.6-0.7,1.4-1.4,1.8-1.4c0.2,0,0.4,0.2,0.2,0.9l-0.8,4c-0.1,0.3-0.1,0.5,0.1,0.5
		c0.1,0,0.5-0.4,0.9-0.9l0.2,0.2c-0.6,0.7-1.4,1.5-1.8,1.5c-0.2,0-0.4-0.2-0.4-0.5c0-0.2,0-0.4,0.1-0.6l0.8-4c0-0.1,0-0.2-0.1-0.2
		c-0.1,0-0.2,0.1-0.3,0.2l-0.5,0.5L121.9,5.3z M124.4,0.8c0.2,0,0.4,0.2,0.4,0.5c0,0.5-0.2,1.1-0.7,1.1c-0.2,0-0.4-0.2-0.4-0.5
		C123.7,1.3,124,0.8,124.4,0.8"/>
	<path class="st0" d="M129.5,6.3c0,1.4-0.7,3.3-1.9,3.3c-0.5,0-1-0.6-1-1.8c0-1.5,0.8-3.2,1.8-3.2C129,4.4,129.5,5.2,129.5,6.3z
		 M125.7,7.7c0,1.2,0.6,2.3,1.3,2.3c0.7,0,3.5-1.2,3.5-4c0-1.6-0.9-2.2-1.3-2.2C128.3,3.9,125.7,5.4,125.7,7.7"/>
	<path class="st0" d="M133.4,7L133.4,7c1.3-1.7,2.7-3.1,3.4-3.1c0.4,0,0.6,0.4,0.6,0.9c0,0.3,0,0.5-0.1,0.8L136.3,9
		c-0.1,0.2-0.1,0.4,0.1,0.4c0.2,0,0.8-0.7,1.2-1.2l0.2,0.1c-0.4,0.7-1.5,1.7-2,1.7c-0.3,0-0.5-0.4-0.4-1.1l1-3.8
		c0.1-0.5,0-0.6-0.2-0.6c-0.2,0-0.4,0.1-0.8,0.6c-0.5,0.5-1.3,1.4-2.1,2.4l-0.5,2.2c0,0.2-0.1,0.3-0.3,0.3h-0.5
		c-0.2,0-0.3-0.1-0.2-0.3l0.9-4.5c0-0.2,0-0.3-0.1-0.3c-0.1,0-0.4,0.3-0.8,0.9l-0.2-0.1c0.5-0.8,1.5-1.8,1.9-1.8
		c0.1,0,0.3,0.1,0.2,0.5L133.4,7L133.4,7"/>
	<path class="st0" d="M139.6,5.8c0-0.9,1.1-1.9,2-1.9c0.5,0,0.9,0.4,0.9,0.8c0,0.3-0.2,0.5-0.4,0.5c-0.5,0-0.4-0.8-1-0.8
		c-0.4,0-0.9,0.5-0.9,1c0,0.9,1.6,1.6,1.6,2.9c0,1.1-0.9,1.8-2.3,1.8c-0.7,0-1.1-0.3-1.1-0.7c0-0.3,0.2-0.4,0.5-0.4
		c0.5,0,0.9,0.6,1.6,0.6c0.5,0,0.8-0.3,0.8-0.8C141.3,7.8,139.6,6.9,139.6,5.8"/>
	<rect x="149.5" y="4.5" class="st0" width="0.4" height="7.3"/>
	<path class="st0" d="M160.1,6.3c0,1.4-0.7,3.3-1.9,3.3c-0.5,0-1-0.6-1-1.8c0-1.5,0.8-3.2,1.7-3.2C159.6,4.4,160.1,5.2,160.1,6.3z
		 M156.3,7.7c0,1.2,0.6,2.3,1.3,2.3c0.7,0,3.5-1.2,3.5-4c0-1.6-0.9-2.2-1.3-2.2C158.9,3.9,156.3,5.4,156.3,7.7"/>
	<path class="st0" d="M162.4,5.5c0.8-0.9,1.4-1.6,1.7-1.6c0.2,0,0.3,0.2,0.3,0.5c0,0.5-0.4,2.4-0.8,3.6c-0.1,0.2,0,0.4,0.1,0l0.7-2
		c0.3-0.8,0.9-2.1,1.6-2.1c0.2,0,0.4,0.2,0.4,0.5c0,0.3-0.2,0.7-0.5,0.7c-0.1,0-0.2,0-0.3,0c-0.4,0-0.7,0.7-1,1.4
		c-0.3,0.8-0.7,2-0.9,2.3l-0.3,1.1c0,0.1-0.1,0.2-0.3,0.2h-0.5c-0.2,0-0.2-0.1-0.1-0.2l0.8-4.4c0-0.3,0.1-0.5-0.1-0.5
		c-0.2,0-0.4,0.3-0.8,0.8L162.4,5.5"/>
	<path class="st0" d="M167.1,5.3c0.6-0.7,1.4-1.4,1.8-1.4c0.2,0,0.4,0.2,0.2,0.9l-0.8,4c-0.1,0.3-0.1,0.5,0.1,0.5
		c0.2,0,0.5-0.4,0.9-0.9l0.2,0.2c-0.6,0.7-1.4,1.5-1.8,1.5c-0.2,0-0.4-0.2-0.4-0.5c0-0.2,0-0.4,0.1-0.6l0.8-4c0-0.1,0-0.2-0.1-0.2
		c-0.1,0-0.2,0.1-0.3,0.2l-0.5,0.5L167.1,5.3z M169.5,0.8c0.2,0,0.4,0.2,0.4,0.5c0,0.5-0.2,1.1-0.7,1.1c-0.2,0-0.4-0.2-0.4-0.5
		C168.8,1.3,169.2,0.8,169.5,0.8"/>
	<path class="st0" d="M174.4,4.8c0,0.4-0.1,0.9-0.5,1.2c-0.2,0.2-0.9,0.6-1.9,0.9c0.4-1.8,1-2.7,1.9-2.7
		C174.2,4.2,174.4,4.4,174.4,4.8z M174.6,8.7c-0.7,0.5-1.3,0.8-1.7,0.8c-1,0-1.3-1.1-1-2.3c1.7-0.5,3.3-1.2,3.3-2.4
		c0-0.6-0.4-1-1.2-1c-1.8,0-3.2,2.3-3.2,4.2c0,1.1,0.6,2,1.4,2c0.6,0,1.6-0.4,2.4-1.1L174.6,8.7"/>
	<path class="st0" d="M177.8,7L177.8,7c1.3-1.7,2.7-3.1,3.4-3.1c0.4,0,0.6,0.4,0.6,0.9c0,0.3,0,0.5-0.1,0.8L180.7,9
		c-0.1,0.2-0.1,0.4,0.1,0.4c0.2,0,0.8-0.7,1.2-1.2l0.2,0.1c-0.4,0.7-1.5,1.7-2,1.7c-0.3,0-0.5-0.4-0.4-1.1l1-3.8
		c0.1-0.5-0.1-0.6-0.2-0.6c-0.2,0-0.4,0.1-0.8,0.6c-0.5,0.5-1.3,1.4-2.1,2.4l-0.5,2.2c0,0.2-0.1,0.3-0.2,0.3h-0.5
		c-0.2,0-0.2-0.1-0.2-0.3l0.9-4.5c0-0.2,0-0.3-0.1-0.3c-0.1,0-0.4,0.3-0.8,0.9l-0.2-0.1c0.5-0.8,1.5-1.8,1.9-1.8
		c0.1,0,0.3,0.1,0.2,0.5L177.8,7L177.8,7"/>
	<path class="st0" d="M186.7,4.6h-1.2L184.6,9c-0.1,0.4-0.1,0.5,0.1,0.5c0.2,0,0.7-0.4,1.4-1.1l0.1,0.2c-0.8,0.8-1.7,1.5-2.1,1.5
		c-0.3,0-0.5-0.2-0.5-0.6c0-0.2,0.1-0.6,0.1-0.9l0.8-4h-0.7l0.1-0.2c0.8-0.4,1.4-1,2.2-2.1h0.2c-0.3,0.6-0.5,1.3-0.7,1.9h1.1
		L186.7,4.6"/>
	<path class="st0" d="M191,4.8c0,0.4-0.1,0.9-0.5,1.2c-0.2,0.2-0.9,0.6-1.9,0.9c0.4-1.8,1-2.7,1.9-2.7C190.8,4.2,191,4.4,191,4.8z
		 M191.2,8.7c-0.7,0.5-1.3,0.8-1.7,0.8c-1,0-1.3-1.1-1-2.3c1.7-0.5,3.3-1.2,3.3-2.4c0-0.6-0.4-1-1.2-1c-1.8,0-3.2,2.3-3.2,4.2
		c0,1.1,0.6,2,1.4,2c0.6,0,1.6-0.4,2.4-1.1L191.2,8.7"/>
	<path class="st0" d="M196.3,4.8c0,0.4-0.1,0.9-0.5,1.2c-0.2,0.2-0.9,0.6-1.9,0.9c0.4-1.8,1-2.7,1.9-2.7
		C196.2,4.2,196.3,4.4,196.3,4.8z M196.5,8.7c-0.7,0.5-1.3,0.8-1.7,0.8c-1,0-1.3-1.1-1-2.3c1.7-0.5,3.3-1.2,3.3-2.4
		c0-0.6-0.4-1-1.2-1c-1.8,0-3.2,2.3-3.2,4.2c0,1.1,0.6,2,1.4,2c0.6,0,1.6-0.4,2.4-1.1L196.5,8.7"/>
	<path class="st0" d="M198.1,5.5c0.8-0.9,1.4-1.6,1.7-1.6c0.2,0,0.3,0.2,0.3,0.5c0,0.5-0.4,2.4-0.8,3.6c-0.1,0.2,0,0.4,0.1,0l0.7-2
		c0.3-0.8,0.9-2.1,1.6-2.1c0.2,0,0.4,0.2,0.4,0.5c0,0.3-0.1,0.7-0.5,0.7c-0.1,0-0.2,0-0.3,0c-0.4,0-0.7,0.7-1,1.4
		c-0.3,0.8-0.7,2-0.9,2.3l-0.3,1.1c0,0.1-0.1,0.2-0.3,0.2h-0.5c-0.2,0-0.2-0.1-0.1-0.2l0.8-4.4c0-0.3,0.1-0.5-0.1-0.5
		c-0.2,0-0.4,0.3-0.8,0.8L198.1,5.5"/>
	<path class="st0" d="M202.8,5.3c0.6-0.7,1.4-1.4,1.8-1.4c0.2,0,0.4,0.2,0.2,0.9l-0.8,4c-0.1,0.3-0.1,0.5,0.1,0.5
		c0.1,0,0.5-0.4,0.9-0.9l0.2,0.2c-0.6,0.7-1.4,1.5-1.8,1.5c-0.3,0-0.4-0.2-0.4-0.5c0-0.2,0-0.4,0.1-0.6l0.8-4c0-0.1,0-0.2-0.1-0.2
		c-0.1,0-0.2,0.1-0.3,0.2L203,5.5L202.8,5.3z M205.3,0.8c0.2,0,0.4,0.2,0.4,0.5c0,0.5-0.2,1.1-0.7,1.1c-0.2,0-0.4-0.2-0.4-0.5
		C204.6,1.3,204.9,0.8,205.3,0.8"/>
	<path class="st0" d="M208.2,7L208.2,7c1.3-1.7,2.7-3.1,3.4-3.1c0.4,0,0.6,0.4,0.6,0.9c0,0.3,0,0.5-0.1,0.8L211.1,9
		c-0.1,0.2-0.1,0.4,0.1,0.4c0.2,0,0.8-0.7,1.2-1.2l0.2,0.1c-0.4,0.7-1.5,1.7-2,1.7c-0.3,0-0.5-0.4-0.3-1.1l1-3.8
		c0.1-0.5,0-0.6-0.2-0.6c-0.2,0-0.4,0.1-0.8,0.6c-0.4,0.5-1.3,1.4-2.1,2.4l-0.5,2.2c0,0.2-0.1,0.3-0.2,0.3H207
		c-0.2,0-0.3-0.1-0.2-0.3l0.9-4.5c0-0.2,0-0.3-0.1-0.3c-0.1,0-0.4,0.3-0.8,0.9l-0.2-0.1c0.5-0.8,1.5-1.8,1.9-1.8
		c0.1,0,0.3,0.1,0.2,0.5L208.2,7L208.2,7"/>
	<path class="st0" d="M216.9,12.3c0,0.4-1.1,0.8-2.3,0.8c-1.3,0-1.9-0.6-1.9-1c0-0.4,0.6-1,1.9-1.6
		C215.9,11.5,216.9,11.8,216.9,12.3z M218.7,4c-0.5-0.1-1.2-0.1-1.7-0.1c-1.8,0-3.2,1.9-3.2,3.1c0,0.8,0.5,1.6,1.2,1.9
		c-0.3,0.2-0.7,0.5-0.7,0.8c0,0.2,0.1,0.3,0.2,0.4c-0.7,0.4-2.6,1.2-2.6,2c0,0.6,1,1.2,2.8,1.2c1.8,0,3.1-0.6,3.1-1.4
		c0-0.9-2.8-1.9-2.8-2.6c0-0.4,1.3-0.5,2.5-1.7c0.6-0.6,0.7-1.2,0.7-1.8c0-0.4-0.1-0.9-0.3-1.2l0.8,0.1V4z M216.3,4.3
		c0.5,0,0.9,0.6,0.9,1.4c0,1.4-0.8,2.8-1.6,2.8c-0.5,0-0.9-0.6-0.9-1.4C214.7,6.5,215.2,4.3,216.3,4.3"/>
</g>
</svg>
