<svg id="Layer_1" xmlns="http://www.w3.org/2000/svg" viewBox="0 0 18 17"><style>.st0{fill:#77777a}</style><path class="st0" d="M0 8.7v-.4c.2-.5.5-.7 1-.7h.9V5.7H1c-.2 0-.4-.1-.6-.2-.2-.2-.3-.4-.4-.6v-.4c.2-.4.5-.7 1-.7h.9v-.9c0-.5.1-.9.2-1.2C2.7.6 3.6 0 4.8 0h10.8C17 .3 18 1.4 18 2.8v11.3c0 .6-.2 1.1-.5 1.6-.6.8-1.4 1.2-2.4 1.2H4.7c-.4 0-.8-.1-1.2-.3-1-.5-1.5-1.3-1.6-2.4v-1.1H1c-.4 0-.7-.2-.9-.5 0-.1-.1-.1-.1-.2v-.5c.1-.4.5-.7.9-.7h.9V9.3H.9c-.2 0-.4-.1-.6-.2-.1 0-.2-.2-.3-.4zm5.7 6.4h9.4c.1 0 .3 0 .4-.1.4-.2.5-.5.5-.9V2.7c0-.5-.5-.9-1-.9H5.6c.1 4.5.1 8.9.1 13.3zM3.8 9.5v1.9h.9V9.5h-.9zm.9-2V5.6h-.9v1.9h.9zm-.9-3.7h.9V1.9c-.5 0-.9.4-.9.8v1.1zm.9 9.4h-.9v.9c0 .3.1.5.3.7.2.2.4.3.6.2v-1.8z"/><path class="st0" d="M12.9 6.9c0 .2-.1.5-.1.8-.2.7-.6 1.1-1.3 1.3-.5.1-1 .1-1.5 0-.8-.2-1.3-.7-1.5-1.5-.1-.5-.1-1 .1-1.5.2-.7.6-1.1 1.3-1.3.5-.1 1.1-.1 1.6 0 .7.2 1.2.7 1.3 1.4 0 .3.1.5.1.8zm-2.4 5.5c-.5 0-1.1 0-1.7-.2-.2-.1-.4-.2-.7-.3-.2-.1-.3-.3-.2-.6.1-.3.2-.5.4-.7.4-.4.9-.5 1.4-.6.8-.1 1.7-.1 2.5.2.3.1.6.3.8.5.2.2.3.3.3.6.1.3 0 .4-.2.6-.2.1-.5.2-.8.3-.5.1-1.1.2-1.8.2z"/></svg>