<svg id="Layer_1" xmlns="http://www.w3.org/2000/svg" viewBox="0 0 25 23"><style>.st0{fill:#fff}</style><path class="st0" d="M0 11.7v-.6c.2-.6.7-.9 1.3-.9h1.3V7.6H1.3c-.3.1-.6 0-.8-.2-.3-.2-.4-.5-.5-.8V6c.2-.6.7-.9 1.3-.9h1.2V3.8c0-.5.1-1.1.3-1.6C3.7.8 4.9 0 6.6 0h15.1C23.6.4 25 1.9 25 3.8v15.4c0 .8-.2 1.5-.7 2.1-.8 1.1-1.9 1.7-3.3 1.7H6.5c-.6 0-1.2-.1-1.7-.4-1.3-.7-2.1-1.7-2.2-3.2v-1.6H1.3c-.6 0-1-.3-1.2-.7 0 0-.1-.1-.1-.2v-.5s0-.1.1-.1c.2-.6.7-.9 1.3-.9h1.3v-2.6H1.4c-.3 0-.6-.1-.8-.3-.4-.2-.5-.5-.6-.8zm7.9 8.7h13c.2 0 .4 0 .6-.1.5-.2.8-.7.8-1.2V3.7c-.1-.7-.6-1.2-1.4-1.2H7.8c.1 6 .1 12 .1 17.9zm-2.6-7.6v2.5h1.3v-2.5H5.3zm1.3-2.6V7.7H5.3v2.5h1.3zM5.3 5.1h1.3V2.5c-.7 0-1.2.6-1.3 1.1-.1.5 0 1 0 1.5zm1.3 12.8H5.3v1.2c0 .4.1.7.4 1 .2.2.5.4.9.3v-2.5z"/><path class="st0" d="M17.9 9.3c-.1.3-.1.7-.2 1.1-.2.9-.9 1.5-1.8 1.7-.7.2-1.4.2-2.1 0-1.1-.2-1.8-.9-2-2-.1-.7-.1-1.4.1-2.1.3-.9.9-1.5 1.8-1.7.7-.2 1.5-.2 2.2 0 1 .3 1.6.9 1.8 1.9.1.4.2.8.2 1.1zm-3.4 7.4c-.7 0-1.5 0-2.3-.3-.3-.1-.6-.2-.9-.4-.3-.2-.4-.4-.3-.7.1-.4.3-.7.6-.9.6-.5 1.2-.7 2-.8 1.2-.2 2.3-.1 3.4.3.4.2.8.4 1.1.7.2.2.4.5.5.8.1.4 0 .6-.3.7-.3.2-.7.3-1.1.4-.8.2-1.7.2-2.7.2z"/></svg>