<svg id="Layer_1" xmlns="http://www.w3.org/2000/svg" viewBox="0 0 30 27"><style>.st0{fill:#f7a800}</style><path class="st0" d="M30 13.4h-2.7c0-.5-.1-.9-.1-1.3-.1-1.5-.6-3-1.2-4.4-.8-1.6-1.8-3-3.1-4.2C21 1.8 18.9.8 16.4.3c-1.3-.3-2.5-.4-3.7-.3-2.7.2-5.1 1-7.2 2.6C3 4.5 1.4 6.8.5 9.7c-.4 1.5-.6 3-.5 4.6.2 2.8 1.2 5.2 3 7.4 2.1 2.5 4.8 4.1 8 4.8 1.1.2 2.3.3 3.4.2 2.7-.2 5.2-1 7.4-2.7.5-.4 1-.8 1.4-1.2.6-.5.5-1.4 0-1.9s-1.4-.5-1.9 0c-1.6 1.5-3.5 2.6-5.7 2.9-3.2.6-6.2-.1-8.8-2.1-2.1-1.6-3.5-3.8-4-6.4-.6-3.2.1-6.2 2.3-8.8C6.8 4.4 9 3.2 11.7 2.7c3.2-.5 6 .2 8.6 2.1 2.1 1.6 3.5 3.8 4 6.4.1.7.2 1.3.2 2h-2.8c1.4 1.8 2.7 3.6 4.1 5.3.5-.6.9-1.2 1.4-1.8.9-1.1 1.7-2.2 2.6-3.4.1.2.1.2.2.1z"/><path class="st0" d="M13.6 13.4h4c.6 0 1.2.5 1.3 1.1.1.7-.2 1.3-.9 1.5h-5.5c-.6 0-1.1-.2-1.4-.8-.1-.2-.1-.5-.1-.7V6.8c0-.8.5-1.5 1.3-1.5s1.4.6 1.4 1.4v6.4c-.1.1-.1.2-.1.3z"/></svg>