<svg id="Layer_1" xmlns="http://www.w3.org/2000/svg" viewBox="0 0 219 13"><style>.st0{fill:#acabad}</style><path class="st0" d="M1.3 6.4c.9-1 1.7-1.7 2-1.7.3 0 .5.7.5 1.5 0 1.5-.9 3.6-2.2 3.6-.4 0-.7-.4-.7-.9 0-.2 0-.6.1-1l.3-1.5zm1.2-6c0-.1.2-.4-.1-.4-.2 0-.4.2-.5.2L.7.9l.1.2c.3-.1.5-.2.5-.2.1 0 .1.1.1.3L.1 7.9c-.1.4-.1.6-.1.8C0 9.5.6 10 1.4 10c1.4 0 3.4-1.7 3.4-4.2 0-.9-.4-2-.8-2C3.7 3.9 2.3 5 1.4 6L2.5.4m3.6 5.1c.8-.9 1.4-1.6 1.7-1.6.2 0 .3.2.3.5 0 .5-.4 2.4-.8 3.6-.1.2 0 .4.1 0l.7-2c.3-.8.9-2.1 1.6-2.1.2 0 .4.2.4.5 0 .2-.1.6-.4.6h-.4c-.3 0-.7.7-1 1.4-.3.8-.7 2-.8 2.4l-.3 1.1c0 .1-.1.2-.3.2h-.4c-.2 0-.2-.1-.1-.2l.8-4.4c0-.3.1-.5-.1-.5s-.4.3-.8.8l-.2-.3m7.3 2.1c-1.2 1.2-1.8 1.7-2 1.7-.3 0-.5-.4-.5-1.1 0-1 .5-2.2 1-2.8.6-.4 1.2-.7 2.1-.8l-.6 3zm1.7-3.7C12.6 3.8 10 6.3 10 8.5c0 .8.4 1.5.8 1.5.5 0 2.1-1.7 2.5-2.1-.2.9-.4 2 .2 2 .3 0 1-.6 1.5-1.3v-.1c-.3.3-.7.8-.9.8-.1 0-.2-.2-.1-.6l1.1-4.8M17.9 7c1.3-1.7 2.7-3.1 3.4-3.1.4 0 .6.4.6.9 0 .3 0 .5-.1.8L20.9 9c-.1.2-.1.4.1.4s.8-.7 1.2-1.2l.2.1c-.4.7-1.5 1.7-2 1.7-.4.1-.6-.3-.4-1l1-3.8c.1-.5 0-.6-.2-.6s-.4.1-.8.6c-.5.5-1.3 1.4-2.1 2.4l-.4 2.2c0 .2-.1.3-.3.3h-.5c-.2 0-.2-.1-.2-.3l.9-4.5c0-.2 0-.3-.1-.3s-.4.3-.8.9l-.2-.1C16.8 5 17.8 4 18.2 4c.1 0 .3.1.2.5L17.9 7m9.2.2c-.8 1.2-1.7 2.2-2 2.2-.3 0-.5-.4-.5-1.1 0-1.8 1.2-3.9 2-3.9.4 0 .7.3 1 .9l-.5 1.9zm1.5 1.1c-.3.5-.7.9-.8.9-.1 0-.1-.1-.1-.4L29.4.4c0-.2.1-.4-.1-.4-.1 0-.4.1-.5.2l-1.6.9.1.2.6-.3c.2-.1.3-.1.3-.1.1 0 .1.1.1.2l-.7 3.3c-.2-.3-.5-.5-.9-.5-1 0-3.1 2-3.1 4.4 0 1 .3 1.7.8 1.7.4 0 1.5-.9 2.5-2.3L26.6 9c-.1.6 0 .9.3.9.4 0 1.3-.8 1.8-1.6h-.1m1.7-3c.6-.7 1.4-1.4 1.8-1.4.2 0 .4.2.2.9l-.8 4c-.1.3-.1.5.1.5.1 0 .5-.4.9-.9l.2.2c-.6.7-1.4 1.5-1.8 1.5-.3 0-.4-.2-.4-.5 0-.2 0-.4.1-.6l.8-4c0-.1 0-.2-.1-.2s-.2.1-.3.2l-.5.5-.2-.2zM32.7.8c.2 0 .4.2.4.5 0 .5-.2 1.1-.7 1.1-.2 0-.4-.2-.4-.5 0-.6.3-1.1.7-1.1m3 6.2C37 5.3 38.3 3.9 39 3.9c.4 0 .6.4.6.9 0 .3 0 .5-.1.8L38.6 9c-.1.2-.1.4.1.4s.8-.7 1.2-1.2l.2.1c-.4.7-1.5 1.7-2 1.7-.3 0-.5-.4-.4-1.1l1-3.8c.1-.5-.1-.6-.2-.6-.2 0-.4.1-.8.6-.5.5-1.3 1.4-2.1 2.4l-.5 2.2c0 .2-.1.3-.3.3h-.5c-.2 0-.2-.1-.2-.3l.9-4.5c0-.2 0-.3-.1-.3s-.4.3-.8.9l-.2-.1c.6-.8 1.5-1.8 1.9-1.8.1 0 .3.1.2.5L35.7 7m8.7 5.3c0 .4-1.1.8-2.3.8-1.3 0-1.9-.6-1.9-1s.6-1 1.9-1.6c1.3 1 2.3 1.3 2.3 1.8zM46.2 4c-.6 0-1.2-.1-1.8-.1-1.8 0-3.2 1.9-3.2 3.1 0 .8.5 1.6 1.2 1.9-.3.2-.7.5-.7.8 0 .2.1.3.2.4-.7.4-2.6 1.2-2.6 2 0 .6 1 1.2 2.8 1.2 1.8 0 3.1-.6 3.1-1.4 0-.9-2.8-1.9-2.8-2.6 0-.4 1.3-.5 2.5-1.7.6-.6.7-1.2.7-1.8 0-.4-.1-.9-.3-1.2l.8.1V4zm-2.4.3c.5 0 .9.6.9 1.4 0 1.4-.8 2.8-1.6 2.8-.5 0-.9-.6-.9-1.4 0-.6.5-2.8 1.6-2.8m7.9.2h.4v7.3h-.4zm10 4.2c-.7.8-1.6 1.3-2.2 1.3-.7 0-1.3-.6-1.3-1.5 0-1.7 1.4-4.7 3.2-4.7.5 0 .8.2.8.5s-.2.4-.4.4c-.5 0-.7-.4-1.1-.4-1 0-1.6 2.9-1.6 3.9 0 .7.3 1.1.9 1.1.4 0 1-.4 1.5-.9l.2.3m4.9-2.4c0 1.4-.7 3.3-1.9 3.3-.5 0-1-.6-1-1.8 0-1.5.8-3.2 1.7-3.2.7-.2 1.2.6 1.2 1.7zm-3.8 1.4c0 1.2.6 2.3 1.3 2.3.7 0 3.5-1.2 3.5-4 0-1.6-.9-2.2-1.3-2.2-1 .1-3.5 1.6-3.5 3.9M69 5.5c.7-.9 1.5-1.6 1.8-1.6.1 0 .3.1.2.5l-.6 2.8c1.1-1.9 2.7-3.3 3.3-3.3.3 0 .4.2.4.6 0 .3-.1.6-.2 1.1L73.6 7c1.1-1.8 2.7-3.2 3.3-3.2.3 0 .4.3.4.6s0 .4-.1.6l-.8 4c0 .1 0 .2.1.2.2 0 .6-.5 1-1l.2.1c-.5.6-1.4 1.6-1.9 1.6-.4 0-.4-.3-.3-.8l1-4.1c.1-.3.1-.4 0-.4-.2 0-.6.3-1 .7-.5.4-1.8 2-2 3l-.3 1.5c0 .2-.1.3-.2.3h-.5c-.1 0-.2-.1-.2-.2l1-4.9c.1-.2.1-.3-.1-.3-.1 0-.4.2-.8.5-.6.6-2 2.2-2.2 3.2l-.3 1.5c0 .1-.1.2-.2.2h-.5c-.2 0-.2-.1-.2-.3l.9-4.5V5c-.2 0-.4.3-.8.7l-.1-.2m10.2 0c.7-.9 1.5-1.6 1.8-1.6.1 0 .3.1.2.5l-.6 2.8c1.1-1.9 2.7-3.3 3.3-3.3.3 0 .4.2.4.6 0 .3 0 .6-.2 1.1L84 7.1c1.1-1.8 2.7-3.2 3.3-3.2.3 0 .4.3.4.6s0 .4-.1.6l-.8 4v.2c.2 0 .6-.5 1-1l.2.1c-.5.6-1.4 1.6-1.9 1.6-.4 0-.4-.3-.3-.8l.9-4.2c.1-.3.1-.4 0-.4-.2 0-.6.3-1 .7-.5.4-1.8 2-2 3l-.3 1.5c-.1.2-.1.3-.2.3h-.5c-.1 0-.2-.1-.2-.2l1-4.9c0-.2 0-.3-.1-.3-.2 0-.4.2-.8.5-.6.6-2 2.2-2.2 3.2l-.3 1.5c0 .1-.1.2-.2.2h-.5c-.2 0-.3-.1-.2-.3l.9-4.5V5c-.1 0-.4.3-.8.7l-.1-.2m14.6 3.4c0 .1 0 .2.1.2.2 0 .5-.3.9-.9l.2.1c-.7.9-1.6 1.7-1.9 1.7-.2 0-.3-.2-.3-.5 0-.2.1-.6.1-1l.4-1.9c-.7 1-1.4 1.7-1.7 2-.7.7-1.4 1.4-1.7 1.4-.3 0-.4-.3-.4-.8 0-.3 0-.5.1-.9l.6-3c.1-.4.1-.5 0-.5s-.4.2-.8.7l-.2-.1c.6-.9 1.4-1.6 1.8-1.6.3 0 .3.4.2 1l-.7 3.5v.4c0 .2 0 .3.2.3s.5-.3.9-.7c.8-.8 2-2.3 2.1-3.1l.2-1.2c0-.2.1-.3.4-.3h.3c.2 0 .3.1.2.3l-1 4.9M97.9 7c1.3-1.7 2.7-3.1 3.4-3.1.4 0 .6.4.6.9 0 .3 0 .5-.1.8l-1 3.4c-.1.2-.1.4.1.4s.8-.7 1.2-1.2l.2.1c-.4.7-1.5 1.7-2 1.7-.3 0-.5-.4-.3-1.1l1-3.8c.1-.5 0-.6-.2-.6s-.4.1-.8.6c-.5.5-1.3 1.4-2.1 2.4l-.4 2.2c0 .2-.1.3-.3.3h-.5c-.2 0-.3-.1-.2-.3l.9-4.5c.1-.2 0-.3-.1-.3s-.4.3-.8.9l-.2-.1c.5-.8 1.5-1.8 1.9-1.8.1 0 .3.1.2.5L97.9 7m5.6-1.7c.6-.7 1.4-1.4 1.8-1.4.2 0 .4.2.2.9l-.8 4c-.1.3-.1.5.1.5.1 0 .5-.4.9-.9l.2.2c-.6.7-1.4 1.5-1.8 1.5-.2 0-.4-.2-.4-.5 0-.2 0-.4.1-.6l.8-4c0-.1 0-.2-.1-.2s-.2.1-.3.2l-.5.5-.2-.2zm2.4-4.5c.2 0 .4.2.4.5 0 .5-.2 1.1-.7 1.1-.2 0-.4-.2-.4-.5 0-.6.4-1.1.7-1.1m4.6 7.9c-.7.8-1.6 1.3-2.2 1.3-.7 0-1.2-.6-1.2-1.5 0-1.7 1.4-4.7 3.2-4.7.5 0 .7.2.7.5s-.1.4-.4.4c-.5 0-.7-.4-1.1-.4-1 0-1.6 2.9-1.6 3.9 0 .7.3 1.1.9 1.1.4 0 1-.4 1.5-.9l.2.3m4.4-1.1c-1.2 1.2-1.8 1.7-2 1.7-.3 0-.5-.4-.5-1.1 0-1 .5-2.2 1-2.8.5-.5 1.1-.8 2.1-.8l-.6 3zm1.6-3.7c-2.5-.1-5.1 2.4-5.1 4.7 0 .8.4 1.5.8 1.5.5 0 2.1-1.7 2.5-2.1-.2.9-.4 2 .2 2 .3 0 1-.6 1.5-1.3v-.2c-.3.3-.7.8-.9.8-.1 0-.2-.2-.1-.6l1.1-4.8m4.6.7H120L119 9c-.1.4-.1.5.1.5s.7-.4 1.4-1.1l.2.2c-.8.8-1.7 1.5-2.1 1.5-.3 0-.5-.2-.5-.6 0-.2.1-.6.1-.9l.8-4h-.8l.1-.2c.8-.4 1.4-1 2.2-2.1h.2c-.3.6-.5 1.3-.7 1.9h1.2l-.1.4m.8.7c.6-.7 1.4-1.4 1.8-1.4.2 0 .4.2.2.9l-.8 4c-.1.3-.1.5.1.5.1 0 .5-.4.9-.9l.2.2c-.6.7-1.4 1.5-1.8 1.5-.2 0-.4-.2-.4-.5 0-.2 0-.4.1-.6l.8-4c0-.1 0-.2-.1-.2s-.2.1-.3.2l-.5.5-.2-.2zm2.5-4.5c.2 0 .4.2.4.5 0 .5-.2 1.1-.7 1.1-.2 0-.4-.2-.4-.5 0-.6.3-1.1.7-1.1m5.1 5.5c0 1.4-.7 3.3-1.9 3.3-.5 0-1-.6-1-1.8 0-1.5.8-3.2 1.8-3.2.6-.2 1.1.6 1.1 1.7zm-3.8 1.4c0 1.2.6 2.3 1.3 2.3.7 0 3.5-1.2 3.5-4 0-1.6-.9-2.2-1.3-2.2-.9.1-3.5 1.6-3.5 3.9m7.7-.7c1.3-1.7 2.7-3.1 3.4-3.1.4 0 .6.4.6.9 0 .3 0 .5-.1.8l-1 3.4c-.1.2-.1.4.1.4s.8-.7 1.2-1.2l.2.1c-.4.7-1.5 1.7-2 1.7-.3 0-.5-.4-.4-1.1l1-3.8c.1-.5 0-.6-.2-.6s-.4.1-.8.6c-.5.5-1.3 1.4-2.1 2.4l-.5 2.2c0 .2-.1.3-.3.3h-.5c-.2 0-.3-.1-.2-.3l.9-4.5c0-.2 0-.3-.1-.3s-.4.3-.8.9l-.2-.1c.5-.8 1.5-1.8 1.9-1.8.1 0 .3.1.2.5l-.3 2.6m6.2-1.2c0-.9 1.1-1.9 2-1.9.5 0 .9.4.9.8 0 .3-.2.5-.4.5-.5 0-.4-.8-1-.8-.4 0-.9.5-.9 1 0 .9 1.6 1.6 1.6 2.9 0 1.1-.9 1.8-2.3 1.8-.7 0-1.1-.3-1.1-.7 0-.3.2-.4.5-.4.5 0 .9.6 1.6.6.5 0 .8-.3.8-.8 0-1-1.7-1.9-1.7-3m9.9-1.3h.4v7.3h-.4zm10.6 1.8c0 1.4-.7 3.3-1.9 3.3-.5 0-1-.6-1-1.8 0-1.5.8-3.2 1.7-3.2.7-.2 1.2.6 1.2 1.7zm-3.8 1.4c0 1.2.6 2.3 1.3 2.3.7 0 3.5-1.2 3.5-4 0-1.6-.9-2.2-1.3-2.2-.9.1-3.5 1.6-3.5 3.9m6.1-2.2c.8-.9 1.4-1.6 1.7-1.6.2 0 .3.2.3.5 0 .5-.4 2.4-.8 3.6-.1.2 0 .4.1 0l.7-2c.3-.8.9-2.1 1.6-2.1.2 0 .4.2.4.5s-.2.7-.5.7h-.3c-.4 0-.7.7-1 1.4-.3.8-.7 2-.9 2.3l-.3 1.1c0 .1-.1.2-.3.2h-.5c-.2 0-.2-.1-.1-.2l.8-4.4c0-.3.1-.5-.1-.5s-.4.3-.8.8v-.3m4.7-.2c.6-.7 1.4-1.4 1.8-1.4.2 0 .4.2.2.9l-.8 4c-.1.3-.1.5.1.5s.5-.4.9-.9l.2.2c-.6.7-1.4 1.5-1.8 1.5-.2 0-.4-.2-.4-.5 0-.2 0-.4.1-.6l.8-4c0-.1 0-.2-.1-.2s-.2.1-.3.2l-.5.5-.2-.2zm2.4-4.5c.2 0 .4.2.4.5 0 .5-.2 1.1-.7 1.1-.2 0-.4-.2-.4-.5 0-.6.4-1.1.7-1.1m4.9 4c0 .4-.1.9-.5 1.2-.2.2-.9.6-1.9.9.4-1.8 1-2.7 1.9-2.7.3 0 .5.2.5.6zm.2 3.9c-.7.5-1.3.8-1.7.8-1 0-1.3-1.1-1-2.3 1.7-.5 3.3-1.2 3.3-2.4 0-.6-.4-1-1.2-1-1.8 0-3.2 2.3-3.2 4.2 0 1.1.6 2 1.4 2 .6 0 1.6-.4 2.4-1.1v-.2m3.2-1.7c1.3-1.7 2.7-3.1 3.4-3.1.4 0 .6.4.6.9 0 .3 0 .5-.1.8l-1 3.4c-.1.2-.1.4.1.4s.8-.7 1.2-1.2l.2.1c-.4.7-1.5 1.7-2 1.7-.3 0-.5-.4-.4-1.1l1-3.8c.1-.5-.1-.6-.2-.6-.2 0-.4.1-.8.6-.5.5-1.3 1.4-2.1 2.4l-.5 2.2c0 .2-.1.3-.2.3h-.5c-.2 0-.2-.1-.2-.3l.9-4.5c0-.2 0-.3-.1-.3s-.4.3-.8.9l-.2-.1c.5-.8 1.5-1.8 1.9-1.8.1 0 .3.1.2.5l-.4 2.6m8.9-2.4h-1.2l-.9 4.4c-.1.4-.1.5.1.5s.7-.4 1.4-1.1l.1.2c-.8.8-1.7 1.5-2.1 1.5-.3 0-.5-.2-.5-.6 0-.2.1-.6.1-.9l.8-4h-.7l.1-.2c.8-.4 1.4-1 2.2-2.1h.2c-.3.6-.5 1.3-.7 1.9h1.1v.4m4.3.2c0 .4-.1.9-.5 1.2-.2.2-.9.6-1.9.9.4-1.8 1-2.7 1.9-2.7.3 0 .5.2.5.6zm.2 3.9c-.7.5-1.3.8-1.7.8-1 0-1.3-1.1-1-2.3 1.7-.5 3.3-1.2 3.3-2.4 0-.6-.4-1-1.2-1-1.8 0-3.2 2.3-3.2 4.2 0 1.1.6 2 1.4 2 .6 0 1.6-.4 2.4-1.1v-.2m5.1-3.9c0 .4-.1.9-.5 1.2-.2.2-.9.6-1.9.9.4-1.8 1-2.7 1.9-2.7.4 0 .5.2.5.6zm.2 3.9c-.7.5-1.3.8-1.7.8-1 0-1.3-1.1-1-2.3 1.7-.5 3.3-1.2 3.3-2.4 0-.6-.4-1-1.2-1-1.8 0-3.2 2.3-3.2 4.2 0 1.1.6 2 1.4 2 .6 0 1.6-.4 2.4-1.1v-.2m1.6-3.2c.8-.9 1.4-1.6 1.7-1.6.2 0 .3.2.3.5 0 .5-.4 2.4-.8 3.6-.1.2 0 .4.1 0l.7-2c.3-.8.9-2.1 1.6-2.1.2 0 .4.2.4.5s-.1.7-.5.7h-.3c-.4 0-.7.7-1 1.4-.3.8-.7 2-.9 2.3l-.3 1.1c0 .1-.1.2-.3.2h-.5c-.2 0-.2-.1-.1-.2l.8-4.4c0-.3.1-.5-.1-.5s-.4.3-.8.8v-.3m4.7-.2c.6-.7 1.4-1.4 1.8-1.4.2 0 .4.2.2.9l-.8 4c-.1.3-.1.5.1.5.1 0 .5-.4.9-.9l.2.2c-.6.7-1.4 1.5-1.8 1.5-.3 0-.4-.2-.4-.5 0-.2 0-.4.1-.6l.8-4c0-.1 0-.2-.1-.2s-.2.1-.3.2l-.5.5-.2-.2zm2.5-4.5c.2 0 .4.2.4.5 0 .5-.2 1.1-.7 1.1-.2 0-.4-.2-.4-.5 0-.6.3-1.1.7-1.1m2.9 6.2c1.3-1.7 2.7-3.1 3.4-3.1.4 0 .6.4.6.9 0 .3 0 .5-.1.8l-1 3.4c-.1.2-.1.4.1.4s.8-.7 1.2-1.2l.2.1c-.4.7-1.5 1.7-2 1.7-.3 0-.5-.4-.3-1.1l1-3.8c.1-.5 0-.6-.2-.6s-.4.1-.8.6-1.3 1.4-2.1 2.4l-.5 2.2c0 .2-.1.3-.2.3h-.5c-.2 0-.3-.1-.2-.3l.9-4.5c0-.2 0-.3-.1-.3s-.4.3-.8.9l-.2-.1c.5-.8 1.5-1.8 1.9-1.8.1 0 .3.1.2.5l-.5 2.6m8.7 5.3c0 .4-1.1.8-2.3.8-1.3 0-1.9-.6-1.9-1s.6-1 1.9-1.6c1.3 1 2.3 1.3 2.3 1.8zm1.8-8.3c-.5-.1-1.2-.1-1.7-.1-1.8 0-3.2 1.9-3.2 3.1 0 .8.5 1.6 1.2 1.9-.3.2-.7.5-.7.8 0 .2.1.3.2.4-.7.4-2.6 1.2-2.6 2 0 .6 1 1.2 2.8 1.2 1.8 0 3.1-.6 3.1-1.4 0-.9-2.8-1.9-2.8-2.6 0-.4 1.3-.5 2.5-1.7.6-.6.7-1.2.7-1.8 0-.4-.1-.9-.3-1.2l.8.1V4zm-2.4.3c.5 0 .9.6.9 1.4 0 1.4-.8 2.8-1.6 2.8-.5 0-.9-.6-.9-1.4 0-.6.5-2.8 1.6-2.8"/></svg>